<?xml version="1.0" standalone="no"?>
<!DOCTYPE svg PUBLIC "-//W3C//DTD SVG 1.1//EN" "http://www.w3.org/Graphics/SVG/1.1/DTD/svg11.dtd" >
<svg xmlns="http://www.w3.org/2000/svg" xmlns:xlink="http://www.w3.org/1999/xlink" version="1.1">
<metadata>
Created by FontForge 20170731 at Thu Jan 13 22:27:50 2022
 By Aleksey,,,
Copyright (c) 2020 by Latinotype Ltda. All rights reserved.
</metadata>
<defs>
<font id="MixtaEssSharpIt-Black" horiz-adv-x="0" >
  <font-face 
    font-family="Mixta Ess Sharp It Black"
    font-weight="800"
    font-style="italic"
    font-stretch="normal"
    units-per-em="2048"
    panose-1="0 0 9 0 0 0 0 0 0 0"
    ascent="1638"
    descent="-410"
    x-height="940"
    cap-height="1329"
    bbox="-1083 -477 4663 1837"
    underline-thickness="102"
    underline-position="-307"
    slope="-14"
    unicode-range="U+0020-FB02"
  />
<missing-glyph horiz-adv-x="1458" 
d="M358 0v1495h881v-1495h-881zM1106 1423h-614l307 -587zM440 150l314 598l-314 598v-1196zM1157 1346l-311 -598l311 -598v1196zM1106 72l-307 587l-307 -587h614z" />
    <glyph glyph-name="fi" unicode="fi" horiz-adv-x="1290" 
d="M840 1436q-64 0 -118.5 -49t-78.5 -154l-68 -293h359q131 0 193 -77t36 -185l-110 -485l239 147l6 -8q-63 -121 -200.5 -236.5t-241.5 -115.5q-61 0 -109 38t-34 97l184 786h-332l-200 -876l-336 -48l217 922h-103l4 10l115 66l8 37q50 209 212.5 332.5t369.5 123.5
q195 0 310.5 -61t115.5 -162q0 -76 -66 -126t-180 -50l-110 354q-29 13 -82 13z" />
    <glyph glyph-name="fl" unicode="fl" horiz-adv-x="1323" 
d="M1360 1452h2l-305 -1259l297 165l6 -6q-37 -74 -130.5 -162.5t-195.5 -149t-162 -60.5q-78 0 -126 39t-33 96l282 1126q-7 107 -47 151t-112 44q-69 0 -117 -42t-68 -126l-78 -332h177l-11 -37h-174l-198 -874l-336 -48l215 922h-103l4 10l115 66l17 69
q44 189 201.5 306.5t369.5 117.5q185 0 334 -98z" />
    <glyph glyph-name=".notdef" horiz-adv-x="1458" 
d="M358 0v1495h881v-1495h-881zM1106 1423h-614l307 -587zM440 150l314 598l-314 598v-1196zM1157 1346l-311 -598l311 -598v1196zM1106 72l-307 587l-307 -587h614z" />
    <glyph glyph-name=".null" 
 />
    <glyph glyph-name="nonmarkingreturn" horiz-adv-x="682" 
 />
    <glyph glyph-name="space" unicode=" " horiz-adv-x="423" 
 />
    <glyph glyph-name="exclam" unicode="!" horiz-adv-x="585" 
d="M305 487h-26l32 965h455zM201 -20q-79 0 -130 50t-51 128q0 91 65.5 156t156.5 65q79 0 129.5 -50.5t50.5 -127.5q0 -91 -65 -156t-156 -65z" />
    <glyph glyph-name="quotedbl" unicode="&#x22;" horiz-adv-x="860" 
d="M297 809h-8l-19 641h363zM731 809h-8l-21 641h363z" />
    <glyph glyph-name="numbersign" unicode="#" horiz-adv-x="1224" 
d="M1280 922l-14 -41h-277l-158 -410h273l-14 -39h-273l-168 -432h-45l168 432h-401l-168 -432h-45l168 432h-275l15 39h274l160 410h-273l15 41h274l158 407h45l-158 -407h400l157 407h45l-157 -407h274zM385 471h401l158 410h-399z" />
    <glyph glyph-name="dollar" unicode="$" horiz-adv-x="1071" 
d="M864 1575l-57 -225q207 -6 334 -78q-31 -180 -88 -406h-9l-202 432q-33 11 -68 11q-97 0 -170.5 -54t-73.5 -153q0 -50 23.5 -98t61 -89t83 -83t91 -87.5t83 -95t61 -113.5t23.5 -135q0 -194 -135 -306.5t-379 -119.5l-57 -223h-41l55 223q-108 0 -220 22.5t-177 53.5
q54 266 94 424h10l242 -448q28 -11 68 -11q88 0 171 68t83 168q0 55 -24 106t-62 93t-84.5 83.5t-93 85t-84.5 89t-62 104t-24 121.5q0 184 149 298.5t381 117.5l57 225h41z" />
    <glyph glyph-name="percent" unicode="%" horiz-adv-x="1622" 
d="M1354 1462l-975 -1644l-35 16l967 1645zM430 641q-111 0 -182.5 70.5t-71.5 199.5q0 106 52.5 205t148.5 163t211 64q111 0 182.5 -71t71.5 -201q0 -106 -53 -204.5t-149 -162t-210 -63.5zM440 670q30 0 64 39.5t62.5 107.5t47.5 170t19 215t-55 113q-30 0 -64 -40
t-63.5 -108.5t-48.5 -171t-19 -215.5q0 -110 57 -110zM1130 -20q-111 0 -182 70.5t-71 199.5q0 79 31.5 156.5t85 138.5t132 99t164.5 38q111 0 182.5 -70.5t71.5 -199.5q0 -107 -53 -206t-149.5 -162.5t-211.5 -63.5zM1141 8q31 0 65 40t63 108t47.5 170.5t18.5 216.5
q0 110 -55 110q-31 0 -65 -40t-63 -108t-48 -170.5t-19 -215.5q0 -111 56 -111z" />
    <glyph glyph-name="ampersand" unicode="&#x26;" horiz-adv-x="1370" 
d="M799 25q152 -152 313 -273v-4l-258 -131q-112 152 -213 369q-49 -9 -104 -9q-109 0 -199.5 24.5t-161 74.5t-110 133.5t-39.5 193.5q0 112 47 215t124 177t180 118.5t210 44.5q146 0 223.5 -54.5t77.5 -145.5q0 -101 -94.5 -176.5t-268.5 -120.5q31 -176 234 -395
q153 80 249.5 287.5t96.5 504.5q0 143 -33.5 253t-105.5 220l28 17q171 -86 259.5 -220.5t88.5 -308.5q0 -268 -153 -486.5t-391 -307.5zM578 18q31 0 47 2q-115 262 -136 457q164 74 164 299q0 84 -20 117t-62 33q-58 0 -107.5 -68t-78.5 -183.5t-29 -250.5
q0 -207 52 -306.5t170 -99.5z" />
    <glyph glyph-name="quotesingle" unicode="'" horiz-adv-x="438" 
d="M303 811h-10l-25 639h375z" />
    <glyph glyph-name="parenleft" unicode="(" horiz-adv-x="733" 
d="M571 -254l-20 -29q-218 65 -347.5 250.5t-129.5 435.5q0 344 233 615.5t615 372.5l8 -29q-236 -137 -378 -434t-142 -656q0 -200 42.5 -338.5t118.5 -187.5z" />
    <glyph glyph-name="parenright" unicode=")" horiz-adv-x="733" 
d="M-145 -283l-9 29q237 137 379 436.5t142 671.5q0 197 -42.5 327.5t-119.5 180.5l20 29q221 -65 349 -245.5t128 -440.5q0 -344 -232.5 -615.5t-614.5 -372.5z" />
    <glyph glyph-name="asterisk" unicode="*" horiz-adv-x="876" 
d="M590 1075l-174 -356l-201 182l360 191l-368 -33l172 295l209 -244l-58 340h310l-232 -340l334 244l19 -295l-351 31l262 -189l-297 -182z" />
    <glyph glyph-name="plus" unicode="+" horiz-adv-x="1228" 
d="M686 666h406l-11 -41h-405l-105 -418h-45l105 418h-406l11 41h405l104 417h46z" />
    <glyph glyph-name="comma" unicode="," horiz-adv-x="497" 
d="M-211 -354l-10 20q160 85 224.5 189.5t43.5 255.5l-24 180q84 74 178 74q69 0 109 -41.5t40 -116.5q0 -81 -50 -168.5t-130.5 -161t-179.5 -134.5t-201 -97z" />
    <glyph glyph-name="hyphen" unicode="-" horiz-adv-x="899" 
d="M795 461h-695l11 41h694z" />
    <glyph glyph-name="period" unicode="." horiz-adv-x="546" 
d="M186 -18q-78 0 -128 50t-50 128q0 91 64 155t155 64q79 0 130 -49.5t51 -126.5q0 -92 -65.5 -156.5t-156.5 -64.5z" />
    <glyph glyph-name="slash" unicode="/" horiz-adv-x="507" 
d="M8 -41h-45l635 1411h45z" />
    <glyph glyph-name="zero" unicode="0" horiz-adv-x="1337" 
d="M569 -20q-207 0 -335 134t-128 369q0 158 62 315t164 278t244.5 196.5t293.5 75.5q207 0 332 -136.5t125 -369.5q0 -160 -60.5 -316.5t-161.5 -276.5t-242.5 -194.5t-293.5 -74.5zM561 23q75 0 154 82.5t141.5 217t102.5 323t40 384.5q0 277 -127 277q-74 0 -153 -85.5
t-141.5 -224t-103 -330t-40.5 -388.5q0 -256 127 -256z" />
    <glyph glyph-name="one" unicode="1" horiz-adv-x="724" 
d="M760 1348l-33 -129l-287 -1139q68 -45 97 -76v-4h-574v4q43 29 135 76l254 1022l-129 55v4q291 125 537 187z" />
    <glyph glyph-name="two" unicode="2" horiz-adv-x="1087" 
d="M209 279h614l162 176h6q-56 -244 -121 -455h-890l20 176q138 100 244 187.5t205.5 190t163.5 201t102.5 211.5t38.5 228t-70 115q-13 0 -39 -11l-424 -434h-8q48 234 98 416q91 36 174.5 52t198.5 16q200 0 305 -86.5t105 -235.5q0 -62 -22.5 -120t-59 -106t-94.5 -98
t-116 -89t-138.5 -85.5t-147 -81.5t-155.5 -83t-152 -84z" />
    <glyph glyph-name="three" unicode="3" horiz-adv-x="1071" 
d="M1085 1081q0 -284 -499 -368q182 -20 282.5 -111.5t100.5 -216.5q0 -176 -159 -290.5t-437 -114.5q-251 0 -383 53q59 240 121 432h8l198 -436q24 -9 58 -9q80 0 153.5 106.5t73.5 262.5q0 145 -53 220.5t-158 68.5l6 35q93 16 162 62.5t107.5 116.5t56.5 149.5t18 172.5
q0 95 -53 95q-10 0 -33 -9l-419 -436h-9q9 42 41 193t49 227q183 64 377 64q189 0 290 -73t101 -194z" />
    <glyph glyph-name="four" unicode="4" horiz-adv-x="1128" 
d="M-4 381l948 956h154l-205 -813h186l-55 -217h-184l-76 -307h-346l78 307h-512zM561 524l123 494l-487 -494h364z" />
    <glyph glyph-name="five" unicode="5" horiz-adv-x="1048" 
d="M1044 1049h-667l-96 -252q138 75 284 75q129 0 225 -54.5t142.5 -140.5t46.5 -190q0 -218 -172 -362.5t-445 -144.5q-119 0 -220 22.5t-158 56.5q65 256 106 387h10l213 -415q22 -11 56 -11q101 0 184.5 95.5t83.5 232.5q0 133 -65 206t-179 73q-128 0 -203 -64l-34 23
l284 741h557l125 137h8q-45 -256 -86 -415z" />
    <glyph glyph-name="six" unicode="6" horiz-adv-x="1193" 
d="M881 1348q200 0 350 -66q-40 -217 -101 -418h-8l-207 434q-21 9 -47 9q-121 0 -230.5 -170.5t-162.5 -450.5q47 51 121.5 80t163.5 29q153 0 247.5 -90t94.5 -232q0 -116 -46.5 -210.5t-126.5 -155.5t-184 -94t-221 -33q-193 0 -305.5 130.5t-112.5 352.5q0 177 65 342
t171.5 283t248.5 189t290 71zM631 717q-89 0 -166 -86q-31 -181 -31 -381q0 -126 26 -176.5t81 -50.5q29 0 58.5 15t58.5 50t51 86t35.5 128.5t13.5 172.5q0 242 -127 242z" />
    <glyph glyph-name="seven" unicode="7" horiz-adv-x="962" 
d="M266 1327h858l-43 -149q-402 -577 -569 -1178h-375q308 538 801 1057h-633l-131 -164h-8q36 209 100 434z" />
    <glyph glyph-name="eight" unicode="8" horiz-adv-x="1183" 
d="M1200 1057q0 -141 -111.5 -241t-283.5 -134q131 -30 200.5 -108.5t69.5 -190.5q0 -118 -78 -211t-211.5 -142.5t-298.5 -49.5q-213 0 -328.5 84.5t-115.5 226.5q0 148 122 256t316 139q-116 33 -176.5 106t-60.5 171q0 113 79 202t206.5 136t275.5 47q195 0 295 -81
t100 -210zM655 702q67 0 122 78t81.5 179.5t26.5 191.5q0 156 -92 156q-53 0 -99 -46.5t-74 -116.5t-43.5 -145.5t-15.5 -140.5q0 -156 94 -156zM739 502q0 80 -23 121t-79 41q-58 0 -107 -48.5t-79 -122t-47 -154t-17 -151.5q0 -165 102 -165q58 0 107.5 47.5t79.5 121
t46.5 155t16.5 155.5z" />
    <glyph glyph-name="nine" unicode="9" horiz-adv-x="1200" 
d="M741 1348q213 0 328 -133.5t115 -378.5q0 -146 -40.5 -279t-113 -237t-169 -181t-213.5 -118t-240 -41q-81 0 -170 17.5t-158 49.5q47 250 98 416h10l207 -434q21 -6 45 -6q125 0 229.5 167t153.5 447q-107 -107 -282 -107q-159 0 -256 94.5t-97 254.5q0 141 78 249.5
t203 164t272 55.5zM831 690q23 171 23 338q0 141 -23.5 210t-91.5 69q-80 0 -143.5 -110.5t-63.5 -317.5q0 -140 35 -205.5t105 -65.5q80 0 159 82z" />
    <glyph glyph-name="colon" unicode=":" horiz-adv-x="583" 
d="M344 559q-79 0 -129.5 49.5t-50.5 126.5q0 91 65 156t156 65q78 0 128 -50t50 -128q0 -91 -64 -155t-155 -64zM201 -18q-79 0 -130 50t-51 128q0 90 65.5 154.5t156.5 64.5q78 0 128 -49.5t50 -126.5q0 -92 -64 -156.5t-155 -64.5z" />
    <glyph glyph-name="semicolon" unicode=";" horiz-adv-x="565" 
d="M322 557q-79 0 -130 49.5t-51 126.5q0 92 65 156.5t156 64.5q79 0 129 -50t50 -128q0 -91 -64 -155t-155 -64zM-166 -354l-10 20q161 85 226 189.5t44 255.5l-24 180q81 74 176 74q69 0 109 -41.5t40 -116.5q0 -108 -85 -222.5t-211.5 -202t-264.5 -136.5z" />
    <glyph glyph-name="less" unicode="&#x3c;" horiz-adv-x="1228" 
d="M242 621l727 -349l-15 -39l-764 367l13 47l948 369l-12 -49z" />
    <glyph glyph-name="equal" unicode="=" horiz-adv-x="1228" 
d="M1126 829h-856l11 41h856zM1026 420h-856l10 41h856z" />
    <glyph glyph-name="greater" unicode="&#x3e;" horiz-adv-x="1228" 
d="M1063 629l-727 348l14 39l764 -367l-12 -47l-948 -369l12 50z" />
    <glyph glyph-name="question" unicode="?" horiz-adv-x="1001" 
d="M1120 1192q0 -242 -389 -387l-242 -318h-26l-76 226q387 147 387 538q0 98 -28 139.5t-70 41.5q-28 0 -51 -13l-422 -438h-6q45 202 110 410q169 82 381 82q205 0 318.5 -78t113.5 -203zM442 379q79 0 130 -50.5t51 -127.5q0 -91 -65.5 -156t-156.5 -65q-79 0 -129.5 50
t-50.5 128q0 91 65 156t156 65z" />
    <glyph glyph-name="at" unicode="@" horiz-adv-x="1601" 
d="M952 1143q270 0 440.5 -139t170.5 -347q0 -127 -69 -245t-182.5 -190t-236.5 -72q-180 0 -252 86q-77 -89 -184 -89q-88 0 -147.5 64t-59.5 184q0 194 132 317.5t335 123.5q109 0 188 -50l142 50h10l-147 -494q-47 -152 20 -152q35 0 73.5 39.5t71.5 105t54.5 161
t21.5 196.5q0 205 -99.5 307.5t-289.5 102.5q-127 0 -243.5 -56t-202 -152t-136.5 -233t-51 -290q0 -234 109 -357t309 -123q160 0 326 66l4 -39q-174 -76 -361 -76q-182 0 -322.5 68t-221 200.5t-80.5 311.5q0 155 73.5 291.5t195 229.5t280.5 146.5t329 53.5zM811 268
l152 514q-19 19 -58 19q-58 0 -109 -66t-79.5 -167t-28.5 -206q0 -59 19 -87.5t49 -28.5q31 0 55 22z" />
    <glyph glyph-name="A" unicode="A" horiz-adv-x="1241" 
d="M764 1331h160l133 -1249q55 -37 96 -78v-4h-584v4q56 36 133 78l-34 313h-416l-143 -241q56 -58 129 -150v-4h-388v4q94 75 216 150zM664 436l-64 551l-324 -551h388z" />
    <glyph glyph-name="B" unicode="B" horiz-adv-x="1267" 
d="M1272 1065q0 -137 -106.5 -221.5t-338.5 -134.5h7q62 0 124.5 -21.5t114 -59.5t83.5 -97.5t32 -129.5q0 -190 -172 -295.5t-465 -105.5h-606v4q39 29 131 76l293 1169q-60 39 -95 76v4h627q172 0 271.5 -70.5t99.5 -193.5zM578 709h180q105 72 154 160.5t49 207.5
q0 211 -148 211h-92zM850 401q0 267 -205 267h-78l-143 -580q50 -47 135 -47q119 0 205 93.5t86 266.5z" />
    <glyph glyph-name="C" unicode="C" horiz-adv-x="1220" 
d="M942 1348q104 0 209.5 -25t167.5 -66q-44 -220 -98 -403h-11l-217 442q-32 13 -67 13q-55 0 -118 -33.5t-129.5 -110t-119.5 -184.5t-87 -272.5t-34 -358.5q0 -144 48.5 -235.5t121.5 -91.5q34 0 51 10l469 440h11q-58 -244 -115 -410q-191 -83 -428 -83q-220 0 -362 144
t-142 380q0 171 67.5 327.5t181 269.5t271 180t330.5 67z" />
    <glyph glyph-name="D" unicode="D" horiz-adv-x="1425" 
d="M565 0h-618v4q57 40 127 76l297 1169q-53 34 -92 76v4h569q115 0 217.5 -33.5t183.5 -99t128.5 -171.5t47.5 -241q0 -144 -53.5 -272.5t-142 -220t-200.5 -158.5t-231.5 -100t-232.5 -33zM586 41q90 0 176 50t157.5 145.5t115.5 253.5t44 354q0 444 -268 444h-88
l-303 -1202q67 -45 166 -45z" />
    <glyph glyph-name="E" unicode="E" horiz-adv-x="1212" 
d="M991 0h-1044v4q44 32 129 76l293 1169q-59 40 -90 76v4h1011q-48 -254 -108 -475h-11l-235 434h-213l-150 -592h117q113 129 256 265h10l-149 -572h-10q-69 122 -113 266h-121l-143 -575l108 -39h131l465 436h11q-62 -246 -144 -477z" />
    <glyph glyph-name="F" unicode="F" horiz-adv-x="1101" 
d="M545 0h-596v4q40 30 127 76l293 1169q-71 48 -95 76v4h994q-42 -219 -107 -475h-8l-238 434h-192l-158 -633h97q136 151 258 267h12l-150 -572h-10q-79 150 -117 266h-100l-133 -536q73 -37 123 -76v-4z" />
    <glyph glyph-name="G" unicode="G" horiz-adv-x="1284" 
d="M721 621v6h571v-6q-55 -42 -110 -74l-142 -572h-8l-106 72q-175 -67 -320 -67q-231 0 -371.5 143t-140.5 381q0 169 66.5 325t179.5 269.5t270 181.5t330 68q102 0 219 -25.5t176 -65.5q-27 -152 -86 -403h-10l-227 440q-30 15 -72 15q-63 0 -130 -35.5t-133.5 -113
t-119 -185.5t-85 -267.5t-32.5 -345.5q0 -166 50.5 -254t125.5 -88q61 0 109 41l121 484q-77 36 -125 76z" />
    <glyph glyph-name="H" unicode="H" horiz-adv-x="1449" 
d="M516 0h-571v4q46 33 131 76l293 1169q-60 39 -95 76v4h572v-4q-45 -31 -133 -76l-140 -557h414l139 557q-59 38 -92 76v4h572v-4q-55 -36 -133 -76l-293 -1169q58 -37 94 -76v-4h-572v4q44 31 132 76l143 571h-412l-143 -571q56 -38 94 -76v-4z" />
    <glyph glyph-name="I" unicode="I" horiz-adv-x="690" 
d="M516 0h-571v4q46 33 131 76l293 1169q-60 39 -95 76v4h572v-4q-45 -31 -133 -76l-291 -1169q56 -38 94 -76v-4z" />
    <glyph glyph-name="J" unicode="J" horiz-adv-x="950" 
d="M223 -20q-158 0 -284 79q41 216 92 412h10l176 -446q10 -5 16 -5q59 0 108 82t101 289l213 858q-59 38 -92 76v4h572v-4q-45 -29 -136 -76l-200 -811q-50 -209 -209.5 -333.5t-366.5 -124.5z" />
    <glyph glyph-name="K" unicode="K" horiz-adv-x="1343" 
d="M516 0h-571v4q36 25 131 76l293 1169q-65 44 -95 76v4h572v-4q-33 -23 -133 -76l-140 -557h101l495 484q-66 68 -131 149v4h453v-4q-94 -55 -266 -149l-269 -258l236 -836q52 -29 111 -78v-4h-592v4q48 30 127 74l-162 573h-111l-143 -571q56 -38 94 -76v-4z" />
    <glyph glyph-name="L" unicode="L" horiz-adv-x="1099" 
d="M936 0h-991v4q46 33 131 76l293 1169q-71 48 -95 76v4h572v-4q-55 -36 -133 -76l-293 -1169l90 -39h92l473 473h10q-77 -302 -149 -514z" />
    <glyph glyph-name="M" unicode="M" horiz-adv-x="1742" 
d="M1868 1329v-4q-46 -31 -154 -86l-217 -1159q60 -40 98 -76v-4h-575v4q67 45 131 74l213 1089h-2l-688 -1151h-117l-94 1170l-324 -1032q91 -82 146 -150v-4h-394v4q87 69 209 150l338 1085q-55 35 -112 86v4h471l71 -909l545 909h455z" />
    <glyph glyph-name="N" unicode="N" horiz-adv-x="1323" 
d="M1159 1325v4h359v-4q-80 -69 -195 -147l-295 -1178h-129l-504 1120l-241 -968q68 -71 120 -148v-4h-356v4q60 52 195 150l254 1015l-109 156v4h424l408 -921l192 770q-88 91 -123 147z" />
    <glyph glyph-name="O" unicode="O" horiz-adv-x="1431" 
d="M618 -23q-244 0 -385 141t-141 384q0 106 28.5 211t79.5 198.5t126 174t163.5 138.5t196.5 91t221 33q244 0 385.5 -143t141.5 -388q0 -161 -63.5 -314t-171 -269t-260.5 -186.5t-321 -70.5zM616 20q127 0 237.5 133.5t174.5 350.5t64 457q0 346 -187 346
q-125 0 -234.5 -135.5t-173 -354.5t-63.5 -459q0 -184 46.5 -261t135.5 -77z" />
    <glyph glyph-name="P" unicode="P" horiz-adv-x="1220" 
d="M551 0h-606v4q44 30 131 76l293 1169q-53 34 -95 76v4h551q87 0 162.5 -13t138.5 -40t107.5 -67.5t69 -98.5t24.5 -129q0 -107 -54.5 -190.5t-150.5 -135t-220.5 -78t-270.5 -26.5h-92l-117 -471q75 -37 129 -76v-4zM723 1288l-174 -696h88q66 0 129 30.5t113.5 85.5
t81 142.5t30.5 191.5q0 137 -50.5 191.5t-135.5 54.5h-82z" />
    <glyph glyph-name="Q" unicode="Q" horiz-adv-x="1431" 
d="M1434 817q0 -208 -99 -394.5t-275.5 -307.5t-389.5 -135q241 -147 567 -193l-2 -6l-317 -209q-121 92 -198 190.5t-118 214.5q-236 4 -373 145.5t-137 379.5q0 106 28.5 211t79.5 198.5t126 174t163.5 138.5t196.5 91t221 33q244 0 385.5 -143t141.5 -388zM434 358
q0 -184 46.5 -261t135.5 -77q127 0 237.5 133.5t174.5 350.5t64 457q0 346 -187 346q-125 0 -234.5 -135.5t-173 -354.5t-63.5 -459z" />
    <glyph glyph-name="R" unicode="R" horiz-adv-x="1290" 
d="M1032 582l92 -496q74 -51 107 -82v-4h-584v4q59 43 123 74l-74 543h-141l-133 -541q46 -30 96 -76v-4h-573v4q56 38 131 76l293 1169q-58 37 -97 76v4h633q185 0 297.5 -79.5t112.5 -209.5q0 -87 -43.5 -158t-118.5 -119t-165.5 -79t-194.5 -45v-6q128 -18 239 -51z
M827 1288h-106l-156 -629h189q231 118 231 410q0 102 -43.5 160.5t-114.5 58.5z" />
    <glyph glyph-name="S" unicode="S" horiz-adv-x="1056" 
d="M399 -25q-111 0 -225.5 22.5t-179.5 53.5q54 266 94 424h10l244 -448q25 -11 66 -11q88 0 172 68t84 168q0 55 -24 106t-62.5 93t-85 83.5t-92.5 85t-84.5 89t-62.5 104t-24 121.5q0 124 70.5 219t193.5 146t279 51q105 0 201 -20.5t160 -57.5q-35 -203 -89 -406h-8
l-202 432q-33 11 -68 11q-61 0 -114.5 -21.5t-91.5 -70t-38 -115.5q0 -50 23.5 -98t61.5 -89t83.5 -83t91 -87.5t83.5 -95t61.5 -113.5t23.5 -135q0 -201 -145 -313.5t-406 -112.5z" />
    <glyph glyph-name="T" unicode="T" horiz-adv-x="1257" 
d="M264 1329h1163q-55 -288 -104 -473h-10l-238 432h-67l-303 -1208q70 -39 120 -76l-2 -4h-624l2 4q35 18 157 76l306 1208h-68l-461 -432h-10q62 244 139 473z" />
    <glyph glyph-name="U" unicode="U" horiz-adv-x="1310" 
d="M1151 1325v4h358v-4q-56 -50 -196 -149l-193 -750q-21 -79 -48.5 -141.5t-71.5 -121t-100 -97.5t-136.5 -62.5t-179.5 -23.5q-259 0 -375 131.5t-59 355.5l196 782q-61 39 -98 76v4h575v-4q-48 -32 -135 -76l-196 -788q-29 -119 -22.5 -212.5t65.5 -150.5t163 -57
q132 0 235.5 104t147.5 281l193 750q-84 91 -123 149z" />
    <glyph glyph-name="V" unicode="V" horiz-adv-x="1239" 
d="M1102 1325v4h385v-4q-92 -74 -215 -149l-699 -1176h-159l-133 1249q-56 35 -97 76v4h584v-4q-63 -40 -133 -76l102 -905l492 832q-65 67 -127 149z" />
    <glyph glyph-name="W" unicode="W" horiz-adv-x="1835" 
d="M1698 1325v4h391v-4q-88 -68 -217 -149l-655 -1180h-183l6 1014l-493 -1014h-195l-73 1253q-64 42 -93 76v4h568v-4q-57 -35 -138 -76l58 -903l364 756l2 147q-61 40 -92 76v4h580v-4q-72 -44 -135 -76l-21 -891l455 818q-60 63 -129 149z" />
    <glyph glyph-name="X" unicode="X" horiz-adv-x="1243" 
d="M1030 1325v4h400l-3 -4q-70 -52 -221 -149l-360 -439l229 -657q55 -36 92 -76l-2 -4h-594l2 4q79 50 140 74l-181 514l-387 -438q68 -68 125 -150v-4h-399l2 4q77 63 217 150l428 481l-215 616q-60 38 -94 74l2 4h590l-2 -4q-57 -37 -133 -74l165 -473l322 398
q-85 92 -123 149z" />
    <glyph glyph-name="Y" unicode="Y" horiz-adv-x="1230" 
d="M778 0h-579l2 4q53 36 135 76l115 457l-160 714q-48 28 -90 74v4h594v-4q-47 -26 -152 -76l139 -633l418 560q-61 59 -133 149v4h395v-4q-108 -84 -215 -149l-440 -592l-127 -504q56 -34 98 -76v-4z" />
    <glyph glyph-name="Z" unicode="Z" horiz-adv-x="1157" 
d="M319 1329h949v-33l-920 -1255h279l473 473h10q-68 -266 -152 -514h-1003v35l911 1253h-215l-461 -432h-10q62 244 139 473z" />
    <glyph glyph-name="bracketleft" unicode="[" horiz-adv-x="706" 
d="M508 -258h-533l410 1644h533l-9 -32h-207l-393 -1579h205z" />
    <glyph glyph-name="backslash" unicode="\" horiz-adv-x="768" 
d="M610 0h-41l-315 1329h41z" />
    <glyph glyph-name="bracketright" unicode="]" horiz-adv-x="708" 
d="M371 -258h-533l8 33h207l393 1579h-204l6 32h532z" />
    <glyph glyph-name="asciicircum" unicode="^" horiz-adv-x="1228" 
d="M713 1329h239l70 -584h-8l-217 365l-435 -365h-8z" />
    <glyph glyph-name="underscore" unicode="_" horiz-adv-x="854" 
d="M676 -246h-852l8 41h852z" />
    <glyph glyph-name="grave" unicode="`" horiz-adv-x="778" 
d="M516 1073h-8l-336 371l2 8h354z" />
    <glyph glyph-name="a" unicode="a" horiz-adv-x="1118" 
d="M877 193l241 147l6 -8q-59 -117 -198.5 -234.5t-229.5 -117.5q-78 0 -125 38.5t-34 96.5l71 286q-91 -203 -186 -312t-211 -109q-88 0 -138 69.5t-50 204.5t50 263.5t135 225.5t206.5 156t255.5 59q119 0 180 -45l227 50zM645 545l64 250q16 133 -56 133
q-60 0 -119.5 -74t-99.5 -178.5t-65 -212.5t-25 -180q0 -93 51 -93q28 0 57 26t77.5 106.5t115.5 222.5z" />
    <glyph glyph-name="b" unicode="b" horiz-adv-x="1099" 
d="M862 963q97 0 150 -74.5t53 -222.5q0 -159 -50 -290t-136 -217.5t-201 -134t-246 -47.5q-214 0 -409 144l290 1151h-182l2 12q101 60 261.5 108.5t275.5 57.5l-230 -940q47 106 91 183.5t96 141t111 96t124 32.5zM440 10q75 0 147 102t115 248t43 279q0 111 -61 111
q-32 0 -64.5 -26.5t-85.5 -111.5t-124 -235l-60 -244q2 -57 25.5 -90t64.5 -33z" />
    <glyph glyph-name="c" unicode="c" horiz-adv-x="905" 
d="M639 958q101 0 181 -26.5t118 -65.5l-90 -319h-10q-55 216 -100.5 297.5t-110.5 81.5q-76 0 -136.5 -73.5t-91 -183.5t-30.5 -229q0 -272 153 -272q130 0 307 180l9 -6q-177 -362 -476 -362q-141 0 -232 97t-91 269q0 118 47 230t126.5 196t191.5 135t235 51z" />
    <glyph glyph-name="d" unicode="d" horiz-adv-x="1122" 
d="M1192 1450l-309 -1257l241 147l6 -8q-58 -116 -200.5 -234t-231.5 -118q-78 0 -126 39t-33 96l73 293q-93 -207 -188.5 -317.5t-212.5 -110.5q-88 0 -138 69.5t-50 204.5t50 263.5t135.5 225.5t207 156t256.5 59q49 0 80 -10l82 324h-172l2 12q102 60 257.5 108.5
t270.5 57.5zM395 190q29 0 58.5 26.5t78.5 108t119 228.5l60 231q16 144 -58 144q-59 0 -118.5 -74t-99.5 -178t-65.5 -212.5t-25.5 -180.5q0 -93 51 -93z" />
    <glyph glyph-name="e" unicode="e" horiz-adv-x="921" 
d="M932 772q0 -124 -148 -217t-419 -143q0 -244 165 -244q136 0 318 164l8 -6q-181 -346 -477 -346q-159 0 -251.5 97t-92.5 267q0 118 51.5 231.5t135 197t195 134.5t226.5 51q128 0 208.5 -51.5t80.5 -134.5zM365 444q142 49 225.5 163t83.5 247q0 72 -51 72
q-61 0 -119.5 -71t-96 -182.5t-42.5 -228.5z" />
    <glyph glyph-name="f" unicode="f" horiz-adv-x="671" 
d="M782 1468q162 0 267 -41l-113 -366h-10q-47 219 -82.5 297t-79.5 78q-38 0 -64.5 -36t-48.5 -132l-76 -332h211l-10 -37h-209l-200 -874l-336 -48l215 922h-103l4 10l115 66l19 76q43 187 178 302t323 115z" />
    <glyph glyph-name="g" unicode="g" horiz-adv-x="989" 
d="M1130 1102l-59 -225h-242q89 -74 89 -203q0 -160 -134 -269.5t-338 -109.5q-21 0 -67 4q-152 -13 -152 -70q0 -20 19 -33.5t71 -23.5l306 -59q123 -25 182 -88t59 -150q0 -100 -80 -175t-204.5 -110.5t-272.5 -35.5q-454 0 -454 190q0 70 69.5 124t214.5 75
q-104 51 -104 153q0 74 65 136t191 85q-98 31 -150.5 100t-52.5 165q0 159 133.5 267.5t341.5 108.5q131 0 217 -47q155 123 352 191zM451 328q45 0 84.5 59.5t62.5 159.5t23 215q0 87 -15.5 125.5t-52.5 38.5q-47 0 -86.5 -61t-61.5 -160.5t-22 -212.5q0 -86 15.5 -125
t52.5 -39zM446 -137l-221 51q-20 4 -30 8q-76 -56 -76 -160q0 -174 194 -174q109 0 175.5 51t66.5 119q0 78 -109 105z" />
    <glyph glyph-name="h" unicode="h" horiz-adv-x="1142" 
d="M1030 694l-127 -501l242 147l6 -8q-59 -117 -198.5 -234.5t-229.5 -117.5q-78 0 -126.5 39t-33.5 96l142 565q14 61 -27 61q-29 0 -57.5 -23.5t-81.5 -109t-125 -239.5l-84 -344l-334 -48l326 1295h-183l2 12q101 60 261.5 108.5t275.5 57.5l-229 -940
q102 233 210.5 340.5t229.5 107.5q91 0 130 -74.5t11 -189.5z" />
    <glyph glyph-name="i" unicode="i" horiz-adv-x="675" 
d="M500 1071q-79 0 -127.5 48t-48.5 124q0 88 63.5 149.5t155.5 61.5q79 0 127.5 -47.5t48.5 -122.5q0 -89 -64 -151t-155 -62zM244 -20q-62 0 -111 38t-35 97l158 647l-256 -144l-6 13q134 211 342 327q130 0 193 -77.5t34 -184.5l-125 -503l240 147l6 -8
q-63 -121 -200 -236.5t-240 -115.5z" />
    <glyph glyph-name="j" unicode="j" horiz-adv-x="628" 
d="M551 1454q79 0 127.5 -47.5t48.5 -122.5q0 -89 -64.5 -151t-156.5 -62q-78 0 -126 48.5t-48 123.5q0 88 63 149.5t156 61.5zM342 958q131 0 193.5 -76.5t35.5 -185.5l-127 -542q-139 -582 -700 -582v14q115 16 210 138.5t150 351.5l162 686l-258 -144l-6 13
q134 210 340 327z" />
    <glyph glyph-name="k" unicode="k" horiz-adv-x="1107" 
d="M678 1450l-348 -1425l-334 -48l326 1295h-183l2 12q97 59 259.5 108t277.5 58zM702 678l177 -485l225 147l6 -8q-59 -117 -196 -234.5t-224 -117.5q-74 0 -107 33.5t-46 101.5l-82 334q117 172 253 305t269 200l129 -262l-12 -8q-81 61 -189 61q-117 0 -203 -67z" />
    <glyph glyph-name="l" unicode="l" horiz-adv-x="645" 
d="M684 1450l-45 -178l-262 -1079l299 165l6 -6q-37 -74 -131 -162.5t-196 -149t-162 -60.5q-77 0 -125 39t-33 96l291 1157h-183l2 12q101 60 262 108.5t277 57.5z" />
    <glyph glyph-name="m" unicode="m" horiz-adv-x="1734" 
d="M1622 694l-127 -501l240 147l6 -8q-37 -75 -115.5 -157.5t-166.5 -138.5t-146 -56q-82 0 -128.5 38.5t-31.5 96.5l143 565q8 30 0.5 45.5t-24.5 15.5q-20 0 -41 -14t-52 -51.5t-73.5 -115t-93.5 -191.5l-78 -344l-334 -48l160 703q11 61 -25 61q-29 0 -57 -24t-77.5 -108
t-117.5 -236l-88 -348l-332 -48l195 785l-258 -144l-6 13q134 211 342 327q130 0 193 -77.5t34 -184.5l-43 -174q182 436 420 436q94 0 132 -74t11 -190l-43 -196q188 460 439 460q93 0 132.5 -74.5t10.5 -189.5z" />
    <glyph glyph-name="n" unicode="n" horiz-adv-x="1210" 
d="M1098 694l-129 -501l241 147l7 -8q-59 -117 -199 -234.5t-230 -117.5q-77 0 -124.5 39t-34.5 96l143 565q14 61 -27 61q-29 0 -57.5 -23.5t-80.5 -108t-124 -236.5l-88 -348l-332 -48l195 785l-258 -144l-6 13q134 211 342 327q130 0 193 -77.5t34 -184.5l-45 -178
q102 230 209.5 335t228.5 105q92 0 131.5 -75t10.5 -189z" />
    <glyph glyph-name="o" unicode="o" horiz-adv-x="1083" 
d="M453 -23q-184 0 -296 109.5t-112 294.5q0 155 80 288.5t214.5 211t289.5 77.5q185 0 297 -108.5t112 -292.5q0 -117 -47.5 -224.5t-126.5 -185.5t-187 -124t-224 -46zM449 12q69 0 130 111t95.5 277.5t34.5 334.5q0 103 -16.5 146t-55.5 43q-70 0 -131.5 -110.5
t-96 -276.5t-34.5 -332q0 -104 17.5 -148.5t56.5 -44.5z" />
    <glyph glyph-name="p" unicode="p" horiz-adv-x="1175" 
d="M508 -23q-54 0 -119 21l-84 -346q116 -31 205 -72v-8h-653v8q33 24 127 72l274 1110l-258 -144l-6 13q134 211 342 327q130 0 192 -77t35 -185l-45 -184q46 105 90.5 183t96 140.5t110.5 95t123 32.5q98 0 150.5 -74t52.5 -223q0 -159 -50 -290t-136 -217.5t-201 -134
t-246 -47.5zM760 750q-32 0 -65 -26.5t-86.5 -111.5t-125.5 -235l-65 -266q0 -47 26.5 -74t65.5 -27q77 0 151 102t117 248t43 279q0 111 -61 111z" />
    <glyph glyph-name="q" unicode="q" horiz-adv-x="1095" 
d="M874 913l228 50l-336 -1311q70 -39 108 -72v-8h-653v8q99 40 225 72l193 756q-95 -205 -195.5 -316.5t-216.5 -111.5q-92 0 -148 70.5t-56 203.5q0 136 50 264t136.5 225t213.5 156t271 59q116 0 180 -45zM410 190q45 0 104.5 75t159.5 282l59 239q9 76 -5.5 109
t-51.5 33q-69 0 -134 -74t-106.5 -178.5t-66.5 -211.5t-25 -181q0 -45 19 -69t47 -24z" />
    <glyph glyph-name="r" unicode="r" horiz-adv-x="905" 
d="M905 969q48 0 94 -27l-139 -426h-12q-4 114 -29 156.5t-65 42.5q-28 0 -51 -11t-55.5 -44t-73 -103.5t-91.5 -181.5l-88 -350l-334 -48l197 785l-258 -144l-6 13q134 210 340 327q130 0 193 -77t36 -185l-45 -176q50 114 89 188t86.5 138t99 93.5t112.5 29.5z" />
    <glyph glyph-name="s" unicode="s" horiz-adv-x="858" 
d="M514 958q80 0 175 -17.5t142 -39.5l-90 -328h-10q-35 176 -94.5 264.5t-128.5 88.5q-43 0 -67.5 -24.5t-24.5 -67.5q0 -47 25 -97.5t63 -92.5t82 -91t82 -92.5t63 -97.5t25 -107q0 -124 -112 -201.5t-341 -77.5q-83 0 -178.5 19t-134.5 41l88 330h10q44 -179 110.5 -268
t141.5 -89q104 0 104 113q0 43 -18.5 85t-47.5 78t-64 72t-70.5 73.5t-64.5 75.5t-47.5 84.5t-18.5 94.5q0 124 112 198t289 74z" />
    <glyph glyph-name="t" unicode="t" horiz-adv-x="716" 
d="M217 -20q-77 0 -125 39t-33 96l195 784h-125v14l158 50q140 129 377 317h10l-88 -344h209l-11 -37h-209l-174 -706l299 165l7 -6q-59 -114 -228.5 -243t-261.5 -129z" />
    <glyph glyph-name="u" unicode="u" horiz-adv-x="1204" 
d="M1153 963l-192 -770l237 147l8 -8q-60 -117 -200 -234.5t-228 -117.5q-82 0 -128.5 38.5t-31.5 96.5l74 295q-101 -225 -204 -327.5t-218 -102.5q-92 0 -131 75.5t-10 188.5l127 522l-258 -148l-6 13q134 211 342 327q130 0 192 -77t35 -185l-108 -438q-14 -61 26 -61
q27 0 54.5 24.5t77 108.5t120.5 237l80 324z" />
    <glyph glyph-name="v" unicode="v" horiz-adv-x="970" 
d="M485 -10h-133l-155 749l-197 -121l-6 13q107 212 287 327q114 0 171.5 -48.5t75.5 -141.5l101 -555q110 140 147 241.5t37 219.5q0 102 -40 174t-114 98l5 10l307 -36q10 -51 10 -113q0 -72 -32 -160t-79.5 -168.5t-117.5 -173.5t-131 -164t-136 -151z" />
    <glyph glyph-name="w" unicode="w" horiz-adv-x="1495" 
d="M467 -10h-133l-135 749l-197 -121l-6 13q107 212 287 327q218 0 247 -190l82 -557q121 150 191 262l-82 420l334 47l116 -721q95 128 129.5 228t34.5 215q0 226 -153 284l4 10l307 -36q10 -51 10 -113q0 -90 -42 -199t-115.5 -219t-150.5 -206t-167 -193h-133l-80 420
q-24 -35 -50 -69.5t-45.5 -60.5t-48 -60.5t-42.5 -50.5t-45.5 -51.5t-39 -43.5t-41.5 -45t-36 -39z" />
    <glyph glyph-name="x" unicode="x" horiz-adv-x="1042" 
d="M643 588l137 -404l242 156l6 -8q-67 -121 -193.5 -236.5t-197.5 -115.5q-126 0 -160 98l-84 250q-61 -118 -154.5 -211.5t-203.5 -136.5l-58 268l11 6q52 -37 139 -37q72 0 133 33t119 117l-125 372l-186 -121l-5 13q82 210 254 327q116 3 171.5 -42t99.5 -171l43 -122
q36 58 70 104t77 92.5t93.5 82t105.5 56.5l57 -268l-8 -6q-52 37 -149 37q-61 0 -113.5 -26.5t-120.5 -106.5z" />
    <glyph glyph-name="y" unicode="y" horiz-adv-x="968" 
d="M664 956l307 -36q10 -52 10 -101q0 -99 -57.5 -230t-148 -260t-203 -258.5t-222 -232t-205.5 -174.5t-153 -92l-129 244q112 0 245 31t257 90l-168 802l-197 -121l-6 13q107 212 287 327q114 0 171.5 -48.5t75.5 -141.5l103 -561q103 134 141.5 238t38.5 231
q0 192 -149 270z" />
    <glyph glyph-name="z" unicode="z" horiz-adv-x="954" 
d="M201 940h792l-6 -29l-645 -872l158 2l370 330h11q-11 -45 -31 -111.5t-46.5 -150.5t-33.5 -109h-821l6 29l645 872l-131 -2l-371 -330h-10q23 93 113 371z" />
    <glyph glyph-name="braceleft" unicode="{" horiz-adv-x="671" 
d="M449 -227l-5 -31l-45 4q-240 25 -318.5 117t-12.5 274l79 215q30 82 5.5 134t-95.5 67l9 35q77 14 128.5 66t61.5 130l29 222q24 176 140.5 263t381.5 113l41 4v-28l-14 -4q-99 -29 -147 -86t-60 -154l-31 -223q-20 -141 -108 -220.5t-279 -101.5q77 -15 129.5 -41
t79.5 -58t36.5 -74.5t3.5 -85.5t-24 -95l-69 -199q-67 -193 75 -241z" />
    <glyph glyph-name="bar" unicode="|" horiz-adv-x="354" 
d="M0 -326h-41l444 1778h39z" />
    <glyph glyph-name="braceright" unicode="}" horiz-adv-x="671" 
d="M-88 -254l-41 -4v29l14 4q100 29 147.5 85t59.5 154l31 224q20 141 108.5 220t278.5 101q-76 15 -128.5 41t-80 58t-36.5 74.5t-3.5 85.5t23.5 95l71 199q34 102 13.5 163t-88.5 79l-11 2l4 30l45 -4q241 -22 319.5 -115t12.5 -276l-80 -215q-29 -82 -4.5 -134t95.5 -67
l-9 -34q-77 -14 -127.5 -66.5t-60.5 -130.5l-29 -221q-24 -176 -141.5 -263.5t-382.5 -113.5z" />
    <glyph glyph-name="asciitilde" unicode="~" horiz-adv-x="1228" 
d="M244 573h-33q23 64 96.5 104t165.5 40q53 0 105.5 -16t89.5 -35.5t91.5 -35.5t110.5 -16q72 0 128 25t77 76h33q-26 -70 -97.5 -107t-158.5 -37q-53 0 -106.5 16t-91 35.5t-91 35.5t-106.5 16q-74 0 -134 -26t-79 -75z" />
    <glyph glyph-name="uni00A0" unicode="&#xa0;" horiz-adv-x="423" 
 />
    <glyph glyph-name="exclamdown" unicode="&#xa1;" horiz-adv-x="569" 
d="M338 563q-78 0 -128 49.5t-50 126.5q0 92 64.5 157t156.5 65q78 0 128 -50.5t50 -128.5q0 -91 -64.5 -155t-156.5 -64zM287 -428h-457l444 881h29z" />
    <glyph glyph-name="cent" unicode="&#xa2;" horiz-adv-x="946" 
d="M774 1364l-57 -223q96 -3 171.5 -29.5t110.5 -62.5l-86 -314h-10q-57 212 -103 292.5t-110 80.5q-76 0 -136 -71t-90 -177.5t-30 -222.5q0 -268 154 -268q130 0 307 174l8 -6q-173 -346 -454 -359l-56 -223h-41l58 223q-134 8 -220 104t-86 259q0 150 75 285.5
t207.5 221.5t289.5 93l57 223h41z" />
    <glyph glyph-name="sterling" unicode="&#xa3;" horiz-adv-x="1189" 
d="M885 1352q232 0 370 -80q-32 -196 -106 -410h-8l-205 436q-29 13 -64 13q-115 0 -188.5 -91.5t-73.5 -254.5q0 -32 2 -81.5t2 -78.5q0 -53 -6 -103h342l-12 -40h-336q-52 -264 -311 -373h622l177 176h10q-46 -188 -144 -465h-958l39 154q137 87 190.5 160.5t53.5 193.5
q0 55 -15 154h-155l12 40h139q-6 52 -6 109q0 159 82 283t225 191t322 67z" />
    <glyph glyph-name="currency" unicode="&#xa4;" horiz-adv-x="1165" 
d="M911 389l142 -141l-29 -29l-139 141q-109 -98 -258 -98q-152 0 -258 98l-131 -133l-29 29l133 131q-88 106 -88 248q0 155 98 256l-151 151l28 29l152 -153q103 86 246 86q138 0 245 -86l144 145l28 -29l-143 -143q98 -106 98 -256q0 -145 -88 -246zM627 340
q131 1 212 84t81 211q0 129 -81 211t-212 82t-212 -82t-81 -211t81.5 -212.5t211.5 -82.5z" />
    <glyph glyph-name="yen" unicode="&#xa5;" horiz-adv-x="1347" 
d="M1118 1325v4h393v-4q-89 -72 -213 -149l-442 -592l-2 -11h236l-11 -41h-235l-45 -180h235l-10 -41h-236l-57 -231q61 -39 98 -76v-4h-579l2 4q50 33 133 76l57 231h-233l10 41h234l45 180h-234l10 41h218l-150 678q-44 24 -90 74v4h592v-4q-58 -32 -150 -76l140 -633
l415 560q-52 50 -131 149z" />
    <glyph glyph-name="brokenbar" unicode="&#xa6;" horiz-adv-x="354" 
d="M279 797h-39l163 655h39zM0 -326h-41l164 656h41z" />
    <glyph glyph-name="section" unicode="&#xa7;" horiz-adv-x="958" 
d="M688 1350q81 0 177 -18t141 -40l-88 -327h-11q-35 173 -99 262.5t-134 89.5q-37 0 -60 -25t-22 -67q0 -56 34 -115.5t82.5 -113.5t97 -110t82.5 -124.5t34 -136.5q0 -120 -88 -198t-271 -95q78 -82 121 -148.5t43 -138.5q0 -122 -113 -200t-340 -78q-83 0 -178.5 18.5
t-136.5 40.5l90 330h10q42 -178 109 -267.5t143 -89.5q47 0 76 30.5t29 92.5q0 55 -33.5 111t-81 105t-95 101t-81 119t-33.5 138q0 131 98 207t263 85q-41 43 -62 67t-49 63.5t-40.5 78t-12.5 80.5q-1 124 110.5 198.5t288.5 74.5zM629 504q0 67 -37.5 125t-108.5 129
q-46 -2 -76 -34.5t-30 -98.5q0 -63 40 -123.5t115 -139.5q43 8 70 43t27 99z" />
    <glyph glyph-name="dieresis" unicode="&#xa8;" horiz-adv-x="1120" 
d="M330 1116q-71 0 -115.5 45t-44.5 113q0 82 58 138t143 56q73 0 117 -43t44 -114q0 -80 -59 -137.5t-143 -57.5zM760 1116q-71 0 -115.5 45t-44.5 113q0 82 58 138t143 56q73 0 117.5 -43t44.5 -114q0 -80 -59.5 -137.5t-143.5 -57.5z" />
    <glyph glyph-name="copyright" unicode="&#xa9;" horiz-adv-x="1523" 
d="M911 1333q272 0 429 -155t157 -426q0 -168 -62.5 -313t-169.5 -245t-252.5 -157t-307.5 -57q-270 0 -426 154.5t-156 426.5q0 168 62.5 313.5t168.5 245.5t250.5 156.5t306.5 56.5zM711 29q151 0 286 52t235 144t158 227t58 293q0 253 -143.5 396t-397.5 143
q-151 0 -286 -52t-235 -144.5t-158 -227.5t-58 -293q0 -253 144 -395.5t397 -142.5zM913 1028q-61 0 -104 -50.5t-61.5 -124.5t-18.5 -163q0 -237 145 -237q115 0 269 127l8 -5q-153 -311 -426 -311q-143 0 -231 80.5t-88 226.5q0 93 38 180.5t104.5 154.5t165 108t210.5 41
q98 0 174 -23t110 -55l-73 -270h-11q-66 180 -110.5 250.5t-100.5 70.5z" />
    <glyph glyph-name="ordfeminine" unicode="&#xaa;" horiz-adv-x="753" 
d="M799 885l4 -8q-74 -74 -156 -74q-122 0 -137 78q-61 -78 -164 -78q-66 0 -101.5 31t-35.5 86q0 173 344 204l27 105q16 64 15 98t-7 38.5t-17 4.5h-10l-244 -209h-6q12 59 51 199q121 31 199 31q138 0 193.5 -61.5t27.5 -172.5l-57 -229q-6 -27 2.5 -40.5t26.5 -13.5
q23 0 45 11zM463 877q19 0 31 10l53 211q-62 -17 -95.5 -61.5t-33.5 -102.5q0 -57 45 -57z" />
    <glyph glyph-name="guillemotleft" unicode="&#xab;" horiz-adv-x="890" 
d="M483 758l13 -8l-187 -336l51 -308l-12 -8l-299 330zM831 758l11 -8l-187 -336l54 -308l-15 -8l-297 330z" />
    <glyph glyph-name="logicalnot" unicode="&#xac;" horiz-adv-x="1228" 
d="M221 625l10 41h856l-90 -369h-41l82 328h-817z" />
    <glyph glyph-name="uni00AD" unicode="&#xad;" horiz-adv-x="899" 
d="M795 461h-695l11 41h694z" />
    <glyph glyph-name="registered" unicode="&#xae;" horiz-adv-x="978" 
d="M668 1350q169 0 264.5 -93.5t95.5 -257.5q0 -202 -140 -332t-343 -130q-169 0 -265 92t-96 256q0 136 65 243t175 164.5t244 57.5zM553 582q179 0 301.5 116t122.5 295q0 147 -84 229.5t-234 82.5q-180 0 -301.5 -116t-121.5 -298q0 -145 83.5 -227t233.5 -82zM850 1077
q0 -58 -61 -94.5t-140 -38.5l96 -14l48 -168q14 -12 28 -29l-2 -4h-231l2 4q31 22 47 29l-31 178h-37l-45 -182q9 -9 21 -25l-2 -4h-209l2 4q15 12 35 25l96 391q-3 2 -21 25v4h267q65 0 101 -28t36 -73zM655 1155h-32l-48 -192h70q68 51 68 127q0 65 -58 65z" />
    <glyph glyph-name="macron" unicode="&#xaf;" horiz-adv-x="993" 
d="M815 1229h-643l12 53h643z" />
    <glyph glyph-name="degree" unicode="&#xb0;" horiz-adv-x="555" 
d="M444 956q-91 0 -151 60t-60 149q0 87 60 147t151 60t151 -60t60 -147q0 -89 -60 -149t-151 -60zM444 1006q67 0 112.5 46.5t45.5 112.5q0 65 -45.5 111.5t-112.5 46.5t-112 -46.5t-45 -111.5q0 -67 45 -113t112 -46z" />
    <glyph glyph-name="plusminus" unicode="&#xb1;" horiz-adv-x="1228" 
d="M793 1094l-78 -308h407l-10 -41h-407l-76 -305h-45l75 305h-403l10 41h404l78 308h45zM981 217h-858l10 41h856z" />
    <glyph glyph-name="uni00B2" unicode="&#xb2;" horiz-adv-x="663" 
d="M299 987h332l84 84h6q-32 -146 -62 -244h-481l12 115q189 127 276 243.5t87 244.5q0 45 -18 45q-3 0 -17 -7l-217 -200h-4q13 70 47 213q88 20 191 20q106 0 167.5 -43t61.5 -108q0 -39 -20 -74.5t-49.5 -62.5t-79.5 -57.5t-94.5 -52.5t-110 -56t-111.5 -60z" />
    <glyph glyph-name="uni00B3" unicode="&#xb3;" horiz-adv-x="659" 
d="M784 1335q0 -135 -239 -180q82 -12 126 -55t44 -101q0 -96 -95 -150t-227 -54q-133 0 -207 32q12 48 33.5 120t24.5 81h6l117 -199q12 -6 30 -6q45 0 76 47.5t31 130.5q0 64 -26.5 100t-76.5 36l5 22q94 20 133 69.5t39 143.5q0 80 -35 80q-11 0 -19 -4l-211 -201h-4
q21 111 45 199q93 35 193 35q112 0 174.5 -39.5t62.5 -106.5z" />
    <glyph glyph-name="acute" unicode="&#xb4;" horiz-adv-x="782" 
d="M176 1073h-8l141 379h398l-2 -8z" />
    <glyph glyph-name="uni00B5" unicode="&#xb5;" horiz-adv-x="1204" 
d="M961 193l237 147l8 -8q-60 -117 -200 -234.5t-228 -117.5q-82 0 -128.5 38.5t-31.5 96.5l72 291q-148 -337 -319 -406l-88 -377l-310 -43l156 664l127 522l-258 -148l-6 13q134 211 342 327q130 0 192 -77t35 -185l-108 -438q-14 -61 26 -61q27 0 54.5 23.5t77 106
t118.5 232.5l82 332l342 72z" />
    <glyph glyph-name="paragraph" unicode="&#xb6;" horiz-adv-x="1402" 
d="M827 1329h709l-2 -4q-57 -40 -127 -76l-313 -1249l-222 -61l338 1349h-127l-348 -1392l-223 -62l168 676h-10q-151 0 -262 36t-176.5 114.5t-65.5 193.5q0 97 35 176.5t95.5 134.5t145 92.5t181 54.5t204.5 17zM680 551h10l187 737h-27q-146 0 -253.5 -136.5
t-107.5 -346.5q0 -122 52 -188t139 -66z" />
    <glyph glyph-name="periodcentered" unicode="&#xb7;" horiz-adv-x="552" 
d="M303 481q-78 0 -128 49.5t-50 126.5q0 92 64.5 157t156.5 65q78 0 128 -50t50 -127q0 -92 -64.5 -156.5t-156.5 -64.5z" />
    <glyph glyph-name="cedilla" unicode="&#xb8;" horiz-adv-x="798" 
d="M369 -477q-153 0 -215 98l16 19q47 -33 106 -33q54 0 87.5 23t33.5 67q0 67 -88 80v6l146 225h49l-51 -90q99 -24 143.5 -70t44.5 -118q0 -93 -78 -150t-194 -57z" />
    <glyph glyph-name="uni00B9" unicode="&#xb9;" horiz-adv-x="499" 
d="M604 1501l-153 -608q32 -22 67 -57v-9h-362v9q37 27 88 57l110 418l-82 39v8q86 48 152.5 76.5t179.5 66.5z" />
    <glyph glyph-name="ordmasculine" unicode="&#xba;" horiz-adv-x="747" 
d="M475 801q-116 0 -189 67t-73 179q0 140 109.5 243t261.5 103q117 0 191.5 -66.5t74.5 -177.5q0 -140 -111.5 -244t-263.5 -104zM469 825q43 0 84 59t66.5 157.5t25.5 205.5q0 68 -12 95.5t-39 27.5q-43 0 -84 -59.5t-66.5 -158t-25.5 -204.5q0 -67 11.5 -95t39.5 -28z
" />
    <glyph glyph-name="guillemotright" unicode="&#xbb;" horiz-adv-x="890" 
d="M164 750l14 8l295 -330l-434 -330l-10 8l188 338zM512 750l12 8l297 -330l-434 -330l-12 8l188 338z" />
    <glyph glyph-name="onequarter" unicode="&#xbc;" horiz-adv-x="819" 
d="M692 836v-7h-362v7q35 28 88 59l110 418l-82 39v8q89 48 155 76.5t175 66.5l-151 -608q39 -27 67 -59zM791 662h-664l10 38h664zM23 31l4 26l520 496h67l-100 -397h84l-33 -125h-84l-37 -150h-215l37 150h-243zM367 338l-191 -182h146z" />
    <glyph glyph-name="onehalf" unicode="&#xbd;" horiz-adv-x="819" 
d="M692 836v-9h-362v9q37 27 88 57l110 418l-82 39v8q87 49 152.5 77.5t177.5 65.5l-151 -608q32 -22 67 -57zM791 662h-664l10 38h664zM647 403q0 -39 -20 -74.5t-49.5 -62.5t-79.5 -57.5t-94.5 -52.5t-110 -56t-111.5 -61h330l84 84h6q-32 -150 -61 -242h-482l13 115
q188 125 275 241.5t87 245.5q0 43 -18 43q-5 0 -17 -4l-217 -200h-4q14 75 47 210q90 23 191 23q106 0 168.5 -44t62.5 -108z" />
    <glyph glyph-name="threequarters" unicode="&#xbe;" horiz-adv-x="819" 
d="M594 1481q112 0 174.5 -39.5t62.5 -106.5q0 -135 -241 -180q83 -12 127.5 -55t44.5 -101q0 -96 -95 -150t-227 -54q-133 0 -207 32q12 48 33.5 120t24.5 81h6l115 -199q15 -6 30 -6q46 0 77.5 47.5t31.5 130.5q0 64 -26.5 100t-78.5 36l5 22q95 20 134.5 69.5t39.5 143.5
q0 80 -35 80q-11 0 -19 -4l-211 -201h-4q21 111 45 199q93 35 193 35zM801 700l-10 -38h-664l10 38h664zM23 29l4 28l520 496h67l-100 -397h84l-33 -127h-84l-37 -148h-215l37 148h-243zM367 338l-191 -182h146z" />
    <glyph glyph-name="questiondown" unicode="&#xbf;" horiz-adv-x="991" 
d="M559 571q-78 0 -128 51t-50 128q0 91 64.5 156t156.5 65q78 0 128 -50t50 -128q0 -91 -64.5 -156.5t-156.5 -65.5zM395 -395l422 438h4q-49 -223 -108 -410q-172 -82 -381 -82q-206 0 -319 77.5t-113 203.5q0 69 31 126t89 99.5t128 73t161 55.5l219 289h29l74 -225
q-76 -29 -128 -54.5t-104.5 -65.5t-84 -87t-51 -115.5t-19.5 -154.5q0 -98 29 -139.5t71 -41.5q25 0 51 13z" />
    <glyph glyph-name="Agrave" unicode="&#xc0;" horiz-adv-x="1241" 
d="M1006 1446h-9l-436 356l2 8h438zM764 1331h160l133 -1249q55 -37 96 -78v-4h-584v4q56 36 133 78l-34 313h-416l-143 -241q56 -58 129 -150v-4h-388v4q94 75 216 150zM664 436l-64 551l-324 -551h388z" />
    <glyph glyph-name="Aacute" unicode="&#xc1;" horiz-adv-x="1241" 
d="M733 1446h-8l143 364h469l-2 -8zM764 1331h160l133 -1249q55 -37 96 -78v-4h-584v4q56 36 133 78l-34 313h-416l-143 -241q56 -58 129 -150v-4h-388v4q94 75 216 150zM664 436l-64 551l-324 -551h388z" />
    <glyph glyph-name="Acircumflex" unicode="&#xc2;" horiz-adv-x="1241" 
d="M829 1810h263l137 -364h-8l-295 166l-414 -166h-8zM764 1331h160l133 -1249q55 -37 96 -78v-4h-584v4q56 36 133 78l-34 313h-416l-143 -241q56 -58 129 -150v-4h-388v4q94 75 216 150zM664 436l-64 551l-324 -551h388z" />
    <glyph glyph-name="Atilde" unicode="&#xc3;" horiz-adv-x="1241" 
d="M1049 1460q-52 0 -102.5 21t-85 45.5t-81.5 45.5t-92 21q-54 0 -101 -28.5t-75 -87.5h-8q34 150 109.5 230.5t185.5 80.5q52 0 100.5 -19t80.5 -42.5t77.5 -42.5t93.5 -19q52 0 90.5 24t71.5 80h8q-39 -155 -104.5 -232t-167.5 -77zM764 1331h160l133 -1249
q55 -37 96 -78v-4h-584v4q56 36 133 78l-34 313h-416l-143 -241q56 -58 129 -150v-4h-388v4q94 75 216 150zM664 436l-64 551l-324 -551h388z" />
    <glyph glyph-name="Adieresis" unicode="&#xc4;" horiz-adv-x="1241" 
d="M678 1485q-70 0 -110 40t-40 105q0 85 61 146t152 61q69 0 108.5 -38.5t39.5 -104.5q0 -84 -61.5 -146.5t-149.5 -62.5zM1112 1485q-70 0 -109.5 39.5t-39.5 105.5q0 85 61 146t152 61q69 0 108 -38.5t39 -104.5q0 -84 -61.5 -146.5t-149.5 -62.5zM764 1331h160
l133 -1249q55 -37 96 -78v-4h-584v4q56 36 133 78l-34 313h-416l-143 -241q56 -58 129 -150v-4h-388v4q94 75 216 150zM664 436l-64 551l-324 -551h388z" />
    <glyph glyph-name="Aring" unicode="&#xc5;" horiz-adv-x="1241" 
d="M870 1362q-80 0 -128 49t-48 125q0 95 68.5 166.5t165.5 71.5q78 0 126 -48.5t48 -126.5q0 -95 -68 -166t-164 -71zM872 1421q67 0 115.5 51.5t48.5 120.5q0 54 -29.5 86.5t-82.5 32.5q-68 0 -116 -51.5t-48 -120.5q0 -53 30 -86t82 -33zM764 1331h160l133 -1249
q55 -37 96 -78v-4h-584v4q56 36 133 78l-34 313h-416l-143 -241q56 -58 129 -150v-4h-388v4q94 75 216 150zM664 436l-64 551l-324 -551h388z" />
    <glyph glyph-name="AE" unicode="&#xc6;" horiz-adv-x="1841" 
d="M250 0h-406v4q136 90 246 154l889 1102q-47 29 -78 65v4h1018q-63 -304 -107 -477h-8l-241 438h-174l-150 -594h80q92 105 256 265h10l-149 -572h-11q-54 98 -112 266h-84l-144 -575l109 -39h94l465 438h8q-41 -184 -141 -479h-997v4q77 54 118 78l80 313h-491l-191 -237
q18 -21 34 -43t41 -58.5t36 -52.5v-4zM1042 1278l-680 -842h469l213 842h-2z" />
    <glyph glyph-name="Ccedilla" unicode="&#xc7;" horiz-adv-x="1220" 
d="M942 1348q104 0 209.5 -25t167.5 -66q-44 -220 -98 -403h-11l-217 442q-32 13 -67 13q-55 0 -118 -33.5t-129.5 -110t-119.5 -184.5t-87 -272.5t-34 -358.5q0 -144 48.5 -235.5t121.5 -91.5q34 0 51 10l469 440h11q-58 -244 -115 -410q-191 -83 -428 -83h-2l-35 -62
q99 -24 144 -70t45 -118q0 -93 -78.5 -150t-194.5 -57q-153 0 -215 98l16 19q47 -33 107 -33q54 0 87.5 23t33.5 67q0 67 -88 80v6l129 199q-200 18 -326.5 159t-126.5 363q0 171 67.5 327.5t181 269.5t271 180t330.5 67z" />
    <glyph glyph-name="Egrave" unicode="&#xc8;" horiz-adv-x="1212" 
d="M977 1446h-8l-437 356l3 8h438zM991 0h-1044v4q44 32 129 76l293 1169q-59 40 -90 76v4h1011q-48 -254 -108 -475h-11l-235 434h-213l-150 -592h117q113 129 256 265h10l-149 -572h-10q-69 122 -113 266h-121l-143 -575l108 -39h131l465 436h11q-62 -246 -144 -477z" />
    <glyph glyph-name="Eacute" unicode="&#xc9;" horiz-adv-x="1212" 
d="M702 1446h-8l144 364h469l-2 -8zM991 0h-1044v4q44 32 129 76l293 1169q-59 40 -90 76v4h1011q-48 -254 -108 -475h-11l-235 434h-213l-150 -592h117q113 129 256 265h10l-149 -572h-10q-69 122 -113 266h-121l-143 -575l108 -39h131l465 436h11q-62 -246 -144 -477z" />
    <glyph glyph-name="Ecircumflex" unicode="&#xca;" horiz-adv-x="1212" 
d="M801 1810h262l137 -364h-8l-295 166l-414 -166h-8zM991 0h-1044v4q44 32 129 76l293 1169q-59 40 -90 76v4h1011q-48 -254 -108 -475h-11l-235 434h-213l-150 -592h117q113 129 256 265h10l-149 -572h-10q-69 122 -113 266h-121l-143 -575l108 -39h131l465 436h11
q-62 -246 -144 -477z" />
    <glyph glyph-name="Edieresis" unicode="&#xcb;" horiz-adv-x="1212" 
d="M649 1485q-69 0 -109 39.5t-40 105.5q0 85 61 146t152 61q69 0 108 -38.5t39 -104.5q0 -84 -61.5 -146.5t-149.5 -62.5zM1083 1485q-69 0 -109 39.5t-40 105.5q0 85 61 146t152 61q69 0 108 -38.5t39 -104.5q0 -84 -61.5 -146.5t-149.5 -62.5zM991 0h-1044v4
q44 32 129 76l293 1169q-59 40 -90 76v4h1011q-48 -254 -108 -475h-11l-235 434h-213l-150 -592h117q113 129 256 265h10l-149 -572h-10q-69 122 -113 266h-121l-143 -575l108 -39h131l465 436h11q-62 -246 -144 -477z" />
    <glyph glyph-name="Igrave" unicode="&#xcc;" horiz-adv-x="690" 
d="M717 1446h-8l-437 356l2 8h439zM516 0h-571v4q46 33 131 76l293 1169q-60 39 -95 76v4h572v-4q-45 -31 -133 -76l-291 -1169q56 -38 94 -76v-4z" />
    <glyph glyph-name="Iacute" unicode="&#xcd;" horiz-adv-x="690" 
d="M442 1446h-8l144 364h469l-3 -8zM516 0h-571v4q46 33 131 76l293 1169q-60 39 -95 76v4h572v-4q-45 -31 -133 -76l-291 -1169q56 -38 94 -76v-4z" />
    <glyph glyph-name="Icircumflex" unicode="&#xce;" horiz-adv-x="690" 
d="M541 1810h262l137 -364h-8l-295 166l-414 -166h-8zM516 0h-571v4q46 33 131 76l293 1169q-60 39 -95 76v4h572v-4q-45 -31 -133 -76l-291 -1169q56 -38 94 -76v-4z" />
    <glyph glyph-name="Idieresis" unicode="&#xcf;" horiz-adv-x="690" 
d="M387 1485q-69 0 -109 39.5t-40 105.5q0 85 61 146t152 61q69 0 108 -38.5t39 -104.5q0 -84 -61.5 -146.5t-149.5 -62.5zM821 1485q-69 0 -109 39.5t-40 105.5q0 85 61 146t152 61q69 0 108 -38.5t39 -104.5q0 -84 -61.5 -146.5t-149.5 -62.5zM516 0h-571v4q46 33 131 76
l293 1169q-60 39 -95 76v4h572v-4q-45 -31 -133 -76l-291 -1169q56 -38 94 -76v-4z" />
    <glyph glyph-name="Eth" unicode="&#xd0;" horiz-adv-x="1425" 
d="M279 1329h569q115 0 217.5 -33.5t183.5 -99t128.5 -171.5t47.5 -241q0 -144 -53.5 -272.5t-142 -220t-200.5 -158.5t-231.5 -100t-232.5 -33h-618v4q57 40 127 76l147 577h-108l10 41h108l140 551q-53 34 -92 76v4zM586 41q90 0 176 50t157.5 145.5t115.5 253.5t44 354
q0 444 -268 444h-88l-150 -590h234l-10 -41h-234l-143 -571q67 -45 166 -45z" />
    <glyph glyph-name="Ntilde" unicode="&#xd1;" horiz-adv-x="1323" 
d="M1096 1460q-52 0 -102.5 21t-85 45.5t-81.5 45.5t-92 21q-54 0 -101 -28.5t-75 -87.5h-8q34 150 109.5 230.5t185.5 80.5q52 0 100.5 -19t80.5 -42.5t77.5 -42.5t93.5 -19q52 0 90.5 24t71.5 80h8q-39 -155 -104.5 -232t-167.5 -77zM1159 1325v4h359v-4
q-80 -69 -195 -147l-295 -1178h-129l-504 1120l-241 -968q68 -71 120 -148v-4h-356v4q60 52 195 150l254 1015l-109 156v4h424l408 -921l192 770q-88 91 -123 147z" />
    <glyph glyph-name="Ograve" unicode="&#xd2;" horiz-adv-x="1431" 
d="M1106 1446h-8l-436 356l2 8h438zM618 -23q-244 0 -385 141t-141 384q0 106 28.5 211t79.5 198.5t126 174t163.5 138.5t196.5 91t221 33q244 0 385.5 -143t141.5 -388q0 -161 -63.5 -314t-171 -269t-260.5 -186.5t-321 -70.5zM616 20q127 0 237.5 133.5t174.5 350.5
t64 457q0 346 -187 346q-125 0 -234.5 -135.5t-173 -354.5t-63.5 -459q0 -184 46.5 -261t135.5 -77z" />
    <glyph glyph-name="Oacute" unicode="&#xd3;" horiz-adv-x="1431" 
d="M831 1446h-8l144 364h469l-2 -8zM618 -23q-244 0 -385 141t-141 384q0 106 28.5 211t79.5 198.5t126 174t163.5 138.5t196.5 91t221 33q244 0 385.5 -143t141.5 -388q0 -161 -63.5 -314t-171 -269t-260.5 -186.5t-321 -70.5zM616 20q127 0 237.5 133.5t174.5 350.5
t64 457q0 346 -187 346q-125 0 -234.5 -135.5t-173 -354.5t-63.5 -459q0 -184 46.5 -261t135.5 -77z" />
    <glyph glyph-name="Ocircumflex" unicode="&#xd4;" horiz-adv-x="1431" 
d="M930 1810h262l137 -364h-8l-295 166l-414 -166h-8zM618 -23q-244 0 -385 141t-141 384q0 106 28.5 211t79.5 198.5t126 174t163.5 138.5t196.5 91t221 33q244 0 385.5 -143t141.5 -388q0 -161 -63.5 -314t-171 -269t-260.5 -186.5t-321 -70.5zM616 20q127 0 237.5 133.5
t174.5 350.5t64 457q0 346 -187 346q-125 0 -234.5 -135.5t-173 -354.5t-63.5 -459q0 -184 46.5 -261t135.5 -77z" />
    <glyph glyph-name="Otilde" unicode="&#xd5;" horiz-adv-x="1431" 
d="M1147 1460q-52 0 -102.5 21t-85 45.5t-81.5 45.5t-92 21q-54 0 -101 -28.5t-75 -87.5h-8q34 150 109.5 230.5t185.5 80.5q52 0 100.5 -19t80.5 -42.5t77.5 -42.5t93.5 -19q52 0 90.5 24t71.5 80h8q-39 -155 -104.5 -232t-167.5 -77zM618 -23q-244 0 -385 141t-141 384
q0 106 28.5 211t79.5 198.5t126 174t163.5 138.5t196.5 91t221 33q244 0 385.5 -143t141.5 -388q0 -161 -63.5 -314t-171 -269t-260.5 -186.5t-321 -70.5zM616 20q127 0 237.5 133.5t174.5 350.5t64 457q0 346 -187 346q-125 0 -234.5 -135.5t-173 -354.5t-63.5 -459
q0 -184 46.5 -261t135.5 -77z" />
    <glyph glyph-name="Odieresis" unicode="&#xd6;" horiz-adv-x="1431" 
d="M776 1485q-70 0 -109.5 39.5t-39.5 105.5q0 85 61 146t152 61q69 0 108 -38.5t39 -104.5q0 -84 -61.5 -146.5t-149.5 -62.5zM1210 1485q-70 0 -109.5 39.5t-39.5 105.5q0 85 61 146t152 61q69 0 108 -38.5t39 -104.5q0 -84 -61.5 -146.5t-149.5 -62.5zM618 -23
q-244 0 -385 141t-141 384q0 106 28.5 211t79.5 198.5t126 174t163.5 138.5t196.5 91t221 33q244 0 385.5 -143t141.5 -388q0 -161 -63.5 -314t-171 -269t-260.5 -186.5t-321 -70.5zM616 20q127 0 237.5 133.5t174.5 350.5t64 457q0 346 -187 346q-125 0 -234.5 -135.5
t-173 -354.5t-63.5 -459q0 -184 46.5 -261t135.5 -77z" />
    <glyph glyph-name="multiply" unicode="&#xd7;" horiz-adv-x="1228" 
d="M1067 1001l25 -32l-410 -328l248 -330l-31 -24l-248 329l-409 -327l-25 33l410 327l-248 330l33 25l245 -330z" />
    <glyph glyph-name="Oslash" unicode="&#xd8;" horiz-adv-x="1431" 
d="M1217 1409l-64 -109q135 -60 208 -185t73 -298q0 -161 -63.5 -314t-171 -269t-260.5 -186.5t-321 -70.5q-108 0 -212 33l-68 -116l-41 24l63 111q-128 60 -198 182t-70 291q0 106 28.5 211t79.5 198.5t126 174t163.5 138.5t196.5 91t221 33q108 0 199 -31l68 117z
M434 358q0 -96 17 -176l598 1035q-49 90 -144 90q-125 0 -234.5 -135.5t-173 -354.5t-63.5 -459zM616 20q127 0 237.5 133.5t174.5 350.5t64 457q0 107 -21 196l-602 -1036q45 -101 147 -101z" />
    <glyph glyph-name="Ugrave" unicode="&#xd9;" horiz-adv-x="1310" 
d="M1139 1446h-9l-436 356l2 8h439zM1151 1325v4h358v-4q-56 -50 -196 -149l-193 -750q-21 -79 -48.5 -141.5t-71.5 -121t-100 -97.5t-136.5 -62.5t-179.5 -23.5q-259 0 -375 131.5t-59 355.5l196 782q-61 39 -98 76v4h575v-4q-48 -32 -135 -76l-196 -788
q-29 -119 -22.5 -212.5t65.5 -150.5t163 -57q132 0 235.5 104t147.5 281l193 750q-84 91 -123 149z" />
    <glyph glyph-name="Uacute" unicode="&#xda;" horiz-adv-x="1310" 
d="M864 1446h-8l143 364h469l-2 -8zM1151 1325v4h358v-4q-56 -50 -196 -149l-193 -750q-21 -79 -48.5 -141.5t-71.5 -121t-100 -97.5t-136.5 -62.5t-179.5 -23.5q-259 0 -375 131.5t-59 355.5l196 782q-61 39 -98 76v4h575v-4q-48 -32 -135 -76l-196 -788
q-29 -119 -22.5 -212.5t65.5 -150.5t163 -57q132 0 235.5 104t147.5 281l193 750q-84 91 -123 149z" />
    <glyph glyph-name="Ucircumflex" unicode="&#xdb;" horiz-adv-x="1310" 
d="M961 1810h262l137 -364h-8l-295 166l-414 -166h-8zM1151 1325v4h358v-4q-56 -50 -196 -149l-193 -750q-21 -79 -48.5 -141.5t-71.5 -121t-100 -97.5t-136.5 -62.5t-179.5 -23.5q-259 0 -375 131.5t-59 355.5l196 782q-61 39 -98 76v4h575v-4q-48 -32 -135 -76l-196 -788
q-29 -119 -22.5 -212.5t65.5 -150.5t163 -57q132 0 235.5 104t147.5 281l193 750q-84 91 -123 149z" />
    <glyph glyph-name="Udieresis" unicode="&#xdc;" horiz-adv-x="1310" 
d="M809 1485q-70 0 -110 40t-40 105q0 85 61 146t152 61q69 0 108.5 -38.5t39.5 -104.5q0 -84 -61.5 -146.5t-149.5 -62.5zM1243 1485q-69 0 -109 39.5t-40 105.5q0 85 61 146t152 61q69 0 108 -38.5t39 -104.5q0 -84 -61.5 -146.5t-149.5 -62.5zM1151 1325v4h358v-4
q-56 -50 -196 -149l-193 -750q-21 -79 -48.5 -141.5t-71.5 -121t-100 -97.5t-136.5 -62.5t-179.5 -23.5q-259 0 -375 131.5t-59 355.5l196 782q-61 39 -98 76v4h575v-4q-48 -32 -135 -76l-196 -788q-29 -119 -22.5 -212.5t65.5 -150.5t163 -57q132 0 235.5 104t147.5 281
l193 750q-84 91 -123 149z" />
    <glyph glyph-name="Yacute" unicode="&#xdd;" horiz-adv-x="1230" 
d="M803 1446h-8l143 364h469l-2 -8zM778 0h-579l2 4q53 36 135 76l115 457l-160 714q-48 28 -90 74v4h594v-4q-47 -26 -152 -76l139 -633l418 560q-61 59 -133 149v4h395v-4q-108 -84 -215 -149l-440 -592l-127 -504q56 -34 98 -76v-4z" />
    <glyph glyph-name="Thorn" unicode="&#xde;" horiz-adv-x="1255" 
d="M551 0h-606v4q44 30 131 76l293 1169q-60 39 -95 76v4h572v-4q-45 -31 -133 -76l-45 -182h94q227 0 364.5 -87.5t137.5 -262.5q0 -107 -54.5 -190.5t-150.5 -135t-221 -78t-271 -26.5h-94l-51 -207q75 -37 129 -76v-4zM657 1026l-174 -698h90q66 0 129 30.5t113.5 85.5
t81.5 142.5t31 191.5q0 138 -51 193t-136 55h-84z" />
    <glyph glyph-name="germandbls" unicode="&#xdf;" horiz-adv-x="1290" 
d="M883 817q0 -51 35 -103t84.5 -99t99 -96t84.5 -113t35 -132q0 -132 -109 -214.5t-303 -82.5q-75 0 -183 19.5t-147 40.5l90 330h11q43 -179 110.5 -268t147.5 -89q44 0 74 28.5t30 74.5q0 60 -29.5 120t-71.5 111.5t-83.5 105.5t-71 123t-29.5 142q0 55 18.5 101.5
t47.5 80.5t64.5 65.5t71 64t64.5 68t47.5 85t18.5 108.5q0 78 -28.5 113t-90.5 35q-183 0 -256 -301l-252 -1110l-331 -48l215 922h-103l4 10l115 66l12 51q31 131 123 232.5t219.5 155.5t268.5 54q191 0 286 -53t95 -147q0 -52 -28.5 -95.5t-71 -72t-92 -59.5t-92 -59
t-71 -71t-28.5 -94z" />
    <glyph glyph-name="agrave" unicode="&#xe0;" horiz-adv-x="1118" 
d="M786 1452l-12 -379h-8l-336 371l2 8h354zM877 193l241 147l6 -8q-59 -117 -198.5 -234.5t-229.5 -117.5q-78 0 -125 38.5t-34 96.5l71 286q-91 -203 -186 -312t-211 -109q-88 0 -138 69.5t-50 204.5t50 263.5t135 225.5t206.5 156t255.5 59q119 0 180 -45l227 50z
M645 545l64 250q16 133 -56 133q-60 0 -119.5 -74t-99.5 -178.5t-65 -212.5t-25 -180q0 -93 51 -93q28 0 57 26t77.5 106.5t115.5 222.5z" />
    <glyph glyph-name="aacute" unicode="&#xe1;" horiz-adv-x="1118" 
d="M600 1073l141 379h398l-2 -8l-529 -371h-8zM1077 963l-200 -770l241 147l6 -8q-59 -117 -198.5 -234.5t-229.5 -117.5q-78 0 -125 38.5t-34 96.5l71 286q-91 -203 -186 -312t-211 -109q-88 0 -138 69.5t-50 204.5t50 263.5t135 225.5t206.5 156t255.5 59q119 0 180 -45z
M645 545l64 250q16 133 -56 133q-60 0 -119.5 -74t-99.5 -178.5t-65 -212.5t-25 -180q0 -93 51 -93q28 0 57 26t77.5 106.5t115.5 222.5z" />
    <glyph glyph-name="acircumflex" unicode="&#xe2;" horiz-adv-x="1118" 
d="M1012 1073l-250 191l-383 -191h-8l313 379h219l117 -379h-8zM877 193l241 147l6 -8q-59 -117 -198.5 -234.5t-229.5 -117.5q-78 0 -125 38.5t-34 96.5l71 286q-91 -203 -186 -312t-211 -109q-88 0 -138 69.5t-50 204.5t50 263.5t135 225.5t206.5 156t255.5 59
q119 0 180 -45l227 50zM645 545l64 250q16 133 -56 133q-60 0 -119.5 -74t-99.5 -178.5t-65 -212.5t-25 -180q0 -93 51 -93q28 0 57 26t77.5 106.5t115.5 222.5z" />
    <glyph glyph-name="atilde" unicode="&#xe3;" horiz-adv-x="1118" 
d="M530 1231q-56 0 -104 -29.5t-76 -87.5h-8q33 158 111.5 242t187.5 84q53 0 102.5 -21.5t81 -47t78 -47t94.5 -21.5q130 0 187 137h8q-37 -171 -112 -258.5t-183 -87.5q-53 0 -104.5 21.5t-86.5 47t-83 47t-93 21.5zM1077 963l-200 -770l241 147l6 -8
q-59 -117 -198.5 -234.5t-229.5 -117.5q-78 0 -125 38.5t-34 96.5l71 286q-91 -203 -186 -312t-211 -109q-88 0 -138 69.5t-50 204.5t50 263.5t135 225.5t206.5 156t255.5 59q119 0 180 -45zM645 545l64 250q16 133 -56 133q-60 0 -119.5 -74t-99.5 -178.5t-65 -212.5
t-25 -180q0 -93 51 -93q28 0 57 26t77.5 106.5t115.5 222.5z" />
    <glyph glyph-name="adieresis" unicode="&#xe4;" horiz-adv-x="1118" 
d="M518 1116q-71 0 -115.5 45t-44.5 113q0 82 58 138t143 56q73 0 117.5 -43t44.5 -114q0 -80 -59.5 -137.5t-143.5 -57.5zM948 1116q-71 0 -115.5 45t-44.5 113q0 82 58 138t143 56q73 0 117.5 -43t44.5 -114q0 -80 -59.5 -137.5t-143.5 -57.5zM1077 963l-200 -770l241 147
l6 -8q-59 -117 -198.5 -234.5t-229.5 -117.5q-78 0 -125 38.5t-34 96.5l71 286q-91 -203 -186 -312t-211 -109q-88 0 -138 69.5t-50 204.5t50 263.5t135 225.5t206.5 156t255.5 59q119 0 180 -45zM645 545l64 250q16 133 -56 133q-60 0 -119.5 -74t-99.5 -178.5t-65 -212.5
t-25 -180q0 -93 51 -93q28 0 57 26t77.5 106.5t115.5 222.5z" />
    <glyph glyph-name="aring" unicode="&#xe5;" horiz-adv-x="1118" 
d="M719 1069q-75 0 -120.5 46.5t-45.5 119.5q0 89 64.5 156t156.5 67q73 0 118.5 -45t45.5 -117q0 -92 -64 -159.5t-155 -67.5zM768 1407q-67 0 -113.5 -49t-46.5 -117q0 -54 31.5 -87.5t83.5 -33.5q67 0 113.5 50t46.5 118q0 55 -31 87t-84 32zM877 193l241 147l6 -8
q-59 -117 -198.5 -234.5t-229.5 -117.5q-78 0 -125 38.5t-34 96.5l71 286q-91 -203 -186 -312t-211 -109q-88 0 -138 69.5t-50 204.5t50 263.5t135 225.5t206.5 156t255.5 59q119 0 180 -45l227 50zM645 545l64 250q16 133 -56 133q-60 0 -119.5 -74t-99.5 -178.5
t-65 -212.5t-25 -180q0 -93 51 -93q28 0 57 26t77.5 106.5t115.5 222.5z" />
    <glyph glyph-name="ae" unicode="&#xe6;" horiz-adv-x="1458" 
d="M1096 168q140 0 272 188l25 -12q-87 -190 -200 -277t-257 -87q-148 0 -239 98t-91 266q0 24 4 64q-94 -208 -188.5 -318t-210.5 -110q-88 0 -138 69.5t-50 204.5t50 263.5t134 225.5t202 156t246 59q72 0 127 -31.5t84 -88.5q155 120 332 120q114 0 191 -52t77 -134
q0 -122 -142 -216t-388 -142q0 -120 43.5 -183t116.5 -63zM395 190q41 0 93.5 71t152.5 278q11 30 45 96q70 293 -37 293q-46 0 -93 -48.5t-84 -124.5t-66.5 -163.5t-45.5 -169.5t-16 -139q0 -93 51 -93zM1171 926q-50 0 -103 -70t-90 -182.5t-42 -227.5q124 54 207.5 168
t83.5 240q0 72 -56 72z" />
    <glyph glyph-name="ccedilla" unicode="&#xe7;" horiz-adv-x="905" 
d="M639 958q101 0 181 -26.5t118 -65.5l-90 -319h-10q-55 216 -100.5 297.5t-110.5 81.5q-76 0 -136.5 -73.5t-91 -183.5t-30.5 -229q0 -272 153 -272q130 0 307 180l9 -6q-172 -352 -459 -362l-35 -62q99 -24 143.5 -70t44.5 -118q0 -93 -78 -150t-194 -57q-153 0 -215 98
l16 19q47 -33 107 -33q54 0 87.5 23t33.5 67q0 67 -88 80v6l127 199q-127 11 -208 107t-81 257q0 118 47 230t126.5 196t191.5 135t235 51z" />
    <glyph glyph-name="egrave" unicode="&#xe8;" horiz-adv-x="921" 
d="M754 1452l-13 -379h-8l-336 371l2 8h355zM932 772q0 -124 -148 -217t-419 -143q0 -244 165 -244q136 0 318 164l8 -6q-181 -346 -477 -346q-159 0 -251.5 97t-92.5 267q0 118 51.5 231.5t135 197t195 134.5t226.5 51q128 0 208.5 -51.5t80.5 -134.5zM365 444
q142 49 225.5 163t83.5 247q0 72 -51 72q-61 0 -119.5 -71t-96 -182.5t-42.5 -228.5z" />
    <glyph glyph-name="eacute" unicode="&#xe9;" horiz-adv-x="921" 
d="M567 1073l142 379h397l-2 -8l-529 -371h-8zM643 958q128 0 208.5 -51.5t80.5 -134.5q0 -124 -148 -217t-419 -143q0 -244 165 -244q136 0 318 164l8 -6q-181 -346 -477 -346q-159 0 -251.5 97t-92.5 267q0 118 51.5 231.5t135 197t195 134.5t226.5 51zM365 444
q142 49 225.5 163t83.5 247q0 72 -51 72q-61 0 -119.5 -71t-96 -182.5t-42.5 -228.5z" />
    <glyph glyph-name="ecircumflex" unicode="&#xea;" horiz-adv-x="921" 
d="M651 1452h219l117 -379h-8l-250 191l-383 -191h-8zM643 958q128 0 208.5 -51.5t80.5 -134.5q0 -124 -148 -217t-419 -143q0 -244 165 -244q136 0 318 164l8 -6q-181 -346 -477 -346q-159 0 -251.5 97t-92.5 267q0 118 51.5 231.5t135 197t195 134.5t226.5 51zM365 444
q142 49 225.5 163t83.5 247q0 72 -51 72q-61 0 -119.5 -71t-96 -182.5t-42.5 -228.5z" />
    <glyph glyph-name="edieresis" unicode="&#xeb;" horiz-adv-x="921" 
d="M485 1116q-71 0 -115 45t-44 113q0 82 57.5 138t142.5 56q73 0 117.5 -43t44.5 -114q0 -80 -59.5 -137.5t-143.5 -57.5zM956 1468q73 0 117.5 -43t44.5 -114q0 -80 -59.5 -137.5t-143.5 -57.5q-71 0 -115 45t-44 113q0 82 57.5 138t142.5 56zM643 958q128 0 208.5 -51.5
t80.5 -134.5q0 -124 -148 -217t-419 -143q0 -244 165 -244q136 0 318 164l8 -6q-181 -346 -477 -346q-159 0 -251.5 97t-92.5 267q0 118 51.5 231.5t135 197t195 134.5t226.5 51zM365 444q142 49 225.5 163t83.5 247q0 72 -51 72q-61 0 -119.5 -71t-96 -182.5t-42.5 -228.5z
" />
    <glyph glyph-name="igrave" unicode="&#xec;" horiz-adv-x="675" 
d="M569 1073h-8l-336 371l2 8h355zM244 -20q-62 0 -111 38t-35 97l158 647l-256 -144l-6 13q134 211 342 327q130 0 193 -77.5t34 -184.5l-125 -503l240 147l6 -8q-63 -121 -200 -236.5t-240 -115.5z" />
    <glyph glyph-name="iacute" unicode="&#xed;" horiz-adv-x="675" 
d="M401 1073h-8l142 379h397l-2 -8zM244 -20q-62 0 -111 38t-35 97l158 647l-256 -144l-6 13q134 211 342 327q130 0 193 -77.5t34 -184.5l-125 -503l240 147l6 -8q-63 -121 -200 -236.5t-240 -115.5z" />
    <glyph glyph-name="icircumflex" unicode="&#xee;" horiz-adv-x="675" 
d="M479 1452h219l117 -379h-8l-250 191l-383 -191h-8zM244 -20q-62 0 -111 38t-35 97l158 647l-256 -144l-6 13q134 211 342 327q130 0 193 -77.5t34 -184.5l-125 -503l240 147l6 -8q-63 -121 -200 -236.5t-240 -115.5z" />
    <glyph glyph-name="idieresis" unicode="&#xef;" horiz-adv-x="675" 
d="M311 1116q-71 0 -115 45t-44 113q0 82 57.5 138t142.5 56q73 0 117.5 -43t44.5 -114q0 -80 -59.5 -137.5t-143.5 -57.5zM741 1116q-71 0 -115 45t-44 113q0 82 57.5 138t142.5 56q73 0 117.5 -43t44.5 -114q0 -80 -59.5 -137.5t-143.5 -57.5zM244 -20q-62 0 -111 38
t-35 97l158 647l-256 -144l-6 13q134 211 342 327q130 0 193 -77.5t34 -184.5l-125 -503l240 147l6 -8q-63 -121 -200 -236.5t-240 -115.5z" />
    <glyph glyph-name="eth" unicode="&#xf0;" horiz-adv-x="1079" 
d="M842 1434l-221 -117q89 -52 161.5 -119t131.5 -153.5t91.5 -196t32.5 -232.5q0 -139 -47 -260t-127 -203t-187 -129t-224 -47q-184 0 -296 109.5t-112 294.5q0 154 80 287t214.5 210.5t289.5 77.5q31 0 47 -2q-55 174 -174 299l-264 -141l-11 41l246 131
q-123 114 -283 143l13 25q192 -16 375 -113l253 136zM449 12q69 0 130 111t95.5 278t34.5 336q0 49 -9 101q-16 84 -71 84q-66 0 -125.5 -110.5t-94 -276.5t-34.5 -332q0 -103 17.5 -147t56.5 -44z" />
    <glyph glyph-name="ntilde" unicode="&#xf1;" horiz-adv-x="1210" 
d="M922 1094q-53 0 -104.5 21.5t-86.5 47t-83 47t-93 21.5q-56 0 -104 -29.5t-76 -87.5h-8q33 158 111.5 242t187.5 84q53 0 102.5 -21.5t81 -47t78 -47t94.5 -21.5q129 0 186 137h9q-37 -171 -112 -258.5t-183 -87.5zM1098 694l-129 -501l241 147l7 -8
q-59 -117 -199 -234.5t-230 -117.5q-77 0 -124.5 39t-34.5 96l143 565q14 61 -27 61q-29 0 -57.5 -23.5t-80.5 -108t-124 -236.5l-88 -348l-332 -48l195 785l-258 -144l-6 13q134 211 342 327q130 0 193 -77.5t34 -184.5l-45 -178q102 230 209.5 335t228.5 105
q92 0 131.5 -75t10.5 -189z" />
    <glyph glyph-name="ograve" unicode="&#xf2;" horiz-adv-x="1083" 
d="M754 1073h-9l-335 371l2 8h354zM453 -23q-184 0 -296 109.5t-112 294.5q0 155 80 288.5t214.5 211t289.5 77.5q185 0 297 -108.5t112 -292.5q0 -117 -47.5 -224.5t-126.5 -185.5t-187 -124t-224 -46zM449 12q69 0 130 111t95.5 277.5t34.5 334.5q0 103 -16.5 146
t-55.5 43q-70 0 -131.5 -110.5t-96 -276.5t-34.5 -332q0 -104 17.5 -148.5t56.5 -44.5z" />
    <glyph glyph-name="oacute" unicode="&#xf3;" horiz-adv-x="1083" 
d="M588 1073h-8l141 379h397l-2 -8zM453 -23q-184 0 -296 109.5t-112 294.5q0 155 80 288.5t214.5 211t289.5 77.5q185 0 297 -108.5t112 -292.5q0 -117 -47.5 -224.5t-126.5 -185.5t-187 -124t-224 -46zM449 12q69 0 130 111t95.5 277.5t34.5 334.5q0 103 -16.5 146
t-55.5 43q-70 0 -131.5 -110.5t-96 -276.5t-34.5 -332q0 -104 17.5 -148.5t56.5 -44.5z" />
    <glyph glyph-name="ocircumflex" unicode="&#xf4;" horiz-adv-x="1083" 
d="M664 1452h219l116 -379h-8l-250 191l-383 -191h-8zM453 -23q-184 0 -296 109.5t-112 294.5q0 155 80 288.5t214.5 211t289.5 77.5q185 0 297 -108.5t112 -292.5q0 -117 -47.5 -224.5t-126.5 -185.5t-187 -124t-224 -46zM449 12q69 0 130 111t95.5 277.5t34.5 334.5
q0 103 -16.5 146t-55.5 43q-70 0 -131.5 -110.5t-96 -276.5t-34.5 -332q0 -104 17.5 -148.5t56.5 -44.5z" />
    <glyph glyph-name="otilde" unicode="&#xf5;" horiz-adv-x="1083" 
d="M874 1094q-53 0 -104.5 21.5t-86.5 47t-82.5 47t-92.5 21.5q-56 0 -104 -29.5t-76 -87.5h-9q33 158 111.5 242t187.5 84q53 0 102.5 -21.5t81.5 -47t78.5 -47t94.5 -21.5q129 0 186 137h8q-37 -171 -112 -258.5t-183 -87.5zM453 -23q-184 0 -296 109.5t-112 294.5
q0 155 80 288.5t214.5 211t289.5 77.5q185 0 297 -108.5t112 -292.5q0 -117 -47.5 -224.5t-126.5 -185.5t-187 -124t-224 -46zM449 12q69 0 130 111t95.5 277.5t34.5 334.5q0 103 -16.5 146t-55.5 43q-70 0 -131.5 -110.5t-96 -276.5t-34.5 -332q0 -104 17.5 -148.5
t56.5 -44.5z" />
    <glyph glyph-name="odieresis" unicode="&#xf6;" horiz-adv-x="1083" 
d="M498 1116q-71 0 -115.5 45t-44.5 113q0 82 58 138t143 56q73 0 117 -43t44 -114q0 -80 -59 -137.5t-143 -57.5zM928 1116q-71 0 -115.5 45t-44.5 113q0 82 58 138t143 56q73 0 117 -43t44 -114q0 -80 -59 -137.5t-143 -57.5zM453 -23q-184 0 -296 109.5t-112 294.5
q0 155 80 288.5t214.5 211t289.5 77.5q185 0 297 -108.5t112 -292.5q0 -117 -47.5 -224.5t-126.5 -185.5t-187 -124t-224 -46zM449 12q69 0 130 111t95.5 277.5t34.5 334.5q0 103 -16.5 146t-55.5 43q-70 0 -131.5 -110.5t-96 -276.5t-34.5 -332q0 -104 17.5 -148.5
t56.5 -44.5z" />
    <glyph glyph-name="divide" unicode="&#xf7;" horiz-adv-x="1228" 
d="M723 858q-48 0 -75 27.5t-27 70.5q0 58 41 100t102 42q46 0 73 -26.5t27 -72.5q0 -57 -40.5 -99t-100.5 -42zM1081 625h-856l11 41h856zM557 193q-48 0 -75 27t-27 71q0 57 41 99t102 42q46 0 73 -27t27 -73q0 -56 -41 -97.5t-100 -41.5z" />
    <glyph glyph-name="oslash" unicode="&#xf8;" horiz-adv-x="1083" 
d="M944 1010l-78 -113q83 -52 127.5 -139t44.5 -201q0 -117 -47.5 -224.5t-126.5 -185.5t-187 -124t-224 -46q-112 0 -199 41l-82 -116l-39 26l80 115q-168 108 -168 338q0 155 80 288.5t214.5 211t289.5 77.5q111 0 190 -36l82 116zM637 924q-65 0 -123 -96.5t-93.5 -243
t-43.5 -303.5l332 479q-1 89 -18.5 126.5t-53.5 37.5zM449 12q64 0 122.5 98t94 249t41.5 311l-332 -477q1 -97 19 -139t55 -42z" />
    <glyph glyph-name="ugrave" unicode="&#xf9;" horiz-adv-x="1204" 
d="M780 1073h-8l-336 371l2 8h355zM1153 963l-192 -770l237 147l8 -8q-60 -117 -200 -234.5t-228 -117.5q-82 0 -128.5 38.5t-31.5 96.5l74 295q-101 -225 -204 -327.5t-218 -102.5q-92 0 -131 75.5t-10 188.5l127 522l-258 -148l-6 13q134 211 342 327q130 0 192 -77
t35 -185l-108 -438q-14 -61 26 -61q27 0 54.5 24.5t77 108.5t120.5 237l80 324z" />
    <glyph glyph-name="uacute" unicode="&#xfa;" horiz-adv-x="1204" 
d="M614 1073h-8l142 379h397l-2 -8zM1153 963l-192 -770l237 147l8 -8q-60 -117 -200 -234.5t-228 -117.5q-82 0 -128.5 38.5t-31.5 96.5l74 295q-101 -225 -204 -327.5t-218 -102.5q-92 0 -131 75.5t-10 188.5l127 522l-258 -148l-6 13q134 211 342 327q130 0 192 -77
t35 -185l-108 -438q-14 -61 26 -61q27 0 54.5 24.5t77 108.5t120.5 237l80 324z" />
    <glyph glyph-name="ucircumflex" unicode="&#xfb;" horiz-adv-x="1204" 
d="M690 1452h219l117 -379h-8l-250 191l-383 -191h-8zM1153 963l-192 -770l237 147l8 -8q-60 -117 -200 -234.5t-228 -117.5q-82 0 -128.5 38.5t-31.5 96.5l74 295q-101 -225 -204 -327.5t-218 -102.5q-92 0 -131 75.5t-10 188.5l127 522l-258 -148l-6 13q134 211 342 327
q130 0 192 -77t35 -185l-108 -438q-14 -61 26 -61q27 0 54.5 24.5t77 108.5t120.5 237l80 324z" />
    <glyph glyph-name="udieresis" unicode="&#xfc;" horiz-adv-x="1204" 
d="M524 1116q-71 0 -115 45t-44 113q0 82 57.5 138t142.5 56q73 0 117.5 -43t44.5 -114q0 -80 -59.5 -137.5t-143.5 -57.5zM954 1116q-71 0 -115 45t-44 113q0 82 57.5 138t142.5 56q73 0 117.5 -43t44.5 -114q0 -80 -59.5 -137.5t-143.5 -57.5zM1153 963l-192 -770l237 147
l8 -8q-60 -117 -200 -234.5t-228 -117.5q-82 0 -128.5 38.5t-31.5 96.5l74 295q-101 -225 -204 -327.5t-218 -102.5q-92 0 -131 75.5t-10 188.5l127 522l-258 -148l-6 13q134 211 342 327q130 0 192 -77t35 -185l-108 -438q-14 -61 26 -61q27 0 54.5 24.5t77 108.5
t120.5 237l80 324z" />
    <glyph glyph-name="yacute" unicode="&#xfd;" horiz-adv-x="968" 
d="M532 1073l142 379h397l-2 -8l-528 -371h-9zM662 946l2 10l307 -36q10 -52 10 -101q0 -99 -57.5 -230t-148 -260t-203 -258.5t-222 -232t-205.5 -174.5t-153 -92l-129 244q112 0 245 31t257 90l-168 802l-197 -121l-6 13q107 212 287 327q114 0 171.5 -48.5t75.5 -141.5
l103 -561q103 134 141.5 238t38.5 231q0 192 -149 270z" />
    <glyph glyph-name="thorn" unicode="&#xfe;" horiz-adv-x="1107" 
d="M870 963q97 0 150 -74.5t53 -222.5q0 -159 -50 -290t-136 -217.5t-201 -134t-246 -47.5q-53 0 -118 21l-86 -346q119 -32 206 -72v-8h-653v8q33 24 127 72l406 1620h-183l2 12q101 60 261.5 108.5t275.5 57.5l-43 -178l-191 -774q47 108 91.5 188.5t97 145t112 98
t125.5 33.5zM442 10q77 0 151 102t117.5 248t43.5 279q0 111 -62 111q-50 0 -112 -79t-168 -304l-60 -246q-6 -52 21 -81.5t69 -29.5z" />
    <glyph glyph-name="ydieresis" unicode="&#xff;" horiz-adv-x="968" 
d="M451 1116q-71 0 -115.5 45t-44.5 113q0 82 58 138t143 56q73 0 117 -43t44 -114q0 -80 -59 -137.5t-143 -57.5zM922 1468q73 0 117 -43t44 -114q0 -80 -59 -137.5t-143 -57.5q-71 0 -115.5 45t-44.5 113q0 82 58 138t143 56zM662 946l2 10l307 -36q10 -52 10 -101
q0 -99 -57.5 -230t-148 -260t-203 -258.5t-222 -232t-205.5 -174.5t-153 -92l-129 244q112 0 245 31t257 90l-168 802l-197 -121l-6 13q107 212 287 327q114 0 171.5 -48.5t75.5 -141.5l103 -561q103 134 141.5 238t38.5 231q0 192 -149 270z" />
    <glyph glyph-name="dotlessi" unicode="&#x131;" horiz-adv-x="675" 
d="M244 -20q-62 0 -111 38t-35 97l158 647l-256 -144l-6 13q134 211 342 327q130 0 193 -77.5t34 -184.5l-125 -503l240 147l6 -8q-63 -121 -200 -236.5t-240 -115.5z" />
    <glyph glyph-name="Lslash" unicode="&#x141;" horiz-adv-x="1099" 
d="M602 41l473 473h10q-77 -302 -149 -514h-991v4q46 33 131 76l121 483l-123 -47l-13 33l146 57l162 643q-71 48 -95 76v4h572v-4q-55 -36 -133 -76l-123 -491l155 61l13 -37l-180 -69l-158 -633l90 -39h92z" />
    <glyph glyph-name="lslash" unicode="&#x142;" horiz-adv-x="645" 
d="M662 899l22 -39l-166 -86l-141 -581l299 165l6 -6q-37 -74 -131 -162.5t-196 -149t-162 -60.5q-77 0 -125 39t-33 96l119 471l-115 -60l-19 37l146 76l160 633h-183l2 12q101 60 262 108.5t277 57.5l-45 -178l-107 -441z" />
    <glyph glyph-name="OE" unicode="&#x152;" horiz-adv-x="1939" 
d="M1720 0h-1065q-269 0 -417 136t-148 366q0 101 28.5 202.5t81 193t130 171t170.5 137t208 90.5t238 33h1071q-45 -235 -106 -475h-10l-238 434h-213l-150 -592h117q113 129 256 265h10l-149 -572h-10q-69 122 -113 266h-121l-143 -575l108 -39h134l462 436h11
q-67 -266 -142 -477zM653 43h144l309 1245h-162q-114 -1 -212 -80t-162.5 -206.5t-101 -286t-36.5 -320.5q0 -352 221 -352z" />
    <glyph glyph-name="oe" unicode="&#x153;" horiz-adv-x="1568" 
d="M1575 768q0 -121 -149 -215t-418 -141q0 -121 46 -182.5t132 -61.5q85 0 161 46t130 142l24 -12q-74 -185 -191 -274.5t-263 -89.5q-163 0 -267 104q-142 -107 -327 -107q-184 0 -296 110t-112 296q0 155 80 287.5t215 210t291 77.5q195 0 299 -129q164 129 358 129
q140 0 213.5 -50.5t73.5 -139.5zM449 10q67 0 128 107.5t97.5 284t36.5 370.5q0 73 -20.5 113.5t-53.5 40.5q-68 0 -129.5 -106.5t-98 -278.5t-36.5 -357q0 -86 21 -130t55 -44zM1008 444q142 49 225.5 163t83.5 247q0 72 -55 72q-59 0 -116.5 -71t-95 -183t-42.5 -228z" />
    <glyph glyph-name="Scaron" unicode="&#x160;" horiz-adv-x="1056" 
d="M557 1810l297 -165l412 165h8l-326 -364h-260l-139 364h8zM399 -25q-111 0 -225.5 22.5t-179.5 53.5q54 266 94 424h10l244 -448q25 -11 66 -11q88 0 172 68t84 168q0 55 -24 106t-62.5 93t-85 83.5t-92.5 85t-84.5 89t-62.5 104t-24 121.5q0 124 70.5 219t193.5 146
t279 51q105 0 201 -20.5t160 -57.5q-35 -203 -89 -406h-8l-202 432q-33 11 -68 11q-61 0 -114.5 -21.5t-91.5 -70t-38 -115.5q0 -50 23.5 -98t61.5 -89t83.5 -83t91 -87.5t83.5 -95t61.5 -113.5t23.5 -135q0 -201 -145 -313.5t-406 -112.5z" />
    <glyph glyph-name="scaron" unicode="&#x161;" horiz-adv-x="858" 
d="M340 1452l250 -190l383 190h8l-311 -379h-219l-119 379h8zM514 958q80 0 175 -17.5t142 -39.5l-90 -328h-10q-35 176 -94.5 264.5t-128.5 88.5q-43 0 -67.5 -24.5t-24.5 -67.5q0 -47 25 -97.5t63 -92.5t82 -91t82 -92.5t63 -97.5t25 -107q0 -124 -112 -201.5t-341 -77.5
q-83 0 -178.5 19t-134.5 41l88 330h10q44 -179 110.5 -268t141.5 -89q104 0 104 113q0 43 -18.5 85t-47.5 78t-64 72t-70.5 73.5t-64.5 75.5t-47.5 84.5t-18.5 94.5q0 124 112 198t289 74z" />
    <glyph glyph-name="Ydieresis" unicode="&#x178;" horiz-adv-x="1230" 
d="M748 1485q-70 0 -110 40t-40 105q0 85 61 146t152 61q69 0 108 -38.5t39 -104.5q0 -85 -61 -147t-149 -62zM1182 1485q-70 0 -110 40t-40 105q0 85 61 146t152 61q69 0 108.5 -38.5t39.5 -104.5q0 -84 -61.5 -146.5t-149.5 -62.5zM778 0h-579l2 4q53 36 135 76l115 457
l-160 714q-48 28 -90 74v4h594v-4q-47 -26 -152 -76l139 -633l418 560q-61 59 -133 149v4h395v-4q-108 -84 -215 -149l-440 -592l-127 -504q56 -34 98 -76v-4z" />
    <glyph glyph-name="Zcaron" unicode="&#x17d;" horiz-adv-x="1157" 
d="M516 1810l297 -165l412 165h8l-326 -364h-260l-139 364h8zM319 1329h949v-33l-920 -1255h279l473 473h10q-68 -266 -152 -514h-1003v35l911 1253h-215l-461 -432h-10q62 244 139 473z" />
    <glyph glyph-name="zcaron" unicode="&#x17e;" horiz-adv-x="954" 
d="M369 1452l249 -190l383 190h9l-312 -379h-219l-119 379h9zM201 940h792l-6 -29l-645 -872l158 2l370 330h11q-11 -45 -31 -111.5t-46.5 -150.5t-33.5 -109h-821l6 29l645 872l-131 -2l-371 -330h-10q23 93 113 371z" />
    <glyph glyph-name="florin" unicode="&#x192;" horiz-adv-x="747" 
d="M754 1350q161 0 266 -41l-113 -367h-10q-33 151 -59.5 233t-49 112t-51.5 30q-38 0 -65 -36t-49 -132l-76 -332h211l-10 -39h-209l-181 -782q-43 -187 -179 -302.5t-322 -115.5l8 31q44 2 72.5 38t50.5 132l229 999h-102l4 10l114 66l19 78q43 187 178.5 302.5
t323.5 115.5z" />
    <glyph glyph-name="uni0237" unicode="&#x237;" horiz-adv-x="626" 
d="M346 971q130 0 193 -78t36 -186l-165 -664q-35 -142 -131 -249t-227 -165.5t-288 -74.5v14q108 36 186.5 137t125.5 291l203 778l-267 -145l-6 12q131 208 340 330z" />
    <glyph glyph-name="circumflex" unicode="&#x2c6;" horiz-adv-x="995" 
d="M481 1452h219l117 -379h-8l-250 191l-383 -191h-8z" />
    <glyph glyph-name="caron" unicode="&#x2c7;" horiz-adv-x="995" 
d="M180 1452l250 -190l383 190h8l-311 -379h-219l-119 379h8z" />
    <glyph glyph-name="breve" unicode="&#x2d8;" horiz-adv-x="942" 
d="M383 1049q-131 0 -192 104.5t-19 298.5h8q11 -89 83 -135.5t173 -46.5q105 0 191 47t135 135h8q-49 -192 -151 -297.5t-236 -105.5z" />
    <glyph glyph-name="dotaccent" unicode="&#x2d9;" horiz-adv-x="708" 
d="M336 1090q-77 0 -120.5 43.5t-43.5 113.5q0 89 65 155t160 66q75 0 118.5 -42.5t43.5 -114.5q0 -90 -64 -155.5t-159 -65.5z" />
    <glyph glyph-name="ring" unicode="&#x2da;" horiz-adv-x="710" 
d="M336 1069q-75 0 -120.5 46.5t-45.5 119.5q0 89 64.5 156t156.5 67q73 0 118.5 -45t45.5 -117q0 -92 -64 -159.5t-155 -67.5zM340 1120q67 0 113.5 50t46.5 118q0 55 -31 87t-84 32q-67 0 -113.5 -49t-46.5 -117q0 -54 31.5 -87.5t83.5 -33.5z" />
    <glyph glyph-name="ogonek" unicode="&#x2db;" horiz-adv-x="772" 
d="M334 -477q-84 0 -131 37.5t-47 107.5q0 99 107.5 190.5t309.5 159.5l2 -18q-72 -39 -122 -129.5t-50 -175.5q0 -44 22 -66t56 -22q32 0 70 26l6 -18q-89 -92 -223 -92z" />
    <glyph glyph-name="tilde" unicode="&#x2dc;" horiz-adv-x="1112" 
d="M723 1094q-53 0 -104.5 21.5t-86.5 47t-83 47t-93 21.5q-56 0 -104 -29.5t-76 -87.5h-8q33 158 111.5 242t187.5 84q53 0 102.5 -21.5t81 -47t78 -47t94.5 -21.5q130 0 187 137h8q-37 -171 -112 -258.5t-183 -87.5z" />
    <glyph glyph-name="hungarumlaut" unicode="&#x2dd;" horiz-adv-x="1114" 
d="M176 1073h-8l84 379h338l-2 -8zM561 1073h-8l84 379h338l-2 -8z" />
    <glyph glyph-name="gravecomb" unicode="&#x300;" 
d="M-199 1073h-8l-336 371l2 8h355z" />
    <glyph glyph-name="acutecomb" unicode="&#x301;" 
d="M-674 1073h-8l141 379h398l-2 -8z" />
    <glyph glyph-name="uni0302" unicode="&#x302;" 
d="M-483 1452h219l117 -379h-9l-250 191l-382 -191h-9z" />
    <glyph glyph-name="tildecomb" unicode="&#x303;" 
d="M-438 1094q-53 0 -104.5 21.5t-86.5 47t-83 47t-93 21.5q-56 0 -104 -29.5t-76 -87.5h-8q33 158 111.5 242t187.5 84q53 0 102.5 -21.5t81 -47t78 -47t94.5 -21.5q129 0 186 137h9q-37 -171 -112 -258.5t-183 -87.5z" />
    <glyph glyph-name="uni0304" unicode="&#x304;" 
d="M-158 1229h-643l13 53h643z" />
    <glyph glyph-name="uni0306" unicode="&#x306;" 
d="M-530 1049q-131 0 -192 104.5t-19 298.5h8q11 -89 83 -135.5t173 -46.5q105 0 190.5 47t134.5 135h9q-49 -192 -151 -297.5t-236 -105.5z" />
    <glyph glyph-name="uni0307" unicode="&#x307;" 
d="M-371 1090q-77 0 -120.5 43.5t-43.5 113.5q0 89 65.5 155t160.5 66q75 0 118.5 -42.5t43.5 -114.5q0 -90 -64.5 -155.5t-159.5 -65.5z" />
    <glyph glyph-name="uni0308" unicode="&#x308;" 
d="M-776 1116q-71 0 -115.5 45t-44.5 113q0 82 58 138t143 56q73 0 117.5 -43t44.5 -114q0 -80 -59.5 -137.5t-143.5 -57.5zM-346 1116q-71 0 -115.5 45t-44.5 113q0 82 58 138t143 56q73 0 117.5 -43t44.5 -114q0 -80 -59.5 -137.5t-143.5 -57.5z" />
    <glyph glyph-name="uni030A" unicode="&#x30a;" 
d="M-365 1069q-75 0 -120 46.5t-45 119.5q0 89 64.5 156t156.5 67q73 0 118.5 -45t45.5 -117q0 -92 -64.5 -159.5t-155.5 -67.5zM-360 1120q67 0 113 50t46 118q0 55 -30.5 87t-83.5 32q-67 0 -113.5 -49t-46.5 -117q0 -54 31.5 -87.5t83.5 -33.5z" />
    <glyph glyph-name="uni030B" unicode="&#x30b;" 
d="M-1001 1073h-9l84 379h338l-2 -8zM-616 1073h-9l84 379h338l-2 -8z" />
    <glyph glyph-name="uni030C" unicode="&#x30c;" 
d="M-784 1452l249 -190l383 190h9l-312 -379h-219l-119 379h9z" />
    <glyph glyph-name="uni0327" unicode="&#x327;" 
d="M-432 -477q-153 0 -215 98l16 19q47 -33 107 -33q54 0 87.5 23t33.5 67q0 67 -89 80v6l146 225h49l-51 -90q99 -24 143.5 -70t44.5 -118q0 -93 -78 -150t-194 -57z" />
    <glyph glyph-name="uni0328" unicode="&#x328;" 
d="M-438 -477q-84 0 -131 37.5t-47 107.5q0 99 107.5 190.5t309.5 159.5l2 -18q-72 -39 -122 -129.5t-50 -175.5q0 -44 22 -66t56 -22q32 0 70 26l6 -18q-89 -92 -223 -92z" />
    <glyph glyph-name="uni0335" unicode="&#x335;" 
d="M-164 1135h-684l10 41h684z" />
    <glyph glyph-name="uni0337" unicode="&#x337;" 
d="M-164 844l-645 -334l-18 37l641 336z" />
    <glyph glyph-name="uni0338" unicode="&#x338;" 
d="M-164 991l-772 -1108l-39 27l768 1110z" />
    <glyph glyph-name="uni0394" unicode="&#x394;" horiz-adv-x="1191" 
d="M727 1331h160l143 -1331h-1093zM672 41l-109 946l-555 -946h664z" />
    <glyph glyph-name="uni03A9" unicode="&#x3a9;" horiz-adv-x="1419" 
d="M803 260l-17 -41h336l156 154h12q-46 -236 -80 -373h-544l100 313q128 56 234 255t106 433q0 158 -45.5 232t-149.5 74q-121 0 -220 -102t-152.5 -266t-53.5 -351q0 -228 86 -275l-59 -313h-545q32 130 115 373h8l76 -154h336l8 45q-175 37 -275 154.5t-100 290.5
q0 180 106.5 327t284 228.5t387.5 81.5q135 0 238 -37.5t166.5 -104t95 -153.5t31.5 -191q0 -150 -85.5 -278.5t-230.5 -211t-325 -110.5z" />
    <glyph glyph-name="uni03BC" unicode="&#x3bc;" horiz-adv-x="1204" 
d="M961 193l237 147l8 -8q-60 -117 -200 -234.5t-228 -117.5q-82 0 -128.5 38.5t-31.5 96.5l72 291q-148 -337 -319 -406l-88 -377l-310 -43l156 664l127 522l-258 -148l-6 13q134 211 342 327q130 0 192 -77t35 -185l-108 -438q-14 -61 26 -61q27 0 54.5 23.5t77 106
t118.5 232.5l82 332l342 72z" />
    <glyph glyph-name="pi" unicode="&#x3c0;" horiz-adv-x="1038" 
d="M158 940h950l-96 -295h-119l-117 -452l242 147l6 -8q-59 -117 -198.5 -234.5t-229.5 -117.5q-77 0 -125 39t-33 96l131 530h-293q-80 -308 -200 -645h-129q88 150 163 326.5t115 318.5h-164z" />
    <glyph glyph-name="endash" unicode="&#x2013;" horiz-adv-x="1056" 
d="M954 461h-854l9 41h854z" />
    <glyph glyph-name="emdash" unicode="&#x2014;" horiz-adv-x="1632" 
d="M1530 479h-1426l11 41h1425z" />
    <glyph glyph-name="quoteleft" unicode="&#x2018;" horiz-adv-x="512" 
d="M338 754q-71 0 -114.5 48t-43.5 132q0 83 44 169.5t118.5 161.5t170.5 139t202 107l8 -20q-57 -35 -95 -63.5t-69 -63.5t-47.5 -71t-25 -84.5t-6.5 -106t12 -133.5l20 -152q-85 -63 -174 -63z" />
    <glyph glyph-name="quoteright" unicode="&#x2019;" horiz-adv-x="518" 
d="M137 748l-8 22q56 35 94 63.5t69.5 63.5t48 71t25 84.5t6.5 106t-12 133.5l-20 152q89 63 172 63q72 0 116 -48t44 -134q0 -109 -76 -222.5t-196 -204t-263 -150.5z" />
    <glyph glyph-name="quotesinglbase" unicode="&#x201a;" horiz-adv-x="507" 
d="M-174 -377l-8 23q57 35 95 63.5t69 63.5t47.5 71t25 84.5t6.5 106t-12 133.5l-20 151q91 64 174 64q71 0 114 -48t43 -134q0 -162 -156.5 -324t-377.5 -254z" />
    <glyph glyph-name="quotedblleft" unicode="&#x201c;" horiz-adv-x="993" 
d="M338 754q-71 0 -114.5 48t-43.5 132q0 83 44 169.5t118.5 161.5t170.5 139t202 107l8 -20q-57 -35 -95 -63.5t-69 -63.5t-47.5 -71t-25 -84.5t-6.5 -106t12 -133.5l20 -152q-85 -63 -174 -63zM821 754q-72 0 -115.5 47.5t-43.5 132.5q0 83 44 169.5t118 161.5t170 139
t202 107l8 -20q-56 -35 -94 -63.5t-69 -63.5t-47.5 -71t-25 -84.5t-7 -106t11.5 -133.5l20 -152q-85 -63 -172 -63z" />
    <glyph glyph-name="quotedblright" unicode="&#x201d;" horiz-adv-x="999" 
d="M137 748l-8 22q56 35 94 63.5t69.5 63.5t48 71t25 84.5t6.5 106t-12 133.5l-20 152q89 63 172 63q72 0 116 -48t44 -134q0 -109 -76 -222.5t-196 -204t-263 -150.5zM618 748l-8 22q57 35 95 63.5t69.5 63.5t48 71t25 84.5t6.5 106t-12 133.5l-21 152q89 63 174 63
q72 0 116 -48t44 -134q0 -108 -76.5 -222t-197 -204.5t-263.5 -150.5z" />
    <glyph glyph-name="quotedblbase" unicode="&#x201e;" horiz-adv-x="989" 
d="M-174 -377l-8 23q57 35 95 63.5t69 63.5t47.5 71t25 84.5t6.5 106t-12 133.5l-20 151q91 64 174 64q71 0 114 -48t43 -134q0 -162 -156.5 -324t-377.5 -254zM307 -377l-8 23q57 35 95 63.5t69.5 63.5t48 71t25 84.5t7 106t-11.5 133.5l-22 151q91 64 174 64q72 0 116 -48
t44 -134q0 -108 -76.5 -222.5t-197 -205t-263.5 -150.5z" />
    <glyph glyph-name="dagger" unicode="&#x2020;" horiz-adv-x="731" 
d="M745 1452l-192 -299l299 117l-70 -281l-245 121l-29 -604h-279l275 604l-305 -121l69 281l240 -117l-41 299h278z" />
    <glyph glyph-name="daggerdbl" unicode="&#x2021;" horiz-adv-x="802" 
d="M547 506h-279l181 260l-297 -117l67 279l234 -113l-68 164l150 164l-289 -113l69 279l240 -117l-53 260h280l-182 -262l299 119l-70 -279l-233 113l70 -164l-154 -164l293 113l-70 -279l-241 119z" />
    <glyph glyph-name="bullet" unicode="&#x2022;" horiz-adv-x="868" 
d="M414 338q-111 196 -271 346q247 167 416 344q118 -200 275 -344q-248 -169 -420 -346z" />
    <glyph glyph-name="ellipsis" unicode="&#x2026;" horiz-adv-x="1554" 
d="M186 -18q-78 0 -128 50t-50 128q0 91 64 155t155 64q79 0 130 -49.5t51 -126.5q0 -92 -65.5 -156.5t-156.5 -64.5zM690 -18q-78 0 -128 50t-50 128q0 91 64 155t155 64q79 0 129.5 -49.5t50.5 -126.5q0 -92 -65 -156.5t-156 -64.5zM1194 -18q-78 0 -128 50t-50 128
q0 91 64.5 155t156.5 64q78 0 128 -49.5t50 -126.5q0 -92 -65 -156.5t-156 -64.5z" />
    <glyph glyph-name="perthousand" unicode="&#x2030;" horiz-adv-x="2048" 
d="M344 -166l967 1645l43 -17l-975 -1644zM842 1071q0 -106 -53 -204.5t-149 -162t-210 -63.5q-111 0 -182.5 70.5t-71.5 199.5q0 106 52.5 205t148.5 163t211 64q111 0 182.5 -71t71.5 -201zM383 780q0 -110 57 -110q30 0 64 39.5t62.5 107.5t47.5 170t19 215t-55 113
q-30 0 -64 -40t-63.5 -108.5t-48.5 -171t-19 -215.5zM1716 688q111 0 182.5 -70t71.5 -200q0 -106 -53 -204.5t-149.5 -162t-211.5 -63.5q-123 0 -188 86q-107 -86 -240 -86q-111 0 -182.5 70.5t-71.5 199.5q0 106 53 204.5t149.5 162t211.5 63.5q126 0 191 -86
q102 86 237 86zM1141 14q30 0 63.5 40t62.5 108.5t47.5 171t18.5 215.5t-55 113q-31 0 -65 -40t-63 -108.5t-48 -171t-19 -215.5t58 -113zM1567 14q31 0 65 40t63 108.5t47.5 171t18.5 215.5t-55 113q-31 0 -65 -40t-63 -108.5t-48 -171t-19 -215.5t56 -113z" />
    <glyph glyph-name="guilsinglleft" unicode="&#x2039;" horiz-adv-x="577" 
d="M522 758l13 -8l-222 -334l84 -310l-12 -8l-336 330z" />
    <glyph glyph-name="guilsinglright" unicode="&#x203a;" horiz-adv-x="575" 
d="M160 750l14 8l334 -330l-471 -330l-12 8l219 334z" />
    <glyph glyph-name="fraction" unicode="&#x2044;" horiz-adv-x="819" 
d="M791 662h-664l10 38h664z" />
    <glyph glyph-name="Euro" unicode="&#x20ac;" horiz-adv-x="1396" 
d="M1087 1348q103 0 208 -25t167 -66q-30 -172 -98 -403h-10l-217 442q-33 13 -66 13q-52 0 -111.5 -31.5t-120 -91.5t-115.5 -163t-89 -232h393l-12 -41h-391q-22 -88 -31 -183h362l-12 -39h-354q-8 -73 -8 -178q0 -145 49 -236t123 -91q31 0 51 10l469 440h10
q-51 -215 -115 -410q-191 -83 -430 -83q-220 0 -361.5 144t-141.5 380v24h-168l12 39h158q6 94 34 183h-133l13 41h135q91 247 309 402t491 155z" />
    <glyph glyph-name="trademark" unicode="&#x2122;" horiz-adv-x="1495" 
d="M768 1104l-92 203h-14l-117 -467q27 -19 53 -45v-7h-342v7q38 26 76 45l117 467h-15l-190 -203h-6q8 53 47 225h551q-39 -155 -64 -225h-4zM1309 1329h286v-6q-10 -9 -59 -43l-98 -444q20 -15 39 -41v-7h-324v7q16 14 61 43l101 419l-268 -462h-89l-18 465l-102 -375
q27 -39 55 -90v-7h-199v7q52 52 103 90l112 407q-22 18 -32 31v6h286l-4 -260z" />
    <glyph glyph-name="partialdiff" unicode="&#x2202;" horiz-adv-x="1075" 
d="M473 -23q-191 0 -306.5 112t-115.5 300q0 115 48.5 220.5t129 181.5t189.5 121.5t227 45.5q38 0 70 -16q-5 434 -250 434q-135 0 -244 -133l-26 21q143 209 378 209q232 0 359 -186.5t127 -508.5q0 -204 -47.5 -361t-129.5 -251t-185.5 -141.5t-223.5 -47.5zM473 12
q66 0 126 108t95 277.5t35 347.5q0 54 -8 103q-17 76 -76 76q-69 0 -131.5 -112t-97.5 -275.5t-35 -321.5q0 -112 22.5 -157.5t69.5 -45.5z" />
    <glyph glyph-name="product" unicode="&#x220f;" horiz-adv-x="1413" 
d="M307 1325h1262l-10 -37h-109l-442 -1634q50 -31 94 -72l-2 -6h-549l4 6q64 41 127 70l442 1636h-391l-440 -1634q64 -44 92 -72l-2 -6h-547l2 6q13 7 37.5 22t46 27t45.5 23l441 1634h-109z" />
    <glyph glyph-name="summation" unicode="&#x2211;" horiz-adv-x="1226" 
d="M336 1329h1003q-39 -198 -108 -465h-10l-197 426h-342l229 -694l-725 -735h660l168 176h10q-78 -316 -123 -465h-985l31 117l651 659l-293 864z" />
    <glyph glyph-name="minus" unicode="&#x2212;" horiz-adv-x="1228" 
d="M1077 625h-856l10 41h856z" />
    <glyph glyph-name="radical" unicode="&#x221a;" horiz-adv-x="970" 
d="M528 768l82 -457l588 1141h86l-799 -1462h-133l-155 749l-197 -121l-6 13q107 212 287 327q114 0 171.5 -48.5t75.5 -141.5z" />
    <glyph glyph-name="infinity" unicode="&#x221e;" horiz-adv-x="1302" 
d="M1059 1008q117 0 183.5 -79.5t66.5 -217.5q0 -122 -49.5 -228t-133.5 -168.5t-182 -62.5q-92 0 -156 66.5t-86 185.5q-120 -142 -202 -197t-176 -55q-117 0 -183.5 79t-66.5 218q0 122 49 228t133 168.5t182 62.5q92 0 156 -66.5t86 -185.5q121 142 203.5 197t175.5 55z
M285 451q86 0 164 55t198 201q-76 112 -252 112q-128 0 -205 -59.5t-77 -157.5q0 -72 44.5 -111.5t127.5 -39.5zM987 440q128 0 205.5 59.5t77.5 157.5q0 72 -44.5 111t-127.5 39q-86 0 -164.5 -55t-198.5 -199q75 -113 252 -113z" />
    <glyph glyph-name="integral" unicode="&#x222b;" horiz-adv-x="772" 
d="M-76 -424q-72 0 -120.5 10t-108.5 39l24 76h11q41 -49 73.5 -66.5t75.5 -17.5q77 0 122.5 61t78.5 199l289 1167q48 192 183.5 308t319.5 116q72 0 123 -10.5t109 -38.5l-23 -76h-12q-41 49 -73.5 66.5t-75.5 17.5q-82 0 -126.5 -63.5t-80.5 -208.5l-289 -1171
q-45 -182 -180.5 -295t-319.5 -113z" />
    <glyph glyph-name="approxequal" unicode="&#x2248;" horiz-adv-x="1228" 
d="M315 780h-32q23 64 93.5 104t158.5 40q51 0 101 -16t85 -35.5t86 -35.5t104 -16q70 0 124 25t75 76h33q-26 -70 -95 -107t-151 -37q-51 0 -102.5 16t-87 35.5t-87 35.5t-102.5 16q-70 0 -127.5 -26t-75.5 -75zM213 371h-33q25 64 95.5 103.5t158.5 39.5q51 0 100.5 -16
t84.5 -35t86 -35t104 -16q70 0 125 24.5t74 75.5h32q-26 -70 -95 -106.5t-152 -36.5q-51 0 -101.5 16t-86 35t-87 35t-102.5 16q-71 0 -128 -26t-75 -74z" />
    <glyph glyph-name="notequal" unicode="&#x2260;" horiz-adv-x="1228" 
d="M1139 870l-11 -41h-354l-190 -368h454l-10 -41h-465l-123 -238l-39 15l115 223h-344l10 41h357l190 368h-457l11 41h467l122 238l39 -14l-114 -224h342z" />
    <glyph glyph-name="lessequal" unicode="&#x2264;" horiz-adv-x="1228" 
d="M203 692l12 47l948 289l-14 -49l-887 -268l719 -303l-14 -39zM981 219l-10 -41h-856l8 41h858z" />
    <glyph glyph-name="greaterequal" unicode="&#x2265;" horiz-adv-x="1228" 
d="M1065 715l-721 303l14 39l764 -324l-12 -47l-946 -289l12 49zM981 219l-10 -41h-856l8 41h858z" />
    <glyph glyph-name="lozenge" unicode="&#x25ca;" horiz-adv-x="940" 
d="M113 612l344 613h98l344 -613l-344 -612h-98zM506 1118l-289 -506l289 -506l287 506z" />
    <glyph glyph-name="uniF8FF" unicode="&#xf8ff;" horiz-adv-x="4831" 
d="M1292 408q-95 0 -136.5 40t-41.5 130v466h203q0 -62 -39.5 -122t-97.5 -86l2 -9q57 35 118 35h105v-162h-86v-98q0 -35 37 -35q26 0 49 15v-154q-36 -20 -113 -20zM1649 418h-203v626h201q0 -67 -47 -122t-115 -70l4 -6q84 16 143 16h17v-444zM2951 408
q-95 0 -137.5 40.5t-42.5 129.5v466h203q0 -62 -39.5 -122t-98.5 -86l5 -9q57 35 118 35h103v-162h-86v-98q0 -35 37 -35q27 0 49 15v-154q-36 -20 -111 -20zM551 418h-203v624h203v-624zM727 408q-66 0 -104.5 34t-38.5 90q0 60 40.5 98t110.5 38q92 0 135 -43h4v71
q0 24 -12 38t-35 14q-47 0 -47 -60l-184 29q37 160 250 160q109 0 171 -50t62 -135v-274h-200v45h-7q-14 -20 -51.5 -37.5t-93.5 -17.5zM1894 418h-202v444h198v-133h6q17 143 146 143q70 0 109.5 -46t39.5 -134v-274h-204v264q0 55 -39 55q-22 0 -32.5 -13.5t-21.5 -51.5
v-254zM2480 408q-123 0 -190.5 63.5t-67.5 167.5t69 168.5t189 64.5q122 0 190 -64.5t68 -168.5q0 -103 -67.5 -167t-190.5 -64zM3811 270h-204v592h202v-133h6q21 143 150 143q170 0 170 -233q0 -115 -51 -173t-125 -58q-106 0 -142 88h-6v-226zM4418 408q-120 0 -187 63.5
t-67 167.5q0 103 70 168t190 65q106 0 172.5 -64.5t66.5 -158.5v-18h-307q0 -39 19 -66.5t51 -27.5q54 0 61 69l168 -16q-18 -95 -82.5 -138.5t-154.5 -43.5zM3238 262h-80v135h133q115 0 137 25l-2 6h-139q-82 0 -106 80l-111 354h205q6 -36 20 -110t23.5 -134.5
t13.5 -109.5h4q12 115 62 354h202l-145 -424q-63 -176 -217 -176zM4356 655h12q62 0 87.5 12t25.5 38q0 45 -49 45q-34 0 -55 -26t-21 -69zM3881 506q31 0 46 27.5t15 89.5q0 66 -12 95.5t-43 29.5q-45 0 -61 -68v-148q21 -26 55 -26zM2480 535q60 0 60 104q0 106 -60 106
q-57 0 -57 -106q0 -104 57 -104zM829 469q30 0 45 23v104q-10 16 -38 16q-25 0 -40.5 -19t-15.5 -52q0 -72 49 -72z" />
    <glyph glyph-name="uni0308.case" 
d="M-784 1485q-70 0 -110 40t-40 105q0 85 61 146t152 61q69 0 108.5 -38.5t39.5 -104.5q0 -84 -61.5 -146.5t-149.5 -62.5zM-350 1485q-70 0 -110 40t-40 105q0 85 61 146t152 61q69 0 108.5 -38.5t39.5 -104.5q0 -84 -61.5 -146.5t-149.5 -62.5z" />
    <glyph glyph-name="gravecomb.case" 
d="M-168 1446h-8l-436 356l2 8h438z" />
    <glyph glyph-name="acutecomb.case" 
d="M-764 1446h-8l143 364h469l-2 -8z" />
    <glyph glyph-name="uni0302.case" 
d="M-543 1810h262l138 -364h-9l-294 166l-414 -166h-8z" />
    <glyph glyph-name="uni030C.case" 
d="M-856 1810l297 -165l412 165h8l-326 -364h-260l-139 364h8z" />
    <glyph glyph-name="uni030A.case" 
d="M-373 1362q-80 0 -128 49t-48 125q0 95 68.5 166.5t165.5 71.5q78 0 126 -48.5t48 -126.5q0 -95 -68 -166t-164 -71zM-371 1421q67 0 115.5 51.5t48.5 120.5q0 54 -29.5 86.5t-82.5 32.5q-68 0 -116 -51.5t-48 -120.5q0 -53 30 -86t82 -33z" />
    <glyph glyph-name="tildecomb.case" 
d="M-412 1460q-52 0 -102.5 21t-85 45.5t-81 45.5t-91.5 21q-54 0 -101 -28.5t-75 -87.5h-8q34 150 109 230.5t185 80.5q43 0 82 -12.5t69 -31t60 -36.5t66.5 -30.5t75.5 -12.5q52 0 90.5 24t71.5 80h8q-39 -155 -105 -232t-168 -77z" />
    <glyph glyph-name="uni0337.case" 
d="M-152 809l-647 -350l-16 33l645 350z" />
    <glyph glyph-name="uni0338.case" 
d="M-164 1395l-878 -1516l-41 25l876 1515z" />
    <glyph glyph-name="dieresis.case" horiz-adv-x="1120" 
d="M324 1485q-70 0 -110 40t-40 105q0 85 61 146t152 61q69 0 108.5 -38.5t39.5 -104.5q0 -84 -61.5 -146.5t-149.5 -62.5zM758 1485q-70 0 -110 40t-40 105q0 85 61 146t152 61q69 0 108.5 -38.5t39.5 -104.5q0 -84 -61.5 -146.5t-149.5 -62.5z" />
    <glyph glyph-name="grave.case" horiz-adv-x="878" 
d="M623 1446h-9l-436 356l2 8h438z" />
    <glyph glyph-name="acute.case" horiz-adv-x="878" 
d="M180 1446h-8l143 364h469l-2 -8z" />
    <glyph glyph-name="circumflex.case" horiz-adv-x="1073" 
d="M498 1810h262l137 -364h-8l-295 166l-414 -166h-8z" />
    <glyph glyph-name="caron.case" horiz-adv-x="1073" 
d="M184 1810l297 -165l412 165h8l-326 -364h-260l-139 364h8z" />
    <glyph glyph-name="ring.case" horiz-adv-x="735" 
d="M348 1362q-80 0 -128 49t-48 125q0 95 68.5 166.5t165.5 71.5q78 0 126 -48.5t48 -126.5q0 -95 -68 -166t-164 -71zM350 1421q67 0 115.5 51.5t48.5 120.5q0 54 -30 86.5t-83 32.5q-68 0 -115.5 -51.5t-47.5 -120.5q0 -53 30 -86t82 -33z" />
    <glyph glyph-name="tilde.case" horiz-adv-x="1091" 
d="M717 1460q-52 0 -102.5 21t-85 45.5t-81.5 45.5t-92 21q-54 0 -101 -28.5t-75 -87.5h-8q34 150 109.5 230.5t185.5 80.5q52 0 100.5 -19t80.5 -42.5t77.5 -42.5t93.5 -19q52 0 90.5 24t71.5 80h8q-39 -155 -104.5 -232t-167.5 -77z" />
    </font>
</defs>
</svg>
