<?xml version="1.0" standalone="no"?>
<!DOCTYPE svg PUBLIC "-//W3C//DTD SVG 1.1//EN" "http://www.w3.org/Graphics/SVG/1.1/DTD/svg11.dtd" >
<svg xmlns="http://www.w3.org/2000/svg" xmlns:xlink="http://www.w3.org/1999/xlink" version="1.1">
<metadata>
Created by FontForge 20170731 at Thu Jan 13 22:27:51 2022
 By Aleksey,,,
Copyright (c) 2020 by Latinotype Ltda. All rights reserved.
</metadata>
<defs>
<font id="MixtaEssSharpIt-Light" horiz-adv-x="0" >
  <font-face 
    font-family="Mixta Ess Sharp It Light"
    font-weight="350"
    font-style="italic"
    font-stretch="normal"
    units-per-em="2048"
    panose-1="0 0 4 0 0 0 0 0 0 0"
    ascent="1638"
    descent="-410"
    x-height="918"
    cap-height="1307"
    bbox="-1169 -440 4665 1741"
    underline-thickness="102"
    underline-position="-307"
    slope="-14"
    unicode-range="U+0020-FB02"
  />
<missing-glyph horiz-adv-x="1458" 
d="M360 0v1495h881v-1495h-881zM1108 1423h-614l307 -587zM442 150l314 598l-314 598v-1196zM1159 1346l-311 -598l311 -598v1196zM1108 72l-307 587l-307 -587h614z" />
    <glyph glyph-name="fi" unicode="fi" horiz-adv-x="1021" 
d="M705 1421q-97 -2 -174 -74t-105 -202l-51 -227h446q42 0 61.5 -28t8.5 -71l-182 -766l260 213l8 -8q-52 -82 -143 -167t-168 -111q-29 2 -48.5 23.5t-11.5 53.5l197 832h-434l-193 -881l-108 -22l198 903h-135l2 10l141 27l37 168q38 168 148.5 262t261.5 94
q133 0 204.5 -52.5t71.5 -121.5q0 -53 -33 -79t-92 -26l-71 234q-39 16 -96 16z" />
    <glyph glyph-name="fl" unicode="fl" horiz-adv-x="1015" 
d="M1032 1430h2l-327 -1381l307 221l8 -8q-57 -78 -183 -180t-173 -102q-30 0 -49.5 20.5t-12.5 50.5l293 1237q-55 133 -195 133q-104 -1 -176 -74.5t-100 -201.5l-51 -227h221l-8 -29h-219l-193 -881l-108 -22l198 903h-135l2 10l141 27l37 168q37 166 143.5 261t264.5 95
q132 0 239 -76z" />
    <glyph glyph-name=".notdef" horiz-adv-x="1458" 
d="M360 0v1495h881v-1495h-881zM1108 1423h-614l307 -587zM442 150l314 598l-314 598v-1196zM1159 1346l-311 -598l311 -598v1196zM1108 72l-307 587l-307 -587h614z" />
    <glyph glyph-name=".null" 
 />
    <glyph glyph-name="nonmarkingreturn" horiz-adv-x="682" 
 />
    <glyph glyph-name="space" unicode=" " horiz-adv-x="462" 
 />
    <glyph glyph-name="exclam" unicode="!" horiz-adv-x="458" 
d="M207 340h-19l211 1090h144zM127 -16q-37 0 -61.5 25.5t-24.5 62.5q0 43 30.5 73.5t71.5 30.5q38 0 63 -25.5t25 -62.5q0 -41 -31.5 -72.5t-72.5 -31.5z" />
    <glyph glyph-name="quotedbl" unicode="&#x22;" horiz-adv-x="563" 
d="M293 991h-12l41 436h141zM541 991h-11l39 436h144z" />
    <glyph glyph-name="numbersign" unicode="#" horiz-adv-x="1138" 
d="M1186 887l-10 -33h-269l-149 -389h266l-12 -31h-267l-167 -434h-35l168 434h-357l-168 -434h-34l167 434h-264l13 31h264l149 389h-262l12 33h265l161 420h37l-164 -420h357l162 420h34l-161 -420h264zM367 465h356l149 389h-354z" />
    <glyph glyph-name="dollar" unicode="$" horiz-adv-x="960" 
d="M772 1532l-51 -205q184 -9 291 -90q-39 -207 -64 -317h-10l-61 315q-79 61 -201 61q-143 0 -232.5 -68.5t-89.5 -187.5q0 -64 27 -119t69.5 -95.5t94.5 -78.5t104 -78.5t94.5 -85t69.5 -108t27 -139.5q0 -112 -62 -193t-164.5 -120.5t-234.5 -42.5l-51 -205h-29l49 205
q-209 3 -325 81q23 152 63 330h12l58 -323q70 -58 221 -58q160 0 261 76.5t101 206.5q0 70 -27 128.5t-70 101t-94.5 81.5t-103.5 78.5t-95 82.5t-70 102.5t-27 129.5q0 151 118 240.5t312 89.5h10l51 205h29z" />
    <glyph glyph-name="percent" unicode="%" horiz-adv-x="1429" 
d="M1313 1423l-1067 -1554l-23 14l1061 1555zM422 733q-101 0 -164 66.5t-63 165.5q0 151 100 256.5t244 105.5q103 0 164 -68t61 -165q0 -150 -98.5 -255.5t-243.5 -105.5zM430 756q101 0 169.5 110.5t68.5 259.5q0 86 -35 132.5t-101 46.5q-101 0 -171 -110.5t-70 -260.5
q0 -89 37 -133.5t102 -44.5zM991 -20q-101 0 -164 66t-63 165q0 151 100 256.5t246 105.5q102 0 162.5 -68t60.5 -165q0 -150 -98.5 -255t-243.5 -105zM999 2q67 0 122 52t85.5 137t30.5 182q0 86 -34.5 132t-100.5 46q-101 0 -171.5 -110.5t-70.5 -260.5q0 -89 37 -133.5
t102 -44.5z" />
    <glyph glyph-name="ampersand" unicode="&#x26;" horiz-adv-x="1146" 
d="M621 27q78 -114 215 -254v-2l-101 -50q-108 147 -178 283q-79 -24 -162 -24q-150 0 -249 100.5t-99 273.5q0 121 44.5 231t116 186.5t164 121.5t187.5 45t143 -43t48 -119q0 -184 -330 -299q34 -210 180 -424q180 80 296.5 280.5t115.5 454.5q-2 177 -46 304t-145 215
l29 10q245 -171 248 -520q1 -265 -135 -475t-342 -295zM401 8q68 0 142 23q-125 239 -156 463q138 58 202 137.5t64 163.5q0 114 -106 114q-97 0 -187 -78t-145 -206.5t-55 -266.5q0 -169 64.5 -259.5t176.5 -90.5z" />
    <glyph glyph-name="quotesingle" unicode="'" horiz-adv-x="315" 
d="M293 991h-12l41 439h143z" />
    <glyph glyph-name="parenleft" unicode="(" horiz-adv-x="618" 
d="M449 -279l-9 -14q-157 65 -253.5 242.5t-96.5 402.5q0 224 97.5 443t265 378.5t364.5 217.5l4 -17q-177 -76 -318 -237.5t-220.5 -376.5t-79.5 -441q0 -207 64.5 -364.5t181.5 -233.5z" />
    <glyph glyph-name="parenright" unicode=")" horiz-adv-x="616" 
d="M-154 -293l-4 17q177 76 318.5 238t221 376.5t79.5 439.5q0 208 -64.5 365.5t-181.5 232.5l8 15q157 -63 253.5 -241t96.5 -402t-97.5 -443t-265 -379t-364.5 -219z" />
    <glyph glyph-name="asterisk" unicode="*" horiz-adv-x="667" 
d="M508 1171l-150 -229l-82 74l224 162l-234 18l70 121l170 -129l2 242h127l-119 -242l236 129l8 -119l-244 -20l141 -160l-118 -76z" />
    <glyph glyph-name="plus" unicode="+" horiz-adv-x="1228" 
d="M682 659h375l-8 -28h-375l-96 -387h-33l96 387h-373l6 28h375l96 388h33z" />
    <glyph glyph-name="comma" unicode="," horiz-adv-x="370" 
d="M-106 -236l-5 9q100 72 137.5 139t18.5 145l-18 86q42 45 88 45q32 0 51.5 -22.5t19.5 -59.5q0 -82 -84 -181.5t-208 -160.5z" />
    <glyph glyph-name="hyphen" unicode="-" horiz-adv-x="845" 
d="M733 467h-616l6 29h618z" />
    <glyph glyph-name="period" unicode="." horiz-adv-x="401" 
d="M113 -4q-38 0 -62 25.5t-24 62.5q0 41 30.5 72.5t71.5 31.5q38 0 62 -26t24 -64q0 -41 -30.5 -71.5t-71.5 -30.5z" />
    <glyph glyph-name="slash" unicode="/" horiz-adv-x="516" 
d="M12 -41h-35l627 1389h35z" />
    <glyph glyph-name="zero" unicode="0" horiz-adv-x="1243" 
d="M532 -20q-186 0 -291.5 132t-105.5 367q0 165 55 321.5t145.5 271.5t215 185t256.5 70q187 0 292 -134t105 -368q0 -167 -54.5 -323t-145.5 -270t-215 -183t-257 -69zM541 10q115 0 219 75t175 195.5t113 273.5t42 308q0 203 -74.5 318.5t-218.5 115.5
q-114 0 -217.5 -76.5t-174.5 -199t-113 -276.5t-42 -308q0 -203 74 -314.5t217 -111.5z" />
    <glyph glyph-name="one" unicode="1" horiz-adv-x="575" 
d="M575 1325l-22 -80l-301 -1194q42 -11 133 -41v-10h-422v10q112 30 176 41l295 1168l-170 14l2 10q125 41 309 82z" />
    <glyph glyph-name="two" unicode="2" horiz-adv-x="993" 
d="M68 90h639l143 258h12q-36 -145 -100 -348h-791l6 63q160 112 278.5 202t238.5 197.5t195.5 200.5t123 196t47.5 200q0 116 -54 176.5t-161 60.5q-96 0 -196 -49l-195 -342h-14q47 237 75 338q166 84 338 84q152 0 240 -81.5t88 -217.5q0 -66 -24 -133t-62 -126
t-102 -125.5t-127 -121t-154.5 -122.5t-167 -120.5t-182.5 -125.5q-62 -42 -94 -64z" />
    <glyph glyph-name="three" unicode="3" horiz-adv-x="964" 
d="M969 1069q0 -97 -59.5 -176t-153.5 -129t-217 -80q136 -15 215.5 -97.5t79.5 -213.5q0 -114 -66.5 -204.5t-180.5 -139.5t-255 -49q-199 0 -322 79q57 209 103 351h14l20 -347q63 -53 191 -53q153 0 262 104t109 271q0 147 -86 216.5t-230 55.5l6 29q214 33 330.5 138
t116.5 253q0 108 -54.5 163.5t-144.5 55.5q-97 0 -182 -51l-191 -340h-14q26 166 68 344q156 78 319 78q147 0 234.5 -67t87.5 -191z" />
    <glyph glyph-name="four" unicode="4" horiz-adv-x="968" 
d="M14 387l897 926h35l-219 -864h174l-22 -87h-172l-93 -362h-112l94 362h-584zM618 449l177 704l-678 -704h501z" />
    <glyph glyph-name="five" unicode="5" horiz-adv-x="935" 
d="M967 1217h-531l-184 -488q116 64 248 64q155 0 248.5 -94.5t93.5 -237.5q0 -96 -28.5 -176t-77.5 -135.5t-115 -94.5t-141 -57t-156 -18q-196 0 -318 92q21 86 98 338h15l22 -344q77 -56 191 -56q150 0 262.5 114.5t112.5 299.5q0 128 -71 204.5t-196 76.5
q-109 0 -217 -54l-28 11l241 645h482l86 129h12q-20 -108 -49 -219z" />
    <glyph glyph-name="six" unicode="6" horiz-adv-x="1054" 
d="M811 1327q158 0 285 -78q-40 -192 -86 -344h-15l-34 346q-65 45 -162 45q-84 0 -160.5 -42.5t-133 -110.5t-103.5 -159.5t-77.5 -182.5t-50.5 -187q137 154 328 154q153 0 243.5 -92t90.5 -244q0 -102 -38 -188.5t-101 -143.5t-144 -88.5t-168 -31.5q-167 0 -261.5 117
t-94.5 333q0 165 51 326t139 287.5t217.5 205t274.5 78.5zM569 729q-83 0 -162 -41.5t-139 -112.5q-22 -110 -22 -208q0 -172 62.5 -264.5t185.5 -92.5q96 0 170 63.5t110.5 158.5t36.5 200q0 146 -62.5 221.5t-179.5 75.5z" />
    <glyph glyph-name="seven" unicode="7" horiz-adv-x="868" 
d="M272 1307h760l-16 -68q-455 -599 -674 -1239h-131q274 643 750 1217h-633l-131 -250h-11q4 16 38 153t48 187z" />
    <glyph glyph-name="eight" unicode="8" horiz-adv-x="1028" 
d="M1030 1051q0 -142 -105.5 -247t-262.5 -134q110 -23 173.5 -99t63.5 -188q0 -115 -70 -209t-181.5 -144t-237.5 -50q-155 0 -251 79t-96 211q0 149 119.5 262t288.5 142q-99 23 -153 89.5t-54 162.5q0 107 64 200t170 147t225 54q140 0 223.5 -76t83.5 -200zM578 686
q93 0 170 59t118 149.5t41 188.5q0 102 -49 157.5t-139 55.5q-94 0 -172.5 -62t-120 -153.5t-41.5 -185.5q0 -96 49 -152.5t144 -56.5zM774 418q0 109 -56.5 174t-158.5 65q-97 0 -184 -60t-137 -155t-50 -196q0 -109 60 -172.5t168 -63.5q100 0 183.5 60t129 153t45.5 195z
" />
    <glyph glyph-name="nine" unicode="9" horiz-adv-x="1060" 
d="M659 1327q359 0 359 -481q0 -170 -44.5 -325t-126.5 -276t-209 -193t-280 -72t-276 77q41 194 84 344h14l37 -346q59 -45 160 -45q86 0 161 40t129.5 105t98.5 154t71 182t44 193q-137 -164 -334 -164q-155 0 -245.5 93.5t-90.5 256.5q0 136 64.5 242.5t165.5 160.5
t218 54zM575 559q87 0 168 43.5t142 116.5q16 99 16 209q0 184 -60.5 276t-187.5 92q-97 0 -170.5 -62.5t-110 -160.5t-36.5 -213q0 -148 62 -224.5t177 -76.5z" />
    <glyph glyph-name="colon" unicode=":" horiz-adv-x="450" 
d="M281 618q-38 0 -62 26t-24 63q0 41 30.5 72.5t71.5 31.5q38 0 62 -26t24 -64q0 -41 -30.5 -72t-71.5 -31zM127 -4q-37 0 -61.5 25.5t-24.5 62.5q0 41 30.5 72.5t71.5 31.5q38 0 63 -26.5t25 -63.5q0 -41 -31.5 -71.5t-72.5 -30.5z" />
    <glyph glyph-name="semicolon" unicode=";" horiz-adv-x="460" 
d="M272 618q-36 0 -61 26t-25 63q0 41 31.5 72.5t71.5 31.5q38 0 63 -26.5t25 -63.5q0 -41 -31 -72t-74 -31zM-55 -236l-4 9q100 72 137 139t18 145l-18 86q42 45 88 45q32 0 52 -22.5t20 -59.5q0 -82 -84.5 -181.5t-208.5 -160.5z" />
    <glyph glyph-name="less" unicode="&#x3c;" horiz-adv-x="1228" 
d="M270 623l660 -324l-10 -29l-687 338l9 35l860 340l-12 -39z" />
    <glyph glyph-name="equal" unicode="=" horiz-adv-x="1228" 
d="M1094 836h-783l8 28h781zM993 426h-782l8 29h780z" />
    <glyph glyph-name="greater" unicode="&#x3e;" horiz-adv-x="1228" 
d="M1040 627l-661 323l10 29l686 -338l-8 -35l-858 -340l12 39z" />
    <glyph glyph-name="question" unicode="?" horiz-adv-x="864" 
d="M963 1141q0 -298 -443 -465l-141 -336h-17l23 305q106 42 185.5 89t144 109t98 142.5t33.5 177.5q0 120 -57 183t-164 63q-109 0 -209 -59l-199 -342h-12q50 212 90 340q146 92 336 92q153 0 242.5 -81t89.5 -218zM334 176q37 0 61.5 -26t24.5 -62q0 -42 -31 -73t-74 -31
q-36 0 -60 25.5t-24 62.5q0 42 30.5 73t72.5 31z" />
    <glyph glyph-name="at" unicode="@" horiz-adv-x="1433" 
d="M856 1126q227 0 368.5 -130t141.5 -343q0 -133 -49.5 -249t-137.5 -186.5t-192 -70.5q-140 0 -182 93q-89 -105 -207 -105q-89 0 -143 62.5t-54 177.5q0 100 35 184t92 137.5t127.5 83t143.5 29.5q114 0 192 -61l74 61h6l-135 -461q-54 -170 65 -170q80 0 144.5 74
t98.5 186.5t34 235.5q0 198 -111.5 309t-318.5 111q-138 0 -260 -54t-212.5 -152t-143 -243.5t-52.5 -318.5q0 -226 118 -347.5t325 -121.5q170 0 305 75l6 -28q-136 -78 -318 -78q-233 0 -379.5 137.5t-146.5 382.5q0 142 43.5 268t118 218.5t172 159.5t208.5 100.5
t224 33.5zM805 279l131 452q-39 51 -131 51q-114 0 -201.5 -114.5t-87.5 -292.5q0 -191 125 -191q84 0 164 95z" />
    <glyph glyph-name="A" unicode="A" horiz-adv-x="1226" 
d="M825 1323h33l131 -1272q75 -15 139 -41v-10h-411v10q95 29 160 41l-37 369h-533l-221 -361q101 -33 141 -49v-10h-342v10q99 34 164 49zM836 451l-72 716l-438 -716h510z" />
    <glyph glyph-name="B" unicode="B" horiz-adv-x="1103" 
d="M705 692q129 -15 207.5 -93.5t78.5 -203.5q0 -184 -148 -289.5t-417 -105.5h-473v10q28 8 84 22t74 19l305 1204q-85 21 -137 41v11h471q153 0 240 -67t87 -187q0 -129 -94.5 -220t-277.5 -141zM733 1276h-201l-145 -580h254h6q316 121 316 365q0 105 -58.5 160
t-171.5 55zM430 31q222 0 332 96t110 266q0 128 -71 200.5t-193 72.5h-229l-156 -613q49 -22 207 -22z" />
    <glyph glyph-name="C" unicode="C" horiz-adv-x="1146" 
d="M860 1327q200 0 354 -90q-27 -176 -61 -313h-12l-62 301q-33 31 -96 51t-133 20q-105 0 -200 -45t-167 -123.5t-125 -181.5t-80.5 -223.5t-27.5 -245.5q0 -229 93 -348t245 -119q127 0 239 70l205 301h10q-44 -178 -88 -295q-180 -106 -370 -106q-206 0 -329.5 139
t-123.5 387q0 171 58.5 324t157 261.5t232.5 172t281 63.5z" />
    <glyph glyph-name="D" unicode="D" horiz-adv-x="1306" 
d="M426 0h-475v10q65 18 160 41l305 1204q-93 24 -137 41v11h460q113 0 208 -33.5t168 -98t114 -169.5t41 -240q0 -174 -68 -319.5t-183.5 -242.5t-268.5 -150.5t-324 -53.5zM422 31q168 0 306 58t229 160t140.5 240t49.5 299q0 235 -107 361.5t-311 126.5h-197l-307 -1221
q81 -24 197 -24z" />
    <glyph glyph-name="E" unicode="E" horiz-adv-x="1093" 
d="M858 0h-907v10q98 26 160 41l305 1204q-98 26 -137 41v11h878q-30 -181 -76 -387h-12l-55 356h-482l-149 -594h319q61 115 117 201h12l-116 -441h-10q-11 121 -11 209h-319l-152 -600l82 -20h426l242 370h12q-53 -195 -127 -401z" />
    <glyph glyph-name="F" unicode="F" horiz-adv-x="991" 
d="M387 0h-436l2 10q80 22 158 41l305 1204q-83 22 -140 41l3 11h856q-39 -201 -80 -387h-11l-51 356h-461l-155 -617h313q61 119 119 205h12l-116 -440h-13q-8 125 -10 205h-313l-146 -578q116 -27 166 -41z" />
    <glyph glyph-name="G" unicode="G" horiz-adv-x="1232" 
d="M809 571v11h408v-11q-81 -28 -123 -39l-144 -552h-10l-27 86q-153 -86 -323 -86q-215 0 -337 140t-122 386q0 169 59 322t158.5 262t235 173t282.5 64q231 0 367 -90q-19 -123 -62 -313h-12l-59 297q-75 75 -242 75q-131 0 -246 -70t-193.5 -184.5t-123.5 -262.5
t-45 -304q0 -223 91 -344t259 -121q81 0 153 25.5t119 64.5l113 432q-122 22 -176 39z" />
    <glyph glyph-name="H" unicode="H" horiz-adv-x="1337" 
d="M362 0h-411v10q22 6 52 14t63 16t45 11l305 1204q-104 28 -137 41v11h411v-11q-23 -7 -54 -15t-63.5 -15.5t-44.5 -10.5l-147 -585h684l147 585q-119 34 -137 41v11h410v-11q-24 -7 -53.5 -14.5t-62.5 -15.5t-44 -11l-305 -1204q88 -25 139 -41v-10h-411v10q13 3 159 41
l148 588h-682l-150 -588q8 -2 61 -17.5t78 -23.5v-10z" />
    <glyph glyph-name="I" unicode="I" horiz-adv-x="542" 
d="M362 0h-411v10q22 6 52 14t63 16t45 11l305 1204q-72 15 -137 41v11h411v-11q-70 -21 -162 -41l-305 -1204q8 -2 61 -17.5t78 -23.5v-10z" />
    <glyph glyph-name="J" unicode="J" horiz-adv-x="833" 
d="M188 -20q-151 0 -231 71q24 135 76 330h8l45 -338q35 -35 113 -35q104 2 182 86t117 244l229 917q-85 19 -137 41v11h411v-11q-59 -19 -161 -41l-224 -888q-48 -188 -162 -287.5t-266 -99.5z" />
    <glyph glyph-name="K" unicode="K" horiz-adv-x="1218" 
d="M362 0h-411v10q98 26 160 41l305 1204q-86 22 -137 41v11h411v-11q-55 -15 -162 -41l-147 -579h219l557 571q-45 12 -125 49v11h340v-11q-94 -33 -170 -49l-518 -530l295 -666q39 -8 145 -41v-10h-407v10q89 24 145 35l-268 600h-221l-150 -594l139 -41v-10z" />
    <glyph glyph-name="L" unicode="L" horiz-adv-x="1005" 
d="M827 0h-876v10q98 26 160 41l305 1204q-93 24 -137 41v11h411v-11q-48 -14 -162 -41l-305 -1204l82 -20h393l242 399h14q-72 -261 -127 -430z" />
    <glyph glyph-name="M" unicode="M" horiz-adv-x="1622" 
d="M745 182l713 1116h252v-10q-104 -25 -172 -39l-8 -4l-170 -1194q70 -18 135 -41v-10h-414v10q71 21 164 41l160 1100h-4l-721 -1126h-25l-159 1136h-2l-383 -1102q63 -14 155 -49v-10h-358v10q114 36 168 49l407 1168l-2 14q-107 30 -159 47v10h270z" />
    <glyph glyph-name="N" unicode="N" horiz-adv-x="1275" 
d="M1100 1296v11h338v-11l-168 -49l-316 -1247h-32l-494 1176l-283 -1117q1 0 144 -49v-10h-340v10q23 7 82.5 24t83.5 25l291 1158l-115 79v11h203l473 -1137l272 1077q-9 3 -62 21.5t-77 27.5z" />
    <glyph glyph-name="O" unicode="O" horiz-adv-x="1349" 
d="M592 -20q-220 0 -341.5 140t-121.5 380q0 163 57.5 315t154 264.5t231.5 180t282 67.5q220 0 341.5 -142.5t121.5 -383.5q0 -220 -97 -409t-264 -300.5t-364 -111.5zM602 10q105 0 200 46.5t166.5 126.5t124.5 184t80 223t27 239q0 215 -89 341t-265 126q-105 0 -200 -47
t-166.5 -128t-124.5 -186.5t-80 -225t-27 -240.5q0 -216 89.5 -337.5t264.5 -121.5z" />
    <glyph glyph-name="P" unicode="P" horiz-adv-x="1056" 
d="M379 0h-428v10q32 9 89.5 23t70.5 18l305 1204q-73 17 -137 41v11h469q173 0 279 -84.5t106 -241.5q0 -191 -155.5 -305.5t-393.5 -114.5h-232l-129 -510q92 -22 156 -41v-10zM532 1276l-172 -684h234q197 0 307.5 110t110.5 285q0 143 -72.5 215t-200.5 74h-207z" />
    <glyph glyph-name="Q" unicode="Q" horiz-adv-x="1349" 
d="M641 -18q91 -100 196 -163t242 -100l-2 -4l-121 -77q-121 62 -205 142.5t-151 199.5h-8q-220 0 -341.5 140t-121.5 380q0 163 57.5 315t154 264.5t231.5 180t282 67.5q220 0 341.5 -142.5t121.5 -383.5q0 -211 -89.5 -394t-245 -297t-341.5 -128zM248 469
q0 -216 89.5 -337.5t264.5 -121.5q105 0 200 46.5t166.5 126.5t124.5 184t80 223t27 239q0 215 -89 341t-265 126q-105 0 -200 -47t-166.5 -128t-124.5 -186.5t-80 -225t-27 -240.5z" />
    <glyph glyph-name="R" unicode="R" horiz-adv-x="1101" 
d="M719 604l182 -553q87 -24 131 -41l-2 -10h-389l2 10q20 5 47.5 12.5t48.5 13t41 9.5l-178 565h-237l-142 -559q17 -5 67.5 -18.5t78.5 -22.5l-2 -10h-418l2 10q32 9 89.5 23t70.5 18l305 1204q-76 19 -142 41l2 11h467q156 0 246 -76.5t90 -208.5q0 -76 -32.5 -140.5
t-92 -112.5t-134 -82.5t-167.5 -59.5v-4q27 -5 66 -19zM729 1276h-197l-159 -633h248q340 123 340 377q0 122 -57.5 189t-174.5 67z" />
    <glyph glyph-name="S" unicode="S" horiz-adv-x="980" 
d="M367 -20q-216 0 -338 81q19 126 65 330h12l58 -323q67 -58 219 -58q161 0 261.5 76.5t100.5 206.5q0 70 -26.5 128.5t-69.5 101t-94.5 81.5t-103.5 78.5t-95 82.5t-69.5 102.5t-26.5 129.5q0 151 118 240.5t310 89.5q214 0 330 -90q-19 -114 -62 -317h-10l-61 315
q-79 61 -201 61q-143 0 -233.5 -68.5t-90.5 -187.5q0 -64 27 -119t69.5 -95.5t94.5 -78.5t104 -78.5t94.5 -85t69.5 -108t27 -139.5q0 -115 -65 -197t-171.5 -120.5t-242.5 -38.5z" />
    <glyph glyph-name="T" unicode="T" horiz-adv-x="1099" 
d="M281 1307h968q-49 -252 -80 -383h-12l-51 352h-295l-307 -1225q80 -18 158 -41l-3 -10h-446l2 10q101 26 176 41l307 1225h-292l-232 -352h-12q51 185 119 383z" />
    <glyph glyph-name="U" unicode="U" horiz-adv-x="1263" 
d="M1092 1296v11h342v-11q-162 -47 -168 -49l-209 -829q-52 -204 -178.5 -321t-331.5 -117q-108 0 -189.5 34t-124.5 94t-57 140.5t12 173.5l209 833q-58 13 -137 41v11h414v-11q-99 -28 -164 -41l-211 -841q-47 -178 24 -288t248 -110q170 0 286.5 106.5t164.5 295.5
l213 829q-139 48 -143 49z" />
    <glyph glyph-name="V" unicode="V" horiz-adv-x="1218" 
d="M1090 1296v11h342v-11q-73 -25 -168 -49l-772 -1257h-29l-125 1263q-85 21 -139 43v11h411v-11q-87 -25 -159 -43l108 -1099l668 1093q-59 18 -137 49z" />
    <glyph glyph-name="W" unicode="W" horiz-adv-x="1722" 
d="M1591 1296v11h342v-11q-43 -15 -161 -49l-687 -1257h-30l-68 981l-543 -981h-28l-103 1263q-83 25 -123 43v11h408v-11q-61 -17 -170 -43l82 -1089l473 862l-16 229q-80 21 -123 41v11h403v-11q-94 -26 -166 -41l70 -1087l586 1079q-61 18 -146 49z" />
    <glyph glyph-name="X" unicode="X" horiz-adv-x="1206" 
d="M1018 1296v11h346v-11l-172 -49l-481 -540l260 -658q18 -5 63.5 -18.5t69.5 -20.5v-10h-406v10q29 9 84 21.5t72 17.5l-231 582l-519 -572q12 -4 138 -49v-10h-346v10l167 49l547 603l-239 598q-120 34 -125 36v11h401v-11q-32 -9 -85 -22t-68 -17l204 -520l453 510
q-16 6 -62.5 22.5t-70.5 26.5z" />
    <glyph glyph-name="Y" unicode="Y" horiz-adv-x="1181" 
d="M690 0h-448l2 10q95 23 178 41l119 471l-205 735q-76 19 -125 39v11h401v-11q-46 -17 -159 -43l194 -696l535 692q-75 19 -150 47v11h350v-11q-113 -37 -161 -47l-568 -731l-118 -467l157 -41z" />
    <glyph glyph-name="Z" unicode="Z" horiz-adv-x="1054" 
d="M330 1307h823v-21l-1044 -1255h608l241 399h13q-61 -223 -129 -430h-871v20l1043 1256h-561l-226 -352h-12q38 148 115 383z" />
    <glyph glyph-name="bracketleft" unicode="[" horiz-adv-x="520" 
d="M293 -266h-287l414 1661h289l-7 -23h-180l-405 -1616h180z" />
    <glyph glyph-name="backslash" unicode="\" horiz-adv-x="763" 
d="M602 0h-33l-311 1307h33z" />
    <glyph glyph-name="bracketright" unicode="]" horiz-adv-x="522" 
d="M156 -266h-287l4 22h182l404 1616h-180l4 23h288z" />
    <glyph glyph-name="asciicircum" unicode="^" horiz-adv-x="1228" 
d="M760 1307h139l59 -514h-10l-143 389l-350 -389h-11z" />
    <glyph glyph-name="underscore" unicode="_" horiz-adv-x="749" 
d="M578 -233h-750l6 28h750z" />
    <glyph glyph-name="grave" unicode="`" horiz-adv-x="632" 
d="M375 1073h-8l-193 350l2 7h150z" />
    <glyph glyph-name="a" unicode="a" horiz-adv-x="972" 
d="M672 49l262 209l8 -6q-19 -37 -81.5 -102t-130.5 -117.5t-97 -52.5q-35 0 -55 20.5t-11 50.5l78 316q-98 -182 -209 -284.5t-205 -102.5q-80 0 -126 69t-46 203q0 135 44.5 262t117 219.5t170 148.5t199.5 56q109 0 178 -78l8 31l119 37zM291 63q75 0 171.5 93.5
t205.5 300.5l82 323q-46 131 -166 131q-84 0 -162 -61.5t-132 -156.5t-86 -210t-32 -223q0 -197 119 -197z" />
    <glyph glyph-name="b" unicode="b" horiz-adv-x="942" 
d="M698 938q90 0 137.5 -71.5t47.5 -204.5q0 -144 -45 -272t-119.5 -217t-173.5 -141t-205 -52q-90 0 -167 33t-122 93l307 1237h-178l2 9q146 65 301 78l-221 -889q108 196 220.5 296.5t215.5 100.5zM342 8q117 0 217 92.5t155.5 240.5t55.5 312q0 102 -31 153.5t-98 51.5
q-86 0 -184 -93t-217 -314l-82 -332q54 -111 184 -111z" />
    <glyph glyph-name="c" unicode="c" horiz-adv-x="823" 
d="M571 938q141 0 228 -90l-64 -250h-10q-3 178 -36.5 243.5t-123.5 65.5q-103 0 -191.5 -84t-139 -219.5t-50.5 -284.5q0 -133 50.5 -202.5t132.5 -69.5q73 0 153 51t203 191l10 -8q-103 -168 -198.5 -234.5t-202.5 -66.5q-113 0 -186.5 92t-73.5 252q0 125 41.5 239.5
t110 196t160 130t187.5 48.5z" />
    <glyph glyph-name="d" unicode="d" horiz-adv-x="978" 
d="M1020 1430l-342 -1381l264 209l8 -6q-32 -60 -149 -166t-162 -106q-34 0 -53.5 20.5t-12.5 50.5l78 314q-100 -182 -211.5 -283.5t-206.5 -101.5q-81 0 -127.5 69t-46.5 205q0 135 44.5 262t117 219t170.5 147.5t201 55.5q112 0 182 -82l121 487h-178l2 9q146 65 301 78z
M293 63q76 0 174 93.5t207 300.5l82 325q-24 66 -68 97.5t-100 31.5q-112 0 -210.5 -103.5t-152 -252.5t-53.5 -293q0 -199 121 -199z" />
    <glyph glyph-name="e" unicode="e" horiz-adv-x="825" 
d="M356 47q75 0 158.5 52t206.5 186l10 -6q-102 -163 -199.5 -231t-201.5 -68q-120 0 -190 86t-70 245q0 127 44 244t115.5 200.5t165.5 133t191 49.5q93 0 149 -47t56 -121q0 -127 -159 -223.5t-446 -138.5q-4 -58 -4 -86q0 -143 48 -209t126 -66zM573 909q-89 0 -171 -66
t-137 -174t-75 -233q133 23 233.5 62.5t157 87.5t84 97.5t27.5 100.5q0 59 -30 92t-89 33z" />
    <glyph glyph-name="f" unicode="f" horiz-adv-x="512" 
d="M668 1450q107 0 174 -41l-66 -266h-12q1 115 -10.5 175.5t-34.5 81.5t-66 21q-76 -2 -135.5 -63.5t-83.5 -173.5l-59 -266h233l-8 -29h-231l-193 -881l-108 -22l198 903h-135l2 10l141 27l48 217q31 137 127.5 222t218.5 85z" />
    <glyph glyph-name="g" unicode="g" horiz-adv-x="829" 
d="M920 983l-25 -94h-233q79 -67 79 -201q0 -155 -107.5 -266t-260.5 -111q-46 0 -90 13q-64 -17 -95.5 -45t-31.5 -62q0 -30 19 -50.5t77 -39.5l207 -61q194 -59 194 -209q0 -117 -127 -203t-323 -86q-163 0 -253.5 53.5t-90.5 153.5q0 90 88.5 164t232.5 108
q-51 19 -76.5 55t-25.5 78q0 107 166 160q-123 62 -123 227q0 155 108.5 266t262.5 111q82 0 141 -35q138 51 287 74zM373 342q108 0 186 107t78 274q0 190 -145 190q-109 0 -187 -105.5t-78 -272.5q0 -98 35.5 -145.5t110.5 -47.5zM406 -18l-179 51q-121 -24 -196.5 -95.5
t-75.5 -156.5q0 -84 65.5 -133t188.5 -49q160 0 253 66.5t93 150.5q0 62 -32.5 101.5t-116.5 64.5z" />
    <glyph glyph-name="h" unicode="h" horiz-adv-x="1001" 
d="M858 709l-162 -660l265 207l8 -8q-34 -59 -150.5 -163.5t-159.5 -104.5q-35 0 -54.5 20.5t-10.5 50.5l164 662q19 71 -1.5 109t-74.5 38q-213 0 -436 -411l-111 -441l-106 -22l336 1357h-179l2 9q138 63 299 78l-221 -889q109 184 232 290.5t237 106.5q82 0 116 -59.5
t7 -169.5z" />
    <glyph glyph-name="i" unicode="i" horiz-adv-x="528" 
d="M438 1151q-35 0 -56.5 23t-21.5 57q0 37 27 63.5t64 26.5q35 0 57 -23t22 -57q0 -37 -27 -63.5t-65 -26.5zM172 -20q-29 2 -48 23.5t-11 53.5l196 781l-254 -158l-6 10q142 156 295 238q41 -3 58.5 -31.5t7.5 -75.5l-195 -768l262 213l8 -8q-56 -84 -146 -168t-167 -110z
" />
    <glyph glyph-name="j" unicode="j" horiz-adv-x="468" 
d="M449 1321q35 0 57 -23t22 -57q0 -37 -27 -63.5t-65 -26.5q-35 0 -56.5 23t-21.5 57q0 37 27 63.5t64 26.5zM344 928q41 -3 58.5 -31.5t7.5 -75.5l-187 -821q-45 -205 -160 -307.5t-264 -102.5v13q108 13 194 112.5t126 278.5l188 844l-252 -158l-6 10q142 156 295 238z
" />
    <glyph glyph-name="k" unicode="k" horiz-adv-x="905" 
d="M487 1430l-352 -1422l-108 -22l335 1357h-178l2 9q135 62 301 78zM348 541l260 -490l240 205l6 -8q-30 -58 -139 -163t-148 -105q-14 0 -23 2.5t-18.5 14t-13 17.5t-16.5 31l-224 436q90 146 246 286t281 171l78 -137l-7 -6q-24 24 -48 33.5t-60 9.5q-87 0 -204.5 -88
t-209.5 -209z" />
    <glyph glyph-name="l" unicode="l" horiz-adv-x="483" 
d="M498 1430l-23 -87l-309 -1294l307 221l6 -8q-55 -77 -180.5 -179.5t-173.5 -102.5q-31 0 -51 20.5t-11 50.5l312 1292h-180l2 9q141 63 301 78z" />
    <glyph glyph-name="m" unicode="m" horiz-adv-x="1550" 
d="M1401 682l-156 -633l266 209l7 -6q-31 -59 -149 -165.5t-161 -106.5q-34 0 -54 20.5t-13 50.5l159 637q43 172 -65 172q-183 0 -404 -399l-114 -453l-109 -22l176 702q43 172 -63 172q-185 0 -406 -401l-114 -451l-109 -22l211 852l-252 -158l-6 10q134 149 295 238
q41 -3 58.5 -31.5t7.5 -75.5l-68 -268q105 179 218.5 282t217.5 103q81 0 111.5 -61t-0.5 -195l-33 -131q106 180 220 283.5t218 103.5q80 0 111 -63t0 -193z" />
    <glyph glyph-name="n" unicode="n" horiz-adv-x="1064" 
d="M922 709l-162 -660l266 207l6 -8q-32 -58 -148 -163t-159 -105q-36 0 -55.5 20.5t-12.5 50.5l166 662q19 71 -1.5 109t-73.5 38q-212 0 -433 -401l-114 -451l-109 -22l211 852l-252 -158l-6 10q140 153 295 238q41 -3 58.5 -31.5t7.5 -75.5l-68 -270q105 178 227 282.5
t234 104.5q83 0 116.5 -59t6.5 -170z" />
    <glyph glyph-name="o" unicode="o" horiz-adv-x="948" 
d="M393 -20q-147 0 -230 102.5t-83 277.5q0 115 38 222t102 185t152.5 124.5t184.5 46.5q147 0 230 -103.5t83 -277.5q0 -154 -64 -287t-174 -211.5t-239 -78.5zM397 10q101 0 185.5 86t131 220t46.5 280q0 145 -53 228t-152 83q-102 0 -187 -85.5t-131.5 -219t-46.5 -278.5
q0 -148 53.5 -231t153.5 -83z" />
    <glyph glyph-name="p" unicode="p" horiz-adv-x="1013" 
d="M412 -20q-121 0 -201 71l-102 -413q149 -26 190 -37v-11h-440v11q39 11 145 37l301 1200l-254 -158l-6 10q140 153 295 238q41 -3 58 -31.5t5 -75.5l-69 -280q108 196 220.5 296.5t215.5 100.5q90 0 137 -71.5t47 -204.5q0 -144 -45 -272t-119 -217t-173 -141t-205 -52z
M713 858q-184 0 -402 -409l-84 -330q54 -111 187 -111q118 0 218 92.5t155 240t55 312.5q0 103 -30 154t-99 51z" />
    <glyph glyph-name="q" unicode="q" horiz-adv-x="950" 
d="M803 891l117 37l-314 -1290q62 -14 129 -37v-11h-440v11q42 10 207 37l176 731q-98 -182 -214 -285.5t-214 -103.5q-88 0 -139.5 71t-51.5 209q0 180 75 337t200 249t266 92q119 0 195 -82zM301 63q84 0 188 95t211 305l76 317q-26 67 -74 99t-106 32q-88 0 -168.5 -60.5
t-135.5 -154.5t-87.5 -207.5t-32.5 -220.5q0 -205 129 -205z" />
    <glyph glyph-name="r" unicode="r" horiz-adv-x="749" 
d="M707 938q55 0 98 -31l-86 -325h-12q15 155 1.5 214.5t-61.5 59.5q-75 0 -161 -94.5t-179 -304.5l-112 -449l-109 -22l213 852l-248 -158l-4 10q139 156 289 238q40 -3 57.5 -31.5t5.5 -73.5l-63 -256q80 175 175.5 273t195.5 98z" />
    <glyph glyph-name="s" unicode="s" horiz-adv-x="741" 
d="M477 938q74 0 134.5 -19.5t90.5 -50.5l-55 -250h-12q-1 164 -46 228.5t-128 64.5q-93 0 -151 -48t-58 -126q1 -56 37.5 -107t88 -92t103 -82.5t88 -97.5t37.5 -120q0 -118 -100 -188t-240 -70q-172 0 -254 71l56 252h12q1 -166 50.5 -231.5t150.5 -65.5t164 52t63 139
q0 46 -19.5 87t-50.5 73t-68.5 62l-75 60t-68.5 61t-50.5 71t-19.5 83q-2 105 86.5 174.5t234.5 69.5z" />
    <glyph glyph-name="t" unicode="t" horiz-adv-x="575" 
d="M145 -20q-35 0 -53.5 20t-11.5 51l207 838h-127v10l143 31q15 25 67 117.5t83 140.5h10l-68 -270h275l-8 -29h-275l-205 -840l312 221l6 -6q-34 -58 -172.5 -171t-182.5 -113z" />
    <glyph glyph-name="u" unicode="u" horiz-adv-x="1046" 
d="M956 928l-219 -879l267 209l6 -6q-31 -59 -149 -165.5t-161 -106.5q-36 0 -55 20t-12 51l80 314q-105 -177 -225.5 -281t-223.5 -104q-81 0 -112.5 63.5t0.5 192.5l149 602l-254 -158l-4 10q142 156 295 238q41 -3 58.5 -31.5t6.5 -75.5l-151 -594q-46 -170 67 -170
q87 0 194.5 99t221.5 305l113 444z" />
    <glyph glyph-name="v" unicode="v" horiz-adv-x="892" 
d="M385 -14h-25l-122 843l-207 -149l-4 10q111 149 254 238q31 -3 45.5 -21t19.5 -53l96 -764q158 176 260.5 352.5t102.5 313.5q0 118 -84 155l4 9l137 -23q12 -38 12 -86q0 -91 -45 -203t-120.5 -224t-155 -209t-168.5 -189z" />
    <glyph glyph-name="w" unicode="w" horiz-adv-x="1347" 
d="M369 -14h-25l-102 839l-209 -145l-4 10q107 143 254 238q31 -3 45.5 -21t19.5 -53l78 -764q209 228 332 473l-49 332l108 23l98 -826q146 164 243 339t97 298q0 137 -81 182l2 9l137 -23q12 -38 12 -86q0 -92 -42 -204t-112.5 -222.5t-148 -209.5t-162.5 -189h-26
l-70 526q-86 -162 -182.5 -285t-212.5 -241z" />
    <glyph glyph-name="x" unicode="x" horiz-adv-x="966" 
d="M901 932l60 -148l-7 -6q-37 47 -96 47q-67 0 -159.5 -91t-182.5 -228l158 -455l227 205l4 -8q-33 -59 -135.5 -163.5t-134.5 -104.5q-48 0 -66 47l-129 372q-48 -77 -91.5 -138.5t-96.5 -123t-109 -102.5t-110 -55l-56 147l11 6q33 -47 86 -47q131 0 356 342l-141 410
l-180 -158l-5 10q90 144 220 238q25 -1 40.5 -17t28.5 -49l113 -327q214 348 395 397z" />
    <glyph glyph-name="y" unicode="y" horiz-adv-x="899" 
d="M725 920l139 -23q13 -41 13 -86q0 -130 -99.5 -327t-243.5 -379.5t-316.5 -329.5t-307.5 -185l-55 97q245 29 514 286l-129 852l-207 -145l-6 10q114 148 256 238q54 -5 63 -74l109 -793q163 187 256.5 372t93.5 312q0 128 -82 166z" />
    <glyph glyph-name="z" unicode="z" horiz-adv-x="843" 
d="M213 918h618l-4 -19l-712 -870l438 2l188 235h11q-16 -52 -49 -143t-44 -123h-675l6 18l706 871l-379 -2l-188 -236h-10q39 123 94 267z" />
    <glyph glyph-name="braceleft" unicode="{" horiz-adv-x="534" 
d="M311 -258l-2 -14l-39 4q-126 14 -177.5 106t-0.5 238l84 237q74 209 -100 234l6 26q86 12 144 67t73 146l37 252q22 149 115 241.5t231 106.5l39 5v-15l-29 -6q-195 -39 -229 -272l-39 -248q-18 -115 -91.5 -191t-180.5 -100q96 -30 128 -106.5t-4 -180.5l-83 -239
q-37 -126 -10.5 -195t104.5 -90z" />
    <glyph glyph-name="bar" unicode="|" horiz-adv-x="401" 
d="M27 -307h-31l432 1737h31z" />
    <glyph glyph-name="braceright" unicode="}" horiz-adv-x="532" 
d="M-96 -268l-39 -4v14l29 6q192 38 229 275l39 245q18 115 92.5 192.5t179.5 98.5q-96 32 -128.5 107.5t3.5 179.5l84 241q28 82 21.5 141t-36 93.5t-79.5 48.5l-25 6l2 15l39 -5q126 -14 178 -105.5t1 -236.5l-84 -239q-73 -206 100 -234l-6 -26q-86 -11 -144 -66
t-73 -147l-37 -252q-23 -149 -115.5 -241t-230.5 -107z" />
    <glyph glyph-name="asciitilde" unicode="~" horiz-adv-x="1228" 
d="M276 575h-20q22 61 91.5 97.5t148.5 36.5q48 0 95 -15t80 -33.5t81 -33.5t96 -15q67 0 121 25.5t75 75.5h23q-23 -64 -90.5 -98.5t-145.5 -34.5q-61 0 -119.5 24t-115.5 48t-115 24q-68 0 -127 -27t-78 -74z" />
    <glyph glyph-name="uni00A0" unicode="&#xa0;" horiz-adv-x="462" 
 />
    <glyph glyph-name="exclamdown" unicode="&#xa1;" horiz-adv-x="428" 
d="M299 745q-38 0 -63 26t-25 65q0 40 31 71t73 31q37 0 61.5 -25.5t24.5 -62.5q0 -42 -31 -73.5t-71 -31.5zM74 -410h-144l306 992h18z" />
    <glyph glyph-name="cent" unicode="&#xa2;" horiz-adv-x="847" 
d="M623 1100q-103 0 -191 -81t-138 -213t-50 -278q0 -133 50.5 -201.5t133.5 -68.5q73 0 152.5 49.5t201.5 186.5l11 -7q-97 -159 -189 -225.5t-194 -71.5l-54 -213h-28l53 213q-110 6 -180 96t-70 244q0 121 41 231.5t108 190t157.5 127.5t185.5 49l53 215h29l-54 -215
q124 -9 205 -86l-63 -245h-11q-3 175 -36 239t-123 64z" />
    <glyph glyph-name="sterling" unicode="&#xa3;" horiz-adv-x="1062" 
d="M782 1327q184 0 318 -78q-17 -129 -58 -323h-10l-78 319q-85 51 -180 51q-161 0 -261.5 -117.5t-100.5 -334.5q0 -29 2 -92t2 -97v-20h389l-10 -29h-381q-7 -178 -82.5 -299t-225.5 -201h680l140 244h10q-50 -218 -100 -350h-834l18 72q100 72 156.5 137.5t88.5 161.5
t32 229v6h-195l9 29h186q0 29 -1 84.5t-1 87.5q0 121 38.5 220.5t105 164.5t155 100t188.5 35z" />
    <glyph glyph-name="currency" unicode="&#xa4;" horiz-adv-x="1077" 
d="M840 410l131 -131l-21 -19l-129 131q-95 -92 -235 -92q-143 0 -236 90l-123 -123l-20 21l123 123q-82 95 -82 225q0 138 90 235l-137 142l18 18l141 -139q93 80 226 80q127 0 223 -80l135 133l21 -20l-134 -136q91 -94 91 -233q0 -130 -82 -225zM586 342
q124 2 208.5 85.5t84.5 207.5q0 127 -84.5 211t-208.5 84q-125 0 -209 -84t-84 -211q0 -125 84.5 -209.5t208.5 -83.5z" />
    <glyph glyph-name="yen" unicode="&#xa5;" horiz-adv-x="1255" 
d="M1067 1296v11h350v-11q-125 -39 -162 -47l-567 -731l-2 -8h236l-7 -29h-237l-51 -200h237l-6 -31h-237l-52 -199l158 -41l-2 -10h-449l3 10q95 23 178 41l49 199h-236l6 31h238l51 200h-237l6 29h237l4 12l-204 735q-74 20 -125 39v11h401v-11q-45 -16 -160 -43l193 -696
l537 692q-75 19 -150 47z" />
    <glyph glyph-name="brokenbar" unicode="&#xa6;" horiz-adv-x="401" 
d="M295 768h-31l164 662h31zM27 -307h-31l164 661h30z" />
    <glyph glyph-name="section" unicode="&#xa7;" horiz-adv-x="821" 
d="M616 1327q75 0 137 -19t93 -51l-58 -249h-12q-1 158 -44 225t-132 67q-92 0 -149 -47.5t-56 -126.5q0 -43 20 -83t51 -71.5t68.5 -63t74.5 -65t68 -69t51 -83t20 -101.5q1 -125 -84.5 -202t-225.5 -89q48 -42 75.5 -71t51 -76.5t23.5 -98.5q1 -119 -97 -188.5t-239 -69.5
q-172 0 -258 72l57 252h12q1 -162 48 -229.5t155 -67.5q101 0 162 51t61 141q0 48 -19.5 90t-50 74.5t-68 63.5t-75 62.5t-68.5 65t-51 79t-20 96.5q0 124 87 199.5t247 84.5q-40 35 -52.5 46t-43.5 42.5t-42.5 51.5t-23 51.5t-12.5 64.5q0 105 87.5 173.5t231.5 68.5z
M649 551q0 79 -38 135.5t-109 118.5q-128 -3 -198 -61t-68 -158q0 -36 11 -69t24 -55.5t42.5 -52t45 -43t53.5 -44.5q110 5 173.5 65.5t63.5 163.5z" />
    <glyph glyph-name="dieresis" unicode="&#xa8;" horiz-adv-x="808" 
d="M248 1174q-33 0 -53.5 21.5t-20.5 53.5q0 35 25 60.5t59 25.5q35 0 56.5 -21t21.5 -52q0 -37 -25.5 -62.5t-62.5 -25.5zM553 1174q-33 0 -54.5 22t-21.5 53q0 35 26 60.5t60 25.5q33 0 54.5 -21t21.5 -52q0 -37 -24.5 -62.5t-61.5 -25.5z" />
    <glyph glyph-name="copyright" unicode="&#xa9;" horiz-adv-x="1503" 
d="M907 1327q245 0 398 -154t153 -413q0 -170 -61.5 -317t-165.5 -248t-243.5 -158t-293.5 -57q-245 0 -398 154t-153 415q0 170 61.5 317t165.5 247t243.5 157t293.5 57zM700 14q145 0 277 54t231.5 149t158 235t58.5 302q0 249 -144 394.5t-380 145.5q-145 0 -277 -54
t-231.5 -149.5t-158 -235.5t-58.5 -302q0 -249 144 -394t380 -145zM907 1016q-95 0 -174.5 -62.5t-124.5 -165t-45 -219.5q0 -119 53.5 -180t137.5 -61q71 0 145 41.5t182 150.5l13 -6q-167 -250 -371 -250q-119 0 -194.5 78.5t-75.5 216.5q0 99 37.5 189t100 154t147 102
t175.5 38q138 0 224 -73l-52 -207h-12q-9 145 -44.5 199.5t-121.5 54.5z" />
    <glyph glyph-name="ordfeminine" unicode="&#xaa;" horiz-adv-x="739" 
d="M754 834l4 -7q-39 -39 -94 -39q-43 0 -67 23.5t-19 60.5h-3l3 9q-96 -93 -207 -93q-60 0 -95.5 30t-35.5 85q0 91 101 145t294 66l20 80q39 156 -90 156q-40 0 -82 -25l-137 -168h-6q15 80 37 166q91 45 184 45q114 0 161.5 -62t20.5 -167l-65 -271q-3 -43 37 -43
q15 0 39 9zM420 829q83 0 164 78l47 189q-139 -10 -217 -61t-78 -126q0 -38 22.5 -59t61.5 -21z" />
    <glyph glyph-name="guillemotleft" unicode="&#xab;" horiz-adv-x="829" 
d="M494 741l14 -14l-320 -309l170 -289l-14 -12l-278 311zM766 741l14 -14l-321 -309l172 -289l-15 -12l-280 311z" />
    <glyph glyph-name="logicalnot" unicode="&#xac;" horiz-adv-x="1228" 
d="M260 631l6 28h783l-86 -342h-31l80 314h-752z" />
    <glyph glyph-name="uni00AD" unicode="&#xad;" horiz-adv-x="845" 
d="M733 467h-616l6 29h618z" />
    <glyph glyph-name="registered" unicode="&#xae;" horiz-adv-x="991" 
d="M666 1327q157 0 254.5 -93.5t97.5 -254.5q0 -131 -65 -237.5t-172 -164t-232 -57.5q-157 0 -253.5 93t-96.5 255q0 131 64.5 237.5t171 164t231.5 57.5zM553 551q176 0 304 120.5t128 303.5q0 149 -89.5 235t-233.5 86q-115 0 -213.5 -53t-158 -151t-59.5 -220
q0 -149 89 -235t233 -86zM799 1059q0 -57 -47 -91t-119 -48l47 -9l65 -176q5 -3 16.5 -8t19.5 -9t12 -7l-2 -6h-170l2 6l41 20l-60 180h-65l-43 -178q40 -12 55 -22l-2 -6h-195l2 6q27 14 62 22l98 400q-34 15 -47 26v4h193q65 0 101 -27.5t36 -76.5zM545 934h73
q101 37 101 131q0 78 -80 78h-43z" />
    <glyph glyph-name="macron" unicode="&#xaf;" horiz-adv-x="946" 
d="M735 1243h-534l10 35h534z" />
    <glyph glyph-name="degree" unicode="&#xb0;" horiz-adv-x="561" 
d="M446 958q-83 0 -137.5 55.5t-54.5 139.5t54.5 139.5t137.5 55.5t138 -56t55 -139t-55 -139t-138 -56zM446 991q68 0 112 46t44 116t-44 116t-112 46q-69 0 -113 -46t-44 -116t44 -116t113 -46z" />
    <glyph glyph-name="plusminus" unicode="&#xb1;" horiz-adv-x="1228" 
d="M776 1055l-74 -293h379l-8 -29h-377l-73 -293h-33l74 293h-371l6 29h371l73 293h33zM954 252h-782l8 29h781z" />
    <glyph glyph-name="uni00B2" unicode="&#xb2;" horiz-adv-x="610" 
d="M254 879h307l76 125h4q-8 -33 -57 -199h-414l4 41q106 74 177.5 131.5t133 121t91.5 124t30 120.5q0 52 -24.5 78.5t-69.5 26.5q-42 0 -90 -27l-113 -176h-6q16 99 41 182q85 43 170 43q83 0 132.5 -42.5t49.5 -110.5q0 -32 -12.5 -64t-29.5 -59t-52.5 -61t-64.5 -58.5
t-84.5 -63t-92 -63t-106.5 -69.5z" />
    <glyph glyph-name="uni00B3" unicode="&#xb3;" horiz-adv-x="616" 
d="M707 1335q0 -72 -62.5 -117.5t-163.5 -66.5q75 -9 119.5 -54.5t44.5 -111.5q0 -88 -73.5 -141t-186.5 -53q-121 0 -180 40q33 133 53 191h4l31 -184q31 -25 92 -25q71 0 119.5 45.5t48.5 128.5q0 75 -42.5 114t-119.5 36l6 20q96 12 160 67.5t64 129.5q0 44 -25 68
t-68 24q-41 0 -73 -16l-125 -187h-6q21 122 36 184q80 41 172 41q80 0 127.5 -35.5t47.5 -97.5z" />
    <glyph glyph-name="acute" unicode="&#xb4;" horiz-adv-x="636" 
d="M180 1073h-10l199 357h170l-2 -7z" />
    <glyph glyph-name="uni00B5" unicode="&#xb5;" horiz-adv-x="1046" 
d="M737 49l267 209l6 -6q-31 -59 -149 -165.5t-161 -106.5q-36 0 -55 20t-12 51l80 320q-102 -179 -223 -285t-226 -106q-47 0 -78 22l-69 -295l-94 -20l129 549l149 602l-254 -158l-4 10q142 156 295 238q41 -3 58.5 -31.5t6.5 -75.5l-151 -594q-46 -170 67 -170
q88 0 195 98t221 304l113 446l108 23z" />
    <glyph glyph-name="paragraph" unicode="&#xb6;" horiz-adv-x="1054" 
d="M686 1307h512l-4 -11q-76 -24 -164 -43l-313 -1253l-84 -43l328 1319h-130l-342 -1380l-86 -43l168 663h-18q-177 0 -279 89.5t-102 250.5q0 110 42.5 197.5t115 142t163.5 83t193 28.5zM559 547h19l180 729h-56q-185 0 -299 -115t-114 -317q0 -133 69 -215t201 -82z" />
    <glyph glyph-name="periodcentered" unicode="&#xb7;" horiz-adv-x="428" 
d="M250 561q-37 0 -61.5 25.5t-24.5 62.5q0 42 30.5 73.5t71.5 31.5q38 0 63 -26.5t25 -63.5q0 -40 -31 -71.5t-73 -31.5z" />
    <glyph glyph-name="cedilla" unicode="&#xb8;" horiz-adv-x="702" 
d="M317 -440q-112 0 -167 61l8 6q52 -37 121 -37q68 0 111.5 32.5t43.5 86.5q0 87 -117 109v8l97 180h35l-70 -133q153 -35 153 -154q0 -70 -60.5 -114.5t-154.5 -44.5z" />
    <glyph glyph-name="uni00B9" unicode="&#xb9;" horiz-adv-x="405" 
d="M504 1475l-160 -633q42 -14 72 -29v-8h-252v8q24 8 94 29l139 544l-92 17v4q129 48 199 68z" />
    <glyph glyph-name="ordmasculine" unicode="&#xba;" horiz-adv-x="739" 
d="M473 788q-107 0 -169 62.5t-62 171.5q0 141 96 243.5t235 102.5q108 0 170 -62.5t62 -170.5q0 -142 -96 -244.5t-236 -102.5zM473 813q66 0 121.5 50.5t86 130t30.5 165.5q0 88 -35 135t-101 47q-67 0 -123 -50.5t-86 -129.5t-30 -164q0 -89 35.5 -136.5t101.5 -47.5z
" />
    <glyph glyph-name="guillemotright" unicode="&#xbb;" horiz-adv-x="827" 
d="M186 727l15 14l278 -313l-428 -311l-14 14l319 307zM457 727l16 14l279 -313l-428 -311l-15 14l320 307z" />
    <glyph glyph-name="onequarter" unicode="&#xbc;" horiz-adv-x="819" 
d="M621 813v-8h-252v8q24 8 94 29l139 544l-94 17v4q138 50 201 68l-160 -633q35 -11 72 -29zM748 645h-584l8 29h584zM68 47l4 27l444 463h45l-108 -431h88l-13 -59h-92l-41 -172h-86l41 172h-282zM453 438l-318 -332h234z" />
    <glyph glyph-name="onehalf" unicode="&#xbd;" horiz-adv-x="819" 
d="M621 813v-8h-252v8q24 8 94 29l139 544l-94 17v4q138 50 201 68l-160 -633q35 -11 72 -29zM748 645h-584l8 29h584zM582 387q0 -32 -12 -63.5t-29.5 -59t-53 -61.5t-64.5 -58.5t-84 -63t-92 -63t-106 -69.5h305l76 125h4q-17 -71 -55 -199h-416l4 41q106 74 178 132
t133.5 121t91.5 123.5t30 121.5q0 51 -24.5 77.5t-68.5 26.5q-47 0 -90 -26l-114 -177h-7q10 63 41 183q85 43 172 43q81 0 131 -43t50 -111z" />
    <glyph glyph-name="threequarters" unicode="&#xbe;" horiz-adv-x="819" 
d="M633 1468q80 0 127 -35.5t47 -97.5q0 -72 -62 -118t-163 -66q76 -9 119.5 -54t43.5 -112q0 -88 -73.5 -141t-186.5 -53q-118 0 -180 40q26 104 53 191h4l31 -184q31 -25 92 -25q71 0 119.5 45.5t48.5 128.5q0 75 -42 114t-117 36l4 20q96 12 159.5 67.5t63.5 129.5
q0 44 -24 68t-68 24q-42 0 -74 -16l-125 -187h-6q18 105 37 184q80 41 172 41zM756 674l-8 -29h-582l6 29h584zM66 45l4 27l444 465h45l-108 -431h90l-15 -61h-90l-43 -170h-86l43 170h-284zM453 438l-320 -332h236z" />
    <glyph glyph-name="questiondown" unicode="&#xbf;" horiz-adv-x="854" 
d="M537 745q-37 0 -61.5 26.5t-24.5 64.5q0 40 30.5 71t71.5 31q38 0 62 -25.5t24 -62.5q0 -43 -30.5 -74t-71.5 -31zM465 -340l199 342h12q-50 -212 -90 -340q-146 -92 -336 -92q-153 0 -242.5 79.5t-89.5 211.5q0 155 121 263.5t332 168.5l131 315h18l-22 -303
q-117 -42 -197.5 -84.5t-142.5 -97.5t-91.5 -125.5t-29.5 -159.5q0 -114 56.5 -175.5t162.5 -61.5q109 0 209 59z" />
    <glyph glyph-name="Agrave" unicode="&#xc0;" horiz-adv-x="1226" 
d="M946 1444h-10l-240 282v5h193zM825 1323h33l131 -1272q75 -15 139 -41v-10h-411v10q95 29 160 41l-37 369h-533l-221 -361q101 -33 141 -49v-10h-342v10q99 34 164 49zM836 451l-72 716l-438 -716h510z" />
    <glyph glyph-name="Aacute" unicode="&#xc1;" horiz-adv-x="1226" 
d="M811 1444h-10l176 287h203v-5zM825 1323h33l131 -1272q75 -15 139 -41v-10h-411v10q95 29 160 41l-37 369h-533l-221 -361q101 -33 141 -49v-10h-342v10q99 34 164 49zM836 451l-72 716l-438 -716h510z" />
    <glyph glyph-name="Acircumflex" unicode="&#xc2;" horiz-adv-x="1226" 
d="M883 1731h121l145 -287h-10l-205 194l-334 -194h-10zM825 1323h33l131 -1272q75 -15 139 -41v-10h-411v10q95 29 160 41l-37 369h-533l-221 -361q101 -33 141 -49v-10h-342v10q99 34 164 49zM836 451l-72 716l-438 -716h510z" />
    <glyph glyph-name="Atilde" unicode="&#xc3;" horiz-adv-x="1226" 
d="M1018 1485q-40 0 -76.5 17.5t-61 38.5t-61 38.5t-76.5 17.5q-95 0 -149 -96h-6q58 182 194 182q42 0 81 -17.5t63.5 -38.5t60 -38.5t72.5 -17.5q89 0 147 98h6q-58 -184 -194 -184zM825 1323h33l131 -1272q75 -15 139 -41v-10h-411v10q95 29 160 41l-37 369h-533
l-221 -361q101 -33 141 -49v-10h-342v10q99 34 164 49zM836 451l-72 716l-438 -716h510z" />
    <glyph glyph-name="Adieresis" unicode="&#xc4;" horiz-adv-x="1226" 
d="M743 1511q-33 0 -53 19.5t-20 52.5q0 39 28.5 66.5t69.5 27.5q32 0 52 -20t20 -51q0 -38 -28.5 -66.5t-68.5 -28.5zM1049 1511q-32 0 -52 20t-20 52q0 38 28 66t68 28q32 0 52 -20t20 -51q0 -39 -27.5 -67t-68.5 -28zM825 1323h33l131 -1272q75 -15 139 -41v-10h-411v10
q95 29 160 41l-37 369h-533l-221 -361q101 -33 141 -49v-10h-342v10q99 34 164 49zM836 451l-72 716l-438 -716h510z" />
    <glyph glyph-name="Aring" unicode="&#xc5;" horiz-adv-x="1226" 
d="M874 1378q-67 0 -109 44.5t-42 111.5q0 83 60.5 145t144.5 62q68 0 109.5 -42.5t41.5 -109.5q0 -84 -59.5 -147.5t-145.5 -63.5zM877 1419q64 0 110.5 50t46.5 118q0 50 -28.5 81.5t-77.5 31.5q-65 0 -112.5 -49.5t-47.5 -116.5q0 -50 30 -82.5t79 -32.5zM825 1323h33
l131 -1272q75 -15 139 -41v-10h-411v10q95 29 160 41l-37 369h-533l-221 -361q101 -33 141 -49v-10h-342v10q99 34 164 49zM836 451l-72 716l-438 -716h510z" />
    <glyph glyph-name="AE" unicode="&#xc6;" horiz-adv-x="1636" 
d="M209 0h-336v10q104 35 162 49l958 1201q-68 16 -125 36v11h836q-34 -203 -76 -387h-12l-53 356l-408 -2l-149 -594h254q73 134 120 203h11l-117 -441h-10q-7 80 -11 207h-256l-151 -598l78 -20h346l241 370h13q-44 -159 -127 -401h-807v10q105 31 143 41l94 371h-465
l-288 -363q14 -5 135 -49v-10zM1036 1266l-649 -813h447l206 813h-4z" />
    <glyph glyph-name="Ccedilla" unicode="&#xc7;" horiz-adv-x="1146" 
d="M860 1327q200 0 354 -90q-27 -176 -61 -313h-12l-62 301q-33 31 -96 51t-133 20q-105 0 -200 -45t-167 -123.5t-125 -181.5t-80.5 -223.5t-27.5 -245.5q0 -229 93 -348t245 -119q127 0 239 70l205 301h10q-44 -178 -88 -295q-180 -106 -370 -106h-19l-55 -107
q154 -35 154 -154q0 -70 -60.5 -114.5t-154.5 -44.5q-113 0 -168 61l8 6q52 -37 121 -37q68 0 111.5 32.5t43.5 86.5q0 87 -116 109v8l83 156q-185 18 -293 155.5t-108 368.5q0 171 58.5 324t157 261.5t232.5 172t281 63.5z" />
    <glyph glyph-name="Egrave" unicode="&#xc8;" horiz-adv-x="1093" 
d="M883 1444h-11l-239 282v5h192zM858 0h-907v10q98 26 160 41l305 1204q-98 26 -137 41v11h878q-30 -181 -76 -387h-12l-55 356h-482l-149 -594h319q61 115 117 201h12l-116 -441h-10q-11 121 -11 209h-319l-152 -600l82 -20h426l242 370h12q-53 -195 -127 -401z" />
    <glyph glyph-name="Eacute" unicode="&#xc9;" horiz-adv-x="1093" 
d="M750 1444h-11l176 287h203v-5zM858 0h-907v10q98 26 160 41l305 1204q-98 26 -137 41v11h878q-30 -181 -76 -387h-12l-55 356h-482l-149 -594h319q61 115 117 201h12l-116 -441h-10q-11 121 -11 209h-319l-152 -600l82 -20h426l242 370h12q-53 -195 -127 -401z" />
    <glyph glyph-name="Ecircumflex" unicode="&#xca;" horiz-adv-x="1093" 
d="M819 1731h121l145 -287h-10l-205 194l-333 -194h-11zM858 0h-907v10q98 26 160 41l305 1204q-98 26 -137 41v11h878q-30 -181 -76 -387h-12l-55 356h-482l-149 -594h319q61 115 117 201h12l-116 -441h-10q-11 121 -11 209h-319l-152 -600l82 -20h426l242 370h12
q-53 -195 -127 -401z" />
    <glyph glyph-name="Edieresis" unicode="&#xcb;" horiz-adv-x="1093" 
d="M682 1511q-34 0 -54 20t-20 52q0 38 29 66t70 28q32 0 51.5 -20t19.5 -51q0 -38 -28 -66.5t-68 -28.5zM987 1511q-32 0 -52 20t-20 52q0 38 28.5 66t68.5 28q32 0 51.5 -20t19.5 -51q0 -39 -27.5 -67t-68.5 -28zM858 0h-907v10q98 26 160 41l305 1204q-98 26 -137 41v11
h878q-30 -181 -76 -387h-12l-55 356h-482l-149 -594h319q61 115 117 201h12l-116 -441h-10q-11 121 -11 209h-319l-152 -600l82 -20h426l242 370h12q-53 -195 -127 -401z" />
    <glyph glyph-name="Igrave" unicode="&#xcc;" horiz-adv-x="542" 
d="M580 1444h-11l-239 282v5h192zM362 0h-411v10q22 6 52 14t63 16t45 11l305 1204q-72 15 -137 41v11h411v-11q-70 -21 -162 -41l-305 -1204q8 -2 61 -17.5t78 -23.5v-10z" />
    <glyph glyph-name="Iacute" unicode="&#xcd;" horiz-adv-x="542" 
d="M446 1444h-10l176 287h203v-5zM362 0h-411v10q22 6 52 14t63 16t45 11l305 1204q-72 15 -137 41v11h411v-11q-70 -21 -162 -41l-305 -1204q8 -2 61 -17.5t78 -23.5v-10z" />
    <glyph glyph-name="Icircumflex" unicode="&#xce;" horiz-adv-x="542" 
d="M516 1731h121l145 -287h-10l-205 194l-334 -194h-10zM362 0h-411v10q22 6 52 14t63 16t45 11l305 1204q-72 15 -137 41v11h411v-11q-70 -21 -162 -41l-305 -1204q8 -2 61 -17.5t78 -23.5v-10z" />
    <glyph glyph-name="Idieresis" unicode="&#xcf;" horiz-adv-x="542" 
d="M379 1511q-34 0 -54 20t-20 52q0 39 28.5 66.5t69.5 27.5q32 0 52 -20t20 -51q0 -38 -28.5 -66.5t-67.5 -28.5zM684 1511q-32 0 -52 20t-20 52q0 38 28.5 66t68.5 28q32 0 51.5 -20t19.5 -51q0 -39 -27.5 -67t-68.5 -28zM362 0h-411v10q22 6 52 14t63 16t45 11l305 1204
q-72 15 -137 41v11h411v-11q-70 -21 -162 -41l-305 -1204q8 -2 61 -17.5t78 -23.5v-10z" />
    <glyph glyph-name="Eth" unicode="&#xd0;" horiz-adv-x="1306" 
d="M279 1307h460q113 0 208 -33.5t168 -98t114 -169.5t41 -240q0 -174 -68 -319.5t-183.5 -242.5t-268.5 -150.5t-324 -53.5h-475v10q65 18 160 41l149 590h-154l9 29h153l148 585q-93 24 -137 41v11zM422 31q168 0 306 58t229 160t140.5 240t49.5 299q0 235 -107 361.5
t-311 126.5h-197l-151 -606h283l-9 -29h-282l-148 -586q81 -24 197 -24z" />
    <glyph glyph-name="Ntilde" unicode="&#xd1;" horiz-adv-x="1275" 
d="M1024 1485q-40 0 -76.5 17.5t-60.5 38.5t-60.5 38.5t-76.5 17.5q-96 0 -150 -96h-6q58 182 194 182q42 0 81 -17.5t63.5 -38.5t60 -38.5t72.5 -17.5q89 0 147 98h7q-58 -184 -195 -184zM1100 1296v11h338v-11l-168 -49l-316 -1247h-32l-494 1176l-283 -1117q1 0 144 -49
v-10h-340v10q23 7 82.5 24t83.5 25l291 1158l-115 79v11h203l473 -1137l272 1077q-9 3 -62 21.5t-77 27.5z" />
    <glyph glyph-name="Ograve" unicode="&#xd2;" horiz-adv-x="1349" 
d="M1001 1444h-10l-239 282v5h192zM592 -20q-220 0 -341.5 140t-121.5 380q0 163 57.5 315t154 264.5t231.5 180t282 67.5q220 0 341.5 -142.5t121.5 -383.5q0 -220 -97 -409t-264 -300.5t-364 -111.5zM602 10q105 0 200 46.5t166.5 126.5t124.5 184t80 223t27 239
q0 215 -89 341t-265 126q-105 0 -200 -47t-166.5 -128t-124.5 -186.5t-80 -225t-27 -240.5q0 -216 89.5 -337.5t264.5 -121.5z" />
    <glyph glyph-name="Oacute" unicode="&#xd3;" horiz-adv-x="1349" 
d="M868 1444h-10l176 287h203v-5zM592 -20q-220 0 -341.5 140t-121.5 380q0 163 57.5 315t154 264.5t231.5 180t282 67.5q220 0 341.5 -142.5t121.5 -383.5q0 -220 -97 -409t-264 -300.5t-364 -111.5zM602 10q105 0 200 46.5t166.5 126.5t124.5 184t80 223t27 239
q0 215 -89 341t-265 126q-105 0 -200 -47t-166.5 -128t-124.5 -186.5t-80 -225t-27 -240.5q0 -216 89.5 -337.5t264.5 -121.5z" />
    <glyph glyph-name="Ocircumflex" unicode="&#xd4;" horiz-adv-x="1349" 
d="M938 1731h121l145 -287h-10l-205 194l-334 -194h-10zM592 -20q-220 0 -341.5 140t-121.5 380q0 163 57.5 315t154 264.5t231.5 180t282 67.5q220 0 341.5 -142.5t121.5 -383.5q0 -220 -97 -409t-264 -300.5t-364 -111.5zM602 10q105 0 200 46.5t166.5 126.5t124.5 184
t80 223t27 239q0 215 -89 341t-265 126q-105 0 -200 -47t-166.5 -128t-124.5 -186.5t-80 -225t-27 -240.5q0 -216 89.5 -337.5t264.5 -121.5z" />
    <glyph glyph-name="Otilde" unicode="&#xd5;" horiz-adv-x="1349" 
d="M1073 1485q-40 0 -76.5 17.5t-60.5 38.5t-60.5 38.5t-76.5 17.5q-96 0 -150 -96h-6q58 182 195 182q42 0 81 -17.5t63.5 -38.5t59.5 -38.5t72 -17.5q90 0 148 98h6q-58 -184 -195 -184zM592 -20q-220 0 -341.5 140t-121.5 380q0 163 57.5 315t154 264.5t231.5 180
t282 67.5q220 0 341.5 -142.5t121.5 -383.5q0 -220 -97 -409t-264 -300.5t-364 -111.5zM602 10q105 0 200 46.5t166.5 126.5t124.5 184t80 223t27 239q0 215 -89 341t-265 126q-105 0 -200 -47t-166.5 -128t-124.5 -186.5t-80 -225t-27 -240.5q0 -216 89.5 -337.5
t264.5 -121.5z" />
    <glyph glyph-name="Odieresis" unicode="&#xd6;" horiz-adv-x="1349" 
d="M801 1511q-34 0 -54 20t-20 52q0 39 28.5 66.5t69.5 27.5q32 0 52 -20t20 -51q0 -38 -28.5 -66.5t-67.5 -28.5zM1106 1511q-32 0 -52 20t-20 52q0 38 28 66t68 28q32 0 52 -20t20 -51q0 -39 -27.5 -67t-68.5 -28zM592 -20q-220 0 -341.5 140t-121.5 380q0 163 57.5 315
t154 264.5t231.5 180t282 67.5q220 0 341.5 -142.5t121.5 -383.5q0 -220 -97 -409t-264 -300.5t-364 -111.5zM602 10q105 0 200 46.5t166.5 126.5t124.5 184t80 223t27 239q0 215 -89 341t-265 126q-105 0 -200 -47t-166.5 -128t-124.5 -186.5t-80 -225t-27 -240.5
q0 -216 89.5 -337.5t264.5 -121.5z" />
    <glyph glyph-name="multiply" unicode="&#xd7;" horiz-adv-x="1228" 
d="M1061 985l18 -24l-397 -320l227 -303l-22 -19l-230 304l-395 -318l-18 27l395 315l-227 303l24 21l228 -303z" />
    <glyph glyph-name="Oslash" unicode="&#xd8;" horiz-adv-x="1349" 
d="M1219 1348l-78 -111q176 -138 176 -436q0 -220 -97 -409t-264 -300.5t-364 -111.5q-161 0 -270 77l-80 -114l-29 22l78 115q-162 140 -162 420q0 163 57.5 315t154 264.5t231.5 180t282 67.5q148 0 254 -67l78 112zM248 469q0 -212 86 -330l741 1073q-90 84 -229 84
q-105 0 -200 -47t-166.5 -128t-124.5 -186.5t-80 -225t-27 -240.5zM602 10q105 0 200 46.5t166.5 126.5t124.5 184t80 223t27 239q0 232 -98 353l-746 -1073q93 -99 246 -99z" />
    <glyph glyph-name="Ugrave" unicode="&#xd9;" horiz-adv-x="1263" 
d="M969 1444h-11l-239 282v5h192zM1092 1296v11h342v-11q-162 -47 -168 -49l-209 -829q-52 -204 -178.5 -321t-331.5 -117q-108 0 -189.5 34t-124.5 94t-57 140.5t12 173.5l209 833q-58 13 -137 41v11h414v-11q-99 -28 -164 -41l-211 -841q-47 -178 24 -288t248 -110
q170 0 286.5 106.5t164.5 295.5l213 829q-139 48 -143 49z" />
    <glyph glyph-name="Uacute" unicode="&#xda;" horiz-adv-x="1263" 
d="M834 1444h-11l176 287h203v-5zM1092 1296v11h342v-11q-162 -47 -168 -49l-209 -829q-52 -204 -178.5 -321t-331.5 -117q-108 0 -189.5 34t-124.5 94t-57 140.5t12 173.5l209 833q-58 13 -137 41v11h414v-11q-99 -28 -164 -41l-211 -841q-47 -178 24 -288t248 -110
q170 0 286.5 106.5t164.5 295.5l213 829q-139 48 -143 49z" />
    <glyph glyph-name="Ucircumflex" unicode="&#xdb;" horiz-adv-x="1263" 
d="M903 1731h121l145 -287h-10l-205 194l-333 -194h-11zM1092 1296v11h342v-11q-162 -47 -168 -49l-209 -829q-52 -204 -178.5 -321t-331.5 -117q-108 0 -189.5 34t-124.5 94t-57 140.5t12 173.5l209 833q-58 13 -137 41v11h414v-11q-99 -28 -164 -41l-211 -841
q-47 -178 24 -288t248 -110q170 0 286.5 106.5t164.5 295.5l213 829q-139 48 -143 49z" />
    <glyph glyph-name="Udieresis" unicode="&#xdc;" horiz-adv-x="1263" 
d="M766 1511q-34 0 -54 20t-20 52q0 38 29 66t70 28q32 0 51.5 -20t19.5 -51q0 -38 -28 -66.5t-68 -28.5zM1071 1511q-32 0 -52 20t-20 52q0 38 28.5 66t68.5 28q32 0 51.5 -20t19.5 -51q0 -39 -27.5 -67t-68.5 -28zM1092 1296v11h342v-11q-162 -47 -168 -49l-209 -829
q-52 -204 -178.5 -321t-331.5 -117q-108 0 -189.5 34t-124.5 94t-57 140.5t12 173.5l209 833q-58 13 -137 41v11h414v-11q-99 -28 -164 -41l-211 -841q-47 -178 24 -288t248 -110q170 0 286.5 106.5t164.5 295.5l213 829q-139 48 -143 49z" />
    <glyph glyph-name="Yacute" unicode="&#xdd;" horiz-adv-x="1181" 
d="M803 1444h-10l176 287h202v-5zM690 0h-448l2 10q95 23 178 41l119 471l-205 735q-76 19 -125 39v11h401v-11q-46 -17 -159 -43l194 -696l535 692q-75 19 -150 47v11h350v-11q-113 -37 -161 -47l-568 -731l-118 -467l157 -41z" />
    <glyph glyph-name="Thorn" unicode="&#xde;" horiz-adv-x="1071" 
d="M379 0h-428v10q32 9 89.5 23t70.5 18l305 1204q-72 15 -137 41v11h411v-11q-70 -21 -162 -41l-55 -215h191q175 0 281 -84t106 -241q0 -126 -73 -222t-197 -146t-279 -50h-215l-64 -246q81 -18 156 -41v-10zM465 1010l-172 -682h217q199 0 309.5 109.5t110.5 285.5
q0 142 -73.5 213.5t-201.5 73.5h-190z" />
    <glyph glyph-name="germandbls" unicode="&#xdf;" horiz-adv-x="1042" 
d="M614 786q1 -60 34.5 -116t81 -101.5t95 -92t80.5 -105.5t33 -123q1 -123 -96 -195.5t-238 -72.5q-174 0 -260 71l57 252h13q1 -166 49.5 -231.5t150.5 -65.5q100 0 163 55.5t63 147.5q0 53 -23 103.5t-57.5 87.5t-75 80t-75 81t-58 91t-23.5 110q0 53 20.5 96t53 72.5
t71.5 55.5t78.5 52.5t72 56t53 73t20.5 96.5q0 73 -44.5 115t-123.5 42q-106 -2 -191 -78.5t-116 -214.5l-246 -1120l-108 -22l198 903h-135l2 10l141 27l37 164q35 160 156.5 260t271.5 100q116 0 181 -49.5t65 -130.5q0 -47 -20.5 -86.5t-53 -68t-72 -54.5t-79.5 -53
t-72.5 -57t-53 -72t-20.5 -93z" />
    <glyph glyph-name="agrave" unicode="&#xe0;" horiz-adv-x="972" 
d="M643 1430l49 -357h-8l-192 350l2 7h149zM672 49l262 209l8 -6q-19 -37 -81.5 -102t-130.5 -117.5t-97 -52.5q-35 0 -55 20.5t-11 50.5l78 316q-98 -182 -209 -284.5t-205 -102.5q-80 0 -126 69t-46 203q0 135 44.5 262t117 219.5t170 148.5t199.5 56q109 0 178 -78l8 31
l119 37zM291 63q75 0 171.5 93.5t205.5 300.5l82 323q-46 131 -166 131q-84 0 -162 -61.5t-132 -156.5t-86 -210t-32 -223q0 -197 119 -197z" />
    <glyph glyph-name="aacute" unicode="&#xe1;" horiz-adv-x="972" 
d="M932 1430l-2 -7l-357 -350h-10l199 357h170zM672 49l262 209l8 -6q-19 -37 -81.5 -102t-130.5 -117.5t-97 -52.5q-35 0 -55 20.5t-11 50.5l78 316q-98 -182 -209 -284.5t-205 -102.5q-80 0 -126 69t-46 203q0 135 44.5 262t117 219.5t170 148.5t199.5 56q109 0 178 -78
l8 31l119 37zM291 63q75 0 171.5 93.5t205.5 300.5l82 323q-46 131 -166 131q-84 0 -162 -61.5t-132 -156.5t-86 -210t-32 -223q0 -197 119 -197z" />
    <glyph glyph-name="acircumflex" unicode="&#xe2;" horiz-adv-x="972" 
d="M868 1073l-155 266l-316 -266h-10l279 357h125l88 -357h-11zM672 49l262 209l8 -6q-19 -37 -81.5 -102t-130.5 -117.5t-97 -52.5q-35 0 -55 20.5t-11 50.5l78 316q-98 -182 -209 -284.5t-205 -102.5q-80 0 -126 69t-46 203q0 135 44.5 262t117 219.5t170 148.5t199.5 56
q109 0 178 -78l8 31l119 37zM291 63q75 0 171.5 93.5t205.5 300.5l82 323q-46 131 -166 131q-84 0 -162 -61.5t-132 -156.5t-86 -210t-32 -223q0 -197 119 -197z" />
    <glyph glyph-name="atilde" unicode="&#xe3;" horiz-adv-x="972" 
d="M535 1272q-95 0 -150 -98h-6q57 184 194 184q41 0 79.5 -17t63.5 -37.5t60.5 -37.5t71.5 -17q90 0 145 99h6q-56 -183 -192 -183q-40 0 -76.5 16.5t-61 37t-60.5 37t-74 16.5zM895 928l-223 -879l262 209l8 -6q-19 -37 -81.5 -102t-130.5 -117.5t-97 -52.5
q-35 0 -55 20.5t-11 50.5l78 316q-98 -182 -209 -284.5t-205 -102.5q-80 0 -126 69t-46 203q0 135 44.5 262t117 219.5t170 148.5t199.5 56q109 0 178 -78l8 31zM291 63q75 0 171.5 93.5t205.5 300.5l82 323q-46 131 -166 131q-84 0 -162 -61.5t-132 -156.5t-86 -210
t-32 -223q0 -197 119 -197z" />
    <glyph glyph-name="adieresis" unicode="&#xe4;" horiz-adv-x="972" 
d="M522 1174q-33 0 -53 21.5t-20 53.5q0 35 24.5 60.5t58.5 25.5q35 0 56.5 -21t21.5 -52q0 -37 -25.5 -62.5t-62.5 -25.5zM827 1174q-33 0 -54 22t-21 53q0 35 26 60.5t60 25.5q33 0 54 -21t21 -52q0 -37 -24.5 -62.5t-61.5 -25.5zM672 49l262 209l8 -6q-19 -37 -81.5 -102
t-130.5 -117.5t-97 -52.5q-35 0 -55 20.5t-11 50.5l78 316q-98 -182 -209 -284.5t-205 -102.5q-80 0 -126 69t-46 203q0 135 44.5 262t117 219.5t170 148.5t199.5 56q109 0 178 -78l8 31l119 37zM291 63q75 0 171.5 93.5t205.5 300.5l82 323q-46 131 -166 131
q-84 0 -162 -61.5t-132 -156.5t-86 -210t-32 -223q0 -197 119 -197z" />
    <glyph glyph-name="aring" unicode="&#xe5;" horiz-adv-x="972" 
d="M655 1075q-66 0 -106.5 43t-40.5 107q0 81 59 141.5t142 60.5q65 0 105 -41t40 -106q0 -81 -58 -143t-141 -62zM707 1395q-69 0 -116.5 -49.5t-47.5 -118.5q0 -55 30.5 -87t83.5 -32q67 0 114.5 49.5t47.5 120.5q0 54 -30 85.5t-82 31.5zM672 49l262 209l8 -6
q-19 -37 -81.5 -102t-130.5 -117.5t-97 -52.5q-35 0 -55 20.5t-11 50.5l78 316q-98 -182 -209 -284.5t-205 -102.5q-80 0 -126 69t-46 203q0 135 44.5 262t117 219.5t170 148.5t199.5 56q109 0 178 -78l8 31l119 37zM291 63q75 0 171.5 93.5t205.5 300.5l82 323
q-46 131 -166 131q-84 0 -162 -61.5t-132 -156.5t-86 -210t-32 -223q0 -197 119 -197z" />
    <glyph glyph-name="ae" unicode="&#xe6;" horiz-adv-x="1396" 
d="M963 43q84 0 169 62.5t158 199.5l13 -8q-66 -165 -168.5 -241t-214.5 -76q-122 0 -193.5 88.5t-71.5 253.5q0 12 1 33.5t1 31.5q-95 -198 -210 -302.5t-214 -104.5q-80 0 -129 70t-49 204q0 139 47 267.5t122 218.5t172 144t194 54q80 0 140 -47t81 -131q70 84 158.5 131
t181.5 47t149 -47.5t56 -122.5q0 -126 -153.5 -222t-430.5 -138q-4 -54 -4 -78q0 -149 52.5 -218t142.5 -69zM293 63q37 0 75.5 18t87 60.5t104 128t112.5 207.5q21 87 63 170q3 77 -9 131.5t-35 82t-48.5 39t-56.5 11.5q-106 0 -203.5 -99t-155 -249.5t-57.5 -300.5
q0 -199 123 -199zM1139 909q-86 0 -164 -66t-130.5 -174.5t-68.5 -234.5q130 24 226.5 64t150 88t79 97.5t25.5 100.5q0 125 -118 125z" />
    <glyph glyph-name="ccedilla" unicode="&#xe7;" horiz-adv-x="823" 
d="M565 907q-103 0 -191.5 -84t-139 -219.5t-50.5 -284.5q0 -133 50.5 -202.5t132.5 -69.5q73 0 153 51t203 191l10 -8q-103 -168 -198.5 -234.5t-202.5 -66.5h-2l-56 -107q154 -35 154 -154q0 -70 -60.5 -114.5t-154.5 -44.5q-113 0 -168 61l8 6q52 -37 121 -37
q68 0 112 32.5t44 86.5q0 87 -117 109v8l84 156q-100 14 -162.5 104.5t-62.5 237.5q0 125 41.5 239.5t110 196t160 130t187.5 48.5q141 0 228 -90l-64 -250h-10q-3 178 -36.5 243.5t-123.5 65.5z" />
    <glyph glyph-name="egrave" unicode="&#xe8;" horiz-adv-x="825" 
d="M618 1430l50 -357h-9l-192 350l2 7h149zM356 47q75 0 158.5 52t206.5 186l10 -6q-102 -163 -199.5 -231t-201.5 -68q-120 0 -190 86t-70 245q0 127 44 244t115.5 200.5t165.5 133t191 49.5q93 0 149 -47t56 -121q0 -127 -159 -223.5t-446 -138.5q-4 -58 -4 -86
q0 -143 48 -209t126 -66zM573 909q-89 0 -171 -66t-137 -174t-75 -233q133 23 233.5 62.5t157 87.5t84 97.5t27.5 100.5q0 59 -30 92t-89 33z" />
    <glyph glyph-name="eacute" unicode="&#xe9;" horiz-adv-x="825" 
d="M539 1073l198 357h170l-2 -7l-356 -350h-10zM791 770q0 -127 -159 -223.5t-446 -138.5q-4 -58 -4 -86q0 -143 48 -209t126 -66q75 0 158.5 52t206.5 186l10 -6q-102 -163 -199.5 -231t-201.5 -68q-120 0 -190 86t-70 245q0 127 44 244t115.5 200.5t165.5 133t191 49.5
q93 0 149 -47t56 -121zM573 909q-89 0 -171 -66t-137 -174t-75 -233q133 23 233.5 62.5t157 87.5t84 97.5t27.5 100.5q0 59 -30 92t-89 33z" />
    <glyph glyph-name="ecircumflex" unicode="&#xea;" horiz-adv-x="825" 
d="M641 1430h125l88 -357h-10l-156 266l-315 -266h-11zM791 770q0 -127 -159 -223.5t-446 -138.5q-4 -58 -4 -86q0 -143 48 -209t126 -66q75 0 158.5 52t206.5 186l10 -6q-102 -163 -199.5 -231t-201.5 -68q-120 0 -190 86t-70 245q0 127 44 244t115.5 200.5t165.5 133
t191 49.5q93 0 149 -47t56 -121zM573 909q-89 0 -171 -66t-137 -174t-75 -233q133 23 233.5 62.5t157 87.5t84 97.5t27.5 100.5q0 59 -30 92t-89 33z" />
    <glyph glyph-name="edieresis" unicode="&#xeb;" horiz-adv-x="825" 
d="M498 1174q-33 0 -53.5 21.5t-20.5 53.5q0 35 25 60.5t59 25.5q35 0 56.5 -21t21.5 -52q0 -37 -25.5 -62.5t-62.5 -25.5zM813 1335q33 0 54.5 -21t21.5 -52q0 -37 -24.5 -62.5t-61.5 -25.5q-33 0 -54.5 22t-21.5 53q0 35 26 60.5t60 25.5zM791 770q0 -127 -159 -223.5
t-446 -138.5q-4 -58 -4 -86q0 -143 48 -209t126 -66q75 0 158.5 52t206.5 186l10 -6q-102 -163 -199.5 -231t-201.5 -68q-120 0 -190 86t-70 245q0 127 44 244t115.5 200.5t165.5 133t191 49.5q93 0 149 -47t56 -121zM573 909q-89 0 -171 -66t-137 -174t-75 -233
q133 23 233.5 62.5t157 87.5t84 97.5t27.5 100.5q0 59 -30 92t-89 33z" />
    <glyph glyph-name="igrave" unicode="&#xec;" horiz-adv-x="528" 
d="M463 1073h-8l-193 350l2 7h150zM172 -20q-29 2 -48 23.5t-11 53.5l196 781l-254 -158l-6 10q142 156 295 238q41 -3 58.5 -31.5t7.5 -75.5l-195 -768l262 213l8 -8q-56 -84 -146 -168t-167 -110z" />
    <glyph glyph-name="iacute" unicode="&#xed;" horiz-adv-x="528" 
d="M342 1073h-10l198 357h170l-2 -7zM172 -20q-29 2 -48 23.5t-11 53.5l196 781l-254 -158l-6 10q142 156 295 238q41 -3 58.5 -31.5t7.5 -75.5l-195 -768l262 213l8 -8q-56 -84 -146 -168t-167 -110z" />
    <glyph glyph-name="icircumflex" unicode="&#xee;" horiz-adv-x="528" 
d="M436 1430h125l88 -357h-10l-156 266l-315 -266h-10zM172 -20q-29 2 -48 23.5t-11 53.5l196 781l-254 -158l-6 10q142 156 295 238q41 -3 58.5 -31.5t7.5 -75.5l-195 -768l262 213l8 -8q-56 -84 -146 -168t-167 -110z" />
    <glyph glyph-name="idieresis" unicode="&#xef;" horiz-adv-x="528" 
d="M291 1174q-33 0 -53.5 21.5t-20.5 53.5q0 35 25 60.5t59 25.5q35 0 56.5 -21t21.5 -52q0 -37 -25.5 -62.5t-62.5 -25.5zM596 1174q-33 0 -54.5 22t-21.5 53q0 35 26 60.5t60 25.5q33 0 54.5 -21t21.5 -52q0 -37 -24.5 -62.5t-61.5 -25.5zM172 -20q-29 2 -48 23.5
t-11 53.5l196 781l-254 -158l-6 10q142 156 295 238q41 -3 58.5 -31.5t7.5 -75.5l-195 -768l262 213l8 -8q-56 -84 -146 -168t-167 -110z" />
    <glyph glyph-name="eth" unicode="&#xf0;" horiz-adv-x="940" 
d="M750 1407l-199 -104q144 -114 229 -295t86 -385q0 -143 -39.5 -265.5t-105.5 -204t-153 -127.5t-181 -46q-144 0 -228.5 100.5t-84.5 263.5q0 149 65.5 278t179 206t246.5 77q105 0 170 -59q-61 276 -231 430l-240 -127l-6 31l223 116q-112 91 -237 113l10 21
q140 -17 272 -109l217 115zM391 10q99 0 183 86.5t133 233.5t49 317q0 49 -6 96q-61 131 -187 131q-108 0 -195.5 -82.5t-134.5 -212t-47 -272.5q0 -137 53 -217t152 -80z" />
    <glyph glyph-name="ntilde" unicode="&#xf1;" horiz-adv-x="1064" 
d="M829 1165q-40 0 -76.5 16.5t-61 37t-60.5 37t-74 16.5q-94 0 -149 -98h-7q57 184 195 184q41 0 79.5 -17t63 -37.5t60 -37.5t71.5 -17q91 0 146 99h6q-56 -183 -193 -183zM922 709l-162 -660l266 207l6 -8q-32 -58 -148 -163t-159 -105q-36 0 -55.5 20.5t-12.5 50.5
l166 662q19 71 -1.5 109t-73.5 38q-212 0 -433 -401l-114 -451l-109 -22l211 852l-252 -158l-6 10q140 153 295 238q41 -3 58.5 -31.5t7.5 -75.5l-68 -270q105 178 227 282.5t234 104.5q83 0 116.5 -59t6.5 -170z" />
    <glyph glyph-name="ograve" unicode="&#xf2;" horiz-adv-x="948" 
d="M666 1073h-9l-192 350l2 7h149zM393 -20q-147 0 -230 102.5t-83 277.5q0 115 38 222t102 185t152.5 124.5t184.5 46.5q147 0 230 -103.5t83 -277.5q0 -154 -64 -287t-174 -211.5t-239 -78.5zM397 10q101 0 185.5 86t131 220t46.5 280q0 145 -53 228t-152 83
q-102 0 -187 -85.5t-131.5 -219t-46.5 -278.5q0 -148 53.5 -231t153.5 -83z" />
    <glyph glyph-name="oacute" unicode="&#xf3;" horiz-adv-x="948" 
d="M545 1073h-10l198 357h170l-2 -7zM393 -20q-147 0 -230 102.5t-83 277.5q0 115 38 222t102 185t152.5 124.5t184.5 46.5q147 0 230 -103.5t83 -277.5q0 -154 -64 -287t-174 -211.5t-239 -78.5zM397 10q101 0 185.5 86t131 220t46.5 280q0 145 -53 228t-152 83
q-102 0 -187 -85.5t-131.5 -219t-46.5 -278.5q0 -148 53.5 -231t153.5 -83z" />
    <glyph glyph-name="ocircumflex" unicode="&#xf4;" horiz-adv-x="948" 
d="M639 1430h125l88 -357h-10l-156 266l-315 -266h-11zM393 -20q-147 0 -230 102.5t-83 277.5q0 115 38 222t102 185t152.5 124.5t184.5 46.5q147 0 230 -103.5t83 -277.5q0 -154 -64 -287t-174 -211.5t-239 -78.5zM397 10q101 0 185.5 86t131 220t46.5 280q0 145 -53 228
t-152 83q-102 0 -187 -85.5t-131.5 -219t-46.5 -278.5q0 -148 53.5 -231t153.5 -83z" />
    <glyph glyph-name="otilde" unicode="&#xf5;" horiz-adv-x="948" 
d="M778 1165q-40 0 -76.5 16.5t-61 37t-60.5 37t-74 16.5q-95 0 -150 -98h-6q57 184 195 184q41 0 79.5 -17t63 -37.5t60 -37.5t71.5 -17q91 0 146 99h6q-56 -183 -193 -183zM393 -20q-147 0 -230 102.5t-83 277.5q0 115 38 222t102 185t152.5 124.5t184.5 46.5
q147 0 230 -103.5t83 -277.5q0 -154 -64 -287t-174 -211.5t-239 -78.5zM397 10q101 0 185.5 86t131 220t46.5 280q0 145 -53 228t-152 83q-102 0 -187 -85.5t-131.5 -219t-46.5 -278.5q0 -148 53.5 -231t153.5 -83z" />
    <glyph glyph-name="odieresis" unicode="&#xf6;" horiz-adv-x="948" 
d="M494 1174q-33 0 -53.5 21.5t-20.5 53.5q0 35 25 60.5t59 25.5q35 0 56.5 -21t21.5 -52q0 -37 -25.5 -62.5t-62.5 -25.5zM799 1174q-33 0 -54.5 22t-21.5 53q0 35 26 60.5t60 25.5q33 0 54.5 -21t21.5 -52q0 -37 -24.5 -62.5t-61.5 -25.5zM393 -20q-147 0 -230 102.5
t-83 277.5q0 115 38 222t102 185t152.5 124.5t184.5 46.5q147 0 230 -103.5t83 -277.5q0 -154 -64 -287t-174 -211.5t-239 -78.5zM397 10q101 0 185.5 86t131 220t46.5 280q0 145 -53 228t-152 83q-102 0 -187 -85.5t-131.5 -219t-46.5 -278.5q0 -148 53.5 -231t153.5 -83z
" />
    <glyph glyph-name="divide" unicode="&#xf7;" horiz-adv-x="1228" 
d="M739 877q-35 0 -53 19t-18 50q0 41 28.5 71t71.5 30q34 0 53 -19t19 -51q0 -40 -30 -70t-71 -30zM1049 631h-781l6 28h783zM582 244q-35 0 -53.5 19t-18.5 50q0 41 28.5 71t71.5 30q34 0 53 -19t19 -51q0 -40 -29.5 -70t-70.5 -30z" />
    <glyph glyph-name="oslash" unicode="&#xf8;" horiz-adv-x="948" 
d="M854 975l-84 -121q100 -100 100 -297q0 -154 -64 -287t-174 -211.5t-239 -78.5q-112 0 -190 63l-82 -119l-27 17l86 122q-100 103 -100 297q0 115 38 222t102 185t152.5 124.5t184.5 46.5q112 0 186 -59l80 114zM190 324q0 -117 35 -195l482 696q-54 82 -152 82
q-102 0 -187 -85.5t-131.5 -219t-46.5 -278.5zM397 10q101 0 185.5 86t131 220t46.5 280q0 117 -35 195l-483 -695q55 -86 155 -86z" />
    <glyph glyph-name="ugrave" unicode="&#xf9;" horiz-adv-x="1046" 
d="M686 1073h-8l-193 350l2 7h150zM956 928l-219 -879l267 209l6 -6q-31 -59 -149 -165.5t-161 -106.5q-36 0 -55 20t-12 51l80 314q-105 -177 -225.5 -281t-223.5 -104q-81 0 -112.5 63.5t0.5 192.5l149 602l-254 -158l-4 10q142 156 295 238q41 -3 58.5 -31.5t6.5 -75.5
l-151 -594q-46 -170 67 -170q87 0 194.5 99t221.5 305l113 444z" />
    <glyph glyph-name="uacute" unicode="&#xfa;" horiz-adv-x="1046" 
d="M565 1073h-10l199 357h170l-2 -7zM956 928l-219 -879l267 209l6 -6q-31 -59 -149 -165.5t-161 -106.5q-36 0 -55 20t-12 51l80 314q-105 -177 -225.5 -281t-223.5 -104q-81 0 -112.5 63.5t0.5 192.5l149 602l-254 -158l-4 10q142 156 295 238q41 -3 58.5 -31.5t6.5 -75.5
l-151 -594q-46 -170 67 -170q87 0 194.5 99t221.5 305l113 444z" />
    <glyph glyph-name="ucircumflex" unicode="&#xfb;" horiz-adv-x="1046" 
d="M659 1430h125l88 -357h-10l-155 266l-316 -266h-10zM956 928l-219 -879l267 209l6 -6q-31 -59 -149 -165.5t-161 -106.5q-36 0 -55 20t-12 51l80 314q-105 -177 -225.5 -281t-223.5 -104q-81 0 -112.5 63.5t0.5 192.5l149 602l-254 -158l-4 10q142 156 295 238
q41 -3 58.5 -31.5t6.5 -75.5l-151 -594q-46 -170 67 -170q87 0 194.5 99t221.5 305l113 444z" />
    <glyph glyph-name="udieresis" unicode="&#xfc;" horiz-adv-x="1046" 
d="M514 1174q-33 0 -53.5 21.5t-20.5 53.5q0 35 25 60.5t59 25.5q35 0 56.5 -21t21.5 -52q0 -37 -25.5 -62.5t-62.5 -25.5zM819 1174q-33 0 -54.5 22t-21.5 53q0 35 26 60.5t60 25.5q33 0 54.5 -21t21.5 -52q0 -37 -24.5 -62.5t-61.5 -25.5zM956 928l-219 -879l267 209l6 -6
q-31 -59 -149 -165.5t-161 -106.5q-36 0 -55 20t-12 51l80 314q-105 -177 -225.5 -281t-223.5 -104q-81 0 -112.5 63.5t0.5 192.5l149 602l-254 -158l-4 10q142 156 295 238q41 -3 58.5 -31.5t6.5 -75.5l-151 -594q-46 -170 67 -170q87 0 194.5 99t221.5 305l113 444z" />
    <glyph glyph-name="yacute" unicode="&#xfd;" horiz-adv-x="899" 
d="M539 1073l198 357h170l-2 -7l-356 -350h-10zM723 911l2 9l139 -23q13 -41 13 -86q0 -130 -99.5 -327t-243.5 -379.5t-316.5 -329.5t-307.5 -185l-55 97q245 29 514 286l-129 852l-207 -145l-6 10q114 148 256 238q54 -5 63 -74l109 -793q163 187 256.5 372t93.5 312
q0 128 -82 166z" />
    <glyph glyph-name="thorn" unicode="&#xfe;" horiz-adv-x="948" 
d="M707 938q90 0 136 -71.5t46 -204.5q0 -144 -44.5 -272t-119 -217t-173 -141t-204.5 -52q-123 0 -203 71l-104 -413q145 -25 192 -37v-11h-438v11q3 1 144 37l426 1703h-181l2 9q138 62 301 77l-22 -86l-201 -806q113 200 226 301.5t217 101.5zM350 8q117 0 216.5 92.5
t154.5 240.5t55 312q0 103 -30 154t-97 51q-87 0 -187 -95t-220 -321l-80 -325q59 -109 188 -109z" />
    <glyph glyph-name="ydieresis" unicode="&#xff;" horiz-adv-x="899" 
d="M498 1174q-33 0 -53.5 21.5t-20.5 53.5q0 35 25 60.5t59 25.5q35 0 56.5 -21t21.5 -52q0 -37 -25.5 -62.5t-62.5 -25.5zM803 1174q-33 0 -54.5 22t-21.5 53q0 35 26 60.5t60 25.5q33 0 54.5 -21t21.5 -52q0 -37 -24.5 -62.5t-61.5 -25.5zM723 911l2 9l139 -23
q13 -41 13 -86q0 -130 -99.5 -327t-243.5 -379.5t-316.5 -329.5t-307.5 -185l-55 97q245 29 514 286l-129 852l-207 -145l-6 10q114 148 256 238q54 -5 63 -74l109 -793q163 187 256.5 372t93.5 312q0 128 -82 166z" />
    <glyph glyph-name="dotlessi" unicode="&#x131;" horiz-adv-x="528" 
d="M172 -20q-29 2 -48 23.5t-11 53.5l196 781l-254 -158l-6 10q142 156 295 238q41 -3 58.5 -31.5t7.5 -75.5l-195 -768l262 213l8 -8q-56 -84 -146 -168t-167 -110z" />
    <glyph glyph-name="Lslash" unicode="&#x141;" horiz-adv-x="1005" 
d="M698 31l242 399h14q-72 -261 -127 -430h-876v10q98 26 160 41l135 535l-148 -72l-12 27l170 84l160 630q-93 24 -137 41v11h411v-11q-48 -14 -162 -41l-143 -567l184 92l15 -28l-209 -103l-152 -598l82 -20h393z" />
    <glyph glyph-name="lslash" unicode="&#x142;" horiz-adv-x="483" 
d="M479 852l19 -25l-172 -112l-160 -666l307 221l6 -8q-55 -77 -180.5 -179.5t-173.5 -102.5q-31 0 -51 20.5t-11 50.5l142 584l-139 -90l-17 22l166 109l160 667h-180l2 9q141 63 301 78l-23 -87l-139 -587z" />
    <glyph glyph-name="OE" unicode="&#x152;" horiz-adv-x="1777" 
d="M1542 0h-924q-238 0 -364.5 136t-126.5 364q0 157 58 304t158.5 258t246.5 178t311 67h940q-34 -204 -78 -387h-10l-55 356h-484l-149 -594h319q63 119 119 201h13l-117 -441h-13q-8 88 -8 209h-319l-152 -600l80 -20h428l242 370h12q-40 -149 -127 -401zM629 31h159
l314 1245h-209q-119 0 -224 -47t-181 -127t-131.5 -183.5t-83 -218.5t-27.5 -231q0 -204 94.5 -321t288.5 -117z" />
    <glyph glyph-name="oe" unicode="&#x153;" horiz-adv-x="1474" 
d="M1038 43q190 0 330 262l12 -8q-66 -165 -165.5 -241t-208.5 -76q-97 0 -167.5 52.5t-99.5 153.5q-64 -96 -156.5 -151t-195.5 -55q-141 0 -224 104t-83 283q0 118 39 224.5t103 182t149.5 120t175.5 44.5q111 0 183.5 -64t100.5 -180q71 112 177 178t219 66
q94 0 150.5 -47t56.5 -123q0 -126 -156.5 -222t-437.5 -138q-4 -54 -4 -78q0 -287 202 -287zM391 8q95 0 177 81.5t128.5 213.5t46.5 279q0 152 -51.5 239.5t-144.5 87.5q-95 0 -177 -81t-129.5 -213t-47.5 -279q0 -152 52 -240t146 -88zM1214 909q-88 0 -168 -66.5
t-132 -174.5t-70 -234q130 24 228 63.5t153.5 87t82.5 97.5t27 102q0 59 -30.5 92t-90.5 33z" />
    <glyph glyph-name="Scaron" unicode="&#x160;" horiz-adv-x="980" 
d="M539 1731l204 -195l334 195h10l-292 -287h-121l-144 287h9zM367 -20q-216 0 -338 81q19 126 65 330h12l58 -323q67 -58 219 -58q161 0 261.5 76.5t100.5 206.5q0 70 -26.5 128.5t-69.5 101t-94.5 81.5t-103.5 78.5t-95 82.5t-69.5 102.5t-26.5 129.5q0 151 118 240.5
t310 89.5q214 0 330 -90q-19 -114 -62 -317h-10l-61 315q-79 61 -201 61q-143 0 -233.5 -68.5t-90.5 -187.5q0 -64 27 -119t69.5 -95.5t94.5 -78.5t104 -78.5t94.5 -85t69.5 -108t27 -139.5q0 -115 -65 -197t-171.5 -120.5t-242.5 -38.5z" />
    <glyph glyph-name="scaron" unicode="&#x161;" horiz-adv-x="741" 
d="M367 1430l155 -269l316 269h10l-279 -357h-125l-88 357h11zM477 938q74 0 134.5 -19.5t90.5 -50.5l-55 -250h-12q-1 164 -46 228.5t-128 64.5q-93 0 -151 -48t-58 -126q1 -56 37.5 -107t88 -92t103 -82.5t88 -97.5t37.5 -120q0 -118 -100 -188t-240 -70q-172 0 -254 71
l56 252h12q1 -166 50.5 -231.5t150.5 -65.5t164 52t63 139q0 46 -19.5 87t-50.5 73t-68.5 62l-75 60t-68.5 61t-50.5 71t-19.5 83q-2 105 86.5 174.5t234.5 69.5z" />
    <glyph glyph-name="Ydieresis" unicode="&#x178;" horiz-adv-x="1181" 
d="M735 1511q-33 0 -53 19.5t-20 52.5q0 39 28.5 66.5t69.5 27.5q32 0 51.5 -20t19.5 -51q0 -38 -28.5 -66.5t-67.5 -28.5zM1040 1511q-32 0 -51.5 20t-19.5 52q0 38 28 66t68 28q32 0 52 -20t20 -51q0 -39 -28 -67t-69 -28zM690 0h-448l2 10q95 23 178 41l119 471l-205 735
q-76 19 -125 39v11h401v-11q-46 -17 -159 -43l194 -696l535 692q-75 19 -150 47v11h350v-11q-113 -37 -161 -47l-568 -731l-118 -467l157 -41z" />
    <glyph glyph-name="Zcaron" unicode="&#x17d;" horiz-adv-x="1054" 
d="M555 1731l205 -195l334 195h10l-293 -287h-121l-143 287h8zM330 1307h823v-21l-1044 -1255h608l241 399h13q-61 -223 -129 -430h-871v20l1043 1256h-561l-226 -352h-12q38 148 115 383z" />
    <glyph glyph-name="zcaron" unicode="&#x17e;" horiz-adv-x="843" 
d="M375 1430l155 -269l316 269h10l-278 -357h-125l-88 357h10zM213 918h618l-4 -19l-712 -870l438 2l188 235h11q-16 -52 -49 -143t-44 -123h-675l6 18l706 871l-379 -2l-188 -236h-10q39 123 94 267z" />
    <glyph glyph-name="florin" unicode="&#x192;" horiz-adv-x="651" 
d="M653 1327q107 0 174 -41l-65 -266h-12q1 168 -23 224t-88 54q-168 -3 -219 -237l-58 -266h232l-8 -29h-232l-182 -836q-32 -144 -124.5 -224.5t-221.5 -80.5l8 27q88 3 143.5 59.5t81.5 175.5l193 879h-135l2 10l141 27l47 217q32 144 125 225.5t221 81.5z" />
    <glyph glyph-name="uni0237" unicode="&#x237;" horiz-adv-x="468" 
d="M344 928q41 -3 58.5 -31.5t7.5 -75.5l-187 -821q-45 -205 -160 -307.5t-264 -102.5v13q108 13 194 112.5t126 278.5l188 844l-252 -158l-6 10q142 156 295 238z" />
    <glyph glyph-name="circumflex" unicode="&#x2c6;" horiz-adv-x="841" 
d="M449 1430h124l89 -357h-11l-155 266l-316 -266h-10z" />
    <glyph glyph-name="caron" unicode="&#x2c7;" horiz-adv-x="841" 
d="M184 1430l156 -269l315 269h11l-279 -357h-125l-88 357h10z" />
    <glyph glyph-name="breve" unicode="&#x2d8;" horiz-adv-x="800" 
d="M328 1071q-104 0 -144.5 90.5t-7.5 261.5h8q-7 -123 34.5 -185t127.5 -62q93 0 166.5 63.5t112.5 183.5h8q-35 -174 -117.5 -263t-187.5 -89z" />
    <glyph glyph-name="dotaccent" unicode="&#x2d9;" horiz-adv-x="499" 
d="M246 1165q-33 0 -53.5 20.5t-20.5 53.5q0 40 28.5 69t69.5 29q34 0 55 -21.5t21 -53.5q0 -39 -29.5 -68t-70.5 -29z" />
    <glyph glyph-name="ring" unicode="&#x2da;" horiz-adv-x="675" 
d="M319 1075q-66 0 -106.5 43t-40.5 107q0 81 59 141.5t142 60.5q65 0 105 -41t40 -106q0 -81 -58 -143t-141 -62zM322 1108q67 0 114 49.5t47 120.5q0 54 -30 85.5t-82 31.5q-69 0 -116.5 -49.5t-47.5 -118.5q0 -55 31 -87t84 -32z" />
    <glyph glyph-name="ogonek" unicode="&#x2db;" horiz-adv-x="628" 
d="M291 -440q-58 0 -93.5 32.5t-35.5 90.5q0 85 86.5 173.5t214.5 153.5l10 -10q-98 -65 -155.5 -150t-57.5 -161q0 -92 82 -92q39 0 82 28l2 -6q-56 -59 -135 -59z" />
    <glyph glyph-name="tilde" unicode="&#x2dc;" horiz-adv-x="933" 
d="M598 1165q-40 0 -76.5 16.5t-61 37t-60.5 37t-74 16.5q-95 0 -150 -98h-6q57 184 195 184q41 0 79.5 -17t63 -37.5t60 -37.5t71.5 -17q90 0 145 99h7q-56 -183 -193 -183z" />
    <glyph glyph-name="hungarumlaut" unicode="&#x2dd;" horiz-adv-x="860" 
d="M180 1073h-10l168 357h145l-2 -5zM424 1073h-10l174 357h147l-2 -5z" />
    <glyph glyph-name="gravecomb" unicode="&#x300;" 
d="M-150 1073h-8l-192 350l2 7h149z" />
    <glyph glyph-name="acutecomb" unicode="&#x301;" 
d="M-516 1073h-10l198 357h170l-2 -7z" />
    <glyph glyph-name="uni0302" unicode="&#x302;" 
d="M-354 1430h125l88 -357h-11l-155 266l-316 -266h-10z" />
    <glyph glyph-name="tildecomb" unicode="&#x303;" 
d="M-340 1165q-40 0 -76.5 16.5t-61 37t-60.5 37t-74 16.5q-95 0 -150 -98h-6q57 184 195 184q41 0 79.5 -17t63 -37.5t60 -37.5t71.5 -17q90 0 145 99h7q-56 -183 -193 -183z" />
    <glyph glyph-name="uni0304" unicode="&#x304;" 
d="M-147 1243h-535l8 35h535z" />
    <glyph glyph-name="uni0306" unicode="&#x306;" 
d="M-436 1071q-104 0 -144.5 90.5t-7.5 261.5h8q-7 -123 34.5 -185t127.5 -62q93 0 166.5 63.5t112.5 183.5h8q-35 -174 -117.5 -263t-187.5 -89z" />
    <glyph glyph-name="uni0307" unicode="&#x307;" 
d="M-242 1165q-33 0 -53 20.5t-20 53.5q0 40 28.5 69t69.5 29q33 0 54.5 -21.5t21.5 -53.5q0 -39 -30 -68t-71 -29z" />
    <glyph glyph-name="uni0308" unicode="&#x308;" 
d="M-535 1174q-33 0 -53 21.5t-20 53.5q0 35 25 60.5t59 25.5q35 0 56.5 -21t21.5 -52q0 -37 -26 -62.5t-63 -25.5zM-229 1174q-33 0 -54.5 22t-21.5 53q0 35 26 60.5t60 25.5q33 0 54.5 -21t21.5 -52q0 -37 -24.5 -62.5t-61.5 -25.5z" />
    <glyph glyph-name="uni030A" unicode="&#x30a;" 
d="M-338 1075q-66 0 -106.5 43t-40.5 107q0 81 58.5 141.5t141.5 60.5q66 0 106 -41t40 -106q0 -81 -58 -143t-141 -62zM-336 1108q67 0 114.5 49.5t47.5 120.5q0 54 -30.5 85.5t-82.5 31.5q-69 0 -116.5 -49.5t-47.5 -118.5q0 -55 31 -87t84 -32z" />
    <glyph glyph-name="uni030B" unicode="&#x30b;" 
d="M-733 1073h-10l168 357h145l-2 -5zM-489 1073h-11l174 357h148l-2 -5z" />
    <glyph glyph-name="uni030C" unicode="&#x30c;" 
d="M-618 1430l155 -269l316 269h10l-279 -357h-125l-88 357h11z" />
    <glyph glyph-name="uni0327" unicode="&#x327;" 
d="M-381 -440q-113 0 -168 61l8 6q52 -37 121 -37q68 0 112 32.5t44 86.5q0 87 -117 109v8l96 180h35l-69 -133q153 -35 153 -154q0 -70 -60.5 -114.5t-154.5 -44.5z" />
    <glyph glyph-name="uni0328" unicode="&#x328;" 
d="M-358 -440q-58 0 -93.5 32.5t-35.5 90.5q0 85 86.5 173.5t214.5 153.5l10 -10q-98 -65 -155.5 -150t-57.5 -161q0 -92 82 -92q39 0 82 28l2 -6q-56 -59 -135 -59z" />
    <glyph glyph-name="uni0335" unicode="&#x335;" 
d="M-164 1114h-549l8 29h549z" />
    <glyph glyph-name="uni0337" unicode="&#x337;" 
d="M-164 803l-432 -283l-16 23l430 284z" />
    <glyph glyph-name="uni0338" unicode="&#x338;" 
d="M-164 967l-733 -1051l-27 16l729 1053z" />
    <glyph glyph-name="uni0394" unicode="&#x394;" horiz-adv-x="1144" 
d="M776 1321h35l137 -1321h-983zM831 31l-114 1138l-694 -1138h808z" />
    <glyph glyph-name="uni03A9" unicode="&#x3a9;" horiz-adv-x="1300" 
d="M731 186l-31 -96h334l123 227h12q-51 -222 -79 -317h-453l70 213q202 57 345.5 244.5t143.5 410.5q0 204 -93 316t-263 112q-164 0 -299 -96t-210 -257t-75 -351q0 -155 57 -251.5t154 -127.5l-33 -213h-463q34 132 90 317h13v-227h346l12 100q-138 37 -219.5 151.5
t-81.5 281.5q0 192 94 353.5t258 256t361 94.5q219 0 348 -132t129 -351q0 -114 -46 -222.5t-125 -194t-187.5 -149t-231.5 -92.5z" />
    <glyph glyph-name="uni03BC" unicode="&#x3bc;" horiz-adv-x="1046" 
d="M737 49l267 209l6 -6q-31 -59 -149 -165.5t-161 -106.5q-36 0 -55 20t-12 51l80 320q-102 -179 -223 -285t-226 -106q-47 0 -78 22l-69 -295l-94 -20l129 549l149 602l-254 -158l-4 10q142 156 295 238q41 -3 58.5 -31.5t6.5 -75.5l-151 -594q-46 -170 67 -170
q88 0 195 98t221 304l113 446l108 23z" />
    <glyph glyph-name="pi" unicode="&#x3c0;" horiz-adv-x="989" 
d="M176 918h838l-41 -97h-137l-191 -772l264 207l9 -8q-32 -59 -148.5 -163.5t-161.5 -104.5q-34 0 -53 20.5t-12 50.5l190 770h-385q-119 -474 -258 -821h-65q174 353 297 821h-185z" />
    <glyph glyph-name="endash" unicode="&#x2013;" horiz-adv-x="976" 
d="M866 467h-749l6 29h749z" />
    <glyph glyph-name="emdash" unicode="&#x2014;" horiz-adv-x="1550" 
d="M1438 467h-1321l6 29h1323z" />
    <glyph glyph-name="quoteleft" unicode="&#x2018;" horiz-adv-x="364" 
d="M324 1012q-35 0 -56.5 23t-21.5 69q0 82 75 180.5t195 183.5l6 -10q-93 -85 -119.5 -154t-9.5 -171l15 -89q-38 -32 -84 -32z" />
    <glyph glyph-name="quoteright" unicode="&#x2019;" horiz-adv-x="360" 
d="M238 1012l-7 10q93 85 119.5 155t9.5 171l-14 88q38 32 82 32q37 0 58.5 -23t21.5 -69q0 -81 -76 -180t-194 -184z" />
    <glyph glyph-name="quotesinglbase" unicode="&#x201a;" horiz-adv-x="368" 
d="M-82 -270l-8 12q93 83 119.5 152t11.5 172l-16 88q37 34 84 34q36 0 56.5 -23.5t20.5 -68.5q0 -82 -74.5 -180.5t-193.5 -185.5z" />
    <glyph glyph-name="quotedblleft" unicode="&#x201c;" horiz-adv-x="630" 
d="M324 1012q-35 0 -56.5 23t-21.5 69q0 82 75 180.5t195 183.5l6 -10q-93 -85 -119.5 -154t-9.5 -171l15 -89q-38 -32 -84 -32zM592 1012q-36 0 -57 23t-21 69q0 82 74.5 180.5t193.5 183.5l9 -10q-94 -86 -121.5 -154.5t-10.5 -170.5l15 -89q-38 -32 -82 -32z" />
    <glyph glyph-name="quotedblright" unicode="&#x201d;" horiz-adv-x="626" 
d="M238 1012l-7 10q93 85 119.5 155t9.5 171l-14 88q38 32 82 32q37 0 58.5 -23t21.5 -69q0 -81 -76 -180t-194 -184zM504 1012l-6 10q93 85 119.5 155t9.5 171l-15 88q38 32 84 32q35 0 56.5 -23t21.5 -69q0 -81 -75.5 -180.5t-194.5 -183.5z" />
    <glyph glyph-name="quotedblbase" unicode="&#x201e;" horiz-adv-x="636" 
d="M-82 -270l-8 12q94 83 121.5 153t9.5 171l-16 88q37 34 84 34q36 0 56.5 -23.5t20.5 -68.5q0 -82 -74.5 -180.5t-193.5 -185.5zM184 -270l-8 12q94 83 121.5 153t9.5 171l-14 88q34 34 82 34q36 0 57 -23.5t21 -68.5q0 -82 -75 -180.5t-194 -185.5z" />
    <glyph glyph-name="dagger" unicode="&#x2020;" horiz-adv-x="645" 
d="M621 1430l-109 -242l229 49l-32 -127l-207 49l-74 -497h-127l176 497l-231 -49l33 127l202 -51l13 244h127z" />
    <glyph glyph-name="daggerdbl" unicode="&#x2021;" horiz-adv-x="690" 
d="M453 662h-127l106 227l-231 -49l30 116l205 -38l-16 126l80 130l-226 -39l31 116l205 -51l6 230h127l-104 -228l229 49l-31 -116l-205 39l15 -130l-78 -126l225 38l-28 -116l-207 49z" />
    <glyph glyph-name="bullet" unicode="&#x2022;" horiz-adv-x="653" 
d="M336 463q-61 106 -156 194q125 87 234 193q67 -104 153 -193q-131 -91 -231 -194z" />
    <glyph glyph-name="ellipsis" unicode="&#x2026;" horiz-adv-x="1107" 
d="M113 -4q-38 0 -62 25.5t-24 62.5q0 41 30.5 72.5t71.5 31.5q38 0 62 -26t24 -64q0 -41 -30.5 -71.5t-71.5 -30.5zM465 -4q-37 0 -61.5 25.5t-24.5 62.5q0 41 30.5 72.5t71.5 31.5q38 0 63 -26.5t25 -63.5q0 -41 -31.5 -71.5t-72.5 -30.5zM817 -4q-37 0 -61.5 25.5
t-24.5 62.5q0 41 32 72.5t73 31.5q36 0 61 -26.5t25 -63.5q0 -41 -31 -71.5t-74 -30.5z" />
    <glyph glyph-name="perthousand" unicode="&#x2030;" horiz-adv-x="1882" 
d="M223 -117l1061 1555l29 -15l-1067 -1554zM422 733q-101 0 -164 66.5t-63 165.5q0 151 100 256.5t244 105.5q103 0 164 -68t61 -165q0 -150 -98.5 -255.5t-243.5 -105.5zM532 1305q-101 0 -171 -110.5t-70 -260.5q0 -89 37 -133.5t102 -44.5q101 0 169.5 110.5t68.5 259.5
q0 86 -35 132.5t-101 46.5zM1563 573q103 0 164 -68t61 -165q0 -151 -98.5 -255.5t-245.5 -104.5q-70 0 -120.5 35.5t-74.5 95.5q-97 -131 -258 -131q-101 0 -164 66t-63 165q0 151 100 256.5t246 105.5q72 0 121 -35.5t72 -95.5q45 61 112.5 96t147.5 35zM999 2
q67 0 122 52t85.5 137t30.5 182q0 86 -34.5 132t-100.5 46q-101 0 -171.5 -110.5t-70.5 -260.5q0 -89 37 -133.5t102 -44.5zM1454 2q67 0 122 52t85.5 137t30.5 182q0 86 -35 132t-101 46q-101 0 -171 -110.5t-70 -260.5q0 -89 37 -133.5t102 -44.5z" />
    <glyph glyph-name="guilsinglleft" unicode="&#x2039;" horiz-adv-x="557" 
d="M494 741l14 -14l-320 -309l170 -289l-14 -12l-278 311z" />
    <glyph glyph-name="guilsinglright" unicode="&#x203a;" horiz-adv-x="557" 
d="M186 727l15 14l278 -313l-428 -311l-14 14l319 307z" />
    <glyph glyph-name="fraction" unicode="&#x2044;" horiz-adv-x="819" 
d="M748 645h-582l6 29h584z" />
    <glyph glyph-name="Euro" unicode="&#x20ac;" horiz-adv-x="1271" 
d="M963 1327q199 0 350 -90q-20 -130 -62 -313h-12l-61 301q-33 31 -95 51t-129 20q-194 0 -340.5 -145t-210.5 -373h519l-11 -28h-516q-28 -115 -33 -201h484l-10 -31h-476v-43q0 -229 91 -347t239 -118q128 0 234 70l206 301h11q-44 -178 -88 -295q-177 -106 -367 -106
q-203 0 -323.5 138t-120.5 384v16h-168l10 31h160q3 107 30 201h-124l10 28h123q74 245 261.5 397t418.5 152z" />
    <glyph glyph-name="trademark" unicode="&#x2122;" horiz-adv-x="1363" 
d="M696 1130l-41 156h-94l-119 -477q44 -12 70 -27v-6h-242v6q38 17 82 27l121 477h-94l-119 -156h-6q22 114 39 177h457q-21 -94 -48 -177h-6zM1270 1307h164v-7q-15 -6 -44 -14.5t-32 -9.5l-76 -469q35 -11 57 -25v-6h-223v6q19 10 70 25l71 436l-282 -457h-37l-53 459
l-142 -422q44 -24 62 -41v-6h-164v6q55 31 78 41l155 457q-32 8 -59 20v7h160l45 -402z" />
    <glyph glyph-name="partialdiff" unicode="&#x2202;" horiz-adv-x="972" 
d="M424 -20q-154 0 -243 102.5t-89 275.5q0 155 69 288t187 210.5t256 77.5q122 0 199 -92q-9 271 -88 415t-223 144q-177 0 -285 -160l-23 14q131 195 336 195q103 0 181.5 -55t126 -152t71 -219t23.5 -266q0 -358 -139 -568t-359 -210zM428 10q113 0 201.5 92.5t135 242.5
t46.5 327q0 54 -6 104q-71 127 -203 127q-112 0 -205 -83t-143.5 -216t-50.5 -282q0 -147 58 -229.5t167 -82.5z" />
    <glyph glyph-name="product" unicode="&#x220f;" horiz-adv-x="1298" 
d="M309 1307h1139l-8 -31h-142l-442 -1634q98 -28 135 -41l-4 -11h-395l2 11q23 6 77.5 21.5t73.5 19.5l441 1634h-631l-442 -1634q67 -23 133 -41l-2 -11h-398l2 11q58 14 154 41l440 1634h-143z" />
    <glyph glyph-name="summation" unicode="&#x2211;" horiz-adv-x="1122" 
d="M385 1307h821q-48 -208 -94 -353h-10l-19 322h-573l285 -803l-719 -776h649l125 244h10q-29 -141 -80 -351h-823l10 43l725 783l-317 848z" />
    <glyph glyph-name="minus" unicode="&#x2212;" horiz-adv-x="1228" 
d="M1040 631h-780l6 28h783z" />
    <glyph glyph-name="radical" unicode="&#x221a;" horiz-adv-x="892" 
d="M346 854l92 -729l731 1305h68l-852 -1444h-25l-122 843l-207 -149l-4 10q111 149 254 238q31 -3 45.5 -21t19.5 -53z" />
    <glyph glyph-name="infinity" unicode="&#x221e;" horiz-adv-x="1329" 
d="M1073 958q104 0 167 -76.5t63 -203.5q0 -160 -99.5 -272.5t-240.5 -112.5q-100 0 -167 68t-98 200q-109 -149 -189.5 -208.5t-170.5 -59.5q-103 0 -165 76.5t-62 203.5q0 160 98.5 272.5t239.5 112.5q204 0 266 -268q109 149 189 208.5t169 59.5zM336 381
q85 0 161.5 60.5t194.5 222.5q-64 210 -258 210q-126 0 -209.5 -81t-83.5 -203q0 -96 53 -152.5t142 -56.5zM979 379q126 0 209.5 80.5t83.5 202.5q0 96 -52.5 152t-142.5 56q-87 0 -163.5 -60t-192.5 -222q64 -209 258 -209z" />
    <glyph glyph-name="integral" unicode="&#x222b;" horiz-adv-x="600" 
d="M-141 -410q-53 0 -88 10t-76 40l16 51h6q34 -43 67 -57.5t79 -14.5q79 0 140.5 62t92.5 186l307 1235q43 170 142 259t223 89q54 0 90 -10t78 -39l-16 -51h-5q-35 43 -68.5 57t-78.5 14q-88 0 -150.5 -70t-95.5 -202l-309 -1243q-39 -150 -135 -233t-219 -83z" />
    <glyph glyph-name="approxequal" unicode="&#x2248;" horiz-adv-x="1228" 
d="M348 780h-20q22 62 87.5 97.5t141.5 35.5q69 0 167 -48t167 -48q64 0 115.5 26.5t72.5 76.5h21q-22 -64 -85.5 -99t-137.5 -35q-46 0 -92 15t-77.5 33.5t-76.5 33.5t-90 15q-65 0 -120 -27t-73 -76zM248 373h-23q24 61 89.5 97t140.5 36q57 0 112 -24t110.5 -48
t113.5 -24q64 0 115.5 25t70.5 75h22q-23 -64 -87 -98.5t-138 -34.5q-57 0 -112.5 24t-110.5 48t-111 24q-66 0 -121 -26.5t-71 -73.5z" />
    <glyph glyph-name="notequal" unicode="&#x2260;" horiz-adv-x="1228" 
d="M1106 864l-8 -28h-322l-196 -381h426l-9 -29h-432l-114 -221l-29 10l108 211h-313l6 29h322l196 381h-424l7 28h432l116 226l29 -11l-110 -215h315z" />
    <glyph glyph-name="lessequal" unicode="&#x2264;" horiz-adv-x="1228" 
d="M252 702l6 35l860 279l-12 -39l-813 -260l653 -262l-10 -29zM961 262l-7 -29h-782l8 29h781z" />
    <glyph glyph-name="greaterequal" unicode="&#x2265;" horiz-adv-x="1228" 
d="M1044 729l-653 262l10 29l686 -277l-8 -34l-860 -279l12 39zM961 262l-7 -29h-782l8 29h781z" />
    <glyph glyph-name="lozenge" unicode="&#x25ca;" horiz-adv-x="864" 
d="M78 612l358 613h68l360 -613l-360 -612h-68zM471 1169l-332 -557l332 -557l330 557z" />
    <glyph glyph-name="uniF8FF" unicode="&#xf8ff;" horiz-adv-x="4831" 
d="M1294 408q-95 0 -136.5 40t-41.5 130v466h203q0 -62 -39.5 -122t-97.5 -86l2 -9q58 35 119 35h104v-162h-86v-98q0 -35 37 -35q26 0 49 15v-154q-36 -20 -113 -20zM1651 418h-203v626h201q0 -67 -47 -122t-115 -70l4 -6q84 16 143 16h17v-444zM2953 408
q-95 0 -137.5 40.5t-42.5 129.5v466h203q0 -62 -39 -122t-98 -86l4 -9q57 35 118 35h103v-162h-86v-98q0 -35 37 -35q27 0 49 15v-154q-36 -20 -111 -20zM553 418h-203v624h203v-624zM729 408q-66 0 -104.5 34t-38.5 90q0 60 40.5 98t110.5 38q92 0 135 -43h5v71
q0 24 -12.5 38t-35.5 14q-47 0 -47 -60l-184 29q37 160 250 160q109 0 171 -50t62 -135v-274h-200v45h-7q-14 -20 -51.5 -37.5t-93.5 -17.5zM1896 418h-202v444h198v-133h6q17 143 146 143q70 0 109.5 -46t39.5 -134v-274h-204v264q0 55 -39 55q-22 0 -32.5 -13.5
t-21.5 -51.5v-254zM2482 408q-123 0 -190.5 63.5t-67.5 167.5t69 168.5t189 64.5q122 0 190 -64.5t68 -168.5q0 -103 -67.5 -167t-190.5 -64zM3813 270h-204v592h202v-133h6q21 143 150 143q170 0 170 -233q0 -115 -51 -173t-125 -58q-105 0 -141 88h-7v-226zM4420 408
q-120 0 -187 63.5t-67 167.5q0 103 70 168t190 65q106 0 172.5 -64.5t66.5 -158.5v-18h-307q0 -39 19 -66.5t51 -27.5q54 0 61 69l168 -16q-18 -95 -82.5 -138.5t-154.5 -43.5zM3240 262h-80v135h133q115 0 137 25l-2 6h-139q-82 0 -106 80l-111 354h205q6 -36 20 -110
t23.5 -134.5t13.5 -109.5h4q12 115 62 354h202l-145 -424q-63 -176 -217 -176zM4358 655h12q62 0 87.5 12t25.5 38q0 45 -49 45q-34 0 -55 -26t-21 -69zM3883 506q31 0 46 27.5t15 89.5q0 66 -12 95.5t-43 29.5q-45 0 -61 -68v-148q21 -26 55 -26zM2482 535q60 0 60 104
q0 106 -60 106q-57 0 -57 -106q0 -104 57 -104zM831 469q31 0 46 23v104q-10 16 -39 16q-25 0 -40.5 -19t-15.5 -52q0 -72 49 -72z" />
    <glyph glyph-name="uni0308.case" 
d="M-539 1511q-33 0 -53 19.5t-20 52.5q0 39 28.5 66.5t69.5 27.5q32 0 52 -20t20 -51q0 -38 -28.5 -66.5t-68.5 -28.5zM-233 1511q-32 0 -52 20t-20 52q0 38 28 66t68 28q32 0 52 -20t20 -51q0 -39 -27.5 -67t-68.5 -28z" />
    <glyph glyph-name="gravecomb.case" 
d="M-137 1444h-10l-240 282v5h192z" />
    <glyph glyph-name="acutecomb.case" 
d="M-522 1444h-10l176 287h202v-5z" />
    <glyph glyph-name="uni0302.case" 
d="M-403 1731h120l146 -287h-10l-205 194l-334 -194h-10z" />
    <glyph glyph-name="uni030C.case" 
d="M-684 1731l205 -195l334 195h10l-293 -287h-121l-143 287h8z" />
    <glyph glyph-name="uni030A.case" 
d="M-340 1378q-67 0 -109.5 44.5t-42.5 111.5q0 83 60.5 145t144.5 62q68 0 110 -42.5t42 -109.5q0 -84 -59.5 -147.5t-145.5 -63.5zM-338 1419q64 0 111 50t47 118q0 50 -29 81.5t-78 31.5q-65 0 -112 -49.5t-47 -116.5q0 -50 29.5 -82.5t78.5 -32.5z" />
    <glyph glyph-name="tildecomb.case" 
d="M-346 1485q-40 0 -76.5 17.5t-61 38.5t-61 38.5t-76.5 17.5q-95 0 -149 -96h-6q58 182 194 182q42 0 81 -17.5t63.5 -38.5t60 -38.5t72.5 -17.5q89 0 147 98h6q-58 -184 -194 -184z" />
    <glyph glyph-name="uni0337.case" 
d="M-166 764l-428 -332l-16 25l424 331z" />
    <glyph glyph-name="uni0338.case" 
d="M-164 1343l-977 -1404l-28 22l972 1407z" />
    <glyph glyph-name="dieresis.case" horiz-adv-x="815" 
d="M250 1511q-34 0 -54 20t-20 52q0 39 28.5 66.5t69.5 27.5q32 0 52 -20t20 -51q0 -38 -28 -66.5t-68 -28.5zM555 1511q-32 0 -52 20t-20 52q0 38 28.5 66t68.5 28q32 0 51.5 -20t19.5 -51q0 -39 -27.5 -67t-68.5 -28z" />
    <glyph glyph-name="grave.case" horiz-adv-x="663" 
d="M426 1444h-10l-240 282v5h193z" />
    <glyph glyph-name="acute.case" horiz-adv-x="663" 
d="M184 1444h-10l176 287h203v-5z" />
    <glyph glyph-name="circumflex.case" horiz-adv-x="911" 
d="M467 1731h121l145 -287h-10l-205 194l-334 -194h-10z" />
    <glyph glyph-name="caron.case" horiz-adv-x="911" 
d="M186 1731l205 -195l334 195h10l-293 -287h-120l-144 287h8z" />
    <glyph glyph-name="ring.case" horiz-adv-x="686" 
d="M326 1378q-67 0 -109.5 44.5t-42.5 111.5q0 83 60.5 145t144.5 62q68 0 109.5 -42.5t41.5 -109.5q0 -84 -59 -147.5t-145 -63.5zM328 1419q64 0 110.5 50t46.5 118q0 50 -28.5 81.5t-77.5 31.5q-65 0 -112.5 -49.5t-47.5 -116.5q0 -50 30 -82.5t79 -32.5z" />
    <glyph glyph-name="tilde.case" horiz-adv-x="954" 
d="M610 1485q-40 0 -76.5 17.5t-60.5 38.5t-60.5 38.5t-76.5 17.5q-96 0 -150 -96h-6q58 182 195 182q43 0 81.5 -17.5t63 -38.5t59.5 -38.5t72 -17.5q90 0 148 98h6q-58 -184 -195 -184z" />
    </font>
</defs>
</svg>
