<?xml version="1.0" standalone="no"?>
<!DOCTYPE svg PUBLIC "-//W3C//DTD SVG 1.1//EN" "http://www.w3.org/Graphics/SVG/1.1/DTD/svg11.dtd" >
<svg xmlns="http://www.w3.org/2000/svg" xmlns:xlink="http://www.w3.org/1999/xlink" version="1.1">
<metadata>
Created by FontForge 20170731 at Thu Jan 13 22:27:52 2022
 By Aleksey,,,
Copyright (c) 2020 by Latinotype Ltda. All rights reserved.
</metadata>
<defs>
<font id="MixtaEssSharp-Light" horiz-adv-x="0" >
  <font-face 
    font-family="Mixta Ess Sharp Light"
    font-weight="350"
    font-stretch="normal"
    units-per-em="2048"
    panose-1="0 0 4 0 0 0 0 0 0 0"
    ascent="1638"
    descent="-410"
    x-height="918"
    cap-height="1307"
    bbox="-1169 -440 4520 1741"
    underline-thickness="102"
    underline-position="-307"
    unicode-range="U+0020-FB02"
  />
<missing-glyph horiz-adv-x="1085" 
d="M102 0v1495h881v-1495h-881zM850 1423h-614l307 -587zM184 150l314 598l-314 598v-1196zM901 1346l-311 -598l311 -598v1196zM850 72l-307 587l-307 -587h614z" />
    <glyph glyph-name="fi" unicode="fi" horiz-adv-x="1032" 
d="M844 918v-871q15 -4 64 -16.5t77 -20.5v-10h-397v10q11 3 143 37v842h-426v-842q81 -15 166 -37v-10h-422v10q48 16 144 37v842h-144v10l144 31v157q0 167 101 265t257 98q143 0 222 -46.5t79 -125.5q0 -45 -25.5 -69.5t-66.5 -24.5l-96 209q-47 30 -115 30
q-116 -1 -180 -82.5t-64 -224.5v-198h539z" />
    <glyph glyph-name="fl" unicode="fl" horiz-adv-x="1032" 
d="M834 1425h10v-1378q125 -32 143 -37v-10h-397v10q11 3 143 37v1227q-34 81 -82.5 115t-115.5 34q-110 -2 -170 -77.5t-60 -215.5v-212h252v-29h-252v-842q81 -15 166 -37v-10h-422v10q48 16 144 37v842h-144v10l144 31v172q0 164 97.5 256t246.5 92q152 0 249 -100z" />
    <glyph glyph-name=".notdef" horiz-adv-x="1085" 
d="M102 0v1495h881v-1495h-881zM850 1423h-614l307 -587zM184 150l314 598l-314 598v-1196zM901 1346l-311 -598l311 -598v1196zM850 72l-307 587l-307 -587h614z" />
    <glyph glyph-name=".null" 
 />
    <glyph glyph-name="nonmarkingreturn" horiz-adv-x="682" 
 />
    <glyph glyph-name="space" unicode=" " horiz-adv-x="458" 
 />
    <glyph glyph-name="exclam" unicode="!" horiz-adv-x="452" 
d="M236 340h-19l-61 1090h143zM227 -16q-42 0 -69 27t-27 69t27 69t69 27q41 0 69 -27.5t28 -68.5t-28 -68.5t-69 -27.5z" />
    <glyph glyph-name="quotedbl" unicode="&#x22;" horiz-adv-x="598" 
d="M172 979h-12l-78 451h160zM442 979h-14l-76 451h158z" />
    <glyph glyph-name="numbersign" unicode="#" horiz-adv-x="1153" 
d="M1096 887l-6 -33h-269l-67 -389h268l-6 -31h-268l-76 -434h-31l76 434h-359l-75 -434h-33l76 434h-267l7 31h266l67 389h-264l4 33h267l73 420h33l-74 -420h359l73 420h31l-74 -420h269zM365 465h358l68 389h-359z" />
    <glyph glyph-name="dollar" unicode="$" horiz-adv-x="948" 
d="M870 328q0 -159 -103.5 -248t-277.5 -98v-207h-28v205h-12q-200 0 -349 79q-3 167 0 336h13l129 -327q82 -58 223 -58q147 0 231 74.5t84 208.5q0 78 -36.5 137t-95.5 97t-129.5 70.5t-141.5 67t-130 76.5t-95.5 109.5t-36.5 155.5q0 153 103 237t269 84v205h29v-205
q175 -6 305 -88q0 -162 -8 -321h-10l-123 315q-92 63 -195 63q-131 0 -205.5 -67t-74.5 -185q0 -58 22.5 -105t61 -79.5t88.5 -60t105.5 -51.5t110.5 -50t105 -59.5t88.5 -74.5t61 -101.5t22.5 -134.5z" />
    <glyph glyph-name="percent" unicode="%" horiz-adv-x="1482" 
d="M1118 1423l-719 -1554l-28 14l712 1555zM344 733q-121 0 -205 86t-84 209q0 126 83.5 212.5t205.5 86.5t205.5 -86.5t83.5 -212.5q0 -124 -83.5 -209.5t-205.5 -85.5zM344 756q83 0 135.5 75t52.5 199t-53 200.5t-135 76.5q-84 0 -136 -76.5t-52 -200.5t52 -199t136 -75z
M1139 -20q-121 0 -205 85.5t-84 208.5q0 126 83.5 212.5t205.5 86.5q121 0 203.5 -86.5t82.5 -212.5q0 -123 -82.5 -208.5t-203.5 -85.5zM1139 2q83 0 135.5 75t52.5 199t-53 200.5t-135 76.5q-84 0 -137.5 -76.5t-53.5 -200.5q0 -123 53.5 -198.5t137.5 -75.5z" />
    <glyph glyph-name="ampersand" unicode="&#x26;" horiz-adv-x="1363" 
d="M1190 662l-205 -369l-24 -43l165 -199q21 -6 73.5 -20t76.5 -21l2 -10h-250l-133 158q-148 -178 -365 -178q-184 0 -307 104t-123 266q0 132 86 233.5t236 147.5q-64 87 -90.5 151t-26.5 132q0 142 100.5 227.5t272.5 85.5q91 0 181.5 -24t158.5 -68q3 -66 -2 -309h-15
l-129 307q-80 63 -196 63q-111 0 -181.5 -64.5t-70.5 -180.5q0 -93 52.5 -190.5t191.5 -260.5l272 -326q2 3 6.5 10t8 13.5t6.5 11.5l190 353q-18 6 -72.5 23t-85.5 28v10h355v-10q-141 -46 -158 -51zM582 55q169 0 290 129l-292 348q-130 159 -144 179
q-96 -53 -149.5 -137.5t-53.5 -186.5q0 -150 98 -241t251 -91z" />
    <glyph glyph-name="quotesingle" unicode="'" horiz-adv-x="327" 
d="M172 981h-12l-78 449h160z" />
    <glyph glyph-name="parenleft" unicode="(" horiz-adv-x="620" 
d="M616 -279l-6 -14q-150 42 -269.5 163.5t-186 296.5t-66.5 370q0 321 144.5 555t377.5 299l6 -15q-187 -76 -297 -300.5t-110 -540.5q0 -292 108.5 -509t298.5 -305z" />
    <glyph glyph-name="parenright" unicode=")" horiz-adv-x="622" 
d="M12 -301l-6 12q185 86 296.5 302.5t111.5 529.5q0 318 -113.5 539t-294.5 294l6 15q153 -44 272 -163.5t185 -297.5t66 -385q0 -312 -148.5 -547t-374.5 -299z" />
    <glyph glyph-name="asterisk" unicode="*" horiz-adv-x="684" 
d="M348 1186l211 133l43 -125l-252 -16l193 -162l-105 -78l-96 233l-92 -233l-107 78l191 162l-248 14l39 127l213 -133l-62 244h134z" />
    <glyph glyph-name="plus" unicode="+" horiz-adv-x="1228" 
d="M629 659h377v-28h-377v-387h-29v387h-377v28h377v388h29v-388z" />
    <glyph glyph-name="comma" unicode="," horiz-adv-x="382" 
d="M61 -236l-6 9q86 70 109.5 134.5t-10.5 133.5l-54 102q36 45 86 45q43 0 68 -31.5t25 -82.5q0 -82 -59 -168t-159 -142z" />
    <glyph glyph-name="hyphen" unicode="-" horiz-adv-x="864" 
d="M741 467h-618v29h618v-29z" />
    <glyph glyph-name="period" unicode="." horiz-adv-x="415" 
d="M207 -4q-42 0 -69 27t-27 69q0 41 27.5 68.5t68.5 27.5q43 0 70.5 -27.5t27.5 -68.5q0 -43 -27.5 -69.5t-70.5 -26.5z" />
    <glyph glyph-name="slash" unicode="/" horiz-adv-x="532" 
d="M127 0h-31l312 1307h30z" />
    <glyph glyph-name="zero" unicode="0" horiz-adv-x="1275" 
d="M639 -20q-233 0 -385 185t-152 486q0 302 152 489t385 187q114 0 212.5 -48.5t170.5 -136t113 -214.5t41 -277q0 -301 -152 -486t-385 -185zM639 10q183 0 290 168.5t107 474.5t-107 474.5t-290 168.5t-291 -168.5t-108 -474.5t108 -474.5t291 -168.5z" />
    <glyph glyph-name="one" unicode="1" horiz-adv-x="589" 
d="M373 1325v-1274q131 -34 157 -41v-10h-456v10q136 35 180 41v1166l-191 14v10q121 42 310 84z" />
    <glyph glyph-name="two" unicode="2" horiz-adv-x="1044" 
d="M854 94l68 254h14q9 -185 6 -348h-862v68q121 96 212 176t182 176t148.5 182.5t93.5 184t36 192.5q0 151 -72.5 234t-196.5 83q-126 0 -229 -61l-113 -340h-14q-15 172 -18 342q163 90 374 90q182 0 294 -94t112 -270q0 -66 -20.5 -132t-52.5 -123.5t-87 -122
t-107.5 -116.5t-131.5 -118t-142 -115.5t-155 -119.5q-19 -15 -29 -22h690z" />
    <glyph glyph-name="three" unicode="3" horiz-adv-x="1013" 
d="M526 684q173 -18 279 -116t106 -251q0 -152 -120.5 -244.5t-319.5 -92.5q-214 0 -367 90q3 153 19 340h14l113 -338q94 -62 225 -62q133 0 216 80t83 225q0 182 -113 270t-301 70v33q90 13 156 35.5t118 61t78.5 97.5t26.5 138q0 137 -73 206.5t-181 69.5t-204 -63
l-113 -338h-14q-15 210 -17 342q165 90 346 90q171 0 281 -80.5t110 -226.5q0 -254 -348 -336z" />
    <glyph glyph-name="four" unicode="4" horiz-adv-x="1030" 
d="M784 1313v-860h183v-91h-183v-362h-116v362h-637v23l721 928h32zM668 453v706l-547 -706h547z" />
    <glyph glyph-name="five" unicode="5" horiz-adv-x="983" 
d="M477 795q199 0 308.5 -114t109.5 -298q0 -100 -37 -178.5t-101.5 -127t-145.5 -73t-175 -24.5q-187 0 -340 90q2 129 17 340h14l115 -338q94 -62 207 -62q134 0 221.5 87t87.5 253t-85 258t-255 92q-124 0 -242 -53l-29 10l84 650h541l57 129h15q7 -135 4 -224h-598
l-64 -491q59 34 137 54t154 20z" />
    <glyph glyph-name="six" unicode="6" horiz-adv-x="1067" 
d="M563 760q183 0 293.5 -111.5t110.5 -277.5q0 -171 -118.5 -281t-301.5 -110q-201 0 -321 154.5t-120 469.5q0 344 137.5 533.5t374.5 189.5q80 0 161.5 -22.5t144.5 -59.5q-3 -183 -17 -340h-14l-109 338q-82 53 -188 53q-346 0 -352 -684q110 148 319 148zM547 10
q132 0 206 92.5t74 253.5q0 175 -74.5 269t-217.5 94q-184 0 -291 -139q1 -304 76 -437t227 -133z" />
    <glyph glyph-name="seven" unicode="7" horiz-adv-x="903" 
d="M66 1307h794v-70l-459 -1237h-151l567 1212h-667l-68 -245h-10q-10 156 -6 340z" />
    <glyph glyph-name="eight" unicode="8" horiz-adv-x="1075" 
d="M643 672q150 -25 241 -119t91 -229q0 -151 -125.5 -247.5t-310.5 -96.5q-122 0 -221 42.5t-157.5 122t-58.5 179.5q0 135 90.5 229t239.5 119q-135 26 -214 112.5t-79 206.5q0 143 114 239.5t286 96.5t285.5 -96.5t113.5 -239.5q0 -120 -80 -206.5t-215 -112.5zM274 991
q0 -131 69 -218t196 -87t194.5 87t67.5 218q0 129 -71 217t-191 88q-121 0 -193 -88t-72 -217zM539 10q134 0 215.5 88.5t81.5 225.5q0 144 -81 238.5t-216 94.5q-137 0 -218 -94.5t-81 -238.5q0 -137 81.5 -225.5t217.5 -88.5z" />
    <glyph glyph-name="nine" unicode="9" horiz-adv-x="1064" 
d="M518 1327q96 0 175.5 -38.5t139 -115t92.5 -200t33 -283.5q0 -174 -37.5 -310t-105 -223t-159 -132t-201.5 -45q-171 0 -312 79q3 156 19 342h14l109 -338q75 -53 180 -53q166 0 259.5 167t94.5 525q-109 -147 -319 -147q-182 0 -292 111t-110 274q0 168 118 277.5
t302 109.5zM528 596q184 0 291 139q-3 293 -78 427t-223 134q-133 0 -207.5 -92.5t-74.5 -253.5q0 -170 75 -262t217 -92z" />
    <glyph glyph-name="colon" unicode=":" horiz-adv-x="444" 
d="M221 616q-41 0 -68.5 28t-27.5 69t27.5 68.5t68.5 27.5q42 0 69 -27t27 -69t-27 -69.5t-69 -27.5zM221 -4q-42 0 -69 27t-27 69q0 41 27.5 68.5t68.5 27.5q42 0 69 -27t27 -69q0 -43 -26.5 -69.5t-69.5 -26.5z" />
    <glyph glyph-name="semicolon" unicode=";" horiz-adv-x="475" 
d="M246 616q-41 0 -68.5 28t-27.5 69t27.5 68.5t68.5 27.5t68.5 -27.5t27.5 -68.5t-27.5 -69t-68.5 -28zM111 -236l-7 9q86 71 110 135t-11 133l-53 102q36 45 86 45q43 0 67.5 -31.5t24.5 -82.5q0 -82 -58.5 -168.5t-158.5 -141.5z" />
    <glyph glyph-name="less" unicode="&#x3c;" horiz-adv-x="1228" 
d="M197 610v31l772 338v-33l-742 -321l742 -322v-33z" />
    <glyph glyph-name="equal" unicode="=" horiz-adv-x="1228" 
d="M1006 836h-783v28h783v-28zM1006 426h-783v29h783v-29z" />
    <glyph glyph-name="greater" unicode="&#x3e;" horiz-adv-x="1228" 
d="M1001 625l-741 321v33l772 -338v-31l-772 -340v33z" />
    <glyph glyph-name="question" unicode="?" horiz-adv-x="884" 
d="M406 1440q193 0 305 -99.5t112 -261.5q0 -143 -90 -239t-256 -164l-61 -336h-19l-55 305q182 79 264 180t82 254q0 158 -76.5 244t-201.5 86q-123 0 -203 -72l-111 -340h-14q-13 191 -16 342q147 101 340 101zM406 176q42 0 69 -27t27 -69t-27 -69t-69 -27
q-41 0 -69 27.5t-28 68.5t28 68.5t69 27.5z" />
    <glyph glyph-name="at" unicode="@" horiz-adv-x="1476" 
d="M967 748l63 61h8l-59 -469q-19 -162 92 -162q56 0 99 43t66 112.5t34.5 143.5t11.5 148q0 218 -120 344.5t-355 126.5q-128 0 -241 -48t-197.5 -135t-133.5 -219t-49 -291q0 -131 39.5 -235.5t109 -172.5t163.5 -104t204 -36q165 0 336 77l11 -28q-176 -78 -351 -78
q-119 0 -228 39.5t-194 112t-135.5 186.5t-50.5 252q0 129 41 243t111 198t161.5 145.5t195.5 92.5t210 31q259 0 413 -146.5t154 -381.5q0 -83 -20.5 -162t-58.5 -144.5t-100.5 -105t-139.5 -39.5q-130 0 -191 93q-89 -105 -219 -105q-106 0 -171.5 73.5t-65.5 213.5
q0 94 31 169.5t82 122t112 71t125 24.5q66 0 109.5 -13.5t97.5 -47.5zM684 184q99 0 174 86l55 459q-50 53 -149 53q-95 0 -165.5 -96t-70.5 -268q0 -122 44 -178t112 -56z" />
    <glyph glyph-name="A" unicode="A" horiz-adv-x="1261" 
d="M618 1321h33l467 -1268q56 -11 150 -43v-10h-434v10q99 30 157 43l-133 369h-545l-135 -361q67 -18 160 -51v-10h-348v10q93 35 153 51zM846 453l-258 706l-262 -706h520z" />
    <glyph glyph-name="B" unicode="B" horiz-adv-x="1132" 
d="M680 696q166 -12 267.5 -105t101.5 -235q0 -168 -131.5 -262t-354.5 -94h-500v10q93 26 158 41v1202q-144 38 -158 43v11h506q183 0 289.5 -79.5t106.5 -215.5q0 -210 -285 -316zM551 1276h-213v-578h289q101 51 157 133.5t56 182.5q0 122 -76 192t-213 70zM561 31
q176 0 269.5 79t93.5 232t-90.5 239.5t-249.5 86.5h-246v-613q55 -24 223 -24z" />
    <glyph glyph-name="C" unicode="C" horiz-adv-x="1181" 
d="M950 96l117 297h14q9 -174 6 -299q-171 -114 -405 -114q-126 0 -234.5 47t-187.5 132.5t-123.5 212.5t-44.5 281q0 309 167.5 491.5t432.5 182.5q212 0 383 -88q0 -171 -8 -319h-12l-117 297q-92 79 -248 79q-212 0 -336.5 -166.5t-124.5 -476.5q0 -307 122.5 -475
t326.5 -168q84 0 156 24.5t116 61.5z" />
    <glyph glyph-name="D" unicode="D" horiz-adv-x="1331" 
d="M63 1307h523q131 0 247.5 -42.5t207.5 -122t144.5 -205.5t53.5 -282q0 -161 -54.5 -288t-148.5 -206t-214 -120t-257 -41h-499v10q135 37 155 41v1202q-94 23 -158 43v11zM551 31q262 0 409.5 161.5t147.5 454.5q0 155 -43.5 277.5t-118.5 198t-170 114.5t-203 39h-235
v-1219q94 -26 213 -26z" />
    <glyph glyph-name="E" unicode="E" horiz-adv-x="1122" 
d="M872 31l123 372h13q11 -214 8 -403h-953v10q128 35 158 41v1202q-94 23 -158 43v11h930q0 -232 -8 -385h-12l-123 354h-512v-596h330q33 122 67 207h13v-445h-13q-41 107 -67 207h-330v-598l90 -20h444z" />
    <glyph glyph-name="F" unicode="F" horiz-adv-x="1030" 
d="M63 1307h914q4 -218 -8 -385h-13l-122 354h-496v-623h324q45 148 69 207h12v-446h-12q-24 59 -69 207h-324v-570q39 -6 180 -41v-10h-455v10q128 35 158 41v1202q-94 23 -158 43v11z" />
    <glyph glyph-name="G" unicode="G" horiz-adv-x="1261" 
d="M784 575v11h426v-11q-65 -26 -114 -40v-555h-11l-51 86q-156 -86 -340 -86q-268 0 -434 181.5t-166 489.5q0 156 45.5 283.5t126.5 213.5t193.5 132.5t245.5 46.5q212 0 382 -88q0 -171 -8 -319h-12l-117 297q-92 79 -248 79q-220 0 -345.5 -166t-125.5 -475
q0 -310 125.5 -477.5t339.5 -167.5q178 0 287 86v439q-121 20 -199 40z" />
    <glyph glyph-name="H" unicode="H" horiz-adv-x="1388" 
d="M893 1307h430v-11q-43 -14 -156 -43v-1202q44 -9 156 -41v-10h-430v10q107 30 158 41v592h-713v-592q34 -7 158 -41v-10h-430v10q105 31 155 41v1202q-101 25 -155 43v11h430v-11q-43 -14 -158 -43v-579h713v579q-123 31 -158 43v11z" />
    <glyph glyph-name="I" unicode="I" horiz-adv-x="559" 
d="M63 1307h433v-11q-77 -23 -158 -43v-1202q11 -2 158 -41v-10h-433v10q128 35 158 41v1202q-94 23 -158 43v11z" />
    <glyph glyph-name="J" unicode="J" horiz-adv-x="870" 
d="M377 1294v13h446v-11q-37 -12 -151 -43v-905q0 -173 -101 -270.5t-260 -97.5q-158 0 -262 81q-3 151 6 324h11l131 -336q51 -41 118 -41q117 1 177.5 80.5t60.5 230.5v934q-135 31 -176 41z" />
    <glyph glyph-name="K" unicode="K" horiz-adv-x="1269" 
d="M1034 1245l-387 -512l486 -680q33 -8 80 -22.5t69 -20.5v-10h-426v10q85 24 139 37l-434 600h-223v-596q18 -4 43.5 -10.5t59 -16t51.5 -14.5v-10h-426v10q119 34 155 41v1202q-92 22 -155 43v11h426v-11q-94 -28 -154 -43v-573h227l428 565q-77 22 -145 51v11h344v-11
q-70 -29 -158 -51z" />
    <glyph glyph-name="L" unicode="L" horiz-adv-x="1048" 
d="M852 31l123 403h12q12 -222 8 -434h-932v10q128 35 158 41v1202q-94 23 -158 43v11h433v-11q-77 -23 -158 -43v-1202l90 -20h424z" />
    <glyph glyph-name="M" unicode="M" horiz-adv-x="1658" 
d="M1362 1249l131 -1198q49 -10 149 -41v-10h-425v10q97 31 157 41l-117 1104h-2l-454 -1130h-25l-452 1142h-2l-115 -1106q74 -17 174 -51v-10h-369v10q143 47 160 51l125 1170l-8 16q-91 21 -180 49v11h288l437 -1112l444 1112h256v-11q-37 -11 -162 -43z" />
    <glyph glyph-name="N" unicode="N" horiz-adv-x="1327" 
d="M920 1296v11h354v-11q-13 -4 -74 -24t-86 -27v-1245h-33l-825 1169v-1108l160 -51v-10h-355v10l160 51v1153l-133 82v11h215l778 -1112v1050z" />
    <glyph glyph-name="O" unicode="O" horiz-adv-x="1370" 
d="M684 -20q-267 0 -428.5 183.5t-161.5 487.5q0 306 161.5 491t428.5 185t429.5 -185t162.5 -491q0 -304 -161.5 -487.5t-430.5 -183.5zM686 10q217 0 335 166.5t118 476.5t-118 476.5t-337 166.5q-217 0 -335 -166.5t-118 -476.5t118 -476.5t337 -166.5z" />
    <glyph glyph-name="P" unicode="P" horiz-adv-x="1073" 
d="M571 565h-233v-514q75 -14 176 -41v-10h-448v10q71 22 155 41v1202q-78 17 -164 43v11h521q126 0 227.5 -42.5t163 -128t61.5 -200.5q0 -91 -37.5 -163t-101.5 -116.5t-146 -68t-174 -23.5zM338 1276v-680h242q157 0 240 82.5t83 239.5q0 176 -96 267t-252 91h-217z" />
    <glyph glyph-name="Q" unicode="Q" horiz-adv-x="1378" 
d="M1286 651q0 -139 -36 -255.5t-100 -197.5t-148.5 -133.5t-184.5 -72.5l373 -293v-4l-115 -76l-303 365q-50 -4 -80 -4q-122 0 -229.5 43.5t-190 125.5t-130.5 212t-48 292q0 160 47 289.5t128 212.5t187.5 127.5t229.5 44.5q96 0 184.5 -27t164.5 -83t131.5 -135
t87.5 -190t32 -241zM225 668q0 -166 35.5 -293.5t99.5 -206t149 -118.5t189 -40q217 0 336 163t119 464q0 326 -128 492.5t-343 166.5q-220 0 -338.5 -163.5t-118.5 -464.5z" />
    <glyph glyph-name="R" unicode="R" horiz-adv-x="1150" 
d="M707 614l335 -561q44 -10 144 -43v-10h-408v10q16 4 61 17t72 20l-325 561h-248v-557q74 -16 164 -41v-10h-439v10q61 19 158 41v1202q-10 3 -68.5 18.5t-89.5 24.5v11h506q174 0 290 -89t116 -245q0 -132 -91 -218t-247 -130q13 -1 70 -11zM551 1276h-213v-637h260
q124 50 187 127t63 199q0 154 -79 232.5t-218 78.5z" />
    <glyph glyph-name="S" unicode="S" horiz-adv-x="1007" 
d="M473 -20q-203 0 -360 79q-3 167 0 336h12l131 -327q85 -58 236 -58q153 0 240 74.5t87 208.5q0 61 -23.5 111t-63.5 84.5t-92 63.5t-109.5 53.5t-115 50t-109.5 57.5t-92 71t-63.5 95.5t-23.5 126.5q0 153 107 237t280 84q201 0 346 -88q0 -162 -8 -321h-12l-123 315
q-100 63 -205 63q-138 0 -216.5 -67t-78.5 -185q0 -74 38.5 -129.5t99.5 -91.5t135 -67t148 -66.5t135 -79.5t99.5 -116t38.5 -166q0 -168 -121 -258t-317 -90z" />
    <glyph glyph-name="T" unicode="T" horiz-adv-x="1140" 
d="M51 1307h1041q0 -213 -9 -385h-12l-123 354h-319v-1225q42 -7 164 -41v-10h-445v10q113 32 164 41v1225h-317l-125 -354h-13q-9 180 -6 385z" />
    <glyph glyph-name="U" unicode="U" horiz-adv-x="1298" 
d="M905 1296v11h355v-11l-162 -51v-825q0 -203 -112 -321.5t-327 -118.5q-221 0 -340.5 120.5t-119.5 325.5v827q-72 18 -156 43v11h430v-11q-59 -19 -156 -43v-837q-2 -181 92.5 -289.5t274.5 -108.5q184 0 282.5 107t98.5 295v825q-118 37 -160 51z" />
    <glyph glyph-name="V" unicode="V" horiz-adv-x="1234" 
d="M897 1296v11h348v-11q-26 -11 -149 -51l-465 -1265h-27l-471 1273q-81 21 -139 43v11h428v-11q-63 -19 -164 -43l406 -1097l395 1089q-73 20 -162 51z" />
    <glyph glyph-name="W" unicode="W" horiz-adv-x="1767" 
d="M1432 1296v11h346v-11q-62 -24 -150 -51l-397 -1255h-31l-301 968l-324 -968h-28l-418 1263q-81 21 -139 43v11h428v-11q-63 -19 -164 -43l352 -1079l277 836l-78 243q-101 29 -139 43v11h430v-11q-75 -22 -158 -43l322 -1085l333 1077q-69 19 -161 51z" />
    <glyph glyph-name="X" unicode="X" horiz-adv-x="1253" 
d="M674 715l434 -664q22 -6 73.5 -20.5t73.5 -20.5v-10h-434v10q53 16 152 39l-379 578l-387 -566q19 -7 71.5 -24t83.5 -27v-10h-354v10q39 12 160 51l407 594l-395 605q-132 34 -139 36v11h426v-11q-48 -14 -148 -41l336 -512l336 502q-16 5 -70 22.5t-85 28.5v11h356v-11
q-17 -5 -52 -16.5t-63 -20.5t-47 -14z" />
    <glyph glyph-name="Y" unicode="Y" horiz-adv-x="1214" 
d="M852 1296v11h360v-11q-76 -30 -149 -49l-397 -721v-475q13 -2 176 -41v-10h-471v10q131 33 176 41v461l-406 743q-70 19 -129 41v11h430v-11q-51 -17 -163 -43l366 -694l379 688q-93 21 -172 49z" />
    <glyph glyph-name="Z" unicode="Z" horiz-adv-x="1093" 
d="M864 31l123 403h12q11 -207 7 -434h-938v20l790 1256h-616l-119 -354h-12q-12 178 -9 385h895v-21l-796 -1255h663z" />
    <glyph glyph-name="bracketleft" unicode="[" horiz-adv-x="520" 
d="M184 1395h289v-19h-182v-1624h182v-18h-289v1661z" />
    <glyph glyph-name="backslash" unicode="\" horiz-adv-x="532" 
d="M438 0h-32l-312 1307h33z" />
    <glyph glyph-name="bracketright" unicode="]" horiz-adv-x="520" 
d="M47 1376v19h289v-1661h-289v18h182v1624h-182z" />
    <glyph glyph-name="asciicircum" unicode="^" horiz-adv-x="1228" 
d="M545 1307h139l188 -514h-10l-246 391l-247 -391h-11z" />
    <glyph glyph-name="underscore" unicode="_" horiz-adv-x="747" 
d="M748 -338h-748v29h748v-29z" />
    <glyph glyph-name="grave" unicode="`" horiz-adv-x="632" 
d="M469 1073h-10l-295 350v7h168z" />
    <glyph glyph-name="a" unicode="a" horiz-adv-x="937" 
d="M918 51l4 -6q-51 -65 -129 -65q-60 0 -97 38.5t-37 110.5v10q-133 -159 -323 -159q-112 0 -179 56t-67 154q0 133 138 214.5t429 99.5v121q0 135 -52.5 210.5t-153.5 75.5q-100 0 -177 -53l-102 -246h-10q-19 152 -23 248q162 78 312 78q86 0 149 -26t99.5 -72t53.5 -104
t17 -128v-475q0 -100 76 -100q32 0 72 18zM377 27q153 0 280 151v297q-448 -31 -448 -280q0 -81 46 -124.5t122 -43.5z" />
    <glyph glyph-name="b" unicode="b" horiz-adv-x="1030" 
d="M567 938q171 0 275 -117.5t104 -339.5q0 -127 -36 -224.5t-99.5 -157t-146 -89.5t-179.5 -30q-139 0 -266 94l-57 -88h-10v1337l-148 37v10q134 40 258 60v-644q124 152 305 152zM483 8q161 0 251.5 112.5t90.5 328.5q0 444 -297 444q-152 0 -264 -145v-639
q38 -47 95 -74t124 -27z" />
    <glyph glyph-name="c" unicode="c" horiz-adv-x="901" 
d="M817 141l6 -6q-52 -75 -135.5 -115t-185.5 -40q-188 0 -303 129.5t-115 339.5q0 214 121.5 351.5t312.5 137.5q158 0 305 -78q-6 -131 -20 -248h-10l-101 242q-75 57 -180 57q-136 0 -222.5 -121.5t-86.5 -310.5q0 -195 96.5 -312.5t257.5 -117.5q69 0 138 24.5t122 67.5
z" />
    <glyph glyph-name="d" unicode="d" horiz-adv-x="1064" 
d="M1026 51l6 -8q-54 -63 -129 -63q-62 0 -98.5 38.5t-36.5 108.5q-123 -147 -305 -147q-169 0 -273 118.5t-104 337.5q0 125 36 223t99 158t144.5 90.5t177.5 30.5q114 0 223 -59v444l-150 37v10q138 39 263 60v-1297q0 -100 75 -100q32 0 72 18zM502 25q152 0 264 139v647
q-95 98 -227 98q-155 0 -243.5 -113.5t-88.5 -338.5q0 -216 79 -324t216 -108z" />
    <glyph glyph-name="e" unicode="e" horiz-adv-x="929" 
d="M844 143l6 -6q-112 -157 -332 -157q-200 0 -317 130.5t-117 348.5q0 118 35.5 212t94.5 150.5t131.5 86.5t150.5 30q155 0 251.5 -108t96.5 -277v-29h-641v-20q0 -227 99 -341t269 -114q158 0 273 94zM485 911q-115 0 -192.5 -91.5t-87.5 -266.5h516q0 177 -62 267.5
t-174 90.5z" />
    <glyph glyph-name="f" unicode="f" horiz-adv-x="604" 
d="M502 1450q125 0 225 -59q-5 -115 -20 -244h-11l-100 250q-44 26 -94 26q-90 -2 -143.5 -78.5t-53.5 -214.5v-212h264v-29h-264v-842q98 -14 209 -35v-12h-465v10q48 16 144 37v842h-144v10l144 31v172q0 163 90 255.5t219 92.5z" />
    <glyph glyph-name="g" unicode="g" horiz-adv-x="978" 
d="M938 989v-100h-252q67 -41 106 -109t39 -153q0 -143 -100 -229.5t-250 -86.5q-124 0 -209 58q-110 -42 -110 -133q0 -53 40.5 -85t114.5 -32h320q133 0 211 -67.5t78 -176.5q0 -97 -61.5 -167.5t-162 -104t-227.5 -33.5q-189 0 -301.5 63t-112.5 183q0 79 52.5 130.5
t132.5 78.5q-64 11 -106 58.5t-42 115.5q0 59 36.5 108.5t109.5 79.5q-111 87 -111 238q0 143 100.5 230t249.5 87q86 0 162 -31q112 40 293 78zM713 629q0 135 -63 210.5t-167 75.5t-166.5 -75.5t-62.5 -212.5q0 -136 62.5 -212.5t166.5 -76.5q103 0 166.5 77t63.5 214z
M612 23h-313q-131 -47 -131 -187q0 -113 82.5 -176t228.5 -63q163 0 261 61t98 172q0 85 -61 139t-165 54z" />
    <glyph glyph-name="h" unicode="h" horiz-adv-x="1103" 
d="M930 616v-569q20 -4 139 -37v-10h-395v10q11 3 143 37v569q0 136 -61 206.5t-178 70.5q-156 0 -281 -148v-698q94 -24 141 -37v-10h-395v10q28 8 79 21t62 16v1276l-143 37v10q150 43 254 60v-648q138 156 332 156q144 0 223.5 -85t79.5 -237z" />
    <glyph glyph-name="i" unicode="i" horiz-adv-x="503" 
d="M258 1165q-37 0 -61.5 24.5t-24.5 61.5t24.5 61.5t61.5 24.5q38 0 62 -24.5t24 -61.5t-24 -61.5t-62 -24.5zM315 924v-877l142 -37v-10h-398v10q3 1 144 37v768l-144 41v10q131 37 256 58z" />
    <glyph glyph-name="j" unicode="j" horiz-adv-x="450" 
d="M242 1165q-38 0 -62 24.5t-24 61.5t24 61.5t62 24.5t62 -24.5t24 -61.5t-24 -61.5t-62 -24.5zM184 -129v944l-141 41v10q133 38 254 58v-994q0 -281 -281 -313l-4 18q86 16 129 70.5t43 165.5z" />
    <glyph glyph-name="k" unicode="k" horiz-adv-x="1024" 
d="M797 848l-240 -275l342 -526q36 -9 131 -37v-10h-379v10q34 12 125 37l-297 455l-182 -125v-330q93 -24 139 -37v-10h-393v10q28 8 79 21t62 16v1276l-141 37v10q150 43 254 60v-1016l186 125l273 309q-94 40 -131 59v11h340v-11q-86 -35 -168 -59z" />
    <glyph glyph-name="l" unicode="l" horiz-adv-x="491" 
d="M303 1430v-1383q15 -4 64 -16.5t77 -20.5v-10h-395v10q20 6 141 37v1274l-141 39v10q154 44 254 60z" />
    <glyph glyph-name="m" unicode="m" horiz-adv-x="1687" 
d="M1513 621v-574l142 -37v-10h-398v10q3 1 144 37v571q0 133 -58 204t-163 71q-140 0 -269 -137v-709l142 -37v-10h-398v10q3 1 144 37v610q0 109 -58 172.5t-166 63.5q-141 0 -266 -148v-698q15 -4 64.5 -16.5t77.5 -20.5v-10h-398v10q3 1 144 37v770l-144 41v10
q135 38 256 58l-10 -154q134 166 324 166q102 0 169.5 -44.5t98.5 -121.5q77 87 159 126.5t183 39.5q128 0 204 -84t76 -233z" />
    <glyph glyph-name="n" unicode="n" horiz-adv-x="1114" 
d="M940 616v-569q25 -5 141 -37v-10h-397v10q11 3 143 37v569q0 136 -60.5 206.5t-176.5 70.5q-156 0 -281 -148v-698q15 -4 64.5 -16.5t77.5 -20.5v-10h-398v10q3 1 144 37v770l-144 41v10q135 38 256 58l-10 -154q137 166 338 166q144 0 223.5 -85t79.5 -237z" />
    <glyph glyph-name="o" unicode="o" horiz-adv-x="1042" 
d="M522 -20q-193 0 -315.5 132t-122.5 347q0 214 122.5 346.5t315.5 132.5q192 0 315.5 -132.5t123.5 -346.5q0 -215 -123.5 -347t-315.5 -132zM522 8q148 0 231 117t83 334t-83 333.5t-231 116.5q-149 0 -232 -116t-83 -334t83 -334.5t232 -116.5z" />
    <glyph glyph-name="p" unicode="p" horiz-adv-x="1064" 
d="M602 938q169 0 274 -119t105 -338q0 -127 -36 -224.5t-100 -157t-146 -89.5t-179 -30q-116 0 -223 59v-401q134 -27 172 -37v-11h-426v11q11 3 143 37v1179l-143 41v10q137 39 254 58l-10 -150q128 162 315 162zM518 8q160 0 251 112.5t91 328.5q0 230 -79 337t-220 107
q-152 0 -264 -145v-637q77 -103 221 -103z" />
    <glyph glyph-name="q" unicode="q" horiz-adv-x="1030" 
d="M879 924v-1286q12 -3 63.5 -16t79.5 -21v-11h-428v11q36 9 174 37v487q-118 -145 -303 -145q-171 0 -275 116.5t-104 339.5q0 126 36 223.5t99.5 157.5t146 90.5t179.5 30.5q126 0 268 -90l53 76h11zM506 25q150 0 260 137v647q-80 100 -219 100q-160 0 -250 -112.5
t-90 -327.5q0 -444 299 -444z" />
    <glyph glyph-name="r" unicode="r" horiz-adv-x="786" 
d="M598 938q70 0 143 -43q-7 -159 -22 -256h-8l-90 225q-31 27 -78 27q-60 0 -122.5 -40t-111.5 -112v-692q146 -34 158 -37v-10h-414v10q27 8 80 21t64 16v770l-144 41v10q135 38 256 58l-10 -156q125 168 299 168z" />
    <glyph glyph-name="s" unicode="s" horiz-adv-x="821" 
d="M375 -20q-168 0 -285 71q10 135 23 238h10l86 -238q81 -43 180 -43q110 0 177 47.5t67 139.5q0 58 -29 101.5t-76 69.5t-103.5 47.5t-112.5 44t-103 50.5t-76 75.5t-29 110.5q0 119 92.5 181.5t235.5 62.5q149 0 283 -74q-8 -109 -23 -229h-10l-88 227q-85 47 -166 47
q-106 0 -165.5 -44.5t-59.5 -125.5q0 -56 29 -97.5t75.5 -66.5t103 -46t113 -44t103 -52.5t75.5 -79.5t29 -117q0 -89 -51 -148.5t-128.5 -83.5t-176.5 -24z" />
    <glyph glyph-name="t" unicode="t" horiz-adv-x="638" 
d="M623 90l8 -8q-67 -102 -209 -102q-116 0 -178 65.5t-62 192.5v651h-139v10l147 33q6 16 38.5 112t54.5 146h10v-272h315v-29h-315v-656q0 -100 46.5 -152t133.5 -52q89 0 150 61z" />
    <glyph glyph-name="u" unicode="u" horiz-adv-x="1081" 
d="M1047 51l6 -8q-54 -63 -133 -63q-62 0 -100 38.5t-38 108.5v14q-120 -161 -311 -161q-139 0 -218 83t-79 232v524l-141 37v10q137 39 254 58v-627q0 -130 56 -201t165 -71q155 0 272 151v643l-139 37v10q136 39 252 58v-791q0 -100 80 -100q33 0 74 18z" />
    <glyph glyph-name="v" unicode="v" horiz-adv-x="1017" 
d="M721 907v11h293v-11q-71 -35 -131 -57l-357 -864h-22l-385 886q-42 11 -111 35v11h373v-11q-21 -8 -137 -41l309 -737l293 721q-110 49 -125 57z" />
    <glyph glyph-name="w" unicode="w" horiz-adv-x="1458" 
d="M1165 907v11h291v-11q-75 -34 -131 -57l-301 -862h-23l-268 747l-260 -747h-22l-336 884q-66 18 -109 35v11h367v-11q-45 -17 -133 -41l256 -719l266 771h20l267 -768l239 700q-78 33 -123 57z" />
    <glyph glyph-name="x" unicode="x" horiz-adv-x="999" 
d="M545 500l321 -453q119 -35 125 -37v-10h-387v10q84 25 139 37l-272 379l-281 -363q11 -5 56.5 -23.5t64.5 -29.5v-10h-291v10q64 31 132 53l301 390l-295 413q-85 22 -125 41v11h387v-11q-47 -18 -137 -41l243 -342l248 328q-6 3 -53.5 23t-65.5 32v11h291v-11
q-5 -3 -131 -53z" />
    <glyph glyph-name="y" unicode="y" horiz-adv-x="987" 
d="M705 907v11h278v-11q-88 -43 -119 -55l-557 -1288l-131 61v4q109 123 301 398l-373 847q-42 10 -94 33v11h350v-11q-76 -26 -127 -39l297 -710l297 694q-65 23 -122 55z" />
    <glyph glyph-name="z" unicode="z" horiz-adv-x="858" 
d="M676 31l92 243h8q22 -176 27 -274h-742v18l584 871l-432 -2l-92 -236h-10q-18 164 -25 267h686v-19l-584 -870z" />
    <glyph glyph-name="braceleft" unicode="{" horiz-adv-x="536" 
d="M326 309l-27 -305q-10 -104 35 -169.5t121 -84.5l39 -8l-2 -14l-39 4q-136 15 -207.5 98t-59.5 219l31 301q9 78 -37 131t-127 64v28q81 12 127 64.5t39 130.5l-29 303q-15 136 56 218.5t207 96.5l39 5l2 -15l-39 -8q-78 -18 -121.5 -84.5t-32.5 -169.5l27 -305
q10 -97 -45 -162.5t-158 -87.5q102 -21 157.5 -86.5t43.5 -163.5z" />
    <glyph glyph-name="bar" unicode="|" horiz-adv-x="397" 
d="M213 -307h-29v1737h29v-1737z" />
    <glyph glyph-name="braceright" unicode="}" horiz-adv-x="536" 
d="M346 1071l-29 -303q-7 -78 39 -130.5t127 -64.5v-28q-81 -11 -127 -64t-37 -131l29 -301q13 -136 -57.5 -219t-206.5 -98l-39 -4l-2 14l39 8q76 19 121 84.5t35 169.5l-29 305q-10 98 45.5 163.5t157.5 86.5q-102 22 -158 87.5t-47 162.5l29 305q11 103 -32.5 169.5
t-121.5 84.5l-39 8l2 15l39 -5q136 -14 206.5 -96.5t55.5 -218.5z" />
    <glyph glyph-name="asciitilde" unicode="~" horiz-adv-x="1228" 
d="M252 575h-23q7 61 67.5 97.5t139.5 36.5q60 0 124 -24.5t128.5 -48.5t124.5 -24q68 0 116.5 25.5t55.5 75.5h21q-7 -64 -64.5 -98.5t-136.5 -34.5q-73 0 -189 48t-186 48q-68 0 -119.5 -27t-58.5 -74z" />
    <glyph glyph-name="uni00A0" unicode="&#xa0;" horiz-adv-x="458" 
 />
    <glyph glyph-name="exclamdown" unicode="&#xa1;" horiz-adv-x="425" 
d="M213 745q-41 0 -68.5 28t-27.5 69t27.5 68.5t68.5 27.5q42 0 69 -27t27 -69t-27 -69.5t-69 -27.5zM285 -410h-144l60 979h24z" />
    <glyph glyph-name="cent" unicode="&#xa2;" horiz-adv-x="925" 
d="M567 260q68 0 137.5 25t122.5 67l7 -6q-51 -70 -129.5 -109t-174.5 -44v-216h-28v216q-186 3 -300 130t-114 328q0 205 121 339.5t313 137.5v215h29v-215q145 -6 283 -75q-5 -116 -21 -250h-10l-101 244q-73 55 -180 55q-130 0 -214.5 -119t-84.5 -301q0 -188 94.5 -305
t249.5 -117z" />
    <glyph glyph-name="sterling" unicode="&#xa3;" horiz-adv-x="1030" 
d="M915 350h11q10 -172 6 -350h-823v72q91 83 129 159.5t38 180.5q0 76 -20 168h-193l9 28h178q-5 20 -23 86.5t-25.5 98t-15.5 83.5t-8 95q0 110 55 193t140 123t186 40q176 0 326 -78q0 -144 -6 -323h-15l-123 315q-101 55 -184 55q-116 0 -188 -74.5t-72 -207.5
q0 -58 13.5 -125t35.5 -149.5t31 -131.5h379l-6 -28h-367q12 -70 12 -146q-1 -111 -50.5 -186.5t-158.5 -141.5h666z" />
    <glyph glyph-name="currency" unicode="&#xa4;" horiz-adv-x="1009" 
d="M760 410l131 -131l-19 -19l-131 131q-95 -92 -235 -92q-143 0 -236 90l-123 -123l-20 21l125 123q-84 90 -84 225q0 138 90 235l-137 142l18 18l144 -139q89 80 223 80q127 0 223 -80l135 133l21 -20l-133 -136q92 -92 92 -233q0 -131 -84 -225zM506 342q125 2 209 85.5
t84 207.5q0 127 -84 210t-209 85q-125 0 -209 -84t-84 -211q0 -125 84.5 -209.5t208.5 -83.5z" />
    <glyph glyph-name="yen" unicode="&#xa5;" horiz-adv-x="1280" 
d="M881 1296v11h360v-11q-73 -29 -151 -49l-398 -721v-16h236v-29h-236v-200h236v-31h-236v-199q30 -5 176 -41v-10h-471v10q145 36 178 41v199h-235v31h235v200h-235v29h235v2l-405 743q-79 21 -129 41v11h430v-11q-50 -16 -166 -43l369 -694l377 688q-87 20 -170 49z" />
    <glyph glyph-name="brokenbar" unicode="&#xa6;" horiz-adv-x="397" 
d="M213 768h-29v662h29v-662zM213 -307h-29v661h29v-661z" />
    <glyph glyph-name="section" unicode="&#xa7;" horiz-adv-x="876" 
d="M778 578q0 -204 -270 -263q52 -24 87.5 -45.5t70 -53.5t52 -75t17.5 -98q0 -86 -47.5 -143.5t-117 -81t-154.5 -23.5q-164 0 -283 72q5 103 19 237h10l90 -237q81 -43 178 -43q90 0 149.5 47t59.5 135q0 60 -29.5 106t-77.5 76t-105 56.5t-114.5 55.5t-105.5 63.5
t-77.5 89t-29.5 125.5q0 202 246 262q-96 45 -147.5 99t-51.5 144q0 119 89 181.5t231 62.5q145 0 272 -67q-17 -225 -18 -232h-10l-93 227q-77 43 -157 43q-103 0 -160 -43t-57 -122q0 -58 29.5 -102t76.5 -72.5t104 -53.5t114 -52.5t104 -61.5t76.5 -88t29.5 -125z
M469 334q98 24 154.5 79.5t56.5 137.5q0 24 -5 45.5t-11.5 38t-21.5 34.5t-24.5 29t-33 26t-34.5 22.5t-40.5 21.5t-40 18.5t-44 18.5t-42.5 18q-87 -25 -135.5 -82.5t-48.5 -134.5q0 -29 5.5 -54t18.5 -46.5t25 -38t36 -34t39.5 -28t47.5 -26t47 -22.5t51 -23z" />
    <glyph glyph-name="dieresis" unicode="&#xa8;" horiz-adv-x="808" 
d="M244 1174q-36 0 -58 22.5t-22 56.5q0 36 22 59t58 23t59 -23t23 -59q0 -34 -23 -56.5t-59 -22.5zM563 1174q-35 0 -57.5 22.5t-22.5 56.5q0 35 22.5 58.5t57.5 23.5q36 0 59 -23t23 -59q0 -34 -23 -56.5t-59 -22.5z" />
    <glyph glyph-name="copyright" unicode="&#xa9;" horiz-adv-x="1495" 
d="M748 1327q129 0 247 -48t207.5 -133t143 -213.5t53.5 -279.5q0 -152 -53.5 -280t-143 -213t-207.5 -132.5t-247 -47.5t-247 47.5t-208.5 132.5t-144.5 213t-54 280q0 151 54 279.5t144 213.5t208.5 133t247.5 48zM748 14q122 0 233.5 44.5t197 125t136.5 202.5t51 267
t-51 267t-136.5 202.5t-197 125t-233.5 44.5q-97 0 -188.5 -28t-169.5 -83t-136.5 -131t-91.5 -178.5t-33 -218.5t33 -218.5t91.5 -178.5t136.5 -131t169.5 -83t188.5 -28zM809 334q113 0 201 69l6 -6q-43 -61 -110.5 -94t-149.5 -33q-152 0 -245 103.5t-93 271.5
q0 173 98.5 283t255.5 110q127 0 240 -61q-2 -70 -17 -203h-8l-86 195q-56 41 -137 41q-106 0 -174 -92t-68 -240q0 -157 78 -250.5t209 -93.5z" />
    <glyph glyph-name="ordfeminine" unicode="&#xaa;" horiz-adv-x="708" 
d="M629 834l4 -7q-29 -39 -90 -39q-46 0 -74 24t-31 65q-73 -89 -190 -89q-70 0 -110 35t-40 97q0 174 338 194v78q0 158 -108 158q-46 0 -92 -27l-86 -166h-7q-10 99 -12 166q89 45 195 45q113 0 165 -55t52 -146v-288q0 -54 47 -54q15 0 39 9zM297 829q78 0 139 70v197
q-120 -10 -176.5 -54t-56.5 -112q0 -51 25.5 -76t68.5 -25z" />
    <glyph glyph-name="guillemotleft" unicode="&#xab;" horiz-adv-x="872" 
d="M451 739l14 -12l-272 -299l272 -299l-14 -12l-385 311zM741 739l13 -12l-271 -299l271 -299l-13 -12l-385 311z" />
    <glyph glyph-name="logicalnot" unicode="&#xac;" horiz-adv-x="1228" 
d="M977 631h-754v28h783v-342h-29v314z" />
    <glyph glyph-name="uni00AD" unicode="&#xad;" horiz-adv-x="864" 
d="M741 467h-618v29h618v-29z" />
    <glyph glyph-name="registered" unicode="&#xae;" horiz-adv-x="968" 
d="M483 1327q163 0 279.5 -112t116.5 -293q0 -180 -116.5 -292t-279.5 -112q-161 0 -277 112t-116 292q0 181 115.5 293t277.5 112zM483 549q98 0 180 44t133.5 130.5t51.5 198.5q0 169 -107 271.5t-258 102.5q-96 0 -178 -44t-133 -130.5t-51 -199.5q0 -167 106.5 -270
t255.5 -103zM561 911l109 -176q35 -14 55 -24v-6h-176v6q10 7 35 20l-103 180h-59v-178q38 -10 59 -22v-6h-192v6q20 12 55 22v400q-7 3 -26.5 11.5t-28.5 14.5v4h192q67 0 115.5 -31.5t48.5 -91.5q0 -45 -35 -76t-90 -44q19 -3 41 -9zM465 1143h-43v-209h65q41 12 58.5 36
t17.5 66q0 61 -25 84t-73 23z" />
    <glyph glyph-name="macron" unicode="&#xaf;" horiz-adv-x="946" 
d="M754 1243h-561v35h561v-35z" />
    <glyph glyph-name="degree" unicode="&#xb0;" horiz-adv-x="561" 
d="M281 958q-83 0 -138 56t-55 139t55 139t138 56t137.5 -55.5t54.5 -139.5t-54.5 -139.5t-137.5 -55.5zM281 991q68 0 111.5 46t43.5 116t-43.5 116t-111.5 46q-69 0 -113.5 -46.5t-44.5 -115.5t44.5 -115.5t113.5 -46.5z" />
    <glyph glyph-name="plusminus" unicode="&#xb1;" horiz-adv-x="1228" 
d="M629 1055v-293h377v-29h-377v-293h-29v293h-377v29h377v293h29zM1006 252h-783v29h783v-29z" />
    <glyph glyph-name="uni00B2" unicode="&#xb2;" horiz-adv-x="641" 
d="M528 1008h7q4 -140 4 -201h-459v47q81 65 131.5 111t102.5 104t77 114t25 113q0 75 -32 114.5t-89 39.5q-66 0 -105 -27l-79 -178h-7q-8 118 -8 174q82 51 201 51q97 0 156 -49t59 -141q0 -37 -16.5 -74.5t-38.5 -66t-65 -66.5t-74 -61.5t-89.5 -66.5t-89.5 -66h342z" />
    <glyph glyph-name="uni00B3" unicode="&#xb3;" horiz-adv-x="638" 
d="M336 1153q92 -10 146.5 -61t54.5 -123q0 -76 -62.5 -125t-171.5 -49t-199 53q4 100 11 176h6l78 -180q48 -29 106 -29q60 0 97.5 39t37.5 107q0 87 -54.5 135.5t-147.5 42.5v14q184 29 184 172q0 61 -31.5 93t-79.5 32q-44 0 -96 -27l-78 -178h-6q-6 58 -10 174
q86 51 188 51q96 0 152.5 -40t56.5 -109q0 -124 -182 -168z" />
    <glyph glyph-name="acute" unicode="&#xb4;" horiz-adv-x="636" 
d="M174 1073h-10l135 357h174v-7z" />
    <glyph glyph-name="uni00B5" unicode="&#xb5;" horiz-adv-x="1071" 
d="M1047 51l6 -8q-54 -63 -133 -63q-62 0 -100 38.5t-38 108.5v14q-120 -161 -305 -161q-129 0 -203 77v-391h-100v1153l-141 37v10q137 39 254 58v-656q0 -116 61 -179.5t158 -63.5q157 0 274 151v643l-139 37v10q136 39 252 58v-791q0 -100 80 -100q33 0 74 18z" />
    <glyph glyph-name="paragraph" unicode="&#xb6;" horiz-adv-x="1075" 
d="M522 1307h490v-11q-86 -26 -164 -43v-1253l-74 -43v1319h-135v-1380l-74 -43v663h-47q-94 0 -176.5 25t-146 72.5t-100 123t-36.5 170.5q0 96 37 173.5t101 126t147 74.5t178 26zM541 547h24v729h-20q-167 0 -264 -104t-97 -263q-2 -158 94 -260t263 -102z" />
    <glyph glyph-name="periodcentered" unicode="&#xb7;" horiz-adv-x="434" 
d="M217 522q-41 0 -68.5 27.5t-27.5 68.5t27.5 69t68.5 28t68.5 -28t27.5 -69t-27.5 -68.5t-68.5 -27.5z" />
    <glyph glyph-name="cedilla" unicode="&#xb8;" horiz-adv-x="702" 
d="M334 -440q-103 0 -170 61l6 6q63 -35 127 -35q65 0 104 30t39 81q0 50 -38.5 81t-108.5 34l-2 8l69 178h35l-53 -139q90 -1 143.5 -43t53.5 -109q0 -68 -57.5 -110.5t-147.5 -42.5z" />
    <glyph glyph-name="uni00B9" unicode="&#xb9;" horiz-adv-x="382" 
d="M248 1460v-624q33 -9 74 -25v-4h-250v4q40 15 86 25v548l-95 15v4q107 40 185 57z" />
    <glyph glyph-name="ordmasculine" unicode="&#xba;" horiz-adv-x="731" 
d="M365 788q-122 0 -199.5 79.5t-77.5 209.5q0 131 77.5 211t199.5 80q123 0 200.5 -80t77.5 -211q0 -130 -78 -209.5t-200 -79.5zM362 807q79 0 122.5 68t43.5 202q0 135 -42.5 203t-120.5 68t-121 -68t-43 -203t42 -202.5t119 -67.5z" />
    <glyph glyph-name="guillemotright" unicode="&#xbb;" horiz-adv-x="872" 
d="M119 727l12 12l385 -311l-385 -311l-12 12l270 299zM410 727l12 12l385 -311l-385 -311l-12 12l270 299z" />
    <glyph glyph-name="onequarter" unicode="&#xbc;" horiz-adv-x="819" 
d="M373 836v548l-92 15v4q111 42 184 57v-624q46 -14 74 -25v-4h-250v4q37 14 84 25zM719 645h-619v29h619v-29zM133 72l350 452h45v-413h95v-62h-95v-182h-90v182h-305v23zM440 111v315l-245 -315h245z" />
    <glyph glyph-name="onehalf" unicode="&#xbd;" horiz-adv-x="819" 
d="M373 836v548l-92 15v4q111 42 184 57v-624q46 -14 74 -25v-4h-250v4q37 14 84 25zM100 645v29h619v-29h-619zM580 -63l49 129h4q7 -115 4 -201h-459v47q81 65 131.5 111t102.5 104t77 114t25 113q0 75 -31.5 114.5t-87.5 39.5q-65 0 -104 -27l-82 -178h-4q-8 119 -10 174
q82 51 200 51q98 0 157.5 -49.5t59.5 -140.5q0 -37 -16.5 -74t-37.5 -65t-64.5 -66.5t-74 -61.5t-90 -67t-89.5 -67h340z" />
    <glyph glyph-name="threequarters" unicode="&#xbe;" horiz-adv-x="819" 
d="M627 963q0 -76 -63 -124t-173 -48q-107 0 -196 51q4 120 8 178h6l80 -180q36 -29 104 -29q60 0 98.5 38.5t38.5 104.5q0 87 -55.5 136t-148.5 43v14q184 29 184 172q0 62 -31.5 93.5t-79.5 31.5q-52 0 -96 -27l-78 -178h-6q-4 53 -8 174q83 51 188 51q94 0 150.5 -40
t56.5 -109q0 -125 -182 -168q93 -10 148 -60.5t55 -123.5zM100 645v29h619v-29h-619zM496 524h43v-413h96v-62h-96v-182h-90v182h-304v23zM207 111h244v315z" />
    <glyph glyph-name="questiondown" unicode="&#xbf;" horiz-adv-x="874" 
d="M471 745q-41 0 -68.5 28t-27.5 69t27.5 68.5t68.5 27.5q42 0 69 -27t27 -69t-27 -69.5t-69 -27.5zM672 -326l110 338h13q12 -143 16 -342q-146 -100 -340 -100q-193 0 -305.5 93t-112.5 247q0 248 353 373l59 288h16l56 -264q-180 -68 -263.5 -162.5t-83.5 -234.5
q0 -151 76 -230t203 -79q62 0 116 20.5t87 52.5z" />
    <glyph glyph-name="Agrave" unicode="&#xc0;" horiz-adv-x="1261" 
d="M713 1444h-11l-325 282v5h203zM618 1321h33l467 -1268q56 -11 150 -43v-10h-434v10q99 30 157 43l-133 369h-545l-135 -361q67 -18 160 -51v-10h-348v10q93 35 153 51zM846 453l-258 706l-262 -706h520z" />
    <glyph glyph-name="Aacute" unicode="&#xc1;" horiz-adv-x="1261" 
d="M575 1444h-10l133 287h203v-5zM618 1321h33l467 -1268q56 -11 150 -43v-10h-434v10q99 30 157 43l-133 369h-545l-135 -361q67 -18 160 -51v-10h-348v10q93 35 153 51zM846 453l-258 706l-262 -706h520z" />
    <glyph glyph-name="Acircumflex" unicode="&#xc2;" horiz-adv-x="1261" 
d="M567 1731h133l226 -287h-11l-280 194l-283 -194h-10zM618 1321h33l467 -1268q56 -11 150 -43v-10h-434v10q99 30 157 43l-133 369h-545l-135 -361q67 -18 160 -51v-10h-348v10q93 35 153 51zM846 453l-258 706l-262 -706h520z" />
    <glyph glyph-name="Atilde" unicode="&#xc3;" horiz-adv-x="1261" 
d="M778 1485q-49 0 -106 28l-114 56t-105 28q-89 0 -117 -102h-17q7 94 51 143.5t117 49.5q57 0 163 -56.5t163 -56.5q91 0 119 102h14q-14 -192 -168 -192zM618 1321h33l467 -1268q56 -11 150 -43v-10h-434v10q99 30 157 43l-133 369h-545l-135 -361q67 -18 160 -51v-10
h-348v10q93 35 153 51zM846 453l-258 706l-262 -706h520z" />
    <glyph glyph-name="Adieresis" unicode="&#xc4;" horiz-adv-x="1261" 
d="M475 1511q-37 0 -60.5 23.5t-23.5 58.5q0 37 23.5 60.5t60.5 23.5t60.5 -23.5t23.5 -60.5q0 -35 -23.5 -58.5t-60.5 -23.5zM795 1511q-37 0 -60.5 23.5t-23.5 58.5q0 37 23.5 60.5t60.5 23.5t60.5 -23.5t23.5 -60.5q0 -35 -23.5 -58.5t-60.5 -23.5zM618 1321h33
l467 -1268q56 -11 150 -43v-10h-434v10q99 30 157 43l-133 369h-545l-135 -361q67 -18 160 -51v-10h-348v10q93 35 153 51zM846 453l-258 706l-262 -706h520z" />
    <glyph glyph-name="Aring" unicode="&#xc5;" horiz-adv-x="1261" 
d="M633 1378q-77 0 -127.5 52t-50.5 131q0 78 50.5 129t127.5 51q78 0 129 -51t51 -129q0 -79 -51 -131t-129 -52zM633 1419q59 0 97 40.5t38 101.5q0 60 -37.5 99.5t-97.5 39.5q-59 0 -96 -39t-37 -100t37 -101.5t96 -40.5zM618 1321h33l467 -1268q56 -11 150 -43v-10h-434
v10q99 30 157 43l-133 369h-545l-135 -361q67 -18 160 -51v-10h-348v10q93 35 153 51zM846 453l-258 706l-262 -706h520z" />
    <glyph glyph-name="AE" unicode="&#xc6;" horiz-adv-x="1830" 
d="M1575 31l127 362h12q8 -153 8 -393h-931v10q114 33 157 41v371h-547l-227 -361q110 -32 168 -51v-10h-375v10q100 34 168 51l758 1192q-112 27 -160 43v11h977q0 -232 -8 -385h-12l-125 354h-500v-596h319q31 114 68 207h12v-445h-12q-44 116 -68 207h-319v-598l90 -20
h420zM948 1266h-10l-516 -813h526v813z" />
    <glyph glyph-name="Ccedilla" unicode="&#xc7;" horiz-adv-x="1181" 
d="M1087 94q-168 -111 -397 -114l-43 -115q90 -1 143.5 -43t53.5 -109q0 -68 -57.5 -110.5t-147.5 -42.5q-103 0 -170 61l6 6q63 -35 127 -35q65 0 104 30t39 81q0 50 -38.5 81t-108.5 34l-2 8l59 154q-248 9 -405.5 191t-157.5 482q0 309 167.5 491.5t432.5 182.5
q212 0 383 -88q0 -171 -8 -319h-12l-117 297q-92 79 -248 79q-212 0 -336.5 -166.5t-124.5 -476.5q0 -307 122.5 -475t326.5 -168q84 0 156 24.5t116 61.5l117 297h14q9 -174 6 -299z" />
    <glyph glyph-name="Egrave" unicode="&#xc8;" horiz-adv-x="1122" 
d="M651 1444h-10l-326 282v5h203zM872 31l123 372h13q11 -214 8 -403h-953v10q128 35 158 41v1202q-94 23 -158 43v11h930q0 -232 -8 -385h-12l-123 354h-512v-596h330q33 122 67 207h13v-445h-13q-41 107 -67 207h-330v-598l90 -20h444z" />
    <glyph glyph-name="Eacute" unicode="&#xc9;" horiz-adv-x="1122" 
d="M514 1444h-10l133 287h203v-5zM872 31l123 372h13q11 -214 8 -403h-953v10q128 35 158 41v1202q-94 23 -158 43v11h930q0 -232 -8 -385h-12l-123 354h-512v-596h330q33 122 67 207h13v-445h-13q-41 107 -67 207h-330v-598l90 -20h444z" />
    <glyph glyph-name="Ecircumflex" unicode="&#xca;" horiz-adv-x="1122" 
d="M506 1731h133l225 -287h-10l-281 194l-282 -194h-10zM872 31l123 372h13q11 -214 8 -403h-953v10q128 35 158 41v1202q-94 23 -158 43v11h930q0 -232 -8 -385h-12l-123 354h-512v-596h330q33 122 67 207h13v-445h-13q-41 107 -67 207h-330v-598l90 -20h444z" />
    <glyph glyph-name="Edieresis" unicode="&#xcb;" horiz-adv-x="1122" 
d="M414 1511q-37 0 -60.5 23.5t-23.5 58.5q0 37 23.5 60.5t60.5 23.5t60.5 -23.5t23.5 -60.5q0 -35 -23.5 -58.5t-60.5 -23.5zM733 1511q-37 0 -60.5 23.5t-23.5 58.5q0 37 23.5 60.5t60.5 23.5t60.5 -23.5t23.5 -60.5q0 -35 -23.5 -58.5t-60.5 -23.5zM872 31l123 372h13
q11 -214 8 -403h-953v10q128 35 158 41v1202q-94 23 -158 43v11h930q0 -232 -8 -385h-12l-123 354h-512v-596h330q33 122 67 207h13v-445h-13q-41 107 -67 207h-330v-598l90 -20h444z" />
    <glyph glyph-name="Igrave" unicode="&#xcc;" horiz-adv-x="559" 
d="M360 1444h-10l-325 282v5h202zM63 1307h433v-11q-77 -23 -158 -43v-1202q11 -2 158 -41v-10h-433v10q128 35 158 41v1202q-94 23 -158 43v11z" />
    <glyph glyph-name="Iacute" unicode="&#xcd;" horiz-adv-x="559" 
d="M221 1444h-10l133 287h203v-5zM63 1307h433v-11q-77 -23 -158 -43v-1202q11 -2 158 -41v-10h-433v10q128 35 158 41v1202q-94 23 -158 43v11z" />
    <glyph glyph-name="Icircumflex" unicode="&#xce;" horiz-adv-x="559" 
d="M213 1731h133l225 -287h-10l-280 194l-283 -194h-10zM63 1307h433v-11q-77 -23 -158 -43v-1202q11 -2 158 -41v-10h-433v10q128 35 158 41v1202q-94 23 -158 43v11z" />
    <glyph glyph-name="Idieresis" unicode="&#xcf;" horiz-adv-x="559" 
d="M121 1511q-37 0 -60.5 23.5t-23.5 58.5q0 37 23.5 60.5t60.5 23.5t60.5 -23.5t23.5 -60.5q0 -35 -23.5 -58.5t-60.5 -23.5zM440 1511q-37 0 -60.5 23.5t-23.5 58.5q0 37 23.5 60.5t60.5 23.5t60.5 -23.5t23.5 -60.5q0 -35 -23.5 -58.5t-60.5 -23.5zM63 1307h433v-11
q-77 -23 -158 -43v-1202q11 -2 158 -41v-10h-433v10q128 35 158 41v1202q-94 23 -158 43v11z" />
    <glyph glyph-name="Eth" unicode="&#xd0;" horiz-adv-x="1331" 
d="M63 1307h523q131 0 247.5 -42.5t207.5 -122t144.5 -205.5t53.5 -282q0 -161 -54.5 -288t-148.5 -206t-214 -120t-257 -41h-499v10q135 37 155 41v594h-131v29h131v579q-94 23 -158 43v11zM551 31q262 0 409.5 161.5t147.5 454.5q0 155 -43.5 277.5t-118.5 198t-170 114.5
t-203 39h-235v-602h301v-29h-301v-588q94 -26 213 -26z" />
    <glyph glyph-name="Ntilde" unicode="&#xd1;" horiz-adv-x="1327" 
d="M821 1485q-49 0 -106 28l-114 56t-105 28q-89 0 -117 -102h-17q7 94 51 143.5t117 49.5q38 0 83 -17.5t80 -39t80 -39t83 -17.5q91 0 119 102h14q-14 -192 -168 -192zM920 1296v11h354v-11q-13 -4 -74 -24t-86 -27v-1245h-33l-825 1169v-1108l160 -51v-10h-355v10l160 51
v1153l-133 82v11h215l778 -1112v1050z" />
    <glyph glyph-name="Ograve" unicode="&#xd2;" horiz-adv-x="1370" 
d="M764 1444h-10l-326 282v5h203zM684 -20q-267 0 -428.5 183.5t-161.5 487.5q0 306 161.5 491t428.5 185t429.5 -185t162.5 -491q0 -304 -161.5 -487.5t-430.5 -183.5zM686 10q217 0 335 166.5t118 476.5t-118 476.5t-337 166.5q-217 0 -335 -166.5t-118 -476.5t118 -476.5
t337 -166.5z" />
    <glyph glyph-name="Oacute" unicode="&#xd3;" horiz-adv-x="1370" 
d="M627 1444h-11l134 287h202v-5zM684 -20q-267 0 -428.5 183.5t-161.5 487.5q0 306 161.5 491t428.5 185t429.5 -185t162.5 -491q0 -304 -161.5 -487.5t-430.5 -183.5zM686 10q217 0 335 166.5t118 476.5t-118 476.5t-337 166.5q-217 0 -335 -166.5t-118 -476.5t118 -476.5
t337 -166.5z" />
    <glyph glyph-name="Ocircumflex" unicode="&#xd4;" horiz-adv-x="1370" 
d="M618 1731h134l225 -287h-10l-281 194l-283 -194h-10zM684 -20q-267 0 -428.5 183.5t-161.5 487.5q0 306 161.5 491t428.5 185t429.5 -185t162.5 -491q0 -304 -161.5 -487.5t-430.5 -183.5zM686 10q217 0 335 166.5t118 476.5t-118 476.5t-337 166.5q-217 0 -335 -166.5
t-118 -476.5t118 -476.5t337 -166.5z" />
    <glyph glyph-name="Otilde" unicode="&#xd5;" horiz-adv-x="1370" 
d="M829 1485q-49 0 -106 28l-114 56t-105 28q-89 0 -117 -102h-16q7 94 51 143.5t117 49.5q38 0 82.5 -17.5t80 -39t80 -39t82.5 -17.5q91 0 119 102h14q-14 -192 -168 -192zM684 -20q-267 0 -428.5 183.5t-161.5 487.5q0 306 161.5 491t428.5 185t429.5 -185t162.5 -491
q0 -304 -161.5 -487.5t-430.5 -183.5zM686 10q217 0 335 166.5t118 476.5t-118 476.5t-337 166.5q-217 0 -335 -166.5t-118 -476.5t118 -476.5t337 -166.5z" />
    <glyph glyph-name="Odieresis" unicode="&#xd6;" horiz-adv-x="1370" 
d="M524 1511q-37 0 -60.5 23.5t-23.5 58.5q0 37 23.5 60.5t60.5 23.5t60.5 -23.5t23.5 -60.5q0 -35 -23.5 -58.5t-60.5 -23.5zM844 1511q-37 0 -60.5 23.5t-23.5 58.5q0 37 23.5 60.5t60.5 23.5t60.5 -23.5t23.5 -60.5q0 -35 -23.5 -58.5t-60.5 -23.5zM684 -20
q-267 0 -428.5 183.5t-161.5 487.5q0 306 161.5 491t428.5 185t429.5 -185t162.5 -491q0 -304 -161.5 -487.5t-430.5 -183.5zM686 10q217 0 335 166.5t118 476.5t-118 476.5t-337 166.5q-217 0 -335 -166.5t-118 -476.5t118 -476.5t337 -166.5z" />
    <glyph glyph-name="multiply" unicode="&#xd7;" horiz-adv-x="1228" 
d="M934 983l18 -20l-315 -318l305 -305l-20 -21l-306 306l-317 -318l-20 23l317 315l-305 305l20 21l305 -305z" />
    <glyph glyph-name="Oslash" unicode="&#xd8;" horiz-adv-x="1370" 
d="M1188 1343l-113 -161q96 -90 148.5 -226.5t52.5 -304.5q0 -304 -161.5 -487.5t-430.5 -183.5q-214 0 -360 118l-113 -159l-29 22l113 162q-97 91 -149 225.5t-52 302.5q0 306 161.5 491t428.5 185q210 0 360 -119l111 160zM231 653q0 -298 109 -463l666 961
q-118 145 -322 145q-217 0 -335 -166.5t-118 -476.5zM686 10q217 0 335 166.5t118 476.5q0 298 -109 463l-665 -958q117 -148 321 -148z" />
    <glyph glyph-name="Ugrave" unicode="&#xd9;" horiz-adv-x="1298" 
d="M774 1444h-10l-326 282v5h203zM905 1296v11h355v-11l-162 -51v-825q0 -203 -112 -321.5t-327 -118.5q-221 0 -340.5 120.5t-119.5 325.5v827q-72 18 -156 43v11h430v-11q-59 -19 -156 -43v-837q-2 -181 92.5 -289.5t274.5 -108.5q184 0 282.5 107t98.5 295v825
q-118 37 -160 51z" />
    <glyph glyph-name="Uacute" unicode="&#xda;" horiz-adv-x="1298" 
d="M635 1444h-10l133 287h203v-5zM905 1296v11h355v-11l-162 -51v-825q0 -203 -112 -321.5t-327 -118.5q-221 0 -340.5 120.5t-119.5 325.5v827q-72 18 -156 43v11h430v-11q-59 -19 -156 -43v-837q-2 -181 92.5 -289.5t274.5 -108.5q184 0 282.5 107t98.5 295v825
q-118 37 -160 51z" />
    <glyph glyph-name="Ucircumflex" unicode="&#xdb;" horiz-adv-x="1298" 
d="M627 1731h133l225 -287h-10l-281 194l-282 -194h-11zM905 1296v11h355v-11l-162 -51v-825q0 -203 -112 -321.5t-327 -118.5q-221 0 -340.5 120.5t-119.5 325.5v827q-72 18 -156 43v11h430v-11q-59 -19 -156 -43v-837q-2 -181 92.5 -289.5t274.5 -108.5q184 0 282.5 107
t98.5 295v825q-118 37 -160 51z" />
    <glyph glyph-name="Udieresis" unicode="&#xdc;" horiz-adv-x="1298" 
d="M535 1511q-37 0 -60.5 23.5t-23.5 58.5q0 37 23.5 60.5t60.5 23.5t60 -23.5t23 -60.5q0 -35 -23 -58.5t-60 -23.5zM854 1511q-37 0 -60.5 23.5t-23.5 58.5q0 37 23.5 60.5t60.5 23.5t60.5 -23.5t23.5 -60.5q0 -35 -23.5 -58.5t-60.5 -23.5zM905 1296v11h355v-11l-162 -51
v-825q0 -203 -112 -321.5t-327 -118.5q-221 0 -340.5 120.5t-119.5 325.5v827q-72 18 -156 43v11h430v-11q-59 -19 -156 -43v-837q-2 -181 92.5 -289.5t274.5 -108.5q184 0 282.5 107t98.5 295v825q-118 37 -160 51z" />
    <glyph glyph-name="Yacute" unicode="&#xdd;" horiz-adv-x="1214" 
d="M565 1444h-10l133 287h203v-5zM852 1296v11h360v-11q-76 -30 -149 -49l-397 -721v-475q13 -2 176 -41v-10h-471v10q131 33 176 41v461l-406 743q-70 19 -129 41v11h430v-11q-51 -17 -163 -43l366 -694l379 688q-93 21 -172 49z" />
    <glyph glyph-name="Thorn" unicode="&#xde;" horiz-adv-x="1105" 
d="M338 1253v-217h233q123 0 225.5 -43t168 -130.5t65.5 -205.5q0 -115 -65 -198.5t-167 -122.5t-227 -39h-233v-246q11 -2 158 -41v-10h-433v10q128 35 158 41v1202q-94 23 -158 43v11h433v-11q-77 -23 -158 -43zM338 1006v-678h242q157 0 240 82t83 239q0 175 -96 266
t-252 91h-217z" />
    <glyph glyph-name="germandbls" unicode="&#xdf;" horiz-adv-x="1095" 
d="M614 772q0 -43 18.5 -79t48.5 -60.5t69 -49t79 -44.5t79 -49t69 -60.5t48.5 -79.5t18.5 -106q0 -69 -26.5 -121t-72.5 -82.5t-102 -45.5t-120 -15q-160 0 -283 71q5 74 23 238h10l88 -238q78 -43 170 -43q97 0 155 50t58 143q0 58 -22.5 104t-59 76.5t-80.5 57.5l-88 54
t-80.5 57t-59 75.5t-22.5 101.5q0 44 19 84t47 69t61 64.5t61 69t47 83.5t19 107q0 96 -53.5 157.5t-148.5 61.5q-279 0 -279 -342v-1081h-256v10q48 16 144 37v842h-144v10l144 31v135q0 174 109 279.5t290 105.5q135 0 211 -65.5t76 -167.5q0 -47 -19.5 -89.5t-49 -73
t-64 -64.5t-64 -63.5t-49 -70t-19.5 -84.5z" />
    <glyph glyph-name="agrave" unicode="&#xe0;" horiz-adv-x="937" 
d="M385 1430l137 -357h-10l-295 350v7h168zM918 51l4 -6q-51 -65 -129 -65q-60 0 -97 38.5t-37 110.5v10q-133 -159 -323 -159q-112 0 -179 56t-67 154q0 133 138 214.5t429 99.5v121q0 135 -52.5 210.5t-153.5 75.5q-100 0 -177 -53l-102 -246h-10q-19 152 -23 248
q162 78 312 78q86 0 149 -26t99.5 -72t53.5 -104t17 -128v-475q0 -100 76 -100q32 0 72 18zM377 27q153 0 280 151v297q-448 -31 -448 -280q0 -81 46 -124.5t122 -43.5z" />
    <glyph glyph-name="aacute" unicode="&#xe1;" horiz-adv-x="937" 
d="M696 1430v-7l-299 -350h-10l135 357h174zM918 51l4 -6q-51 -65 -129 -65q-60 0 -97 38.5t-37 110.5v10q-133 -159 -323 -159q-112 0 -179 56t-67 154q0 133 138 214.5t429 99.5v121q0 135 -52.5 210.5t-153.5 75.5q-100 0 -177 -53l-102 -246h-10q-19 152 -23 248
q162 78 312 78q86 0 149 -26t99.5 -72t53.5 -104t17 -128v-475q0 -100 76 -100q32 0 72 18zM377 27q153 0 280 151v297q-448 -31 -448 -280q0 -81 46 -124.5t122 -43.5z" />
    <glyph glyph-name="acircumflex" unicode="&#xe2;" horiz-adv-x="937" 
d="M709 1073l-246 268l-248 -268h-10l188 357h139l187 -357h-10zM918 51l4 -6q-51 -65 -129 -65q-60 0 -97 38.5t-37 110.5v10q-133 -159 -323 -159q-112 0 -179 56t-67 154q0 133 138 214.5t429 99.5v121q0 135 -52.5 210.5t-153.5 75.5q-100 0 -177 -53l-102 -246h-10
q-19 152 -23 248q162 78 312 78q86 0 149 -26t99.5 -72t53.5 -104t17 -128v-475q0 -100 76 -100q32 0 72 18zM377 27q153 0 280 151v297q-448 -31 -448 -280q0 -81 46 -124.5t122 -43.5z" />
    <glyph glyph-name="atilde" unicode="&#xe3;" horiz-adv-x="937" 
d="M315 1272q-52 0 -89 -27.5t-50 -77.5h-6q7 90 54 140.5t118 50.5q39 0 79 -17t68 -37.5t66.5 -37.5t75.5 -17q52 0 89 27.5t50 77.5h6q-7 -91 -53.5 -140t-118.5 -49q-40 0 -80.5 16.5t-68 37t-65.5 37t-75 16.5zM918 51l4 -6q-51 -65 -129 -65q-60 0 -97 38.5t-37 110.5
v10q-133 -159 -323 -159q-112 0 -179 56t-67 154q0 133 138 214.5t429 99.5v121q0 135 -52.5 210.5t-153.5 75.5q-100 0 -177 -53l-102 -246h-10q-19 152 -23 248q162 78 312 78q86 0 149 -26t99.5 -72t53.5 -104t17 -128v-475q0 -100 76 -100q32 0 72 18zM377 27
q153 0 280 151v297q-448 -31 -448 -280q0 -81 46 -124.5t122 -43.5z" />
    <glyph glyph-name="adieresis" unicode="&#xe4;" horiz-adv-x="937" 
d="M301 1174q-36 0 -58 22.5t-22 56.5q0 36 22 59t58 23t59 -23t23 -59q0 -34 -23 -56.5t-59 -22.5zM621 1174q-35 0 -57.5 22.5t-22.5 56.5q0 35 22.5 58.5t57.5 23.5q36 0 58.5 -23t22.5 -59q0 -34 -22.5 -56.5t-58.5 -22.5zM918 51l4 -6q-51 -65 -129 -65q-60 0 -97 38.5
t-37 110.5v10q-133 -159 -323 -159q-112 0 -179 56t-67 154q0 133 138 214.5t429 99.5v121q0 135 -52.5 210.5t-153.5 75.5q-100 0 -177 -53l-102 -246h-10q-19 152 -23 248q162 78 312 78q86 0 149 -26t99.5 -72t53.5 -104t17 -128v-475q0 -100 76 -100q32 0 72 18zM377 27
q153 0 280 151v297q-448 -31 -448 -280q0 -81 46 -124.5t122 -43.5z" />
    <glyph glyph-name="aring" unicode="&#xe5;" horiz-adv-x="937" 
d="M463 1075q-75 0 -124.5 50.5t-49.5 125.5q0 76 49.5 126t124.5 50t124.5 -50t49.5 -126q0 -75 -49.5 -125.5t-124.5 -50.5zM463 1397q-61 0 -100 -41.5t-39 -104.5t39 -103t100 -40q63 0 102 40t39 103q0 64 -39.5 105t-101.5 41zM918 51l4 -6q-51 -65 -129 -65
q-60 0 -97 38.5t-37 110.5v10q-133 -159 -323 -159q-112 0 -179 56t-67 154q0 133 138 214.5t429 99.5v121q0 135 -52.5 210.5t-153.5 75.5q-100 0 -177 -53l-102 -246h-10q-19 152 -23 248q162 78 312 78q86 0 149 -26t99.5 -72t53.5 -104t17 -128v-475q0 -100 76 -100
q32 0 72 18zM377 27q153 0 280 151v297q-448 -31 -448 -280q0 -81 46 -124.5t122 -43.5z" />
    <glyph glyph-name="ae" unicode="&#xe6;" horiz-adv-x="1458" 
d="M1370 168l8 -6q-106 -182 -319 -182q-114 0 -202.5 51.5t-143.5 146.5q-78 -100 -167 -149t-202 -49q-116 0 -182 55.5t-66 154.5q0 279 551 314v121q0 135 -50 210.5t-148 75.5q-117 0 -201 -65l-53 -244h-11q-37 122 -57 234q150 102 322 102q213 0 282 -168
q57 82 138.5 125t170.5 43q150 0 241 -107.5t91 -279.5v-29l-608 -37q3 -216 93 -324t243 -108q77 0 151 30.5t119 84.5zM1028 911q-114 0 -187 -97t-77 -298l487 29q-3 366 -223 366zM381 25q179 0 319 180q-53 106 -53 252v10v8q-226 -14 -330 -88.5t-104 -191.5
q0 -82 45 -126t123 -44z" />
    <glyph glyph-name="ccedilla" unicode="&#xe7;" horiz-adv-x="901" 
d="M557 49q69 0 138 24.5t122 67.5l6 -6q-52 -75 -135.5 -115t-185.5 -40h-8l-43 -115q90 -1 143 -43t53 -109q0 -68 -57.5 -110.5t-147.5 -42.5q-103 0 -170 61l7 6q63 -35 127 -35q65 0 104 30t39 81q0 50 -39 81t-109 34l-2 8l62 156q-171 15 -274 142.5t-103 324.5
q0 214 121.5 351.5t312.5 137.5q158 0 305 -78q-6 -131 -20 -248h-10l-101 242q-75 57 -180 57q-136 0 -222.5 -121.5t-86.5 -310.5q0 -195 96.5 -312.5t257.5 -117.5z" />
    <glyph glyph-name="egrave" unicode="&#xe8;" horiz-adv-x="929" 
d="M424 1430l137 -357h-10l-295 350v7h168zM844 143l6 -6q-112 -157 -332 -157q-200 0 -317 130.5t-117 348.5q0 118 35.5 212t94.5 150.5t131.5 86.5t150.5 30q155 0 251.5 -108t96.5 -277v-29h-641v-20q0 -227 99 -341t269 -114q158 0 273 94zM485 911
q-115 0 -192.5 -91.5t-87.5 -266.5h516q0 177 -62 267.5t-174 90.5z" />
    <glyph glyph-name="eacute" unicode="&#xe9;" horiz-adv-x="929" 
d="M735 1430v-7l-299 -350h-10l135 357h174zM844 143l6 -6q-112 -157 -332 -157q-200 0 -317 130.5t-117 348.5q0 118 35.5 212t94.5 150.5t131.5 86.5t150.5 30q155 0 251.5 -108t96.5 -277v-29h-641v-20q0 -227 99 -341t269 -114q158 0 273 94zM485 911
q-115 0 -192.5 -91.5t-87.5 -266.5h516q0 177 -62 267.5t-174 90.5z" />
    <glyph glyph-name="ecircumflex" unicode="&#xea;" horiz-adv-x="929" 
d="M748 1073l-246 268l-248 -268h-10l188 357h139l187 -357h-10zM844 143l6 -6q-112 -157 -332 -157q-200 0 -317 130.5t-117 348.5q0 118 35.5 212t94.5 150.5t131.5 86.5t150.5 30q155 0 251.5 -108t96.5 -277v-29h-641v-20q0 -227 99 -341t269 -114q158 0 273 94z
M485 911q-115 0 -192.5 -91.5t-87.5 -266.5h516q0 177 -62 267.5t-174 90.5z" />
    <glyph glyph-name="edieresis" unicode="&#xeb;" horiz-adv-x="929" 
d="M340 1174q-36 0 -58 22.5t-22 56.5q0 36 22 59t58 23t59 -23t23 -59q0 -34 -23 -56.5t-59 -22.5zM659 1174q-35 0 -57 22.5t-22 56.5q0 36 22 59t57 23q36 0 59 -23t23 -59q0 -34 -23 -56.5t-59 -22.5zM844 143l6 -6q-112 -157 -332 -157q-200 0 -317 130.5t-117 348.5
q0 118 35.5 212t94.5 150.5t131.5 86.5t150.5 30q155 0 251.5 -108t96.5 -277v-29h-641v-20q0 -227 99 -341t269 -114q158 0 273 94zM485 911q-115 0 -192.5 -91.5t-87.5 -266.5h516q0 177 -62 267.5t-174 90.5z" />
    <glyph glyph-name="igrave" unicode="&#xec;" horiz-adv-x="495" 
d="M307 1073h-10l-295 350v7h168zM311 924v-879q30 -6 135 -35v-10h-385v10q83 24 138 35v770l-138 41v10q139 40 250 58z" />
    <glyph glyph-name="iacute" unicode="&#xed;" horiz-adv-x="495" 
d="M182 1073h-10l135 357h174v-7zM311 924v-879q30 -6 135 -35v-10h-385v10q83 24 138 35v770l-138 41v10q139 40 250 58z" />
    <glyph glyph-name="icircumflex" unicode="&#xee;" horiz-adv-x="495" 
d="M178 1430h139l187 -357h-10l-246 268l-248 -268h-10zM311 924v-879q30 -6 135 -35v-10h-385v10q83 24 138 35v770l-138 41v10q139 40 250 58z" />
    <glyph glyph-name="idieresis" unicode="&#xef;" horiz-adv-x="495" 
d="M86 1174q-36 0 -58 22.5t-22 56.5q0 36 22 59t58 23t59 -23t23 -59q0 -34 -23 -56.5t-59 -22.5zM406 1174q-35 0 -57.5 22.5t-22.5 56.5q0 35 22.5 58.5t57.5 23.5q36 0 58.5 -23t22.5 -59q0 -34 -22.5 -56.5t-58.5 -22.5zM311 924v-879q30 -6 135 -35v-10h-385v10
q83 24 138 35v770l-138 41v10q139 40 250 58z" />
    <glyph glyph-name="eth" unicode="&#xf0;" horiz-adv-x="1050" 
d="M760 1407l-209 -111q176 -125 287 -330t114 -452q0 -131 -33.5 -234t-93 -168t-138.5 -98.5t-173 -33.5q-192 0 -312 126.5t-120 315.5q0 192 123 317t321 125q158 0 269 -96q-38 154 -115.5 283t-181.5 217l-224 -119l-12 27l211 112q-134 98 -278 119l6 23
q167 -15 321 -115l226 119zM514 8q146 0 229.5 118.5t83.5 365.5q0 112 -22 225q-125 119 -285 119q-151 0 -232 -111.5t-81 -306.5q0 -189 79 -299.5t228 -110.5z" />
    <glyph glyph-name="ntilde" unicode="&#xf1;" horiz-adv-x="1114" 
d="M719 1165q-40 0 -80.5 16.5t-68 37t-66 37t-76.5 16.5q-51 0 -87.5 -27t-51.5 -78h-6q7 90 54 140.5t118 50.5q39 0 78.5 -17t68 -37.5t67 -37.5t76.5 -17q51 0 89 27.5t51 77.5h6q-7 -90 -54 -139.5t-118 -49.5zM940 616v-569q25 -5 141 -37v-10h-397v10q11 3 143 37
v569q0 136 -60.5 206.5t-176.5 70.5q-156 0 -281 -148v-698q15 -4 64.5 -16.5t77.5 -20.5v-10h-398v10q3 1 144 37v770l-144 41v10q135 38 256 58l-10 -154q137 166 338 166q144 0 223.5 -85t79.5 -237z" />
    <glyph glyph-name="ograve" unicode="&#xf2;" horiz-adv-x="1042" 
d="M582 1073h-11l-295 350v7h168zM522 -20q-193 0 -315.5 132t-122.5 347q0 214 122.5 346.5t315.5 132.5q192 0 315.5 -132.5t123.5 -346.5q0 -215 -123.5 -347t-315.5 -132zM522 8q148 0 231 117t83 334t-83 333.5t-231 116.5q-149 0 -232 -116t-83 -334t83 -334.5
t232 -116.5z" />
    <glyph glyph-name="oacute" unicode="&#xf3;" horiz-adv-x="1042" 
d="M457 1073h-11l136 357h174v-7zM522 -20q-193 0 -315.5 132t-122.5 347q0 214 122.5 346.5t315.5 132.5q192 0 315.5 -132.5t123.5 -346.5q0 -215 -123.5 -347t-315.5 -132zM522 8q148 0 231 117t83 334t-83 333.5t-231 116.5q-149 0 -232 -116t-83 -334t83 -334.5
t232 -116.5z" />
    <glyph glyph-name="ocircumflex" unicode="&#xf4;" horiz-adv-x="1042" 
d="M453 1430h139l186 -357h-10l-246 268l-248 -268h-10zM522 -20q-193 0 -315.5 132t-122.5 347q0 214 122.5 346.5t315.5 132.5q192 0 315.5 -132.5t123.5 -346.5q0 -215 -123.5 -347t-315.5 -132zM522 8q148 0 231 117t83 334t-83 333.5t-231 116.5q-149 0 -232 -116
t-83 -334t83 -334.5t232 -116.5z" />
    <glyph glyph-name="otilde" unicode="&#xf5;" horiz-adv-x="1042" 
d="M664 1165q-40 0 -80.5 16.5t-68 37t-65.5 37t-75 16.5q-52 0 -89 -27.5t-50 -77.5h-7q7 90 54 140.5t118 50.5q39 0 79 -17t68 -37.5t66.5 -37.5t75.5 -17q52 0 89 27.5t50 77.5h7q-7 -91 -53.5 -140t-118.5 -49zM522 -20q-193 0 -315.5 132t-122.5 347
q0 214 122.5 346.5t315.5 132.5q192 0 315.5 -132.5t123.5 -346.5q0 -215 -123.5 -347t-315.5 -132zM522 8q148 0 231 117t83 334t-83 333.5t-231 116.5q-149 0 -232 -116t-83 -334t83 -334.5t232 -116.5z" />
    <glyph glyph-name="odieresis" unicode="&#xf6;" horiz-adv-x="1042" 
d="M360 1174q-36 0 -57.5 22.5t-21.5 56.5q0 36 21.5 59t57.5 23t59 -23t23 -59q0 -34 -23 -56.5t-59 -22.5zM680 1174q-35 0 -57.5 22.5t-22.5 56.5q0 35 22.5 58.5t57.5 23.5q36 0 59 -23t23 -59q0 -34 -23 -56.5t-59 -22.5zM522 -20q-193 0 -315.5 132t-122.5 347
q0 214 122.5 346.5t315.5 132.5q192 0 315.5 -132.5t123.5 -346.5q0 -215 -123.5 -347t-315.5 -132zM522 8q148 0 231 117t83 334t-83 333.5t-231 116.5q-149 0 -232 -116t-83 -334t83 -334.5t232 -116.5z" />
    <glyph glyph-name="divide" unicode="&#xf7;" horiz-adv-x="1228" 
d="M627 874q-38 0 -63 26t-25 63t25 61.5t63 24.5t62 -24.5t24 -61.5t-24 -63t-62 -26zM1006 631h-781v28h781v-28zM627 244q-38 0 -63 24.5t-25 61.5q0 38 25 62t63 24t62 -24t24 -62q0 -37 -24 -61.5t-62 -24.5z" />
    <glyph glyph-name="oslash" unicode="&#xf8;" horiz-adv-x="1042" 
d="M899 975l-96 -137q75 -64 116.5 -161.5t41.5 -217.5q0 -215 -123.5 -347t-315.5 -132q-150 0 -260 81l-96 -137l-27 17l99 141q-154 135 -154 377q0 214 122.5 346.5t315.5 132.5q143 0 254 -78l92 133zM207 459q0 -202 72 -318l462 668q-80 100 -219 100
q-149 0 -232 -116t-83 -334zM522 8q148 0 231 117t83 334q0 199 -74 319l-463 -663q81 -107 223 -107z" />
    <glyph glyph-name="ugrave" unicode="&#xf9;" horiz-adv-x="1081" 
d="M453 1430l137 -357h-10l-295 350v7h168zM1047 51l6 -8q-54 -63 -133 -63q-62 0 -100 38.5t-38 108.5v14q-120 -161 -311 -161q-139 0 -218 83t-79 232v524l-141 37v10q137 39 254 58v-627q0 -130 56 -201t165 -71q155 0 272 151v643l-139 37v10q136 39 252 58v-791
q0 -100 80 -100q33 0 74 18z" />
    <glyph glyph-name="uacute" unicode="&#xfa;" horiz-adv-x="1081" 
d="M764 1430v-7l-299 -350h-10l135 357h174zM1047 51l6 -8q-54 -63 -133 -63q-62 0 -100 38.5t-38 108.5v14q-120 -161 -311 -161q-139 0 -218 83t-79 232v524l-141 37v10q137 39 254 58v-627q0 -130 56 -201t165 -71q155 0 272 151v643l-139 37v10q136 39 252 58v-791
q0 -100 80 -100q33 0 74 18z" />
    <glyph glyph-name="ucircumflex" unicode="&#xfb;" horiz-adv-x="1081" 
d="M776 1073l-246 268l-247 -268h-11l189 357h139l186 -357h-10zM1047 51l6 -8q-54 -63 -133 -63q-62 0 -100 38.5t-38 108.5v14q-120 -161 -311 -161q-139 0 -218 83t-79 232v524l-141 37v10q137 39 254 58v-627q0 -130 56 -201t165 -71q155 0 272 151v643l-139 37v10
q136 39 252 58v-791q0 -100 80 -100q33 0 74 18z" />
    <glyph glyph-name="udieresis" unicode="&#xfc;" horiz-adv-x="1081" 
d="M369 1174q-36 0 -58 22.5t-22 56.5q0 36 22 59t58 23t59 -23t23 -59q0 -34 -23 -56.5t-59 -22.5zM688 1174q-35 0 -57.5 22.5t-22.5 56.5q0 35 22.5 58.5t57.5 23.5q36 0 59 -23t23 -59q0 -34 -23 -56.5t-59 -22.5zM1047 51l6 -8q-54 -63 -133 -63q-62 0 -100 38.5
t-38 108.5v14q-120 -161 -311 -161q-139 0 -218 83t-79 232v524l-141 37v10q137 39 254 58v-627q0 -130 56 -201t165 -71q155 0 272 151v643l-139 37v10q136 39 252 58v-791q0 -100 80 -100q33 0 74 18z" />
    <glyph glyph-name="yacute" unicode="&#xfd;" horiz-adv-x="987" 
d="M465 1073h-10l135 357h174v-7zM705 907v11h278v-11q-88 -43 -119 -55l-557 -1288l-131 61v4q109 123 301 398l-373 847q-42 10 -94 33v11h350v-11q-76 -26 -127 -39l297 -710l297 694q-65 23 -122 55z" />
    <glyph glyph-name="thorn" unicode="&#xfe;" horiz-adv-x="1030" 
d="M559 938q175 0 281 -120.5t106 -338.5q0 -126 -36 -223.5t-100 -156.5t-145.5 -89t-177.5 -30q-119 0 -223 59v-401q160 -34 172 -37v-11h-428v11q3 1 144 37v1685l-146 37v10q148 42 256 60v-619q127 127 297 127zM487 8q157 0 247.5 112t90.5 326q0 229 -80.5 338
t-226.5 109q-139 0 -254 -121v-661q76 -103 223 -103z" />
    <glyph glyph-name="ydieresis" unicode="&#xff;" horiz-adv-x="987" 
d="M397 1174q-36 0 -59 22.5t-23 56.5q0 36 23 59t59 23q35 0 57.5 -23.5t22.5 -58.5q0 -34 -22.5 -56.5t-57.5 -22.5zM717 1174q-35 0 -57.5 22.5t-22.5 56.5q0 35 22.5 58.5t57.5 23.5q36 0 58 -23t22 -59q0 -34 -22 -56.5t-58 -22.5zM705 907v11h278v-11
q-88 -43 -119 -55l-557 -1288l-131 61v4q109 123 301 398l-373 847q-42 10 -94 33v11h350v-11q-76 -26 -127 -39l297 -710l297 694q-65 23 -122 55z" />
    <glyph glyph-name="dotlessi" unicode="&#x131;" horiz-adv-x="495" 
d="M311 924v-879q30 -6 135 -35v-10h-385v10q83 24 138 35v770l-138 41v10q139 40 250 58z" />
    <glyph glyph-name="Lslash" unicode="&#x141;" horiz-adv-x="1048" 
d="M975 434h12q12 -222 8 -434h-932v10q128 35 158 41v529l-141 -109l-23 31l164 127v624q-94 23 -158 43v11h433v-11q-77 -23 -158 -43v-532l145 113l25 -33l-170 -131v-619l90 -20h424z" />
    <glyph glyph-name="lslash" unicode="&#x142;" horiz-adv-x="491" 
d="M467 817l-164 -106v-664q15 -4 64 -16.5t77 -20.5v-10h-395v10q20 6 141 37v590l-155 -102l-17 22l172 115v649l-141 39v10q154 44 254 60v-685l146 97z" />
    <glyph glyph-name="OE" unicode="&#x152;" horiz-adv-x="1835" 
d="M1579 31l127 362h12q10 -183 6 -393h-976q-313 0 -483.5 172t-170.5 479q0 308 170 482t481 174h969q0 -232 -8 -385h-12l-127 354h-508v-596h327q39 129 70 207h12v-445h-12q-41 108 -70 207h-327v-598l90 -20h430zM748 31h194v1245h-197q-261 0 -387.5 -155.5
t-126.5 -467.5t127 -467t390 -155z" />
    <glyph glyph-name="oe" unicode="&#x153;" horiz-adv-x="1693" 
d="M1602 172l14 -10q-108 -182 -336 -182q-130 0 -228.5 56.5t-152.5 160.5q-57 -104 -156 -160.5t-221 -56.5q-190 0 -314 129.5t-124 349.5t124 349.5t314 129.5q122 0 221 -56.5t154 -160.5q56 106 151.5 161.5t204.5 55.5q159 0 256 -107.5t97 -277.5v-33h-648v-24
q0 -216 97.5 -326.5t263.5 -110.5q84 0 158.5 28.5t124.5 84.5zM530 16q145 0 227.5 115.5t82.5 314.5q0 208 -87.5 331.5t-238.5 123.5q-147 0 -227 -117.5t-82 -310.5q0 -215 88 -336t237 -121zM1245 901q-114 0 -193.5 -89.5t-90.5 -258.5h522q0 171 -61.5 259.5
t-176.5 88.5z" />
    <glyph glyph-name="Scaron" unicode="&#x160;" horiz-adv-x="1007" 
d="M252 1731l283 -195l280 195h10l-225 -287h-133l-225 287h10zM473 -20q-203 0 -360 79q-3 167 0 336h12l131 -327q85 -58 236 -58q153 0 240 74.5t87 208.5q0 61 -23.5 111t-63.5 84.5t-92 63.5t-109.5 53.5t-115 50t-109.5 57.5t-92 71t-63.5 95.5t-23.5 126.5
q0 153 107 237t280 84q201 0 346 -88q0 -162 -8 -321h-12l-123 315q-100 63 -205 63q-138 0 -216.5 -67t-78.5 -185q0 -74 38.5 -129.5t99.5 -91.5t135 -67t148 -66.5t135 -79.5t99.5 -116t38.5 -166q0 -168 -121 -258t-317 -90z" />
    <glyph glyph-name="scaron" unicode="&#x161;" horiz-adv-x="821" 
d="M180 1430l248 -254l246 254h10l-186 -340h-140l-188 340h10zM375 -20q-168 0 -285 71q10 135 23 238h10l86 -238q81 -43 180 -43q110 0 177 47.5t67 139.5q0 58 -29 101.5t-76 69.5t-103.5 47.5t-112.5 44t-103 50.5t-76 75.5t-29 110.5q0 119 92.5 181.5t235.5 62.5
q149 0 283 -74q-8 -109 -23 -229h-10l-88 227q-85 47 -166 47q-106 0 -165.5 -44.5t-59.5 -125.5q0 -56 29 -97.5t75.5 -66.5t103 -46t113 -44t103 -52.5t75.5 -79.5t29 -117q0 -89 -51 -148.5t-128.5 -83.5t-176.5 -24z" />
    <glyph glyph-name="Ydieresis" unicode="&#x178;" horiz-adv-x="1214" 
d="M465 1511q-37 0 -60.5 23.5t-23.5 58.5q0 37 23.5 60.5t60.5 23.5t60.5 -23.5t23.5 -60.5q0 -35 -23.5 -58.5t-60.5 -23.5zM784 1511q-37 0 -60.5 23.5t-23.5 58.5q0 37 23.5 60.5t60.5 23.5t60.5 -23.5t23.5 -60.5q0 -35 -23.5 -58.5t-60.5 -23.5zM852 1296v11h360v-11
q-76 -30 -149 -49l-397 -721v-475q13 -2 176 -41v-10h-471v10q131 33 176 41v461l-406 743q-70 19 -129 41v11h430v-11q-51 -17 -163 -43l366 -694l379 688q-93 21 -172 49z" />
    <glyph glyph-name="Zcaron" unicode="&#x17d;" horiz-adv-x="1093" 
d="M258 1731l283 -195l280 195h10l-225 -287h-133l-225 287h10zM864 31l123 403h12q11 -207 7 -434h-938v20l790 1256h-616l-119 -354h-12q-12 178 -9 385h895v-21l-796 -1255h663z" />
    <glyph glyph-name="zcaron" unicode="&#x17e;" horiz-adv-x="858" 
d="M180 1430l248 -254l246 254h10l-186 -340h-140l-188 340h10zM676 31l92 243h8q22 -176 27 -274h-742v18l584 871l-432 -2l-92 -236h-10q-18 164 -25 267h686v-19l-584 -870z" />
    <glyph glyph-name="florin" unicode="&#x192;" horiz-adv-x="837" 
d="M567 1327q129 0 221 -59q-21 -141 -43 -244h-10l-78 250q-41 26 -92 26q-90 0 -150.5 -71t-70.5 -201l-20 -233h264l-2 -29h-264l-72 -813q-7 -86 -34 -149.5t-70 -101.5t-93 -58t-114 -27v18q86 19 134.5 71t57.5 155l78 905h-143l2 10l145 31l14 149q10 120 61.5 206
t123.5 125.5t155 39.5z" />
    <glyph glyph-name="uni0237" unicode="&#x237;" horiz-adv-x="452" 
d="M188 815l-143 33v18q128 37 256 58v-994q0 -281 -283 -313l-4 23q174 31 174 231v944z" />
    <glyph glyph-name="circumflex" unicode="&#x2c6;" horiz-adv-x="841" 
d="M352 1430h140l186 -357h-10l-246 268l-248 -268h-10z" />
    <glyph glyph-name="caron" unicode="&#x2c7;" horiz-adv-x="841" 
d="M174 1430l248 -254l246 254h10l-186 -340h-140l-188 340h10z" />
    <glyph glyph-name="breve" unicode="&#x2d8;" horiz-adv-x="800" 
d="M399 1090q-110 0 -172.5 83.5t-62.5 229.5h8q19 -98 77 -153.5t150 -55.5t151.5 56t78.5 153h8q0 -146 -64 -229.5t-174 -83.5z" />
    <glyph glyph-name="dotaccent" unicode="&#x2d9;" horiz-adv-x="499" 
d="M250 1165q-38 0 -62 24.5t-24 61.5t24 61.5t62 24.5t62 -24.5t24 -61.5t-24 -61.5t-62 -24.5z" />
    <glyph glyph-name="ring" unicode="&#x2da;" horiz-adv-x="675" 
d="M338 1075q-75 0 -124.5 50.5t-49.5 125.5q0 76 49.5 126t124.5 50t124.5 -50t49.5 -126q0 -75 -49.5 -125.5t-124.5 -50.5zM338 1108q63 0 102 40t39 103q0 64 -39.5 105t-101.5 41q-61 0 -100 -41.5t-39 -104.5t39 -103t100 -40z" />
    <glyph glyph-name="ogonek" unicode="&#x2db;" horiz-adv-x="628" 
d="M317 -440q-73 0 -118 41.5t-45 115.5q0 166 249 293l11 -10q-164 -116 -164 -274q0 -60 28.5 -94.5t75.5 -34.5t88 28l7 -6q-49 -59 -132 -59z" />
    <glyph glyph-name="tilde" unicode="&#x2dc;" horiz-adv-x="933" 
d="M598 1165q-40 0 -80.5 16.5t-68 37t-65.5 37t-75 16.5q-52 0 -89 -27.5t-50 -77.5h-6q7 90 54 140.5t118 50.5q39 0 79 -17t68 -37.5t66.5 -37.5t75.5 -17q52 0 89 27.5t50 77.5h6q-7 -91 -53.5 -140t-118.5 -49z" />
    <glyph glyph-name="hungarumlaut" unicode="&#x2dd;" horiz-adv-x="860" 
d="M174 1073h-10l121 357h151v-5zM428 1073h-10l127 357h151v-5z" />
    <glyph glyph-name="gravecomb" unicode="&#x300;" 
d="M-164 1073h-10l-295 350v7h168z" />
    <glyph glyph-name="acutecomb" unicode="&#x301;" 
d="M-463 1073h-10l135 357h174v-7z" />
    <glyph glyph-name="uni0302" unicode="&#x302;" 
d="M-489 1430h139l186 -357h-10l-246 268l-248 -268h-10z" />
    <glyph glyph-name="tildecomb" unicode="&#x303;" 
d="M-336 1165q-40 0 -80.5 16.5t-68 37t-65.5 37t-75 16.5q-52 0 -89 -27.5t-50 -77.5h-6q7 90 54 140.5t118 50.5q39 0 79 -17t68 -37.5t66.5 -37.5t75.5 -17q52 0 89 27.5t50 77.5h6q-7 -91 -53.5 -140t-118.5 -49z" />
    <glyph glyph-name="uni0304" unicode="&#x304;" 
d="M-164 1243h-559v35h559v-35z" />
    <glyph glyph-name="uni0306" unicode="&#x306;" 
d="M-401 1090q-110 0 -173 83.5t-63 229.5h8q19 -98 77.5 -153.5t150.5 -55.5t151 55.5t78 153.5h8q0 -146 -63.5 -229.5t-173.5 -83.5z" />
    <glyph glyph-name="uni0307" unicode="&#x307;" 
d="M-250 1165q-38 0 -62 24.5t-24 61.5t24 61.5t62 24.5t62 -24.5t24 -61.5t-24 -61.5t-62 -24.5z" />
    <glyph glyph-name="uni0308" unicode="&#x308;" 
d="M-565 1174q-36 0 -58 22.5t-22 56.5q0 36 22 59t58 23t59 -23t23 -59q0 -34 -23 -56.5t-59 -22.5zM-246 1174q-35 0 -57.5 22.5t-22.5 56.5q0 35 22.5 58.5t57.5 23.5q36 0 59 -23t23 -59q0 -34 -23 -56.5t-59 -22.5z" />
    <glyph glyph-name="uni030A" unicode="&#x30a;" 
d="M-338 1075q-75 0 -124.5 50.5t-49.5 125.5q0 76 49.5 126t124.5 50t124.5 -50t49.5 -126q0 -75 -49.5 -125.5t-124.5 -50.5zM-338 1108q63 0 102 40t39 103q0 64 -39.5 105t-101.5 41q-61 0 -100 -41.5t-39 -104.5t39 -103t100 -40z" />
    <glyph glyph-name="uni030B" unicode="&#x30b;" 
d="M-686 1073h-10l121 357h151v-5zM-432 1073h-10l127 357h151v-5z" />
    <glyph glyph-name="uni030C" unicode="&#x30c;" 
d="M-668 1430l248 -254l246 254h10l-186 -340h-139l-189 340h10z" />
    <glyph glyph-name="uni0327" unicode="&#x327;" 
d="M-369 -440q-103 0 -170 61l7 6q63 -35 126 -35q65 0 104.5 30t39.5 81q0 50 -39 81t-109 34l-2 8l70 178h35l-53 -139q90 -1 143 -43t53 -109q0 -68 -57.5 -110.5t-147.5 -42.5z" />
    <glyph glyph-name="uni0328" unicode="&#x328;" 
d="M-311 -440q-73 0 -118.5 41.5t-45.5 115.5q0 165 250 293l10 -10q-164 -116 -164 -274q0 -60 29 -94.5t76 -34.5t88 28l6 -6q-49 -59 -131 -59z" />
    <glyph glyph-name="uni0335" unicode="&#x335;" 
d="M-164 1114h-549v29h549v-29z" />
    <glyph glyph-name="uni0337" unicode="&#x337;" 
d="M-164 803l-432 -283l-16 23l430 284z" />
    <glyph glyph-name="uni0338" unicode="&#x338;" 
d="M-164 967l-733 -1051l-27 16l729 1053z" />
    <glyph glyph-name="uni0394" unicode="&#x394;" horiz-adv-x="1261" 
d="M618 1321h33l529 -1321h-1100zM1040 31l-450 1130l-461 -1130h911z" />
    <glyph glyph-name="uni03A9" unicode="&#x3a9;" horiz-adv-x="1370" 
d="M842 94h364l64 223h14q8 -177 6 -317h-491l20 215q149 43 245.5 184t96.5 349q0 242 -130.5 395t-346.5 153q-215 0 -346 -153t-131 -395q0 -210 98.5 -350t255.5 -183l21 -215h-492q-2 140 6 317h15l63 -223h365l-11 99q-201 49 -329.5 195.5t-128.5 356.5
q0 120 46.5 227.5t127 185.5t195 123.5t245.5 45.5t245.5 -45.5t195 -123.5t127 -185.5t46.5 -227.5q0 -209 -125.5 -356t-320.5 -196z" />
    <glyph glyph-name="uni03BC" unicode="&#x3bc;" horiz-adv-x="1071" 
d="M1047 51l6 -8q-54 -63 -133 -63q-62 0 -100 38.5t-38 108.5v14q-120 -161 -305 -161q-129 0 -203 77v-391h-100v1153l-141 37v10q137 39 254 58v-656q0 -116 61 -179.5t158 -63.5q157 0 274 151v643l-139 37v10q136 39 252 58v-791q0 -100 80 -100q33 0 74 18z" />
    <glyph glyph-name="pi" unicode="&#x3c0;" horiz-adv-x="1114" 
d="M920 33q30 0 71 18l4 -6q-48 -65 -133 -65q-62 0 -96.5 38t-34.5 111v692h-430q-3 -466 -55 -821h-70q88 361 94 821h-176l15 97h890l-16 -97h-139v-696q0 -92 76 -92z" />
    <glyph glyph-name="endash" unicode="&#x2013;" horiz-adv-x="995" 
d="M872 467h-749v29h749v-29z" />
    <glyph glyph-name="emdash" unicode="&#x2014;" horiz-adv-x="1568" 
d="M1446 467h-1323v29h1323v-29z" />
    <glyph glyph-name="quoteleft" unicode="&#x2018;" horiz-adv-x="368" 
d="M174 1012q-43 0 -65.5 28.5t-22.5 81.5q0 87 57 184t156 160l6 -8q-159 -143 -88 -307l41 -96q-34 -43 -84 -43z" />
    <glyph glyph-name="quoteright" unicode="&#x2019;" horiz-adv-x="372" 
d="M90 1014l-6 8q158 145 88 307l-41 96q34 43 84 43q88 0 88 -110q0 -87 -57.5 -183.5t-155.5 -160.5z" />
    <glyph glyph-name="quotesinglbase" unicode="&#x201a;" horiz-adv-x="376" 
d="M61 -268l-8 10q158 143 90 305l-41 98q34 43 82 43q43 0 65.5 -28.5t22.5 -81.5q0 -87 -56.5 -184t-154.5 -162z" />
    <glyph glyph-name="quotedblleft" unicode="&#x201c;" horiz-adv-x="634" 
d="M174 1012q-43 0 -65.5 28.5t-22.5 81.5q0 87 57 184t156 160l6 -8q-159 -143 -88 -307l41 -96q-34 -43 -84 -43zM440 1012q-43 0 -65.5 28.5t-22.5 81.5q0 87 57.5 183.5t155.5 160.5l6 -8q-159 -143 -88 -307l41 -96q-34 -43 -84 -43z" />
    <glyph glyph-name="quotedblright" unicode="&#x201d;" horiz-adv-x="638" 
d="M90 1014l-6 8q158 145 88 307l-41 96q34 43 84 43q88 0 88 -110q0 -87 -57.5 -183.5t-155.5 -160.5zM356 1014l-6 8q159 143 88 307l-41 96q34 43 84 43q88 0 88 -110q0 -87 -57 -184t-156 -160z" />
    <glyph glyph-name="quotedblbase" unicode="&#x201e;" horiz-adv-x="643" 
d="M61 -268l-8 10q158 143 90 305l-41 98q34 43 82 43q43 0 65.5 -28.5t22.5 -81.5q0 -87 -56.5 -184t-154.5 -162zM328 -268l-6 10q158 146 88 305l-41 98q34 43 84 43q43 0 65.5 -28.5t22.5 -81.5q0 -87 -57.5 -184t-155.5 -162z" />
    <glyph glyph-name="dagger" unicode="&#x2020;" horiz-adv-x="643" 
d="M385 1430l-51 -244l219 51v-127l-221 49l53 -497h-127l51 497l-219 -49v127l217 -51l-49 244h127z" />
    <glyph glyph-name="daggerdbl" unicode="&#x2021;" horiz-adv-x="692" 
d="M410 1430l-50 -230l218 51v-116l-216 39l48 -130l-48 -126l216 38v-116l-218 49l50 -227h-127l49 227l-217 -49v116l215 -38l-47 126l47 130l-215 -39v116l217 -51l-49 230h127z" />
    <glyph glyph-name="bullet" unicode="&#x2022;" horiz-adv-x="655" 
d="M522 657l-194 -194l-193 194l193 193z" />
    <glyph glyph-name="ellipsis" unicode="&#x2026;" horiz-adv-x="1140" 
d="M207 -4q-42 0 -69 27t-27 69q0 41 27.5 68.5t68.5 27.5q43 0 70.5 -27.5t27.5 -68.5q0 -43 -27.5 -69.5t-70.5 -26.5zM569 -4q-42 0 -69 27t-27 69q0 41 27.5 68.5t68.5 27.5q43 0 71 -27.5t28 -68.5q0 -42 -28 -69t-71 -27zM932 -4q-42 0 -69 27t-27 69q0 41 27.5 68.5
t68.5 27.5q42 0 69 -27t27 -69q0 -43 -26.5 -69.5t-69.5 -26.5z" />
    <glyph glyph-name="perthousand" unicode="&#x2030;" horiz-adv-x="1865" 
d="M371 -117l712 1555l35 -15l-719 -1554zM633 1028q0 -124 -83.5 -209.5t-205.5 -85.5q-121 0 -205 86t-84 209q0 126 83.5 212.5t205.5 86.5t205.5 -86.5t83.5 -212.5zM344 756q83 0 135.5 75t52.5 199t-53 200.5t-135 76.5q-84 0 -136 -76.5t-52 -200.5t52 -199t136 -75z
M1544 573q113 0 189.5 -78.5t76.5 -220.5q0 -140 -77 -217t-189 -77q-69 0 -124.5 30t-88.5 88q-33 -58 -88.5 -88t-124.5 -30q-113 0 -190.5 77.5t-77.5 216.5q0 142 77.5 220.5t190.5 78.5q69 0 124.5 -30t88.5 -88q33 58 88.5 88t124.5 30zM1118 2q73 0 120.5 67
t47.5 207q0 139 -48 208t-120 69q-73 0 -121.5 -69t-48.5 -208t48 -206.5t122 -67.5zM1544 2q73 0 120.5 67t47.5 207q0 139 -48 208t-120 69q-73 0 -121.5 -69t-48.5 -208t48 -206.5t122 -67.5z" />
    <glyph glyph-name="guilsinglleft" unicode="&#x2039;" horiz-adv-x="595" 
d="M463 739l14 -12l-282 -299l282 -299l-14 -12l-397 311z" />
    <glyph glyph-name="guilsinglright" unicode="&#x203a;" horiz-adv-x="595" 
d="M119 727l12 12l397 -311l-397 -311l-12 12l280 299z" />
    <glyph glyph-name="fraction" unicode="&#x2044;" horiz-adv-x="819" 
d="M719 645h-619v29h619v-29z" />
    <glyph glyph-name="Euro" unicode="&#x20ac;" horiz-adv-x="1323" 
d="M1053 90l116 297h13q12 -167 8 -319q-171 -88 -369 -88q-224 0 -381 143.5t-192 394.5h-195l6 31h185q-6 50 -6 104q0 51 6 97h-152l6 28h150q35 245 196.5 397t376.5 152q198 0 369 -88q4 -155 -8 -319h-13l-116 297q-41 37 -104.5 58t-129.5 21q-170 0 -290 -138.5
t-146 -379.5h487l-6 -28h-485q-4 -62 -4 -97q0 -38 4 -104h452l-6 -31h-442q26 -245 143 -376.5t293 -131.5q66 0 129.5 21.5t104.5 58.5z" />
    <glyph glyph-name="trademark" unicode="&#x2122;" horiz-adv-x="1372" 
d="M90 1305h457q0 -128 -4 -175h-6l-78 156h-94v-479q40 -8 75 -25v-6h-243v6q23 12 77 25v479h-92l-80 -156h-6q-6 70 -6 175zM1163 1276l41 -469q39 -14 62 -25v-6h-224v6q34 15 66 25l-39 434l-168 -457h-35l-168 463l-39 -426q35 -13 72 -39v-6h-160v6q33 26 66 39
l41 457q-8 3 -64 20v7h164l140 -400l149 400h166v-7q-33 -13 -70 -22z" />
    <glyph glyph-name="partialdiff" unicode="&#x2202;" horiz-adv-x="1013" 
d="M424 -20q-154 0 -243 102.5t-89 275.5q0 155 69 288t187 210.5t256 77.5q122 0 199 -92q-9 271 -88 415t-223 144q-177 0 -285 -160l-23 14q131 195 336 195q103 0 181.5 -55t126 -152t71 -219t23.5 -266q0 -358 -139 -568t-359 -210zM428 10q113 0 201.5 92.5t135 242.5
t46.5 327q0 54 -6 104q-71 127 -203 127q-112 0 -205 -83t-143.5 -216t-50.5 -282q0 -147 58 -229.5t167 -82.5z" />
    <glyph glyph-name="product" unicode="&#x220f;" horiz-adv-x="1370" 
d="M66 1307h1239v-11q-43 -14 -156 -43v-1611q44 -9 156 -41v-11h-431v11q97 29 156 41v1634h-692v-1634q34 -7 158 -41v-11h-430v11q105 31 155 41v1611q-101 25 -155 43v11z" />
    <glyph glyph-name="summation" unicode="&#x2211;" horiz-adv-x="1120" 
d="M258 -303h655l64 244h10q6 -150 6 -351h-823v43l532 779l-532 852v43h823q0 -200 -6 -353h-10l-103 322h-571l483 -803z" />
    <glyph glyph-name="minus" unicode="&#x2212;" horiz-adv-x="1228" 
d="M1006 631h-783v28h783v-28z" />
    <glyph glyph-name="radical" unicode="&#x221a;" horiz-adv-x="1058" 
d="M244 866l309 -735l500 1299h67l-594 -1444h-22l-385 886q-42 11 -111 35v11h373v-11q-21 -8 -137 -41z" />
    <glyph glyph-name="infinity" unicode="&#x221e;" horiz-adv-x="1415" 
d="M1040 961q130 0 210.5 -98t80.5 -240q0 -149 -77.5 -239.5t-200.5 -90.5q-107 0 -187 67.5t-147 196.5q-33 -63 -64 -106.5t-72 -81.5t-93 -57t-115 -19q-131 0 -211 97.5t-80 242.5q0 148 77.5 238t200.5 90q106 0 186 -68.5t148 -198.5q32 63 62.5 107t71.5 82.5
t93.5 58t116.5 19.5zM352 383q110 0 182 68t146 215q-123 204 -313 204q-119 0 -187.5 -64t-68.5 -173q0 -108 67.5 -179t173.5 -71zM1049 381q119 0 187.5 65t68.5 175q0 107 -68 178t-174 71q-110 0 -182 -67.5t-148 -214.5q63 -102 139 -154.5t177 -52.5z" />
    <glyph glyph-name="integral" unicode="&#x222b;" horiz-adv-x="645" 
d="M551 1450q117 0 209 -59q-5 -112 -19 -244h-10l-96 250q-41 26 -86 26q-81 -2 -128.5 -76t-47.5 -217v-1191q0 -170 -82.5 -259.5t-206.5 -89.5q-112 0 -211 58q4 91 21 246h10l96 -250q42 -27 84 -27q84 2 131 76.5t47 216.5v1192q0 169 82 258.5t207 89.5z" />
    <glyph glyph-name="approxequal" unicode="&#x2248;" horiz-adv-x="1228" 
d="M252 780h-21q7 62 67.5 97.5t139.5 35.5q60 0 124 -24t127.5 -48t123.5 -24q67 0 116 26.5t56 76.5h23q-7 -64 -65.5 -99t-135.5 -35q-73 0 -190 48.5t-187 48.5q-69 0 -120 -27t-58 -76zM252 373h-21q7 61 67.5 97t139.5 36q60 0 124 -24t127.5 -48t123.5 -24
q68 0 116.5 25t55.5 75h23q-7 -64 -65 -98.5t-136 -34.5q-73 0 -190 48t-187 48q-69 0 -120 -26.5t-58 -73.5z" />
    <glyph glyph-name="notequal" unicode="&#x2260;" horiz-adv-x="1228" 
d="M1006 846v-29h-320l-90 -340h410v-28h-418l-66 -242l-26 6l63 236h-334v28h340l92 340h-432v29h439l65 241l29 -6l-64 -235h312z" />
    <glyph glyph-name="lessequal" unicode="&#x2264;" horiz-adv-x="1228" 
d="M1006 1040v-30l-740 -262l740 -263v-30l-783 278v31zM1006 252h-783v29h783v-29z" />
    <glyph glyph-name="greaterequal" unicode="&#x2265;" horiz-adv-x="1228" 
d="M963 748l-740 262v30l783 -276v-31l-783 -278v30zM1006 281v-29h-783v29h783z" />
    <glyph glyph-name="lozenge" unicode="&#x25ca;" horiz-adv-x="940" 
d="M78 612l358 613h68l360 -613l-360 -612h-68zM471 1169l-332 -557l332 -557l330 557z" />
    <glyph glyph-name="uniF8FF" unicode="&#xf8ff;" horiz-adv-x="4724" 
d="M1149 408q-95 0 -136.5 40t-41.5 130v466h203q0 -62 -40 -122t-98 -86l2 -9q58 35 119 35h105v-162h-86v-98q0 -35 36 -35q28 0 50 15v-154q-36 -20 -113 -20zM1505 418h-202v626h200q0 -67 -47 -122t-115 -70l5 -6q84 16 143 16h16v-444zM2808 408q-95 0 -137.5 40.5
t-42.5 129.5v466h202q0 -62 -39 -122t-98 -86l4 -9q58 35 119 35h102v-162h-86v-98q0 -35 37 -35q27 0 49 15v-154q-36 -20 -110 -20zM408 418h-203v624h203v-624zM584 408q-66 0 -105 34t-39 90q0 60 41 98t111 38q92 0 135 -43h4v71q0 24 -12 38t-35 14q-47 0 -47 -60
l-184 29q37 160 249 160q110 0 172 -50t62 -135v-274h-201v45h-6q-14 -20 -51.5 -37.5t-93.5 -17.5zM1751 418h-203v444h199v-133h6q17 143 145 143q70 0 110 -46t40 -134v-274h-205v264q0 55 -39 55q-22 0 -32 -13t-21 -52v-254zM2337 408q-123 0 -190.5 63.5t-67.5 167.5
t69 168.5t189 64.5q122 0 190 -64.5t68 -168.5q0 -103 -67.5 -167t-190.5 -64zM3668 270h-205v592h203v-133h6q21 143 150 143q170 0 170 -233q0 -115 -51.5 -173t-125.5 -58q-105 0 -141 88h-6v-226zM4274 408q-120 0 -187 63.5t-67 167.5q0 103 70 168t190 65
q107 0 173.5 -64.5t66.5 -158.5v-18h-307q0 -39 18.5 -66.5t50.5 -27.5q55 0 62 69l168 -16q-18 -95 -83 -138.5t-155 -43.5zM3095 262h-80v135h133q115 0 137 25l-2 6h-139q-83 0 -107 80l-110 354h204q6 -37 20 -110t24 -134t14 -110h4q13 125 61 354h203l-145 -424
q-63 -176 -217 -176zM4213 655h12q62 0 87.5 12t25.5 38q0 45 -49 45q-34 0 -55 -26t-21 -69zM3738 506q31 0 46 27.5t15 89.5q0 66 -12 95.5t-43 29.5q-46 0 -62 -68v-148q21 -26 56 -26zM2337 535q59 0 59 104q0 106 -59 106q-58 0 -58 -106q0 -104 58 -104zM686 469
q30 0 45 23v104q-10 16 -39 16q-25 0 -40 -19t-15 -52q0 -72 49 -72z" />
    <glyph glyph-name="uni0308.case" 
d="M-567 1511q-37 0 -60.5 23.5t-23.5 58.5q0 37 23.5 60.5t60.5 23.5t60.5 -23.5t23.5 -60.5q0 -35 -23.5 -58.5t-60.5 -23.5zM-248 1511q-37 0 -60.5 23.5t-23.5 58.5q0 37 23.5 60.5t60.5 23.5t60.5 -23.5t23.5 -60.5q0 -35 -23.5 -58.5t-60.5 -23.5z" />
    <glyph glyph-name="gravecomb.case" 
d="M-164 1444h-10l-326 282v5h203z" />
    <glyph glyph-name="acutecomb.case" 
d="M-489 1444h-11l133 287h203v-5z" />
    <glyph glyph-name="uni0302.case" 
d="M-522 1731h133l225 -287h-10l-281 194l-282 -194h-11z" />
    <glyph glyph-name="uni030C.case" 
d="M-737 1731l282 -195l281 195h10l-225 -287h-133l-226 287h11z" />
    <glyph glyph-name="uni030A.case" 
d="M-344 1378q-77 0 -127.5 52t-50.5 131q0 78 50.5 129t127.5 51q78 0 129 -51t51 -129q0 -79 -51 -131t-129 -52zM-344 1419q59 0 97 40.5t38 101.5q0 60 -37.5 99.5t-97.5 39.5q-59 0 -96 -39t-37 -100t37 -101.5t96 -40.5z" />
    <glyph glyph-name="tildecomb.case" 
d="M-332 1485q-49 0 -106 28l-114 56t-105 28q-89 0 -117 -102h-17q7 94 51 143.5t117 49.5q57 0 163 -56.5t163 -56.5q91 0 119 102h14q-14 -192 -168 -192z" />
    <glyph glyph-name="uni0337.case" 
d="M-164 758l-428 -330l-22 31l426 332z" />
    <glyph glyph-name="uni0338.case" 
d="M-164 1343l-977 -1404l-28 22l972 1407z" />
    <glyph glyph-name="dieresis.case" horiz-adv-x="815" 
d="M248 1511q-37 0 -60.5 23.5t-23.5 58.5q0 37 23.5 60.5t60.5 23.5t60.5 -23.5t23.5 -60.5q0 -35 -23.5 -58.5t-60.5 -23.5zM567 1511q-37 0 -60.5 23.5t-23.5 58.5q0 37 23.5 60.5t60.5 23.5t60.5 -23.5t23.5 -60.5q0 -35 -23.5 -58.5t-60.5 -23.5z" />
    <glyph glyph-name="grave.case" horiz-adv-x="663" 
d="M500 1444h-11l-325 282v5h203z" />
    <glyph glyph-name="acute.case" horiz-adv-x="663" 
d="M174 1444h-10l133 287h203v-5z" />
    <glyph glyph-name="circumflex.case" horiz-adv-x="911" 
d="M389 1731h133l226 -287h-11l-280 194l-283 -194h-10z" />
    <glyph glyph-name="caron.case" horiz-adv-x="911" 
d="M174 1731l283 -195l280 195h11l-226 -287h-133l-225 287h10z" />
    <glyph glyph-name="ring.case" horiz-adv-x="686" 
d="M342 1378q-77 0 -127.5 52t-50.5 131q0 78 50.5 129t127.5 51q78 0 129 -51t51 -129q0 -79 -51 -131t-129 -52zM342 1419q59 0 97 40.5t38 101.5q0 60 -37.5 99.5t-97.5 39.5q-59 0 -96 -39t-37 -100t37 -101.5t96 -40.5z" />
    <glyph glyph-name="tilde.case" horiz-adv-x="954" 
d="M623 1485q-49 0 -106.5 28t-114.5 56t-105 28q-89 0 -117 -102h-16q7 94 51 143.5t117 49.5q57 0 162.5 -56.5t162.5 -56.5q91 0 119 102h15q-14 -192 -168 -192z" />
    </font>
</defs>
</svg>
