<?xml version="1.0" standalone="no"?>
<!DOCTYPE svg PUBLIC "-//W3C//DTD SVG 1.1//EN" "http://www.w3.org/Graphics/SVG/1.1/DTD/svg11.dtd" >
<svg xmlns="http://www.w3.org/2000/svg" xmlns:xlink="http://www.w3.org/1999/xlink" version="1.1">
<metadata>
Created by FontForge 20170731 at Sun Jul 24 19:05:43 2022
 By Aleksey,,,
Copyright (c) 2017 by Martin Va'cha. All rights reserved.
</metadata>
<defs>
<font id="Roobert-Light" horiz-adv-x="1146" >
  <font-face 
    font-family="Roobert Light"
    font-weight="300"
    font-stretch="normal"
    units-per-em="2048"
    panose-1="0 0 4 0 0 0 0 0 0 0"
    ascent="1630"
    descent="-418"
    x-height="1032"
    cap-height="1434"
    bbox="-717 -504 2732 2245"
    underline-thickness="102"
    underline-position="-307"
    unicode-range="U+000D-266B"
  />
<missing-glyph horiz-adv-x="2228" 
d="M1079 -418v2048q-201 -7 -384 -92t-315.5 -222.5t-211 -324t-78.5 -387.5q0 -270 132 -502t359.5 -371.5t497.5 -148.5zM1149 1624v-2036q85 24 156.5 166.5t113 368t41.5 481.5q0 389 -91.5 685t-219.5 335zM1526 604q0 -326 -63 -590.5t-169 -394.5q150 56 268.5 199.5
t185.5 349t67 436.5q0 229 -66.5 435t-185.5 351t-269 203q106 -131 169 -396.5t63 -592.5zM1495 -344q287 115 465 375t178 573t-179.5 574.5t-469.5 377.5q182 -145 287.5 -400t105.5 -552q0 -296 -104.5 -550.5t-282.5 -397.5z" />
    <glyph glyph-name="f_f.liga" unicode="ff" horiz-adv-x="1345" 
d="M1149 1331q-79 0 -125.5 -50.5t-46.5 -139.5v-109h328v-119h-328v-913h-129v913h-467v-913h-129v913h-221v119h221v109q0 142 81.5 225.5t221.5 83.5h154v-119h-156q-79 0 -125.5 -50.5t-46.5 -139.5v-109h467v109q0 142 81.5 225.5t221.5 83.5h154v-119h-156z" />
    <glyph glyph-name="f_f_i.liga" unicode="ffi" horiz-adv-x="1685" 
d="M1554 1032v-1032h-129v913h-448v-913h-129v913h-467v-913h-129v913h-221v119h221v109q0 142 81.5 225.5t221.5 83.5h154v-119h-156q-79 0 -125.5 -50.5t-46.5 -139.5v-109h467v109q0 142 81.5 225.5t221.5 83.5h154v-119h-156q-79 0 -125.5 -50.5t-46.5 -139.5v-109h577z
" />
    <glyph glyph-name="f_f_l.liga" unicode="ffl" horiz-adv-x="1742" 
d="M1464 1450h129v-1450h-129v913h-487v-913h-129v913h-467v-913h-129v913h-221v119h221v109q0 142 81.5 225.5t221.5 83.5h154v-119h-156q-79 0 -125.5 -50.5t-46.5 -139.5v-109h467v109q0 142 81.5 225.5t221.5 83.5h154v-119h-156q-79 0 -125.5 -50.5t-46.5 -139.5v-109
h487v418z" />
    <glyph glyph-name="f_i.liga" unicode="fi" horiz-adv-x="1089" 
d="M958 1032v-1032h-129v913h-448v-913h-129v913h-221v119h221v109q0 142 81.5 225.5t221.5 83.5h154v-119h-156q-79 0 -125.5 -50.5t-46.5 -139.5v-109h577z" />
    <glyph glyph-name="f_l.liga" unicode="fl" 
d="M868 1450h129v-1450h-129v913h-487v-913h-129v913h-221v119h221v109q0 142 81.5 225.5t221.5 83.5h154v-119h-156q-79 0 -125.5 -50.5t-46.5 -139.5v-109h487v418z" />
    <glyph glyph-name="r_f.liga" unicode="rf" horiz-adv-x="1292" 
d="M795 0v1141q0 142 81.5 225.5t221.5 83.5h153v-119h-155q-79 0 -125.5 -50.5t-46.5 -139.5v-109h327v-119h-327v-913h-129zM694 913h-135q-66 0 -116.5 -24.5t-82.5 -65.5t-52 -102.5t-28 -129.5t-8 -151v-440h-129v1032h129v-219q31 110 100.5 164.5t186.5 54.5h135
v-119z" />
    <glyph glyph-name="r_t.liga" unicode="rt" horiz-adv-x="1292" 
d="M795 1370h129v-338h327v-119h-327v-604q0 -89 46.5 -139.5t125.5 -50.5h155v-119h-153q-140 0 -221.5 83.5t-81.5 225.5v1061zM694 913h-135q-66 0 -116.5 -24.5t-82.5 -65.5t-52 -102.5t-28 -129.5t-8 -151v-440h-129v1032h129v-219q31 110 100.5 164.5t186.5 54.5h135
v-119z" />
    <glyph glyph-name="t_t.liga" unicode="tt" horiz-adv-x="1345" 
d="M1305 913h-328v-604q0 -89 46.5 -139.5t125.5 -50.5h156v-119h-154q-140 0 -221.5 83.5t-81.5 225.5v604h-467v-604q0 -89 46.5 -139.5t125.5 -50.5h156v-119h-154q-140 0 -221.5 83.5t-81.5 225.5v604h-221v119h221v338h129v-338h467v338h129v-338h328v-119z" />
    <glyph glyph-name=".notdef" horiz-adv-x="2228" 
d="M1079 -418v2048q-201 -7 -384 -92t-315.5 -222.5t-211 -324t-78.5 -387.5q0 -270 132 -502t359.5 -371.5t497.5 -148.5zM1149 1624v-2036q85 24 156.5 166.5t113 368t41.5 481.5q0 389 -91.5 685t-219.5 335zM1526 604q0 -326 -63 -590.5t-169 -394.5q150 56 268.5 199.5
t185.5 349t67 436.5q0 229 -66.5 435t-185.5 351t-269 203q106 -131 169 -396.5t63 -592.5zM1495 -344q287 115 465 375t178 573t-179.5 574.5t-469.5 377.5q182 -145 287.5 -400t105.5 -552q0 -296 -104.5 -550.5t-282.5 -397.5z" />
    <glyph glyph-name=".null" horiz-adv-x="0" 
 />
    <glyph glyph-name="nonmarkingreturn" horiz-adv-x="682" 
 />
    <glyph glyph-name="CR" unicode="&#xd;" horiz-adv-x="516" 
 />
    <glyph glyph-name="space" unicode=" " horiz-adv-x="501" 
 />
    <glyph glyph-name="exclam" unicode="!" horiz-adv-x="493" 
d="M203 299l-45 1135h178l-45 -1135h-88zM174 164h145v-164h-145v164z" />
    <glyph glyph-name="quotedbl" unicode="&#x22;" horiz-adv-x="796" 
d="M186 983l-45 467h191l-45 -467h-101zM510 983l-45 467h190l-45 -467h-100z" />
    <glyph glyph-name="numbersign" unicode="#" horiz-adv-x="1488" 
d="M285 0l98 438h-264v111h287l75 336h-272v110h297l98 439h119l-96 -439h360l98 439h119l-98 -439h264v-110h-287l-75 -336h272v-111h-297l-98 -438h-119l96 438h-360l-99 -438h-118zM524 549h365l76 336h-365z" />
    <glyph glyph-name="dollar" unicode="$" horiz-adv-x="1202" 
d="M1141 383q0 -178 -132 -282t-343 -115v-183l-125 2v183q-204 22 -326.5 149t-136.5 328h137q15 -164 120 -259t283 -95q173 0 275 67t102 205q0 80 -48 136t-124 87.5t-168.5 57t-185 55.5t-168.5 70.5t-124 113.5t-48 174q0 153 112.5 252.5t299.5 116.5v172h125v-170
q188 -15 308.5 -126.5t137.5 -287.5h-137q-14 132 -111.5 210.5t-251.5 78.5q-161 0 -251.5 -66t-90.5 -180q0 -62 30 -108t80 -75t115.5 -51t137.5 -40.5t144.5 -39t138 -51.5t115.5 -72t80 -106.5t30 -150.5z" />
    <glyph glyph-name="percent" unicode="%" horiz-adv-x="1521" 
d="M410 795q-133 0 -221.5 94.5t-88.5 232.5t89 233t221 95t219.5 -95t87.5 -233t-87.5 -232.5t-219.5 -94.5zM174 0l1040 1434h125l-1040 -1434h-125zM410 897q89 0 141.5 63.5t52.5 161.5t-52.5 162t-141.5 64t-143 -64.5t-54 -161.5t54 -161t143 -64zM1110 -16
q-132 0 -220.5 94.5t-88.5 232.5t88.5 233t220.5 95t219.5 -95t87.5 -233t-87.5 -232.5t-219.5 -94.5zM1110 86q89 0 142 63.5t53 161.5t-53 162t-142 64t-143 -64.5t-54 -161.5t54 -161t143 -64z" />
    <glyph glyph-name="ampersand" unicode="&#x26;" horiz-adv-x="1372" 
d="M1305 0h-154l-176 188q-77 -109 -189 -156.5t-229 -47.5q-206 0 -321 103.5t-115 289.5q0 60 17.5 112.5t44.5 91t70.5 75t83.5 62t95 54.5q-188 208 -188 352q0 142 99 234t253 92t253 -86.5t99 -220.5q0 -63 -18 -117.5t-45 -94.5t-71 -78t-84.5 -63.5t-96.5 -54.5
l319 -350l35 61q36 63 75 104t80.5 59t75 24t76.5 6v-127q-68 0 -121 -29.5t-81 -81.5l-56 -106zM375 1116q0 -36 13.5 -72.5t43 -77.5t51 -66.5t62.5 -70.5q63 33 105 60t84 64.5t62.5 82t20.5 97.5q0 91 -62 148.5t-159 57.5t-159 -62.5t-62 -160.5zM555 102
q92 0 180.5 42t153.5 137l-369 395q-65 -34 -105.5 -59.5t-82.5 -63t-62 -82t-20 -98.5q0 -129 79.5 -200t225.5 -71z" />
    <glyph glyph-name="quotesingle" unicode="'" horiz-adv-x="473" 
d="M186 983l-45 467h191l-45 -467h-101z" />
    <glyph glyph-name="parenleft" unicode="(" horiz-adv-x="546" 
d="M406 -172q-140 179 -217.5 405t-77.5 453t77.5 453t217.5 405l88 -67q-256 -379 -256 -791q0 -411 256 -790z" />
    <glyph glyph-name="parenright" unicode=")" horiz-adv-x="546" 
d="M141 -172l-88 68q256 379 256 790q0 412 -256 791l88 67q140 -179 217.5 -405t77.5 -453t-77.5 -453t-217.5 -405z" />
    <glyph glyph-name="asterisk" unicode="*" horiz-adv-x="944" 
d="M287 739l-84 62l186 243l-299 101l33 98l297 -98v305h104v-305l295 98l35 -98l-301 -101l186 -243l-82 -62l-186 248z" />
    <glyph glyph-name="plus" unicode="+" horiz-adv-x="1218" 
d="M1063 707v-115h-397v-395h-115v395h-395v115h395v397h115v-397h397z" />
    <glyph glyph-name="comma" unicode="," horiz-adv-x="518" 
d="M88 -113h70q40 0 63 33t23 100v162h129v-162q0 -122 -57.5 -186.5t-157.5 -64.5h-70v118z" />
    <glyph glyph-name="hyphen" unicode="-" horiz-adv-x="950" 
d="M111 592v115h729v-115h-729z" />
    <glyph glyph-name="period" unicode="." horiz-adv-x="493" 
d="M174 164h145v-164h-145v164z" />
    <glyph glyph-name="slash" unicode="/" horiz-adv-x="843" 
d="M45 -2l643 1436h111l-645 -1436h-109z" />
    <glyph glyph-name="zero" unicode="0" horiz-adv-x="1222" 
d="M578 -16q-252 0 -364 166.5t-112 504.5v123q0 338 112 505t364 167h67q253 0 364 -166.5t111 -505.5v-123q0 -338 -111 -504.5t-364 -166.5h-67zM580 111h65q182 0 261 133t79 411v123q0 278 -79 411.5t-261 133.5h-65q-182 0 -261 -133.5t-79 -411.5v-123
q0 -278 79 -411t261 -133z" />
    <glyph glyph-name="one" unicode="1" horiz-adv-x="673" 
d="M518 1434v-1434h-137v1167q-30 -47 -113 -47h-145v127h121q67 0 99 39.5t38 147.5h137z" />
    <glyph glyph-name="two" unicode="2" horiz-adv-x="1138" 
d="M141 981q-10 213 116 341t343 128q197 0 324 -116t127 -306q0 -138 -84.5 -253t-247.5 -197l-199 -101q-113 -58 -193.5 -149t-80.5 -201h815v-127h-946v94q0 77 22.5 147t57.5 123t84 99.5t94.5 77.5t95.5 57l215 111q121 62 172 140t51 183q0 130 -87 210.5t-220 80.5
q-148 0 -235 -93.5t-80 -248.5h-144z" />
    <glyph glyph-name="three" unicode="3" horiz-adv-x="1208" 
d="M627 -16q-216 0 -361 131t-145 334h137q0 -149 104.5 -243.5t264.5 -94.5q164 0 259 75.5t95 212.5q0 136 -94 208.5t-260 72.5h-109v127h109q137 0 217 75.5t80 194.5q0 116 -82.5 181t-223.5 65q-134 0 -214 -76.5t-89 -212.5h-135q9 189 128.5 302.5t309.5 113.5
q197 0 323 -104.5t126 -268.5q0 -109 -62 -197t-155 -128q121 -37 197.5 -130.5t76.5 -222.5q0 -132 -70 -228t-181 -141.5t-246 -45.5z" />
    <glyph glyph-name="four" unicode="4" horiz-adv-x="1290" 
d="M852 0v379h-782v127l749 928h170v-928h240v-127h-240v-379h-137zM221 506h631v788z" />
    <glyph glyph-name="five" unicode="5" horiz-adv-x="1216" 
d="M596 -16q-192 0 -323.5 115.5t-153.5 297.5h135q17 -136 108 -211t232 -75q174 0 276.5 95t102.5 261q0 167 -102.5 268t-274.5 101q-127 0 -217.5 -49.5t-122.5 -135.5h-106l108 783h754v-127h-650l-67 -476q56 54 144 90.5t167 36.5q229 0 369.5 -135.5t140.5 -355.5
q0 -219 -143 -351t-377 -132z" />
    <glyph glyph-name="six" unicode="6" horiz-adv-x="1275" 
d="M643 958q221 0 363.5 -137.5t142.5 -349.5q0 -214 -142.5 -350.5t-363.5 -136.5q-237 0 -379.5 175t-142.5 472q0 203 42.5 361.5t118 258t174.5 150.5t216 51q189 0 320.5 -102t162.5 -271h-143q-26 116 -115 181t-225 65q-120 0 -214.5 -81.5t-147.5 -219t-60 -309.5
q46 108 155.5 175.5t237.5 67.5zM643 111q158 0 260.5 102t102.5 260q0 157 -102.5 257.5t-260.5 100.5t-260 -100.5t-102 -257.5q0 -158 102 -260t260 -102z" />
    <glyph glyph-name="seven" unicode="7" horiz-adv-x="1157" 
d="M387 0q1 89 8.5 159t29.5 164t69.5 201t121.5 228l340 555h-866v127h1024v-115l-399 -674q-62 -104 -102 -196.5t-58 -174t-24 -140.5t-7 -134h-137z" />
    <glyph glyph-name="eight" unicode="8" horiz-adv-x="1241" 
d="M621 -16q-136 0 -247.5 46t-182 142.5t-70.5 228.5q0 131 78 233t196 138q-96 41 -157.5 120t-61.5 185q0 165 123.5 269t321.5 104q197 0 320.5 -104t123.5 -269q0 -106 -61.5 -185t-157.5 -120q118 -36 196 -138t78 -233q0 -132 -70 -228.5t-181.5 -142.5t-247.5 -46z
M621 825q138 0 219.5 67.5t81.5 184.5q0 115 -81 180.5t-220 65.5t-220.5 -65.5t-81.5 -180.5q0 -117 81.5 -184.5t220.5 -67.5zM621 111q163 0 259.5 77.5t96.5 212.5q0 137 -97 217t-259 80t-259.5 -80t-97.5 -217q0 -135 97 -212.5t260 -77.5z" />
    <glyph glyph-name="nine" unicode="9" horiz-adv-x="1275" 
d="M633 475q-221 0 -363.5 137.5t-142.5 350.5q0 214 142.5 350.5t363.5 136.5q237 0 379.5 -175t142.5 -472q0 -203 -42.5 -361.5t-118 -258t-174.5 -150.5t-216 -51q-189 0 -320.5 101.5t-162.5 270.5h143q26 -116 115 -180.5t225 -64.5q120 0 214.5 81.5t147.5 219
t60 309.5q-46 -108 -155.5 -176t-237.5 -68zM633 1323q-158 0 -260.5 -102t-102.5 -260q0 -157 102.5 -258t260.5 -101t260 101t102 258q0 158 -102 260t-260 102z" />
    <glyph glyph-name="colon" unicode=":" horiz-adv-x="493" 
d="M174 922h145v-164h-145v164zM174 164h145v-164h-145v164z" />
    <glyph glyph-name="semicolon" unicode=";" horiz-adv-x="518" 
d="M236 922h145v-164h-145v164zM88 -113h70q40 0 63 33t23 100v162h129v-162q0 -122 -57.5 -186.5t-157.5 -64.5h-70v118z" />
    <glyph glyph-name="less" unicode="&#x3c;" horiz-adv-x="921" 
d="M827 197l-739 368v140l739 368v-127l-639 -311l639 -311v-127z" />
    <glyph glyph-name="equal" unicode="=" horiz-adv-x="1218" 
d="M156 780v115h907v-115h-907zM156 322v114h907v-114h-907z" />
    <glyph glyph-name="greater" unicode="&#x3e;" horiz-adv-x="921" 
d="M94 197v127l637 311l-637 311v127l740 -368v-140z" />
    <glyph glyph-name="question" unicode="?" horiz-adv-x="1044" 
d="M489 299q-156 0 -242.5 68t-86.5 206q0 79 36 133t94 81.5t127.5 45t139.5 33t128 37.5t94 66t36 110q0 117 -75 180.5t-210 63.5q-133 0 -222 -73.5t-95 -200.5h-139q9 183 136 292t320 109q201 0 319 -99t118 -266q0 -84 -37 -144.5t-96.5 -93.5t-131.5 -56t-144 -40
t-131.5 -36.5t-96.5 -54.5t-37 -87q0 -85 49.5 -120t142.5 -35h303v-119h-299zM453 164h145v-164h-145v164z" />
    <glyph glyph-name="at" unicode="@" horiz-adv-x="1849" 
d="M1120 1470q295 0 472 -158t177 -421v-303q0 -186 -81.5 -286.5t-235.5 -100.5q-91 0 -158.5 40t-87.5 107q-31 -68 -114.5 -109.5t-192.5 -41.5q-188 0 -293.5 120t-105.5 304t105 303.5t294 119.5q85 0 165.5 -40.5t121.5 -104.5v133h123v-583q0 -59 39.5 -95.5
t103.5 -36.5q184 0 184 271v303q0 206 -141 330.5t-375 124.5h-350q-234 0 -375 -124.5t-141 -330.5v-529q0 -218 140.5 -349.5t375.5 -131.5h406v-114h-406q-295 0 -472 162.5t-177 432.5v529q0 263 177 421t472 158h350zM909 299q130 0 207.5 87.5t77.5 234.5
q0 146 -77.5 233.5t-207.5 87.5t-208 -87.5t-78 -233.5t78 -234t208 -88z" />
    <glyph glyph-name="A" unicode="A" horiz-adv-x="1308" 
d="M1149 0l-158 408h-674l-159 -408h-142l578 1434h121l577 -1434h-143zM367 535h575l-287 737z" />
    <glyph glyph-name="B" unicode="B" horiz-adv-x="1236" 
d="M156 0v1434h497q205 0 318.5 -97.5t113.5 -271.5q0 -95 -57.5 -171.5t-138.5 -109.5q120 -39 189 -131t69 -239q0 -191 -120 -302.5t-337 -111.5h-534zM293 827h360q140 0 214.5 60t74.5 180t-74 180t-213 60h-362v-480zM293 127h366q167 0 254.5 73.5t87.5 213.5
t-87.5 213t-254.5 73h-366v-573z" />
    <glyph glyph-name="C" unicode="C" horiz-adv-x="1435" 
d="M772 -16q-107 0 -205.5 28t-185.5 87t-151.5 144t-102 207t-37.5 267t37.5 267t102 207t152 144t186 87t204.5 28q224 0 392.5 -128t197.5 -321h-143q-20 138 -147.5 230t-299.5 92q-243 0 -391 -159.5t-148 -446.5t148 -446.5t391 -159.5q177 0 304.5 91.5t142.5 229.5
h143q-25 -193 -193 -320.5t-397 -127.5z" />
    <glyph glyph-name="D" unicode="D" horiz-adv-x="1359" 
d="M156 0v1434h405q202 0 362 -84.5t253.5 -249t93.5 -383.5t-93.5 -383.5t-253.5 -249t-362 -84.5h-405zM293 127h272q112 0 210.5 35t177.5 104.5t125 185.5t46 265t-46 265t-125 185.5t-177.5 104.5t-210.5 35h-272v-1180z" />
    <glyph glyph-name="E" unicode="E" 
d="M156 0v1434h874v-127h-737v-500h604v-127h-604v-553h760v-127h-897z" />
    <glyph glyph-name="F" unicode="F" horiz-adv-x="1124" 
d="M156 0v1434h874v-127h-737v-516h604v-127h-604v-664h-137z" />
    <glyph glyph-name="G" unicode="G" horiz-adv-x="1486" 
d="M774 -16q-107 0 -206.5 29t-186.5 89t-151.5 145.5t-102 206t-37.5 263.5q0 177 57 319.5t153 231t217 135.5t255 47q239 0 411.5 -128.5t200.5 -326.5h-151q-26 142 -157 235t-304 93q-240 0 -388 -159.5t-148 -446.5t148 -446.5t388 -159.5q128 0 234 42t171.5 125.5
t65.5 194.5q0 56 -34.5 89.5t-94.5 33.5h-338v127h346q30 0 64 -9t69 -29t63 -48t46 -71t18 -93v-473h-131v258q-55 -123 -184.5 -198.5t-292.5 -75.5z" />
    <glyph glyph-name="H" unicode="H" horiz-adv-x="1392" 
d="M1100 1434h137v-1434h-137v678h-807v-678h-137v1434h137v-629h807v629z" />
    <glyph glyph-name="I" unicode="I" horiz-adv-x="448" 
d="M156 0v1434h137v-1434h-137z" />
    <glyph glyph-name="J" unicode="J" horiz-adv-x="618" 
d="M35 127h184q66 0 101.5 56t35.5 161v1090h138v-1090q0 -167 -70.5 -255.5t-204.5 -88.5h-184v127z" />
    <glyph glyph-name="K" unicode="K" horiz-adv-x="1263" 
d="M1077 0l-569 760l-213 -215v-545h-139v1434h139v-705l700 705h176l-569 -578l635 -856h-160z" />
    <glyph glyph-name="L" unicode="L" horiz-adv-x="1058" 
d="M156 0v1434h137v-1307h735v-127h-872z" />
    <glyph glyph-name="M" unicode="M" horiz-adv-x="1675" 
d="M156 0v1434h194l488 -1256l487 1256h195v-1434h-138v1221l-479 -1221h-131l-479 1221v-1221h-137z" />
    <glyph glyph-name="N" unicode="N" horiz-adv-x="1396" 
d="M156 0v1434h163l785 -1229v1229h137v-1434h-164l-784 1225v-1225h-137z" />
    <glyph glyph-name="O" unicode="O" horiz-adv-x="1570" 
d="M784 -16q-147 0 -276 55.5t-221 152.5t-144.5 233t-52.5 292t52.5 292t144.5 233t221 152.5t276 55.5t276.5 -55.5t222 -152.5t145.5 -233t53 -292t-53 -292t-145.5 -233t-222 -152.5t-276.5 -55.5zM784 111q156 0 283 78.5t198.5 217t71.5 310.5t-71.5 310.5t-198.5 217
t-283 78.5q-236 0 -393.5 -172.5t-157.5 -433.5t157.5 -433.5t393.5 -172.5z" />
    <glyph glyph-name="P" unicode="P" horiz-adv-x="1187" 
d="M156 0v1434h526q205 0 326.5 -114.5t121.5 -301.5t-121.5 -301.5t-326.5 -114.5h-389v-602h-137zM293 729h393q79 0 138.5 23.5t93.5 64.5t50.5 91.5t16.5 109.5t-16.5 109.5t-50.5 91.5t-93.5 64.5t-138.5 23.5h-393v-578z" />
    <glyph glyph-name="Q" unicode="Q" horiz-adv-x="1570" 
d="M1481 717q0 -298 -177.5 -502t-453.5 -229v-88q0 -110 48.5 -153.5t160.5 -43.5h180v-119h-180q-168 0 -253 77t-85 239v88q-276 25 -453.5 229t-177.5 502q0 156 52.5 292t144.5 233t221 152.5t276 55.5t276.5 -55.5t222 -152.5t145.5 -233t53 -292zM233 717
q0 -261 157.5 -433.5t393.5 -172.5q156 0 283 78.5t198.5 217t71.5 310.5t-71.5 310.5t-198.5 217t-283 78.5q-236 0 -393.5 -172.5t-157.5 -433.5z" />
    <glyph glyph-name="R" unicode="R" horiz-adv-x="1310" 
d="M895 678q88 -46 139.5 -133t57.5 -201l20 -344h-129l-20 344q-6 114 -74.5 186t-175.5 72h-420v-602h-137v1434h526q206 0 327 -112.5t121 -299.5q0 -118 -62.5 -205.5t-172.5 -138.5zM293 1307v-578h393q153 0 226 83.5t73 209.5q0 125 -72.5 205t-226.5 80h-393z" />
    <glyph glyph-name="S" unicode="S" horiz-adv-x="1222" 
d="M618 -16q-237 0 -381 130.5t-159 350.5h137q15 -164 120 -259t283 -95q173 0 275 67t102 205q0 80 -48 136t-124 87.5t-168.5 57t-185 55.5t-168.5 70.5t-124 113.5t-48 174q0 167 133.5 270t349.5 103q209 0 345 -113.5t155 -302.5h-137q-14 132 -111.5 210.5
t-251.5 78.5q-161 0 -251.5 -66t-90.5 -180q0 -62 30 -108t80 -75t115.5 -51t137.5 -40.5t144.5 -39t138 -51.5t115.5 -72t80 -106.5t30 -150.5q0 -126 -70 -217.5t-187 -136.5t-266 -45z" />
    <glyph glyph-name="T" unicode="T" horiz-adv-x="1126" 
d="M496 0v1307h-469v127h1073v-127h-467v-1307h-137z" />
    <glyph glyph-name="U" unicode="U" horiz-adv-x="1331" 
d="M666 -16q-242 0 -387.5 135.5t-145.5 361.5v953h139v-965q0 -163 107.5 -260.5t286.5 -97.5q180 0 287.5 97.5t107.5 260.5v965h137v-953q0 -226 -145 -361.5t-387 -135.5z" />
    <glyph glyph-name="V" unicode="V" horiz-adv-x="1275" 
d="M565 0l-549 1434h142l479 -1282l481 1282h142l-549 -1434h-146z" />
    <glyph glyph-name="W" unicode="W" horiz-adv-x="2025" 
d="M498 0l-449 1434h144l376 -1225l381 1225h125l381 -1225l379 1225h141l-444 -1434h-143l-375 1225l-377 -1225h-139z" />
    <glyph glyph-name="X" unicode="X" horiz-adv-x="1226" 
d="M1153 0h-143l-396 616l-397 -616h-143l469 729l-453 705h143l381 -594l381 594h144l-453 -705z" />
    <glyph glyph-name="Y" unicode="Y" horiz-adv-x="1183" 
d="M522 0v602l-512 832h162l420 -699l418 699h164l-515 -832v-602h-137z" />
    <glyph glyph-name="Z" unicode="Z" horiz-adv-x="1224" 
d="M74 0v127l907 1180h-858v127h1020v-127l-891 -1180h891v-127h-1069z" />
    <glyph glyph-name="bracketleft" unicode="[" horiz-adv-x="612" 
d="M162 -117v1667h381v-102h-267v-1462h267v-103h-381z" />
    <glyph glyph-name="backslash" unicode="\" horiz-adv-x="843" 
d="M799 -2h-109l-645 1436h111z" />
    <glyph glyph-name="bracketright" unicode="]" horiz-adv-x="612" 
d="M451 -117h-381v103h266v1462h-266v102h381v-1667z" />
    <glyph glyph-name="asciicircum" unicode="^" horiz-adv-x="1077" 
d="M80 879l409 555h99l409 -555h-145l-313 436l-314 -436h-145z" />
    <glyph glyph-name="underscore" unicode="_" horiz-adv-x="1218" 
d="M156 -115v115h907v-115h-907z" />
    <glyph glyph-name="a" unicode="a" horiz-adv-x="1079" 
d="M535 1049q200 0 316 -104.5t116 -278.5v-666h-129v188q-46 -94 -146 -149t-225 -55q-166 0 -264.5 84.5t-98.5 226.5q0 148 114 234.5t306 86.5h250q64 0 64 50q0 119 -80.5 191.5t-222.5 72.5q-120 0 -209 -65t-95 -156h-129q15 147 141.5 243.5t291.5 96.5zM477 102
q171 0 266 98.5t95 276.5v31h-314q-129 0 -205.5 -57.5t-76.5 -155.5q0 -88 64 -140.5t171 -52.5z" />
    <glyph glyph-name="b" unicode="b" horiz-adv-x="1220" 
d="M637 -16q-114 0 -212.5 55.5t-145.5 146.5v-186h-129v1450h129v-604q47 91 145.5 147t212.5 56q159 0 274.5 -72.5t171.5 -191.5t56 -269t-56 -269t-171.5 -191t-274.5 -72zM633 102q167 0 267.5 113t100.5 301t-100.5 301t-267.5 113t-268 -113t-101 -301t101 -301
t268 -113z" />
    <glyph glyph-name="c" unicode="c" horiz-adv-x="1105" 
d="M575 -16q-96 0 -177 29.5t-138.5 80t-98 118.5t-60 145t-19.5 159t19.5 159t60 145t98 119t138.5 80.5t177 29.5q111 0 208 -40.5t165.5 -122.5t85.5 -192h-127q-15 101 -110 168.5t-222 67.5q-89 0 -159 -33t-112.5 -90.5t-64.5 -131.5t-22 -159t22 -159t65 -131.5
t112.5 -90.5t158.5 -33q127 0 214 57.5t118 159.5h123q-28 -158 -145.5 -246.5t-309.5 -88.5z" />
    <glyph glyph-name="d" unicode="d" horiz-adv-x="1220" 
d="M584 -16q-159 0 -274.5 72t-171.5 191t-56 269t56 269t171.5 191.5t274.5 72.5q114 0 212.5 -56t145.5 -147v604h129v-1450h-129v186q-47 -91 -145.5 -146.5t-212.5 -55.5zM588 102q167 0 267.5 113t100.5 301t-100.5 301t-267.5 113t-268 -113t-101 -301t101 -301
t268 -113z" />
    <glyph glyph-name="e" unicode="e" horiz-adv-x="1136" 
d="M920 326h135q-25 -156 -150.5 -249t-316.5 -93q-219 0 -362.5 154.5t-143.5 385.5q0 235 134.5 380t352.5 145q212 0 342.5 -132t130.5 -346q0 -39 -4 -67h-825q6 -173 113 -287.5t262 -114.5q135 0 220 58.5t112 165.5zM569 930q-141 0 -232 -81t-116 -226h686
q-11 143 -101 225t-237 82z" />
    <glyph glyph-name="f" unicode="f" horiz-adv-x="749" 
d="M252 0v913h-221v119h221v109q0 142 81.5 225.5t221.5 83.5h154v-119h-156q-79 0 -125.5 -50.5t-46.5 -139.5v-109h328v-119h-328v-913h-129z" />
    <glyph glyph-name="g" unicode="g" horiz-adv-x="1226" 
d="M948 1032h129v-1073q0 -164 -106.5 -270.5t-272.5 -106.5h-477v119h477q109 0 179.5 73t70.5 185v195q-35 -75 -135 -122.5t-223 -47.5q-159 0 -274.5 72t-171.5 191t-56 269t56 269t171.5 191.5t274.5 72.5q107 0 207.5 -51.5t150.5 -131.5v166zM594 102q167 0 268 113
t101 301t-101 301t-268 113t-268 -113t-101 -301t101 -301t268 -113z" />
    <glyph glyph-name="h" unicode="h" horiz-adv-x="1155" 
d="M150 0v1450h129v-633q39 114 130.5 173t217.5 59q175 0 280 -115t105 -307v-627h-129v610q0 145 -75.5 232.5t-199.5 87.5q-145 0 -237 -105.5t-92 -269.5v-555h-129z" />
    <glyph glyph-name="i" unicode="i" horiz-adv-x="415" 
d="M129 1450h156v-209h-156v209zM143 0v1032h129v-1032h-129z" />
    <glyph glyph-name="j" unicode="j" horiz-adv-x="415" 
d="M127 1450h156v-209h-156v209zM143 1032h129v-1114q0 -175 -59 -255.5t-217 -80.5h-90v119h90q31 0 54 5t38.5 11.5t26 22.5t16.5 29t8.5 41t3 48t0.5 60v1114z" />
    <glyph glyph-name="k" unicode="k" horiz-adv-x="1048" 
d="M854 0l-430 541l-143 -127v-414h-131v1450h131v-879l522 461h176l-455 -401l498 -631h-168z" />
    <glyph glyph-name="l" unicode="l" horiz-adv-x="428" 
d="M150 0v1450h129v-1450h-129z" />
    <glyph glyph-name="m" unicode="m" horiz-adv-x="1765" 
d="M143 0v1032h129v-215q27 104 112 168t206 64q132 0 227 -61t119 -169q26 98 120.5 164t209.5 66q168 0 262 -106.5t94 -301.5v-641h-129v612q0 143 -66.5 230.5t-181.5 87.5q-139 0 -219 -87.5t-80 -230.5v-612h-129v612q0 143 -66 230.5t-180 87.5q-139 0 -219 -87.5
t-80 -230.5v-612h-129z" />
    <glyph glyph-name="n" unicode="n" horiz-adv-x="1148" 
d="M143 0v1032h129v-215q39 114 131 173t218 59q175 0 280 -115t105 -307v-627h-129v610q0 145 -75.5 232.5t-199.5 87.5q-145 0 -237.5 -105.5t-92.5 -269.5v-555h-129z" />
    <glyph glyph-name="o" unicode="o" horiz-adv-x="1204" 
d="M602 -16q-227 0 -373.5 149.5t-146.5 382.5t146.5 383t373.5 150t373.5 -150t146.5 -383t-146.5 -382.5t-373.5 -149.5zM602 102q171 0 278 116t107 298t-107 298t-278 116t-278 -116t-107 -298t107 -298t278 -116z" />
    <glyph glyph-name="p" unicode="p" horiz-adv-x="1220" 
d="M150 -418v1450h129v-186q47 91 145.5 147t212.5 56q159 0 274.5 -72.5t171.5 -191.5t56 -269t-56 -269t-171.5 -191t-274.5 -72q-114 0 -212.5 55.5t-145.5 146.5v-604h-129zM633 102q167 0 267.5 113t100.5 301t-100.5 301t-267.5 113t-268 -113t-101 -301t101 -301
t268 -113z" />
    <glyph glyph-name="q" unicode="q" horiz-adv-x="1220" 
d="M1071 -418h-129v604q-47 -91 -145.5 -146.5t-212.5 -55.5q-159 0 -274.5 72t-171.5 191t-56 269t56 269t171.5 191.5t274.5 72.5q114 0 212.5 -56t145.5 -147v186h129v-1450zM588 102q167 0 267.5 113t100.5 301t-100.5 301t-267.5 113t-268 -113t-101 -301t101 -301
t268 -113z" />
    <glyph glyph-name="r" unicode="r" horiz-adv-x="735" 
d="M694 913h-135q-66 0 -116.5 -24.5t-82.5 -65.5t-52 -102.5t-28 -129.5t-8 -151v-440h-129v1032h129v-219q31 110 100.5 164.5t186.5 54.5h135v-119z" />
    <glyph glyph-name="s" unicode="s" horiz-adv-x="966" 
d="M496 -16q-175 0 -283.5 91.5t-120.5 250.5h129q10 -109 81 -166.5t194 -57.5q104 0 170.5 52t66.5 125q0 68 -34 109t-88.5 57.5t-120 25.5t-131 22t-120 38.5t-88.5 84.5t-34 150q0 129 99 206t265 77q164 0 268 -85t113 -225h-129q-7 68 -53 113t-99 61.5t-108 16.5
q-100 0 -160.5 -45t-60.5 -119q0 -48 21 -79.5t56.5 -48t82 -26t97.5 -16.5t102 -16.5t97.5 -30t82 -52t56.5 -87t21 -131.5q0 -134 -102 -214.5t-270 -80.5z" />
    <glyph glyph-name="t" unicode="t" horiz-adv-x="749" 
d="M252 1370h129v-338h328v-119h-328v-604q0 -89 46.5 -139.5t125.5 -50.5h156v-119h-154q-140 0 -221.5 83.5t-81.5 225.5v604h-221v119h221v338z" />
    <glyph glyph-name="u" unicode="u" horiz-adv-x="1148" 
d="M1006 1032v-1032h-129v215q-39 -114 -130.5 -172.5t-218.5 -58.5q-175 0 -280 115t-105 307v626h129v-610q0 -145 75.5 -232.5t199.5 -87.5q145 0 237.5 105.5t92.5 269.5v555h129z" />
    <glyph glyph-name="v" unicode="v" horiz-adv-x="964" 
d="M410 0l-379 1032h135l315 -872l316 872h137l-379 -1032h-145z" />
    <glyph glyph-name="w" unicode="w" horiz-adv-x="1501" 
d="M348 0l-307 1032h129l242 -872l274 872h131l270 -872l242 872h131l-307 -1032h-131l-272 872l-271 -872h-131z" />
    <glyph glyph-name="x" unicode="x" horiz-adv-x="964" 
d="M930 0h-137l-310 442l-311 -442h-137l377 545l-342 487h145l268 -385l267 385h145l-342 -487z" />
    <glyph glyph-name="y" unicode="y" horiz-adv-x="964" 
d="M934 1032l-342 -934l-174 -516h-125l127 393l-389 1057h135l315 -862l316 862h137z" />
    <glyph glyph-name="z" unicode="z" horiz-adv-x="1013" 
d="M88 0v119l668 794h-639v119h790v-119l-661 -794h690v-119h-848z" />
    <glyph glyph-name="braceleft" unicode="{" horiz-adv-x="634" 
d="M487 -102q-94 0 -152.5 57.5t-58.5 155.5v374q0 93 -40.5 133.5t-135.5 40.5v115q95 0 135.5 40.5t40.5 133.5v375q0 98 58.5 155.5t152.5 57.5h97v-115h-68q-59 0 -86 -24t-27 -78v-404q0 -88 -34.5 -131t-104.5 -67q70 -24 104.5 -67.5t34.5 -131.5v-403
q0 -54 27 -78.5t86 -24.5h68v-114h-97z" />
    <glyph glyph-name="bar" unicode="|" horiz-adv-x="436" 
d="M156 -102v1638h125v-1638h-125z" />
    <glyph glyph-name="braceright" unicode="}" horiz-adv-x="634" 
d="M147 -102h-96v114h68q59 0 85.5 24.5t26.5 78.5v403q0 88 35 131.5t105 67.5q-70 24 -105 67.5t-35 130.5v404q0 54 -26.5 78t-85.5 24h-68v115h96q94 0 152.5 -57.5t58.5 -155.5v-375q0 -93 41 -133.5t136 -40.5v-115q-95 0 -136 -40.5t-41 -133.5v-374
q0 -98 -58.5 -155.5t-152.5 -57.5z" />
    <glyph glyph-name="asciitilde" unicode="~" horiz-adv-x="1216" 
d="M817 557q-58 0 -112 17.5t-89.5 38t-88.5 38t-109 17.5q-118 0 -201 -93l-86 80q56 71 125.5 115.5t142.5 44.5q58 0 112 -17t90 -38t89 -38t109 -17q116 0 202 92l84 -80q-56 -71 -125.5 -115.5t-142.5 -44.5z" />
    <glyph glyph-name="exclamdown" unicode="&#xa1;" horiz-adv-x="552" 
d="M166 852v164h145v-164h-145zM195 717h88l45 -1135h-178z" />
    <glyph glyph-name="cent" unicode="&#xa2;" horiz-adv-x="1105" 
d="M575 102q127 0 214 57.5t118 159.5h123q-25 -141 -122.5 -227.5t-256.5 -103.5v-236l-137 2v234q-138 15 -238 94.5t-147 191.5t-47 242t47 242t147 191.5t238 94.5v238h137v-240q148 -20 254.5 -111.5t128.5 -236.5h-127q-15 101 -110 168.5t-222 67.5q-89 0 -159 -33
t-112.5 -90.5t-64.5 -131.5t-22 -159t22 -159t65 -131.5t112.5 -90.5t158.5 -33z" />
    <glyph glyph-name="sterling" unicode="&#xa3;" horiz-adv-x="1167" 
d="M936 350h137v-145q0 -100 -52.5 -152.5t-152.5 -52.5h-741v127q103 130 147.5 215t44.5 188q0 59 -20 127h-221v127h172q-21 52 -32.5 83.5t-22.5 79.5t-11 91q0 190 119.5 301t304.5 111q62 0 120.5 -14.5t113 -46t96 -77.5t67.5 -113.5t29 -149.5h-137q-4 59 -21 106
t-44 78t-63.5 51.5t-76 29.5t-84.5 9q-124 0 -202 -74t-78 -213q0 -43 10.5 -90.5t22 -79t32.5 -82.5h426v-127h-381q19 -78 19 -127q0 -180 -181 -403h588q34 0 53 19t19 53v151z" />
    <glyph glyph-name="currency" unicode="&#xa4;" horiz-adv-x="1353" 
d="M1202 516q0 -188 -100 -328l164 -163l-99 -97l-159 162q-137 -106 -326 -106q-194 0 -332 110l-164 -166l-98 97l170 170q-96 135 -96 321q0 187 96 322l-170 172l96 96l168 -168q140 111 330 111q189 0 324 -107l163 164l97 -96l-164 -166q100 -140 100 -328zM682 102
q171 0 278 116t107 298t-107 298t-278 116t-278 -116t-107 -298t107 -298t278 -116z" />
    <glyph glyph-name="yen" unicode="&#xa5;" horiz-adv-x="1183" 
d="M1174 1434l-441 -711h320v-127h-394v-223h394v-127h-394v-246h-137v246h-389v127h389v223h-389v127h316l-439 711h162l420 -699l418 699h164z" />
    <glyph glyph-name="brokenbar" unicode="&#xa6;" horiz-adv-x="436" 
d="M156 821v715h125v-715h-125zM156 -102v714h125v-714h-125z" />
    <glyph glyph-name="section" unicode="&#xa7;" horiz-adv-x="1169" 
d="M963 195q110 -89 104 -250q-6 -179 -140 -279t-345 -100q-221 0 -355.5 123.5t-148.5 330.5h129q14 -151 112.5 -240t262.5 -89q157 0 250.5 62.5t93.5 189.5q0 74 -45.5 126.5t-118 82t-160 53t-175 51.5t-160 66.5t-118 108t-45.5 165.5q0 75 39 140.5t105 113.5
q-123 91 -123 248q0 158 124.5 255t325.5 97q196 0 323 -107t142 -286h-125q-12 121 -105.5 194.5t-234.5 73.5q-147 0 -229 -61t-82 -166q0 -73 45.5 -122.5t118 -77t160 -49.5t175.5 -49.5t160.5 -67t118 -112t45.5 -174.5q0 -146 -124 -251zM244 596q0 -67 37.5 -114
t106 -75.5t139.5 -47.5t164.5 -44t154.5 -51q98 67 98 182q0 55 -26 98.5t-66 70t-101.5 51t-118 39t-130.5 36t-125 41.5q-62 -30 -97.5 -78t-35.5 -108z" />
    <glyph glyph-name="dieresis" unicode="&#xa8;" horiz-adv-x="729" 
d="M41 1403h127v-172h-127v172zM356 1403h127v-172h-127v172z" />
    <glyph glyph-name="copyright" unicode="&#xa9;" horiz-adv-x="1906" 
d="M954 -82q-164 0 -312 62.5t-254.5 169t-169 255t-62.5 312.5t62.5 312.5t169 255t254.5 169t312 62.5t312.5 -62.5t255 -169t169 -255t62.5 -312.5t-62.5 -312.5t-169 -255t-255 -169t-312.5 -62.5zM954 8q192 0 353 94t254 257t94 358q-1 146 -56 277.5t-148.5 226
t-223 149.5t-273.5 55t-274 -55t-223.5 -149.5t-148.5 -226t-56 -277.5q1 -146 56 -277.5t148.5 -226t223.5 -150t274 -55.5zM965 233q-89 0 -169.5 30.5t-145 88.5t-102.5 153.5t-38 215.5t38.5 215.5t103 154t144.5 89t169 30.5q151 0 262.5 -85t130.5 -214h-94
q-14 92 -99 153.5t-200 61.5q-162 0 -260.5 -106.5t-98.5 -298.5q0 -191 98.5 -297.5t260.5 -106.5q118 0 203 61.5t96 153.5h94q-15 -129 -127 -214t-266 -85z" />
    <glyph glyph-name="ordfeminine" unicode="&#xaa;" horiz-adv-x="634" 
d="M309 1450q115 0 190.5 -62t75.5 -161v-406h-100v103q-25 -51 -83 -82t-128 -31q-94 0 -153.5 52t-59.5 134q0 96 62 147.5t184 51.5h143q35 0 35 33v2q0 61 -47 98t-119 37q-66 0 -112.5 -37t-49.5 -88h-96q9 90 82.5 149.5t175.5 59.5zM281 897q92 0 143 53.5t51 149.5
v20h-170q-149 0 -149 -121q0 -44 35.5 -73t89.5 -29z" />
    <glyph glyph-name="guillemotleft" unicode="&#xab;" horiz-adv-x="1202" 
d="M623 193l-582 399v86l582 399v-139l-447 -303l447 -303v-139zM1135 193l-582 399v86l582 399v-139l-447 -303l447 -303v-139z" />
    <glyph glyph-name="logicalnot" unicode="&#xac;" horiz-adv-x="1169" 
d="M911 291v368h-802v119h938v-487h-136z" />
    <glyph glyph-name="uni00AD" unicode="&#xad;" horiz-adv-x="1228" 
d="M111 592v115h729v-115h-729z" />
    <glyph glyph-name="registered" unicode="&#xae;" horiz-adv-x="1908" 
d="M954 1516q164 0 312.5 -62.5t255 -169t169 -255t62.5 -312.5t-62.5 -312.5t-169 -255t-255 -169t-312.5 -62.5t-312 62.5t-254.5 169t-169 255t-62.5 312.5t62.5 312.5t169 255t254.5 169t312 62.5zM954 8q192 0 353 94t254 257t94 358q-1 146 -56 277.5t-148.5 226
t-223 149.5t-273.5 55t-274 -55t-223.5 -149.5t-148.5 -226t-56 -277.5q1 -146 56 -277.5t148.5 -226t223.5 -150t274 -55.5zM1307 926q0 -77 -42.5 -137t-115.5 -93q58 -31 92 -89.5t39 -133.5l14 -229h-86l-14 229q-3 76 -49 124t-117 48h-280v-401h-91v956h351
q137 0 218 -75t81 -199zM1010 729q103 0 151.5 56t48.5 141q0 83 -48.5 135.5t-151.5 52.5h-262v-385h262z" />
    <glyph glyph-name="macron" unicode="&#xaf;" horiz-adv-x="739" 
d="M41 1217v114h534v-114h-534z" />
    <glyph glyph-name="degree" unicode="&#xb0;" horiz-adv-x="686" 
d="M342 987q-106 0 -173 64t-67 163t67 163.5t173 64.5q107 0 174.5 -64.5t67.5 -163.5t-67.5 -163t-174.5 -64zM342 1085q61 0 99 36t38 93t-38 93t-99 36q-60 0 -98.5 -36t-38.5 -93t38.5 -93t98.5 -36z" />
    <glyph glyph-name="plusminus" unicode="&#xb1;" horiz-adv-x="1110" 
d="M498 395v363h-396v114h396v361h116v-361h396v-114h-396v-363h-116zM102 0v115h908v-115h-908z" />
    <glyph glyph-name="uni00B2" unicode="&#xb2;" horiz-adv-x="688" 
d="M76 1235q-4 133 73.5 212t210.5 79q124 0 202.5 -71t78.5 -187q0 -173 -201 -273l-123 -61q-60 -31 -102.5 -77.5t-42.5 -102.5h473v-99h-579v78q0 103 62 175.5t146 115.5l132 68q124 65 124 178q0 71 -48 115.5t-122 44.5q-81 0 -128 -53.5t-44 -141.5h-112z" />
    <glyph glyph-name="uni00B3" unicode="&#xb3;" horiz-adv-x="735" 
d="M379 645q-132 0 -220.5 78.5t-88.5 202.5h106q0 -82 57.5 -132.5t145.5 -50.5q90 0 141 41.5t51 116.5q0 73 -51 112.5t-141 39.5h-70v96h68q74 0 118 41t44 106q0 63 -45.5 98.5t-122.5 35.5q-73 0 -117.5 -42t-48.5 -116h-103q4 115 79.5 184.5t191.5 69.5
q120 0 198 -65t78 -163q0 -61 -35 -112.5t-88 -77.5q71 -26 114.5 -80t43.5 -129q0 -119 -88.5 -186.5t-216.5 -67.5z" />
    <glyph glyph-name="acute" unicode="&#xb4;" horiz-adv-x="544" 
d="M82 1145l188 303h158l-215 -303h-131z" />
    <glyph glyph-name="uni00B5" unicode="&#xb5;" horiz-adv-x="1148" 
d="M877 1032h129v-1032h-129v215q-39 -114 -130.5 -172.5t-218.5 -58.5q-150 0 -256 116v-518h-129v1450h129v-610q0 -145 75.5 -232.5t199.5 -87.5q145 0 237.5 105.5t92.5 269.5v555z" />
    <glyph glyph-name="paragraph" unicode="&#xb6;" horiz-adv-x="1351" 
d="M473 -418v1143q-158 0 -268.5 103t-110.5 251t110.5 251.5t268.5 103.5h774v-127h-131v-1725h-139v1725h-363v-1725h-141z" />
    <glyph glyph-name="periodcentered" unicode="&#xb7;" horiz-adv-x="466" 
d="M57 823h156v-209h-156v209z" />
    <glyph glyph-name="cedilla" unicode="&#xb8;" horiz-adv-x="448" 
d="M227 -418h-186l213 295h117z" />
    <glyph glyph-name="uni00B9" unicode="&#xb9;" horiz-adv-x="425" 
d="M336 1516v-861h-109v678q-21 -30 -80 -30h-79v98h69q44 0 66 25t26 90h107z" />
    <glyph glyph-name="ordmasculine" unicode="&#xba;" horiz-adv-x="731" 
d="M365 811q-138 0 -227 90t-89 229q0 140 89 230t227 90t227.5 -90.5t89.5 -229.5t-89.5 -229t-227.5 -90zM365 903q95 0 152.5 63t57.5 164q0 102 -57.5 166t-152.5 64q-94 0 -152.5 -64.5t-58.5 -165.5q0 -100 58.5 -163.5t152.5 -63.5z" />
    <glyph glyph-name="guillemotright" unicode="&#xbb;" horiz-adv-x="1202" 
d="M78 193v139l446 303l-446 303v139l581 -399v-86zM588 193v139l446 303l-446 303v139l581 -399v-86z" />
    <glyph glyph-name="onequarter" unicode="&#xbc;" horiz-adv-x="1650" 
d="M336 1434v-861h-109v678q-21 -30 -80 -30h-79v98h69q44 0 66 25t26 90h107zM160 0l1040 1434h125l-1040 -1434h-125zM1354 0v213h-459v96l442 551h127v-551h131v-96h-131v-213h-110zM1010 309h344v430z" />
    <glyph glyph-name="onehalf" unicode="&#xbd;" horiz-adv-x="1619" 
d="M336 1434v-861h-109v678q-21 -30 -80 -30h-79v98h69q44 0 66 25t26 90h107zM160 0l1040 1434h125l-1040 -1434h-125zM1094 580q-4 133 73.5 211.5t210.5 78.5q124 0 202.5 -71t78.5 -187q0 -172 -201 -272l-123 -61q-60 -31 -102.5 -78t-42.5 -103h473v-98h-580v78
q0 55 19.5 103.5t52.5 84t66 60t71 43.5l131 67q125 65 125 178q0 71 -48 115.5t-122 44.5q-82 0 -128.5 -53t-43.5 -141h-112z" />
    <glyph glyph-name="threequarters" unicode="&#xbe;" horiz-adv-x="1918" 
d="M379 563q-132 0 -220.5 78.5t-88.5 202.5h106q0 -82 57.5 -132t145.5 -50q90 0 141 41t51 116q0 73 -51 112.5t-141 39.5h-70v96h68q74 0 118 41t44 106q0 63 -45.5 98.5t-122.5 35.5q-73 0 -117.5 -42t-48.5 -116h-103q4 115 79.5 184.5t191.5 69.5q120 0 198 -64.5
t78 -162.5q0 -61 -35 -113t-88 -78q71 -26 114.5 -80t43.5 -129q0 -119 -88.5 -186.5t-216.5 -67.5zM428 0l1040 1434h125l-1040 -1434h-125zM1622 0v213h-459v96l443 551h127v-551h131v-96h-131v-213h-111zM1278 309h344v430z" />
    <glyph glyph-name="questiondown" unicode="&#xbf;" horiz-adv-x="888" 
d="M506 852h-146v164h146v-164zM469 717q156 0 243 -68.5t87 -206.5q0 -79 -36 -133t-94 -81t-128 -45t-140 -33.5t-128 -37t-94 -65.5t-36 -110q0 -117 75 -180.5t210 -63.5q133 0 222 73.5t95 200.5h140q-9 -183 -136 -292t-321 -109q-201 0 -318.5 98.5t-117.5 265.5
q0 84 37 144.5t96.5 93.5t131.5 56t144 40t131.5 36.5t96.5 54.5t37 87q0 85 -50 120.5t-143 35.5h-303v119h299z" />
    <glyph glyph-name="Agrave" unicode="&#xc0;" horiz-adv-x="1308" 
d="M721 1546h-131l-215 303h157zM1149 0l-158 408h-674l-159 -408h-142l578 1434h121l577 -1434h-143zM367 535h575l-287 737z" />
    <glyph glyph-name="Aacute" unicode="&#xc1;" horiz-adv-x="1308" 
d="M936 1849l-215 -303h-131l188 303h158zM1149 0l-158 408h-674l-159 -408h-142l578 1434h121l577 -1434h-143zM367 535h575l-287 737z" />
    <glyph glyph-name="Acircumflex" unicode="&#xc2;" horiz-adv-x="1308" 
d="M659 1731l-149 -185h-129l225 287h105l225 -287h-129zM1149 0l-158 408h-674l-159 -408h-142l578 1434h121l577 -1434h-143zM367 535h575l-287 737z" />
    <glyph glyph-name="Atilde" unicode="&#xc3;" horiz-adv-x="1308" 
d="M539 1696q-31 0 -53.5 -20t-28.5 -52h-111q9 86 57.5 138.5t120.5 52.5q53 0 99.5 -21t83 -42t65.5 -21t52 19.5t30 51.5h111q-9 -87 -57.5 -138.5t-121.5 -51.5q-52 0 -98.5 21t-83 42t-65.5 21zM1149 0l-158 408h-674l-159 -408h-142l578 1434h121l577 -1434h-143z
M367 535h575l-287 737z" />
    <glyph glyph-name="Adieresis" unicode="&#xc4;" horiz-adv-x="1308" 
d="M559 1804v-172h-127v172h127zM874 1804v-172h-126v172h126zM1149 0l-158 408h-674l-159 -408h-142l578 1434h121l577 -1434h-143zM367 535h575l-287 737z" />
    <glyph glyph-name="Aring" unicode="&#xc5;" horiz-adv-x="1308" 
d="M653 1518q-101 0 -168 61.5t-67 155.5q0 92 67 153.5t168 61.5t169.5 -61.5t68.5 -153.5q0 -93 -68 -155t-170 -62zM653 1860q-57 0 -94 -35t-37 -90t37 -90t94 -35q59 0 96 35t37 90t-37 90t-96 35zM1149 0l-158 408h-674l-159 -408h-142l578 1434h121l577 -1434h-143z
M367 535h575l-287 737z" />
    <glyph glyph-name="AE" unicode="&#xc6;" horiz-adv-x="1904" 
d="M1153 127h657v-127h-794v408h-586l-262 -408h-152l940 1434h832v-127h-635v-500h502v-127h-502v-553zM512 535h504v782z" />
    <glyph glyph-name="Ccedilla" unicode="&#xc7;" horiz-adv-x="1435" 
d="M772 -16q-107 0 -205.5 28t-185.5 87t-151.5 144t-102 207t-37.5 267t37.5 267t102 207t152 144t186 87t204.5 28q224 0 392.5 -128t197.5 -321h-143q-20 138 -147.5 230t-299.5 92q-243 0 -391 -159.5t-148 -446.5t148 -446.5t391 -159.5q177 0 304.5 91.5t142.5 229.5
h143q-25 -193 -193 -320.5t-397 -127.5zM719 -418h-187l213 295h117z" />
    <glyph glyph-name="Egrave" unicode="&#xc8;" 
d="M659 1546h-131l-215 303h158zM156 0v1434h874v-127h-737v-500h604v-127h-604v-553h760v-127h-897z" />
    <glyph glyph-name="Eacute" unicode="&#xc9;" 
d="M528 1546l189 303h157l-215 -303h-131zM156 0v1434h874v-127h-737v-500h604v-127h-604v-553h760v-127h-897z" />
    <glyph glyph-name="Ecircumflex" unicode="&#xca;" 
d="M545 1833h104l225 -287h-129l-147 185l-149 -185h-130zM156 0v1434h874v-127h-737v-500h604v-127h-604v-553h760v-127h-897z" />
    <glyph glyph-name="Edieresis" unicode="&#xcb;" 
d="M371 1804h127v-172h-127v172zM686 1804h127v-172h-127v172zM156 0v1434h874v-127h-737v-500h604v-127h-604v-553h760v-127h-897z" />
    <glyph glyph-name="Igrave" unicode="&#xcc;" horiz-adv-x="448" 
d="M289 1546h-131l-215 303h157zM156 0v1434h137v-1434h-137z" />
    <glyph glyph-name="Iacute" unicode="&#xcd;" horiz-adv-x="448" 
d="M158 1546l188 303h158l-215 -303h-131zM156 0v1434h137v-1434h-137z" />
    <glyph glyph-name="Icircumflex" unicode="&#xce;" horiz-adv-x="448" 
d="M174 1833h105l225 -287h-129l-148 185l-149 -185h-129zM156 0v1434h137v-1434h-137z" />
    <glyph glyph-name="Idieresis" unicode="&#xcf;" horiz-adv-x="448" 
d="M0 1804h127v-172h-127v172zM315 1804h127v-172h-127v172zM156 0v1434h137v-1434h-137z" />
    <glyph glyph-name="Eth" unicode="&#xd0;" horiz-adv-x="1523" 
d="M725 1434q202 0 362 -84.5t253.5 -249t93.5 -383.5t-93.5 -383.5t-253.5 -249t-362 -84.5h-406v668h-202v106h202v660h406zM729 127q112 0 210.5 35t177.5 104.5t125 185.5t46 265t-46 265t-125 185.5t-177.5 104.5t-210.5 35h-272v-533h407v-106h-407v-541h272z" />
    <glyph glyph-name="Ntilde" unicode="&#xd1;" horiz-adv-x="1396" 
d="M831 1612q-52 0 -98.5 21t-83 42t-65.5 21q-31 0 -53.5 -20t-28.5 -52h-111q9 86 57.5 138.5t120.5 52.5q53 0 99.5 -21t83 -42t65.5 -21t52 19.5t30 51.5h111q-9 -87 -57.5 -138.5t-121.5 -51.5zM156 0v1434h163l785 -1229v1229h137v-1434h-164l-784 1225v-1225h-137z
" />
    <glyph glyph-name="Ograve" unicode="&#xd2;" horiz-adv-x="1570" 
d="M850 1546h-131l-215 303h158zM784 -16q-147 0 -276 55.5t-221 152.5t-144.5 233t-52.5 292t52.5 292t144.5 233t221 152.5t276 55.5t276.5 -55.5t222 -152.5t145.5 -233t53 -292t-53 -292t-145.5 -233t-222 -152.5t-276.5 -55.5zM784 111q156 0 283 78.5t198.5 217
t71.5 310.5t-71.5 310.5t-198.5 217t-283 78.5q-236 0 -393.5 -172.5t-157.5 -433.5t157.5 -433.5t393.5 -172.5z" />
    <glyph glyph-name="Oacute" unicode="&#xd3;" horiz-adv-x="1570" 
d="M719 1546l188 303h158l-215 -303h-131zM784 -16q-147 0 -276 55.5t-221 152.5t-144.5 233t-52.5 292t52.5 292t144.5 233t221 152.5t276 55.5t276.5 -55.5t222 -152.5t145.5 -233t53 -292t-53 -292t-145.5 -233t-222 -152.5t-276.5 -55.5zM784 111q156 0 283 78.5
t198.5 217t71.5 310.5t-71.5 310.5t-198.5 217t-283 78.5q-236 0 -393.5 -172.5t-157.5 -433.5t157.5 -433.5t393.5 -172.5z" />
    <glyph glyph-name="Ocircumflex" unicode="&#xd4;" horiz-adv-x="1570" 
d="M735 1833h105l225 -287h-129l-148 185l-149 -185h-129zM784 -16q-147 0 -276 55.5t-221 152.5t-144.5 233t-52.5 292t52.5 292t144.5 233t221 152.5t276 55.5t276.5 -55.5t222 -152.5t145.5 -233t53 -292t-53 -292t-145.5 -233t-222 -152.5t-276.5 -55.5zM784 111
q156 0 283 78.5t198.5 217t71.5 310.5t-71.5 310.5t-198.5 217t-283 78.5q-236 0 -393.5 -172.5t-157.5 -433.5t157.5 -433.5t393.5 -172.5z" />
    <glyph glyph-name="Otilde" unicode="&#xd5;" horiz-adv-x="1570" 
d="M915 1612q-52 0 -98.5 21t-83 42t-65.5 21q-31 0 -53.5 -20t-28.5 -52h-111q9 86 57.5 138.5t120.5 52.5q53 0 99.5 -21t83 -42t65.5 -21t52 19.5t30 51.5h111q-9 -87 -57.5 -138.5t-121.5 -51.5zM784 -16q-147 0 -276 55.5t-221 152.5t-144.5 233t-52.5 292t52.5 292
t144.5 233t221 152.5t276 55.5t276.5 -55.5t222 -152.5t145.5 -233t53 -292t-53 -292t-145.5 -233t-222 -152.5t-276.5 -55.5zM784 111q156 0 283 78.5t198.5 217t71.5 310.5t-71.5 310.5t-198.5 217t-283 78.5q-236 0 -393.5 -172.5t-157.5 -433.5t157.5 -433.5
t393.5 -172.5z" />
    <glyph glyph-name="Odieresis" unicode="&#xd6;" horiz-adv-x="1570" 
d="M561 1804h127v-172h-127v172zM877 1804h127v-172h-127v172zM784 -16q-147 0 -276 55.5t-221 152.5t-144.5 233t-52.5 292t52.5 292t144.5 233t221 152.5t276 55.5t276.5 -55.5t222 -152.5t145.5 -233t53 -292t-53 -292t-145.5 -233t-222 -152.5t-276.5 -55.5zM784 111
q156 0 283 78.5t198.5 217t71.5 310.5t-71.5 310.5t-198.5 217t-283 78.5q-236 0 -393.5 -172.5t-157.5 -433.5t157.5 -433.5t393.5 -172.5z" />
    <glyph glyph-name="multiply" unicode="&#xd7;" horiz-adv-x="1093" 
d="M938 981l-307 -307l305 -307l-82 -84l-307 307l-307 -307l-82 82l307 307l-309 309l84 82l309 -307l307 307z" />
    <glyph glyph-name="Oslash" unicode="&#xd8;" horiz-adv-x="1570" 
d="M784 1450q147 0 276.5 -55.5t222 -152.5t145.5 -233t53 -292t-53 -292t-145.5 -233t-222 -152.5t-276.5 -55.5t-276 55.5t-221 152.5t-144.5 233t-52.5 292t52.5 292t144.5 233t221 152.5t276 55.5zM233 717q0 -237 132 -404l768 883q-149 127 -349 127
q-236 0 -393.5 -172.5t-157.5 -433.5zM784 111q156 0 283 78.5t198.5 217t71.5 310.5q0 237 -133 405l-768 -884q149 -127 348 -127z" />
    <glyph glyph-name="Ugrave" unicode="&#xd9;" horiz-adv-x="1331" 
d="M731 1546h-131l-215 303h158zM666 -16q-242 0 -387.5 135.5t-145.5 361.5v953h139v-965q0 -163 107.5 -260.5t286.5 -97.5q180 0 287.5 97.5t107.5 260.5v965h137v-953q0 -226 -145 -361.5t-387 -135.5z" />
    <glyph glyph-name="Uacute" unicode="&#xda;" horiz-adv-x="1331" 
d="M600 1546l188 303h158l-215 -303h-131zM666 -16q-242 0 -387.5 135.5t-145.5 361.5v953h139v-965q0 -163 107.5 -260.5t286.5 -97.5q180 0 287.5 97.5t107.5 260.5v965h137v-953q0 -226 -145 -361.5t-387 -135.5z" />
    <glyph glyph-name="Ucircumflex" unicode="&#xdb;" horiz-adv-x="1331" 
d="M616 1833h105l225 -287h-129l-147 185l-150 -185h-129zM666 -16q-242 0 -387.5 135.5t-145.5 361.5v953h139v-965q0 -163 107.5 -260.5t286.5 -97.5q180 0 287.5 97.5t107.5 260.5v965h137v-953q0 -226 -145 -361.5t-387 -135.5z" />
    <glyph glyph-name="Udieresis" unicode="&#xdc;" horiz-adv-x="1331" 
d="M442 1804h127v-172h-127v172zM758 1804h127v-172h-127v172zM666 -16q-242 0 -387.5 135.5t-145.5 361.5v953h139v-965q0 -163 107.5 -260.5t286.5 -97.5q180 0 287.5 97.5t107.5 260.5v965h137v-953q0 -226 -145 -361.5t-387 -135.5z" />
    <glyph glyph-name="Yacute" unicode="&#xdd;" horiz-adv-x="1183" 
d="M526 1546l189 303h157l-215 -303h-131zM522 0v602l-512 832h162l420 -699l418 699h164l-515 -832v-602h-137z" />
    <glyph glyph-name="Thorn" unicode="&#xde;" horiz-adv-x="1187" 
d="M156 0v1434h137v-322h389q208 0 328 -105t120 -290t-120 -290t-328 -105h-389v-322h-137zM293 449h393q156 0 227.5 72.5t71.5 195.5t-71.5 195.5t-227.5 72.5h-393v-536z" />
    <glyph glyph-name="germandbls" unicode="&#xdf;" horiz-adv-x="1173" 
d="M889 784q120 -39 189 -131t69 -239q0 -191 -120 -302.5t-337 -111.5h-213v127h182q167 0 254.5 73.5t87.5 213.5t-87.5 213t-254.5 73h-182v127h176q140 0 214.5 60t74.5 180q0 122 -75.5 189t-211.5 67q-169 0 -265.5 -108t-96.5 -291v-924h-137v700h-140v127h140v97
q0 243 132 384.5t365 141.5q203 0 317.5 -104.5t114.5 -280.5q0 -95 -57.5 -171.5t-138.5 -109.5z" />
    <glyph glyph-name="agrave" unicode="&#xe0;" horiz-adv-x="1079" 
d="M616 1145h-131l-215 303h158zM535 1049q200 0 316 -104.5t116 -278.5v-666h-129v188q-46 -94 -146 -149t-225 -55q-166 0 -264.5 84.5t-98.5 226.5q0 148 114 234.5t306 86.5h250q64 0 64 50q0 119 -80.5 191.5t-222.5 72.5q-120 0 -209 -65t-95 -156h-129
q15 147 141.5 243.5t291.5 96.5zM477 102q171 0 266 98.5t95 276.5v31h-314q-129 0 -205.5 -57.5t-76.5 -155.5q0 -88 64 -140.5t171 -52.5z" />
    <glyph glyph-name="aacute" unicode="&#xe1;" horiz-adv-x="1079" 
d="M831 1448l-215 -303h-131l189 303h157zM535 1049q200 0 316 -104.5t116 -278.5v-666h-129v188q-46 -94 -146 -149t-225 -55q-166 0 -264.5 84.5t-98.5 226.5q0 148 114 234.5t306 86.5h250q64 0 64 50q0 119 -80.5 191.5t-222.5 72.5q-120 0 -209 -65t-95 -156h-129
q15 147 141.5 243.5t291.5 96.5zM477 102q171 0 266 98.5t95 276.5v31h-314q-129 0 -205.5 -57.5t-76.5 -155.5q0 -88 64 -140.5t171 -52.5z" />
    <glyph glyph-name="acircumflex" unicode="&#xe2;" horiz-adv-x="1079" 
d="M555 1329l-149 -184h-130l226 287h104l225 -287h-129zM535 1049q200 0 316 -104.5t116 -278.5v-666h-129v188q-46 -94 -146 -149t-225 -55q-166 0 -264.5 84.5t-98.5 226.5q0 148 114 234.5t306 86.5h250q64 0 64 50q0 119 -80.5 191.5t-222.5 72.5q-120 0 -209 -65
t-95 -156h-129q15 147 141.5 243.5t291.5 96.5zM477 102q171 0 266 98.5t95 276.5v31h-314q-129 0 -205.5 -57.5t-76.5 -155.5q0 -88 64 -140.5t171 -52.5z" />
    <glyph glyph-name="atilde" unicode="&#xe3;" horiz-adv-x="1079" 
d="M434 1294q-31 0 -53.5 -19.5t-28.5 -51.5h-110q9 86 57.5 138t120.5 52q53 0 99.5 -21t83 -42t65.5 -21t51.5 20t30.5 52h110q-9 -87 -57 -139t-121 -52q-52 0 -98.5 21t-83.5 42t-66 21zM535 1049q200 0 316 -104.5t116 -278.5v-666h-129v188q-46 -94 -146 -149
t-225 -55q-166 0 -264.5 84.5t-98.5 226.5q0 148 114 234.5t306 86.5h250q64 0 64 50q0 119 -80.5 191.5t-222.5 72.5q-120 0 -209 -65t-95 -156h-129q15 147 141.5 243.5t291.5 96.5zM477 102q171 0 266 98.5t95 276.5v31h-314q-129 0 -205.5 -57.5t-76.5 -155.5
q0 -88 64 -140.5t171 -52.5z" />
    <glyph glyph-name="adieresis" unicode="&#xe4;" horiz-adv-x="1079" 
d="M455 1403v-172h-127v172h127zM770 1403v-172h-127v172h127zM535 1049q200 0 316 -104.5t116 -278.5v-666h-129v188q-46 -94 -146 -149t-225 -55q-166 0 -264.5 84.5t-98.5 226.5q0 148 114 234.5t306 86.5h250q64 0 64 50q0 119 -80.5 191.5t-222.5 72.5q-120 0 -209 -65
t-95 -156h-129q15 147 141.5 243.5t291.5 96.5zM477 102q171 0 266 98.5t95 276.5v31h-314q-129 0 -205.5 -57.5t-76.5 -155.5q0 -88 64 -140.5t171 -52.5z" />
    <glyph glyph-name="aring" unicode="&#xe5;" horiz-adv-x="1079" 
d="M549 1116q-101 0 -168.5 61.5t-67.5 155.5q0 92 67.5 153.5t168.5 61.5t169 -61.5t68 -153.5q0 -94 -67.5 -155.5t-169.5 -61.5zM549 1458q-57 0 -94 -35t-37 -90t37 -90t94 -35q59 0 96 35t37 90t-37 90t-96 35zM535 1049q200 0 316 -104.5t116 -278.5v-666h-129v188
q-46 -94 -146 -149t-225 -55q-166 0 -264.5 84.5t-98.5 226.5q0 148 114 234.5t306 86.5h250q64 0 64 50q0 119 -80.5 191.5t-222.5 72.5q-120 0 -209 -65t-95 -156h-129q15 147 141.5 243.5t291.5 96.5zM477 102q171 0 266 98.5t95 276.5v31h-314q-129 0 -205.5 -57.5
t-76.5 -155.5q0 -88 64 -140.5t171 -52.5z" />
    <glyph glyph-name="ae" unicode="&#xe6;" horiz-adv-x="1892" 
d="M1675 326h135q-25 -156 -150.5 -249t-316.5 -93q-144 0 -258 70t-180 192q-114 -262 -440 -262q-159 0 -260 87t-101 222q0 334 420 334h258q56 0 56 47v2q0 114 -89.5 184t-220.5 70q-118 0 -204.5 -65.5t-94.5 -155.5h-127q17 146 140 243t286 97q132 0 239 -55
t159 -150q64 98 167 151.5t232 53.5q212 0 342.5 -132t130.5 -346q0 -39 -4 -67h-825q6 -173 112.5 -287.5t261.5 -114.5q135 0 220 58.5t112 165.5zM1325 930q-141 0 -232 -81t-116 -226h686q-11 143 -101 225t-237 82zM475 102q171 0 267 98.5t96 276.5v41h-314
q-148 0 -215 -56.5t-67 -168.5q0 -83 66 -137t167 -54z" />
    <glyph glyph-name="ccedilla" unicode="&#xe7;" horiz-adv-x="1105" 
d="M575 -16q-96 0 -177 29.5t-138.5 80t-98 118.5t-60 145t-19.5 159t19.5 159t60 145t98 119t138.5 80.5t177 29.5q111 0 208 -40.5t165.5 -122.5t85.5 -192h-127q-15 101 -110 168.5t-222 67.5q-89 0 -159 -33t-112.5 -90.5t-64.5 -131.5t-22 -159t22 -159t65 -131.5
t112.5 -90.5t158.5 -33q127 0 214 57.5t118 159.5h123q-28 -158 -145.5 -246.5t-309.5 -88.5zM510 -418h-186l213 295h116z" />
    <glyph glyph-name="egrave" unicode="&#xe8;" horiz-adv-x="1136" 
d="M633 1145h-131l-215 303h157zM920 326h135q-25 -156 -150.5 -249t-316.5 -93q-219 0 -362.5 154.5t-143.5 385.5q0 235 134.5 380t352.5 145q212 0 342.5 -132t130.5 -346q0 -39 -4 -67h-825q6 -173 113 -287.5t262 -114.5q135 0 220 58.5t112 165.5zM569 930
q-141 0 -232 -81t-116 -226h686q-11 143 -101 225t-237 82z" />
    <glyph glyph-name="eacute" unicode="&#xe9;" horiz-adv-x="1136" 
d="M848 1448l-215 -303h-131l188 303h158zM920 326h135q-25 -156 -150.5 -249t-316.5 -93q-219 0 -362.5 154.5t-143.5 385.5q0 235 134.5 380t352.5 145q212 0 342.5 -132t130.5 -346q0 -39 -4 -67h-825q6 -173 113 -287.5t262 -114.5q135 0 220 58.5t112 165.5zM569 930
q-141 0 -232 -81t-116 -226h686q-11 143 -101 225t-237 82z" />
    <glyph glyph-name="ecircumflex" unicode="&#xea;" horiz-adv-x="1136" 
d="M571 1329l-149 -184h-129l225 287h105l225 -287h-129zM920 326h135q-25 -156 -150.5 -249t-316.5 -93q-219 0 -362.5 154.5t-143.5 385.5q0 235 134.5 380t352.5 145q212 0 342.5 -132t130.5 -346q0 -39 -4 -67h-825q6 -173 113 -287.5t262 -114.5q135 0 220 58.5
t112 165.5zM569 930q-141 0 -232 -81t-116 -226h686q-11 143 -101 225t-237 82z" />
    <glyph glyph-name="edieresis" unicode="&#xeb;" horiz-adv-x="1136" 
d="M471 1403v-172h-127v172h127zM786 1403v-172h-127v172h127zM920 326h135q-25 -156 -150.5 -249t-316.5 -93q-219 0 -362.5 154.5t-143.5 385.5q0 235 134.5 380t352.5 145q212 0 342.5 -132t130.5 -346q0 -39 -4 -67h-825q6 -173 113 -287.5t262 -114.5q135 0 220 58.5
t112 165.5zM569 930q-141 0 -232 -81t-116 -226h686q-11 143 -101 225t-237 82z" />
    <glyph glyph-name="igrave" unicode="&#xec;" horiz-adv-x="415" 
d="M272 1145h-131l-215 303h158zM143 0v1032h129v-1032h-129z" />
    <glyph glyph-name="iacute" unicode="&#xed;" horiz-adv-x="415" 
d="M141 1145l189 303h157l-215 -303h-131zM143 0v1032h129v-1032h-129z" />
    <glyph glyph-name="icircumflex" unicode="&#xee;" horiz-adv-x="415" 
d="M158 1432h104l225 -287h-129l-147 184l-150 -184h-129zM143 0v1032h129v-1032h-129z" />
    <glyph glyph-name="idieresis" unicode="&#xef;" horiz-adv-x="415" 
d="M-16 1403h127v-172h-127v172zM299 1403h127v-172h-127v172zM143 0v1032h129v-1032h-129z" />
    <glyph glyph-name="eth" unicode="&#xf0;" horiz-adv-x="1155" 
d="M668 1286q90 -65 158 -137t126 -168t88.5 -219.5t30.5 -269.5q0 -98 -34 -188.5t-95.5 -162t-157 -114.5t-209.5 -43t-208.5 42.5t-155 114t-94 161.5t-33.5 187q0 98 33.5 188t94 161.5t155 114t208.5 42.5q86 0 166 -29t131 -79q-21 56 -97 139t-200 180l-129 -110
l-73 78l116 98q-131 94 -245 162h184q101 -56 147 -86l123 104l72 -78zM575 102q89 0 159.5 32.5t113.5 88t65.5 123.5t22.5 143t-22.5 143.5t-65.5 124.5t-113.5 89t-159.5 33q-70 0 -129.5 -22t-101 -59t-71 -87.5t-43 -106.5t-13.5 -115q0 -75 22.5 -143t65.5 -123
t112.5 -88t157.5 -33z" />
    <glyph glyph-name="ntilde" unicode="&#xf1;" horiz-adv-x="1148" 
d="M700 1210q-52 0 -98.5 21t-83 42t-65.5 21q-31 0 -53.5 -19.5t-28.5 -51.5h-111q9 86 57.5 138t120.5 52q53 0 99.5 -21t83 -42t65.5 -21t51.5 20t30.5 52h111q-9 -87 -57.5 -139t-121.5 -52zM143 0v1032h129v-215q39 114 131 173t218 59q175 0 280 -115t105 -307v-627
h-129v610q0 145 -75.5 232.5t-199.5 87.5q-145 0 -237.5 -105.5t-92.5 -269.5v-555h-129z" />
    <glyph glyph-name="ograve" unicode="&#xf2;" horiz-adv-x="1204" 
d="M668 1145h-131l-215 303h157zM602 -16q-227 0 -373.5 149.5t-146.5 382.5t146.5 383t373.5 150t373.5 -150t146.5 -383t-146.5 -382.5t-373.5 -149.5zM602 102q171 0 278 116t107 298t-107 298t-278 116t-278 -116t-107 -298t107 -298t278 -116z" />
    <glyph glyph-name="oacute" unicode="&#xf3;" horiz-adv-x="1204" 
d="M537 1145l188 303h158l-215 -303h-131zM602 -16q-227 0 -373.5 149.5t-146.5 382.5t146.5 383t373.5 150t373.5 -150t146.5 -383t-146.5 -382.5t-373.5 -149.5zM602 102q171 0 278 116t107 298t-107 298t-278 116t-278 -116t-107 -298t107 -298t278 -116z" />
    <glyph glyph-name="ocircumflex" unicode="&#xf4;" horiz-adv-x="1204" 
d="M553 1432h104l226 -287h-129l-148 184l-149 -184h-129zM602 -16q-227 0 -373.5 149.5t-146.5 382.5t146.5 383t373.5 150t373.5 -150t146.5 -383t-146.5 -382.5t-373.5 -149.5zM602 102q171 0 278 116t107 298t-107 298t-278 116t-278 -116t-107 -298t107 -298t278 -116z
" />
    <glyph glyph-name="otilde" unicode="&#xf5;" horiz-adv-x="1204" 
d="M733 1210q-52 0 -98.5 21t-83.5 42t-66 21q-31 0 -53.5 -19.5t-28.5 -51.5h-110q9 86 57.5 138t120.5 52q53 0 99.5 -21t83 -42t65.5 -21t51.5 20t30.5 52h110q-9 -87 -57 -139t-121 -52zM602 -16q-227 0 -373.5 149.5t-146.5 382.5t146.5 383t373.5 150t373.5 -150
t146.5 -383t-146.5 -382.5t-373.5 -149.5zM602 102q171 0 278 116t107 298t-107 298t-278 116t-278 -116t-107 -298t107 -298t278 -116z" />
    <glyph glyph-name="odieresis" unicode="&#xf6;" horiz-adv-x="1204" 
d="M379 1403h127v-172h-127v172zM694 1403h127v-172h-127v172zM602 -16q-227 0 -373.5 149.5t-146.5 382.5t146.5 383t373.5 150t373.5 -150t146.5 -383t-146.5 -382.5t-373.5 -149.5zM602 102q171 0 278 116t107 298t-107 298t-278 116t-278 -116t-107 -298t107 -298
t278 -116z" />
    <glyph glyph-name="divide" unicode="&#xf7;" horiz-adv-x="1218" 
d="M537 1110h145v-164h-145v164zM156 592v115h907v-115h-907zM537 348h145v-164h-145v164z" />
    <glyph glyph-name="oslash" unicode="&#xf8;" horiz-adv-x="1216" 
d="M602 1049q227 0 373.5 -150t146.5 -383t-146.5 -382.5t-373.5 -149.5t-373.5 149.5t-146.5 382.5t146.5 383t373.5 150zM217 516q0 -156 84 -270l526 616q-96 68 -225 68q-171 0 -278 -116t-107 -298zM602 102q171 0 278 116t107 298q0 151 -78 262l-524 -612
q95 -64 217 -64z" />
    <glyph glyph-name="ugrave" unicode="&#xf9;" horiz-adv-x="1148" 
d="M637 1145h-131l-215 303h158zM1006 1032v-1032h-129v215q-39 -114 -130.5 -172.5t-218.5 -58.5q-175 0 -280 115t-105 307v626h129v-610q0 -145 75.5 -232.5t199.5 -87.5q145 0 237.5 105.5t92.5 269.5v555h129z" />
    <glyph glyph-name="uacute" unicode="&#xfa;" horiz-adv-x="1148" 
d="M506 1145l188 303h158l-215 -303h-131zM1006 1032v-1032h-129v215q-39 -114 -130.5 -172.5t-218.5 -58.5q-175 0 -280 115t-105 307v626h129v-610q0 -145 75.5 -232.5t199.5 -87.5q145 0 237.5 105.5t92.5 269.5v555h129z" />
    <glyph glyph-name="ucircumflex" unicode="&#xfb;" horiz-adv-x="1148" 
d="M522 1432h105l225 -287h-129l-148 184l-149 -184h-129zM1006 1032v-1032h-129v215q-39 -114 -130.5 -172.5t-218.5 -58.5q-175 0 -280 115t-105 307v626h129v-610q0 -145 75.5 -232.5t199.5 -87.5q145 0 237.5 105.5t92.5 269.5v555h129z" />
    <glyph glyph-name="udieresis" unicode="&#xfc;" horiz-adv-x="1148" 
d="M348 1403h127v-172h-127v172zM664 1403h127v-172h-127v172zM1006 1032v-1032h-129v215q-39 -114 -130.5 -172.5t-218.5 -58.5q-175 0 -280 115t-105 307v626h129v-610q0 -145 75.5 -232.5t199.5 -87.5q145 0 237.5 105.5t92.5 269.5v555h129z" />
    <glyph glyph-name="yacute" unicode="&#xfd;" horiz-adv-x="964" 
d="M770 1448l-215 -303h-131l188 303h158zM934 1032l-342 -934l-174 -516h-125l127 393l-389 1057h135l315 -862l316 862h137z" />
    <glyph glyph-name="thorn" unicode="&#xfe;" horiz-adv-x="1226" 
d="M150 -418v1868h133v-563q62 72 162 117t192 45q160 0 275.5 -72.5t171 -191.5t55.5 -269t-55.5 -269t-170.5 -191t-274 -72q-109 0 -209.5 44.5t-146.5 106.5v-553h-133zM633 102q177 0 274 116t97 298q0 180 -97.5 297t-273.5 117t-271.5 -117t-95.5 -297
q0 -183 95.5 -298.5t271.5 -115.5z" />
    <glyph glyph-name="ydieresis" unicode="&#xff;" horiz-adv-x="964" 
d="M393 1403v-172h-127v172h127zM709 1403v-172h-127v172h127zM934 1032l-342 -934l-174 -516h-125l127 393l-389 1057h135l315 -862l316 862h137z" />
    <glyph glyph-name="Amacron" unicode="&#x100;" horiz-adv-x="1308" 
d="M922 1733v-115h-535v115h535zM1149 0l-158 408h-674l-159 -408h-142l578 1434h121l577 -1434h-143zM367 535h575l-287 737z" />
    <glyph glyph-name="amacron" unicode="&#x101;" horiz-adv-x="1079" 
d="M817 1331v-114h-534v114h534zM535 1049q200 0 316 -104.5t116 -278.5v-666h-129v188q-46 -94 -146 -149t-225 -55q-166 0 -264.5 84.5t-98.5 226.5q0 148 114 234.5t306 86.5h250q64 0 64 50q0 119 -80.5 191.5t-222.5 72.5q-120 0 -209 -65t-95 -156h-129
q15 147 141.5 243.5t291.5 96.5zM477 102q171 0 266 98.5t95 276.5v31h-314q-129 0 -205.5 -57.5t-76.5 -155.5q0 -88 64 -140.5t171 -52.5z" />
    <glyph glyph-name="Abreve" unicode="&#x102;" horiz-adv-x="1308" 
d="M655 1552q-121 0 -200.5 79.5t-79.5 203.5h114q0 -74 47 -122t119 -48q71 0 119.5 48.5t48.5 121.5h113q0 -123 -80.5 -203t-200.5 -80zM1149 0l-158 408h-674l-159 -408h-142l578 1434h121l577 -1434h-143zM367 535h575l-287 737z" />
    <glyph glyph-name="abreve" unicode="&#x103;" horiz-adv-x="1079" 
d="M551 1151q-121 0 -201 79.5t-80 203.5h115q0 -74 47 -122t119 -48q71 0 119.5 48.5t48.5 121.5h112q0 -123 -80 -203t-200 -80zM535 1049q200 0 316 -104.5t116 -278.5v-666h-129v188q-46 -94 -146 -149t-225 -55q-166 0 -264.5 84.5t-98.5 226.5q0 148 114 234.5
t306 86.5h250q64 0 64 50q0 119 -80.5 191.5t-222.5 72.5q-120 0 -209 -65t-95 -156h-129q15 147 141.5 243.5t291.5 96.5zM477 102q171 0 266 98.5t95 276.5v31h-314q-129 0 -205.5 -57.5t-76.5 -155.5q0 -88 64 -140.5t171 -52.5z" />
    <glyph glyph-name="Aogonek" unicode="&#x104;" horiz-adv-x="1308" 
d="M1337 -182l60 -92q-75 -72 -176 -72q-81 0 -127.5 43.5t-46.5 114.5q0 107 127 188h-25l-158 408h-674l-159 -408h-142l578 1434h121l577 -1434q-67 -57 -96 -92.5t-29 -71.5q0 -32 20 -49.5t54 -17.5q50 0 96 49zM367 535h575l-287 737z" />
    <glyph glyph-name="aogonek" unicode="&#x105;" horiz-adv-x="1079" 
d="M1012 -182l59 -92q-75 -72 -176 -72q-81 0 -127.5 43.5t-46.5 114.5q0 107 127 188h-10v188q-46 -94 -146 -149t-225 -55q-166 0 -264.5 84.5t-98.5 226.5q0 148 114 234.5t306 86.5h250q64 0 64 50q0 119 -80.5 191.5t-222.5 72.5q-120 0 -209 -65t-95 -156h-129
q15 147 141.5 243.5t291.5 96.5q200 0 316 -104.5t116 -278.5v-666q-67 -57 -96 -92.5t-29 -71.5q0 -32 19.5 -49.5t53.5 -17.5q51 0 97 49zM477 102q171 0 266 98.5t95 276.5v31h-314q-129 0 -205.5 -57.5t-76.5 -155.5q0 -88 64 -140.5t171 -52.5z" />
    <glyph glyph-name="Cacute" unicode="&#x106;" horiz-adv-x="1435" 
d="M684 1546l188 303h158l-215 -303h-131zM772 -16q-107 0 -205.5 28t-185.5 87t-151.5 144t-102 207t-37.5 267t37.5 267t102 207t152 144t186 87t204.5 28q224 0 392.5 -128t197.5 -321h-143q-20 138 -147.5 230t-299.5 92q-243 0 -391 -159.5t-148 -446.5t148 -446.5
t391 -159.5q177 0 304.5 91.5t142.5 229.5h143q-25 -193 -193 -320.5t-397 -127.5z" />
    <glyph glyph-name="cacute" unicode="&#x107;" horiz-adv-x="1105" 
d="M512 1145l188 303h158l-215 -303h-131zM575 -16q-96 0 -177 29.5t-138.5 80t-98 118.5t-60 145t-19.5 159t19.5 159t60 145t98 119t138.5 80.5t177 29.5q111 0 208 -40.5t165.5 -122.5t85.5 -192h-127q-15 101 -110 168.5t-222 67.5q-89 0 -159 -33t-112.5 -90.5
t-64.5 -131.5t-22 -159t22 -159t65 -131.5t112.5 -90.5t158.5 -33q127 0 214 57.5t118 159.5h123q-28 -158 -145.5 -246.5t-309.5 -88.5z" />
    <glyph glyph-name="Ccircumflex" unicode="&#x108;" horiz-adv-x="1435" 
d="M700 1833h105l225 -287h-129l-147 185l-150 -185h-129zM772 -16q-107 0 -205.5 28t-185.5 87t-151.5 144t-102 207t-37.5 267t37.5 267t102 207t152 144t186 87t204.5 28q224 0 392.5 -128t197.5 -321h-143q-20 138 -147.5 230t-299.5 92q-243 0 -391 -159.5t-148 -446.5
t148 -446.5t391 -159.5q177 0 304.5 91.5t142.5 229.5h143q-25 -193 -193 -320.5t-397 -127.5z" />
    <glyph glyph-name="ccircumflex" unicode="&#x109;" horiz-adv-x="1105" 
d="M528 1432h105l225 -287h-129l-147 184l-150 -184h-129zM575 -16q-96 0 -177 29.5t-138.5 80t-98 118.5t-60 145t-19.5 159t19.5 159t60 145t98 119t138.5 80.5t177 29.5q111 0 208 -40.5t165.5 -122.5t85.5 -192h-127q-15 101 -110 168.5t-222 67.5q-89 0 -159 -33
t-112.5 -90.5t-64.5 -131.5t-22 -159t22 -159t65 -131.5t112.5 -90.5t158.5 -33q127 0 214 57.5t118 159.5h123q-28 -158 -145.5 -246.5t-309.5 -88.5z" />
    <glyph glyph-name="Cdotaccent" unicode="&#x10a;" horiz-adv-x="1435" 
d="M672 1851h155v-209h-155v209zM772 -16q-107 0 -205.5 28t-185.5 87t-151.5 144t-102 207t-37.5 267t37.5 267t102 207t152 144t186 87t204.5 28q224 0 392.5 -128t197.5 -321h-143q-20 138 -147.5 230t-299.5 92q-243 0 -391 -159.5t-148 -446.5t148 -446.5t391 -159.5
q177 0 304.5 91.5t142.5 229.5h143q-25 -193 -193 -320.5t-397 -127.5z" />
    <glyph glyph-name="cdotaccent" unicode="&#x10b;" horiz-adv-x="1105" 
d="M500 1450h155v-209h-155v209zM575 -16q-96 0 -177 29.5t-138.5 80t-98 118.5t-60 145t-19.5 159t19.5 159t60 145t98 119t138.5 80.5t177 29.5q111 0 208 -40.5t165.5 -122.5t85.5 -192h-127q-15 101 -110 168.5t-222 67.5q-89 0 -159 -33t-112.5 -90.5t-64.5 -131.5
t-22 -159t22 -159t65 -131.5t112.5 -90.5t158.5 -33q127 0 214 57.5t118 159.5h123q-28 -158 -145.5 -246.5t-309.5 -88.5z" />
    <glyph glyph-name="Ccaron" unicode="&#x10c;" horiz-adv-x="1435" 
d="M696 1548l-225 287h129l150 -184l147 184h129l-225 -287h-105zM772 -16q-107 0 -205.5 28t-185.5 87t-151.5 144t-102 207t-37.5 267t37.5 267t102 207t152 144t186 87t204.5 28q224 0 392.5 -128t197.5 -321h-143q-20 138 -147.5 230t-299.5 92q-243 0 -391 -159.5
t-148 -446.5t148 -446.5t391 -159.5q177 0 304.5 91.5t142.5 229.5h143q-25 -193 -193 -320.5t-397 -127.5z" />
    <glyph glyph-name="ccaron" unicode="&#x10d;" horiz-adv-x="1105" 
d="M524 1147l-225 287h129l150 -185l147 185h129l-225 -287h-105zM575 -16q-96 0 -177 29.5t-138.5 80t-98 118.5t-60 145t-19.5 159t19.5 159t60 145t98 119t138.5 80.5t177 29.5q111 0 208 -40.5t165.5 -122.5t85.5 -192h-127q-15 101 -110 168.5t-222 67.5
q-89 0 -159 -33t-112.5 -90.5t-64.5 -131.5t-22 -159t22 -159t65 -131.5t112.5 -90.5t158.5 -33q127 0 214 57.5t118 159.5h123q-28 -158 -145.5 -246.5t-309.5 -88.5z" />
    <glyph glyph-name="Dcaron" unicode="&#x10e;" horiz-adv-x="1359" 
d="M530 1548l-225 287h129l150 -184l147 184h129l-225 -287h-105zM156 0v1434h405q202 0 362 -84.5t253.5 -249t93.5 -383.5t-93.5 -383.5t-253.5 -249t-362 -84.5h-405zM293 127h272q112 0 210.5 35t177.5 104.5t125 185.5t46 265t-46 265t-125 185.5t-177.5 104.5
t-210.5 35h-272v-1180z" />
    <glyph glyph-name="dcaron" unicode="&#x10f;" horiz-adv-x="1341" 
d="M1149 1147l68 344h129l-125 -344h-72zM584 -16q-159 0 -274.5 72t-171.5 191t-56 269t56 269t171.5 191.5t274.5 72.5q114 0 212.5 -56t145.5 -147v604h129v-1450h-129v186q-47 -91 -145.5 -146.5t-212.5 -55.5zM588 102q167 0 267.5 113t100.5 301t-100.5 301
t-267.5 113t-268 -113t-101 -301t101 -301t268 -113z" />
    <glyph glyph-name="Dcroat" unicode="&#x110;" horiz-adv-x="1523" 
d="M725 1434q202 0 362 -84.5t253.5 -249t93.5 -383.5t-93.5 -383.5t-253.5 -249t-362 -84.5h-406v668h-202v106h202v660h406zM729 127q112 0 210.5 35t177.5 104.5t125 185.5t46 265t-46 265t-125 185.5t-177.5 104.5t-210.5 35h-272v-533h407v-106h-407v-541h272z" />
    <glyph glyph-name="dcroat" unicode="&#x111;" horiz-adv-x="1220" 
d="M1278 1266v-107h-207v-1159h-129v186q-47 -91 -145.5 -146.5t-212.5 -55.5q-159 0 -274.5 72t-171.5 191t-56 269t56 269t171.5 191.5t274.5 72.5q114 0 212.5 -56t145.5 -147v313h-412v107h412v184h129v-184h207zM588 102q167 0 267.5 113t100.5 301t-100.5 301
t-267.5 113t-268 -113t-101 -301t101 -301t268 -113z" />
    <glyph glyph-name="Emacron" unicode="&#x112;" 
d="M326 1618v115h534v-115h-534zM156 0v1434h874v-127h-737v-500h604v-127h-604v-553h760v-127h-897z" />
    <glyph glyph-name="emacron" unicode="&#x113;" horiz-adv-x="1136" 
d="M834 1331v-114h-535v114h535zM920 326h135q-25 -156 -150.5 -249t-316.5 -93q-219 0 -362.5 154.5t-143.5 385.5q0 235 134.5 380t352.5 145q212 0 342.5 -132t130.5 -346q0 -39 -4 -67h-825q6 -173 113 -287.5t262 -114.5q135 0 220 58.5t112 165.5zM569 930
q-141 0 -232 -81t-116 -226h686q-11 143 -101 225t-237 82z" />
    <glyph glyph-name="Ebreve" unicode="&#x114;" 
d="M594 1552q-121 0 -201 79.5t-80 203.5h115q0 -74 47 -122t119 -48q71 0 119.5 48.5t48.5 121.5h112q0 -123 -80 -203t-200 -80zM156 0v1434h874v-127h-737v-500h604v-127h-604v-553h760v-127h-897z" />
    <glyph glyph-name="ebreve" unicode="&#x115;" horiz-adv-x="1136" 
d="M567 1151q-121 0 -200.5 79.5t-79.5 203.5h114q0 -74 47 -122t119 -48q71 0 119.5 48.5t48.5 121.5h113q0 -123 -80.5 -203t-200.5 -80zM920 326h135q-25 -156 -150.5 -249t-316.5 -93q-219 0 -362.5 154.5t-143.5 385.5q0 235 134.5 380t352.5 145q212 0 342.5 -132
t130.5 -346q0 -39 -4 -67h-825q6 -173 113 -287.5t262 -114.5q135 0 220 58.5t112 165.5zM569 930q-141 0 -232 -81t-116 -226h686q-11 143 -101 225t-237 82z" />
    <glyph glyph-name="Edotaccent" unicode="&#x116;" 
d="M516 1851h156v-209h-156v209zM156 0v1434h874v-127h-737v-500h604v-127h-604v-553h760v-127h-897z" />
    <glyph glyph-name="edotaccent" unicode="&#x117;" horiz-adv-x="1136" 
d="M645 1450v-209h-156v209h156zM920 326h135q-25 -156 -150.5 -249t-316.5 -93q-219 0 -362.5 154.5t-143.5 385.5q0 235 134.5 380t352.5 145q212 0 342.5 -132t130.5 -346q0 -39 -4 -67h-825q6 -173 113 -287.5t262 -114.5q135 0 220 58.5t112 165.5zM569 930
q-141 0 -232 -81t-116 -226h686q-11 143 -101 225t-237 82z" />
    <glyph glyph-name="Eogonek" unicode="&#x118;" 
d="M1098 -182l59 -92q-75 -72 -176 -72q-81 0 -127.5 43.5t-46.5 114.5q0 107 127 188h-778v1434h874v-127h-737v-500h604v-127h-604v-553h760v-127q-67 -57 -96 -92.5t-29 -71.5q0 -32 19.5 -49.5t53.5 -17.5q51 0 97 49z" />
    <glyph glyph-name="eogonek" unicode="&#x119;" horiz-adv-x="1136" 
d="M711 -4q-63 -55 -91 -90.5t-28 -69.5q0 -32 20 -49.5t54 -17.5q50 0 96 49l59 -92q-75 -72 -176 -72q-81 0 -127.5 43.5t-46.5 114.5q0 98 104 172q-141 3 -254 74t-176 193.5t-63 272.5q0 235 134.5 380t352.5 145q212 0 342.5 -132t130.5 -346q0 -39 -4 -67h-825
q6 -173 113 -287.5t262 -114.5q135 0 220 58.5t112 165.5h135q-20 -129 -111.5 -216.5t-232.5 -113.5zM569 930q-141 0 -232 -81t-116 -226h686q-11 143 -101 225t-237 82z" />
    <glyph glyph-name="Ecaron" unicode="&#x11a;" 
d="M541 1548l-226 287h129l150 -184l147 184h129l-225 -287h-104zM156 0v1434h874v-127h-737v-500h604v-127h-604v-553h760v-127h-897z" />
    <glyph glyph-name="ecaron" unicode="&#x11b;" horiz-adv-x="1136" 
d="M618 1147h-104l-225 287h129l149 -185l148 185h129zM920 326h135q-25 -156 -150.5 -249t-316.5 -93q-219 0 -362.5 154.5t-143.5 385.5q0 235 134.5 380t352.5 145q212 0 342.5 -132t130.5 -346q0 -39 -4 -67h-825q6 -173 113 -287.5t262 -114.5q135 0 220 58.5
t112 165.5zM569 930q-141 0 -232 -81t-116 -226h686q-11 143 -101 225t-237 82z" />
    <glyph glyph-name="Gcircumflex" unicode="&#x11c;" horiz-adv-x="1486" 
d="M696 1833h105l225 -287h-129l-147 185l-150 -185h-129zM774 -16q-107 0 -206.5 29t-186.5 89t-151.5 145.5t-102 206t-37.5 263.5q0 177 57 319.5t153 231t217 135.5t255 47q239 0 411.5 -128.5t200.5 -326.5h-151q-26 142 -157 235t-304 93q-240 0 -388 -159.5
t-148 -446.5t148 -446.5t388 -159.5q128 0 234 42t171.5 125.5t65.5 194.5q0 56 -34.5 89.5t-94.5 33.5h-338v127h346q30 0 64 -9t69 -29t63 -48t46 -71t18 -93v-473h-131v258q-55 -123 -184.5 -198.5t-292.5 -75.5z" />
    <glyph glyph-name="gcircumflex" unicode="&#x11d;" horiz-adv-x="1226" 
d="M610 1329l-149 -184h-129l225 287h105l225 -287h-129zM948 1032h129v-1073q0 -164 -106.5 -270.5t-272.5 -106.5h-477v119h477q109 0 179.5 73t70.5 185v195q-35 -75 -135 -122.5t-223 -47.5q-159 0 -274.5 72t-171.5 191t-56 269t56 269t171.5 191.5t274.5 72.5
q107 0 207.5 -51.5t150.5 -131.5v166zM594 102q167 0 268 113t101 301t-101 301t-268 113t-268 -113t-101 -301t101 -301t268 -113z" />
    <glyph glyph-name="Gbreve" unicode="&#x11e;" horiz-adv-x="1486" 
d="M745 1552q-121 0 -200.5 79.5t-79.5 203.5h115q0 -74 46.5 -122t118.5 -48q71 0 119.5 48.5t48.5 121.5h113q0 -123 -80.5 -203t-200.5 -80zM774 -16q-107 0 -206.5 29t-186.5 89t-151.5 145.5t-102 206t-37.5 263.5q0 177 57 319.5t153 231t217 135.5t255 47
q239 0 411.5 -128.5t200.5 -326.5h-151q-26 142 -157 235t-304 93q-240 0 -388 -159.5t-148 -446.5t148 -446.5t388 -159.5q128 0 234 42t171.5 125.5t65.5 194.5q0 56 -34.5 89.5t-94.5 33.5h-338v127h346q30 0 64 -9t69 -29t63 -48t46 -71t18 -93v-473h-131v258
q-55 -123 -184.5 -198.5t-292.5 -75.5z" />
    <glyph glyph-name="gbreve" unicode="&#x11f;" horiz-adv-x="1226" 
d="M606 1151q-121 0 -200.5 79.5t-79.5 203.5h114q0 -74 47 -122t119 -48q71 0 119.5 48.5t48.5 121.5h113q0 -123 -80.5 -203t-200.5 -80zM948 1032h129v-1073q0 -164 -106.5 -270.5t-272.5 -106.5h-477v119h477q109 0 179.5 73t70.5 185v195q-35 -75 -135 -122.5
t-223 -47.5q-159 0 -274.5 72t-171.5 191t-56 269t56 269t171.5 191.5t274.5 72.5q107 0 207.5 -51.5t150.5 -131.5v166zM594 102q167 0 268 113t101 301t-101 301t-268 113t-268 -113t-101 -301t101 -301t268 -113z" />
    <glyph glyph-name="Gdotaccent" unicode="&#x120;" horiz-adv-x="1486" 
d="M668 1851h155v-209h-155v209zM774 -16q-107 0 -206.5 29t-186.5 89t-151.5 145.5t-102 206t-37.5 263.5q0 177 57 319.5t153 231t217 135.5t255 47q239 0 411.5 -128.5t200.5 -326.5h-151q-26 142 -157 235t-304 93q-240 0 -388 -159.5t-148 -446.5t148 -446.5
t388 -159.5q128 0 234 42t171.5 125.5t65.5 194.5q0 56 -34.5 89.5t-94.5 33.5h-338v127h346q30 0 64 -9t69 -29t63 -48t46 -71t18 -93v-473h-131v258q-55 -123 -184.5 -198.5t-292.5 -75.5z" />
    <glyph glyph-name="gdotaccent" unicode="&#x121;" horiz-adv-x="1226" 
d="M684 1450v-209h-156v209h156zM948 1032h129v-1073q0 -164 -106.5 -270.5t-272.5 -106.5h-477v119h477q109 0 179.5 73t70.5 185v195q-35 -75 -135 -122.5t-223 -47.5q-159 0 -274.5 72t-171.5 191t-56 269t56 269t171.5 191.5t274.5 72.5q107 0 207.5 -51.5t150.5 -131.5
v166zM594 102q167 0 268 113t101 301t-101 301t-268 113t-268 -113t-101 -301t101 -301t268 -113z" />
    <glyph glyph-name="uni0122" unicode="&#x122;" horiz-adv-x="1486" 
d="M774 -16q-107 0 -206.5 29t-186.5 89t-151.5 145.5t-102 206t-37.5 263.5q0 177 57 319.5t153 231t217 135.5t255 47q239 0 411.5 -128.5t200.5 -326.5h-151q-26 142 -157 235t-304 93q-240 0 -388 -159.5t-148 -446.5t148 -446.5t388 -159.5q128 0 234 42t171.5 125.5
t65.5 194.5q0 56 -34.5 89.5t-94.5 33.5h-338v127h346q30 0 64 -9t69 -29t63 -48t46 -71t18 -93v-473h-131v258q-55 -123 -184.5 -198.5t-292.5 -75.5zM565 -434l97 295h194l-184 -295h-107z" />
    <glyph glyph-name="uni0123" unicode="&#x123;" horiz-adv-x="1226" 
d="M764 1450l-62 -303h-133l115 303h80zM948 1032h129v-1073q0 -164 -106.5 -270.5t-272.5 -106.5h-477v119h477q109 0 179.5 73t70.5 185v195q-35 -75 -135 -122.5t-223 -47.5q-159 0 -274.5 72t-171.5 191t-56 269t56 269t171.5 191.5t274.5 72.5q107 0 207.5 -51.5
t150.5 -131.5v166zM594 102q167 0 268 113t101 301t-101 301t-268 113t-268 -113t-101 -301t101 -301t268 -113z" />
    <glyph glyph-name="Hcircumflex" unicode="&#x124;" horiz-adv-x="1392" 
d="M700 1731l-149 -185h-129l225 287h105l225 -287h-129zM1100 1434h137v-1434h-137v678h-807v-678h-137v1434h137v-629h807v629z" />
    <glyph glyph-name="hcircumflex" unicode="&#x125;" horiz-adv-x="1155" 
d="M162 1833h104l226 -287h-130l-147 185l-149 -185h-129zM150 0v1450h129v-633q39 114 130.5 173t217.5 59q175 0 280 -115t105 -307v-627h-129v610q0 145 -75.5 232.5t-199.5 87.5q-145 0 -237 -105.5t-92 -269.5v-555h-129z" />
    <glyph glyph-name="Hbar" unicode="&#x126;" horiz-adv-x="1392" 
d="M1382 1280v-119h-145v-1161h-137v678h-807v-678h-137v1161h-148v119h148v154h137v-154h807v154h137v-154h145zM1100 805v356h-807v-356h807z" />
    <glyph glyph-name="hbar" unicode="&#x127;" horiz-adv-x="1130" 
d="M610 1049q175 0 280 -115t105 -307v-627h-129v610q0 145 -75 232.5t-199 87.5q-145 0 -237.5 -105.5t-92.5 -269.5v-555h-129v1184h-158v114h158v152h129v-152h311v-114h-311v-367q39 114 130.5 173t217.5 59z" />
    <glyph glyph-name="Itilde" unicode="&#x128;" horiz-adv-x="448" 
d="M354 1612q-52 0 -98.5 21t-83.5 42t-66 21q-31 0 -53 -20t-28 -52h-111q9 86 57.5 138.5t120.5 52.5q53 0 99.5 -21t83 -42t65.5 -21t52 19.5t30 51.5h110q-9 -87 -57 -138.5t-121 -51.5zM156 0v1434h137v-1434h-137z" />
    <glyph glyph-name="itilde" unicode="&#x129;" horiz-adv-x="415" 
d="M338 1210q-52 0 -98.5 21t-83.5 42t-66 21q-31 0 -53.5 -19.5t-28.5 -51.5h-110q9 86 57.5 138t120.5 52q53 0 99.5 -21t83 -42t65.5 -21t51.5 20t30.5 52h110q-9 -87 -57 -139t-121 -52zM143 0v1032h129v-1032h-129z" />
    <glyph glyph-name="Imacron" unicode="&#x12a;" horiz-adv-x="448" 
d="M-45 1618v115h534v-115h-534zM156 0v1434h137v-1434h-137z" />
    <glyph glyph-name="imacron" unicode="&#x12b;" horiz-adv-x="415" 
d="M-61 1217v114h534v-114h-534zM143 0v1032h129v-1032h-129z" />
    <glyph glyph-name="Ibreve" unicode="&#x12c;" horiz-adv-x="448" 
d="M223 1552q-121 0 -200.5 79.5t-79.5 203.5h114q0 -74 47 -122t119 -48q71 0 119.5 48.5t48.5 121.5h113q0 -123 -80.5 -203t-200.5 -80zM156 0v1434h137v-1434h-137z" />
    <glyph glyph-name="ibreve" unicode="&#x12d;" horiz-adv-x="415" 
d="M207 1151q-121 0 -201 79.5t-80 203.5h115q0 -74 47 -122t119 -48q71 0 119.5 48.5t48.5 121.5h112q0 -123 -80 -203t-200 -80zM143 0v1032h129v-1032h-129z" />
    <glyph glyph-name="Iogonek" unicode="&#x12e;" horiz-adv-x="448" 
d="M338 -182l59 -92q-75 -72 -176 -72q-81 0 -127.5 43.5t-46.5 114.5q0 107 127 188h-18v1434h137v-1434q-67 -57 -96 -92.5t-29 -71.5q0 -32 20 -49.5t54 -17.5q50 0 96 49z" />
    <glyph glyph-name="iogonek" unicode="&#x12f;" horiz-adv-x="415" 
d="M285 1450v-209h-156v209h156zM317 -182l60 -92q-75 -72 -176 -72q-81 0 -127.5 43.5t-46.5 114.5q0 107 127 188h-11v1032h129v-1032q-67 -57 -96 -92.5t-29 -71.5q0 -32 20 -49.5t54 -17.5q50 0 96 49z" />
    <glyph glyph-name="Idotaccent" unicode="&#x130;" horiz-adv-x="448" 
d="M145 1851h156v-209h-156v209zM156 0v1434h137v-1434h-137z" />
    <glyph glyph-name="dotlessi" unicode="&#x131;" horiz-adv-x="415" 
d="M143 0v1032h129v-1032h-129z" />
    <glyph glyph-name="IJ" unicode="&#x132;" horiz-adv-x="1067" 
d="M156 0v1434h137v-1434h-137zM483 127h185q66 0 101.5 56t35.5 161v1090h137v-1090q0 -167 -70.5 -255.5t-203.5 -88.5h-185v127z" />
    <glyph glyph-name="ij" unicode="&#x133;" horiz-adv-x="831" 
d="M129 1241v209h156v-209h-156zM543 1450h155v-209h-155v209zM143 0v1032h129v-1032h-129zM559 1032h129v-1114q0 -175 -59 -255.5t-217 -80.5h-90v119h90q31 0 54 5t38.5 11.5t26 22.5t16.5 29t8.5 41t3 48t0.5 60v1114z" />
    <glyph glyph-name="Jcircumflex" unicode="&#x134;" horiz-adv-x="618" 
d="M375 1833h104l226 -287h-130l-147 185l-149 -185h-129zM35 127h184q66 0 101.5 56t35.5 161v1090h138v-1090q0 -167 -70.5 -255.5t-204.5 -88.5h-184v127z" />
    <glyph glyph-name="jcircumflex" unicode="&#x135;" horiz-adv-x="415" 
d="M260 1432l225 -287h-129l-147 184l-150 -184h-129l226 287h104zM143 1032h129v-1114q0 -175 -59 -255.5t-217 -80.5h-90v119h90q31 0 54 5t38.5 11.5t26 22.5t16.5 29t8.5 41t3 48t0.5 60v1114z" />
    <glyph glyph-name="uni0136" unicode="&#x136;" horiz-adv-x="1263" 
d="M602 856l635 -856h-160l-569 760l-213 -215v-545h-139v1434h139v-705l700 705h176zM410 -434l96 295h194l-184 -295h-106z" />
    <glyph glyph-name="uni0137" unicode="&#x137;" horiz-adv-x="1048" 
d="M524 631l498 -631h-168l-430 541l-143 -127v-414h-131v1450h131v-879l522 461h176zM309 -434l97 295h194l-184 -295h-107z" />
    <glyph glyph-name="kgreenlandic" unicode="&#x138;" horiz-adv-x="1048" 
d="M854 0l-430 541l-143 -127v-414h-131v1032h131v-457l532 457h166l-455 -401l498 -631h-168z" />
    <glyph glyph-name="Lacute" unicode="&#x139;" horiz-adv-x="1058" 
d="M186 1546l189 303h157l-215 -303h-131zM156 0v1434h137v-1307h735v-127h-872z" />
    <glyph glyph-name="lacute" unicode="&#x13a;" horiz-adv-x="428" 
d="M141 1546l189 303h157l-215 -303h-131zM150 0v1450h129v-1450h-129z" />
    <glyph glyph-name="uni013B" unicode="&#x13b;" horiz-adv-x="1058" 
d="M156 0v1434h137v-1307h735v-127h-872zM487 -434l97 295h194l-184 -295h-107z" />
    <glyph glyph-name="uni013C" unicode="&#x13c;" horiz-adv-x="428" 
d="M150 0v1450h129v-1450h-129zM27 -434l96 295h194l-184 -295h-106z" />
    <glyph glyph-name="Lcaron" unicode="&#x13d;" horiz-adv-x="1058" 
d="M586 1147l67 344h129l-125 -344h-71zM156 0v1434h137v-1307h735v-127h-872z" />
    <glyph glyph-name="lcaron" unicode="&#x13e;" horiz-adv-x="567" 
d="M303 1147l68 344h129l-125 -344h-72zM129 0v1450h129v-1450h-129z" />
    <glyph glyph-name="Ldot" unicode="&#x13f;" horiz-adv-x="1058" 
d="M156 0v1434h137v-1307h735v-127h-872zM551 825h156v-209h-156v209z" />
    <glyph glyph-name="ldot" unicode="&#x140;" horiz-adv-x="591" 
d="M129 0v1450h129v-1450h-129zM362 813h156v-209h-156v209z" />
    <glyph glyph-name="Lslash" unicode="&#x141;" horiz-adv-x="1058" 
d="M293 127h735v-127h-872v645l-156 -39v103l156 39v686h137v-652l166 43v-102l-166 -43v-553z" />
    <glyph glyph-name="lslash" unicode="&#x142;" horiz-adv-x="428" 
d="M444 813v-102l-165 -43v-668h-129v635l-164 -41v102l164 41v713h129v-680z" />
    <glyph glyph-name="Nacute" unicode="&#x143;" horiz-adv-x="1396" 
d="M635 1546l188 303h158l-215 -303h-131zM156 0v1434h163l785 -1229v1229h137v-1434h-164l-784 1225v-1225h-137z" />
    <glyph glyph-name="nacute" unicode="&#x144;" horiz-adv-x="1148" 
d="M504 1145l188 303h158l-215 -303h-131zM143 0v1032h129v-215q39 114 131 173t218 59q175 0 280 -115t105 -307v-627h-129v610q0 145 -75.5 232.5t-199.5 87.5q-145 0 -237.5 -105.5t-92.5 -269.5v-555h-129z" />
    <glyph glyph-name="uni0145" unicode="&#x145;" horiz-adv-x="1396" 
d="M156 0v1434h163l785 -1229v1229h137v-1434h-164l-784 1225v-1225h-137zM520 -434l96 295h195l-184 -295h-107z" />
    <glyph glyph-name="uni0146" unicode="&#x146;" horiz-adv-x="1148" 
d="M143 0v1032h129v-215q39 114 131 173t218 59q175 0 280 -115t105 -307v-627h-129v610q0 145 -75.5 232.5t-199.5 87.5q-145 0 -237.5 -105.5t-92.5 -269.5v-555h-129zM389 -434l96 295h195l-184 -295h-107z" />
    <glyph glyph-name="Ncaron" unicode="&#x147;" horiz-adv-x="1396" 
d="M647 1548l-225 287h129l149 -184l148 184h129l-225 -287h-105zM156 0v1434h163l785 -1229v1229h137v-1434h-164l-784 1225v-1225h-137z" />
    <glyph glyph-name="ncaron" unicode="&#x148;" horiz-adv-x="1148" 
d="M516 1147l-225 287h129l149 -185l148 185h129l-225 -287h-105zM143 0v1032h129v-215q39 114 131 173t218 59q175 0 280 -115t105 -307v-627h-129v610q0 145 -75.5 232.5t-199.5 87.5q-145 0 -237.5 -105.5t-92.5 -269.5v-555h-129z" />
    <glyph glyph-name="Eng" unicode="&#x14a;" horiz-adv-x="1396" 
d="M1104 1434h137v-1508q0 -167 -70.5 -255.5t-203.5 -88.5h-185v127h185q66 0 101.5 56t35.5 161v33l-811 1255v-1214h-137v1434h163l785 -1219v1219z" />
    <glyph glyph-name="eng" unicode="&#x14b;" horiz-adv-x="1150" 
d="M621 1049q175 0 280 -115t105 -307v-758q0 -139 -83 -223.5t-216 -71.5v123q86 -6 128 44t42 146v723q0 145 -75.5 232.5t-199.5 87.5q-145 0 -237.5 -105.5t-92.5 -269.5v-555h-129v1032h129v-215q39 114 131 173t218 59z" />
    <glyph glyph-name="Omacron" unicode="&#x14c;" horiz-adv-x="1570" 
d="M516 1618v115h535v-115h-535zM784 -16q-147 0 -276 55.5t-221 152.5t-144.5 233t-52.5 292t52.5 292t144.5 233t221 152.5t276 55.5t276.5 -55.5t222 -152.5t145.5 -233t53 -292t-53 -292t-145.5 -233t-222 -152.5t-276.5 -55.5zM784 111q156 0 283 78.5t198.5 217
t71.5 310.5t-71.5 310.5t-198.5 217t-283 78.5q-236 0 -393.5 -172.5t-157.5 -433.5t157.5 -433.5t393.5 -172.5z" />
    <glyph glyph-name="omacron" unicode="&#x14d;" horiz-adv-x="1204" 
d="M334 1217v114h534v-114h-534zM602 -16q-227 0 -373.5 149.5t-146.5 382.5t146.5 383t373.5 150t373.5 -150t146.5 -383t-146.5 -382.5t-373.5 -149.5zM602 102q171 0 278 116t107 298t-107 298t-278 116t-278 -116t-107 -298t107 -298t278 -116z" />
    <glyph glyph-name="Obreve" unicode="&#x14e;" horiz-adv-x="1570" 
d="M784 1552q-121 0 -200.5 79.5t-79.5 203.5h114q0 -74 47 -122t119 -48q71 0 119.5 48.5t48.5 121.5h113q0 -123 -80.5 -203t-200.5 -80zM784 -16q-147 0 -276 55.5t-221 152.5t-144.5 233t-52.5 292t52.5 292t144.5 233t221 152.5t276 55.5t276.5 -55.5t222 -152.5
t145.5 -233t53 -292t-53 -292t-145.5 -233t-222 -152.5t-276.5 -55.5zM784 111q156 0 283 78.5t198.5 217t71.5 310.5t-71.5 310.5t-198.5 217t-283 78.5q-236 0 -393.5 -172.5t-157.5 -433.5t157.5 -433.5t393.5 -172.5z" />
    <glyph glyph-name="obreve" unicode="&#x14f;" horiz-adv-x="1204" 
d="M602 1151q-121 0 -200.5 79.5t-79.5 203.5h114q0 -74 47 -122t119 -48q71 0 119.5 48.5t48.5 121.5h113q0 -123 -80.5 -203t-200.5 -80zM602 -16q-227 0 -373.5 149.5t-146.5 382.5t146.5 383t373.5 150t373.5 -150t146.5 -383t-146.5 -382.5t-373.5 -149.5zM602 102
q171 0 278 116t107 298t-107 298t-278 116t-278 -116t-107 -298t107 -298t278 -116z" />
    <glyph glyph-name="Ohungarumlaut" unicode="&#x150;" horiz-adv-x="1570" 
d="M586 1546l188 303h158l-215 -303h-131zM836 1546l188 303h158l-215 -303h-131zM784 -16q-147 0 -276 55.5t-221 152.5t-144.5 233t-52.5 292t52.5 292t144.5 233t221 152.5t276 55.5t276.5 -55.5t222 -152.5t145.5 -233t53 -292t-53 -292t-145.5 -233t-222 -152.5
t-276.5 -55.5zM784 111q156 0 283 78.5t198.5 217t71.5 310.5t-71.5 310.5t-198.5 217t-283 78.5q-236 0 -393.5 -172.5t-157.5 -433.5t157.5 -433.5t393.5 -172.5z" />
    <glyph glyph-name="ohungarumlaut" unicode="&#x151;" horiz-adv-x="1204" 
d="M403 1145l189 303h158l-215 -303h-132zM653 1145l189 303h157l-215 -303h-131zM602 -16q-227 0 -373.5 149.5t-146.5 382.5t146.5 383t373.5 150t373.5 -150t146.5 -383t-146.5 -382.5t-373.5 -149.5zM602 102q171 0 278 116t107 298t-107 298t-278 116t-278 -116
t-107 -298t107 -298t278 -116z" />
    <glyph glyph-name="OE" unicode="&#x152;" horiz-adv-x="2058" 
d="M1204 127h760v-127h-1165q-202 0 -362 84.5t-253.5 249t-93.5 383.5t93.5 383.5t253.5 249t362 84.5h1143v-127h-738v-500h604v-127h-604v-553zM1067 127v1180h-272q-112 0 -210.5 -35t-177.5 -104.5t-125 -185.5t-46 -265t46 -265t125 -185.5t177.5 -104.5t210.5 -35
h272z" />
    <glyph glyph-name="oe" unicode="&#x153;" horiz-adv-x="2072" 
d="M1845 326h135q-25 -156 -150.5 -249t-316.5 -93q-148 0 -265.5 75t-180.5 203q-64 -129 -186.5 -203.5t-278.5 -74.5q-227 0 -373.5 149.5t-146.5 382.5t146.5 383t373.5 150q153 0 273.5 -71t185.5 -196q59 126 172 196.5t262 70.5q212 0 342.5 -132t130.5 -346
q0 -39 -4 -67h-825q6 -173 112.5 -287.5t261.5 -114.5q135 0 220 58.5t112 165.5zM602 102q171 0 278 116t107 298t-107 298t-278 116t-278 -116t-107 -298t107 -298t278 -116zM1495 930q-141 0 -232 -81t-116 -226h686q-11 143 -101 225t-237 82z" />
    <glyph glyph-name="Racute" unicode="&#x154;" horiz-adv-x="1310" 
d="M872 1849l-215 -303h-131l189 303h157zM895 678q88 -46 139.5 -133t57.5 -201l20 -344h-129l-20 344q-6 114 -74.5 186t-175.5 72h-420v-602h-137v1434h526q206 0 327 -112.5t121 -299.5q0 -118 -62.5 -205.5t-172.5 -138.5zM293 1307v-578h393q153 0 226 83.5t73 209.5
q0 125 -72.5 205t-226.5 80h-393z" />
    <glyph glyph-name="racute" unicode="&#x155;" horiz-adv-x="735" 
d="M356 1145l189 303h157l-215 -303h-131zM694 913h-135q-66 0 -116.5 -24.5t-82.5 -65.5t-52 -102.5t-28 -129.5t-8 -151v-440h-129v1032h129v-219q31 110 100.5 164.5t186.5 54.5h135v-119z" />
    <glyph glyph-name="uni0156" unicode="&#x156;" horiz-adv-x="1310" 
d="M895 678q88 -46 139.5 -133t57.5 -201l20 -344h-129l-20 344q-6 114 -74.5 186t-175.5 72h-420v-602h-137v1434h526q206 0 327 -112.5t121 -299.5q0 -118 -62.5 -205.5t-172.5 -138.5zM293 1307v-578h393q153 0 226 83.5t73 209.5q0 125 -72.5 205t-226.5 80h-393z
M457 -434l96 295h195l-185 -295h-106z" />
    <glyph glyph-name="uni0157" unicode="&#x157;" horiz-adv-x="735" 
d="M694 913h-135q-66 0 -116.5 -24.5t-82.5 -65.5t-52 -102.5t-28 -129.5t-8 -151v-440h-129v1032h129v-219q31 110 100.5 164.5t186.5 54.5h135v-119zM29 -434l96 295h194l-184 -295h-106z" />
    <glyph glyph-name="Rcaron" unicode="&#x158;" horiz-adv-x="1310" 
d="M643 1548h-104l-226 287h129l150 -184l147 184h129zM895 678q88 -46 139.5 -133t57.5 -201l20 -344h-129l-20 344q-6 114 -74.5 186t-175.5 72h-420v-602h-137v1434h526q206 0 327 -112.5t121 -299.5q0 -118 -62.5 -205.5t-172.5 -138.5zM293 1307v-578h393
q153 0 226 83.5t73 209.5q0 125 -72.5 205t-226.5 80h-393z" />
    <glyph glyph-name="rcaron" unicode="&#x159;" horiz-adv-x="735" 
d="M369 1147l-226 287h129l150 -185l147 185h129l-225 -287h-104zM694 913h-135q-66 0 -116.5 -24.5t-82.5 -65.5t-52 -102.5t-28 -129.5t-8 -151v-440h-129v1032h129v-219q31 110 100.5 164.5t186.5 54.5h135v-119z" />
    <glyph glyph-name="Sacute" unicode="&#x15a;" horiz-adv-x="1222" 
d="M543 1546l188 303h158l-215 -303h-131zM618 -16q-237 0 -381 130.5t-159 350.5h137q15 -164 120 -259t283 -95q173 0 275 67t102 205q0 80 -48 136t-124 87.5t-168.5 57t-185 55.5t-168.5 70.5t-124 113.5t-48 174q0 167 133.5 270t349.5 103q209 0 345 -113.5
t155 -302.5h-137q-14 132 -111.5 210.5t-251.5 78.5q-161 0 -251.5 -66t-90.5 -180q0 -62 30 -108t80 -75t115.5 -51t137.5 -40.5t144.5 -39t138 -51.5t115.5 -72t80 -106.5t30 -150.5q0 -126 -70 -217.5t-187 -136.5t-266 -45z" />
    <glyph glyph-name="sacute" unicode="&#x15b;" horiz-adv-x="966" 
d="M406 1145l188 303h158l-215 -303h-131zM496 -16q-175 0 -283.5 91.5t-120.5 250.5h129q10 -109 81 -166.5t194 -57.5q104 0 170.5 52t66.5 125q0 68 -34 109t-88.5 57.5t-120 25.5t-131 22t-120 38.5t-88.5 84.5t-34 150q0 129 99 206t265 77q164 0 268 -85t113 -225
h-129q-7 68 -53 113t-99 61.5t-108 16.5q-100 0 -160.5 -45t-60.5 -119q0 -48 21 -79.5t56.5 -48t82 -26t97.5 -16.5t102 -16.5t97.5 -30t82 -52t56.5 -87t21 -131.5q0 -134 -102 -214.5t-270 -80.5z" />
    <glyph glyph-name="Scircumflex" unicode="&#x15c;" horiz-adv-x="1222" 
d="M559 1833h105l225 -287h-129l-148 185l-149 -185h-129zM618 -16q-237 0 -381 130.5t-159 350.5h137q15 -164 120 -259t283 -95q173 0 275 67t102 205q0 80 -48 136t-124 87.5t-168.5 57t-185 55.5t-168.5 70.5t-124 113.5t-48 174q0 167 133.5 270t349.5 103
q209 0 345 -113.5t155 -302.5h-137q-14 132 -111.5 210.5t-251.5 78.5q-161 0 -251.5 -66t-90.5 -180q0 -62 30 -108t80 -75t115.5 -51t137.5 -40.5t144.5 -39t138 -51.5t115.5 -72t80 -106.5t30 -150.5q0 -126 -70 -217.5t-187 -136.5t-266 -45z" />
    <glyph glyph-name="scircumflex" unicode="&#x15d;" horiz-adv-x="966" 
d="M422 1432h104l226 -287h-129l-148 184l-149 -184h-129zM496 -16q-175 0 -283.5 91.5t-120.5 250.5h129q10 -109 81 -166.5t194 -57.5q104 0 170.5 52t66.5 125q0 68 -34 109t-88.5 57.5t-120 25.5t-131 22t-120 38.5t-88.5 84.5t-34 150q0 129 99 206t265 77
q164 0 268 -85t113 -225h-129q-7 68 -53 113t-99 61.5t-108 16.5q-100 0 -160.5 -45t-60.5 -119q0 -48 21 -79.5t56.5 -48t82 -26t97.5 -16.5t102 -16.5t97.5 -30t82 -52t56.5 -87t21 -131.5q0 -134 -102 -214.5t-270 -80.5z" />
    <glyph glyph-name="Scedilla" unicode="&#x15e;" horiz-adv-x="1222" 
d="M618 -16q-237 0 -381 130.5t-159 350.5h137q15 -164 120 -259t283 -95q173 0 275 67t102 205q0 80 -48 136t-124 87.5t-168.5 57t-185 55.5t-168.5 70.5t-124 113.5t-48 174q0 167 133.5 270t349.5 103q209 0 345 -113.5t155 -302.5h-137q-14 132 -111.5 210.5
t-251.5 78.5q-161 0 -251.5 -66t-90.5 -180q0 -62 30 -108t80 -75t115.5 -51t137.5 -40.5t144.5 -39t138 -51.5t115.5 -72t80 -106.5t30 -150.5q0 -126 -70 -217.5t-187 -136.5t-266 -45zM575 -418h-186l213 295h117z" />
    <glyph glyph-name="scedilla" unicode="&#x15f;" horiz-adv-x="966" 
d="M496 -16q-175 0 -283.5 91.5t-120.5 250.5h129q10 -109 81 -166.5t194 -57.5q104 0 170.5 52t66.5 125q0 68 -34 109t-88.5 57.5t-120 25.5t-131 22t-120 38.5t-88.5 84.5t-34 150q0 129 99 206t265 77q164 0 268 -85t113 -225h-129q-7 68 -53 113t-99 61.5t-108 16.5
q-100 0 -160.5 -45t-60.5 -119q0 -48 21 -79.5t56.5 -48t82 -26t97.5 -16.5t102 -16.5t97.5 -30t82 -52t56.5 -87t21 -131.5q0 -134 -102 -214.5t-270 -80.5zM438 -418h-186l213 295h117z" />
    <glyph glyph-name="Scaron" unicode="&#x160;" horiz-adv-x="1222" 
d="M555 1548l-225 287h129l149 -184l148 184h129l-226 -287h-104zM618 -16q-237 0 -381 130.5t-159 350.5h137q15 -164 120 -259t283 -95q173 0 275 67t102 205q0 80 -48 136t-124 87.5t-168.5 57t-185 55.5t-168.5 70.5t-124 113.5t-48 174q0 167 133.5 270t349.5 103
q209 0 345 -113.5t155 -302.5h-137q-14 132 -111.5 210.5t-251.5 78.5q-161 0 -251.5 -66t-90.5 -180q0 -62 30 -108t80 -75t115.5 -51t137.5 -40.5t144.5 -39t138 -51.5t115.5 -72t80 -106.5t30 -150.5q0 -126 -70 -217.5t-187 -136.5t-266 -45z" />
    <glyph glyph-name="scaron" unicode="&#x161;" horiz-adv-x="966" 
d="M418 1147l-225 287h129l149 -185l147 185h130l-226 -287h-104zM496 -16q-175 0 -283.5 91.5t-120.5 250.5h129q10 -109 81 -166.5t194 -57.5q104 0 170.5 52t66.5 125q0 68 -34 109t-88.5 57.5t-120 25.5t-131 22t-120 38.5t-88.5 84.5t-34 150q0 129 99 206t265 77
q164 0 268 -85t113 -225h-129q-7 68 -53 113t-99 61.5t-108 16.5q-100 0 -160.5 -45t-60.5 -119q0 -48 21 -79.5t56.5 -48t82 -26t97.5 -16.5t102 -16.5t97.5 -30t82 -52t56.5 -87t21 -131.5q0 -134 -102 -214.5t-270 -80.5z" />
    <glyph glyph-name="uni0162" unicode="&#x162;" horiz-adv-x="1126" 
d="M496 0v1307h-469v127h1073v-127h-467v-1307h-137zM530 -418h-186l213 295h117z" />
    <glyph glyph-name="uni0163" unicode="&#x163;" horiz-adv-x="749" 
d="M252 1370h129v-338h328v-119h-328v-604q0 -89 46.5 -139.5t125.5 -50.5h156v-119h-154q-140 0 -221.5 83.5t-81.5 225.5v604h-221v119h221v338zM360 -418h-186l213 295h117z" />
    <glyph glyph-name="Tcaron" unicode="&#x164;" horiz-adv-x="1126" 
d="M510 1548l-225 287h129l149 -184l148 184h129l-226 -287h-104zM496 0v1307h-469v127h1073v-127h-467v-1307h-137z" />
    <glyph glyph-name="tcaron" unicode="&#x165;" horiz-adv-x="749" 
d="M541 1147l67 344h129l-125 -344h-71zM252 1370h129v-338h328v-119h-328v-604q0 -89 46.5 -139.5t125.5 -50.5h156v-119h-154q-140 0 -221.5 83.5t-81.5 225.5v604h-221v119h221v338z" />
    <glyph glyph-name="Tbar" unicode="&#x166;" horiz-adv-x="1126" 
d="M1100 1307h-467v-537h303v-106h-303v-664h-137v664h-308v106h308v537h-469v127h1073v-127z" />
    <glyph glyph-name="tbar" unicode="&#x167;" horiz-adv-x="749" 
d="M709 913h-328v-344h311v-106h-311v-154q0 -89 46.5 -139.5t125.5 -50.5h156v-119h-154q-140 0 -221.5 83.5t-81.5 225.5v154h-158v106h158v344h-221v119h221v338h129v-338h328v-119z" />
    <glyph glyph-name="Utilde" unicode="&#x168;" horiz-adv-x="1331" 
d="M797 1612q-52 0 -98.5 21t-83.5 42t-66 21q-31 0 -53.5 -20t-28.5 -52h-111q9 86 58 138.5t121 52.5q53 0 99 -21t82.5 -42t65.5 -21t52 19.5t30 51.5h111q-9 -87 -57 -138.5t-121 -51.5zM666 -16q-242 0 -387.5 135.5t-145.5 361.5v953h139v-965q0 -163 107.5 -260.5
t286.5 -97.5q180 0 287.5 97.5t107.5 260.5v965h137v-953q0 -226 -145 -361.5t-387 -135.5z" />
    <glyph glyph-name="utilde" unicode="&#x169;" horiz-adv-x="1148" 
d="M702 1210q-52 0 -98.5 21t-83 42t-65.5 21q-31 0 -53.5 -19.5t-28.5 -51.5h-111q9 86 57.5 138t120.5 52q53 0 99.5 -21t83 -42t65.5 -21t51.5 20t30.5 52h111q-9 -87 -57.5 -139t-121.5 -52zM1006 1032v-1032h-129v215q-39 -114 -130.5 -172.5t-218.5 -58.5
q-175 0 -280 115t-105 307v626h129v-610q0 -145 75.5 -232.5t199.5 -87.5q145 0 237.5 105.5t92.5 269.5v555h129z" />
    <glyph glyph-name="Umacron" unicode="&#x16a;" horiz-adv-x="1331" 
d="M397 1618v115h535v-115h-535zM666 -16q-242 0 -387.5 135.5t-145.5 361.5v953h139v-965q0 -163 107.5 -260.5t286.5 -97.5q180 0 287.5 97.5t107.5 260.5v965h137v-953q0 -226 -145 -361.5t-387 -135.5z" />
    <glyph glyph-name="umacron" unicode="&#x16b;" horiz-adv-x="1148" 
d="M303 1217v114h535v-114h-535zM1006 1032v-1032h-129v215q-39 -114 -130.5 -172.5t-218.5 -58.5q-175 0 -280 115t-105 307v626h129v-610q0 -145 75.5 -232.5t199.5 -87.5q145 0 237.5 105.5t92.5 269.5v555h129z" />
    <glyph glyph-name="Ubreve" unicode="&#x16c;" horiz-adv-x="1331" 
d="M666 1552q-121 0 -201 79.5t-80 203.5h115q0 -74 47 -122t119 -48q71 0 119.5 48.5t48.5 121.5h112q0 -123 -80 -203t-200 -80zM666 -16q-242 0 -387.5 135.5t-145.5 361.5v953h139v-965q0 -163 107.5 -260.5t286.5 -97.5q180 0 287.5 97.5t107.5 260.5v965h137v-953
q0 -226 -145 -361.5t-387 -135.5z" />
    <glyph glyph-name="ubreve" unicode="&#x16d;" horiz-adv-x="1148" 
d="M571 1151q-121 0 -200.5 79.5t-79.5 203.5h115q0 -74 46.5 -122t118.5 -48q71 0 119.5 48.5t48.5 121.5h113q0 -123 -80.5 -203t-200.5 -80zM1006 1032v-1032h-129v215q-39 -114 -130.5 -172.5t-218.5 -58.5q-175 0 -280 115t-105 307v626h129v-610q0 -145 75.5 -232.5
t199.5 -87.5q145 0 237.5 105.5t92.5 269.5v555h129z" />
    <glyph glyph-name="Uring" unicode="&#x16e;" horiz-adv-x="1331" 
d="M664 1518q-101 0 -168.5 61.5t-67.5 155.5q0 92 67.5 153.5t168.5 61.5t169 -61.5t68 -153.5q0 -94 -67.5 -155.5t-169.5 -61.5zM664 1610q59 0 96 35t37 90t-37 90t-96 35q-57 0 -94.5 -35t-37.5 -90t37.5 -90t94.5 -35zM666 -16q-242 0 -387.5 135.5t-145.5 361.5v953
h139v-965q0 -163 107.5 -260.5t286.5 -97.5q180 0 287.5 97.5t107.5 260.5v965h137v-953q0 -226 -145 -361.5t-387 -135.5z" />
    <glyph glyph-name="uring" unicode="&#x16f;" horiz-adv-x="1148" 
d="M569 1116q-101 0 -168 61.5t-67 155.5q0 92 67 153.5t168 61.5t169.5 -61.5t68.5 -153.5q0 -93 -68 -155t-170 -62zM569 1208q59 0 96 35t37 90t-37 90t-96 35q-57 0 -94 -35t-37 -90t37 -90t94 -35zM1006 1032v-1032h-129v215q-39 -114 -130.5 -172.5t-218.5 -58.5
q-175 0 -280 115t-105 307v626h129v-610q0 -145 75.5 -232.5t199.5 -87.5q145 0 237.5 105.5t92.5 269.5v555h129z" />
    <glyph glyph-name="Uhungarumlaut" unicode="&#x170;" horiz-adv-x="1331" 
d="M467 1546l188 303h158l-215 -303h-131zM717 1546l188 303h158l-215 -303h-131zM666 -16q-242 0 -387.5 135.5t-145.5 361.5v953h139v-965q0 -163 107.5 -260.5t286.5 -97.5q180 0 287.5 97.5t107.5 260.5v965h137v-953q0 -226 -145 -361.5t-387 -135.5z" />
    <glyph glyph-name="uhungarumlaut" unicode="&#x171;" horiz-adv-x="1148" 
d="M373 1145l188 303h158l-215 -303h-131zM623 1145l188 303h158l-215 -303h-131zM1006 1032v-1032h-129v215q-39 -114 -130.5 -172.5t-218.5 -58.5q-175 0 -280 115t-105 307v626h129v-610q0 -145 75.5 -232.5t199.5 -87.5q145 0 237.5 105.5t92.5 269.5v555h129z" />
    <glyph glyph-name="Uogonek" unicode="&#x172;" horiz-adv-x="1331" 
d="M1061 1434h137v-953q0 -206 -123.5 -338.5t-333.5 -154.5q-57 -49 -83.5 -83.5t-26.5 -68.5q0 -32 20 -49.5t54 -17.5q50 0 96 49l59 -92q-75 -72 -176 -72q-81 0 -127.5 43.5t-46.5 114.5q0 96 106 174q-221 14 -352 147.5t-131 347.5v953h139v-965q0 -163 107.5 -260.5
t286.5 -97.5q180 0 287.5 97.5t107.5 260.5v965z" />
    <glyph glyph-name="uogonek" unicode="&#x173;" horiz-adv-x="1148" 
d="M1047 -182l59 -92q-75 -72 -176 -72q-81 0 -127.5 43.5t-46.5 114.5q0 107 127 188h-6v215q-39 -114 -130.5 -172.5t-218.5 -58.5q-175 0 -280 115t-105 307v626h129v-610q0 -145 75.5 -232.5t199.5 -87.5q145 0 237.5 105.5t92.5 269.5v555h129v-1032h-5
q-66 -56 -95 -92t-29 -72q0 -32 19.5 -49.5t53.5 -17.5q51 0 97 49z" />
    <glyph glyph-name="Wcircumflex" unicode="&#x174;" horiz-adv-x="2025" 
d="M967 1833h104l225 -287h-129l-147 185l-150 -185h-129zM498 0l-449 1434h144l376 -1225l381 1225h125l381 -1225l379 1225h141l-444 -1434h-143l-375 1225l-377 -1225h-139z" />
    <glyph glyph-name="wcircumflex" unicode="&#x175;" horiz-adv-x="1501" 
d="M700 1432h105l225 -287h-129l-147 184l-150 -184h-129zM348 0l-307 1032h129l242 -872l274 872h131l270 -872l242 872h131l-307 -1032h-131l-272 872l-271 -872h-131z" />
    <glyph glyph-name="Ycircumflex" unicode="&#x176;" horiz-adv-x="1183" 
d="M543 1833h104l225 -287h-129l-147 185l-150 -185h-129zM522 0v602l-512 832h162l420 -699l418 699h164l-515 -832v-602h-137z" />
    <glyph glyph-name="ycircumflex" unicode="&#x177;" horiz-adv-x="964" 
d="M494 1329l-150 -184h-129l225 287h105l225 -287h-129zM934 1032l-342 -934l-174 -516h-125l127 393l-389 1057h135l315 -862l316 862h137z" />
    <glyph glyph-name="Ydieresis" unicode="&#x178;" horiz-adv-x="1183" 
d="M369 1804h127v-172h-127v172zM684 1804h127v-172h-127v172zM522 0v602l-512 832h162l420 -699l418 699h164l-515 -832v-602h-137z" />
    <glyph glyph-name="Zacute" unicode="&#x179;" horiz-adv-x="1224" 
d="M539 1546l188 303h158l-215 -303h-131zM74 0v127l907 1180h-858v127h1020v-127l-891 -1180h891v-127h-1069z" />
    <glyph glyph-name="zacute" unicode="&#x17a;" horiz-adv-x="1013" 
d="M461 1145l188 303h158l-215 -303h-131zM88 0v119l668 794h-639v119h790v-119l-661 -794h690v-119h-848z" />
    <glyph glyph-name="Zdotaccent" unicode="&#x17b;" horiz-adv-x="1224" 
d="M526 1851h156v-209h-156v209zM74 0v127l907 1180h-858v127h1020v-127l-891 -1180h891v-127h-1069z" />
    <glyph glyph-name="zdotaccent" unicode="&#x17c;" horiz-adv-x="1013" 
d="M449 1450h155v-209h-155v209zM88 0v119l668 794h-639v119h790v-119l-661 -794h690v-119h-848z" />
    <glyph glyph-name="Zcaron" unicode="&#x17d;" horiz-adv-x="1224" 
d="M551 1548l-225 287h129l149 -184l148 184h129l-226 -287h-104zM74 0v127l907 1180h-858v127h1020v-127l-891 -1180h891v-127h-1069z" />
    <glyph glyph-name="zcaron" unicode="&#x17e;" horiz-adv-x="1013" 
d="M473 1147l-225 287h129l149 -185l148 185h129l-225 -287h-105zM88 0v119l668 794h-639v119h790v-119l-661 -794h690v-119h-848z" />
    <glyph glyph-name="longs" unicode="&#x17f;" horiz-adv-x="667" 
d="M252 0v913h-221v119h221v109q0 142 81.5 225.5t221.5 83.5h154v-119h-156q-79 0 -125.5 -50.5t-46.5 -139.5v-1141h-129z" />
    <glyph glyph-name="uni018F" unicode="&#x18f;" horiz-adv-x="1509" 
d="M729 1448q144 0 271.5 -56.5t219.5 -154.5t145.5 -238t53.5 -301q0 -164 -50 -299.5t-138 -228t-210.5 -143t-266.5 -50.5q-185 0 -330.5 77.5t-230 226.5t-84.5 348q0 46 6 88h1161q-2 167 -75.5 306t-198.5 218.5t-273 79.5q-198 0 -326 -90.5t-167 -249.5h-146
q33 213 204.5 340t434.5 127zM754 104q209 0 347 131t167 357h-1016q0 -213 140 -350.5t362 -137.5z" />
    <glyph glyph-name="florin" unicode="&#x192;" horiz-adv-x="1093" 
d="M924 1333q-97 2 -156 -45t-82 -153l-22 -103h393v-119h-418l-209 -995q-40 -189 -135 -262.5t-266 -73.5h-103v119l133 -2q97 -2 156 45.5t82 153.5l213 1015h-307v119h334l16 82q40 189 135 262.5t266 73.5h103v-119z" />
    <glyph glyph-name="Aringacute" unicode="&#x1fa;" horiz-adv-x="1308" 
d="M653 1518q-101 0 -168 61.5t-67 155.5q0 76 47.5 133t124.5 76l188 301h158l-215 -303q76 -19 123 -76t47 -131q0 -93 -68 -155t-170 -62zM653 1860q-57 0 -94 -35t-37 -90t37 -90t94 -35q59 0 96 35t37 90t-37 90t-96 35zM1149 0l-158 408h-674l-159 -408h-142l578 1434
h121l577 -1434h-143zM367 535h575l-287 737z" />
    <glyph glyph-name="aringacute" unicode="&#x1fb;" horiz-adv-x="1079" 
d="M549 1116q-101 0 -168.5 61.5t-67.5 155.5q0 76 47.5 133t124.5 76l189 301h157l-215 -303q76 -19 123 -76t47 -131q0 -94 -67.5 -155.5t-169.5 -61.5zM549 1458q-57 0 -94 -35t-37 -90t37 -90t94 -35q59 0 96 35t37 90t-37 90t-96 35zM535 1049q200 0 316 -104.5
t116 -278.5v-666h-129v188q-46 -94 -146 -149t-225 -55q-166 0 -264.5 84.5t-98.5 226.5q0 148 114 234.5t306 86.5h250q64 0 64 50q0 119 -80.5 191.5t-222.5 72.5q-120 0 -209 -65t-95 -156h-129q15 147 141.5 243.5t291.5 96.5zM477 102q171 0 266 98.5t95 276.5v31h-314
q-129 0 -205.5 -57.5t-76.5 -155.5q0 -88 64 -140.5t171 -52.5z" />
    <glyph glyph-name="AEacute" unicode="&#x1fc;" horiz-adv-x="1904" 
d="M1595 1849l-215 -303h-131l189 303h157zM1153 127h657v-127h-794v408h-586l-262 -408h-152l940 1434h832v-127h-635v-500h502v-127h-502v-553zM512 535h504v782z" />
    <glyph glyph-name="aeacute" unicode="&#x1fd;" horiz-adv-x="1773" 
d="M1169 1448l-215 -303h-131l189 303h157zM1675 326h135q-25 -156 -150.5 -249t-316.5 -93q-144 0 -258 70t-180 192q-114 -262 -440 -262q-159 0 -260 87t-101 222q0 334 420 334h258q56 0 56 47v2q0 114 -89.5 184t-220.5 70q-118 0 -204.5 -65.5t-94.5 -155.5h-127
q17 146 140 243t286 97q132 0 239 -55t159 -150q64 98 167 151.5t232 53.5q212 0 342.5 -132t130.5 -346q0 -39 -4 -67h-825q6 -173 112.5 -287.5t261.5 -114.5q135 0 220 58.5t112 165.5zM1325 930q-141 0 -232 -81t-116 -226h686q-11 143 -101 225t-237 82zM475 102
q171 0 267 98.5t96 276.5v41h-314q-148 0 -215 -56.5t-67 -168.5q0 -83 66 -137t167 -54z" />
    <glyph glyph-name="uni0218" unicode="&#x218;" horiz-adv-x="1222" 
d="M618 -16q-237 0 -381 130.5t-159 350.5h137q15 -164 120 -259t283 -95q173 0 275 67t102 205q0 80 -48 136t-124 87.5t-168.5 57t-185 55.5t-168.5 70.5t-124 113.5t-48 174q0 167 133.5 270t349.5 103q209 0 345 -113.5t155 -302.5h-137q-14 132 -111.5 210.5
t-251.5 78.5q-161 0 -251.5 -66t-90.5 -180q0 -62 30 -108t80 -75t115.5 -51t137.5 -40.5t144.5 -39t138 -51.5t115.5 -72t80 -106.5t30 -150.5q0 -126 -70 -217.5t-187 -136.5t-266 -45zM428 -434l96 295h195l-184 -295h-107z" />
    <glyph glyph-name="uni0219" unicode="&#x219;" horiz-adv-x="966" 
d="M496 -16q-175 0 -283.5 91.5t-120.5 250.5h129q10 -109 81 -166.5t194 -57.5q104 0 170.5 52t66.5 125q0 68 -34 109t-88.5 57.5t-120 25.5t-131 22t-120 38.5t-88.5 84.5t-34 150q0 129 99 206t265 77q164 0 268 -85t113 -225h-129q-7 68 -53 113t-99 61.5t-108 16.5
q-100 0 -160.5 -45t-60.5 -119q0 -48 21 -79.5t56.5 -48t82 -26t97.5 -16.5t102 -16.5t97.5 -30t82 -52t56.5 -87t21 -131.5q0 -134 -102 -214.5t-270 -80.5zM291 -434l96 295h195l-185 -295h-106z" />
    <glyph glyph-name="uni021A" unicode="&#x21a;" horiz-adv-x="1126" 
d="M496 0v1307h-469v127h1073v-127h-467v-1307h-137zM383 -434l96 295h195l-185 -295h-106z" />
    <glyph glyph-name="uni021B" unicode="&#x21b;" horiz-adv-x="749" 
d="M252 1370h129v-338h328v-119h-328v-604q0 -89 46.5 -139.5t125.5 -50.5h156v-119h-154q-140 0 -221.5 83.5t-81.5 225.5v604h-221v119h221v338zM213 -434l96 295h195l-185 -295h-106z" />
    <glyph glyph-name="uni0237" unicode="&#x237;" horiz-adv-x="415" 
d="M143 1032h129v-1114q0 -175 -59 -255.5t-217 -80.5h-90v119h90q31 0 54 5t38.5 11.5t26 22.5t16.5 29t8.5 41t3 48t0.5 60v1114z" />
    <glyph glyph-name="uni0259" unicode="&#x259;" horiz-adv-x="1136" 
d="M549 1049q144 0 260 -71t181 -194.5t65 -275.5q0 -235 -135 -379.5t-353 -144.5q-212 0 -342.5 131.5t-130.5 345.5q0 39 4 67h826q-6 173 -113 287.5t-262 114.5q-135 0 -220 -58t-112 -165h-135q25 156 150.5 249t316.5 93zM567 102q140 0 231.5 81.5t116.5 226.5h-686
q11 -143 101 -225.5t237 -82.5z" />
    <glyph glyph-name="circumflex" unicode="&#x2c6;" horiz-adv-x="796" 
d="M336 1432h104l226 -287h-129l-148 184l-149 -184h-129z" />
    <glyph glyph-name="caron" unicode="&#x2c7;" horiz-adv-x="776" 
d="M266 1147l-225 287h129l149 -185l148 185h129l-225 -287h-105z" />
    <glyph glyph-name="breve" unicode="&#x2d8;" horiz-adv-x="819" 
d="M322 1151q-121 0 -201 79.5t-80 203.5h115q0 -74 47 -122t119 -48q71 0 119 48.5t48 121.5h113q0 -123 -80 -203t-200 -80z" />
    <glyph glyph-name="dotaccent" unicode="&#x2d9;" horiz-adv-x="397" 
d="M41 1450h156v-209h-156v209z" />
    <glyph glyph-name="ring" unicode="&#x2da;" horiz-adv-x="614" 
d="M276 1116q-101 0 -168 61.5t-67 155.5q0 92 67 153.5t168 61.5t169.5 -61.5t68.5 -153.5q0 -93 -68 -155t-170 -62zM276 1208q59 0 96.5 35t37.5 90t-37.5 90t-96.5 35q-57 0 -94 -35t-37 -90t37 -90t94 -35z" />
    <glyph glyph-name="ogonek" unicode="&#x2db;" horiz-adv-x="471" 
d="M391 -274q-75 -72 -176 -72q-81 0 -127.5 43.5t-46.5 114.5q0 107 127 188h119q-67 -57 -96 -92.5t-29 -71.5q0 -32 20 -49.5t54 -17.5q50 0 96 49z" />
    <glyph glyph-name="tilde" unicode="&#x2dc;" horiz-adv-x="782" 
d="M481 1210q-52 0 -98.5 21t-83.5 42t-66 21q-31 0 -53 -19.5t-28 -51.5h-111q9 86 57.5 138t120.5 52q53 0 99.5 -21t83 -42t65.5 -21t51.5 20t30.5 52h110q-9 -87 -57 -139t-121 -52z" />
    <glyph glyph-name="hungarumlaut" unicode="&#x2dd;" horiz-adv-x="888" 
d="M41 1145l188 303h158l-215 -303h-131zM291 1145l188 303h158l-215 -303h-131z" />
    <glyph glyph-name="gravecomb" unicode="&#x300;" horiz-adv-x="0" 
d="M-25 1145h-131l-215 303h158z" />
    <glyph glyph-name="acutecomb" unicode="&#x301;" horiz-adv-x="0" 
d="M-365 1145l189 303h158l-215 -303h-132z" />
    <glyph glyph-name="uni0302" unicode="&#x302;" horiz-adv-x="0" 
d="M-432 1432h104l226 -287h-129l-148 184l-149 -184h-129z" />
    <glyph glyph-name="tildecomb" unicode="&#x303;" horiz-adv-x="0" 
d="M-240 1210q-52 0 -98.5 21t-83 42t-65.5 21q-31 0 -53.5 -19.5t-28.5 -51.5h-111q9 86 57.5 138t120.5 52q53 0 99.5 -21t83 -42t65.5 -21t51.5 20t30.5 52h111q-9 -87 -57.5 -139t-121.5 -52z" />
    <glyph glyph-name="uni0304" unicode="&#x304;" horiz-adv-x="0" 
d="M-637 1217v114h535v-114h-535z" />
    <glyph glyph-name="uni0306" unicode="&#x306;" horiz-adv-x="0" 
d="M-436 1151q-121 0 -201 79.5t-80 203.5h115q0 -74 47 -122t119 -48q71 0 119.5 48.5t48.5 121.5h112q0 -123 -80 -203t-200 -80z" />
    <glyph glyph-name="uni0307" unicode="&#x307;" horiz-adv-x="0" 
d="M-295 1450h156v-209h-156v209z" />
    <glyph glyph-name="uni0308" unicode="&#x308;" horiz-adv-x="0" 
d="M-627 1403h127v-172h-127v172zM-311 1403h127v-172h-127v172z" />
    <glyph glyph-name="uni030A" unicode="&#x30a;" horiz-adv-x="0" 
d="M-276 1116q-101 0 -168.5 61.5t-67.5 155.5q0 92 67.5 153.5t168.5 61.5t169 -61.5t68 -153.5q0 -94 -67.5 -155.5t-169.5 -61.5zM-276 1208q59 0 96 35t37 90t-37 90t-96 35q-57 0 -94.5 -35t-37.5 -90t37.5 -90t94.5 -35z" />
    <glyph glyph-name="uni030B" unicode="&#x30b;" horiz-adv-x="0" 
d="M-584 1145l189 303h157l-215 -303h-131zM-334 1145l189 303h157l-215 -303h-131z" />
    <glyph glyph-name="uni030C" unicode="&#x30c;" horiz-adv-x="0" 
d="M-436 1147l-226 287h130l149 -185l147 185h130l-226 -287h-104z" />
    <glyph glyph-name="uni0312" unicode="&#x312;" horiz-adv-x="0" 
d="M-109 1450l-61 -303h-133l115 303h79z" />
    <glyph glyph-name="uni0326" unicode="&#x326;" horiz-adv-x="0" 
d="M-393 -434l96 295h195l-185 -295h-106z" />
    <glyph glyph-name="uni0327" unicode="&#x327;" horiz-adv-x="0" 
d="M-164 -418h-186l213 295h117z" />
    <glyph glyph-name="uni0328" unicode="&#x328;" horiz-adv-x="0" 
d="M-78 -274q-75 -72 -176 -72q-81 0 -127.5 43.5t-46.5 114.5q0 107 127 188h119q-67 -57 -96 -92.5t-29 -71.5q0 -32 20 -49.5t54 -17.5q50 0 96 49z" />
    <glyph glyph-name="uni0394" unicode="&#x394;" horiz-adv-x="1316" 
d="M719 1434l577 -1434h-1276l578 1434h121zM213 127h891l-445 1124z" />
    <glyph glyph-name="uni03A9" unicode="&#x3a9;" horiz-adv-x="1505" 
d="M1419 764q0 -189 -97 -362t-255 -275h317v-127h-477v156q172 92 270.5 255t98.5 353q0 161 -67.5 290.5t-187.5 203t-269 73.5q-226 0 -375.5 -161.5t-149.5 -405.5q0 -188 99.5 -351t271.5 -257v-156h-477v127h317q-159 103 -256.5 276t-97.5 361q0 194 87.5 351.5
t240.5 246t340 88.5q140 0 263.5 -52t212.5 -142.5t140 -218t51 -273.5z" />
    <glyph glyph-name="uni03BC" unicode="&#x3bc;" horiz-adv-x="1150" 
d="M877 1032h129v-1032h-129v215q-39 -114 -130.5 -172.5t-218.5 -58.5q-150 0 -256 116v-518h-129v1450h129v-610q0 -145 75.5 -232.5t199.5 -87.5q145 0 237.5 105.5t92.5 269.5v555z" />
    <glyph glyph-name="pi" unicode="&#x3c0;" horiz-adv-x="1243" 
d="M287 0v918h-199v114h1067v-114h-201v-918h-129v918h-409v-918h-129z" />
    <glyph glyph-name="Wgrave" unicode="&#x1e80;" horiz-adv-x="2025" 
d="M1081 1546h-131l-215 303h158zM498 0l-449 1434h144l376 -1225l381 1225h125l381 -1225l379 1225h141l-444 -1434h-143l-375 1225l-377 -1225h-139z" />
    <glyph glyph-name="wgrave" unicode="&#x1e81;" horiz-adv-x="1501" 
d="M815 1145h-131l-215 303h158zM348 0l-307 1032h129l242 -872l274 872h131l270 -872l242 872h131l-307 -1032h-131l-272 872l-271 -872h-131z" />
    <glyph glyph-name="Wacute" unicode="&#x1e82;" horiz-adv-x="2025" 
d="M950 1546l189 303h157l-215 -303h-131zM498 0l-449 1434h144l376 -1225l381 1225h125l381 -1225l379 1225h141l-444 -1434h-143l-375 1225l-377 -1225h-139z" />
    <glyph glyph-name="wacute" unicode="&#x1e83;" horiz-adv-x="1501" 
d="M684 1145l188 303h158l-215 -303h-131zM348 0l-307 1032h129l242 -872l274 872h131l270 -872l242 872h131l-307 -1032h-131l-272 872l-271 -872h-131z" />
    <glyph glyph-name="Wdieresis" unicode="&#x1e84;" horiz-adv-x="2025" 
d="M793 1804h127v-172h-127v172zM1108 1804h127v-172h-127v172zM498 0l-449 1434h144l376 -1225l381 1225h125l381 -1225l379 1225h141l-444 -1434h-143l-375 1225l-377 -1225h-139z" />
    <glyph glyph-name="wdieresis" unicode="&#x1e85;" horiz-adv-x="1501" 
d="M526 1403h127v-172h-127v172zM842 1403h127v-172h-127v172zM348 0l-307 1032h129l242 -872l274 872h131l270 -872l242 872h131l-307 -1032h-131l-272 872l-271 -872h-131z" />
    <glyph glyph-name="uni1E9E" unicode="&#x1e9e;" horiz-adv-x="1247" 
d="M821 815q180 -44 258 -142.5t78 -258.5q0 -191 -120 -302.5t-337 -111.5h-213v127h183q167 0 254.5 73.5t87.5 213.5t-87.5 213t-254.5 73h-29v127l330 244q-12 118 -95.5 185t-224.5 67q-159 0 -253.5 -108.5t-94.5 -290.5v-924h-137v700h-139v127h139v97
q0 242 129.5 384t353.5 142q212 0 339.5 -117t127.5 -295z" />
    <glyph glyph-name="Ygrave" unicode="&#x1ef2;" horiz-adv-x="1183" 
d="M657 1546h-131l-215 303h158zM522 0v602l-512 832h162l420 -699l418 699h164l-515 -832v-602h-137z" />
    <glyph glyph-name="ygrave" unicode="&#x1ef3;" horiz-adv-x="964" 
d="M555 1145h-131l-215 303h158zM934 1032l-342 -934l-174 -516h-125l127 393l-389 1057h135l315 -862l316 862h137z" />
    <glyph glyph-name="endash" unicode="&#x2013;" horiz-adv-x="1136" 
d="M111 592v115h907v-115h-907z" />
    <glyph glyph-name="emdash" unicode="&#x2014;" horiz-adv-x="1677" 
d="M156 592v115h1366v-115h-1366z" />
    <glyph glyph-name="quoteleft" unicode="&#x2018;" horiz-adv-x="450" 
d="M369 1331h-27q-40 0 -63 -33t-23 -100v-162h-129v162q0 122 57.5 187t157.5 65h27v-119z" />
    <glyph glyph-name="quoteright" unicode="&#x2019;" horiz-adv-x="518" 
d="M131 1155h27q40 0 63 33t23 100v162h129v-162q0 -122 -57.5 -187t-157.5 -65h-27v119z" />
    <glyph glyph-name="quotesinglbase" unicode="&#x201a;" horiz-adv-x="452" 
d="M119 -113h26q40 0 63 33t23 100v162h129v-162q0 -122 -57.5 -186.5t-157.5 -64.5h-26v118z" />
    <glyph glyph-name="quotedblleft" unicode="&#x201c;" horiz-adv-x="712" 
d="M334 1331h-27q-40 0 -63 -33t-23 -100v-162h-129v162q0 122 57.5 187t157.5 65h27v-119zM614 1331h-26q-40 0 -63 -33t-23 -100v-162h-129v162q0 122 57.5 187t157.5 65h26v-119z" />
    <glyph glyph-name="quotedblright" unicode="&#x201d;" horiz-adv-x="712" 
d="M92 1155h27q40 0 63 33t23 100v162h129v-162q0 -122 -57.5 -187t-157.5 -65h-27v119zM373 1155h26q40 0 63 33t23 100v162h129v-162q0 -122 -57.5 -187t-157.5 -65h-26v119z" />
    <glyph glyph-name="quotedblbase" unicode="&#x201e;" horiz-adv-x="714" 
d="M92 53h27q40 0 63 33t23 100v162h129v-162q0 -122 -57.5 -187t-157.5 -65h-27v119zM373 53h26q40 0 63 33t23 100v162h129v-162q0 -122 -57.5 -187t-157.5 -65h-26v119z" />
    <glyph glyph-name="dagger" unicode="&#x2020;" horiz-adv-x="925" 
d="M401 -102v1020h-301v114h301v504h125v-504h299v-114h-299v-1020h-125z" />
    <glyph glyph-name="daggerdbl" unicode="&#x2021;" horiz-adv-x="925" 
d="M825 918h-299v-803h299v-115h-299v-504h-125v504h-301v115h301v803h-301v114h301v504h125v-504h299v-114z" />
    <glyph glyph-name="bullet" unicode="&#x2022;" horiz-adv-x="503" 
d="M252 387q-69 0 -116.5 48t-47.5 116t47.5 116t116.5 48q68 0 116 -48.5t48 -115.5t-48 -115.5t-116 -48.5z" />
    <glyph glyph-name="ellipsis" unicode="&#x2026;" horiz-adv-x="1456" 
d="M174 164h145v-164h-145v164zM655 164h146v-164h-146v164zM1137 164h145v-164h-145v164z" />
    <glyph glyph-name="perthousand" unicode="&#x2030;" horiz-adv-x="2244" 
d="M412 795q-133 0 -221.5 94.5t-88.5 232.5t89 233t221 95t219.5 -95t87.5 -233t-87.5 -232.5t-219.5 -94.5zM176 0l1041 1434h124l-1040 -1434h-125zM412 897q89 0 141.5 63.5t52.5 161.5t-52.5 162t-141.5 64t-143 -64.5t-54 -161.5t54 -161t143 -64zM1112 -16
q-132 0 -220.5 94.5t-88.5 232.5t88.5 233t220.5 95t219.5 -95t87.5 -233t-87.5 -232.5t-219.5 -94.5zM1835 -16q-132 0 -220.5 94.5t-88.5 232.5t88.5 233t220.5 95t219.5 -95t87.5 -233t-87.5 -232.5t-219.5 -94.5zM1112 86q89 0 142 63.5t53 161.5t-53 162t-142 64
t-143 -64.5t-54 -161.5t54 -161t143 -64zM1835 86q89 0 142 63.5t53 161.5t-53 162t-142 64t-143 -64.5t-54 -161.5t54 -161t143 -64z" />
    <glyph glyph-name="guilsinglleft" unicode="&#x2039;" horiz-adv-x="751" 
d="M659 193l-581 399v86l581 399v-139l-446 -303l446 -303v-139z" />
    <glyph glyph-name="guilsinglright" unicode="&#x203a;" horiz-adv-x="720" 
d="M121 193v139l446 303l-446 303v139l581 -399v-86z" />
    <glyph glyph-name="fraction" unicode="&#x2044;" horiz-adv-x="550" 
d="M-307 0l1040 1434h125l-1040 -1434h-125z" />
    <glyph glyph-name="uni2070" unicode="&#x2070;" horiz-adv-x="751" 
d="M354 645q-153 0 -224 102.5t-71 303.5v69q0 201 71 303.5t224 102.5h43q154 0 224.5 -102t70.5 -304v-69q0 -202 -70.5 -304t-224.5 -102h-43zM358 743h37q98 0 143.5 72.5t45.5 220.5v99q0 148 -45.5 220t-143.5 72h-37q-99 0 -144.5 -72t-45.5 -220v-99
q0 -148 45.5 -220.5t144.5 -72.5z" />
    <glyph glyph-name="uni2074" unicode="&#x2074;" horiz-adv-x="796" 
d="M500 655v213h-459v97l442 551h127v-551h131v-97h-131v-213h-110zM156 965h344v430z" />
    <glyph glyph-name="uni2075" unicode="&#x2075;" horiz-adv-x="733" 
d="M360 645q-116 0 -197.5 73t-92.5 181h102q9 -74 59 -116t129 -42q94 0 150.5 52.5t56.5 142.5q0 92 -56.5 147.5t-150.5 55.5q-68 0 -117 -26.5t-69 -74.5h-86l66 478h460v-99h-378l-37 -254q31 28 79 47t93 19q136 0 220.5 -81t84.5 -212q0 -130 -88 -210.5t-228 -80.5z
" />
    <glyph glyph-name="uni2076" unicode="&#x2076;" horiz-adv-x="772" 
d="M395 1231q133 0 218 -83t85 -210t-87.5 -210t-221.5 -83q-147 0 -233 107.5t-86 287.5q0 234 93.5 360t242.5 126q118 0 198 -63.5t98 -166.5h-106q-14 62 -64 99t-124 37q-102 0 -167 -94.5t-71 -239.5q28 58 91 95.5t134 37.5zM389 739q89 0 146 56.5t57 144.5
q0 86 -57 141.5t-146 55.5t-145 -55t-56 -142q0 -88 56 -144.5t145 -56.5z" />
    <glyph glyph-name="uni2077" unicode="&#x2077;" horiz-adv-x="641" 
d="M219 655q0 115 26.5 216t106.5 229l197 317h-498v99h621v-91l-234 -387q-66 -110 -88 -197t-22 -186h-109z" />
    <glyph glyph-name="uni2078" unicode="&#x2078;" horiz-adv-x="751" 
d="M377 645q-131 0 -219 68t-88 186q0 77 44 136t113 83q-54 26 -88.5 73t-34.5 107q0 100 76 164t197 64t196.5 -64t75.5 -164q0 -60 -34.5 -107t-90.5 -73q70 -24 114 -83t44 -136q0 -117 -87.5 -185.5t-217.5 -68.5zM377 1159q75 0 120.5 37t45.5 100t-45.5 99.5
t-120.5 36.5q-77 0 -121.5 -36.5t-44.5 -99.5t45 -100t121 -37zM377 741q90 0 143 43t53 117q0 75 -53 118.5t-143 43.5t-144.5 -44t-54.5 -118t54.5 -117t144.5 -43z" />
    <glyph glyph-name="uni2079" unicode="&#x2079;" horiz-adv-x="774" 
d="M379 940q-133 0 -218 83t-85 210t87.5 210t221.5 83q147 0 233.5 -108t86.5 -288q0 -234 -93.5 -359.5t-242.5 -125.5q-119 0 -199.5 63t-97.5 166h106q14 -62 64.5 -98.5t124.5 -36.5q102 0 166.5 94.5t70.5 239.5q-28 -58 -91 -95.5t-134 -37.5zM385 1432
q-89 0 -146 -56.5t-57 -144.5q0 -86 57 -141.5t146 -55.5t145 55t56 142q0 88 -56 144.5t-145 56.5z" />
    <glyph glyph-name="Euro" unicode="&#x20ac;" horiz-adv-x="1277" 
d="M1030 313h146q-33 -157 -135.5 -243t-272.5 -86h-68q-221 0 -340.5 128t-146.5 382h-172v127h164v34v123v53h-164v127h174q30 245 149 368.5t336 123.5h68q168 0 269 -84.5t134 -237.5h-145q-24 90 -90 142.5t-168 52.5h-66q-298 0 -348 -365h537v-127h-549v-53v-123v-34
h549v-127h-541q25 -192 111.5 -287.5t240.5 -95.5h66q104 0 171 54t91 148z" />
    <glyph glyph-name="trademark" unicode="&#x2122;" horiz-adv-x="1722" 
d="M303 614v729h-256v91h615v-91h-256v-729h-103zM834 614v820h110l266 -578l267 578h110v-820h-104v605l-244 -529h-57l-244 529v-605h-104z" />
    <glyph glyph-name="uni2126" unicode="&#x2126;" horiz-adv-x="1505" 
d="M1419 764q0 -189 -97 -362t-255 -275h317v-127h-477v156q172 92 270.5 255t98.5 353q0 161 -67.5 290.5t-187.5 203t-269 73.5q-226 0 -375.5 -161.5t-149.5 -405.5q0 -188 99.5 -351t271.5 -257v-156h-477v127h317q-159 103 -256.5 276t-97.5 361q0 194 87.5 351.5
t240.5 246t340 88.5q140 0 263.5 -52t212.5 -142.5t140 -218t51 -273.5z" />
    <glyph glyph-name="uni2153" unicode="&#x2153;" horiz-adv-x="1671" 
d="M336 1434v-861h-109v678q-21 -30 -80 -30h-79v98h69q44 0 66 25t26 90h107zM160 0l1040 1434h125l-1040 -1434h-125zM1315 -10q-133 0 -221 78t-88 202h106q0 -82 57.5 -132t145.5 -50q90 0 141 41.5t51 116.5q0 73 -51 112t-141 39h-70v97h68q74 0 118 41t44 106
q0 62 -45.5 97.5t-122.5 35.5q-73 0 -117.5 -42t-48.5 -116h-103q4 115 79.5 184.5t191.5 69.5q120 0 198 -64.5t78 -162.5q0 -61 -35 -112.5t-88 -77.5q71 -26 114.5 -80t43.5 -129q0 -119 -88.5 -186.5t-216.5 -67.5z" />
    <glyph glyph-name="uni2154" unicode="&#x2154;" horiz-adv-x="1933" 
d="M76 1153q-4 133 73.5 212t210.5 79q124 0 202.5 -71t78.5 -187q0 -173 -201 -273l-123 -61q-60 -31 -102.5 -77.5t-42.5 -102.5h473v-99h-579v78q0 103 62 175.5t146 115.5l132 68q124 65 124 178q0 71 -48 115.5t-122 44.5q-81 0 -128 -53.5t-44 -141.5h-112zM422 0
l1040 1434h125l-1040 -1434h-125zM1577 -10q-133 0 -221 78t-88 202h106q0 -82 57.5 -132t145.5 -50q90 0 141 41.5t51 116.5q0 73 -51 112t-141 39h-70v97h68q74 0 118 41t44 106q0 62 -45.5 97.5t-122.5 35.5q-73 0 -117.5 -42t-48.5 -116h-103q4 115 79.5 184.5
t191.5 69.5q120 0 198 -64.5t78 -162.5q0 -61 -35 -112.5t-88 -77.5q71 -26 114.5 -80t43.5 -129q0 -119 -88.5 -186.5t-216.5 -67.5z" />
    <glyph glyph-name="oneeighth" unicode="&#x215b;" horiz-adv-x="1687" 
d="M336 1434v-861h-109v678q-21 -30 -80 -30h-79v98h69q44 0 66 25t26 90h107zM160 0l1040 1434h125l-1040 -1434h-125zM1313 -10q-131 0 -219 68t-88 186q0 77 44 136t113 83q-54 26 -88.5 73t-34.5 107q0 100 76 163.5t197 63.5t196.5 -63.5t75.5 -163.5q0 -60 -34.5 -107
t-90.5 -73q70 -24 114 -83t44 -136q0 -117 -87.5 -185.5t-217.5 -68.5zM1313 504q75 0 120.5 37t45.5 100t-45 99t-121 36q-77 0 -121.5 -36t-44.5 -99t45 -100t121 -37zM1313 86q90 0 143 43t53 117q0 75 -53 118.5t-143 43.5t-144.5 -44t-54.5 -118t54.5 -117t144.5 -43z
" />
    <glyph glyph-name="threeeighths" unicode="&#x215c;" horiz-adv-x="1955" 
d="M379 563q-132 0 -220.5 78.5t-88.5 202.5h106q0 -82 57.5 -132t145.5 -50q90 0 141 41t51 116q0 73 -51 112.5t-141 39.5h-70v96h68q74 0 118 41t44 106q0 63 -45.5 98.5t-122.5 35.5q-73 0 -117.5 -42t-48.5 -116h-103q4 115 79.5 184.5t191.5 69.5q120 0 198 -64.5
t78 -162.5q0 -61 -35 -113t-88 -78q71 -26 114.5 -80t43.5 -129q0 -119 -88.5 -186.5t-216.5 -67.5zM428 0l1040 1434h125l-1040 -1434h-125zM1581 -10q-131 0 -219 68t-88 186q0 77 44.5 136t113.5 83q-54 26 -88.5 73t-34.5 107q0 100 75.5 163.5t196.5 63.5t196.5 -63.5
t75.5 -163.5q0 -60 -34.5 -107t-89.5 -73q70 -24 113.5 -83t43.5 -136q0 -117 -87.5 -185.5t-217.5 -68.5zM1581 504q75 0 120.5 37t45.5 100t-45 99t-121 36q-77 0 -121.5 -36t-44.5 -99t45 -100t121 -37zM1581 86q90 0 143.5 43t53.5 117q0 75 -53.5 118.5t-143.5 43.5
t-144.5 -44t-54.5 -118t54.5 -117t144.5 -43z" />
    <glyph glyph-name="fiveeighths" unicode="&#x215d;" horiz-adv-x="1953" 
d="M360 563q-116 0 -197.5 73t-92.5 181h102q9 -74 59 -116t129 -42q94 0 150.5 52.5t56.5 142.5q0 92 -56.5 147.5t-150.5 55.5q-68 0 -117 -26.5t-69 -74.5h-86l66 478h460v-99h-378l-37 -254q31 28 79 47t93 19q136 0 220.5 -81t84.5 -212q0 -130 -88 -210.5t-228 -80.5z
M426 0l1040 1434h125l-1040 -1434h-125zM1579 -10q-131 0 -219 68t-88 186q0 77 44.5 136t113.5 83q-54 26 -88.5 73t-34.5 107q0 100 75.5 163.5t196.5 63.5t196.5 -63.5t75.5 -163.5q0 -60 -34.5 -107t-90.5 -73q70 -24 114 -83t44 -136q0 -117 -87.5 -185.5t-217.5 -68.5
zM1579 504q75 0 120.5 37t45.5 100t-45 99t-121 36q-77 0 -121.5 -36t-44.5 -99t45 -100t121 -37zM1579 86q90 0 143.5 43t53.5 117q0 75 -53.5 118.5t-143.5 43.5t-144.5 -44t-54.5 -118t54.5 -117t144.5 -43z" />
    <glyph glyph-name="seveneighths" unicode="&#x215e;" horiz-adv-x="1759" 
d="M219 573q0 115 26.5 216t106.5 229l197 317h-498v99h621v-91l-234 -387q-66 -110 -88 -197t-22 -186h-109zM231 0l1041 1434h125l-1041 -1434h-125zM1384 -10q-131 0 -219 68t-88 186q0 77 44.5 136t113.5 83q-54 26 -88.5 73t-34.5 107q0 100 75.5 163.5t196.5 63.5
t197 -63.5t76 -163.5q0 -60 -34.5 -107t-90.5 -73q70 -24 114 -83t44 -136q0 -117 -88 -185.5t-218 -68.5zM1384 504q75 0 120.5 37t45.5 100t-45 99t-121 36q-77 0 -121 -36t-44 -99t44.5 -100t120.5 -37zM1384 86q90 0 143.5 43t53.5 117q0 75 -53.5 118.5t-143.5 43.5
t-144 -43.5t-54 -118.5q0 -74 54 -117t144 -43z" />
    <glyph glyph-name="arrowleft" unicode="&#x2190;" horiz-adv-x="1445" 
d="M1364 584v-115h-1069l414 -414l-78 -78l-549 549l551 551l78 -80l-416 -413h1069z" />
    <glyph glyph-name="arrowup" unicode="&#x2191;" horiz-adv-x="1263" 
d="M1182 764l-78 -78l-414 414v-1069h-115v1069l-413 -416l-80 78l551 551z" />
    <glyph glyph-name="arrowright" unicode="&#x2192;" horiz-adv-x="1445" 
d="M813 1077l551 -551l-549 -549l-78 78l414 414h-1069v115h1069l-416 413z" />
    <glyph glyph-name="arrowdown" unicode="&#x2193;" horiz-adv-x="1263" 
d="M1102 631l80 -78l-551 -551l-549 549l78 78l413 -414v1069h115v-1069z" />
    <glyph glyph-name="arrowboth" unicode="&#x2194;" horiz-adv-x="2088" 
d="M1456 1077l551 -551l-549 -549l-78 78l414 414h-1499l414 -414l-78 -78l-549 549l551 551l78 -80l-416 -413h1499l-416 413z" />
    <glyph glyph-name="arrowupdn" unicode="&#x2195;" horiz-adv-x="1263" 
d="M688 -123l414 416l80 -78l-551 -551l-549 549l78 78l413 -414v1499l-413 -413l-78 77l549 549l551 -551l-80 -77l-414 415v-1499z" />
    <glyph glyph-name="uni2196" unicode="&#x2196;" horiz-adv-x="1177" 
d="M1096 133l-80 -82l-756 754v-582h-110v776h778v-112l-588 2z" />
    <glyph glyph-name="uni2197" unicode="&#x2197;" horiz-adv-x="1163" 
d="M236 999h778v-776h-111v582l-756 -754l-79 82l755 756l-587 -2v112z" />
    <glyph glyph-name="uni2198" unicode="&#x2198;" horiz-adv-x="1179" 
d="M918 793h112v-779h-776v111h582l-754 756l82 80l756 -756z" />
    <glyph glyph-name="uni2199" unicode="&#x2199;" horiz-adv-x="1179" 
d="M1096 868l-754 -755h582v-111h-777v778h113l-2 -587l756 755z" />
    <glyph glyph-name="partialdiff" unicode="&#x2202;" horiz-adv-x="1208" 
d="M631 -16q-207 0 -353.5 142.5t-146.5 344.5q0 131 67 242t182 176t251 65q129 0 244.5 -68t160.5 -173q0 131 -39.5 244.5t-105 191t-152.5 126.5t-178.5 60t-187.5 -17t-176 -97l-76 106q64 50 142.5 81.5t163 42t171.5 -4.5t167.5 -51.5t151 -104.5t123 -158.5t83 -219
t30.5 -281.5q0 -297 -142.5 -472t-379.5 -175zM631 111q164 0 270.5 102t106.5 260q0 157 -106.5 257.5t-270.5 100.5t-269.5 -100.5t-105.5 -257.5q0 -158 105.5 -260t269.5 -102z" />
    <glyph glyph-name="uni2206" unicode="&#x2206;" horiz-adv-x="1316" 
d="M719 1434l577 -1434h-1276l578 1434h121zM213 127h891l-445 1124z" />
    <glyph glyph-name="product" unicode="&#x220f;" horiz-adv-x="1292" 
d="M156 0v1434h981v-1434h-148v1307h-690v-1307h-143z" />
    <glyph glyph-name="summation" unicode="&#x2211;" horiz-adv-x="1118" 
d="M92 0v127l510 590l-510 590v127h924v-127h-758l467 -533v-115l-467 -532h758v-127h-924z" />
    <glyph glyph-name="minus" unicode="&#x2212;" horiz-adv-x="1218" 
d="M156 592v115h907v-115h-907z" />
    <glyph glyph-name="radical" unicode="&#x221a;" horiz-adv-x="1097" 
d="M479 0l-211 670h-207v127h297l193 -633l395 1270h141l-454 -1434h-154z" />
    <glyph glyph-name="infinity" unicode="&#x221e;" horiz-adv-x="1867" 
d="M492 344q-180 0 -290 108.5t-110 282.5t110 282.5t290 108.5q134 0 238.5 -68.5t203.5 -203.5q98 134 203.5 203t238.5 69q180 0 290 -108.5t110 -282.5t-110 -282.5t-290 -108.5q-133 0 -238.5 69t-203.5 203q-99 -135 -203.5 -203.5t-238.5 -68.5zM520 459
q102 0 194 70t165 206q-73 136 -165 206.5t-194 70.5q-135 0 -216 -74.5t-81 -202.5t81 -202t216 -74zM1348 459q136 0 216.5 74t80.5 202t-80.5 202.5t-216.5 74.5q-100 0 -192 -70.5t-167 -206.5q74 -136 166.5 -206t192.5 -70z" />
    <glyph glyph-name="integral" unicode="&#x222b;" horiz-adv-x="770" 
d="M555 1450h154v-119h-156q-79 0 -125.5 -50.5t-46.5 -139.5v-1250q0 -142 -81.5 -225.5t-221.5 -83.5h-154v119h156q79 0 125.5 50.5t46.5 139.5v1250q0 142 81.5 225.5t221.5 83.5z" />
    <glyph glyph-name="approxequal" unicode="&#x2248;" horiz-adv-x="1171" 
d="M795 762q-57 0 -111 17t-90.5 38t-89.5 38t-109 17q-118 0 -200 -92l-86 80q56 71 125.5 115.5t142.5 44.5q58 0 112 -17.5t89.5 -38t88.5 -38t109 -17.5q121 0 203 92l84 -79q-56 -71 -125.5 -115.5t-142.5 -44.5zM795 352q-58 0 -112 17.5t-90 38t-89 38t-109 17.5
q-118 0 -200 -92l-86 80q56 70 125.5 114.5t142.5 44.5q58 0 112 -17t89.5 -38t88.5 -38t109 -17q117 0 203 92l84 -80q-56 -71 -125.5 -115.5t-142.5 -44.5z" />
    <glyph glyph-name="notequal" unicode="&#x2260;" horiz-adv-x="1167" 
d="M1063 780h-289l-213 -344h502v-114h-574l-81 -134h-113l82 134h-221v114h293l213 344h-506v115h575l82 131h113l-82 -131h219v-115z" />
    <glyph glyph-name="lessequal" unicode="&#x2264;" horiz-adv-x="921" 
d="M827 197l-739 368v140l739 368v-127l-637 -311l637 -311v-127zM823 0h-725v115h725v-115z" />
    <glyph glyph-name="greaterequal" unicode="&#x2265;" horiz-adv-x="921" 
d="M94 197v127l637 311l-637 311v127l740 -368v-140zM98 0v115h725v-115h-725z" />
    <glyph glyph-name="lozenge" unicode="&#x25ca;" horiz-adv-x="1142" 
d="M506 0l-402 717l402 717h131l401 -717l-401 -717h-131zM571 131l332 586l-332 586l-331 -586z" />
    <glyph glyph-name="uni25CF" unicode="&#x25cf;" horiz-adv-x="1646" 
d="M90 717q0 200 98 368.5t266.5 266.5t368.5 98t368.5 -98t266.5 -266.5t98 -368.5q0 -201 -98 -369.5t-266.5 -266t-368.5 -97.5t-368.5 97.5t-266.5 266t-98 369.5z" />
    <glyph glyph-name="uni2669" unicode="&#x2669;" horiz-adv-x="940" 
d="M702 1434h136v-1434q0 -154 -107.5 -261.5t-259.5 -107.5q-154 0 -261.5 107.5t-107.5 261.5q0 152 107.5 259.5t261.5 107.5q130 0 231 -82v1149z" />
    <glyph glyph-name="musicalnote" unicode="&#x266a;" horiz-adv-x="1513" 
d="M1034 1434q164 0 270.5 -106.5t106.5 -272.5v-109h-119v109q0 109 -73 179.5t-185 70.5h-196v-1305q0 -154 -107.5 -261.5t-259.5 -107.5q-154 0 -261.5 107.5t-107.5 261.5q0 152 107.5 259.5t261.5 107.5q130 0 231 -82v1149h332z" />
    <glyph glyph-name="musicalnotedbl" unicode="&#x266b;" horiz-adv-x="1955" 
d="M1853 1434v-1434q0 -154 -107 -261.5t-259 -107.5q-154 0 -261.5 107.5t-107.5 261.5q0 152 107.5 259.5t261.5 107.5q130 0 231 -82v1020h-880v-1305q0 -154 -107.5 -261.5t-259.5 -107.5q-154 0 -261.5 107.5t-107.5 261.5q0 152 107.5 259.5t261.5 107.5
q130 0 231 -82v1149h1151z" />
    <glyph glyph-name="A.inferior" horiz-adv-x="798" 
d="M678 0l-88 229h-381l-88 -229h-113l342 860h99l342 -860h-113zM246 326h307l-154 401z" />
    <glyph glyph-name="B.inferior" horiz-adv-x="751" 
d="M90 0v860h309q123 0 194 -58.5t71 -162.5q0 -56 -34 -101.5t-81 -66.5q151 -53 151 -221q0 -116 -74.5 -183t-205.5 -67h-330zM199 506h198q158 0 158 129q0 131 -158 131h-198v-260zM199 98h202q94 0 142.5 39.5t48.5 116.5q0 75 -49 115.5t-142 40.5h-202v-312z" />
    <glyph glyph-name="C.inferior" horiz-adv-x="872" 
d="M467 -10q-83 0 -157 27.5t-132.5 80.5t-92.5 138.5t-34 193.5t34.5 193.5t93 138.5t132.5 80.5t156 27.5q143 0 244 -78t120 -202h-114q-15 83 -83 132.5t-167 49.5q-137 0 -220 -90t-83 -252t83 -252t220 -90q101 0 170 49.5t82 132.5h112q-15 -124 -116.5 -202
t-247.5 -78z" />
    <glyph glyph-name="D.inferior" horiz-adv-x="827" 
d="M90 0v860h256q186 0 308 -115t122 -315t-122 -315t-308 -115h-256zM199 98h143q136 0 228 83t92 249t-92 249t-228 83h-143v-664z" />
    <glyph glyph-name="E.inferior" horiz-adv-x="696" 
d="M90 0v860h541v-98h-432v-268h352v-99h-352v-297h444v-98h-553z" />
    <glyph glyph-name="F.inferior" horiz-adv-x="688" 
d="M90 0v860h549v-98h-440v-279h360v-98h-360v-385h-109z" />
    <glyph glyph-name="G.inferior" horiz-adv-x="899" 
d="M465 -10q-81 0 -154.5 28t-132 81.5t-93 139t-34.5 191.5t34.5 191.5t93 139t132.5 81.5t156 28q149 0 253.5 -79.5t119.5 -202.5h-115q-15 81 -87 132.5t-171 51.5q-136 0 -220.5 -90t-84.5 -252t84.5 -253t220.5 -91q108 0 186 56t78 145q0 29 -18 46t-49 17h-193v92
h215q54 0 103 -39.5t49 -105.5v-297h-101v150q-31 -72 -104.5 -116t-167.5 -44z" />
    <glyph glyph-name="H.inferior" horiz-adv-x="847" 
d="M649 860h109v-860h-109v395h-450v-395h-109v860h109v-368h450v368z" />
    <glyph glyph-name="I.inferior" horiz-adv-x="288" 
d="M90 0v860h109v-860h-109z" />
    <glyph glyph-name="J.inferior" horiz-adv-x="395" 
d="M23 98h104q82 0 82 123v639h110v-641q0 -107 -47 -163t-135 -56h-114v98z" />
    <glyph glyph-name="K.inferior" horiz-adv-x="784" 
d="M639 0l-313 438l-125 -129v-309h-111v860h111v-407l395 407h137l-334 -344l371 -516h-131z" />
    <glyph glyph-name="L.inferior" horiz-adv-x="643" 
d="M90 0v860h109v-762h428v-98h-537z" />
    <glyph glyph-name="M.inferior" horiz-adv-x="1024" 
d="M90 0v860h131l291 -702l291 702h131v-860h-105v655l-272 -655h-90l-270 655v-655h-107z" />
    <glyph glyph-name="N.inferior" horiz-adv-x="851" 
d="M90 0v860h123l438 -688v688h111v-860h-125l-438 686v-686h-109z" />
    <glyph glyph-name="O.inferior" horiz-adv-x="948" 
d="M473 -10q-182 0 -302 125t-120 315t120 315t302 125q183 0 303.5 -125t120.5 -315t-120.5 -315t-303.5 -125zM473 88q135 0 223 97t88 245t-88 245t-223 97q-133 0 -221 -97t-88 -245t88 -245t221 -97z" />
    <glyph glyph-name="P.inferior" horiz-adv-x="720" 
d="M90 0v860h326q126 0 200 -70.5t74 -185.5q0 -114 -74 -184t-200 -70h-217v-350h-109zM199 446h217q84 0 124 45t40 113q0 69 -40 114.5t-124 45.5h-217v-318z" />
    <glyph glyph-name="Q.inferior" horiz-adv-x="946" 
d="M897 430q0 -177 -105 -298t-270 -140v-45q0 -60 27.5 -85.5t87.5 -25.5h121v-86h-129q-205 0 -205 191v51q-164 19 -268.5 140.5t-104.5 297.5q0 190 120 315t302 125q183 0 303.5 -125t120.5 -315zM164 430q0 -148 88 -245t221 -97q135 0 223 97t88 245t-88 245t-223 97
q-133 0 -221 -97t-88 -245z" />
    <glyph glyph-name="R.inferior" horiz-adv-x="794" 
d="M561 408q49 -28 77.5 -78t33.5 -115l14 -215h-104l-15 209q-5 62 -42 100.5t-95 38.5h-231v-348h-109v860h328q126 0 200 -69.5t74 -184.5q0 -134 -131 -198zM199 764v-318h219q83 0 123.5 46t40.5 114q0 69 -40 113.5t-124 44.5h-219z" />
    <glyph glyph-name="S.inferior" horiz-adv-x="731" 
d="M371 -10q-145 0 -232.5 80t-95.5 213h107q9 -91 66.5 -143t154.5 -52q92 0 147 37t55 111q0 44 -27.5 74.5t-72 48t-98 31.5t-106.5 31.5t-97.5 42t-72 69.5t-27.5 108q0 103 81 166t212 63q129 0 211.5 -69.5t91.5 -186.5h-107q-8 73 -60 115.5t-136 42.5
q-86 0 -134.5 -35.5t-48.5 -95.5q0 -44 28 -74t72 -46t98 -29t108 -30t98 -42t72 -71.5t28 -112.5q0 -114 -88 -180t-227 -66z" />
    <glyph glyph-name="T.inferior" horiz-adv-x="686" 
d="M289 0v762h-275v98h658v-98h-275v-762h-108z" />
    <glyph glyph-name="U.inferior" horiz-adv-x="802" 
d="M401 -10q-147 0 -236 83t-89 224v563h106v-569q0 -94 60 -148.5t159 -54.5q101 0 160.5 54.5t59.5 148.5v569h106v-563q0 -142 -88.5 -224.5t-237.5 -82.5z" />
    <glyph glyph-name="V.inferior" horiz-adv-x="776" 
d="M332 0l-324 860h111l268 -733l270 733h111l-326 -860h-110z" />
    <glyph glyph-name="W.inferior" horiz-adv-x="1224" 
d="M293 0l-266 860h112l209 -696l215 696h96l215 -696l211 696h113l-264 -860h-111l-211 692l-211 -692h-108z" />
    <glyph glyph-name="X.inferior" horiz-adv-x="743" 
d="M705 0h-115l-217 344l-219 -344h-115l276 436l-268 424h113l213 -334l211 334h114l-268 -426z" />
    <glyph glyph-name="Y.inferior" horiz-adv-x="724" 
d="M307 0v360l-303 500h123l235 -397l236 397h123l-305 -500v-360h-109z" />
    <glyph glyph-name="Z.inferior" horiz-adv-x="733" 
d="M41 0v96l522 668h-493v96h618v-96l-514 -668h514v-96h-647z" />
    <glyph glyph-name="E.titl" 
d="M360 0q-100 0 -152 52.5t-52 152.5v1024q0 100 52 152.5t152 52.5h670v-127h-665q-34 0 -53 -19t-19 -53v-428h604v-127h-604v-481q0 -34 19 -53t53 -19h688v-127h-693z" />
    <glyph glyph-name="Eacute.titl" 
d="M549 1546l188 303h158l-215 -303h-131zM360 0q-100 0 -152 52.5t-52 152.5v1024q0 100 52 152.5t152 52.5h670v-127h-665q-34 0 -53 -19t-19 -53v-428h604v-127h-604v-481q0 -34 19 -53t53 -19h688v-127h-693z" />
    <glyph glyph-name="Ebreve.titl" 
d="M614 1552q-121 0 -200.5 79.5t-79.5 203.5h115q0 -74 46.5 -122t118.5 -48q71 0 119.5 48.5t48.5 121.5h113q0 -123 -80.5 -203t-200.5 -80zM360 0q-100 0 -152 52.5t-52 152.5v1024q0 100 52 152.5t152 52.5h670v-127h-665q-34 0 -53 -19t-19 -53v-428h604v-127h-604
v-481q0 -34 19 -53t53 -19h688v-127h-693z" />
    <glyph glyph-name="Ecaron.titl" 
d="M561 1548l-225 287h129l149 -184l148 184h129l-225 -287h-105zM360 0q-100 0 -152 52.5t-52 152.5v1024q0 100 52 152.5t152 52.5h670v-127h-665q-34 0 -53 -19t-19 -53v-428h604v-127h-604v-481q0 -34 19 -53t53 -19h688v-127h-693z" />
    <glyph glyph-name="Ecircumflex.titl" 
d="M565 1833h105l225 -287h-129l-148 185l-149 -185h-129zM360 0q-100 0 -152 52.5t-52 152.5v1024q0 100 52 152.5t152 52.5h670v-127h-665q-34 0 -53 -19t-19 -53v-428h604v-127h-604v-481q0 -34 19 -53t53 -19h688v-127h-693z" />
    <glyph glyph-name="Edieresis.titl" 
d="M391 1804h127v-172h-127v172zM707 1804h127v-172h-127v172zM360 0q-100 0 -152 52.5t-52 152.5v1024q0 100 52 152.5t152 52.5h670v-127h-665q-34 0 -53 -19t-19 -53v-428h604v-127h-604v-481q0 -34 19 -53t53 -19h688v-127h-693z" />
    <glyph glyph-name="Edotaccent.titl" 
d="M537 1851h155v-209h-155v209zM360 0q-100 0 -152 52.5t-52 152.5v1024q0 100 52 152.5t152 52.5h670v-127h-665q-34 0 -53 -19t-19 -53v-428h604v-127h-604v-481q0 -34 19 -53t53 -19h688v-127h-693z" />
    <glyph glyph-name="Egrave.titl" 
d="M680 1546h-131l-215 303h158zM360 0q-100 0 -152 52.5t-52 152.5v1024q0 100 52 152.5t152 52.5h670v-127h-665q-34 0 -53 -19t-19 -53v-428h604v-127h-604v-481q0 -34 19 -53t53 -19h688v-127h-693z" />
    <glyph glyph-name="Emacron.titl" 
d="M346 1618v115h535v-115h-535zM360 0q-100 0 -152 52.5t-52 152.5v1024q0 100 52 152.5t152 52.5h670v-127h-665q-34 0 -53 -19t-19 -53v-428h604v-127h-604v-481q0 -34 19 -53t53 -19h688v-127h-693z" />
    <glyph glyph-name="Eogonek.titl" 
d="M1098 -182l59 -92q-75 -72 -176 -72q-81 0 -127.5 43.5t-46.5 114.5q0 107 127 188h-574q-100 0 -152 52.5t-52 152.5v1024q0 100 52 152.5t152 52.5h670v-127h-665q-34 0 -53 -19t-19 -53v-428h604v-127h-604v-481q0 -34 19 -53t53 -19h688v-127q-67 -57 -96 -92.5
t-29 -71.5q0 -32 19.5 -49.5t53.5 -17.5q51 0 97 49z" />
    <glyph glyph-name="F.titl" horiz-adv-x="1138" 
d="M156 0v1229q0 100 52 152.5t152 52.5h670v-127h-665q-34 0 -53 -19t-19 -53v-444h604v-127h-604v-664h-137z" />
    <glyph glyph-name="L.titl" horiz-adv-x="1058" 
d="M360 0q-100 0 -152 52.5t-52 152.5v1229h137v-1235q0 -34 19 -53t53 -19h663v-127h-668z" />
    <glyph glyph-name="Lacute.titl" horiz-adv-x="1058" 
d="M186 1546l189 303h157l-215 -303h-131zM360 0q-100 0 -152 52.5t-52 152.5v1229h137v-1235q0 -34 19 -53t53 -19h663v-127h-668z" />
    <glyph glyph-name="Lcaron.titl" horiz-adv-x="1058" 
d="M586 1147l67 344h129l-125 -344h-71zM360 0q-100 0 -152 52.5t-52 152.5v1229h137v-1235q0 -34 19 -53t53 -19h663v-127h-668z" />
    <glyph glyph-name="uni013B.titl" horiz-adv-x="1058" 
d="M360 0q-100 0 -152 52.5t-52 152.5v1229h137v-1235q0 -34 19 -53t53 -19h663v-127h-668zM487 -434l97 295h194l-184 -295h-107z" />
    <glyph glyph-name="Ldot.titl" horiz-adv-x="1058" 
d="M360 0q-100 0 -152 52.5t-52 152.5v1229h137v-1235q0 -34 19 -53t53 -19h663v-127h-668zM641 823h156v-209h-156v209z" />
    <glyph glyph-name="Lslash.titl" horiz-adv-x="1058" 
d="M365 127h663v-127h-668q-100 0 -152 52.5t-52 152.5v440l-156 -39v103l156 39v686h137v-652l166 43v-102l-166 -43v-481q0 -34 19 -53t53 -19z" />
    <glyph glyph-name="i.loclTRK" horiz-adv-x="415" 
d="M129 1450h156v-209h-156v209zM143 0v1032h129v-1032h-129z" />
    <glyph glyph-name="germandbls.calt" horiz-adv-x="1247" 
d="M821 815q180 -44 258 -142.5t78 -258.5q0 -191 -120 -302.5t-337 -111.5h-213v127h183q167 0 254.5 73.5t87.5 213.5t-87.5 213t-254.5 73h-29v127l330 244q-12 118 -95.5 185t-224.5 67q-159 0 -253.5 -108.5t-94.5 -290.5v-924h-137v700h-139v127h139v97
q0 242 129.5 384t353.5 142q212 0 339.5 -117t127.5 -295z" />
    <glyph glyph-name="a.inferior" horiz-adv-x="634" 
d="M309 629q115 0 190.5 -62t75.5 -161v-406h-100v102q-25 -51 -82.5 -81.5t-128.5 -30.5q-94 0 -153.5 52t-59.5 134q0 96 62 147.5t184 51.5h143q35 0 35 33v2q0 61 -47 98t-119 37q-66 0 -112.5 -37t-49.5 -88h-96q9 90 82.5 149.5t175.5 59.5zM281 76q92 0 143 53.5
t51 149.5v20h-170q-149 0 -149 -121q0 -44 35.5 -73t89.5 -29z" />
    <glyph glyph-name="b.inferior" horiz-adv-x="739" 
d="M391 -10q-67 0 -124 29t-79 71v-90h-102v874h102v-344q30 43 86 71t117 28q141 0 220 -89.5t79 -230.5q0 -140 -79 -229.5t-220 -89.5zM383 82q92 0 147.5 62t55.5 165q0 104 -55.5 167t-147.5 63t-148.5 -63t-56.5 -167q0 -103 56.5 -165t148.5 -62z" />
    <glyph glyph-name="c.inferior" horiz-adv-x="667" 
d="M352 -10q-141 0 -222 93.5t-81 225.5q0 133 81 226.5t222 93.5q108 0 188 -59.5t93 -159.5h-101q-9 56 -60 92.5t-120 36.5q-95 0 -145.5 -65t-50.5 -165q0 -99 51 -163t145 -64q69 0 117 32t63 89h101q-15 -98 -90 -155.5t-191 -57.5z" />
    <glyph glyph-name="d.inferior" horiz-adv-x="739" 
d="M348 -10q-141 0 -220 89.5t-79 229.5q0 141 79 230.5t220 89.5q61 0 117 -28t86 -71v344h102v-874h-102v90q-22 -42 -79 -71t-124 -29zM356 82q92 0 148.5 62t56.5 165q0 104 -56.5 167t-148.5 63t-147 -63t-55 -167q0 -103 55 -165t147 -62z" />
    <glyph glyph-name="e.inferior" horiz-adv-x="688" 
d="M537 199h104q-15 -95 -92.5 -152t-192.5 -57q-135 0 -221 94t-86 229q0 138 81 227t216 89q133 0 211 -82t78 -209q0 -8 -1 -23t-1 -20h-483q6 -94 63 -154.5t143 -60.5q73 0 120 31t61 88zM346 545q-78 0 -128.5 -44t-63.5 -126h376q-6 78 -54.5 124t-129.5 46z" />
    <glyph glyph-name="f.inferior" horiz-adv-x="477" 
d="M150 0v528h-130v90h130v64q0 89 52.5 140.5t141.5 51.5h98v-90h-92q-45 0 -71.5 -27.5t-26.5 -76.5v-62h190v-90h-190v-528h-102z" />
    <glyph glyph-name="g.inferior" horiz-adv-x="739" 
d="M551 618h102v-647q0 -97 -64 -159t-165 -62h-293v86h287q58 0 95.5 39.5t37.5 101.5v107q-22 -41 -78 -67.5t-125 -26.5q-141 0 -220 89.5t-79 229.5q0 141 79 230.5t220 89.5q61 0 117 -28t86 -71v88zM356 82q92 0 148.5 62t56.5 165q0 104 -56.5 167t-148.5 63
t-147 -63t-55 -167q0 -103 55 -165t147 -62z" />
    <glyph glyph-name="h.inferior" horiz-adv-x="710" 
d="M86 0v874h102v-372q24 62 77.5 94.5t125.5 32.5q104 0 168 -69t64 -181v-379h-103v360q0 80 -42 128.5t-111 48.5q-78 0 -128.5 -57t-50.5 -146v-334h-102z" />
    <glyph glyph-name="i.inferior" horiz-adv-x="284" 
d="M84 877h117v-148h-117v148zM92 0v618h103v-618h-103z" />
    <glyph glyph-name="j.inferior" horiz-adv-x="286" 
d="M84 877h117v-148h-117v148zM92 618h103v-665q0 -102 -41.5 -152.5t-139.5 -50.5h-57v86h51q55 0 69.5 26t14.5 95v661z" />
    <glyph glyph-name="k.inferior" horiz-adv-x="649" 
d="M508 0l-238 309l-82 -76v-233h-102v874h102v-514l293 258h129l-264 -241l289 -377h-127z" />
    <glyph glyph-name="l.inferior" horiz-adv-x="274" 
d="M86 0v874h102v-874h-102z" />
    <glyph glyph-name="m.inferior" horiz-adv-x="1073" 
d="M86 0v618h102v-116q18 57 68 92t119 35q76 0 131 -34.5t72 -96.5q17 56 73.5 93.5t126.5 37.5q100 0 157.5 -64t57.5 -176v-389h-102v362q0 79 -36.5 128t-100.5 49q-76 0 -120 -49t-44 -128v-362h-103v362q0 79 -36.5 128t-100.5 49q-75 0 -118.5 -49t-43.5 -128v-362
h-102z" />
    <glyph glyph-name="n.inferior" horiz-adv-x="702" 
d="M86 0v618h102v-116q24 62 77.5 94.5t125.5 32.5q104 0 168 -69t64 -181v-379h-103v360q0 80 -42 128.5t-111 48.5q-78 0 -128.5 -57t-50.5 -146v-334h-102z" />
    <glyph glyph-name="o.inferior" horiz-adv-x="731" 
d="M365 -10q-138 0 -227 90t-89 229q0 140 89 230t227 90t227.5 -90.5t89.5 -229.5t-89.5 -229t-227.5 -90zM365 82q95 0 152.5 63t57.5 164q0 102 -57.5 166t-152.5 64q-94 0 -152.5 -64.5t-58.5 -165.5q0 -100 58.5 -163.5t152.5 -63.5z" />
    <glyph glyph-name="p.inferior" horiz-adv-x="739" 
d="M86 -250v868h102v-90q25 44 82 72.5t123 28.5q139 0 218 -89.5t79 -230.5q0 -139 -80 -229t-219 -90q-60 0 -116 27t-87 71v-338h-102zM383 82q92 0 147.5 62t55.5 165q0 104 -55.5 167t-147.5 63t-147.5 -63t-55.5 -167q0 -103 55.5 -165t147.5 -62z" />
    <glyph glyph-name="q.inferior" horiz-adv-x="739" 
d="M653 -250h-102v338q-31 -44 -87 -71t-116 -27q-139 0 -219 90t-80 229q0 141 79 230.5t218 89.5q66 0 123 -28.5t82 -72.5v90h102v-868zM356 82q92 0 147.5 62t55.5 165q0 104 -55.5 167t-147.5 63t-147 -63t-55 -167q0 -103 55 -165t147 -62z" />
    <glyph glyph-name="r.inferior" horiz-adv-x="456" 
d="M434 530h-96q-86 0 -118 -63t-32 -184v-283h-102v618h102v-129q20 69 57 104.5t101 35.5h88v-99z" />
    <glyph glyph-name="s.inferior" horiz-adv-x="581" 
d="M299 -10q-108 0 -175 56.5t-73 152.5h96q6 -59 45.5 -91t106.5 -32q56 0 91.5 27.5t35.5 66.5q0 37 -19.5 58.5t-51.5 30.5t-70 14.5t-76 14t-70 25t-51.5 53t-19.5 91.5q0 77 60.5 124.5t158.5 47.5q101 0 165 -52t70 -137h-96q-7 53 -49.5 79t-91.5 26q-54 0 -87.5 -24
t-33.5 -64q0 -33 20 -52.5t52 -27.5t70.5 -12.5t77 -14t70.5 -27t52 -56t20 -95.5q0 -83 -62.5 -132.5t-164.5 -49.5z" />
    <glyph glyph-name="t.inferior" horiz-adv-x="503" 
d="M150 817h102v-199h188v-90h-188v-327q0 -51 26 -80t72 -29h90v-92h-94q-91 0 -143.5 52.5t-52.5 144.5v331h-130v90h130v199z" />
    <glyph glyph-name="u.inferior" horiz-adv-x="702" 
d="M616 618v-618h-102v117q-24 -62 -77.5 -94.5t-125.5 -32.5q-104 0 -167.5 68.5t-63.5 181.5v378h102v-360q0 -79 42.5 -127.5t111.5 -48.5q78 0 128 57t50 146v333h102z" />
    <glyph glyph-name="v.inferior" horiz-adv-x="591" 
d="M244 0l-228 618h105l174 -485l174 485h106l-227 -618h-104z" />
    <glyph glyph-name="w.inferior" horiz-adv-x="935" 
d="M236 0l-203 618h104l148 -477l135 477h98l133 -477l148 477h104l-201 -618h-100l-133 473l-135 -473h-98z" />
    <glyph glyph-name="x.inferior" horiz-adv-x="589" 
d="M575 0h-106l-174 248l-174 -248h-107l226 326l-205 292h112l148 -212l147 212h113l-205 -292z" />
    <glyph glyph-name="y.inferior" horiz-adv-x="591" 
d="M575 618l-194 -530l-115 -338h-98l80 240l-232 628h105l174 -485l174 485h106z" />
    <glyph glyph-name="z.inferior" horiz-adv-x="608" 
d="M49 0v90l381 438h-362v90h481v-90l-379 -438h395v-90h-516z" />
    <glyph glyph-name="a.ss01" horiz-adv-x="1226" 
d="M590 -16q-159 0 -274.5 72t-171.5 191t-56 269t56 269t171.5 191.5t274.5 72.5q105 0 206 -51.5t152 -131.5v166h129v-1032h-129v166q-34 -76 -135.5 -129t-222.5 -53zM594 102q167 0 268 113t101 301t-101 301t-268 113t-268 -113t-101 -301t101 -301t268 -113z" />
    <glyph glyph-name="aacute.ss01" horiz-adv-x="1226" 
d="M549 1145l188 303h158l-215 -303h-131zM590 -16q-159 0 -274.5 72t-171.5 191t-56 269t56 269t171.5 191.5t274.5 72.5q105 0 206 -51.5t152 -131.5v166h129v-1032h-129v166q-34 -76 -135.5 -129t-222.5 -53zM594 102q167 0 268 113t101 301t-101 301t-268 113t-268 -113
t-101 -301t101 -301t268 -113z" />
    <glyph glyph-name="abreve.ss01" horiz-adv-x="1226" 
d="M614 1151q-121 0 -200.5 79.5t-79.5 203.5h115q0 -74 46.5 -122t118.5 -48q71 0 119.5 48.5t48.5 121.5h113q0 -123 -80.5 -203t-200.5 -80zM590 -16q-159 0 -274.5 72t-171.5 191t-56 269t56 269t171.5 191.5t274.5 72.5q105 0 206 -51.5t152 -131.5v166h129v-1032h-129
v166q-34 -76 -135.5 -129t-222.5 -53zM594 102q167 0 268 113t101 301t-101 301t-268 113t-268 -113t-101 -301t101 -301t268 -113z" />
    <glyph glyph-name="acircumflex.ss01" horiz-adv-x="1226" 
d="M565 1432h105l225 -287h-129l-148 184l-149 -184h-129zM590 -16q-159 0 -274.5 72t-171.5 191t-56 269t56 269t171.5 191.5t274.5 72.5q105 0 206 -51.5t152 -131.5v166h129v-1032h-129v166q-34 -76 -135.5 -129t-222.5 -53zM594 102q167 0 268 113t101 301t-101 301
t-268 113t-268 -113t-101 -301t101 -301t268 -113z" />
    <glyph glyph-name="adieresis.ss01" horiz-adv-x="1226" 
d="M391 1403h127v-172h-127v172zM707 1403h127v-172h-127v172zM590 -16q-159 0 -274.5 72t-171.5 191t-56 269t56 269t171.5 191.5t274.5 72.5q105 0 206 -51.5t152 -131.5v166h129v-1032h-129v166q-34 -76 -135.5 -129t-222.5 -53zM594 102q167 0 268 113t101 301t-101 301
t-268 113t-268 -113t-101 -301t101 -301t268 -113z" />
    <glyph glyph-name="agrave.ss01" horiz-adv-x="1226" 
d="M680 1145h-131l-215 303h158zM590 -16q-159 0 -274.5 72t-171.5 191t-56 269t56 269t171.5 191.5t274.5 72.5q105 0 206 -51.5t152 -131.5v166h129v-1032h-129v166q-34 -76 -135.5 -129t-222.5 -53zM594 102q167 0 268 113t101 301t-101 301t-268 113t-268 -113
t-101 -301t101 -301t268 -113z" />
    <glyph glyph-name="amacron.ss01" horiz-adv-x="1226" 
d="M346 1217v114h535v-114h-535zM590 -16q-159 0 -274.5 72t-171.5 191t-56 269t56 269t171.5 191.5t274.5 72.5q105 0 206 -51.5t152 -131.5v166h129v-1032h-129v166q-34 -76 -135.5 -129t-222.5 -53zM594 102q167 0 268 113t101 301t-101 301t-268 113t-268 -113
t-101 -301t101 -301t268 -113z" />
    <glyph glyph-name="aogonek.ss01" horiz-adv-x="1226" 
d="M1122 -182l60 -92q-75 -72 -176 -72q-81 0 -128 43.5t-47 114.5q0 107 127 188h-10v166q-34 -76 -135.5 -129t-222.5 -53q-159 0 -274.5 72t-171.5 191t-56 269t56 269t171.5 191.5t274.5 72.5q105 0 206 -51.5t152 -131.5v166h129v-1032q-67 -57 -96 -92.5t-29 -71.5
q0 -32 20 -49.5t54 -17.5q50 0 96 49zM594 102q167 0 268 113t101 301t-101 301t-268 113t-268 -113t-101 -301t101 -301t268 -113z" />
    <glyph glyph-name="aring.ss01" horiz-adv-x="1226" 
d="M612 1116q-101 0 -168 61.5t-67 155.5q0 92 67 153.5t168 61.5t169.5 -61.5t68.5 -153.5q0 -93 -68 -155t-170 -62zM612 1208q59 0 96 35t37 90t-37 90t-96 35q-57 0 -94 -35t-37 -90t37 -90t94 -35zM590 -16q-159 0 -274.5 72t-171.5 191t-56 269t56 269t171.5 191.5
t274.5 72.5q105 0 206 -51.5t152 -131.5v166h129v-1032h-129v166q-34 -76 -135.5 -129t-222.5 -53zM594 102q167 0 268 113t101 301t-101 301t-268 113t-268 -113t-101 -301t101 -301t268 -113z" />
    <glyph glyph-name="aringacute.ss01" horiz-adv-x="1226" 
d="M612 1116q-101 0 -168 61.5t-67 155.5q0 76 47.5 133t124.5 76l188 301h158l-215 -303q76 -19 123 -76t47 -131q0 -93 -68 -155t-170 -62zM612 1458q-57 0 -94 -35t-37 -90t37 -90t94 -35q59 0 96 35t37 90t-37 90t-96 35zM948 1032h129v-1032h-129v166
q-34 -76 -135.5 -129t-222.5 -53q-159 0 -274.5 72t-171.5 191t-56 269t56 269t171.5 191.5t274.5 72.5q105 0 206 -51.5t152 -131.5v166zM594 102q167 0 268 113t101 301t-101 301t-268 113t-268 -113t-101 -301t101 -301t268 -113z" />
    <glyph glyph-name="atilde.ss01" horiz-adv-x="1226" 
d="M745 1210q-52 0 -98.5 21t-83 42t-65.5 21q-31 0 -53.5 -19.5t-28.5 -51.5h-111q9 86 57.5 138t120.5 52q53 0 99.5 -21t83 -42t65.5 -21t51.5 20t30.5 52h111q-9 -87 -57.5 -139t-121.5 -52zM590 -16q-159 0 -274.5 72t-171.5 191t-56 269t56 269t171.5 191.5
t274.5 72.5q105 0 206 -51.5t152 -131.5v166h129v-1032h-129v166q-34 -76 -135.5 -129t-222.5 -53zM594 102q167 0 268 113t101 301t-101 301t-268 113t-268 -113t-101 -301t101 -301t268 -113z" />
    <glyph glyph-name="ae.ss01" horiz-adv-x="2011" 
d="M1794 326h135q-25 -156 -150.5 -249t-316.5 -93q-127 0 -227.5 51t-163.5 145v-180h-129v166q-34 -76 -135.5 -129t-222.5 -53q-159 0 -274.5 72t-171.5 191t-56 269t56 269t171.5 191.5t274.5 72.5q105 0 206 -51.5t152 -131.5v166h129v-168q61 89 156 137t217 48
q212 0 342.5 -132t130.5 -346q0 -39 -4 -67h-826q6 -173 113 -287.5t262 -114.5q135 0 220 58.5t112 165.5zM588 102q167 0 267.5 113t100.5 301t-100.5 301t-267.5 113t-268 -113t-101 -301t101 -301t268 -113zM1444 930q-141 0 -232 -81t-116 -226h686q-11 143 -101 225
t-237 82z" />
    <glyph glyph-name="aeacute.ss01" horiz-adv-x="2011" 
d="M1286 1448l-215 -303h-131l188 303h158zM1794 326h135q-25 -156 -150.5 -249t-316.5 -93q-127 0 -227.5 51t-163.5 145v-180h-129v166q-34 -76 -135.5 -129t-222.5 -53q-159 0 -274.5 72t-171.5 191t-56 269t56 269t171.5 191.5t274.5 72.5q105 0 206 -51.5t152 -131.5
v166h129v-168q61 89 156 137t217 48q212 0 342.5 -132t130.5 -346q0 -39 -4 -67h-826q6 -173 113 -287.5t262 -114.5q135 0 220 58.5t112 165.5zM588 102q167 0 267.5 113t100.5 301t-100.5 301t-267.5 113t-268 -113t-101 -301t101 -301t268 -113zM1444 930
q-141 0 -232 -81t-116 -226h686q-11 143 -101 225t-237 82z" />
    <glyph glyph-name="g.ss02" horiz-adv-x="1064" 
d="M670 176q151 0 242.5 -68t91.5 -208t-77.5 -229t-219.5 -89h-320q-132 0 -218.5 86t-86.5 215q0 71 34 128t85 93q-92 51 -92 172q0 51 24.5 91t78.5 100q10 10 15 16q-65 90 -65 213q0 157 108 255t271 98q75 0 151 -29l144 156l92 -89l-125 -135q119 -98 119 -256
t-108.5 -255t-272.5 -97q-133 0 -230 62q-45 -48 -60 -72.5t-15 -57.5q0 -53 39 -76.5t100 -23.5h295zM541 938q-103 0 -175.5 -65.5t-72.5 -176.5t72.5 -176t175.5 -65q105 0 177.5 65t72.5 176t-72.5 176.5t-177.5 65.5zM707 -301q87 0 128.5 50t41.5 134q0 180 -222 180
h-233q-49 0 -107 7q-106 -58 -106 -191q0 -77 51 -128.5t127 -51.5h320z" />
    <glyph glyph-name="gbreve.ss02" horiz-adv-x="1064" 
d="M541 1151q-121 0 -201 79.5t-80 203.5h115q0 -74 47 -122t119 -48q71 0 119.5 48.5t48.5 121.5h112q0 -123 -80 -203t-200 -80zM670 176q151 0 242.5 -68t91.5 -208t-77.5 -229t-219.5 -89h-320q-132 0 -218.5 86t-86.5 215q0 71 34 128t85 93q-92 51 -92 172
q0 51 24.5 91t78.5 100q10 10 15 16q-65 90 -65 213q0 157 108 255t271 98q75 0 151 -29l144 156l92 -89l-125 -135q119 -98 119 -256t-108.5 -255t-272.5 -97q-133 0 -230 62q-45 -48 -60 -72.5t-15 -57.5q0 -53 39 -76.5t100 -23.5h295zM541 938q-103 0 -175.5 -65.5
t-72.5 -176.5t72.5 -176t175.5 -65q105 0 177.5 65t72.5 176t-72.5 176.5t-177.5 65.5zM707 -301q87 0 128.5 50t41.5 134q0 180 -222 180h-233q-49 0 -107 7q-106 -58 -106 -191q0 -77 51 -128.5t127 -51.5h320z" />
    <glyph glyph-name="gcircumflex.ss02" horiz-adv-x="1064" 
d="M670 176q151 0 242.5 -68t91.5 -208t-77.5 -229t-219.5 -89h-320q-132 0 -218.5 86t-86.5 215q0 71 34 128t85 93q-92 51 -92 172q0 51 24.5 91t78.5 100q10 10 15 16q-65 90 -65 213q0 157 108 255t271 98q75 0 151 -29l115 125h-107l-147 184l-150 -184h-129l226 287
h104l215 -275l17 19l92 -89l-125 -135q119 -98 119 -256t-108.5 -255t-272.5 -97q-133 0 -230 62q-45 -48 -60 -72.5t-15 -57.5q0 -53 39 -76.5t100 -23.5h295zM541 938q-103 0 -175.5 -65.5t-72.5 -176.5t72.5 -176t175.5 -65q105 0 177.5 65t72.5 176t-72.5 176.5
t-177.5 65.5zM707 -301q87 0 128.5 50t41.5 134q0 180 -222 180h-233q-49 0 -107 7q-106 -58 -106 -191q0 -77 51 -128.5t127 -51.5h320z" />
    <glyph glyph-name="uni0123.ss02" horiz-adv-x="1064" 
d="M698 1450l-61 -303h-133l114 303h80zM670 176q151 0 242.5 -68t91.5 -208t-77.5 -229t-219.5 -89h-320q-132 0 -218.5 86t-86.5 215q0 71 34 128t85 93q-92 51 -92 172q0 51 24.5 91t78.5 100q10 10 15 16q-65 90 -65 213q0 157 108 255t271 98q75 0 151 -29l144 156
l92 -89l-125 -135q119 -98 119 -256t-108.5 -255t-272.5 -97q-133 0 -230 62q-45 -48 -60 -72.5t-15 -57.5q0 -53 39 -76.5t100 -23.5h295zM541 938q-103 0 -175.5 -65.5t-72.5 -176.5t72.5 -176t175.5 -65q105 0 177.5 65t72.5 176t-72.5 176.5t-177.5 65.5zM707 -301
q87 0 128.5 50t41.5 134q0 180 -222 180h-233q-49 0 -107 7q-106 -58 -106 -191q0 -77 51 -128.5t127 -51.5h320z" />
    <glyph glyph-name="gdotaccent.ss02" horiz-adv-x="1064" 
d="M618 1450v-209h-155v209h155zM670 176q151 0 242.5 -68t91.5 -208t-77.5 -229t-219.5 -89h-320q-132 0 -218.5 86t-86.5 215q0 71 34 128t85 93q-92 51 -92 172q0 51 24.5 91t78.5 100q10 10 15 16q-65 90 -65 213q0 157 108 255t271 98q75 0 151 -29l144 156l92 -89
l-125 -135q119 -98 119 -256t-108.5 -255t-272.5 -97q-133 0 -230 62q-45 -48 -60 -72.5t-15 -57.5q0 -53 39 -76.5t100 -23.5h295zM541 938q-103 0 -175.5 -65.5t-72.5 -176.5t72.5 -176t175.5 -65q105 0 177.5 65t72.5 176t-72.5 176.5t-177.5 65.5zM707 -301
q87 0 128.5 50t41.5 134q0 180 -222 180h-233q-49 0 -107 7q-106 -58 -106 -191q0 -77 51 -128.5t127 -51.5h320z" />
    <glyph glyph-name="y.ss03" horiz-adv-x="964" 
d="M934 1032l-379 -1032l-61 -170q-90 -248 -265 -248h-108v119h108q47 0 83 31.5t67 124.5l39 120l-387 1055h135l315 -872l316 872h137z" />
    <glyph glyph-name="yacute.ss03" horiz-adv-x="964" 
d="M770 1448l-215 -303h-131l188 303h158zM934 1032l-379 -1032l-61 -170q-90 -248 -265 -248h-108v119h108q47 0 83 31.5t67 124.5l39 120l-387 1055h135l315 -872l316 872h137z" />
    <glyph glyph-name="ycircumflex.ss03" horiz-adv-x="964" 
d="M494 1329l-150 -184h-129l225 287h105l225 -287h-129zM934 1032l-379 -1032l-61 -170q-90 -248 -265 -248h-108v119h108q47 0 83 31.5t67 124.5l39 120l-387 1055h135l315 -872l316 872h137z" />
    <glyph glyph-name="ydieresis.ss03" horiz-adv-x="964" 
d="M393 1403v-172h-127v172h127zM709 1403v-172h-127v172h127zM934 1032l-379 -1032l-61 -170q-90 -248 -265 -248h-108v119h108q47 0 83 31.5t67 124.5l39 120l-387 1055h135l315 -872l316 872h137z" />
    <glyph glyph-name="ygrave.ss03" horiz-adv-x="964" 
d="M555 1145h-131l-215 303h158zM934 1032l-379 -1032l-61 -170q-90 -248 -265 -248h-108v119h108q47 0 83 31.5t67 124.5l39 120l-387 1055h135l315 -872l316 872h137z" />
    <glyph glyph-name="t.ss04" horiz-adv-x="749" 
d="M252 1370h129v-338h328v-119h-328v-604q0 -89 46.5 -139.5t125.5 -50.5h156v-119h-154q-140 0 -221.5 83.5t-81.5 225.5v604h-221v119h170q51 0 51 51v287z" />
    <glyph glyph-name="tbar.ss04" horiz-adv-x="749" 
d="M709 913h-328v-344h311v-106h-311v-154q0 -89 46.5 -139.5t125.5 -50.5h156v-119h-154q-140 0 -221.5 83.5t-81.5 225.5v154h-158v106h158v344h-221v119h170q51 0 51 51v287h129v-338h328v-119z" />
    <glyph glyph-name="tcaron.ss04" horiz-adv-x="749" 
d="M541 1147l67 344h129l-125 -344h-71zM252 1370h129v-338h328v-119h-328v-604q0 -89 46.5 -139.5t125.5 -50.5h156v-119h-154q-140 0 -221.5 83.5t-81.5 225.5v604h-221v119h170q51 0 51 51v287z" />
    <glyph glyph-name="uni0163.ss04" horiz-adv-x="749" 
d="M252 1370h129v-338h328v-119h-328v-604q0 -89 46.5 -139.5t125.5 -50.5h156v-119h-154q-140 0 -221.5 83.5t-81.5 225.5v604h-221v119h170q51 0 51 51v287zM360 -418h-186l213 295h117z" />
    <glyph glyph-name="uni021B.ss04" horiz-adv-x="749" 
d="M252 1370h129v-338h328v-119h-328v-604q0 -89 46.5 -139.5t125.5 -50.5h156v-119h-154q-140 0 -221.5 83.5t-81.5 225.5v604h-221v119h170q51 0 51 51v287zM213 -434l96 295h195l-185 -295h-106z" />
    <glyph glyph-name="O_O.dlig" horiz-adv-x="2822" 
d="M756 -16q-196 0 -348.5 95t-235 261.5t-82.5 376.5t82.5 376.5t235 261.5t348.5 95q79 0 150 -16.5t124 -43t101 -61t82 -70t65 -70t53 -61t43 -43t37 -16.5q21 0 51 28t62.5 70.5t84.5 92t112 92t150.5 70.5t194.5 28q196 0 348.5 -95t235 -261.5t82.5 -376.5
t-82.5 -376.5t-235 -261.5t-348.5 -95q-104 0 -194.5 28t-150.5 70.5t-112 92t-84.5 92t-62.5 70.5t-51 28q-16 0 -37 -16.5t-43 -43t-53 -61t-65 -70t-82 -70t-101 -61t-124 -43t-150 -16.5zM756 111q85 0 157 22t122 56.5t93 76.5t77 84.5t65.5 77t67 56.5t73.5 22
t73.5 -22t67 -56.5t65.5 -77t77 -84.5t93 -76.5t122 -56.5t157 -22q155 0 274.5 79t184 216.5t64.5 310.5t-64.5 310.5t-184 216.5t-274.5 79q-85 0 -157 -22t-122 -56.5t-93 -76.5t-77 -84.5t-65.5 -77t-67 -56.5t-73.5 -22t-73.5 22t-67 56.5t-65.5 77t-77 84.5t-93 76.5
t-122 56.5t-157 22q-155 0 -274.5 -79t-184 -216.5t-64.5 -310.5t64.5 -310.5t184 -216.5t274.5 -79z" />
    <glyph glyph-name="T_T.dlig" horiz-adv-x="1996" 
d="M1970 1434v-127h-467v-1307h-137v1307h-733v-1307h-137v1307h-469v127h1943z" />
    <glyph glyph-name="T_h.dlig" horiz-adv-x="2095" 
d="M1567 1049q175 0 280 -115t105 -307v-627h-129v610q0 145 -75.5 232.5t-199.5 87.5q-145 0 -237 -105.5t-92 -269.5v-555h-129v1307h-457v-1307h-137v1307h-469v127h1192v-617q39 114 130.5 173t217.5 59z" />
    <glyph glyph-name="T_i.dlig" horiz-adv-x="1347" 
d="M496 0v1307h-469v127h1073v-127h-467v-1307h-137zM1075 0v1032h129v-1032h-129z" />
    <glyph glyph-name="o_o.dlig" horiz-adv-x="2138" 
d="M582 -16q-228 0 -364 148t-136 384t136 384.5t364 148.5q83 0 154 -27t118 -65.5t85 -76.5t70.5 -65t59.5 -27t60 27t71 65t85 76.5t119 65.5t155 27q226 0 361.5 -148.5t135.5 -384.5t-135.5 -384t-361.5 -148q-83 0 -155 27t-119 65t-85 76t-71 65t-60 27t-59.5 -27
t-70.5 -65t-85 -76t-118 -65t-154 -27zM582 102q57 0 110 20t91 50t77 64.5t69.5 64.5t67.5 50t72 20t72 -20t68 -50t70 -64.5t77.5 -64.5t91.5 -50t111 -20q166 0 264 115t98 299t-98 299t-264 115q-68 0 -129.5 -27.5t-106.5 -67t-85.5 -79t-84 -67t-84.5 -27.5
q-35 0 -72 20t-67.5 49.5t-69.5 64.5t-77 64.5t-91 49.5t-110 20q-168 0 -266.5 -115t-98.5 -299t98.5 -299t266.5 -115z" />
    <glyph glyph-name="zero.inferior" horiz-adv-x="751" 
d="M354 -10q-153 0 -224 102t-71 303v70q0 201 71 303t224 102h43q155 0 225 -101.5t70 -303.5v-70q0 -202 -70 -303.5t-225 -101.5h-43zM358 88h37q98 0 143.5 72.5t45.5 220.5v98q0 148 -45.5 220.5t-143.5 72.5h-37q-99 0 -144.5 -72.5t-45.5 -220.5v-98
q0 -148 45.5 -220.5t144.5 -72.5z" />
    <glyph glyph-name="one.inferior" horiz-adv-x="425" 
d="M336 860v-860h-109v678q-22 -31 -80 -31h-79v98h69q44 0 66 25t26 90h107z" />
    <glyph glyph-name="two.inferior" horiz-adv-x="688" 
d="M76 580q-4 133 73.5 211.5t210.5 78.5q124 0 202.5 -71t78.5 -187q0 -172 -201 -272l-123 -61q-60 -31 -102.5 -78t-42.5 -103h473v-98h-579v78q0 103 62 175.5t146 115.5l132 67q124 65 124 178q0 71 -48 115.5t-122 44.5q-82 0 -128.5 -53t-43.5 -141h-112z" />
    <glyph glyph-name="three.inferior" horiz-adv-x="735" 
d="M379 -10q-133 0 -221 78t-88 202h106q0 -82 57.5 -132t145.5 -50q90 0 141 41.5t51 116.5q0 73 -51 112t-141 39h-70v97h68q74 0 118 41t44 106q0 62 -45.5 97.5t-122.5 35.5q-73 0 -117.5 -42t-48.5 -116h-103q4 115 79.5 184.5t191.5 69.5q120 0 198 -64.5t78 -162.5
q0 -61 -35 -112.5t-88 -77.5q71 -26 114.5 -80t43.5 -129q0 -119 -88.5 -186.5t-216.5 -67.5z" />
    <glyph glyph-name="four.inferior" horiz-adv-x="796" 
d="M500 0v213h-459v96l442 551h127v-551h131v-96h-131v-213h-110zM156 309h344v430z" />
    <glyph glyph-name="five.inferior" horiz-adv-x="733" 
d="M360 -10q-116 0 -197.5 73t-92.5 181h102q9 -74 59 -116t129 -42q94 0 150.5 52.5t56.5 142.5q0 92 -56.5 147t-150.5 55q-69 0 -117.5 -26.5t-68.5 -73.5h-86l66 477h460v-98h-378l-37 -254q31 28 79 46.5t93 18.5q136 0 220.5 -80.5t84.5 -211.5q0 -130 -88 -210.5
t-228 -80.5z" />
    <glyph glyph-name="six.inferior" horiz-adv-x="772" 
d="M395 575q133 0 218 -82.5t85 -209.5t-87.5 -210t-221.5 -83q-147 0 -233 107.5t-86 287.5q0 234 93.5 359.5t242.5 125.5q118 0 198.5 -63t97.5 -166h-106q-14 62 -64 98.5t-124 36.5q-102 0 -167 -94.5t-71 -239.5q28 58 91 95.5t134 37.5zM389 84q89 0 146 56.5
t57 144.5q0 86 -57 141t-146 55t-145 -55t-56 -141q0 -88 56 -144.5t145 -56.5z" />
    <glyph glyph-name="seven.inferior" horiz-adv-x="641" 
d="M219 0q0 115 26.5 215.5t106.5 228.5l197 318h-498v98h621v-90l-234 -387q-66 -110 -88 -197t-22 -186h-109z" />
    <glyph glyph-name="eight.inferior" horiz-adv-x="751" 
d="M377 -10q-131 0 -219 68t-88 186q0 77 44 136t113 83q-54 26 -88.5 73t-34.5 107q0 100 76 163.5t197 63.5t196.5 -63.5t75.5 -163.5q0 -60 -34.5 -107t-90.5 -73q70 -24 114 -83t44 -136q0 -117 -87.5 -185.5t-217.5 -68.5zM377 504q75 0 120.5 37t45.5 100t-45 99
t-121 36q-77 0 -121.5 -36t-44.5 -99t45 -100t121 -37zM377 86q90 0 143 43t53 117q0 75 -53 118.5t-143 43.5t-144.5 -44t-54.5 -118t54.5 -117t144.5 -43z" />
    <glyph glyph-name="nine.inferior" horiz-adv-x="774" 
d="M379 285q-133 0 -218 83t-85 210t87.5 209.5t221.5 82.5q147 0 233.5 -108t86.5 -287q0 -234 -93.5 -359.5t-242.5 -125.5q-119 0 -199.5 63t-97.5 166h106q14 -62 64.5 -98.5t124.5 -36.5q102 0 166.5 94.5t70.5 239.5q-28 -58 -91 -95.5t-134 -37.5zM385 776
q-89 0 -146 -56.5t-57 -144.5q0 -86 57 -141t146 -55t145 55t56 141q0 88 -56 144.5t-145 56.5z" />
    <glyph glyph-name="eight.ss06" horiz-adv-x="1189" 
d="M141 1065q0 168 128 276.5t327 108.5q198 0 325.5 -109t127.5 -276q0 -72 -21.5 -126.5t-51.5 -84.5t-60.5 -51.5t-52 -40.5t-21.5 -39t23.5 -40.5t57 -43.5t66.5 -54.5t56.5 -87t23.5 -126.5q0 -169 -133 -278t-340 -109t-341 109t-134 278q0 71 23.5 126.5t56.5 87
t66.5 54.5t57 43.5t23.5 40.5t-21.5 39t-52 40.5t-60.5 51.5t-51.5 84.5t-21.5 126.5zM270 1063q0 -57 22.5 -101.5t54 -72t63.5 -51t54.5 -52t22.5 -63.5q0 -29 -17.5 -55t-44 -45.5t-57 -44.5t-57 -50.5t-44 -66t-17.5 -88.5q0 -114 97.5 -188t248.5 -74t248.5 74
t97.5 188q0 48 -18 88.5t-45 66t-59 50.5t-59 44.5t-45 45.5t-18 55q0 35 23 63.5t56 52t66 51t56 72t23 101.5q0 117 -91.5 188.5t-234.5 71.5q-146 0 -236 -71t-90 -189z" />
    <glyph glyph-name="eight.ss06.inferior" horiz-adv-x="724" 
d="M82 637q0 100 79.5 166.5t200.5 66.5t201 -66.5t80 -166.5q0 -53 -18.5 -90.5t-40 -53t-40 -30.5t-18.5 -29t20 -30.5t44.5 -33t44.5 -55t20 -90.5q0 -103 -82 -169t-211 -66q-128 0 -210 66t-82 169q0 52 20 90.5t44.5 55t44.5 33t20 30.5t-18.5 29t-40 30.5t-40 53
t-18.5 90.5zM182 629q0 -33 12.5 -58.5t31 -41t36.5 -29.5t30.5 -30t12.5 -36q0 -24 -21 -46t-45.5 -38t-45.5 -47.5t-21 -71.5q0 -63 55 -104t138 -41q82 0 136 41t54 104q0 33 -14 59.5t-34 43t-40.5 31.5t-34.5 32t-14 37t13 36t31.5 30t37.5 29.5t32 41t13 58.5
q0 64 -51.5 104.5t-131.5 40.5t-130 -40.5t-50 -104.5z" />
    <glyph glyph-name="zero.tf" horiz-adv-x="1290" 
d="M610 -16q-252 0 -363.5 166.5t-111.5 504.5v123q0 338 111.5 505t363.5 167h68q253 0 364 -166.5t111 -505.5v-123q0 -338 -111 -504.5t-364 -166.5h-68zM612 111h66q182 0 261 133t79 411v123q0 278 -79 411.5t-261 133.5h-66q-182 0 -261 -133.5t-79 -411.5v-123
q0 -278 79 -411t261 -133z" />
    <glyph glyph-name="one.tf" horiz-adv-x="1290" 
d="M725 127h313v-127h-800v127h350v1040q-30 -47 -113 -47h-145v127h121q67 0 99 39.5t38 147.5h137v-1307z" />
    <glyph glyph-name="two.tf" horiz-adv-x="1290" 
d="M184 981q-10 213 116 341t343 128q197 0 324 -116t127 -306q0 -138 -84.5 -253t-247.5 -197l-199 -101q-113 -58 -193.5 -149t-80.5 -201h815v-127h-946v94q0 77 22.5 147t57.5 123t84 99.5t94.5 77.5t95.5 57l215 111q121 62 172 140t51 183q0 130 -87 210.5t-220 80.5
q-148 0 -235 -93.5t-80 -248.5h-144z" />
    <glyph glyph-name="three.tf" horiz-adv-x="1290" 
d="M655 -16q-216 0 -360.5 131t-144.5 334h137q0 -149 104 -243.5t264 -94.5q165 0 260 75.5t95 212.5q0 136 -94.5 208.5t-260.5 72.5h-108v127h108q137 0 217 75.5t80 194.5q0 116 -82 181t-223 65q-134 0 -214 -76.5t-89 -212.5h-135q9 189 128.5 302.5t309.5 113.5
q197 0 323 -104.5t126 -268.5q0 -109 -62 -197t-155 -128q121 -37 197.5 -130.5t76.5 -222.5q0 -100 -40.5 -180t-110 -130.5t-158.5 -77.5t-189 -27z" />
    <glyph glyph-name="four.tf" horiz-adv-x="1290" 
d="M854 0v379h-782v127l749 928h170v-928h240v-127h-240v-379h-137zM223 506h631v788z" />
    <glyph glyph-name="five.tf" horiz-adv-x="1290" 
d="M637 -16q-192 0 -323.5 115.5t-153.5 297.5h135q17 -136 108 -211t232 -75q174 0 276.5 95t102.5 261q0 167 -102.5 268t-274.5 101q-127 0 -217.5 -49.5t-122.5 -135.5h-107l109 783h754v-127h-650l-67 -476q56 54 144 90.5t167 36.5q229 0 369.5 -135.5t140.5 -355.5
q0 -219 -143 -351t-377 -132z" />
    <glyph glyph-name="six.tf" horiz-adv-x="1290" 
d="M649 958q221 0 363.5 -137.5t142.5 -349.5q0 -214 -142.5 -350.5t-363.5 -136.5q-237 0 -379.5 175t-142.5 472q0 203 42.5 361.5t118 258t174.5 150.5t216 51q189 0 320.5 -102t162.5 -271h-143q-26 116 -115 181t-225 65q-120 0 -214.5 -81.5t-147.5 -219t-60 -309.5
q46 108 155.5 175.5t237.5 67.5zM649 111q158 0 260.5 102t102.5 260q0 157 -102.5 257.5t-260.5 100.5t-260 -100.5t-102 -257.5q0 -158 102 -260t260 -102z" />
    <glyph glyph-name="seven.tf" horiz-adv-x="1290" 
d="M457 0q1 89 8.5 159t29.5 164t69.5 201t121.5 228l340 555h-866v127h1024v-115l-400 -674q-81 -137 -125 -261.5t-54 -202.5t-11 -181h-137z" />
    <glyph glyph-name="eight.tf" horiz-adv-x="1290" 
d="M645 -16q-136 0 -247.5 46t-182 142.5t-70.5 228.5q0 131 78.5 233t196.5 138q-96 41 -157.5 120t-61.5 185q0 165 123.5 269t320.5 104q198 0 321.5 -104t123.5 -269q0 -106 -61.5 -185t-158.5 -120q118 -36 196.5 -138t78.5 -233q0 -132 -70.5 -228.5t-182 -142.5
t-247.5 -46zM645 825q138 0 219.5 67.5t81.5 184.5q0 115 -81 180.5t-220 65.5t-220 -65.5t-81 -180.5q0 -117 81.5 -184.5t219.5 -67.5zM645 111q163 0 259.5 77.5t96.5 212.5q0 137 -97 217t-259 80t-259 -80t-97 -217q0 -135 96.5 -212.5t259.5 -77.5z" />
    <glyph glyph-name="nine.tf" horiz-adv-x="1290" 
d="M641 492q-221 0 -363.5 137.5t-142.5 349.5q0 214 142.5 350.5t363.5 136.5q237 0 379.5 -175t142.5 -472q0 -203 -42.5 -361.5t-118 -258t-174.5 -150.5t-216 -51q-189 0 -320.5 102t-162.5 271h143q26 -116 115 -181t225 -65q120 0 214.5 81.5t147.5 219t60 309.5
q-46 -108 -155.5 -175.5t-237.5 -67.5zM641 1339q-158 0 -260 -102t-102 -260q0 -157 102 -258t260 -101t260.5 101t102.5 258q0 158 -102.5 260t-260.5 102z" />
    <glyph glyph-name="eight.tf.ss06" horiz-adv-x="1290" 
d="M193 1065q0 168 127.5 276.5t326.5 108.5q198 0 325.5 -109t127.5 -276q0 -72 -21.5 -126.5t-52 -84.5t-60.5 -51.5t-51.5 -40.5t-21.5 -39t23.5 -40.5t56.5 -43.5t66.5 -54.5t57 -87t23.5 -126.5q0 -169 -133 -278t-340 -109t-341 109t-134 278q0 71 23.5 126.5t57 87
t66.5 54.5t56.5 43.5t23.5 40.5q0 17 -15.5 34t-38 31t-49.5 38t-49.5 52.5t-38 77t-15.5 109.5zM322 1063q0 -57 22.5 -101.5t54 -72t63.5 -51t54.5 -52t22.5 -63.5q0 -29 -17.5 -55t-44 -45.5t-57.5 -44.5t-57.5 -50.5t-44 -66t-17.5 -88.5q0 -114 97.5 -188t248.5 -74
t248.5 74t97.5 188q0 48 -18 88.5t-45 66t-58.5 50.5t-58.5 44.5t-45 45.5t-18 55q0 35 23 63.5t56 52t65.5 51t55.5 72t23 101.5q0 117 -91.5 188.5t-234.5 71.5q-146 0 -235.5 -71t-89.5 -189z" />
    <glyph glyph-name="zero.dnom" horiz-adv-x="751" 
d="M354 -10q-153 0 -224 102t-71 303v70q0 201 71 303t224 102h43q155 0 225 -101.5t70 -303.5v-70q0 -202 -70 -303.5t-225 -101.5h-43zM358 88h37q98 0 143.5 72.5t45.5 220.5v98q0 148 -45.5 220.5t-143.5 72.5h-37q-99 0 -144.5 -72.5t-45.5 -220.5v-98
q0 -148 45.5 -220.5t144.5 -72.5z" />
    <glyph glyph-name="one.dnom" horiz-adv-x="415" 
d="M336 860v-860h-109v678q-22 -31 -80 -31h-79v98h69q44 0 66 25t26 90h107z" />
    <glyph glyph-name="two.dnom" horiz-adv-x="602" 
d="M76 580q-4 133 73.5 211.5t210.5 78.5q124 0 202.5 -71t78.5 -187q0 -172 -201 -272l-123 -61q-60 -31 -102.5 -78t-42.5 -103h473v-98h-579v78q0 103 62 175.5t146 115.5l132 67q124 65 124 178q0 71 -48 115.5t-122 44.5q-82 0 -128.5 -53t-43.5 -141h-112z" />
    <glyph glyph-name="three.dnom" horiz-adv-x="735" 
d="M379 -10q-133 0 -221 78t-88 202h106q0 -82 57.5 -132t145.5 -50q90 0 141 41.5t51 116.5q0 73 -51 112t-141 39h-70v97h68q74 0 118 41t44 106q0 62 -45.5 97.5t-122.5 35.5q-73 0 -117.5 -42t-48.5 -116h-103q4 115 79.5 184.5t191.5 69.5q120 0 198 -64.5t78 -162.5
q0 -61 -35 -112.5t-88 -77.5q71 -26 114.5 -80t43.5 -129q0 -119 -88.5 -186.5t-216.5 -67.5z" />
    <glyph glyph-name="four.dnom" horiz-adv-x="796" 
d="M500 0v213h-459v96l442 551h127v-551h131v-96h-131v-213h-110zM156 309h344v430z" />
    <glyph glyph-name="five.dnom" horiz-adv-x="630" 
d="M360 -10q-116 0 -197.5 73t-92.5 181h102q9 -74 59 -116t129 -42q94 0 150.5 52.5t56.5 142.5q0 92 -56.5 147t-150.5 55q-69 0 -117.5 -26.5t-68.5 -73.5h-86l66 477h460v-98h-378l-37 -254q31 28 79 46.5t93 18.5q136 0 220.5 -80.5t84.5 -211.5q0 -130 -88 -210.5
t-228 -80.5z" />
    <glyph glyph-name="six.dnom" horiz-adv-x="665" 
d="M395 575q133 0 218 -82.5t85 -209.5t-87.5 -210t-221.5 -83q-147 0 -233 107.5t-86 287.5q0 234 93.5 359.5t242.5 125.5q118 0 198.5 -63t97.5 -166h-106q-14 62 -64 98.5t-124 36.5q-102 0 -167 -94.5t-71 -239.5q28 58 91 95.5t134 37.5zM389 84q89 0 146 56.5
t57 144.5q0 86 -57 141t-146 55t-145 -55t-56 -141q0 -88 56 -144.5t145 -56.5z" />
    <glyph glyph-name="seven.dnom" horiz-adv-x="608" 
d="M219 0q0 115 26.5 215.5t106.5 228.5l197 318h-498v98h621v-90l-234 -387q-66 -110 -88 -197t-22 -186h-109z" />
    <glyph glyph-name="eight.dnom" horiz-adv-x="751" 
d="M377 -10q-131 0 -219 68t-88 186q0 77 44 136t113 83q-54 26 -88.5 73t-34.5 107q0 100 76 163.5t197 63.5t196.5 -63.5t75.5 -163.5q0 -60 -34.5 -107t-90.5 -73q70 -24 114 -83t44 -136q0 -117 -87.5 -185.5t-217.5 -68.5zM377 504q75 0 120.5 37t45.5 100t-45 99
t-121 36q-77 0 -121.5 -36t-44.5 -99t45 -100t121 -37zM377 86q90 0 143 43t53 117q0 75 -53 118.5t-143 43.5t-144.5 -44t-54.5 -118t54.5 -117t144.5 -43z" />
    <glyph glyph-name="nine.dnom" horiz-adv-x="774" 
d="M379 285q-133 0 -218 83t-85 210t87.5 209.5t221.5 82.5q147 0 233.5 -108t86.5 -287q0 -234 -93.5 -359.5t-242.5 -125.5q-119 0 -199.5 63t-97.5 166h106q14 -62 64.5 -98.5t124.5 -36.5q102 0 166.5 94.5t70.5 239.5q-28 -58 -91 -95.5t-134 -37.5zM385 776
q-89 0 -146 -56.5t-57 -144.5q0 -86 57 -141t146 -55t145 55t56 141q0 88 -56 144.5t-145 56.5z" />
    <glyph glyph-name="zero.numr" horiz-adv-x="751" 
d="M354 563q-153 0 -224 102.5t-71 303.5v69q0 201 71 303.5t224 102.5h43q154 0 224.5 -102t70.5 -304v-69q0 -202 -70.5 -304t-224.5 -102h-43zM358 662h37q98 0 143.5 72t45.5 220v99q0 148 -45.5 220.5t-143.5 72.5h-37q-99 0 -144.5 -72.5t-45.5 -220.5v-99
q0 -148 45.5 -220t144.5 -72z" />
    <glyph glyph-name="one.numr" horiz-adv-x="425" 
d="M336 1434v-861h-109v678q-21 -30 -80 -30h-79v98h69q44 0 66 25t26 90h107z" />
    <glyph glyph-name="two.numr" horiz-adv-x="688" 
d="M76 1153q-4 133 73.5 212t210.5 79q124 0 202.5 -71t78.5 -187q0 -173 -201 -273l-123 -61q-60 -31 -102.5 -77.5t-42.5 -102.5h473v-99h-579v78q0 103 62 175.5t146 115.5l132 68q124 65 124 178q0 71 -48 115.5t-122 44.5q-81 0 -128 -53.5t-44 -141.5h-112z" />
    <glyph glyph-name="three.numr" horiz-adv-x="735" 
d="M379 563q-132 0 -220.5 78.5t-88.5 202.5h106q0 -82 57.5 -132t145.5 -50q90 0 141 41t51 116q0 73 -51 112.5t-141 39.5h-70v96h68q74 0 118 41t44 106q0 63 -45.5 98.5t-122.5 35.5q-73 0 -117.5 -42t-48.5 -116h-103q4 115 79.5 184.5t191.5 69.5q120 0 198 -64.5
t78 -162.5q0 -61 -35 -113t-88 -78q71 -26 114.5 -80t43.5 -129q0 -119 -88.5 -186.5t-216.5 -67.5z" />
    <glyph glyph-name="four.numr" horiz-adv-x="796" 
d="M500 573v213h-459v97l442 551h127v-551h131v-97h-131v-213h-110zM156 883h344v430z" />
    <glyph glyph-name="five.numr" horiz-adv-x="733" 
d="M360 563q-116 0 -197.5 73t-92.5 181h102q9 -74 59 -116t129 -42q94 0 150.5 52.5t56.5 142.5q0 92 -56.5 147.5t-150.5 55.5q-68 0 -117 -26.5t-69 -74.5h-86l66 478h460v-99h-378l-37 -254q31 28 79 47t93 19q136 0 220.5 -81t84.5 -212q0 -130 -88 -210.5t-228 -80.5z
" />
    <glyph glyph-name="six.numr" horiz-adv-x="772" 
d="M395 1149q133 0 218 -83t85 -210t-87.5 -210t-221.5 -83q-147 0 -233 107.5t-86 287.5q0 234 93.5 360t242.5 126q118 0 198 -63.5t98 -166.5h-106q-14 62 -64 99t-124 37q-102 0 -167 -94.5t-71 -239.5q28 58 91 95.5t134 37.5zM389 657q89 0 146 56.5t57 144.5
q0 86 -57 141.5t-146 55.5t-145 -55t-56 -142q0 -88 56 -144.5t145 -56.5z" />
    <glyph glyph-name="seven.numr" horiz-adv-x="641" 
d="M219 573q0 115 26.5 216t106.5 229l197 317h-498v99h621v-91l-234 -387q-66 -110 -88 -197t-22 -186h-109z" />
    <glyph glyph-name="eight.numr" horiz-adv-x="751" 
d="M377 563q-131 0 -219 68t-88 186q0 77 44 136t113 83q-54 26 -88.5 73.5t-34.5 107.5q0 100 76 163.5t197 63.5t196.5 -63.5t75.5 -163.5q0 -60 -34.5 -107.5t-90.5 -73.5q70 -24 114 -83t44 -136q0 -117 -87.5 -185.5t-217.5 -68.5zM377 1077q75 0 120.5 37t45.5 100
t-45.5 99.5t-120.5 36.5q-77 0 -121.5 -36.5t-44.5 -99.5t45 -100t121 -37zM377 659q90 0 143 43t53 117q0 75 -53 118.5t-143 43.5t-144.5 -44t-54.5 -118t54.5 -117t144.5 -43z" />
    <glyph glyph-name="nine.numr" horiz-adv-x="774" 
d="M379 858q-133 0 -218 83t-85 210t87.5 210t221.5 83q147 0 233.5 -108t86.5 -287q0 -234 -93.5 -360t-242.5 -126q-118 0 -199 63.5t-98 166.5h106q14 -62 64.5 -99t124.5 -37q102 0 166.5 94.5t70.5 239.5q-28 -58 -91 -95.5t-134 -37.5zM385 1350q-89 0 -146 -56.5
t-57 -144.5q0 -86 57 -141.5t146 -55.5t145 55t56 142q0 88 -56 144.5t-145 56.5z" />
    <glyph glyph-name="colon.cap" horiz-adv-x="493" 
d="M174 1167h145v-163h-145v163zM174 410h145v-164h-145v164z" />
    <glyph glyph-name="bullet.case" horiz-adv-x="503" 
d="M252 588q-69 0 -116.5 48t-47.5 116t47.5 115.5t116.5 47.5q68 0 116 -48t48 -115q0 -68 -48 -116t-116 -48z" />
    <glyph glyph-name="emdash.alt" horiz-adv-x="2359" 
d="M156 592v115h2048v-115h-2048z" />
    <glyph glyph-name="quotesinglbase.ss05" horiz-adv-x="452" 
d="M360 164v-184q0 -108 -57 -169t-158 -61h-26v98h26q51 0 79 35t28 97v20h-113v164h221z" />
    <glyph glyph-name="quotedblbase.ss05" horiz-adv-x="839" 
d="M152 164h221v-184q0 -108 -57 -169t-158 -61h-27v98h27q51 0 78.5 35t27.5 97v20h-112v164zM694 164v-184q0 -108 -57 -169t-158 -61h-26v98h26q51 0 79 35t28 97v20h-113v164h221z" />
    <glyph glyph-name="quotedblleft.ss05" horiz-adv-x="839" 
d="M145 1221q0 107 57 168t158 61h27v-98h-27q-51 0 -78.5 -34.5t-27.5 -96.5v-21h113v-164h-222v185zM682 1352q-51 0 -79 -34.5t-28 -96.5v-21h113v-164h-221v185q0 107 57 168t158 61h27v-98h-27z" />
    <glyph glyph-name="quotedblright.ss05" horiz-adv-x="839" 
d="M152 1450h221v-184q0 -108 -57 -169t-158 -61h-27v99h27q51 0 78.5 34.5t27.5 96.5v20h-112v164zM694 1450v-184q0 -108 -57 -169t-158 -61h-26v99h26q51 0 79 34.5t28 96.5v20h-113v164h221z" />
    <glyph glyph-name="quoteleft.ss05" horiz-adv-x="450" 
d="M342 1352q-51 0 -78.5 -34.5t-27.5 -96.5v-21h112v-164h-221v185q0 107 57 168t158 61h27v-98h-27z" />
    <glyph glyph-name="quoteright.ss05" horiz-adv-x="518" 
d="M373 1450v-184q0 -108 -57 -169t-158 -61h-27v99h27q51 0 78.5 34.5t27.5 96.5v20h-112v164h221z" />
    <glyph glyph-name="circle.rights" horiz-adv-x="1908" 
d="M954 -82q-164 0 -312 62.5t-254.5 169t-169 255t-62.5 312.5t62.5 312.5t169 255t254.5 169t312 62.5t312.5 -62.5t255 -169t169 -255t62.5 -312.5t-62.5 -312.5t-169 -255t-255 -169t-312.5 -62.5zM954 8q192 0 353 94t254 257t94 358q-1 146 -56 277.5t-148.5 226
t-223 149.5t-273.5 55t-274 -55t-223.5 -149.5t-148.5 -226t-56 -277.5q1 -146 56 -277.5t148.5 -226t223.5 -150t274 -55.5z" />
    <glyph glyph-name="caroncomb.alt" horiz-adv-x="0" 
d="M-295 1147l68 344h129l-125 -344h-72z" />
    <glyph glyph-name="gravecomb.viet" horiz-adv-x="0" 
d="M-125 1145h-131l-215 303h158z" />
    <glyph glyph-name="acutecomb.viet" horiz-adv-x="0" 
d="M-367 1145l189 303h158l-216 -303h-131z" />
    </font>
</defs>
</svg>
