<?xml version="1.0" standalone="no"?>
<!DOCTYPE svg PUBLIC "-//W3C//DTD SVG 1.1//EN" "http://www.w3.org/Graphics/SVG/1.1/DTD/svg11.dtd" >
<svg xmlns="http://www.w3.org/2000/svg" xmlns:xlink="http://www.w3.org/1999/xlink" version="1.1">
<metadata>
Created by FontForge 20170731 at Sun Jul 24 19:05:40 2022
 By Aleksey,,,
Copyright (c) 2017 by Martin Va'cha. All rights reserved.
</metadata>
<defs>
<font id="Roobert-LightItalic" horiz-adv-x="1216" >
  <font-face 
    font-family="Roobert Light"
    font-weight="300"
    font-style="italic"
    font-stretch="normal"
    units-per-em="2048"
    panose-1="0 0 4 0 0 0 0 0 0 0"
    ascent="1630"
    descent="-418"
    x-height="1032"
    cap-height="1434"
    bbox="-578 -504 2789.47 2247"
    underline-thickness="102"
    underline-position="-307"
    slope="-11"
    unicode-range="U+000D-266B"
  />
<missing-glyph horiz-adv-x="2291" 
d="M1128 -418v2048q-201 -7 -384 -92t-315.5 -222.5t-211 -324t-78.5 -387.5q0 -270 132 -502t359.5 -371.5t497.5 -148.5zM1198 1624v-2036q85 24 156.5 166.5t113 368t41.5 481.5q0 389 -91.5 685t-219.5 335zM1575 604q0 -326 -63 -590.5t-169 -394.5q150 56 268.5 199.5
t185.5 349t67 436.5q0 229 -66.5 435t-185.5 351t-269 203q106 -131 169 -396.5t63 -592.5zM1544 -344q287 115 465 375t178 573t-179.5 574.5t-469.5 377.5q182 -145 287.5 -400t105.5 -552q0 -296 -104.5 -550.5t-282.5 -397.5z" />
    <glyph glyph-name="f_f.liga" unicode="ff" horiz-adv-x="1388" 
d="M1296 1331q-78 0 -134 -50.5t-75 -139.5l-20 -109h317v-119h-340l-178 -913h-129l178 913h-466l-179 -913h-129l178 913h-208v119h231l20 109q28 142 126.5 225.5t238.5 83.5h154l-25 -119h-156q-78 0 -133.5 -50.5t-74.5 -139.5l-21 -109h467l20 109q28 142 126.5 225.5
t238.5 83.5h154l-25 -119h-156z" />
    <glyph glyph-name="f_f_i.liga" unicode="ffi" horiz-adv-x="1705" 
d="M1675 1032l-200 -1032h-129l178 913h-449l-178 -913h-129l178 913h-467l-178 -913h-129l178 913h-209v119h232l20 109q28 142 126.5 225.5t238.5 83.5h153l-24 -119h-156q-78 0 -134 -50.5t-75 -139.5l-20 -109h467l20 109q28 142 126.5 225.5t238.5 83.5h153l-24 -119
h-156q-78 0 -134 -50.5t-75 -139.5l-20 -109h577z" />
    <glyph glyph-name="f_f_l.liga" unicode="ffl" horiz-adv-x="1763" 
d="M1667 1450h129l-283 -1450h-129l179 913h-488l-178 -913h-129l178 913h-467l-178 -913h-129l178 913h-209v119h232l20 109q28 142 126.5 225.5t238.5 83.5h153l-24 -119h-156q-78 0 -134 -50.5t-75 -139.5l-20 -109h467l20 109q28 142 126.5 225.5t238.5 83.5h153
l-24 -119h-156q-78 0 -134 -50.5t-75 -139.5l-20 -109h487z" />
    <glyph glyph-name="f_i.liga" unicode="fi" horiz-adv-x="1110" 
d="M1079 1032l-200 -1032h-129l178 913h-449l-178 -913h-129l178 913h-209v119h232l20 109q28 142 126.5 225.5t238.5 83.5h153l-24 -119h-156q-78 0 -134 -50.5t-75 -139.5l-20 -109h577z" />
    <glyph glyph-name="f_l.liga" unicode="fl" horiz-adv-x="1167" 
d="M1071 1450h129l-282 -1450h-130l179 913h-488l-178 -913h-129l178 913h-209v119h232l20 109q28 142 126.5 225.5t238.5 83.5h153l-24 -119h-156q-78 0 -134 -50.5t-75 -139.5l-20 -109h487z" />
    <glyph glyph-name="r_f.liga" unicode="rf" horiz-adv-x="1314" 
d="M694 0l221 1141q28 142 126.5 225.5t238.5 83.5h154l-25 -119h-156q-78 0 -134 -50.5t-75 -139.5l-20 -109h317v-119h-340l-178 -913h-129zM772 913h-135q-66 0 -121.5 -24.5t-95.5 -65.5t-72 -102.5t-53 -129.5t-37 -151l-86 -440h-129l201 1032h129l-43 -219
q54 110 133 164.5t196 54.5h136z" />
    <glyph glyph-name="r_t.liga" unicode="rt" horiz-adv-x="1349" 
d="M965 1370h129l-66 -338h318v-119h-340l-119 -604q-17 -89 19.5 -139.5t115.5 -50.5h156l-23 -119h-154q-140 0 -205.5 83.5t-37.5 225.5zM776 913h-135q-66 0 -121.5 -24.5t-95.5 -65.5t-72 -102.5t-53 -129.5t-37 -151l-86 -440h-129l201 1032h129l-43 -219
q54 110 133.5 164.5t196.5 54.5h135z" />
    <glyph glyph-name="t_t.liga" unicode="tt" horiz-adv-x="1382" 
d="M1038 913l-120 -614q-15 -81 21 -130.5t108 -49.5h163l-22 -119h-162q-134 0 -199 82t-39 217l121 614h-467l-120 -614q-15 -81 21 -130.5t108 -49.5h163l-22 -119h-162q-133 0 -198 82t-39 217l120 614h-209v119h232l65 338h129l-65 -338h467l65 338h129l-65 -338h317
v-119h-340z" />
    <glyph glyph-name=".notdef" horiz-adv-x="2291" 
d="M1128 -418v2048q-201 -7 -384 -92t-315.5 -222.5t-211 -324t-78.5 -387.5q0 -270 132 -502t359.5 -371.5t497.5 -148.5zM1198 1624v-2036q85 24 156.5 166.5t113 368t41.5 481.5q0 389 -91.5 685t-219.5 335zM1575 604q0 -326 -63 -590.5t-169 -394.5q150 56 268.5 199.5
t185.5 349t67 436.5q0 229 -66.5 435t-185.5 351t-269 203q106 -131 169 -396.5t63 -592.5zM1544 -344q287 115 465 375t178 573t-179.5 574.5t-469.5 377.5q182 -145 287.5 -400t105.5 -552q0 -296 -104.5 -550.5t-282.5 -397.5z" />
    <glyph glyph-name=".null" horiz-adv-x="0" 
 />
    <glyph glyph-name="nonmarkingreturn" horiz-adv-x="682" 
 />
    <glyph glyph-name="CR" unicode="&#xd;" horiz-adv-x="516" 
 />
    <glyph glyph-name="space" unicode=" " horiz-adv-x="501" 
 />
    <glyph glyph-name="exclam" unicode="!" horiz-adv-x="493" 
d="M160 299l176 1135h178l-266 -1135h-88zM106 164h146l-33 -164h-145z" />
    <glyph glyph-name="quotedbl" unicode="&#x22;" horiz-adv-x="796" 
d="M276 983l48 467h190l-137 -467h-101zM600 983l47 467h191l-138 -467h-100z" />
    <glyph glyph-name="numbersign" unicode="#" horiz-adv-x="1488" 
d="M184 0l185 438h-265l21 111h287l141 336h-272l20 110h297l184 439h119l-182 -439h360l185 439h118l-184 -439h264l-20 -110h-287l-141 -336h272l-20 -111h-297l-185 -438h-118l182 438h-361l-184 -438h-119zM530 549h365l141 336h-364z" />
    <glyph glyph-name="dollar" unicode="$" horiz-adv-x="1251" 
d="M1214 1034h-137q8 131 -89 210t-267 79q-154 0 -258.5 -72t-104.5 -194q0 -63 27 -109t72.5 -72t104 -44.5t124 -33t130.5 -30.5t123.5 -42.5t104 -64t72.5 -100.5t27 -147q0 -129 -82.5 -229t-211 -150.5t-276.5 -50.5h-10l-37 -181l-123 2l37 191q-190 34 -292.5 160
t-79.5 309h137q-9 -163 93 -258.5t296 -95.5q81 0 151.5 18t126.5 53t88.5 92.5t32.5 131.5q0 64 -26.5 111.5t-72 75t-104 48t-123 35.5t-129 32t-123 43t-104 63t-72 97.5t-26.5 141.5q0 112 71.5 203t187 141t249.5 53l35 168h125l-35 -176q180 -26 278.5 -134.5
t89.5 -273.5z" />
    <glyph glyph-name="percent" unicode="%" horiz-adv-x="1679" 
d="M479 795q-135 0 -209 95.5t-49 233.5q25 139 128 232.5t233 93.5q133 0 206 -95t50 -231q-21 -130 -122 -229.5t-237 -99.5zM158 0l1319 1434h125l-1319 -1434h-125zM485 891q88 0 153.5 65.5t84.5 165.5t-20.5 166t-129.5 66q-88 0 -153 -66t-84 -166t20 -165.5
t129 -65.5zM1180 -16q-135 0 -209 95.5t-49 233.5q25 139 127.5 232.5t232.5 93.5q133 0 206 -95t50 -231q-21 -131 -121.5 -230t-236.5 -99zM1186 80q88 0 153 65.5t84 165.5t-20 166t-129 66q-88 0 -153.5 -66t-84.5 -166t20.5 -165.5t129.5 -65.5z" />
    <glyph glyph-name="ampersand" unicode="&#x26;" horiz-adv-x="1374" 
d="M1307 516q-75 0 -137 -30.5t-101 -84.5l-78 -110l213 -291h-145l-144 190q-99 -109 -221.5 -157.5t-240.5 -48.5q-194 0 -293.5 110.5t-65.5 288.5q11 59 39 110.5t62.5 89.5t84.5 74.5t95 61t106 53.5q-149 208 -119 352q28 145 141.5 235.5t268.5 90.5q150 0 236 -89
t61 -218q-12 -63 -40.5 -118.5t-64 -95.5t-88 -78.5t-98 -64t-108.5 -55.5l256 -348l47 63q48 63 95.5 103.5t91.5 57.5t75.5 22.5t71.5 5.5v-119zM492 1116q-8 -47 8.5 -102t38.5 -93t61 -94q71 34 118.5 60t98 64t80.5 83t41 99q17 91 -35 148.5t-153 57.5
q-95 0 -166.5 -61.5t-91.5 -161.5zM475 102q211 0 371 181l-295 393q-69 -32 -116 -58.5t-95.5 -62.5t-77.5 -80t-39 -96q-26 -133 39.5 -205t212.5 -72z" />
    <glyph glyph-name="quotesingle" unicode="'" horiz-adv-x="473" 
d="M276 983l48 467h190l-137 -467h-101z" />
    <glyph glyph-name="parenleft" unicode="(" horiz-adv-x="546" 
d="M272 -172q-107 180 -138 411t18 488q40 204 157.5 428t288.5 397l84 -75q-163 -186 -266 -379t-137 -371q-90 -465 92 -838z" />
    <glyph glyph-name="parenright" unicode=")" horiz-adv-x="544" 
d="M12 -178l-82 74q331 381 410 790q80 412 -102 791l98 63q106 -180 140.5 -404t-9.5 -450q-43 -229 -162.5 -457.5t-292.5 -406.5z" />
    <glyph glyph-name="asterisk" unicode="*" horiz-adv-x="944" 
d="M328 735l-76 66l237 248l-276 100l47 96l283 -100l59 305h105l-60 -305l314 98l16 -98l-330 -109l150 -258l-84 -53l-148 262z" />
    <glyph glyph-name="plus" unicode="+" horiz-adv-x="1218" 
d="M1100 707l-23 -115h-397l-76 -395h-115l76 395h-395l23 115h395l78 397h114l-78 -397h398z" />
    <glyph glyph-name="comma" unicode="," horiz-adv-x="518" 
d="M-35 -113h70q40 0 69.5 33t42.5 100l31 162h129l-31 -162q-24 -122 -94 -186.5t-170 -64.5h-69z" />
    <glyph glyph-name="hyphen" unicode="-" horiz-adv-x="950" 
d="M125 592l22 115h730l-23 -115h-729z" />
    <glyph glyph-name="period" unicode="." horiz-adv-x="493" 
d="M106 164h146l-33 -164h-145z" />
    <glyph glyph-name="slash" unicode="/" horiz-adv-x="843" 
d="M-55 -2l921 1436h111l-924 -1436h-108z" />
    <glyph glyph-name="zero" unicode="0" horiz-adv-x="1222" 
d="M494 -16q-254 0 -341.5 168.5t-23.5 502.5l25 123q32 169 78.5 290.5t116 209t166 130t224.5 42.5h68q255 0 341.5 -168.5t22.5 -503.5l-24 -123q-33 -170 -79 -290.5t-115.5 -208t-166.5 -130t-225 -42.5h-67zM502 111h65q182 0 286.5 133t158.5 411l24 123
q57 272 3 408.5t-236 136.5h-66q-182 0 -287 -133.5t-159 -411.5l-25 -123q-56 -271 -1 -407.5t237 -136.5z" />
    <glyph glyph-name="one" unicode="1" horiz-adv-x="673" 
d="M696 1434l-278 -1434h-137l227 1167q-41 -47 -123 -47h-145l24 127h121q67 0 107 40t67 147h137z" />
    <glyph glyph-name="two" unicode="2" horiz-adv-x="1138" 
d="M231 981q25 216 169 342.5t362 126.5q199 0 312 -117t77 -305q-28 -138 -135 -253t-285 -197l-219 -101q-57 -27 -109.5 -61t-102 -78t-84.5 -99t-46 -112h815l-24 -127h-947l19 94q18 95 67 178.5t116.5 145t132.5 104.5t136 76l236 111q133 62 199.5 140t87.5 183
q26 128 -55 209.5t-216 81.5q-148 0 -246.5 -92t-115.5 -250h-144z" />
    <glyph glyph-name="three" unicode="3" horiz-adv-x="1208" 
d="M543 -16q-142 0 -250 58.5t-159 165.5t-25 241h137q-29 -151 60.5 -244.5t262.5 -93.5q149 0 256.5 74t132.5 194q26 138 -55 219.5t-244 81.5h-108l24 127h109q137 0 230.5 75t117.5 195q23 114 -55 180t-221 66q-133 0 -219.5 -76t-114.5 -213h-141q31 188 169 302
t330 114q199 0 313.5 -105.5t82.5 -267.5q-21 -108 -100.5 -196.5t-180.5 -128.5q112 -36 172.5 -139.5t34.5 -233.5q-26 -132 -110 -223t-198 -131.5t-251 -40.5z" />
    <glyph glyph-name="four" unicode="4" horiz-adv-x="1343" 
d="M750 0l73 379h-755v127l927 928h170l-180 -928h242v-127h-266l-74 -379h-137zM217 506h631l153 788z" />
    <glyph glyph-name="five" unicode="5" 
d="M514 -16q-209 0 -323.5 115.5t-94.5 297.5h135q-10 -137 70.5 -211.5t237.5 -74.5q160 0 276 95.5t148 260.5q34 167 -50 268t-256 101q-127 0 -225.5 -49t-148.5 -136h-107l260 783h754l-25 -127h-649l-160 -476q67 54 162 90.5t174 36.5q229 0 343 -135.5t71 -355.5
q-41 -218 -206 -350.5t-386 -132.5z" />
    <glyph glyph-name="six" unicode="6" horiz-adv-x="1275" 
d="M729 958q221 0 337 -137.5t75 -349.5q-42 -215 -202 -351t-380 -136q-157 0 -264.5 78t-148.5 226t-3 343q40 203 113.5 361.5t168 258t203.5 150.5t226 51q189 0 301 -102t109 -271h-144q-3 116 -79 181t-212 65q-180 0 -329 -173.5t-211 -436.5q67 108 189.5 175.5
t250.5 67.5zM588 109q141 0 259.5 105.5t147.5 258.5q31 154 -59.5 258.5t-253.5 104.5q-140 0 -257.5 -101.5t-145.5 -240.5q-32 -168 56.5 -276.5t252.5 -108.5z" />
    <glyph glyph-name="seven" unicode="7" horiz-adv-x="1157" 
d="M287 0q18 88 39 158.5t61.5 164.5t109 201t165.5 228l448 555h-866l24 127h1024l-22 -115l-531 -674q-107 -137 -175 -261.5t-93.5 -203t-46.5 -180.5h-137z" />
    <glyph glyph-name="eight" unicode="8" horiz-adv-x="1236" 
d="M539 -16q-198 0 -322.5 103t-124.5 261q0 147 106 273t242 151q-164 77 -164 258q0 117 70 213.5t189 151.5t260 55q173 0 276 -84t103 -229q0 -127 -78 -221t-205 -144q87 -34 147 -117t60 -202q0 -99 -45.5 -187t-121.5 -149.5t-178.5 -97t-213.5 -35.5zM686 825
q150 0 247 88t97 201q0 96 -72.5 152.5t-191.5 56.5q-150 0 -248 -84.5t-98 -200.5q0 -99 74 -156t192 -57zM549 111q174 0 290.5 100.5t116.5 239.5q0 118 -88.5 182.5t-224.5 64.5q-176 0 -293 -101.5t-117 -240.5q0 -118 90.5 -181.5t225.5 -63.5z" />
    <glyph glyph-name="nine" unicode="9" horiz-adv-x="1275" 
d="M625 475q-221 0 -337 138t-75 350q42 215 202 351t380 136q239 0 356 -176.5t59 -470.5q-40 -203 -113.5 -361.5t-168 -258t-203 -150.5t-225.5 -51q-189 0 -301 101.5t-109 270.5h143q3 -116 79 -180.5t212 -64.5q120 0 230.5 81.5t190.5 219.5t120 309
q-67 -109 -189.5 -176.5t-250.5 -67.5zM766 1325q-141 0 -260 -105.5t-148 -258.5q-31 -154 60 -258.5t254 -104.5q140 0 257.5 101.5t145.5 240.5q32 168 -56.5 276.5t-252.5 108.5z" />
    <glyph glyph-name="colon" unicode=":" horiz-adv-x="493" 
d="M252 922h145l-30 -164h-146zM106 164h146l-33 -164h-145z" />
    <glyph glyph-name="semicolon" unicode=";" horiz-adv-x="518" 
d="M313 922h146l-31 -164h-145zM-35 -113h70q40 0 69.5 33t42.5 100l31 162h129l-31 -162q-24 -122 -94 -186.5t-170 -64.5h-69z" />
    <glyph glyph-name="less" unicode="&#x3c;" horiz-adv-x="921" 
d="M766 197l-668 368l27 140l811 368l-25 -133l-700 -311l580 -312z" />
    <glyph glyph-name="equal" unicode="=" horiz-adv-x="1218" 
d="M207 780l22 115h908l-23 -115h-907zM119 322l20 114h908l-21 -114h-907z" />
    <glyph glyph-name="greater" unicode="&#x3e;" horiz-adv-x="921" 
d="M33 197l24 127l703 319l-578 311l21 119l667 -368l-26 -140z" />
    <glyph glyph-name="question" unicode="?" horiz-adv-x="1044" 
d="M446 299q-156 0 -229.5 68t-46.5 206q16 79 63 133t110 81.5t136.5 45t146 33t134.5 37.5t106.5 66t57.5 110q23 117 -39 180.5t-197 63.5q-133 0 -237 -73.5t-134 -200.5h-139q44 183 192.5 292t342.5 109q201 0 298.5 -98.5t65.5 -266.5q-16 -84 -65 -144.5t-115 -93.5
t-142 -56t-151.5 -40t-138.5 -36.5t-107.5 -54.5t-54.5 -87q-16 -84 27.5 -119.5t136.5 -35.5h303v-119h-324zM385 164h145l-32 -164h-146z" />
    <glyph glyph-name="at" unicode="@" horiz-adv-x="1849" 
d="M1307 1470q135 0 246.5 -45t182.5 -122t100.5 -184.5t6.5 -227.5l-59 -303q-37 -186 -138 -286.5t-255 -100.5q-91 0 -150.5 40t-66.5 107q-43 -68 -134.5 -109.5t-201.5 -41.5q-190 0 -271 123t-43 321q32 170 161 286.5t316 116.5q85 0 158 -40.5t101 -104.5l26 133
h123l-113 -583q-12 -59 20.5 -95.5t96.5 -36.5q184 0 238 271l59 303q40 206 -77 330.5t-351 124.5h-350q-255 0 -408 -115.5t-196 -339.5l-105 -529q-41 -218 74.5 -349.5t349.5 -131.5h395v-114h-417q-181 0 -315 78t-193 215t-27 302l105 529q57 286 249.5 432.5
t511.5 146.5h351zM866 299q130 0 224.5 87.5t123.5 234.5q28 147 -32.5 234t-190.5 87q-129 0 -224 -84.5t-122 -216.5q-31 -160 29 -251t192 -91z" />
    <glyph glyph-name="A" unicode="A" horiz-adv-x="1316" 
d="M1053 0l-78 408h-674l-240 -408h-145l856 1434h129l299 -1434h-147zM375 535h575l-143 737z" />
    <glyph glyph-name="B" unicode="B" horiz-adv-x="1245" 
d="M63 0l279 1434h477q184 0 295.5 -106.5t85.5 -262.5q-19 -112 -94 -187t-180 -110q116 -41 172.5 -145t31.5 -230q-35 -180 -167 -286.5t-345 -106.5h-555zM362 827h361q140 0 225.5 60t108.5 180q24 118 -47.5 179t-212.5 61h-342zM225 127h387q322 0 375 266
q29 152 -52.5 229.5t-252.5 77.5h-346z" />
    <glyph glyph-name="C" unicode="C" horiz-adv-x="1449" 
d="M717 -16q-120 0 -225 39t-180 109t-125 167t-61 212.5t11 246.5q64 331 274 511.5t531 180.5q148 0 269.5 -58t190 -161.5t62.5 -229.5h-147q7 137 -109.5 229.5t-289.5 92.5q-243 0 -415.5 -153t-221.5 -412q-56 -290 74.5 -468.5t387.5 -178.5q160 0 289.5 91
t171.5 230h150q-63 -197 -237 -322.5t-400 -125.5z" />
    <glyph glyph-name="D" unicode="D" horiz-adv-x="1368" 
d="M63 0l279 1434h385q146 0 269.5 -56.5t203.5 -152t113 -228.5t4 -280q-68 -347 -279.5 -532t-548.5 -185h-426zM225 127h293q244 0 420.5 160t232.5 430q52 258 -78.5 424t-385.5 166h-252z" />
    <glyph glyph-name="E" unicode="E" horiz-adv-x="1155" 
d="M63 0l279 1434h875l-25 -127h-737l-97 -500h592v-127h-616l-109 -553h760l-24 -127h-898z" />
    <glyph glyph-name="F" unicode="F" horiz-adv-x="1110" 
d="M63 0l279 1434h875l-25 -127h-737l-101 -516h592v-127h-616l-129 -664h-138z" />
    <glyph glyph-name="G" unicode="G" horiz-adv-x="1499" 
d="M698 -16q-133 0 -249 52t-198.5 151.5t-115 243.5t1.5 327q28 143 87 259.5t137 196t174 133.5t198 78.5t209 24.5q158 0 285 -58t196.5 -162.5t61.5 -234.5h-152q2 93 -53.5 168.5t-151 117.5t-210.5 42q-244 0 -412 -140.5t-223 -424.5q-29 -147 -7 -266.5t82 -204
t154.5 -130.5t210.5 -46q195 0 341 97.5t179 264.5q11 56 -17 89.5t-87 33.5h-326v127h358q38 0 78.5 -15t76 -43.5t52 -79t4.5 -112.5l-92 -473h-131l51 258q-80 -125 -215.5 -199.5t-296.5 -74.5z" />
    <glyph glyph-name="H" unicode="H" horiz-adv-x="1406" 
d="M1286 1434h135l-278 -1434h-135l131 678h-807l-131 -678h-138l279 1434h137l-123 -629h807z" />
    <glyph glyph-name="I" unicode="I" horiz-adv-x="464" 
d="M63 0l279 1434h137l-278 -1434h-138z" />
    <glyph glyph-name="J" unicode="J" horiz-adv-x="626" 
d="M-53 127h196q66 0 112.5 55.5t68.5 161.5l211 1090h137l-211 -1090q-34 -168 -121.5 -256t-220.5 -88h-172v127z" />
    <glyph glyph-name="K" unicode="K" horiz-adv-x="1255" 
d="M1358 1434l-682 -578l469 -856h-160l-416 766l-260 -221l-106 -545h-140l279 1434h139l-137 -705l834 705h180z" />
    <glyph glyph-name="L" unicode="L" horiz-adv-x="1067" 
d="M63 0l279 1434h137l-254 -1307h736l-25 -127h-873z" />
    <glyph glyph-name="M" unicode="M" horiz-adv-x="1691" 
d="M63 0l279 1434h174l268 -1231l748 1231h174l-279 -1434h-137l228 1171l-709 -1171h-127l-254 1171l-227 -1171h-138z" />
    <glyph glyph-name="N" unicode="N" horiz-adv-x="1413" 
d="M63 0l279 1434h156l551 -1219l237 1219h141l-278 -1434h-156l-553 1214l-235 -1214h-142z" />
    <glyph glyph-name="O" unicode="O" horiz-adv-x="1574" 
d="M750 -16q-280 0 -454.5 167t-174.5 435q0 170 59.5 327.5t161.5 276t248.5 189.5t310.5 71q281 0 456 -167t175 -435q0 -170 -59.5 -327.5t-161.5 -276t-249 -189.5t-312 -71zM750 111q135 0 255.5 60.5t203.5 160.5t131.5 230t48.5 267q0 221 -135 357.5t-351 136.5
q-134 0 -254.5 -61t-204 -161.5t-132 -230.5t-48.5 -266q0 -221 135 -357t351 -136z" />
    <glyph glyph-name="P" unicode="P" horiz-adv-x="1200" 
d="M63 0l279 1434h485q208 0 326.5 -126t83.5 -311q-37 -185 -179.5 -290t-350.5 -105h-390l-116 -602h-138zM342 729h393q156 0 244 73t113 195q15 78 -11 147.5t-97.5 116t-176.5 46.5h-352z" />
    <glyph glyph-name="Q" unicode="Q" horiz-adv-x="1570" 
d="M727 -16l-18 -86q-23 -110 18.5 -153.5t153.5 -43.5h168v-119h-193q-158 0 -232.5 85t-43.5 231l20 100q-219 41 -349 200t-130 388q0 170 59.5 327.5t161.5 276t248.5 189.5t310.5 71q281 0 456 -167t175 -435q0 -170 -59.5 -327.5t-161.5 -276t-249 -189.5t-312 -71
h-23zM264 604q0 -221 135 -357t351 -136q135 0 255.5 60.5t203.5 160.5t131.5 230t48.5 267q0 221 -135 357.5t-351 136.5q-134 0 -254.5 -61t-204 -161.5t-132 -230.5t-48.5 -266z" />
    <glyph glyph-name="R" unicode="R" horiz-adv-x="1282" 
d="M868 1434q206 0 306 -112.5t63 -299.5q-22 -117 -102.5 -204.5t-200.5 -139.5q78 -46 113 -133t20 -201l-47 -344h-129l47 344q15 114 -39.5 186t-161.5 72h-420l-116 -602h-138l279 1434h526zM1092 1022q14 57 5 108.5t-34 91t-80.5 62.5t-134.5 23h-393l-113 -578h393
q79 0 143.5 24t107 66t69 93t37.5 110z" />
    <glyph glyph-name="S" unicode="S" horiz-adv-x="1251" 
d="M573 -16q-247 0 -389.5 133t-115.5 348h137q-9 -163 93 -258.5t296 -95.5q81 0 151.5 18t126.5 53t88.5 92.5t32.5 131.5q0 64 -26.5 111.5t-72 75t-104 48t-123 35.5t-129 32t-123 43t-104 63t-72 97.5t-26.5 141.5q0 114 74.5 206.5t194.5 141.5t257 49
q225 0 355 -113.5t120 -302.5h-137q8 131 -89 210t-267 79q-154 0 -258.5 -72t-104.5 -194q0 -63 27 -109t72.5 -72t104 -44.5t124 -33t130.5 -30.5t123.5 -42.5t104 -64t72.5 -100.5t27 -147q0 -129 -82.5 -229t-211 -150.5t-276.5 -50.5z" />
    <glyph glyph-name="T" unicode="T" horiz-adv-x="1126" 
d="M395 0l254 1307h-469l25 127h1073l-25 -127h-467l-254 -1307h-137z" />
    <glyph glyph-name="U" unicode="U" horiz-adv-x="1331" 
d="M588 -16q-239 0 -369.5 150t-85.5 382l178 918h140l-179 -920q-35 -181 61.5 -292t280.5 -111q166 0 287 109.5t156 293.5l178 920h141l-180 -918q-52 -263 -207 -397.5t-401 -134.5z" />
    <glyph glyph-name="V" unicode="V" horiz-adv-x="1275" 
d="M465 0l-270 1434h141l229 -1282l731 1282h142l-828 -1434h-145z" />
    <glyph glyph-name="W" unicode="W" horiz-adv-x="1959" 
d="M365 0l-170 1434h143l139 -1225l619 1225h125l143 -1225l616 1225h142l-723 -1434h-144l-137 1225l-614 -1225h-139z" />
    <glyph glyph-name="X" unicode="X" horiz-adv-x="1263" 
d="M1350 1434l-598 -705l338 -729h-138l-288 625l-531 -625h-160l633 745l-317 689h135l270 -584l496 584h160z" />
    <glyph glyph-name="Y" unicode="Y" horiz-adv-x="1183" 
d="M422 0l117 602l-351 832h150l285 -707l559 707h170l-676 -832l-117 -602h-137z" />
    <glyph glyph-name="Z" unicode="Z" horiz-adv-x="1224" 
d="M-27 0l25 127l1137 1180h-859l25 127h1020l-25 -127l-1120 -1180h891l-25 -127h-1069z" />
    <glyph glyph-name="bracketleft" unicode="[" horiz-adv-x="612" 
d="M39 -117l323 1667h381l-20 -102h-266l-283 -1462h266l-20 -103h-381z" />
    <glyph glyph-name="backslash" unicode="\" horiz-adv-x="843" 
d="M698 -2h-108l-367 1436h111z" />
    <glyph glyph-name="bracketright" unicode="]" horiz-adv-x="612" 
d="M328 -117h-381l20 103h266l283 1462h-266l20 102h381z" />
    <glyph glyph-name="asciicircum" unicode="^" horiz-adv-x="1077" 
d="M150 879l518 555h98l301 -555h-139l-228 436l-399 -436h-151z" />
    <glyph glyph-name="underscore" unicode="_" horiz-adv-x="1218" 
d="M33 -115l22 115h908l-23 -115h-907z" />
    <glyph glyph-name="grave" unicode="`" horiz-adv-x="518" 
d="M539 1147h-99l-155 303h135z" />
    <glyph glyph-name="a" unicode="a" horiz-adv-x="1071" 
d="M362 -16q-100 0 -179.5 45.5t-117.5 122t-22 161.5q29 150 147.5 226.5t313.5 76.5h278q56 0 66 50q23 110 -57.5 187t-221.5 77q-119 0 -213 -65.5t-106 -155.5h-129q20 96 91 174.5t172 122t210 43.5q95 0 174 -30t130 -82t72.5 -125.5t4.5 -156.5l-127 -655h-129
l37 190q-64 -96 -167.5 -151t-226.5 -55zM377 102q171 0 284 97t150 278l6 31h-334q-260 0 -303 -195q-18 -85 39.5 -148t157.5 -63z" />
    <glyph glyph-name="b" unicode="b" horiz-adv-x="1220" 
d="M553 -16q-116 0 -212.5 56.5t-125.5 145.5l-37 -186h-129l283 1450h129l-119 -604q66 91 175.5 147t223.5 56q139 0 240.5 -70.5t143.5 -193t14 -269.5q-46 -240 -205 -386t-381 -146zM573 102q165 0 278 112t150 302q37 188 -42 301t-246 113t-289.5 -113t-159.5 -301
q-36 -185 51.5 -299.5t257.5 -114.5z" />
    <glyph glyph-name="c" unicode="c" horiz-adv-x="1114" 
d="M524 -16q-156 0 -267 77.5t-154.5 209t-12.5 288.5q44 220 204.5 355t377.5 135q115 0 205.5 -40.5t143 -122.5t48.5 -192h-131q5 102 -76 169t-211 67q-154 0 -272.5 -103.5t-153.5 -267.5q-26 -123 4 -227.5t112.5 -167t199.5 -62.5q115 0 195 58.5t124 158.5h131
q-49 -147 -169.5 -241t-297.5 -94z" />
    <glyph glyph-name="d" unicode="d" horiz-adv-x="1220" 
d="M479 -16q-139 0 -240 70t-143 192t-14 270q45 231 207 382t399 151q114 0 201.5 -56t116.5 -147l118 604h129l-282 -1450h-129l37 186q-66 -91 -176 -146.5t-224 -55.5zM508 102q167 0 289 113t159 301t-42 301t-246 113t-289.5 -113t-159.5 -301q-37 -187 42.5 -300.5
t246.5 -113.5z" />
    <glyph glyph-name="e" unicode="e" horiz-adv-x="1140" 
d="M655 1049q217 0 331.5 -137.5t70.5 -340.5l-17 -67h-827q-19 -177 71 -289.5t261 -112.5q124 0 211.5 60.5t130.5 163.5h135q-48 -144 -183 -243t-311 -99q-226 0 -352 159.5t-88 401.5q37 225 194 364.5t373 139.5zM932 623q17 140 -65.5 223.5t-229.5 83.5
q-145 0 -249.5 -81.5t-149.5 -225.5h694z" />
    <glyph glyph-name="f" unicode="f" horiz-adv-x="741" 
d="M141 0l178 913h-208v119h231l20 109q28 142 126.5 225.5t238.5 83.5h154l-25 -119h-156q-78 0 -133.5 -50.5t-74.5 -139.5l-21 -109h317v-119h-339l-179 -913h-129z" />
    <glyph glyph-name="g" unicode="g" 
d="M45 -418v119h490q109 0 193 72.5t106 185.5l36 193q-51 -75 -160 -121.5t-231 -46.5q-137 0 -238.5 70.5t-144 193t-14.5 268.5q45 244 201.5 388.5t384.5 144.5q109 0 209 -52.5t133 -130.5l32 166h129l-208 -1073q-32 -164 -159.5 -270.5t-293.5 -106.5h-465zM508 102
q167 0 289 113t159 301q35 184 -51 299t-258 115q-165 0 -278 -112t-150 -302q-34 -173 50 -293.5t239 -120.5z" />
    <glyph glyph-name="h" unicode="h" horiz-adv-x="1155" 
d="M49 0l283 1450h129l-123 -633q60 114 163.5 173t229.5 59q171 0 254.5 -117t46.5 -305l-121 -627h-129l119 610q29 152 -27.5 238t-185.5 86q-144 0 -257 -107t-144 -272l-109 -555h-129z" />
    <glyph glyph-name="i" unicode="i" horiz-adv-x="450" 
d="M330 1450h155l-41 -209h-155zM61 0l201 1032h129l-201 -1032h-129z" />
    <glyph glyph-name="j" unicode="j" horiz-adv-x="419" 
d="M313 1450h156l-41 -209h-156zM248 1032h129l-156 -799l-61 -315q-34 -175 -109 -255.5t-233 -80.5h-78v119h102q31 0 54.5 5t41 11.5t31 22.5t21.5 29t16 41t12.5 48t12.5 60l24 129z" />
    <glyph glyph-name="k" unicode="k" horiz-adv-x="1036" 
d="M1083 1032l-534 -403l373 -629h-150l-328 551l-184 -137l-80 -414h-131l283 1450h131l-168 -864l594 446h194z" />
    <glyph glyph-name="l" unicode="l" horiz-adv-x="428" 
d="M49 0l283 1450h129l-283 -1450h-129z" />
    <glyph glyph-name="m" unicode="m" horiz-adv-x="1765" 
d="M43 0l201 1032h129l-41 -215q45 103 143 167.5t219 64.5q132 0 215 -63.5t86 -166.5q44 98 151.5 164t223.5 66q158 0 235 -113.5t42 -294.5l-125 -641h-129l118 612q29 151 -20 236.5t-166 85.5q-138 0 -235 -89t-125 -233l-119 -612h-129l119 612q29 151 -19.5 236.5
t-165.5 85.5q-138 0 -235 -89t-125 -233l-119 -612h-129z" />
    <glyph glyph-name="n" unicode="n" horiz-adv-x="1153" 
d="M47 0l201 1032h129l-41 -215q60 114 163.5 173t229.5 59q171 0 254.5 -117t46.5 -305l-121 -627h-129l119 610q29 152 -27.5 238t-185.5 86q-144 0 -257 -107t-144 -272l-109 -555h-129z" />
    <glyph glyph-name="o" unicode="o" 
d="M549 -16q-205 0 -337 130t-132 330q0 168 76.5 306.5t211.5 218.5t300 80q205 0 337 -130.5t132 -330.5q0 -168 -76.5 -306.5t-211.5 -218t-300 -79.5zM557 102q191 0 316.5 139.5t125.5 346.5q0 150 -96 246t-244 96q-191 0 -316.5 -139.5t-125.5 -346.5q0 -150 96 -246
t244 -96z" />
    <glyph glyph-name="p" unicode="p" horiz-adv-x="1220" 
d="M-33 -418l283 1450h129l-37 -186q66 91 174 147t221 56q218 0 332 -151.5t70 -381.5q-22 -112 -70 -207.5t-120.5 -168.5t-174 -114.5t-221.5 -41.5q-116 0 -212.5 56.5t-125.5 145.5l-119 -604h-129zM563 102q157 0 280 116.5t158 297.5q35 182 -46.5 298t-245.5 116
q-160 0 -285 -116.5t-160 -297.5q-35 -182 48.5 -298t250.5 -116z" />
    <glyph glyph-name="q" unicode="q" horiz-adv-x="1220" 
d="M889 -418h-129l119 604q-66 -91 -176 -146.5t-224 -55.5q-137 0 -238.5 70.5t-144 193t-14.5 268.5q22 112 70 208t120.5 169t174 114.5t221.5 41.5q116 0 212.5 -57t125.5 -146l36 186h129zM508 102q167 0 289 113t159 301q36 185 -51.5 299.5t-257.5 114.5
q-165 0 -278 -112t-150 -302q-34 -173 50 -293.5t239 -120.5z" />
    <glyph glyph-name="r" unicode="r" horiz-adv-x="739" 
d="M788 913h-147q-66 0 -121.5 -24.5t-95.5 -65.5t-72 -102.5t-53 -129.5t-37 -151l-86 -440h-129l201 1032h129l-43 -219q54 110 133.5 164.5t196.5 54.5h124v-119z" />
    <glyph glyph-name="s" unicode="s" horiz-adv-x="1001" 
d="M440 -16q-168 0 -277.5 101t-101.5 241h129q0 -101 75.5 -162.5t197.5 -61.5q108 0 177 52.5t71 134.5q1 55 -28 93.5t-76.5 59.5t-104.5 37.5t-114 36t-103.5 46.5t-74 76.5t-24.5 119.5q6 123 121.5 207t278.5 84t263.5 -87.5t92.5 -222.5h-129q-2 86 -70 138.5
t-180 52.5q-105 0 -171.5 -48t-69.5 -124q-2 -46 20 -77t59.5 -46t86 -28.5t99 -23t98 -30.5t84.5 -50.5t58.5 -84t18.5 -129.5q-5 -134 -119 -219.5t-287 -85.5z" />
    <glyph glyph-name="t" unicode="t" horiz-adv-x="786" 
d="M401 1370h129l-65 -338h317v-119h-340l-120 -614q-15 -81 21 -130.5t108 -49.5h163l-22 -119h-162q-133 0 -198 82t-39 217l120 614h-209v119h232z" />
    <glyph glyph-name="u" unicode="u" horiz-adv-x="1153" 
d="M1106 1032l-201 -1032h-129l41 215q-60 -114 -163 -172.5t-230 -58.5q-161 0 -248.5 122.5t-52.5 299.5l121 626h129l-119 -610q-28 -142 30.5 -231t182.5 -89q145 0 257.5 105.5t143.5 269.5l109 555h129z" />
    <glyph glyph-name="v" unicode="v" horiz-adv-x="944" 
d="M289 0l-178 1032h135l145 -872l486 872h137l-580 -1032h-145z" />
    <glyph glyph-name="w" unicode="w" horiz-adv-x="1480" 
d="M227 0l-106 1032h129l72 -872l444 872h131l100 -872l412 872h131l-508 -1032h-131l-102 872l-441 -872h-131z" />
    <glyph glyph-name="x" unicode="x" horiz-adv-x="944" 
d="M975 1032l-436 -491l270 -541h-135l-223 440l-390 -440h-147l481 549l-245 483h143l190 -383l336 383h156z" />
    <glyph glyph-name="y" unicode="y" horiz-adv-x="944" 
d="M883 1032h131l-799 -1450h-127l209 379l-186 1071h135l145 -895z" />
    <glyph glyph-name="z" unicode="z" horiz-adv-x="1013" 
d="M-12 0l22 119l811 794h-626l22 119h791l-23 -119l-809 -794h682l-22 -119h-848z" />
    <glyph glyph-name="braceleft" unicode="{" horiz-adv-x="634" 
d="M367 -102q-94 0 -141 57.5t-27 155.5l71 374q19 93 -13.5 133.5t-127.5 40.5l21 115q95 0 143 40.5t67 133.5l74 375q18 98 88 155.5t164 57.5h96l-22 -115h-68q-59 0 -91 -24t-42 -78l-78 -404q-18 -88 -60.5 -131t-117.5 -67q65 -24 91.5 -67.5t8.5 -131.5l-77 -403
q-10 -54 11.5 -78.5t80.5 -24.5h67l-22 -114h-96z" />
    <glyph glyph-name="bar" unicode="|" horiz-adv-x="436" 
d="M35 -102l319 1638h125l-319 -1638h-125z" />
    <glyph glyph-name="braceright" unicode="}" horiz-adv-x="634" 
d="M27 -102h-97l23 114h67q59 0 91.5 24.5t42.5 78.5l77 403q18 88 61 131.5t118 67.5q-65 24 -91.5 67.5t-9.5 130.5l78 404q10 54 -11.5 78t-80.5 24h-68l23 115h96q94 0 141 -57.5t29 -155.5l-74 -375q-19 -93 14 -133.5t128 -40.5l-21 -115q-95 0 -143.5 -40.5
t-67.5 -133.5l-71 -374q-20 -98 -90 -155.5t-164 -57.5z" />
    <glyph glyph-name="asciitilde" unicode="~" 
d="M825 557q-58 0 -109 17.5t-83 38t-81.5 38t-105.5 17.5q-117 0 -217 -93l-71 80q69 71 147.5 115.5t151.5 44.5q58 0 109 -17t83 -38t81.5 -38t105.5 -17q114 0 221 92l67 -80q-69 -71 -147.5 -115.5t-151.5 -44.5z" />
    <glyph glyph-name="exclamdown" unicode="&#xa1;" horiz-adv-x="552" 
d="M231 852l31 164h146l-31 -164h-146zM219 639h88l-162 -1057h-178z" />
    <glyph glyph-name="cent" unicode="&#xa2;" horiz-adv-x="1105" 
d="M1069 694h-131q5 102 -76 169t-211 67q-154 0 -272.5 -103.5t-153.5 -267.5q-26 -123 4 -227.5t112.5 -167t199.5 -62.5q115 0 195 58.5t124 158.5h131q-47 -142 -161 -235t-281 -100l-47 -232l-135 2l47 242q-186 38 -275.5 195.5t-48.5 367.5q41 205 185.5 338
t342.5 150l46 235h137l-47 -240q145 -21 233 -112.5t82 -235.5z" />
    <glyph glyph-name="sterling" unicode="&#xa3;" horiz-adv-x="1167" 
d="M1139 1049h-138q10 74 -4.5 128t-49 85.5t-79.5 46t-102 14.5q-124 0 -217 -74t-121 -213q-6 -33 -7.5 -64t3.5 -69.5t8 -55t12 -63.5h426l-24 -127h-381q6 -60 -6 -127q-34 -182 -258 -403h587q34 0 57 19t29 53l29 151h137l-28 -145q-19 -100 -81.5 -152.5
t-162.5 -52.5h-741l24 127q130 132 190.5 216t80.5 187q11 60 4 127h-222l25 127h172q-8 39 -12 62t-7.5 58.5t-2 68t7.5 65.5q36 190 177.5 301t326.5 111q78 0 145.5 -24t119.5 -70.5t75 -126t8 -180.5z" />
    <glyph glyph-name="currency" unicode="&#xa4;" horiz-adv-x="1353" 
d="M1147 821q59 -103 59 -233q0 -248 -155 -416l118 -147l-116 -97l-117 146q-142 -90 -318 -90q-200 0 -331 125l-193 -162l-86 102l197 166q-55 104 -55 229q0 242 153 416l-119 150l115 96l121 -150q142 93 317 93q197 0 328 -121l195 162l83 -103zM627 102
q191 0 316.5 139.5t125.5 346.5q0 150 -96 246t-244 96q-191 0 -316.5 -139.5t-125.5 -346.5q0 -150 96 -246t244 -96z" />
    <glyph glyph-name="yen" unicode="&#xa5;" horiz-adv-x="1183" 
d="M1352 1434l-578 -711h320l-25 -127h-395l-43 -223h393l-25 -127h-393l-47 -246h-137l47 246h-389l24 127h390l43 223h-387l24 127h313l-299 711h162l285 -699l553 699h164z" />
    <glyph glyph-name="brokenbar" unicode="&#xa6;" horiz-adv-x="436" 
d="M215 821l139 715h125l-139 -715h-125zM35 -102l139 714h125l-139 -714h-125z" />
    <glyph glyph-name="section" unicode="&#xa7;" horiz-adv-x="1169" 
d="M1145 1057h-125q12 121 -67 194.5t-220 73.5q-147 0 -241.5 -61t-114.5 -166q-10 -52 5 -92t49.5 -65.5t83 -47t105 -36t116 -32.5t115 -36.5t102 -48.5t79 -68t44 -95.5t-2.5 -130.5q-27 -143 -172 -251q92 -92 55 -250q-27 -119 -108 -206t-197 -130t-254 -43
q-221 0 -331.5 123t-83.5 331h129q-15 -152 66.5 -240.5t244.5 -88.5q157 0 262.5 62.5t130.5 189.5q11 59 -8 103.5t-61 73t-99.5 51t-122 41t-129 38t-120.5 48.5t-96 66.5t-56.5 96.5t-1.5 135q26 148 192 254q-106 92 -75 248q31 158 175 255t345 97q196 0 301.5 -107
t85.5 -286zM930 446q11 55 -7 98.5t-52.5 70t-91.5 51t-110.5 39t-123.5 36t-117 41.5q-68 -30 -113 -78t-55 -108q-13 -67 15 -114t91 -75.5t130 -47.5t156 -44t145 -51q111 69 133 182z" />
    <glyph glyph-name="dieresis" unicode="&#xa8;" horiz-adv-x="651" 
d="M274 1403h129l-34 -186h-129zM590 1403h129l-35 -186h-129z" />
    <glyph glyph-name="copyright" unicode="&#xa9;" horiz-adv-x="1810" 
d="M944 -82q-164 0 -312.5 62.5t-255 169t-169 255t-62.5 312.5t62.5 312.5t169 255t255 169t312.5 62.5t312.5 -62.5t255 -169t169 -255t62.5 -312.5t-62.5 -312.5t-169 -255t-255 -169t-312.5 -62.5zM944 8q192 0 353 94t254 257t94 358q-1 146 -56 277.5t-148.5 226
t-223 149.5t-273.5 55t-274 -55t-223.5 -149.5t-148.5 -226t-56 -277.5q1 -146 56 -277.5t148.5 -226t223.5 -150t274 -55.5zM954 233q-89 0 -169.5 30.5t-144.5 88.5t-102 153.5t-38 215.5t38 215.5t102.5 154t144.5 89t169 30.5q151 0 263 -85t131 -214h-95
q-14 92 -99 153.5t-200 61.5q-162 0 -260 -106.5t-98 -298.5q0 -191 98 -297.5t260 -106.5q118 0 203 61.5t96 153.5h95q-15 -129 -127.5 -214t-266.5 -85z" />
    <glyph glyph-name="ordfeminine" unicode="&#xaa;" horiz-adv-x="634" 
d="M492 1450q115 0 178 -62t43 -161l-78 -406h-100l20 103q-35 -51 -99 -82t-134 -31q-94 0 -144 52.5t-33 133.5q19 96 91 147.5t194 51.5h143q32 0 39 27l2 8q12 61 -27.5 98t-111.5 37q-66 0 -120 -37t-66 -88h-96q26 90 111.5 149.5t187.5 59.5zM354 897
q92 0 153.5 53.5t80.5 149.5l-4 -25l24 121l-16 -76h-170q-150 0 -172 -121q-9 -44 20.5 -73t83.5 -29z" />
    <glyph glyph-name="guillemotleft" unicode="&#xab;" horiz-adv-x="1202" 
d="M559 193l-504 399l17 86l659 399l-26 -139l-512 -309l389 -303zM1071 193l-504 399l17 86l659 399l-26 -139l-512 -309l389 -303z" />
    <glyph glyph-name="logicalnot" unicode="&#xac;" horiz-adv-x="1169" 
d="M868 291l72 368h-803l23 119h938l-94 -487h-136z" />
    <glyph glyph-name="uni00AD" unicode="&#xad;" horiz-adv-x="1228" 
d="M125 592l22 115h730l-23 -115h-729z" />
    <glyph glyph-name="registered" unicode="&#xae;" horiz-adv-x="1810" 
d="M944 1516q164 0 312.5 -62.5t255 -169t169 -255t62.5 -312.5t-62.5 -312.5t-169 -255t-255 -169t-312.5 -62.5t-312.5 62.5t-255 169t-169 255t-62.5 312.5t62.5 312.5t169 255t255 169t312.5 62.5zM944 8q192 0 353 94t254 257t94 358q-1 146 -56 277.5t-148.5 226
t-223 149.5t-273.5 55t-274 -55t-223.5 -149.5t-148.5 -226t-56 -277.5q1 -146 56 -277.5t148.5 -226t223.5 -150t274 -55.5zM1296 926q0 -77 -42 -137t-115 -93q58 -31 92 -89.5t39 -133.5l14 -229h-86l-14 229q-3 76 -49 124t-117 48h-281v-401h-90v956h350q137 0 218 -75
t81 -199zM999 729q103 0 152 56t49 141q0 82 -49 135t-152 53h-262v-385h262z" />
    <glyph glyph-name="macron" unicode="&#xaf;" horiz-adv-x="739" 
d="M238 1217l22 114h535l-23 -114h-534z" />
    <glyph glyph-name="degree" unicode="&#xb0;" horiz-adv-x="696" 
d="M483 987q-106 0 -172.5 64t-66.5 163t66.5 163.5t172.5 64.5q107 0 174.5 -64.5t67.5 -163.5t-67.5 -163t-174.5 -64zM483 1085q61 0 99.5 36t38.5 93t-38.5 93t-99.5 36q-60 0 -98.5 -36t-38.5 -93t38.5 -93t98.5 -36z" />
    <glyph glyph-name="plusminus" unicode="&#xb1;" horiz-adv-x="1110" 
d="M475 395l70 363h-395l22 114h395l70 361h117l-70 -361h395l-22 -114h-395l-70 -363h-117zM2 0l23 115h907l-23 -115h-907z" />
    <glyph glyph-name="uni00B2" unicode="&#xb2;" horiz-adv-x="690" 
d="M217 1235q22 133 115.5 212t226.5 79q124 0 188 -71t41 -187q-36 -175 -253 -273l-136 -61q-66 -31 -117.5 -77.5t-62.5 -102.5h473l-18 -99h-580l15 78q14 72 62.5 134t97.5 96t106 61l143 68q139 65 160 178q13 71 -26 115.5t-113 44.5q-81 0 -138 -53.5t-71 -141.5
h-113z" />
    <glyph glyph-name="uni00B3" unicode="&#xb3;" horiz-adv-x="735" 
d="M403 645q-132 0 -204.5 78.5t-48.5 202.5h106q-17 -82 30.5 -132.5t135.5 -50.5q90 0 150 42t73 116q15 73 -28.5 112.5t-133.5 39.5h-69l18 96h68q74 0 126 41t64 106q12 62 -27 98t-116 36q-72 0 -124 -41.5t-71 -116.5h-102q26 115 114.5 184.5t204.5 69.5
q120 0 185.5 -65t46.5 -163q-12 -61 -57 -112.5t-103 -77.5q66 -26 98.5 -80t18.5 -129q-24 -119 -125.5 -186.5t-229.5 -67.5z" />
    <glyph glyph-name="acute" unicode="&#xb4;" horiz-adv-x="532" 
d="M225 1147l234 303h153l-276 -303h-111z" />
    <glyph glyph-name="uni00B5" unicode="&#xb5;" horiz-adv-x="1148" 
d="M977 1032h129l-201 -1032h-129l41 215q-60 -114 -163 -172.5t-230 -58.5q-152 0 -234 116l-100 -518h-129l168 864q1 3 2 10t2 11l111 565h129l-119 -610q-28 -145 30.5 -232.5t182.5 -87.5q145 0 257.5 105.5t143.5 269.5z" />
    <glyph glyph-name="paragraph" unicode="&#xb6;" horiz-adv-x="1351" 
d="M291 -418l223 1143q-158 0 -248.5 103t-62.5 251q29 148 159.5 251.5t288.5 103.5h774l-24 -127h-131l-336 -1725h-139l335 1725h-362l-336 -1725h-141z" />
    <glyph glyph-name="periodcentered" unicode="&#xb7;" horiz-adv-x="466" 
d="M215 823h156l-43 -225h-156z" />
    <glyph glyph-name="cedilla" unicode="&#xb8;" horiz-adv-x="534" 
d="M106 -418h-186l270 295h117z" />
    <glyph glyph-name="uni00B9" unicode="&#xb9;" horiz-adv-x="428" 
d="M532 1516l-167 -861h-109l131 678q-27 -30 -86 -30h-80l21 98h69q43 0 70 25t45 90h106z" />
    <glyph glyph-name="ordmasculine" unicode="&#xba;" horiz-adv-x="731" 
d="M422 811q-138 0 -209 89.5t-45 229.5q28 140 134.5 230t244.5 90t210 -90.5t44 -229.5q-26 -139 -133.5 -229t-245.5 -90zM440 903q95 0 165 63.5t89 163.5q20 102 -25.5 166t-140.5 64q-93 0 -164.5 -64t-91.5 -166q-19 -100 28 -163.5t140 -63.5z" />
    <glyph glyph-name="guillemotright" unicode="&#xbb;" horiz-adv-x="1202" 
d="M14 193l29 139l512 311l-387 303l18 131l504 -399l-16 -86zM524 193l29 139l512 311l-387 303l18 131l504 -399l-16 -86z" />
    <glyph glyph-name="onequarter" unicode="&#xbc;" horiz-adv-x="1671" 
d="M61 0l1319 1434h125l-1319 -1434h-125zM516 1434l-168 -861h-108l131 678q-27 -30 -86 -30h-80l20 98h70q43 0 70 25t45 90h106zM1255 0l41 213h-440v96l551 551h127l-109 -551h131v-96h-149l-41 -213h-111zM971 309h344l84 430z" />
    <glyph glyph-name="onehalf" unicode="&#xbd;" horiz-adv-x="1708" 
d="M61 0l1319 1434h125l-1319 -1434h-125zM516 1434l-168 -861h-108l131 678q-27 -30 -86 -30h-80l20 98h70q43 0 70 25t45 90h106zM1108 580q22 133 115.5 211.5t226.5 78.5q124 0 188 -71t41 -187q-35 -174 -254 -272l-135 -61q-66 -31 -117.5 -78t-62.5 -103h473l-18 -98
h-580l14 78q21 103 97.5 175t169.5 116l143 67q139 65 160 178q13 71 -26 115.5t-113 44.5q-82 0 -138.5 -53t-70.5 -141h-113z" />
    <glyph glyph-name="threequarters" unicode="&#xbe;" horiz-adv-x="1935" 
d="M387 563q-132 0 -205 78.5t-49 202.5h107q-17 -82 30.5 -132t135.5 -50q90 0 150 41.5t73 115.5q15 73 -28.5 112.5t-133.5 39.5h-70l19 96h67q74 0 126.5 41t64.5 106q12 62 -27.5 98t-116.5 36q-72 0 -123.5 -41.5t-70.5 -116.5h-103q26 115 115 184.5t205 69.5
q120 0 185 -64.5t46 -162.5q-12 -61 -56.5 -113t-102.5 -78q66 -26 98 -80t18 -129q-24 -119 -125 -186.5t-229 -67.5zM326 0l1319 1434h124l-1318 -1434h-125zM1520 0l41 213h-441v96l551 551h127l-108 -551h131v-96h-150l-41 -213h-110zM1235 309h344l84 430z" />
    <glyph glyph-name="questiondown" unicode="&#xbf;" horiz-adv-x="888" 
d="M571 852h-145l31 164h145zM508 717q156 0 229.5 -68.5t46.5 -206.5q-15 -79 -62 -133t-110 -81t-136.5 -45t-146 -33.5t-134.5 -37t-106.5 -65.5t-57.5 -110q-23 -117 39.5 -180.5t197.5 -63.5q133 0 236.5 73.5t134.5 200.5h139q-45 -184 -193 -292.5t-341 -108.5
q-201 0 -300 98.5t-67 265.5q17 84 66 144.5t115 93.5t142.5 56t151.5 40t138 36.5t107 54.5t54 87q16 85 -26.5 120.5t-135.5 35.5h-303v119h322z" />
    <glyph glyph-name="Agrave" unicode="&#xc0;" horiz-adv-x="1316" 
d="M915 1548h-98l-155 303h135zM1053 0l-78 408h-674l-240 -408h-145l856 1434h129l299 -1434h-147zM375 535h575l-143 737z" />
    <glyph glyph-name="Aacute" unicode="&#xc1;" horiz-adv-x="1316" 
d="M1196 1851l-276 -303h-111l233 303h154zM1053 0l-78 408h-674l-240 -408h-145l856 1434h129l299 -1434h-147zM375 535h575l-143 737z" />
    <glyph glyph-name="Acircumflex" unicode="&#xc2;" horiz-adv-x="1316" 
d="M903 1739l-186 -191h-133l280 287h105l168 -287h-119zM1053 0l-78 408h-674l-240 -408h-145l856 1434h129l299 -1434h-147zM375 535h575l-143 737z" />
    <glyph glyph-name="Atilde" unicode="&#xc3;" horiz-adv-x="1316" 
d="M770 1696q-31 0 -57.5 -20t-38.5 -52h-111q26 87 84.5 139t130.5 52q53 0 95.5 -21t75 -42t61.5 -21t56 19.5t40 51.5h111q-26 -87 -84.5 -138.5t-131.5 -51.5q-41 0 -77 13t-57 29t-47.5 29t-49.5 13zM772 1434h129l299 -1434h-147l-78 408h-674l-240 -408h-145z
M375 535h575l-143 737z" />
    <glyph glyph-name="Adieresis" unicode="&#xc4;" horiz-adv-x="1316" 
d="M815 1804l-35 -186h-129l35 186h129zM1130 1804l-34 -186h-129l34 186h129zM1053 0l-78 408h-674l-240 -408h-145l856 1434h129l299 -1434h-147zM375 535h575l-143 737z" />
    <glyph glyph-name="Aring" unicode="&#xc5;" horiz-adv-x="1316" 
d="M836 1518q-101 0 -168.5 61.5t-67.5 155.5q0 92 67.5 153.5t168.5 61.5t169 -61.5t68 -153.5q0 -94 -67.5 -155.5t-169.5 -61.5zM836 1860q-57 0 -94 -35t-37 -90t37 -90t94 -35q59 0 96 35t37 90t-37 90t-96 35zM1053 0l-78 408h-674l-240 -408h-145l856 1434h129
l299 -1434h-147zM375 535h575l-143 737z" />
    <glyph glyph-name="AE" unicode="&#xc6;" horiz-adv-x="1912" 
d="M1950 1307h-635l-96 -500h501l-24 -127h-502l-109 -553h658l-25 -127h-794l80 408h-586l-342 -408h-160l1219 1434h839zM524 535h504l152 782z" />
    <glyph glyph-name="Ccedilla" unicode="&#xc7;" horiz-adv-x="1449" 
d="M717 -16q-120 0 -225 39t-180 109t-125 167t-61 212.5t11 246.5q64 331 274 511.5t531 180.5q148 0 269.5 -58t190 -161.5t62.5 -229.5h-147q7 137 -109.5 229.5t-289.5 92.5q-243 0 -415.5 -153t-221.5 -412q-56 -290 74.5 -468.5t387.5 -178.5q160 0 289.5 91
t171.5 230h150q-63 -197 -237 -322.5t-400 -125.5zM545 -418h-187l271 295h116z" />
    <glyph glyph-name="Egrave" unicode="&#xc8;" horiz-adv-x="1155" 
d="M858 1548h-98l-156 303h135zM63 0l279 1434h875l-25 -127h-737l-97 -500h592v-127h-616l-109 -553h760l-24 -127h-898z" />
    <glyph glyph-name="Eacute" unicode="&#xc9;" horiz-adv-x="1155" 
d="M752 1548l233 303h154l-277 -303h-110zM63 0l279 1434h875l-25 -127h-737l-97 -500h592v-127h-616l-109 -553h760l-24 -127h-898z" />
    <glyph glyph-name="Ecircumflex" unicode="&#xca;" horiz-adv-x="1155" 
d="M911 1835l168 -287h-118l-115 191l-187 -191h-133l281 287h104zM63 0l279 1434h875l-25 -127h-737l-97 -500h592v-127h-616l-109 -553h760l-24 -127h-898z" />
    <glyph glyph-name="Edieresis" unicode="&#xcb;" horiz-adv-x="1155" 
d="M629 1804h129l-35 -186h-129zM944 1804h129l-35 -186h-129zM63 0l279 1434h875l-25 -127h-737l-97 -500h592v-127h-616l-109 -553h760l-24 -127h-898z" />
    <glyph glyph-name="Igrave" unicode="&#xcc;" horiz-adv-x="464" 
d="M487 1548h-98l-156 303h136zM63 0l279 1434h137l-278 -1434h-138z" />
    <glyph glyph-name="Iacute" unicode="&#xcd;" horiz-adv-x="464" 
d="M381 1548l233 303h154l-276 -303h-111zM63 0l279 1434h137l-278 -1434h-138z" />
    <glyph glyph-name="Icircumflex" unicode="&#xce;" horiz-adv-x="464" 
d="M541 1835l168 -287h-119l-115 191l-186 -191h-133l280 287h105zM63 0l279 1434h137l-278 -1434h-138z" />
    <glyph glyph-name="Idieresis" unicode="&#xcf;" horiz-adv-x="464" 
d="M258 1804h129l-35 -186h-129zM573 1804h129l-34 -186h-129zM63 0l279 1434h137l-278 -1434h-138z" />
    <glyph glyph-name="Eth" unicode="&#xd0;" horiz-adv-x="1531" 
d="M891 1434q146 0 269.5 -56.5t203.5 -152t113 -228.5t4 -280q-68 -347 -279.5 -532t-548.5 -185h-426l129 666h-219l23 110h219l127 658h385zM1335 717q52 258 -79 424t-386 166h-252l-102 -531h422l-23 -110h-421l-105 -539h293q244 0 420.5 160t232.5 430z" />
    <glyph glyph-name="Ntilde" unicode="&#xd1;" horiz-adv-x="1413" 
d="M723 1624h-111q26 87 84.5 139t130.5 52q53 0 95.5 -21t75 -42t61.5 -21t56 19.5t40 51.5h111q-26 -87 -84 -138.5t-131 -51.5q-52 0 -94.5 21t-75.5 42t-62 21q-31 0 -57.5 -20t-38.5 -52zM63 0l279 1434h156l551 -1219l237 1219h141l-278 -1434h-156l-553 1214
l-235 -1214h-142z" />
    <glyph glyph-name="Ograve" unicode="&#xd2;" horiz-adv-x="1574" 
d="M1018 1548h-98l-156 303h135zM750 -16q-280 0 -454.5 167t-174.5 435q0 170 59.5 327.5t161.5 276t248.5 189.5t310.5 71q281 0 456 -167t175 -435q0 -170 -59.5 -327.5t-161.5 -276t-249 -189.5t-312 -71zM750 111q135 0 255.5 60.5t203.5 160.5t131.5 230t48.5 267
q0 221 -135 357.5t-351 136.5q-134 0 -254.5 -61t-204 -161.5t-132 -230.5t-48.5 -266q0 -221 135 -357t351 -136z" />
    <glyph glyph-name="Oacute" unicode="&#xd3;" horiz-adv-x="1574" 
d="M911 1548l234 303h153l-276 -303h-111zM750 -16q-280 0 -454.5 167t-174.5 435q0 170 59.5 327.5t161.5 276t248.5 189.5t310.5 71q281 0 456 -167t175 -435q0 -170 -59.5 -327.5t-161.5 -276t-249 -189.5t-312 -71zM750 111q135 0 255.5 60.5t203.5 160.5t131.5 230
t48.5 267q0 221 -135 357.5t-351 136.5q-134 0 -254.5 -61t-204 -161.5t-132 -230.5t-48.5 -266q0 -221 135 -357t351 -136z" />
    <glyph glyph-name="Ocircumflex" unicode="&#xd4;" horiz-adv-x="1574" 
d="M1071 1835l168 -287h-119l-114 191l-187 -191h-133l281 287h104zM750 -16q-280 0 -454.5 167t-174.5 435q0 170 59.5 327.5t161.5 276t248.5 189.5t310.5 71q281 0 456 -167t175 -435q0 -170 -59.5 -327.5t-161.5 -276t-249 -189.5t-312 -71zM750 111q135 0 255.5 60.5
t203.5 160.5t131.5 230t48.5 267q0 221 -135 357.5t-351 136.5q-134 0 -254.5 -61t-204 -161.5t-132 -230.5t-48.5 -266q0 -221 135 -357t351 -136z" />
    <glyph glyph-name="Otilde" unicode="&#xd5;" horiz-adv-x="1574" 
d="M776 1624h-110q26 87 84.5 139t130.5 52q53 0 95 -21t74.5 -42t61.5 -21t56 19.5t40 51.5h111q-26 -87 -84 -138.5t-131 -51.5q-52 0 -94.5 21t-75.5 42t-62 21q-31 0 -57.5 -20t-38.5 -52zM750 -16q-280 0 -454.5 167t-174.5 435q0 170 59.5 327.5t161.5 276
t248.5 189.5t310.5 71q281 0 456 -167t175 -435q0 -170 -59.5 -327.5t-161.5 -276t-249 -189.5t-312 -71zM750 111q135 0 255.5 60.5t203.5 160.5t131.5 230t48.5 267q0 221 -135 357.5t-351 136.5q-134 0 -254.5 -61t-204 -161.5t-132 -230.5t-48.5 -266q0 -221 135 -357
t351 -136z" />
    <glyph glyph-name="Odieresis" unicode="&#xd6;" horiz-adv-x="1574" 
d="M788 1804h130l-35 -186h-129zM1104 1804h129l-35 -186h-129zM750 -16q-280 0 -454.5 167t-174.5 435q0 170 59.5 327.5t161.5 276t248.5 189.5t310.5 71q281 0 456 -167t175 -435q0 -170 -59.5 -327.5t-161.5 -276t-249 -189.5t-312 -71zM750 111q135 0 255.5 60.5
t203.5 160.5t131.5 230t48.5 267q0 221 -135 357.5t-351 136.5q-134 0 -254.5 -61t-204 -161.5t-132 -230.5t-48.5 -266q0 -221 135 -357t351 -136z" />
    <glyph glyph-name="multiply" unicode="&#xd7;" horiz-adv-x="1095" 
d="M1030 981l-375 -315l248 -308l-92 -75l-248 307l-366 -307l-70 86l367 307l-246 305l94 74l244 -301l375 313z" />
    <glyph glyph-name="Oslash" unicode="&#xd8;" horiz-adv-x="1574" 
d="M901 1450q281 0 456 -167t175 -435q0 -170 -59.5 -327.5t-161.5 -276t-249 -189.5t-312 -71q-280 0 -454.5 167t-174.5 435q0 170 59.5 327.5t161.5 276t248.5 189.5t310.5 71zM903 1323q-134 0 -254.5 -61t-204 -161.5t-132 -230.5t-48.5 -266q0 -159 76 -280l915 862
q-134 137 -352 137zM750 111q135 0 255.5 60.5t203.5 160.5t131.5 230t48.5 267q0 162 -76 283l-916 -862q133 -139 353 -139z" />
    <glyph glyph-name="Ugrave" unicode="&#xd9;" horiz-adv-x="1331" 
d="M922 1548h-99l-155 303h135zM588 -16q-239 0 -369.5 150t-85.5 382l178 918h140l-179 -920q-35 -181 61.5 -292t280.5 -111q166 0 287 109.5t156 293.5l178 920h141l-180 -918q-52 -263 -207 -397.5t-401 -134.5z" />
    <glyph glyph-name="Uacute" unicode="&#xda;" horiz-adv-x="1331" 
d="M815 1548l234 303h153l-276 -303h-111zM588 -16q-239 0 -369.5 150t-85.5 382l178 918h140l-179 -920q-35 -181 61.5 -292t280.5 -111q166 0 287 109.5t156 293.5l178 920h141l-180 -918q-52 -263 -207 -397.5t-401 -134.5z" />
    <glyph glyph-name="Ucircumflex" unicode="&#xdb;" horiz-adv-x="1331" 
d="M975 1835l168 -287h-119l-115 191l-186 -191h-133l280 287h105zM588 -16q-239 0 -369.5 150t-85.5 382l178 918h140l-179 -920q-35 -181 61.5 -292t280.5 -111q166 0 287 109.5t156 293.5l178 920h141l-180 -918q-52 -263 -207 -397.5t-401 -134.5z" />
    <glyph glyph-name="Udieresis" unicode="&#xdc;" horiz-adv-x="1331" 
d="M692 1804h129l-35 -186h-129zM1008 1804h129l-35 -186h-129zM588 -16q-239 0 -369.5 150t-85.5 382l178 918h140l-179 -920q-35 -181 61.5 -292t280.5 -111q166 0 287 109.5t156 293.5l178 920h141l-180 -918q-52 -263 -207 -397.5t-401 -134.5z" />
    <glyph glyph-name="Yacute" unicode="&#xdd;" horiz-adv-x="1183" 
d="M741 1548l234 303h153l-276 -303h-111zM422 0l117 602l-351 832h150l285 -707l559 707h170l-676 -832l-117 -602h-137z" />
    <glyph glyph-name="Thorn" unicode="&#xde;" horiz-adv-x="1187" 
d="M55 0l279 1434h137l-61 -322h389q208 0 307.5 -105t62.5 -290q-35 -185 -175.5 -290t-348.5 -105h-389l-63 -322h-138zM281 449h393q156 0 241.5 72.5t108.5 195.5t-34 195.5t-212 72.5h-393z" />
    <glyph glyph-name="germandbls" unicode="&#xdf;" horiz-adv-x="1247" 
d="M1202 1065q-19 -95 -92 -171.5t-160 -109.5q113 -39 164.5 -131t22.5 -239q-37 -192 -178.5 -303t-358.5 -111h-213l25 127h182q167 0 269 73.5t128 213.5q28 140 -45.5 213t-240.5 73h-183l27 127h176q140 0 225.5 60t108.5 180q25 121 -37 188.5t-199 67.5
q-169 0 -286.5 -108t-153.5 -291l-180 -924h-137l137 700h-142l27 127h139l19 97q46 243 206 384.5t394 141.5q203 0 296.5 -104.5t59.5 -280.5z" />
    <glyph glyph-name="agrave" unicode="&#xe0;" horiz-adv-x="1071" 
d="M711 1147h-99l-155 303h135zM362 -16q-100 0 -179.5 45.5t-117.5 122t-22 161.5q29 150 147.5 226.5t313.5 76.5h278q56 0 66 50q23 110 -57.5 187t-221.5 77q-119 0 -213 -65.5t-106 -155.5h-129q20 96 91 174.5t172 122t210 43.5q95 0 174 -30t130 -82t72.5 -125.5
t4.5 -156.5l-127 -655h-129l37 190q-64 -96 -167.5 -151t-226.5 -55zM377 102q171 0 284 97t150 278l6 31h-334q-260 0 -303 -195q-18 -85 39.5 -148t157.5 -63z" />
    <glyph glyph-name="aacute" unicode="&#xe1;" horiz-adv-x="1071" 
d="M604 1147l234 303h153l-276 -303h-111zM362 -16q-100 0 -179.5 45.5t-117.5 122t-22 161.5q29 150 147.5 226.5t313.5 76.5h278q56 0 66 50q23 110 -57.5 187t-221.5 77q-119 0 -213 -65.5t-106 -155.5h-129q20 96 91 174.5t172 122t210 43.5q95 0 174 -30t130 -82
t72.5 -125.5t4.5 -156.5l-127 -655h-129l37 190q-64 -96 -167.5 -151t-226.5 -55zM377 102q171 0 284 97t150 278l6 31h-334q-260 0 -303 -195q-18 -85 39.5 -148t157.5 -63z" />
    <glyph glyph-name="acircumflex" unicode="&#xe2;" horiz-adv-x="1071" 
d="M764 1434l168 -287h-119l-115 190l-186 -190h-133l280 287h105zM362 -16q-100 0 -179.5 45.5t-117.5 122t-22 161.5q29 150 147.5 226.5t313.5 76.5h278q56 0 66 50q23 110 -57.5 187t-221.5 77q-119 0 -213 -65.5t-106 -155.5h-129q20 96 91 174.5t172 122t210 43.5
q95 0 174 -30t130 -82t72.5 -125.5t4.5 -156.5l-127 -655h-129l37 190q-64 -96 -167.5 -151t-226.5 -55zM377 102q171 0 284 97t150 278l6 31h-334q-260 0 -303 -195q-18 -85 39.5 -148t157.5 -63z" />
    <glyph glyph-name="atilde" unicode="&#xe3;" horiz-adv-x="1071" 
d="M469 1223h-111q26 86 84.5 138t130.5 52q53 0 95.5 -21t75 -42t61.5 -21t56 20t40 52h111q-26 -87 -84 -139t-131 -52q-52 0 -94.5 21t-75.5 42t-62 21q-31 0 -57.5 -19.5t-38.5 -51.5zM362 -16q-100 0 -179.5 45.5t-117.5 122t-22 161.5q29 150 147.5 226.5t313.5 76.5
h278q56 0 66 50q23 110 -57.5 187t-221.5 77q-119 0 -213 -65.5t-106 -155.5h-129q20 96 91 174.5t172 122t210 43.5q95 0 174 -30t130 -82t72.5 -125.5t4.5 -156.5l-127 -655h-129l37 190q-64 -96 -167.5 -151t-226.5 -55zM377 102q171 0 284 97t150 278l6 31h-334
q-260 0 -303 -195q-18 -85 39.5 -148t157.5 -63z" />
    <glyph glyph-name="adieresis" unicode="&#xe4;" horiz-adv-x="1071" 
d="M481 1403h129l-35 -186h-129zM797 1403h129l-35 -186h-129zM362 -16q-100 0 -179.5 45.5t-117.5 122t-22 161.5q29 150 147.5 226.5t313.5 76.5h278q56 0 66 50q23 110 -57.5 187t-221.5 77q-119 0 -213 -65.5t-106 -155.5h-129q20 96 91 174.5t172 122t210 43.5
q95 0 174 -30t130 -82t72.5 -125.5t4.5 -156.5l-127 -655h-129l37 190q-64 -96 -167.5 -151t-226.5 -55zM377 102q171 0 284 97t150 278l6 31h-334q-260 0 -303 -195q-18 -85 39.5 -148t157.5 -63z" />
    <glyph glyph-name="aring" unicode="&#xe5;" horiz-adv-x="1071" 
d="M631 1116q-101 0 -168.5 61.5t-67.5 155.5q0 92 67.5 153.5t168.5 61.5t169 -61.5t68 -153.5q0 -94 -67.5 -155.5t-169.5 -61.5zM631 1208q59 0 96 35t37 90t-37 90t-96 35q-57 0 -94 -35t-37 -90t37 -90t94 -35zM362 -16q-100 0 -179.5 45.5t-117.5 122t-22 161.5
q29 150 147.5 226.5t313.5 76.5h278q56 0 66 50q23 110 -57.5 187t-221.5 77q-119 0 -213 -65.5t-106 -155.5h-129q20 96 91 174.5t172 122t210 43.5q95 0 174 -30t130 -82t72.5 -125.5t4.5 -156.5l-127 -655h-129l37 190q-64 -96 -167.5 -151t-226.5 -55zM377 102
q171 0 284 97t150 278l6 31h-334q-260 0 -303 -195q-18 -85 39.5 -148t157.5 -63z" />
    <glyph glyph-name="ae" unicode="&#xe6;" horiz-adv-x="1894" 
d="M1409 1049q217 0 331 -137.5t70 -340.5l-16 -67h-827q-19 -177 70.5 -289.5t260.5 -112.5q124 0 211.5 60.5t130.5 163.5h136q-48 -144 -183 -243t-311 -99q-157 0 -270 80.5t-156 218.5q-57 -106 -142 -175.5t-166.5 -96.5t-164.5 -27q-100 0 -179.5 45.5t-118 122
t-22.5 161.5q29 150 147.5 226.5t313.5 76.5h279q55 0 65 50q23 111 -57 187.5t-221 76.5q-119 0 -213.5 -65.5t-106.5 -155.5h-129q20 96 91 174.5t172 122t210 43.5q131 0 227 -54t136 -147q79 96 190.5 148.5t241.5 52.5zM1686 623q17 140 -65.5 223.5t-229.5 83.5
q-145 0 -250 -81.5t-150 -225.5h695zM397 102q171 0 284 97t150 278l5 23q0 2 1 4.5t1 3.5h-334q-260 0 -303 -195q-18 -85 39 -148t157 -63z" />
    <glyph glyph-name="ccedilla" unicode="&#xe7;" horiz-adv-x="1114" 
d="M524 -16q-156 0 -267 77.5t-154.5 209t-12.5 288.5q44 220 204.5 355t377.5 135q115 0 205.5 -40.5t143 -122.5t48.5 -192h-131q5 102 -76 169t-211 67q-154 0 -272.5 -103.5t-153.5 -267.5q-26 -123 4 -227.5t112.5 -167t199.5 -62.5q115 0 195 58.5t124 158.5h131
q-49 -147 -169.5 -241t-297.5 -94zM328 -418h-187l271 295h116z" />
    <glyph glyph-name="egrave" unicode="&#xe8;" horiz-adv-x="1140" 
d="M750 1147h-99l-155 303h135zM655 1049q217 0 331.5 -137.5t70.5 -340.5l-17 -67h-827q-19 -177 71 -289.5t261 -112.5q124 0 211.5 60.5t130.5 163.5h135q-48 -144 -183 -243t-311 -99q-226 0 -352 159.5t-88 401.5q37 225 194 364.5t373 139.5zM932 623
q17 140 -65.5 223.5t-229.5 83.5q-145 0 -249.5 -81.5t-149.5 -225.5h694z" />
    <glyph glyph-name="eacute" unicode="&#xe9;" horiz-adv-x="1140" 
d="M1030 1450l-276 -303h-111l234 303h153zM655 1049q217 0 331.5 -137.5t70.5 -340.5l-17 -67h-827q-19 -177 71 -289.5t261 -112.5q124 0 211.5 60.5t130.5 163.5h135q-48 -144 -183 -243t-311 -99q-226 0 -352 159.5t-88 401.5q37 225 194 364.5t373 139.5zM932 623
q17 140 -65.5 223.5t-229.5 83.5q-145 0 -249.5 -81.5t-149.5 -225.5h694z" />
    <glyph glyph-name="ecircumflex" unicode="&#xea;" horiz-adv-x="1140" 
d="M737 1337l-186 -190h-133l280 287h105l168 -287h-119zM655 1049q217 0 331.5 -137.5t70.5 -340.5l-17 -67h-827q-19 -177 71 -289.5t261 -112.5q124 0 211.5 60.5t130.5 163.5h135q-48 -144 -183 -243t-311 -99q-226 0 -352 159.5t-88 401.5q37 225 194 364.5t373 139.5z
M932 623q17 140 -65.5 223.5t-229.5 83.5q-145 0 -249.5 -81.5t-149.5 -225.5h694z" />
    <glyph glyph-name="edieresis" unicode="&#xeb;" horiz-adv-x="1140" 
d="M649 1403l-35 -186h-129l35 186h129zM965 1403l-35 -186h-129l35 186h129zM655 1049q217 0 331.5 -137.5t70.5 -340.5l-17 -67h-827q-19 -177 71 -289.5t261 -112.5q124 0 211.5 60.5t130.5 163.5h135q-48 -144 -183 -243t-311 -99q-226 0 -352 159.5t-88 401.5
q37 225 194 364.5t373 139.5zM932 623q17 140 -65.5 223.5t-229.5 83.5q-145 0 -249.5 -81.5t-149.5 -225.5h694z" />
    <glyph glyph-name="igrave" unicode="&#xec;" horiz-adv-x="423" 
d="M389 1147h-98l-156 303h135zM47 0l201 1032h129l-201 -1032h-129z" />
    <glyph glyph-name="iacute" unicode="&#xed;" horiz-adv-x="423" 
d="M283 1147l233 303h154l-277 -303h-110zM47 0l201 1032h129l-201 -1032h-129z" />
    <glyph glyph-name="icircumflex" unicode="&#xee;" horiz-adv-x="423" 
d="M442 1434l168 -287h-118l-115 190l-187 -190h-133l281 287h104zM47 0l201 1032h129l-201 -1032h-129z" />
    <glyph glyph-name="idieresis" unicode="&#xef;" horiz-adv-x="423" 
d="M160 1403h129l-35 -186h-129zM475 1403h129l-35 -186h-129zM47 0l201 1032h129l-201 -1032h-129z" />
    <glyph glyph-name="eth" unicode="&#xf0;" horiz-adv-x="1155" 
d="M817 1286q51 -43 91.5 -87.5t76.5 -100t59 -119.5t35.5 -137.5t9.5 -162t-22 -187.5q-19 -98 -71 -188.5t-127.5 -162t-179.5 -114.5t-218 -43q-91 0 -165.5 28t-122 76t-78.5 112.5t-35 137.5t8 151q19 98 70 188t126 161.5t177.5 114t216.5 42.5q86 0 160.5 -29
t115.5 -79q-21 123 -233 321l-152 -112l-59 78l135 100q-91 76 -213 160h184q70 -42 131 -86l144 104l55 -78zM930 489q10 59 9 115.5t-21.5 106t-54.5 87t-90 59.5t-128 22q-87 0 -163.5 -33t-130 -89t-89.5 -124.5t-51 -143.5q-19 -101 2.5 -187t94 -143t188.5 -57
q89 0 166 32.5t130 88t88.5 123.5t49.5 143z" />
    <glyph glyph-name="ntilde" unicode="&#xf1;" horiz-adv-x="1153" 
d="M510 1223h-111q26 86 84.5 138t130.5 52q53 0 95.5 -21t75 -42t61.5 -21t56 20t40 52h111q-26 -87 -84 -139t-131 -52q-52 0 -94.5 21t-75.5 42t-62 21q-31 0 -57.5 -19.5t-38.5 -51.5zM47 0l201 1032h129l-41 -215q60 114 163.5 173t229.5 59q171 0 254.5 -117
t46.5 -305l-121 -627h-129l119 610q29 152 -27.5 238t-185.5 86q-144 0 -257 -107t-144 -272l-109 -555h-129z" />
    <glyph glyph-name="ograve" unicode="&#xf2;" 
d="M768 1147h-98l-156 303h135zM549 -16q-205 0 -337 130t-132 330q0 168 76.5 306.5t211.5 218.5t300 80q205 0 337 -130.5t132 -330.5q0 -168 -76.5 -306.5t-211.5 -218t-300 -79.5zM557 102q191 0 316.5 139.5t125.5 346.5q0 150 -96 246t-244 96q-191 0 -316.5 -139.5
t-125.5 -346.5q0 -150 96 -246t244 -96z" />
    <glyph glyph-name="oacute" unicode="&#xf3;" 
d="M662 1147l233 303h154l-277 -303h-110zM549 -16q-205 0 -337 130t-132 330q0 168 76.5 306.5t211.5 218.5t300 80q205 0 337 -130.5t132 -330.5q0 -168 -76.5 -306.5t-211.5 -218t-300 -79.5zM557 102q191 0 316.5 139.5t125.5 346.5q0 150 -96 246t-244 96
q-191 0 -316.5 -139.5t-125.5 -346.5q0 -150 96 -246t244 -96z" />
    <glyph glyph-name="ocircumflex" unicode="&#xf4;" 
d="M821 1434l168 -287h-119l-114 190l-187 -190h-133l281 287h104zM549 -16q-205 0 -337 130t-132 330q0 168 76.5 306.5t211.5 218.5t300 80q205 0 337 -130.5t132 -330.5q0 -168 -76.5 -306.5t-211.5 -218t-300 -79.5zM557 102q191 0 316.5 139.5t125.5 346.5
q0 150 -96 246t-244 96q-191 0 -316.5 -139.5t-125.5 -346.5q0 -150 96 -246t244 -96z" />
    <glyph glyph-name="otilde" unicode="&#xf5;" 
d="M526 1223h-110q26 86 84.5 138t130.5 52q53 0 95 -21t74.5 -42t61.5 -21t56 20t40 52h111q-26 -87 -84 -139t-131 -52q-41 0 -77 13t-57 29t-47.5 29t-49.5 13q-31 0 -58 -19.5t-39 -51.5zM549 -16q-205 0 -337 130t-132 330q0 168 76.5 306.5t211.5 218.5t300 80
q205 0 337 -130.5t132 -330.5q0 -168 -76.5 -306.5t-211.5 -218t-300 -79.5zM557 102q191 0 316.5 139.5t125.5 346.5q0 150 -96 246t-244 96q-191 0 -316.5 -139.5t-125.5 -346.5q0 -150 96 -246t244 -96z" />
    <glyph glyph-name="odieresis" unicode="&#xf6;" 
d="M539 1403h129l-35 -186h-129zM854 1403h129l-35 -186h-129zM549 -16q-205 0 -337 130t-132 330q0 168 76.5 306.5t211.5 218.5t300 80q205 0 337 -130.5t132 -330.5q0 -168 -76.5 -306.5t-211.5 -218t-300 -79.5zM557 102q191 0 316.5 139.5t125.5 346.5q0 150 -96 246
t-244 96q-191 0 -316.5 -139.5t-125.5 -346.5q0 -150 96 -246t244 -96z" />
    <glyph glyph-name="divide" unicode="&#xf7;" horiz-adv-x="1218" 
d="M651 1110h146l-31 -164h-145zM170 592l23 115h907l-23 -115h-907zM504 348h145l-31 -164h-145z" />
    <glyph glyph-name="oslash" unicode="&#xf8;" 
d="M668 1049q205 0 337 -130.5t132 -330.5q0 -168 -76.5 -306.5t-211.5 -218t-300 -79.5q-205 0 -337 130t-132 330q0 168 76.5 306.5t211.5 218.5t300 80zM659 930q-191 0 -316.5 -139.5t-125.5 -346.5q0 -108 51 -190l621 594q-95 82 -230 82zM557 102q191 0 316.5 139.5
t125.5 346.5q0 109 -51 188l-620 -592q95 -82 229 -82z" />
    <glyph glyph-name="ugrave" unicode="&#xf9;" horiz-adv-x="1153" 
d="M756 1147h-99l-155 303h135zM1106 1032l-201 -1032h-129l41 215q-60 -114 -163 -172.5t-230 -58.5q-161 0 -248.5 122.5t-52.5 299.5l121 626h129l-119 -610q-28 -142 30.5 -231t182.5 -89q145 0 257.5 105.5t143.5 269.5l109 555h129z" />
    <glyph glyph-name="uacute" unicode="&#xfa;" horiz-adv-x="1153" 
d="M649 1147l234 303h153l-276 -303h-111zM1106 1032l-201 -1032h-129l41 215q-60 -114 -163 -172.5t-230 -58.5q-161 0 -248.5 122.5t-52.5 299.5l121 626h129l-119 -610q-28 -142 30.5 -231t182.5 -89q145 0 257.5 105.5t143.5 269.5l109 555h129z" />
    <glyph glyph-name="ucircumflex" unicode="&#xfb;" horiz-adv-x="1153" 
d="M809 1434l168 -287h-119l-115 190l-186 -190h-133l281 287h104zM1106 1032l-201 -1032h-129l41 215q-60 -114 -163 -172.5t-230 -58.5q-161 0 -248.5 122.5t-52.5 299.5l121 626h129l-119 -610q-28 -142 30.5 -231t182.5 -89q145 0 257.5 105.5t143.5 269.5l109 555h129z
" />
    <glyph glyph-name="udieresis" unicode="&#xfc;" horiz-adv-x="1153" 
d="M526 1403h129l-34 -186h-129zM842 1403h129l-35 -186h-129zM1106 1032l-201 -1032h-129l41 215q-60 -114 -163 -172.5t-230 -58.5q-161 0 -248.5 122.5t-52.5 299.5l121 626h129l-119 -610q-28 -142 30.5 -231t182.5 -89q145 0 257.5 105.5t143.5 269.5l109 555h129z" />
    <glyph glyph-name="yacute" unicode="&#xfd;" horiz-adv-x="944" 
d="M903 1450l-276 -303h-111l234 303h153zM883 1032h131l-799 -1450h-127l209 379l-186 1071h135l145 -895z" />
    <glyph glyph-name="thorn" unicode="&#xfe;" horiz-adv-x="1226" 
d="M-33 -418l367 1868h129l-121 -604q66 91 174 147t221 56q96 0 173 -27t126.5 -75.5t80 -115.5t34 -146.5t-11.5 -168.5q-22 -112 -70 -207.5t-120.5 -168.5t-174 -114.5t-221.5 -41.5q-116 0 -212.5 56.5t-125.5 145.5l-119 -604h-129zM563 102q157 0 280 116.5
t158 297.5q35 182 -46.5 298t-245.5 116q-160 0 -285 -116.5t-160 -297.5q-35 -182 48.5 -298t250.5 -116z" />
    <glyph glyph-name="ydieresis" unicode="&#xff;" horiz-adv-x="944" 
d="M522 1403l-35 -186h-129l35 186h129zM838 1403l-35 -186h-129l35 186h129zM883 1032h131l-799 -1450h-127l209 379l-186 1071h135l145 -895z" />
    <glyph glyph-name="Amacron" unicode="&#x100;" horiz-adv-x="1316" 
d="M1161 1733l-22 -115h-535l23 115h534zM1053 0l-78 408h-674l-240 -408h-145l856 1434h129l299 -1434h-147zM375 535h575l-143 737z" />
    <glyph glyph-name="amacron" unicode="&#x101;" horiz-adv-x="1071" 
d="M399 1217l23 114h534l-22 -114h-535zM362 -16q-100 0 -179.5 45.5t-117.5 122t-22 161.5q29 150 147.5 226.5t313.5 76.5h278q56 0 66 50q23 110 -57.5 187t-221.5 77q-119 0 -213 -65.5t-106 -155.5h-129q20 96 91 174.5t172 122t210 43.5q95 0 174 -30t130 -82
t72.5 -125.5t4.5 -156.5l-127 -655h-129l37 190q-64 -96 -167.5 -151t-226.5 -55zM377 102q171 0 284 97t150 278l6 31h-334q-260 0 -303 -195q-18 -85 39.5 -148t157.5 -63z" />
    <glyph glyph-name="Abreve" unicode="&#x102;" horiz-adv-x="1316" 
d="M860 1552q-121 0 -185.5 79.5t-39.5 203.5h115q-14 -74 23.5 -122t109.5 -48q71 0 129 48.5t71 121.5h113q-25 -123 -120.5 -203t-215.5 -80zM1053 0l-78 408h-674l-240 -408h-145l856 1434h129l299 -1434h-147zM375 535h575l-143 737z" />
    <glyph glyph-name="abreve" unicode="&#x103;" horiz-adv-x="1071" 
d="M655 1151q-121 0 -185.5 79.5t-39.5 203.5h115q-14 -74 23.5 -122t109.5 -48q71 0 129.5 48.5t71.5 121.5h112q-25 -123 -120.5 -203t-215.5 -80zM362 -16q-100 0 -179.5 45.5t-117.5 122t-22 161.5q29 150 147.5 226.5t313.5 76.5h278q56 0 66 50q23 110 -57.5 187
t-221.5 77q-119 0 -213 -65.5t-106 -155.5h-129q20 96 91 174.5t172 122t210 43.5q95 0 174 -30t130 -82t72.5 -125.5t4.5 -156.5l-127 -655h-129l37 190q-64 -96 -167.5 -151t-226.5 -55zM377 102q171 0 284 97t150 278l6 31h-334q-260 0 -303 -195q-18 -85 39.5 -148
t157.5 -63z" />
    <glyph glyph-name="Aogonek" unicode="&#x104;" horiz-adv-x="1316" 
d="M1210 -182l41 -92q-90 -72 -190 -72q-81 0 -119 43.5t-24 114.5q19 106 163 188h-28l-78 408h-674l-240 -408h-145l856 1434h129l299 -1434q-79 -59 -115 -94t-43 -70q-6 -32 11 -49.5t51 -17.5q51 0 106 49zM375 535h575l-143 737z" />
    <glyph glyph-name="aogonek" unicode="&#x105;" horiz-adv-x="1071" 
d="M848 0q-79 -59 -115 -94t-43 -70q-6 -32 11 -49.5t51 -17.5q51 0 106 49l41 -92q-90 -72 -190 -72q-81 0 -119.5 43.5t-24.5 114.5q19 105 164 188h-10l37 190q-64 -96 -167.5 -151t-226.5 -55q-100 0 -179.5 45.5t-117.5 122t-22 161.5q29 150 147.5 226.5t313.5 76.5
h278q56 0 66 50q23 110 -57.5 187t-221.5 77q-119 0 -213 -65.5t-106 -155.5h-129q20 96 91 174.5t172 122t210 43.5q95 0 174 -30t130 -82t72.5 -125.5t4.5 -156.5zM377 102q171 0 284 97t150 278l6 31h-334q-260 0 -303 -195q-18 -85 39.5 -148t157.5 -63z" />
    <glyph glyph-name="Cacute" unicode="&#x106;" horiz-adv-x="1449" 
d="M907 1548l234 303h153l-276 -303h-111zM717 -16q-120 0 -225 39t-180 109t-125 167t-61 212.5t11 246.5q64 331 274 511.5t531 180.5q148 0 269.5 -58t190 -161.5t62.5 -229.5h-147q7 137 -109.5 229.5t-289.5 92.5q-243 0 -415.5 -153t-221.5 -412q-56 -290 74.5 -468.5
t387.5 -178.5q160 0 289.5 91t171.5 230h150q-63 -197 -237 -322.5t-400 -125.5z" />
    <glyph glyph-name="cacute" unicode="&#x107;" horiz-adv-x="1114" 
d="M649 1147l234 303h153l-276 -303h-111zM524 -16q-156 0 -267 77.5t-154.5 209t-12.5 288.5q44 220 204.5 355t377.5 135q115 0 205.5 -40.5t143 -122.5t48.5 -192h-131q5 102 -76 169t-211 67q-154 0 -272.5 -103.5t-153.5 -267.5q-26 -123 4 -227.5t112.5 -167
t199.5 -62.5q115 0 195 58.5t124 158.5h131q-49 -147 -169.5 -241t-297.5 -94z" />
    <glyph glyph-name="Ccircumflex" unicode="&#x108;" horiz-adv-x="1449" 
d="M1067 1835l168 -287h-119l-115 191l-186 -191h-133l281 287h104zM717 -16q-120 0 -225 39t-180 109t-125 167t-61 212.5t11 246.5q64 331 274 511.5t531 180.5q148 0 269.5 -58t190 -161.5t62.5 -229.5h-147q7 137 -109.5 229.5t-289.5 92.5q-243 0 -415.5 -153
t-221.5 -412q-56 -290 74.5 -468.5t387.5 -178.5q160 0 289.5 91t171.5 230h150q-63 -197 -237 -322.5t-400 -125.5z" />
    <glyph glyph-name="ccircumflex" unicode="&#x109;" horiz-adv-x="1114" 
d="M809 1434l168 -287h-119l-115 190l-186 -190h-133l281 287h104zM524 -16q-156 0 -267 77.5t-154.5 209t-12.5 288.5q44 220 204.5 355t377.5 135q115 0 205.5 -40.5t143 -122.5t48.5 -192h-131q5 102 -76 169t-211 67q-154 0 -272.5 -103.5t-153.5 -267.5
q-26 -123 4 -227.5t112.5 -167t199.5 -62.5q115 0 195 58.5t124 158.5h131q-49 -147 -169.5 -241t-297.5 -94z" />
    <glyph glyph-name="Cdotaccent" unicode="&#x10a;" horiz-adv-x="1449" 
d="M940 1851h156l-41 -209h-156zM717 -16q-120 0 -225 39t-180 109t-125 167t-61 212.5t11 246.5q64 331 274 511.5t531 180.5q148 0 269.5 -58t190 -161.5t62.5 -229.5h-147q7 137 -109.5 229.5t-289.5 92.5q-243 0 -415.5 -153t-221.5 -412q-56 -290 74.5 -468.5
t387.5 -178.5q160 0 289.5 91t171.5 230h150q-63 -197 -237 -322.5t-400 -125.5z" />
    <glyph glyph-name="cdotaccent" unicode="&#x10b;" horiz-adv-x="1114" 
d="M682 1450h156l-41 -209h-156zM524 -16q-156 0 -267 77.5t-154.5 209t-12.5 288.5q44 220 204.5 355t377.5 135q115 0 205.5 -40.5t143 -122.5t48.5 -192h-131q5 102 -76 169t-211 67q-154 0 -272.5 -103.5t-153.5 -267.5q-26 -123 4 -227.5t112.5 -167t199.5 -62.5
q115 0 195 58.5t124 158.5h131q-49 -147 -169.5 -241t-297.5 -94z" />
    <glyph glyph-name="Ccaron" unicode="&#x10c;" horiz-adv-x="1449" 
d="M905 1548l-168 287h119l115 -190l186 190h133l-280 -287h-105zM717 -16q-120 0 -225 39t-180 109t-125 167t-61 212.5t11 246.5q64 331 274 511.5t531 180.5q148 0 269.5 -58t190 -161.5t62.5 -229.5h-147q7 137 -109.5 229.5t-289.5 92.5q-243 0 -415.5 -153
t-221.5 -412q-56 -290 74.5 -468.5t387.5 -178.5q160 0 289.5 91t171.5 230h150q-63 -197 -237 -322.5t-400 -125.5z" />
    <glyph glyph-name="ccaron" unicode="&#x10d;" horiz-adv-x="1114" 
d="M647 1147l-168 287h119l115 -191l186 191h133l-280 -287h-105zM524 -16q-156 0 -267 77.5t-154.5 209t-12.5 288.5q44 220 204.5 355t377.5 135q115 0 205.5 -40.5t143 -122.5t48.5 -192h-131q5 102 -76 169t-211 67q-154 0 -272.5 -103.5t-153.5 -267.5
q-26 -123 4 -227.5t112.5 -167t199.5 -62.5q115 0 195 58.5t124 158.5h131q-49 -147 -169.5 -241t-297.5 -94z" />
    <glyph glyph-name="Dcaron" unicode="&#x10e;" horiz-adv-x="1368" 
d="M739 1548l-168 287h119l115 -190l186 190h133l-280 -287h-105zM63 0l279 1434h385q146 0 269.5 -56.5t203.5 -152t113 -228.5t4 -280q-68 -347 -279.5 -532t-548.5 -185h-426zM225 127h293q244 0 420.5 160t232.5 430q52 258 -78.5 424t-385.5 166h-252z" />
    <glyph glyph-name="dcaron" unicode="&#x10f;" horiz-adv-x="1341" 
d="M1309 1147l135 344h129l-193 -344h-71zM479 -16q-139 0 -240 70t-143 192t-14 270q45 231 207 382t399 151q114 0 201.5 -56t116.5 -147l118 604h129l-282 -1450h-129l37 186q-66 -91 -176 -146.5t-224 -55.5zM508 102q167 0 289 113t159 301t-42 301t-246 113
t-289.5 -113t-159.5 -301q-37 -187 42.5 -300.5t246.5 -113.5z" />
    <glyph glyph-name="Dcroat" unicode="&#x110;" horiz-adv-x="1531" 
d="M891 1434q146 0 269.5 -56.5t203.5 -152t113 -228.5t4 -280q-68 -347 -279.5 -532t-548.5 -185h-426l129 666h-219l23 110h219l127 658h385zM1335 717q52 258 -79 424t-386 166h-252l-102 -531h422l-23 -110h-421l-105 -539h293q244 0 420.5 160t232.5 430z" />
    <glyph glyph-name="dcroat" unicode="&#x111;" horiz-adv-x="1220" 
d="M1540 1278l-22 -111h-320l-227 -1167h-129l37 186q-66 -91 -176 -146.5t-224 -55.5q-139 0 -240 70t-143 192t-14 270q45 231 207 382t399 151q114 0 201.5 -56t116.5 -147l63 321h-330l23 111h328l34 172h129l-32 -172h319zM956 516q37 188 -42 301t-246 113
t-289.5 -113t-159.5 -301q-37 -187 42.5 -300.5t246.5 -113.5t289 113t159 301z" />
    <glyph glyph-name="Emacron" unicode="&#x112;" horiz-adv-x="1155" 
d="M547 1618l22 115h535l-23 -115h-534zM63 0l279 1434h875l-25 -127h-737l-97 -500h592v-127h-616l-109 -553h760l-24 -127h-898z" />
    <glyph glyph-name="emacron" unicode="&#x113;" horiz-adv-x="1140" 
d="M995 1331l-22 -114h-535l23 114h534zM655 1049q217 0 331.5 -137.5t70.5 -340.5l-17 -67h-827q-19 -177 71 -289.5t261 -112.5q124 0 211.5 60.5t130.5 163.5h135q-48 -144 -183 -243t-311 -99q-226 0 -352 159.5t-88 401.5q37 225 194 364.5t373 139.5zM932 623
q17 140 -65.5 223.5t-229.5 83.5q-145 0 -249.5 -81.5t-149.5 -225.5h694z" />
    <glyph glyph-name="Ebreve" unicode="&#x114;" horiz-adv-x="1155" 
d="M803 1552q-121 0 -185.5 79.5t-39.5 203.5h114q-14 -74 23.5 -122t109.5 -48q71 0 129.5 48.5t71.5 121.5h113q-25 -123 -120.5 -203t-215.5 -80zM63 0l279 1434h875l-25 -127h-737l-97 -500h592v-127h-616l-109 -553h760l-24 -127h-898z" />
    <glyph glyph-name="ebreve" unicode="&#x115;" horiz-adv-x="1140" 
d="M694 1151q-121 0 -185.5 79.5t-39.5 203.5h115q-14 -74 23.5 -122t109.5 -48q71 0 129.5 48.5t71.5 121.5h112q-25 -123 -120.5 -203t-215.5 -80zM655 1049q217 0 331.5 -137.5t70.5 -340.5l-17 -67h-827q-19 -177 71 -289.5t261 -112.5q124 0 211.5 60.5t130.5 163.5
h135q-48 -144 -183 -243t-311 -99q-226 0 -352 159.5t-88 401.5q37 225 194 364.5t373 139.5zM932 623q17 140 -65.5 223.5t-229.5 83.5q-145 0 -249.5 -81.5t-149.5 -225.5h694z" />
    <glyph glyph-name="Edotaccent" unicode="&#x116;" horiz-adv-x="1155" 
d="M784 1851h156l-41 -209h-156zM63 0l279 1434h875l-25 -127h-737l-97 -500h592v-127h-616l-109 -553h760l-24 -127h-898z" />
    <glyph glyph-name="edotaccent" unicode="&#x117;" horiz-adv-x="1140" 
d="M831 1450l-40 -209h-156l41 209h155zM655 1049q217 0 331.5 -137.5t70.5 -340.5l-17 -67h-827q-19 -177 71 -289.5t261 -112.5q124 0 211.5 60.5t130.5 163.5h135q-48 -144 -183 -243t-311 -99q-226 0 -352 159.5t-88 401.5q37 225 194 364.5t373 139.5zM932 623
q17 140 -65.5 223.5t-229.5 83.5q-145 0 -249.5 -81.5t-149.5 -225.5h694z" />
    <glyph glyph-name="Eogonek" unicode="&#x118;" horiz-adv-x="1155" 
d="M1192 1307h-737l-97 -500h592v-127h-616l-109 -553h760l-24 -127q-79 -59 -115 -94t-43 -70q-6 -32 10.5 -49.5t50.5 -17.5q52 0 107 49l41 -92q-90 -72 -191 -72q-81 0 -119 43.5t-24 114.5q19 105 164 188h-779l279 1434h875z" />
    <glyph glyph-name="eogonek" unicode="&#x119;" horiz-adv-x="1140" 
d="M655 1049q217 0 331.5 -137.5t70.5 -340.5l-17 -67h-827q-19 -177 71 -289.5t261 -112.5q124 0 211.5 60.5t130.5 163.5h135q-45 -133 -164 -229.5t-276 -110.5q-66 -47 -99.5 -82t-40.5 -68q-6 -32 11 -49.5t51 -17.5q51 0 106 49l41 -92q-90 -72 -190 -72
q-81 0 -119.5 43.5t-24.5 114.5q19 97 144 176q-198 25 -303 179.5t-70 377.5q37 225 194 364.5t373 139.5zM932 623q17 140 -65.5 223.5t-229.5 83.5q-145 0 -249.5 -81.5t-149.5 -225.5h694z" />
    <glyph glyph-name="Ecaron" unicode="&#x11a;" horiz-adv-x="1155" 
d="M750 1548l-168 287h118l115 -190l186 190h134l-281 -287h-104zM63 0l279 1434h875l-25 -127h-737l-97 -500h592v-127h-616l-109 -553h760l-24 -127h-898z" />
    <glyph glyph-name="ecaron" unicode="&#x11b;" horiz-adv-x="1140" 
d="M745 1147h-104l-168 287h119l115 -191l186 191h133zM655 1049q217 0 331.5 -137.5t70.5 -340.5l-17 -67h-827q-19 -177 71 -289.5t261 -112.5q124 0 211.5 60.5t130.5 163.5h135q-48 -144 -183 -243t-311 -99q-226 0 -352 159.5t-88 401.5q37 225 194 364.5t373 139.5z
M932 623q17 140 -65.5 223.5t-229.5 83.5q-145 0 -249.5 -81.5t-149.5 -225.5h694z" />
    <glyph glyph-name="Gcircumflex" unicode="&#x11c;" horiz-adv-x="1499" 
d="M1063 1835l168 -287h-119l-115 191l-186 -191h-133l280 287h105zM698 -16q-133 0 -249 52t-198.5 151.5t-115 243.5t1.5 327q28 143 87 259.5t137 196t174 133.5t198 78.5t209 24.5q158 0 285 -58t196.5 -162.5t61.5 -234.5h-152q2 93 -53.5 168.5t-151 117.5t-210.5 42
q-244 0 -412 -140.5t-223 -424.5q-29 -147 -7 -266.5t82 -204t154.5 -130.5t210.5 -46q195 0 341 97.5t179 264.5q11 56 -17 89.5t-87 33.5h-326v127h358q38 0 78.5 -15t76 -43.5t52 -79t4.5 -112.5l-92 -473h-131l51 258q-80 -125 -215.5 -199.5t-296.5 -74.5z" />
    <glyph glyph-name="gcircumflex" unicode="&#x11d;" 
d="M831 1434l168 -287h-118l-115 190l-186 -190h-134l281 287h104zM45 -418v119h490q109 0 193 72.5t106 185.5l36 193q-51 -75 -160 -121.5t-231 -46.5q-137 0 -238.5 70.5t-144 193t-14.5 268.5q45 244 201.5 388.5t384.5 144.5q109 0 209 -52.5t133 -130.5l32 166h129
l-208 -1073q-32 -164 -159.5 -270.5t-293.5 -106.5h-465zM508 102q167 0 289 113t159 301q35 184 -51 299t-258 115q-165 0 -278 -112t-150 -302q-34 -173 50 -293.5t239 -120.5z" />
    <glyph glyph-name="Gbreve" unicode="&#x11e;" horiz-adv-x="1499" 
d="M954 1552q-121 0 -185.5 79.5t-39.5 203.5h115q-14 -74 23.5 -122t109.5 -48q71 0 129.5 48.5t71.5 121.5h112q-25 -123 -120.5 -203t-215.5 -80zM698 -16q-133 0 -249 52t-198.5 151.5t-115 243.5t1.5 327q28 143 87 259.5t137 196t174 133.5t198 78.5t209 24.5
q158 0 285 -58t196.5 -162.5t61.5 -234.5h-152q2 93 -53.5 168.5t-151 117.5t-210.5 42q-244 0 -412 -140.5t-223 -424.5q-29 -147 -7 -266.5t82 -204t154.5 -130.5t210.5 -46q195 0 341 97.5t179 264.5q11 56 -17 89.5t-87 33.5h-326v127h358q38 0 78.5 -15t76 -43.5
t52 -79t4.5 -112.5l-92 -473h-131l51 258q-80 -125 -215.5 -199.5t-296.5 -74.5z" />
    <glyph glyph-name="gbreve" unicode="&#x11f;" 
d="M723 1151q-121 0 -185.5 79.5t-39.5 203.5h114q-14 -74 23.5 -122t109.5 -48q71 0 129.5 48.5t71.5 121.5h113q-25 -123 -120.5 -203t-215.5 -80zM45 -418v119h490q109 0 193 72.5t106 185.5l36 193q-51 -75 -160 -121.5t-231 -46.5q-137 0 -238.5 70.5t-144 193
t-14.5 268.5q45 244 201.5 388.5t384.5 144.5q109 0 209 -52.5t133 -130.5l32 166h129l-208 -1073q-32 -164 -159.5 -270.5t-293.5 -106.5h-465zM508 102q167 0 289 113t159 301q35 184 -51 299t-258 115q-165 0 -278 -112t-150 -302q-34 -173 50 -293.5t239 -120.5z" />
    <glyph glyph-name="Gdotaccent" unicode="&#x120;" horiz-adv-x="1499" 
d="M936 1851h156l-41 -209h-156zM698 -16q-133 0 -249 52t-198.5 151.5t-115 243.5t1.5 327q28 143 87 259.5t137 196t174 133.5t198 78.5t209 24.5q158 0 285 -58t196.5 -162.5t61.5 -234.5h-152q2 93 -53.5 168.5t-151 117.5t-210.5 42q-244 0 -412 -140.5t-223 -424.5
q-29 -147 -7 -266.5t82 -204t154.5 -130.5t210.5 -46q195 0 341 97.5t179 264.5q11 56 -17 89.5t-87 33.5h-326v127h358q38 0 78.5 -15t76 -43.5t52 -79t4.5 -112.5l-92 -473h-131l51 258q-80 -125 -215.5 -199.5t-296.5 -74.5z" />
    <glyph glyph-name="gdotaccent" unicode="&#x121;" 
d="M705 1450h155l-41 -209h-155zM45 -418v119h490q109 0 193 72.5t106 185.5l36 193q-51 -75 -160 -121.5t-231 -46.5q-137 0 -238.5 70.5t-144 193t-14.5 268.5q45 244 201.5 388.5t384.5 144.5q109 0 209 -52.5t133 -130.5l32 166h129l-208 -1073q-32 -164 -159.5 -270.5
t-293.5 -106.5h-465zM508 102q167 0 289 113t159 301q35 184 -51 299t-258 115q-165 0 -278 -112t-150 -302q-34 -173 50 -293.5t239 -120.5z" />
    <glyph glyph-name="uni0122" unicode="&#x122;" horiz-adv-x="1499" 
d="M698 -16q-133 0 -249 52t-198.5 151.5t-115 243.5t1.5 327q28 143 87 259.5t137 196t174 133.5t198 78.5t209 24.5q158 0 285 -58t196.5 -162.5t61.5 -234.5h-152q2 93 -53.5 168.5t-151 117.5t-210.5 42q-244 0 -412 -140.5t-223 -424.5q-29 -147 -7 -266.5t82 -204
t154.5 -130.5t210.5 -46q195 0 341 97.5t179 264.5q11 56 -17 89.5t-87 33.5h-326v127h358q38 0 78.5 -15t76 -43.5t52 -79t4.5 -112.5l-92 -473h-131l51 258q-80 -125 -215.5 -199.5t-296.5 -74.5zM389 -434l154 295h194l-241 -295h-107z" />
    <glyph glyph-name="uni0123" unicode="&#x123;" 
d="M940 1450l-121 -303h-133l174 303h80zM45 -418v119h490q109 0 193 72.5t106 185.5l36 193q-51 -75 -160 -121.5t-231 -46.5q-137 0 -238.5 70.5t-144 193t-14.5 268.5q45 244 201.5 388.5t384.5 144.5q109 0 209 -52.5t133 -130.5l32 166h129l-208 -1073
q-32 -164 -159.5 -270.5t-293.5 -106.5h-465zM508 102q167 0 289 113t159 301q35 184 -51 299t-258 115q-165 0 -278 -112t-150 -302q-34 -173 50 -293.5t239 -120.5z" />
    <glyph glyph-name="Hcircumflex" unicode="&#x124;" horiz-adv-x="1406" 
d="M948 1739l-186 -191h-133l280 287h105l168 -287h-119zM1286 1434h135l-278 -1434h-135l131 678h-807l-131 -678h-138l279 1434h137l-123 -629h807z" />
    <glyph glyph-name="hcircumflex" unicode="&#x125;" horiz-adv-x="1155" 
d="M520 1835l168 -287h-119l-114 191l-187 -191h-133l281 287h104zM49 0l283 1450h129l-123 -633q60 114 163.5 173t229.5 59q171 0 254.5 -117t46.5 -305l-121 -627h-129l119 610q29 152 -27.5 238t-185.5 86q-144 0 -257 -107t-144 -272l-109 -555h-129z" />
    <glyph glyph-name="Hbar" unicode="&#x126;" horiz-adv-x="1406" 
d="M1522 1280l-25 -119h-129l-225 -1161h-135l131 678h-807l-131 -678h-138l226 1161h-166l24 119h164l31 154h137l-30 -154h806l31 154h135l-30 -154h131zM1163 805l70 356h-807l-70 -356h807z" />
    <glyph glyph-name="hbar" unicode="&#x127;" horiz-adv-x="1155" 
d="M731 1049q171 0 254.5 -117t46.5 -305l-121 -627h-129l119 610q29 152 -27.5 238t-185.5 86q-144 0 -257 -107t-144 -272l-109 -555h-129l227 1167h-325l22 111h326l33 172h129l-33 -172h324l-23 -111h-323l-68 -350q60 114 163.5 173t229.5 59z" />
    <glyph glyph-name="Itilde" unicode="&#x128;" horiz-adv-x="464" 
d="M246 1624h-111q26 87 84.5 139t130.5 52q53 0 95.5 -21t75 -42t61.5 -21t56 19.5t40 51.5h110q-26 -87 -84 -138.5t-131 -51.5q-41 0 -77 13t-57 29t-47.5 29t-49.5 13q-31 0 -57.5 -20t-38.5 -52zM63 0l279 1434h137l-278 -1434h-138z" />
    <glyph glyph-name="itilde" unicode="&#x129;" horiz-adv-x="423" 
d="M147 1223h-110q26 86 84.5 138t130.5 52q53 0 95 -21t74.5 -42t61.5 -21t56.5 20t40.5 52h110q-26 -87 -84 -139t-131 -52q-41 0 -77 13t-57 29t-47.5 29t-49.5 13q-31 0 -58 -19.5t-39 -51.5zM47 0l201 1032h129l-201 -1032h-129z" />
    <glyph glyph-name="Imacron" unicode="&#x12a;" horiz-adv-x="464" 
d="M176 1618l23 115h534l-22 -115h-535zM63 0l279 1434h137l-278 -1434h-138z" />
    <glyph glyph-name="imacron" unicode="&#x12b;" horiz-adv-x="423" 
d="M78 1217l22 114h535l-23 -114h-534zM47 0l201 1032h129l-201 -1032h-129z" />
    <glyph glyph-name="Ibreve" unicode="&#x12c;" horiz-adv-x="464" 
d="M432 1552q-121 0 -185.5 79.5t-39.5 203.5h115q-14 -74 23.5 -122t109.5 -48q71 0 129 48.5t71 121.5h113q-25 -123 -120.5 -203t-215.5 -80zM63 0l279 1434h137l-278 -1434h-138z" />
    <glyph glyph-name="ibreve" unicode="&#x12d;" horiz-adv-x="423" 
d="M334 1151q-121 0 -185.5 79.5t-39.5 203.5h114q-14 -74 23.5 -122t109.5 -48q71 0 129.5 48.5t71.5 121.5h113q-25 -123 -120.5 -203t-215.5 -80zM47 0l201 1032h129l-201 -1032h-129z" />
    <glyph glyph-name="Iogonek" unicode="&#x12e;" horiz-adv-x="464" 
d="M104 -231q52 0 107 49l41 -92q-90 -72 -191 -72q-81 0 -119 43.5t-24 114.5q19 105 164 188h-19l279 1434h137l-278 -1434q-79 -59 -115 -94t-43 -70q-6 -32 10.5 -49.5t50.5 -17.5z" />
    <glyph glyph-name="iogonek" unicode="&#x12f;" horiz-adv-x="423" 
d="M315 1450h156l-41 -209h-156zM176 0q-79 -59 -115 -94t-43 -70q-6 -32 11 -49.5t51 -17.5q51 0 106 49l41 -92q-90 -72 -190 -72q-81 0 -119 43.5t-24 114.5q19 106 163 188h-10l201 1032h129z" />
    <glyph glyph-name="Idotaccent" unicode="&#x130;" horiz-adv-x="464" 
d="M414 1851h155l-41 -209h-155zM63 0l279 1434h137l-278 -1434h-138z" />
    <glyph glyph-name="dotlessi" unicode="&#x131;" horiz-adv-x="423" 
d="M47 0l201 1032h129l-201 -1032h-129z" />
    <glyph glyph-name="IJ" unicode="&#x132;" horiz-adv-x="1091" 
d="M63 0l279 1434h137l-278 -1434h-138zM412 127h196q66 0 112 55.5t68 161.5l211 1090h138l-211 -1090q-34 -168 -121.5 -256t-220.5 -88h-172v127z" />
    <glyph glyph-name="ij" unicode="&#x133;" horiz-adv-x="870" 
d="M485 1450l-41 -209h-155l41 209h155zM764 1450h156l-41 -209h-156zM391 1032l-201 -1032h-129l201 1032h129zM698 1032h129l-155 -799l-62 -315q-34 -175 -109 -255.5t-233 -80.5h-78v119h103q36 0 62 4.5t45 19t30.5 27.5t21.5 44t15 53t14 69l25 129z" />
    <glyph glyph-name="Jcircumflex" unicode="&#x134;" horiz-adv-x="626" 
d="M733 1835l168 -287h-119l-114 191l-187 -191h-133l281 287h104zM-53 127h196q66 0 112.5 55.5t68.5 161.5l211 1090h137l-211 -1090q-34 -168 -121.5 -256t-220.5 -88h-172v127z" />
    <glyph glyph-name="jcircumflex" unicode="&#x135;" horiz-adv-x="419" 
d="M440 1434l168 -287h-119l-114 190l-187 -190h-133l281 287h104zM248 1032h129l-156 -799l-61 -315q-34 -175 -109 -255.5t-233 -80.5h-78v119h102q31 0 54.5 5t41 11.5t31 22.5t21.5 29t16 41t12.5 48t12.5 60l24 129z" />
    <glyph glyph-name="uni0136" unicode="&#x136;" horiz-adv-x="1255" 
d="M1358 1434l-682 -578l469 -856h-160l-416 766l-260 -221l-106 -545h-140l279 1434h139l-137 -705l834 705h180zM233 -434l154 295h195l-242 -295h-107z" />
    <glyph glyph-name="uni0137" unicode="&#x137;" horiz-adv-x="1036" 
d="M1083 1032l-534 -403l373 -629h-150l-328 551l-184 -137l-80 -414h-131l283 1450h131l-168 -864l594 446h194zM125 -434l154 295h194l-242 -295h-106z" />
    <glyph glyph-name="kgreenlandic" unicode="&#x138;" horiz-adv-x="1048" 
d="M1083 1032l-534 -403l373 -629h-150l-328 551l-184 -137l-80 -414h-131l201 1032h131l-86 -446l594 446h194z" />
    <glyph glyph-name="Lacute" unicode="&#x139;" horiz-adv-x="1067" 
d="M410 1548l233 303h154l-277 -303h-110zM63 0l279 1434h137l-254 -1307h736l-25 -127h-873z" />
    <glyph glyph-name="lacute" unicode="&#x13a;" horiz-adv-x="428" 
d="M356 1548l234 303h153l-276 -303h-111zM49 0l283 1450h129l-283 -1450h-129z" />
    <glyph glyph-name="uni013B" unicode="&#x13b;" horiz-adv-x="1067" 
d="M63 0l279 1434h137l-254 -1307h736l-25 -127h-873zM311 -434l154 295h194l-241 -295h-107z" />
    <glyph glyph-name="uni013C" unicode="&#x13c;" horiz-adv-x="428" 
d="M49 0l283 1450h129l-283 -1450h-129zM-158 -434l154 295h194l-241 -295h-107z" />
    <glyph glyph-name="Lcaron" unicode="&#x13d;" horiz-adv-x="1067" 
d="M717 1147l135 344h129l-193 -344h-71zM63 0l279 1434h137l-254 -1307h736l-25 -127h-873z" />
    <glyph glyph-name="lcaron" unicode="&#x13e;" horiz-adv-x="428" 
d="M498 1147l135 344h129l-193 -344h-71zM49 0l283 1450h129l-283 -1450h-129z" />
    <glyph glyph-name="Ldot" unicode="&#x13f;" horiz-adv-x="1067" 
d="M63 0l279 1434h137l-254 -1307h736l-25 -127h-873zM719 823h155l-43 -225h-155z" />
    <glyph glyph-name="ldot" unicode="&#x140;" horiz-adv-x="428" 
d="M49 0l283 1450h129l-283 -1450h-129zM424 834h156l-43 -226h-156z" />
    <glyph glyph-name="Lslash" unicode="&#x141;" horiz-adv-x="1067" 
d="M225 127h736l-25 -127h-873l125 645l-161 -39l20 103l162 39l133 686h137l-127 -652l176 43l-20 -102l-174 -43z" />
    <glyph glyph-name="lslash" unicode="&#x142;" horiz-adv-x="428" 
d="M504 813l-21 -102l-174 -43l-131 -668h-129l123 635l-170 -41l21 102l170 41l139 713h129l-133 -680z" />
    <glyph glyph-name="Nacute" unicode="&#x143;" horiz-adv-x="1413" 
d="M858 1548l234 303h153l-276 -303h-111zM63 0l279 1434h156l551 -1219l237 1219h141l-278 -1434h-156l-553 1214l-235 -1214h-142z" />
    <glyph glyph-name="nacute" unicode="&#x144;" horiz-adv-x="1153" 
d="M645 1147l234 303h153l-276 -303h-111zM47 0l201 1032h129l-41 -215q60 114 163.5 173t229.5 59q171 0 254.5 -117t46.5 -305l-121 -627h-129l119 610q29 152 -27.5 238t-185.5 86q-144 0 -257 -107t-144 -272l-109 -555h-129z" />
    <glyph glyph-name="uni0145" unicode="&#x145;" horiz-adv-x="1413" 
d="M63 0l279 1434h156l551 -1219l237 1219h141l-278 -1434h-156l-553 1214l-235 -1214h-142zM344 -434l154 295h194l-241 -295h-107z" />
    <glyph glyph-name="uni0146" unicode="&#x146;" horiz-adv-x="1153" 
d="M47 0l201 1032h129l-41 -215q60 114 163.5 173t229.5 59q171 0 254.5 -117t46.5 -305l-121 -627h-129l119 610q29 152 -27.5 238t-185.5 86q-144 0 -257 -107t-144 -272l-109 -555h-129zM209 -434l153 295h195l-242 -295h-106z" />
    <glyph glyph-name="Ncaron" unicode="&#x147;" horiz-adv-x="1413" 
d="M856 1548l-168 287h119l115 -190l186 190h133l-280 -287h-105zM63 0l279 1434h156l551 -1219l237 1219h141l-278 -1434h-156l-553 1214l-235 -1214h-142z" />
    <glyph glyph-name="ncaron" unicode="&#x148;" horiz-adv-x="1153" 
d="M643 1147l-168 287h119l115 -191l186 191h133l-280 -287h-105zM47 0l201 1032h129l-41 -215q60 114 163.5 173t229.5 59q171 0 254.5 -117t46.5 -305l-121 -627h-129l119 610q29 152 -27.5 238t-185.5 86q-144 0 -257 -107t-144 -272l-109 -555h-129z" />
    <glyph glyph-name="Eng" unicode="&#x14a;" horiz-adv-x="1413" 
d="M1290 1434h137l-292 -1508q-32 -167 -120 -255.5t-222 -88.5h-185l25 127h184q66 0 113 56t67 161l7 31l-568 1257l-235 -1214h-138l279 1434h164l547 -1219z" />
    <glyph glyph-name="eng" unicode="&#x14b;" horiz-adv-x="1150" 
d="M725 1049q175 0 257 -115t44 -307l-145 -758q-27 -139 -127 -223.5t-230 -71.5l23 123q84 -6 136 44t71 146l141 723q28 145 -30.5 232.5t-182.5 87.5q-145 0 -257.5 -105.5t-143.5 -269.5l-109 -555h-129l201 1032h129l-41 -215q60 114 163.5 173t229.5 59z" />
    <glyph glyph-name="Omacron" unicode="&#x14c;" horiz-adv-x="1574" 
d="M707 1618l22 115h535l-23 -115h-534zM750 -16q-280 0 -454.5 167t-174.5 435q0 170 59.5 327.5t161.5 276t248.5 189.5t310.5 71q281 0 456 -167t175 -435q0 -170 -59.5 -327.5t-161.5 -276t-249 -189.5t-312 -71zM750 111q135 0 255.5 60.5t203.5 160.5t131.5 230
t48.5 267q0 221 -135 357.5t-351 136.5q-134 0 -254.5 -61t-204 -161.5t-132 -230.5t-48.5 -266q0 -221 135 -357t351 -136z" />
    <glyph glyph-name="omacron" unicode="&#x14d;" 
d="M457 1217l22 114h535l-23 -114h-534zM549 -16q-205 0 -337 130t-132 330q0 168 76.5 306.5t211.5 218.5t300 80q205 0 337 -130.5t132 -330.5q0 -168 -76.5 -306.5t-211.5 -218t-300 -79.5zM557 102q191 0 316.5 139.5t125.5 346.5q0 150 -96 246t-244 96
q-191 0 -316.5 -139.5t-125.5 -346.5q0 -150 96 -246t244 -96z" />
    <glyph glyph-name="Obreve" unicode="&#x14e;" horiz-adv-x="1574" 
d="M963 1552q-121 0 -186 79.5t-40 203.5h115q-14 -74 23.5 -122t109.5 -48q71 0 129.5 48.5t71.5 121.5h112q-25 -124 -120.5 -203.5t-214.5 -79.5zM750 -16q-280 0 -454.5 167t-174.5 435q0 170 59.5 327.5t161.5 276t248.5 189.5t310.5 71q281 0 456 -167t175 -435
q0 -170 -59.5 -327.5t-161.5 -276t-249 -189.5t-312 -71zM750 111q135 0 255.5 60.5t203.5 160.5t131.5 230t48.5 267q0 221 -135 357.5t-351 136.5q-134 0 -254.5 -61t-204 -161.5t-132 -230.5t-48.5 -266q0 -221 135 -357t351 -136z" />
    <glyph glyph-name="obreve" unicode="&#x14f;" 
d="M713 1151q-121 0 -186 79.5t-40 203.5h115q-14 -74 23.5 -122t109.5 -48q71 0 129.5 48.5t71.5 121.5h113q-25 -123 -120.5 -203t-215.5 -80zM549 -16q-205 0 -337 130t-132 330q0 168 76.5 306.5t211.5 218.5t300 80q205 0 337 -130.5t132 -330.5q0 -168 -76.5 -306.5
t-211.5 -218t-300 -79.5zM557 102q191 0 316.5 139.5t125.5 346.5q0 150 -96 246t-244 96q-191 0 -316.5 -139.5t-125.5 -346.5q0 -150 96 -246t244 -96z" />
    <glyph glyph-name="Ohungarumlaut" unicode="&#x150;" horiz-adv-x="1574" 
d="M784 1548l238 303h135l-274 -303h-99zM1034 1548l238 303h135l-274 -303h-99zM750 -16q-280 0 -454.5 167t-174.5 435q0 170 59.5 327.5t161.5 276t248.5 189.5t310.5 71q281 0 456 -167t175 -435q0 -170 -59.5 -327.5t-161.5 -276t-249 -189.5t-312 -71zM750 111
q135 0 255.5 60.5t203.5 160.5t131.5 230t48.5 267q0 221 -135 357.5t-351 136.5q-134 0 -254.5 -61t-204 -161.5t-132 -230.5t-48.5 -266q0 -221 135 -357t351 -136z" />
    <glyph glyph-name="ohungarumlaut" unicode="&#x151;" 
d="M535 1147l237 303h135l-274 -303h-98zM784 1147l238 303h135l-274 -303h-99zM549 -16q-205 0 -337 130t-132 330q0 168 76.5 306.5t211.5 218.5t300 80q205 0 337 -130.5t132 -330.5q0 -168 -76.5 -306.5t-211.5 -218t-300 -79.5zM557 102q191 0 316.5 139.5t125.5 346.5
q0 150 -96 246t-244 96q-191 0 -316.5 -139.5t-125.5 -346.5q0 -150 96 -246t244 -96z" />
    <glyph glyph-name="OE" unicode="&#x152;" horiz-adv-x="2058" 
d="M2095 1307h-737l-96 -500h591v-127h-616l-100 -506l-9 -47h760l-24 -127h-1166q-209 0 -351.5 95t-198 267.5t-11.5 395.5q39 200 162 355t300 238t378 83h1143zM991 127l230 1180h-273q-111 0 -217 -34.5t-197 -100t-158 -172.5t-93 -242q-28 -136 -16.5 -240t48 -178
t100 -121.5t139 -69.5t165.5 -22h272z" />
    <glyph glyph-name="oe" unicode="&#x153;" horiz-adv-x="2060" 
d="M1575 1049q217 0 331 -137.5t70 -340.5l-16 -67h-827q-19 -177 70.5 -289.5t260.5 -112.5q124 0 211.5 60.5t130.5 163.5h136q-48 -144 -183 -243t-311 -99q-146 0 -253 69t-159 191q-78 -121 -205.5 -190.5t-281.5 -69.5q-205 0 -337 130t-132 330q0 168 76.5 306.5
t211.5 218.5t300 80q148 0 261.5 -71.5t166.5 -193.5q79 124 204.5 194.5t274.5 70.5zM557 102q191 0 316.5 139.5t125.5 346.5q0 150 -96 246t-244 96q-191 0 -316.5 -139.5t-125.5 -346.5q0 -150 96 -246t244 -96zM1851 623q17 140 -65.5 223.5t-229.5 83.5
q-145 0 -249.5 -81.5t-149.5 -225.5h694z" />
    <glyph glyph-name="Racute" unicode="&#x154;" horiz-adv-x="1282" 
d="M1137 1851l-277 -303h-110l233 303h154zM868 1434q206 0 306 -112.5t63 -299.5q-22 -117 -102.5 -204.5t-200.5 -139.5q78 -46 113 -133t20 -201l-47 -344h-129l47 344q15 114 -39.5 186t-161.5 72h-420l-116 -602h-138l279 1434h526zM1092 1022q14 57 5 108.5t-34 91
t-80.5 62.5t-134.5 23h-393l-113 -578h393q79 0 143.5 24t107 66t69 93t37.5 110z" />
    <glyph glyph-name="racute" unicode="&#x155;" horiz-adv-x="739" 
d="M498 1147l233 303h154l-277 -303h-110zM788 913h-147q-66 0 -121.5 -24.5t-95.5 -65.5t-72 -102.5t-53 -129.5t-37 -151l-86 -440h-129l201 1032h129l-43 -219q54 110 133.5 164.5t196.5 54.5h124v-119z" />
    <glyph glyph-name="uni0156" unicode="&#x156;" horiz-adv-x="1282" 
d="M868 1434q206 0 306 -112.5t63 -299.5q-22 -117 -102.5 -204.5t-200.5 -139.5q78 -46 113 -133t20 -201l-47 -344h-129l47 344q15 114 -39.5 186t-161.5 72h-420l-116 -602h-138l279 1434h526zM1092 1022q14 57 5 108.5t-34 91t-80.5 62.5t-134.5 23h-393l-113 -578h393
q79 0 143.5 24t107 66t69 93t37.5 110zM281 -434l153 295h195l-242 -295h-106z" />
    <glyph glyph-name="uni0157" unicode="&#x157;" horiz-adv-x="739" 
d="M788 913h-147q-66 0 -121.5 -24.5t-95.5 -65.5t-72 -102.5t-53 -129.5t-37 -151l-86 -440h-129l201 1032h129l-43 -219q54 110 133.5 164.5t196.5 54.5h124v-119zM-152 -434l154 295h195l-242 -295h-107z" />
    <glyph glyph-name="Rcaron" unicode="&#x158;" horiz-adv-x="1282" 
d="M852 1548h-104l-168 287h118l115 -190l186 190h134zM868 1434q206 0 306 -112.5t63 -299.5q-22 -117 -102.5 -204.5t-200.5 -139.5q78 -46 113 -133t20 -201l-47 -344h-129l47 344q15 114 -39.5 186t-161.5 72h-420l-116 -602h-138l279 1434h526zM1092 1022
q14 57 5 108.5t-34 91t-80.5 62.5t-134.5 23h-393l-113 -578h393q79 0 143.5 24t107 66t69 93t37.5 110z" />
    <glyph glyph-name="rcaron" unicode="&#x159;" horiz-adv-x="739" 
d="M496 1147l-168 287h118l115 -191l187 191h133l-281 -287h-104zM788 913h-147q-66 0 -121.5 -24.5t-95.5 -65.5t-72 -102.5t-53 -129.5t-37 -151l-86 -440h-129l201 1032h129l-43 -219q54 110 133.5 164.5t196.5 54.5h124v-119z" />
    <glyph glyph-name="Sacute" unicode="&#x15a;" horiz-adv-x="1251" 
d="M745 1548l234 303h154l-277 -303h-111zM573 -16q-247 0 -389.5 133t-115.5 348h137q-9 -163 93 -258.5t296 -95.5q81 0 151.5 18t126.5 53t88.5 92.5t32.5 131.5q0 64 -26.5 111.5t-72 75t-104 48t-123 35.5t-129 32t-123 43t-104 63t-72 97.5t-26.5 141.5
q0 114 74.5 206.5t194.5 141.5t257 49q225 0 355 -113.5t120 -302.5h-137q8 131 -89 210t-267 79q-154 0 -258.5 -72t-104.5 -194q0 -63 27 -109t72.5 -72t104 -44.5t124 -33t130.5 -30.5t123.5 -42.5t104 -64t72.5 -100.5t27 -147q0 -129 -82.5 -229t-211 -150.5
t-276.5 -50.5z" />
    <glyph glyph-name="sacute" unicode="&#x15b;" horiz-adv-x="1001" 
d="M549 1147l233 303h154l-277 -303h-110zM440 -16q-168 0 -277.5 101t-101.5 241h129q0 -101 75.5 -162.5t197.5 -61.5q108 0 177 52.5t71 134.5q1 55 -28 93.5t-76.5 59.5t-104.5 37.5t-114 36t-103.5 46.5t-74 76.5t-24.5 119.5q6 123 121.5 207t278.5 84t263.5 -87.5
t92.5 -222.5h-129q-2 86 -70 138.5t-180 52.5q-105 0 -171.5 -48t-69.5 -124q-2 -46 20 -77t59.5 -46t86 -28.5t99 -23t98 -30.5t84.5 -50.5t58.5 -84t18.5 -129.5q-5 -134 -119 -219.5t-287 -85.5z" />
    <glyph glyph-name="Scircumflex" unicode="&#x15c;" horiz-adv-x="1251" 
d="M905 1835l168 -287h-119l-114 191l-187 -191h-133l281 287h104zM573 -16q-247 0 -389.5 133t-115.5 348h137q-9 -163 93 -258.5t296 -95.5q81 0 151.5 18t126.5 53t88.5 92.5t32.5 131.5q0 64 -26.5 111.5t-72 75t-104 48t-123 35.5t-129 32t-123 43t-104 63t-72 97.5
t-26.5 141.5q0 114 74.5 206.5t194.5 141.5t257 49q225 0 355 -113.5t120 -302.5h-137q8 131 -89 210t-267 79q-154 0 -258.5 -72t-104.5 -194q0 -63 27 -109t72.5 -72t104 -44.5t124 -33t130.5 -30.5t123.5 -42.5t104 -64t72.5 -100.5t27 -147q0 -129 -82.5 -229
t-211 -150.5t-276.5 -50.5z" />
    <glyph glyph-name="scircumflex" unicode="&#x15d;" horiz-adv-x="1001" 
d="M709 1434l168 -287h-119l-115 190l-186 -190h-133l280 287h105zM440 -16q-168 0 -277.5 101t-101.5 241h129q0 -101 75.5 -162.5t197.5 -61.5q108 0 177 52.5t71 134.5q1 55 -28 93.5t-76.5 59.5t-104.5 37.5t-114 36t-103.5 46.5t-74 76.5t-24.5 119.5q6 123 121.5 207
t278.5 84t263.5 -87.5t92.5 -222.5h-129q-2 86 -70 138.5t-180 52.5q-105 0 -171.5 -48t-69.5 -124q-2 -46 20 -77t59.5 -46t86 -28.5t99 -23t98 -30.5t84.5 -50.5t58.5 -84t18.5 -129.5q-5 -134 -119 -219.5t-287 -85.5z" />
    <glyph glyph-name="Scedilla" unicode="&#x15e;" horiz-adv-x="1251" 
d="M573 -16q-247 0 -389.5 133t-115.5 348h137q-9 -163 93 -258.5t296 -95.5q81 0 151.5 18t126.5 53t88.5 92.5t32.5 131.5q0 64 -26.5 111.5t-72 75t-104 48t-123 35.5t-129 32t-123 43t-104 63t-72 97.5t-26.5 141.5q0 114 74.5 206.5t194.5 141.5t257 49
q225 0 355 -113.5t120 -302.5h-137q8 131 -89 210t-267 79q-154 0 -258.5 -72t-104.5 -194q0 -63 27 -109t72.5 -72t104 -44.5t124 -33t130.5 -30.5t123.5 -42.5t104 -64t72.5 -100.5t27 -147q0 -129 -82.5 -229t-211 -150.5t-276.5 -50.5zM430 -418h-186l270 295h117z" />
    <glyph glyph-name="scedilla" unicode="&#x15f;" horiz-adv-x="1001" 
d="M440 -16q-168 0 -277.5 101t-101.5 241h129q0 -101 75.5 -162.5t197.5 -61.5q108 0 177 52.5t71 134.5q1 55 -28 93.5t-76.5 59.5t-104.5 37.5t-114 36t-103.5 46.5t-74 76.5t-24.5 119.5q6 123 121.5 207t278.5 84t263.5 -87.5t92.5 -222.5h-129q-2 86 -70 138.5
t-180 52.5q-105 0 -171.5 -48t-69.5 -124q-2 -46 20 -77t59.5 -46t86 -28.5t99 -23t98 -30.5t84.5 -50.5t58.5 -84t18.5 -129.5q-5 -134 -119 -219.5t-287 -85.5zM262 -418h-186l270 295h117z" />
    <glyph glyph-name="Scaron" unicode="&#x160;" horiz-adv-x="1251" 
d="M743 1548l-168 287h119l115 -190l186 190h133l-280 -287h-105zM573 -16q-247 0 -389.5 133t-115.5 348h137q-9 -163 93 -258.5t296 -95.5q81 0 151.5 18t126.5 53t88.5 92.5t32.5 131.5q0 64 -26.5 111.5t-72 75t-104 48t-123 35.5t-129 32t-123 43t-104 63t-72 97.5
t-26.5 141.5q0 114 74.5 206.5t194.5 141.5t257 49q225 0 355 -113.5t120 -302.5h-137q8 131 -89 210t-267 79q-154 0 -258.5 -72t-104.5 -194q0 -63 27 -109t72.5 -72t104 -44.5t124 -33t130.5 -30.5t123.5 -42.5t104 -64t72.5 -100.5t27 -147q0 -129 -82.5 -229
t-211 -150.5t-276.5 -50.5z" />
    <glyph glyph-name="scaron" unicode="&#x161;" horiz-adv-x="1001" 
d="M547 1147l-168 287h119l114 -191l187 191h133l-281 -287h-104zM440 -16q-168 0 -277.5 101t-101.5 241h129q0 -101 75.5 -162.5t197.5 -61.5q108 0 177 52.5t71 134.5q1 55 -28 93.5t-76.5 59.5t-104.5 37.5t-114 36t-103.5 46.5t-74 76.5t-24.5 119.5q6 123 121.5 207
t278.5 84t263.5 -87.5t92.5 -222.5h-129q-2 86 -70 138.5t-180 52.5q-105 0 -171.5 -48t-69.5 -124q-2 -46 20 -77t59.5 -46t86 -28.5t99 -23t98 -30.5t84.5 -50.5t58.5 -84t18.5 -129.5q-5 -134 -119 -219.5t-287 -85.5z" />
    <glyph glyph-name="uni0162" unicode="&#x162;" horiz-adv-x="1126" 
d="M395 0l254 1307h-469l25 127h1073l-25 -127h-467l-254 -1307h-137zM348 -418h-186l270 295h117z" />
    <glyph glyph-name="uni0163" unicode="&#x163;" horiz-adv-x="786" 
d="M401 1370h129l-65 -338h317v-119h-340l-120 -614q-15 -81 21 -130.5t108 -49.5h163l-22 -119h-162q-133 0 -198 82t-39 217l120 614h-209v119h232zM162 -418h-187l271 295h116z" />
    <glyph glyph-name="Tcaron" unicode="&#x164;" horiz-adv-x="1126" 
d="M711 1548l-168 287h119l114 -190l187 190h133l-281 -287h-104zM395 0l254 1307h-469l25 127h1073l-25 -127h-467l-254 -1307h-137z" />
    <glyph glyph-name="tcaron" unicode="&#x165;" horiz-adv-x="786" 
d="M647 1147l135 344h129l-192 -344h-72zM401 1370h129l-65 -338h317v-119h-340l-120 -614q-15 -81 21 -130.5t108 -49.5h163l-22 -119h-162q-133 0 -198 82t-39 217l120 614h-209v119h232z" />
    <glyph glyph-name="Tbar" unicode="&#x166;" horiz-adv-x="1126" 
d="M1253 1307h-467l-104 -535h319l-22 -110h-317l-130 -662h-137l129 662h-323l22 110h322l104 535h-469l25 127h1073z" />
    <glyph glyph-name="tbar" unicode="&#x167;" horiz-adv-x="786" 
d="M782 913h-340l-67 -342h401l-22 -110h-400l-32 -162q-15 -81 21 -130.5t108 -49.5h163l-22 -119h-162q-133 0 -198 82t-39 217l32 162h-250l23 110h248l67 342h-209v119h232l65 338h129l-65 -338h317v-119z" />
    <glyph glyph-name="Utilde" unicode="&#x168;" horiz-adv-x="1331" 
d="M680 1624h-111q26 87 84.5 139t130.5 52q53 0 95.5 -21t75 -42t61.5 -21t56 19.5t40 51.5h111q-26 -87 -84 -138.5t-131 -51.5q-52 0 -94.5 21t-75.5 42t-62 21q-31 0 -57.5 -20t-38.5 -52zM588 -16q-239 0 -369.5 150t-85.5 382l178 918h140l-179 -920
q-35 -181 61.5 -292t280.5 -111q166 0 287 109.5t156 293.5l178 920h141l-180 -918q-52 -263 -207 -397.5t-401 -134.5z" />
    <glyph glyph-name="utilde" unicode="&#x169;" horiz-adv-x="1153" 
d="M514 1223h-111q26 86 84.5 138t130.5 52q53 0 95.5 -21t75 -42t61.5 -21t56 20t40 52h111q-26 -87 -84 -139t-131 -52q-52 0 -94.5 21t-75.5 42t-62 21q-31 0 -57.5 -19.5t-38.5 -51.5zM1106 1032l-201 -1032h-129l41 215q-60 -114 -163 -172.5t-230 -58.5
q-161 0 -248.5 122.5t-52.5 299.5l121 626h129l-119 -610q-28 -142 30.5 -231t182.5 -89q145 0 257.5 105.5t143.5 269.5l109 555h129z" />
    <glyph glyph-name="Umacron" unicode="&#x16a;" horiz-adv-x="1331" 
d="M610 1618l23 115h534l-22 -115h-535zM588 -16q-239 0 -369.5 150t-85.5 382l178 918h140l-179 -920q-35 -181 61.5 -292t280.5 -111q166 0 287 109.5t156 293.5l178 920h141l-180 -918q-52 -263 -207 -397.5t-401 -134.5z" />
    <glyph glyph-name="umacron" unicode="&#x16b;" horiz-adv-x="1153" 
d="M444 1217l23 114h534l-22 -114h-535zM1106 1032l-201 -1032h-129l41 215q-60 -114 -163 -172.5t-230 -58.5q-161 0 -248.5 122.5t-52.5 299.5l121 626h129l-119 -610q-28 -142 30.5 -231t182.5 -89q145 0 257.5 105.5t143.5 269.5l109 555h129z" />
    <glyph glyph-name="Ubreve" unicode="&#x16c;" horiz-adv-x="1331" 
d="M866 1552q-121 0 -185.5 79.5t-39.5 203.5h115q-14 -74 23.5 -122t109.5 -48q71 0 129.5 48.5t71.5 121.5h112q-25 -123 -120.5 -203t-215.5 -80zM588 -16q-239 0 -369.5 150t-85.5 382l178 918h140l-179 -920q-35 -181 61.5 -292t280.5 -111q166 0 287 109.5t156 293.5
l178 920h141l-180 -918q-52 -263 -207 -397.5t-401 -134.5z" />
    <glyph glyph-name="ubreve" unicode="&#x16d;" horiz-adv-x="1153" 
d="M700 1151q-121 0 -185.5 79.5t-39.5 203.5h115q-14 -74 23.5 -122t109.5 -48q71 0 129.5 48.5t71.5 121.5h112q-25 -123 -120.5 -203t-215.5 -80zM1106 1032l-201 -1032h-129l41 215q-60 -114 -163 -172.5t-230 -58.5q-161 0 -248.5 122.5t-52.5 299.5l121 626h129
l-119 -610q-28 -142 30.5 -231t182.5 -89q145 0 257.5 105.5t143.5 269.5l109 555h129z" />
    <glyph glyph-name="Uring" unicode="&#x16e;" horiz-adv-x="1331" 
d="M842 1518q-101 0 -168.5 61.5t-67.5 155.5q0 92 67.5 153.5t168.5 61.5t169 -61.5t68 -153.5q0 -94 -67.5 -155.5t-169.5 -61.5zM842 1610q59 0 96 35t37 90t-37 90t-96 35q-57 0 -94 -35t-37 -90t37 -90t94 -35zM588 -16q-239 0 -369.5 150t-85.5 382l178 918h140
l-179 -920q-35 -181 61.5 -292t280.5 -111q166 0 287 109.5t156 293.5l178 920h141l-180 -918q-52 -263 -207 -397.5t-401 -134.5z" />
    <glyph glyph-name="uring" unicode="&#x16f;" horiz-adv-x="1153" 
d="M676 1116q-101 0 -168.5 61.5t-67.5 155.5q0 92 67.5 153.5t168.5 61.5t169 -61.5t68 -153.5q0 -94 -67.5 -155.5t-169.5 -61.5zM676 1208q59 0 96 35t37 90t-37 90t-96 35q-57 0 -94 -35t-37 -90t37 -90t94 -35zM1106 1032l-201 -1032h-129l41 215q-60 -114 -163 -172.5
t-230 -58.5q-161 0 -248.5 122.5t-52.5 299.5l121 626h129l-119 -610q-28 -142 30.5 -231t182.5 -89q145 0 257.5 105.5t143.5 269.5l109 555h129z" />
    <glyph glyph-name="Uhungarumlaut" unicode="&#x170;" horiz-adv-x="1331" 
d="M688 1548l238 303h135l-275 -303h-98zM938 1548l238 303h135l-275 -303h-98zM588 -16q-239 0 -369.5 150t-85.5 382l178 918h140l-179 -920q-35 -181 61.5 -292t280.5 -111q166 0 287 109.5t156 293.5l178 920h141l-180 -918q-52 -263 -207 -397.5t-401 -134.5z" />
    <glyph glyph-name="uhungarumlaut" unicode="&#x171;" horiz-adv-x="1153" 
d="M522 1147l238 303h135l-274 -303h-99zM772 1147l238 303h135l-275 -303h-98zM1106 1032l-201 -1032h-129l41 215q-60 -114 -163 -172.5t-230 -58.5q-161 0 -248.5 122.5t-52.5 299.5l121 626h129l-119 -610q-28 -142 30.5 -231t182.5 -89q145 0 257.5 105.5t143.5 269.5
l109 555h129z" />
    <glyph glyph-name="Uogonek" unicode="&#x172;" horiz-adv-x="1331" 
d="M1235 1434h141l-180 -918q-49 -250 -192 -384t-369 -146q-64 -47 -97 -82t-40 -68q-6 -32 10.5 -49.5t50.5 -17.5q52 0 107 49l41 -92q-90 -72 -191 -72q-81 0 -119 43.5t-24 114.5q19 98 143 176q-208 24 -316.5 169t-66.5 359l178 918h140l-179 -920
q-35 -181 61.5 -292t280.5 -111q166 0 287 109.5t156 293.5z" />
    <glyph glyph-name="uogonek" unicode="&#x173;" horiz-adv-x="1153" 
d="M805 -231q51 0 106 49l41 -92q-90 -72 -190 -72q-81 0 -119.5 43.5t-24.5 114.5q19 105 164 188h-6l41 215q-60 -114 -163 -172.5t-230 -58.5q-161 0 -248.5 122.5t-52.5 299.5l121 626h129l-119 -610q-28 -142 30.5 -231t182.5 -89q145 0 257.5 105.5t143.5 269.5
l109 555h129l-201 -1032h-4q-79 -59 -115 -94t-43 -70q-6 -32 11 -49.5t51 -17.5z" />
    <glyph glyph-name="Wcircumflex" unicode="&#x174;" horiz-adv-x="1959" 
d="M1292 1835l168 -287h-119l-114 191l-187 -191h-133l281 287h104zM365 0l-170 1434h143l139 -1225l619 1225h125l143 -1225l616 1225h142l-723 -1434h-144l-137 1225l-614 -1225h-139z" />
    <glyph glyph-name="wcircumflex" unicode="&#x175;" horiz-adv-x="1480" 
d="M961 1434l167 -287h-118l-115 190l-186 -190h-134l281 287h105zM227 0l-106 1032h129l72 -872l444 872h131l100 -872l412 872h131l-508 -1032h-131l-102 872l-441 -872h-131z" />
    <glyph glyph-name="Ycircumflex" unicode="&#x176;" horiz-adv-x="1183" 
d="M901 1835l168 -287h-119l-114 191l-187 -191h-133l281 287h104zM422 0l117 602l-351 832h150l285 -707l559 707h170l-676 -832l-117 -602h-137z" />
    <glyph glyph-name="ycircumflex" unicode="&#x177;" horiz-adv-x="944" 
d="M610 1337l-186 -190h-133l280 287h105l168 -287h-119zM883 1032h131l-799 -1450h-127l209 379l-186 1071h135l145 -895z" />
    <glyph glyph-name="Ydieresis" unicode="&#x178;" horiz-adv-x="1183" 
d="M618 1804h130l-35 -186h-129zM934 1804h129l-35 -186h-129zM422 0l117 602l-351 832h150l285 -707l559 707h170l-676 -832l-117 -602h-137z" />
    <glyph glyph-name="Zacute" unicode="&#x179;" horiz-adv-x="1224" 
d="M754 1548l233 303h154l-277 -303h-110zM-27 0l25 127l1137 1180h-859l25 127h1020l-25 -127l-1120 -1180h891l-25 -127h-1069z" />
    <glyph glyph-name="zacute" unicode="&#x17a;" horiz-adv-x="1013" 
d="M598 1147l233 303h154l-276 -303h-111zM-12 0l22 119l811 794h-626l22 119h791l-23 -119l-809 -794h682l-22 -119h-848z" />
    <glyph glyph-name="Zdotaccent" unicode="&#x17b;" horiz-adv-x="1224" 
d="M786 1851h156l-41 -209h-156zM-27 0l25 127l1137 1180h-859l25 127h1020l-25 -127l-1120 -1180h891l-25 -127h-1069z" />
    <glyph glyph-name="zdotaccent" unicode="&#x17c;" horiz-adv-x="1013" 
d="M631 1450h155l-41 -209h-155zM-12 0l22 119l811 794h-626l22 119h791l-23 -119l-809 -794h682l-22 -119h-848z" />
    <glyph glyph-name="Zcaron" unicode="&#x17d;" horiz-adv-x="1224" 
d="M752 1548l-168 287h118l115 -190l187 190h133l-281 -287h-104zM-27 0l25 127l1137 1180h-859l25 127h1020l-25 -127l-1120 -1180h891l-25 -127h-1069z" />
    <glyph glyph-name="zcaron" unicode="&#x17e;" horiz-adv-x="1013" 
d="M596 1147l-168 287h119l115 -191l186 191h133l-281 -287h-104zM-12 0l22 119l811 794h-626l22 119h791l-23 -119l-809 -794h682l-22 -119h-848z" />
    <glyph glyph-name="longs" unicode="&#x17f;" horiz-adv-x="688" 
d="M162 0l178 913h-221l22 119h221l21 109q28 142 126.5 225.5t238.5 83.5h153l-24 -119h-156q-78 0 -134 -50.5t-75 -139.5l-221 -1141h-129z" />
    <glyph glyph-name="uni018F" unicode="&#x18f;" horiz-adv-x="1509" 
d="M909 1448q144 0 261.5 -56t189.5 -155.5t100 -237t-6 -301.5q-64 -328 -288 -524.5t-517 -196.5q-138 0 -248 45t-179.5 129t-95 205t4.5 273q5 25 23 88h1161q31 167 -15.5 306t-156.5 218.5t-258 79.5q-198 0 -343.5 -90.5t-215.5 -249.5h-146q74 213 270 340t459 127z
M674 104q209 0 371.5 131t236.5 357h-1016q-41 -213 72.5 -350.5t335.5 -137.5z" />
    <glyph glyph-name="florin" unicode="&#x192;" horiz-adv-x="1093" 
d="M1083 1333q-97 2 -165 -45t-111 -153l-41 -103h391l-22 -119h-418l-404 -995q-76 -189 -186 -262.5t-281 -73.5h-102l25 119l131 -2q96 -2 164.5 45.5t111.5 153.5l412 1015h-307l22 119h334l33 82q76 189 186 262.5t281 73.5h102l-25 -119z" />
    <glyph glyph-name="Aringacute" unicode="&#x1fa;" horiz-adv-x="1316" 
d="M836 1518q-101 0 -168.5 61.5t-67.5 155.5q0 87 60 147t153 68l229 297h154l-276 -303h-25q79 -17 128.5 -74.5t49.5 -134.5q0 -94 -67.5 -155.5t-169.5 -61.5zM836 1860q-57 0 -94 -35t-37 -90t37 -90t94 -35q59 0 96 35t37 90t-37 90t-96 35zM1053 0l-78 408h-674
l-240 -408h-145l856 1434h129l299 -1434h-147zM375 535h575l-143 737z" />
    <glyph glyph-name="aringacute" unicode="&#x1fb;" horiz-adv-x="1071" 
d="M631 1116q-101 0 -168.5 61.5t-67.5 155.5q0 87 60 147t153 68l230 297h153l-276 -303h-25q79 -17 128.5 -74.5t49.5 -134.5q0 -94 -67.5 -155.5t-169.5 -61.5zM631 1458q-57 0 -94 -35t-37 -90t37 -90t94 -35q59 0 96 35t37 90t-37 90t-96 35zM594 1049q95 0 174 -30
t130 -82t72.5 -125.5t4.5 -156.5l-127 -655h-129l37 190q-64 -96 -167.5 -151t-226.5 -55q-100 0 -179.5 45.5t-117.5 122t-22 161.5q29 150 147.5 226.5t313.5 76.5h278q56 0 66 50q23 110 -57.5 187t-221.5 77q-119 0 -213 -65.5t-106 -155.5h-129q20 96 91 174.5t172 122
t210 43.5zM811 477l6 31h-334q-260 0 -303 -195q-18 -85 39.5 -148t157.5 -63q171 0 284 97t150 278z" />
    <glyph glyph-name="AEacute" unicode="&#x1fc;" horiz-adv-x="1912" 
d="M1860 1851l-277 -303h-110l233 303h154zM1950 1307h-635l-96 -500h501l-24 -127h-502l-109 -553h658l-25 -127h-794l80 408h-586l-342 -408h-160l1219 1434h839zM524 535h504l152 782z" />
    <glyph glyph-name="aeacute" unicode="&#x1fd;" horiz-adv-x="1894" 
d="M1407 1450l-277 -303h-110l233 303h154zM1409 1049q217 0 331 -137.5t70 -340.5l-16 -67h-827q-19 -177 70.5 -289.5t260.5 -112.5q124 0 211.5 60.5t130.5 163.5h136q-48 -144 -183 -243t-311 -99q-157 0 -270 80.5t-156 218.5q-57 -106 -142 -175.5t-166.5 -96.5
t-164.5 -27q-100 0 -179.5 45.5t-118 122t-22.5 161.5q29 150 147.5 226.5t313.5 76.5h279q55 0 65 50q23 111 -57 187.5t-221 76.5q-119 0 -213.5 -65.5t-106.5 -155.5h-129q20 96 91 174.5t172 122t210 43.5q131 0 227 -54t136 -147q79 96 190.5 148.5t241.5 52.5z
M1686 623q17 140 -65.5 223.5t-229.5 83.5q-145 0 -250 -81.5t-150 -225.5h695zM397 102q171 0 284 97t150 278l5 23q0 2 1 4.5t1 3.5h-334q-260 0 -303 -195q-18 -85 39 -148t157 -63z" />
    <glyph glyph-name="uni0218" unicode="&#x218;" horiz-adv-x="1251" 
d="M573 -16q-247 0 -389.5 133t-115.5 348h137q-9 -163 93 -258.5t296 -95.5q81 0 151.5 18t126.5 53t88.5 92.5t32.5 131.5q0 64 -26.5 111.5t-72 75t-104 48t-123 35.5t-129 32t-123 43t-104 63t-72 97.5t-26.5 141.5q0 114 74.5 206.5t194.5 141.5t257 49
q225 0 355 -113.5t120 -302.5h-137q8 131 -89 210t-267 79q-154 0 -258.5 -72t-104.5 -194q0 -63 27 -109t72.5 -72t104 -44.5t124 -33t130.5 -30.5t123.5 -42.5t104 -64t72.5 -100.5t27 -147q0 -129 -82.5 -229t-211 -150.5t-276.5 -50.5zM281 -434l153 295h195l-242 -295
h-106z" />
    <glyph glyph-name="uni0219" unicode="&#x219;" horiz-adv-x="1001" 
d="M440 -16q-168 0 -277.5 101t-101.5 241h129q0 -101 75.5 -162.5t197.5 -61.5q108 0 177 52.5t71 134.5q1 55 -28 93.5t-76.5 59.5t-104.5 37.5t-114 36t-103.5 46.5t-74 76.5t-24.5 119.5q6 123 121.5 207t278.5 84t263.5 -87.5t92.5 -222.5h-129q-2 86 -70 138.5
t-180 52.5q-105 0 -171.5 -48t-69.5 -124q-2 -46 20 -77t59.5 -46t86 -28.5t99 -23t98 -30.5t84.5 -50.5t58.5 -84t18.5 -129.5q-5 -134 -119 -219.5t-287 -85.5zM113 -434l153 295h195l-242 -295h-106z" />
    <glyph glyph-name="uni021A" unicode="&#x21a;" horiz-adv-x="1126" 
d="M395 0l254 1307h-469l25 127h1073l-25 -127h-467l-254 -1307h-137zM199 -434l153 295h195l-242 -295h-106z" />
    <glyph glyph-name="uni021B" unicode="&#x21b;" horiz-adv-x="786" 
d="M401 1370h129l-65 -338h317v-119h-340l-120 -614q-15 -81 21 -130.5t108 -49.5h163l-22 -119h-162q-133 0 -198 82t-39 217l120 614h-209v119h232zM12 -434l154 295h194l-241 -295h-107z" />
    <glyph glyph-name="uni0237" unicode="&#x237;" horiz-adv-x="419" 
d="M377 1032l-156 -799l-61 -315q-34 -175 -109 -255.5t-233 -80.5h-78v119h102q31 0 54.5 5t41 11.5t31 22.5t21.5 29t16 41t12.5 48t12.5 60l24 129l193 985h129z" />
    <glyph glyph-name="uni0259" unicode="&#x259;" horiz-adv-x="1136" 
d="M653 1049q144 0 246 -71t142.5 -194.5t11.5 -275.5q-46 -235 -209 -379.5t-381 -144.5q-212 0 -316 131.5t-63 345.5l16 67h826q28 173 -57 287.5t-240 114.5q-135 0 -232 -58t-143 -165h-135q56 156 199.5 249t334.5 93zM487 102q140 0 247 81t161 227h-686
q-17 -143 57 -225.5t221 -82.5z" />
    <glyph glyph-name="circumflex" unicode="&#x2c6;" horiz-adv-x="757" 
d="M610 1434l168 -287h-119l-114 190l-187 -190h-133l281 287h104z" />
    <glyph glyph-name="caron" unicode="&#x2c7;" horiz-adv-x="784" 
d="M463 1147l-168 287h119l114 -191l187 191h133l-281 -287h-104z" />
    <glyph glyph-name="breve" unicode="&#x2d8;" horiz-adv-x="765" 
d="M506 1151q-121 0 -185.5 79.5t-39.5 203.5h114q-14 -74 23.5 -122t109.5 -48q71 0 129.5 48.5t71.5 121.5h113q-25 -123 -120.5 -203t-215.5 -80z" />
    <glyph glyph-name="dotaccent" unicode="&#x2d9;" horiz-adv-x="360" 
d="M285 1450h155l-41 -209h-155z" />
    <glyph glyph-name="ring" unicode="&#x2da;" horiz-adv-x="686" 
d="M502 1116q-101 0 -168.5 61.5t-67.5 155.5q0 92 67.5 153.5t168.5 61.5t169 -61.5t68 -153.5q0 -94 -67.5 -155.5t-169.5 -61.5zM502 1208q59 0 96 35t37 90t-37 90t-96 35q-57 0 -94 -35t-37 -90t37 -90t94 -35z" />
    <glyph glyph-name="ogonek" unicode="&#x2db;" horiz-adv-x="555" 
d="M299 -274q-90 -72 -190 -72q-81 0 -119.5 43.5t-24.5 114.5q19 105 164 188h119q-79 -59 -115 -94t-43 -70q-6 -32 11 -49.5t51 -17.5q51 0 106 49z" />
    <glyph glyph-name="tilde" unicode="&#x2dc;" horiz-adv-x="823" 
d="M350 1223h-110q26 86 84.5 138t130.5 52q53 0 95 -21t74.5 -42t61.5 -21t56 20t40 52h111q-26 -87 -84 -139t-131 -52q-52 0 -94.5 21t-75.5 42t-62 21q-31 0 -57.5 -19.5t-38.5 -51.5z" />
    <glyph glyph-name="hungarumlaut" unicode="&#x2dd;" horiz-adv-x="768" 
d="M225 1147l238 303h135l-274 -303h-99zM475 1147l238 303h135l-275 -303h-98z" />
    <glyph glyph-name="gravecomb" unicode="&#x300;" horiz-adv-x="0" 
d="M-23 1147h-98l-155 303h135z" />
    <glyph glyph-name="acutecomb" unicode="&#x301;" horiz-adv-x="0" 
d="M-242 1147l234 303h153l-276 -303h-111z" />
    <glyph glyph-name="uni0302" unicode="&#x302;" horiz-adv-x="0" 
d="M-152 1434l168 -287h-118l-115 190l-186 -190h-134l281 287h104z" />
    <glyph glyph-name="tildecomb" unicode="&#x303;" horiz-adv-x="0" 
d="M-432 1223h-111q26 86 84.5 138t130.5 52q53 0 95.5 -21t75 -42t61.5 -21t56 20t40 52h111q-26 -87 -84 -139t-131 -52q-52 0 -94.5 21t-75.5 42t-62 21q-31 0 -57.5 -19.5t-38.5 -51.5z" />
    <glyph glyph-name="uni0304" unicode="&#x304;" horiz-adv-x="0" 
d="M-502 1217l23 114h534l-22 -114h-535z" />
    <glyph glyph-name="uni0306" unicode="&#x306;" horiz-adv-x="0" 
d="M-313 1151q-121 0 -186 79.5t-40 203.5h115q-14 -74 23.5 -122t109.5 -48q71 0 129.5 48.5t71.5 121.5h113q-25 -123 -120.5 -203t-215.5 -80z" />
    <glyph glyph-name="uni0307" unicode="&#x307;" horiz-adv-x="0" 
d="M-113 1450h156l-41 -209h-156z" />
    <glyph glyph-name="uni0308" unicode="&#x308;" horiz-adv-x="0" 
d="M-375 1403h129l-35 -186h-129zM-59 1403h129l-35 -186h-129z" />
    <glyph glyph-name="uni030A" unicode="&#x30a;" horiz-adv-x="0" 
d="M-276 1116q-101 0 -168.5 61.5t-67.5 155.5q0 92 67.5 153.5t168.5 61.5t169 -61.5t68 -153.5q0 -94 -67.5 -155.5t-169.5 -61.5zM-276 1208q59 0 96 35t37 90t-37 90t-96 35q-57 0 -94.5 -35t-37.5 -90t37.5 -90t94.5 -35z" />
    <glyph glyph-name="uni030B" unicode="&#x30b;" horiz-adv-x="0" 
d="M-440 1147l237 303h135l-274 -303h-98zM-190 1147l237 303h135l-274 -303h-98z" />
    <glyph glyph-name="uni030C" unicode="&#x30c;" horiz-adv-x="0" 
d="M-313 1147l-168 287h119l114 -191l187 191h133l-281 -287h-104z" />
    <glyph glyph-name="uni0312" unicode="&#x312;" horiz-adv-x="0" 
d="M74 1450l-121 -303h-133l174 303h80z" />
    <glyph glyph-name="uni0326" unicode="&#x326;" horiz-adv-x="0" 
d="M-578 -434l154 295h195l-242 -295h-107z" />
    <glyph glyph-name="uni0327" unicode="&#x327;" horiz-adv-x="0" 
d="M-346 -418h-186l270 295h117z" />
    <glyph glyph-name="uni0328" unicode="&#x328;" horiz-adv-x="0" 
d="M-231 -274q-90 -72 -191 -72q-81 0 -119 43.5t-24 114.5q19 105 164 188h118q-78 -58 -114 -93.5t-43 -70.5q-6 -32 10.5 -49.5t50.5 -17.5q52 0 107 49z" />
    <glyph glyph-name="uni0394" unicode="&#x394;" horiz-adv-x="1316" 
d="M897 1434l299 -1434h-1276l856 1434h121zM137 127h891l-225 1124z" />
    <glyph glyph-name="uni03A9" unicode="&#x3a9;" horiz-adv-x="1505" 
d="M1468 764q-36 -188 -167 -361.5t-310 -275.5h318l-25 -127h-477l24 127l7 29q190 92 320 255t167 353q30 161 -12.5 290.5t-148.5 203t-255 73.5q-226 0 -406.5 -161.5t-226.5 -405.5q-37 -188 30.5 -351t221.5 -257l-20 -105l-10 -51h-478l25 127h317
q-138 103 -201.5 276t-27.5 361q37 194 155 351.5t288.5 246t357.5 88.5t322.5 -88.5t192 -246t19.5 -351.5z" />
    <glyph glyph-name="uni03BC" unicode="&#x3bc;" horiz-adv-x="1150" 
d="M977 1032h129l-201 -1032h-129l41 215q-60 -114 -163 -172.5t-230 -58.5q-152 0 -234 116l-100 -518h-129l168 864q1 3 2 10t2 11l111 565h129l-119 -610q-28 -145 30.5 -232.5t182.5 -87.5q145 0 257.5 105.5t143.5 269.5z" />
    <glyph glyph-name="pi" unicode="&#x3c0;" horiz-adv-x="1243" 
d="M186 0l179 918h-199l22 114h1067l-22 -114h-201l-178 -918h-129l178 918h-409l-179 -918h-129z" />
    <glyph glyph-name="Wgrave" unicode="&#x1e80;" horiz-adv-x="1959" 
d="M1239 1548h-98l-156 303h135zM365 0l-170 1434h143l139 -1225l619 1225h125l143 -1225l616 1225h142l-723 -1434h-144l-137 1225l-614 -1225h-139z" />
    <glyph glyph-name="wgrave" unicode="&#x1e81;" horiz-adv-x="1480" 
d="M907 1147h-98l-156 303h135zM227 0l-106 1032h129l72 -872l444 872h131l100 -872l412 872h131l-508 -1032h-131l-102 872l-441 -872h-131z" />
    <glyph glyph-name="Wacute" unicode="&#x1e82;" horiz-adv-x="1959" 
d="M1133 1548l233 303h154l-277 -303h-110zM365 0l-170 1434h143l139 -1225l619 1225h125l143 -1225l616 1225h142l-723 -1434h-144l-137 1225l-614 -1225h-139z" />
    <glyph glyph-name="wacute" unicode="&#x1e83;" horiz-adv-x="1480" 
d="M801 1147l233 303h154l-277 -303h-110zM227 0l-106 1032h129l72 -872l444 872h131l100 -872l412 872h131l-508 -1032h-131l-102 872l-441 -872h-131z" />
    <glyph glyph-name="Wdieresis" unicode="&#x1e84;" horiz-adv-x="1959" 
d="M1010 1804h129l-35 -186h-129zM1325 1804h129l-35 -186h-129zM365 0l-170 1434h143l139 -1225l619 1225h125l143 -1225l616 1225h142l-723 -1434h-144l-137 1225l-614 -1225h-139z" />
    <glyph glyph-name="wdieresis" unicode="&#x1e85;" horiz-adv-x="1480" 
d="M678 1403h129l-35 -186h-129zM993 1403h129l-35 -186h-129zM227 0l-106 1032h129l72 -872l444 872h131l100 -872l412 872h131l-508 -1032h-131l-102 872l-441 -872h-131z" />
    <glyph glyph-name="uni1E9E" unicode="&#x1e9e;" horiz-adv-x="1247" 
d="M813 1450q109 0 191.5 -34.5t127.5 -94.5t62 -136t4 -163l-328 -215q153 -40 224.5 -143t42.5 -250q-37 -192 -178.5 -303t-358.5 -111h-213l25 127h182q167 0 269 73.5t128 213.5q28 135 -47.5 210.5t-238.5 75.5h-29l24 117l365 254q9 118 -58.5 185t-215.5 67
q-147 0 -260 -109.5t-148 -289.5l-180 -924h-137l137 700h-142l27 127h139l19 97q46 240 200.5 383t366.5 143z" />
    <glyph glyph-name="Ygrave" unicode="&#x1ef2;" horiz-adv-x="1183" 
d="M848 1548h-98l-156 303h135zM422 0l117 602l-351 832h150l285 -707l559 707h170l-676 -832l-117 -602h-137z" />
    <glyph glyph-name="ygrave" unicode="&#x1ef3;" horiz-adv-x="944" 
d="M623 1147h-99l-155 303h135zM883 1032h131l-799 -1450h-127l209 379l-186 1071h135l145 -895z" />
    <glyph glyph-name="endash" unicode="&#x2013;" horiz-adv-x="1136" 
d="M125 592l22 115h908l-23 -115h-907z" />
    <glyph glyph-name="emdash" unicode="&#x2014;" horiz-adv-x="1693" 
d="M178 592l23 115h1366l-23 -115h-1366z" />
    <glyph glyph-name="quoteleft" unicode="&#x2018;" horiz-adv-x="450" 
d="M526 1331h-26q-40 0 -69.5 -33.5t-41.5 -99.5l-33 -162h-129l33 162q23 122 93.5 187t170.5 65h27z" />
    <glyph glyph-name="quoteright" unicode="&#x2019;" horiz-adv-x="518" 
d="M256 1155h27q40 0 69 33t41 100l33 162h129l-33 -162q-23 -122 -93.5 -187t-170.5 -65h-27z" />
    <glyph glyph-name="quotesinglbase" unicode="&#x201a;" horiz-adv-x="452" 
d="M-4 -113h27q40 0 69.5 33t42.5 100l31 162h129l-31 -162q-24 -122 -94 -186.5t-170 -64.5h-27z" />
    <glyph glyph-name="quotedblleft" unicode="&#x201c;" horiz-adv-x="712" 
d="M492 1331h-27q-40 0 -69.5 -33.5t-41.5 -99.5l-32 -162h-129l32 162q23 122 93.5 187t170.5 65h27zM772 1331h-27q-40 0 -69 -33t-41 -100l-33 -162h-129l33 162q23 122 93.5 187t170.5 65h27z" />
    <glyph glyph-name="quotedblright" unicode="&#x201d;" horiz-adv-x="712" 
d="M217 1155h27q40 0 69 33t41 100l33 162h129l-33 -162q-23 -122 -93.5 -187t-170.5 -65h-26zM498 1155h26q40 0 69.5 33.5t41.5 99.5l33 162h129l-33 -162q-23 -122 -93.5 -187t-170.5 -65h-27z" />
    <glyph glyph-name="quotedblbase" unicode="&#x201e;" horiz-adv-x="714" 
d="M2 53h27q40 0 69.5 33t42.5 100l31 162h129l-31 -162q-24 -122 -94 -187t-170 -65h-26zM283 53h26q40 0 70 33t43 100l31 162h129l-31 -162q-24 -122 -94 -187t-170 -65h-27z" />
    <glyph glyph-name="dagger" unicode="&#x2020;" horiz-adv-x="925" 
d="M281 -102l198 1020h-301l23 114h301l98 504h125l-98 -504h299l-23 -114h-299l-198 -1020h-125z" />
    <glyph glyph-name="daggerdbl" unicode="&#x2021;" horiz-adv-x="925" 
d="M903 918h-299l-155 -803h299l-23 -115h-299l-98 -504h-125l78 402l20 102h-301l23 115h301l155 803h-301l23 114h301l98 504h125l-78 -401l-20 -103h299z" />
    <glyph glyph-name="bullet" unicode="&#x2022;" horiz-adv-x="503" 
d="M252 387q-69 0 -116.5 48t-47.5 116t47.5 116t116.5 48q68 0 116 -48.5t48 -115.5t-48 -115.5t-116 -48.5z" />
    <glyph glyph-name="ellipsis" unicode="&#x2026;" horiz-adv-x="1456" 
d="M106 164h146l-33 -164h-145zM588 164h145l-33 -164h-145zM1069 164h145l-32 -164h-146z" />
    <glyph glyph-name="perthousand" unicode="&#x2030;" horiz-adv-x="2383" 
d="M479 795q-135 0 -209 95.5t-49 233.5q25 139 128 232.5t233 93.5q133 0 206 -95t50 -231q-21 -130 -122 -229.5t-237 -99.5zM158 0l1319 1434h125l-1319 -1434h-125zM485 891q88 0 153.5 65.5t84.5 165.5t-20.5 166t-129.5 66q-88 0 -153 -66t-84 -166t20 -165.5
t129 -65.5zM1180 -16q-135 0 -209 95.5t-49 233.5q25 139 127.5 232.5t232.5 93.5q133 0 206 -95t50 -231q-21 -131 -121.5 -230t-236.5 -99zM1884 -16q-135 0 -209 95.5t-49 233.5q25 139 128 232.5t233 93.5q133 0 206 -95t50 -231q-21 -130 -122 -229.5t-237 -99.5z
M1186 80q88 0 153 65.5t84 165.5t-20 166t-129 66q-88 0 -153.5 -66t-84.5 -166t20.5 -165.5t129.5 -65.5zM1890 80q88 0 153.5 65.5t84.5 165.5t-20.5 166t-129.5 66q-88 0 -153 -66t-84 -166t20 -165.5t129 -65.5z" />
    <glyph glyph-name="guilsinglleft" unicode="&#x2039;" horiz-adv-x="751" 
d="M596 193l-504 399l17 86l659 399l-27 -139l-512 -309l389 -303z" />
    <glyph glyph-name="guilsinglright" unicode="&#x203a;" horiz-adv-x="720" 
d="M57 193l29 139l512 311l-387 303l18 131l504 -399l-16 -86z" />
    <glyph glyph-name="fraction" unicode="&#x2044;" horiz-adv-x="550" 
d="M-408 0l1319 1434h125l-1319 -1434h-125z" />
    <glyph glyph-name="uni2070" unicode="&#x2070;" horiz-adv-x="751" 
d="M379 645q-153 0 -203.5 102t-11.5 304l12 69q39 201 130.5 303.5t244.5 102.5h43q154 0 204 -102t11 -304l-12 -69q-39 -202 -129.5 -304t-245.5 -102h-43zM401 743h37q99 0 158.5 72.5t87.5 220.5l21 99q28 148 -3.5 220t-130.5 72h-36q-99 0 -158.5 -72t-87.5 -220
l-21 -99q-28 -148 3.5 -220.5t129.5 -72.5z" />
    <glyph glyph-name="uni2074" unicode="&#x2074;" horiz-adv-x="817" 
d="M528 655l41 213h-440v97l551 551h127l-109 -551h131v-97h-149l-41 -213h-111zM244 965h344l84 430z" />
    <glyph glyph-name="uni2075" unicode="&#x2075;" horiz-adv-x="733" 
d="M385 645q-116 0 -183.5 72.5t-58.5 181.5h103q-4 -75 37.5 -116.5t119.5 -41.5q94 0 160.5 52.5t85.5 142.5q17 92 -28.5 147.5t-139.5 55.5q-69 0 -123.5 -27t-83.5 -74h-86l160 478h461l-21 -99h-378l-86 -254q38 29 88.5 47.5t95.5 18.5q136 0 205.5 -81t44.5 -212
q-26 -130 -129.5 -210.5t-243.5 -80.5z" />
    <glyph glyph-name="uni2076" unicode="&#x2076;" horiz-adv-x="772" 
d="M535 1231q133 0 201.5 -83t43.5 -210t-128.5 -210t-237.5 -83q-147 0 -212 108t-30 287q44 234 162.5 360t267.5 126q119 0 187 -63.5t65 -166.5h-106q-2 62 -45 99t-117 37q-102 0 -185 -94.5t-118 -239.5q38 58 109.5 95.5t142.5 37.5zM432 739q89 0 157 56.5t85 144.5
q17 86 -29 141.5t-135 55.5t-156 -55t-84 -142q-17 -88 28 -144.5t134 -56.5z" />
    <glyph glyph-name="uni2077" unicode="&#x2077;" horiz-adv-x="694" 
d="M248 655q22 114 68 215.5t151 229.5l258 317h-498l21 99h620l-18 -91l-309 -387q-88 -110 -126.5 -196.5t-58.5 -186.5h-108z" />
    <glyph glyph-name="uni2078" unicode="&#x2078;" horiz-adv-x="751" 
d="M401 645q-131 0 -205.5 68t-52.5 186q14 77 70.5 136t130.5 83q-49 26 -74 73t-14 107q20 100 108 164t209 64t184.5 -64t43.5 -164q-11 -60 -55 -107t-105 -73q65 -24 97.5 -82.5t17.5 -136.5q-22 -117 -123.5 -185.5t-231.5 -68.5zM502 1159q75 0 127.5 37t64.5 100
t-26 99.5t-113 36.5q-77 0 -129 -36.5t-64 -99.5t26 -100t114 -37zM420 741q90 0 152 43t75 117q15 75 -29.5 118.5t-134.5 43.5t-153 -44t-78 -118q-13 -74 32.5 -117t135.5 -43z" />
    <glyph glyph-name="uni2079" unicode="&#x2079;" horiz-adv-x="772" 
d="M459 940q-133 0 -202 83t-44 210t129 210t238 83q147 0 211.5 -108t29.5 -288q-44 -234 -162.5 -359.5t-267.5 -125.5q-119 0 -187 63.5t-65 165.5h107q2 -62 45 -98.5t117 -36.5q102 0 185 94.5t118 239.5q-38 -58 -109.5 -95.5t-142.5 -37.5zM561 1432
q-89 0 -157 -56.5t-85 -144.5q-17 -86 29 -141.5t135 -55.5t156 55t84 142q17 88 -28 144.5t-134 56.5z" />
    <glyph glyph-name="Euro" unicode="&#x20ac;" horiz-adv-x="1277" 
d="M860 1323q-299 0 -420 -365h537l-25 -127h-549q-2 -18 -10 -53l-24 -123l-7 -34h549l-24 -127h-541q-27 -383 279 -383h65q104 0 181 54t120 148h146q-63 -157 -182.5 -243t-290.5 -86h-68q-222 0 -316.5 128t-70.5 382h-172l24 127h164l6 34l25 123q2 8 5 26.5t5 26.5
h-164l25 127h174q153 492 582 492h67q168 0 252.5 -84.5t87.5 -237.5h-145q-6 91 -62 143t-157 52h-66z" />
    <glyph glyph-name="trademark" unicode="&#x2122;" horiz-adv-x="1722" 
d="M322 614l143 729h-256l16 91h615l-17 -91h-256l-143 -729h-102zM852 614l160 820h110l154 -578l379 578h110l-159 -820h-105l119 605l-346 -529h-57l-142 529l-119 -605h-104z" />
    <glyph glyph-name="uni2126" unicode="&#x2126;" horiz-adv-x="1505" 
d="M1468 764q-36 -188 -167 -361.5t-310 -275.5h318l-25 -127h-477l24 127l7 29q190 92 320 255t167 353q30 161 -12.5 290.5t-148.5 203t-255 73.5q-226 0 -406.5 -161.5t-226.5 -405.5q-37 -188 30.5 -351t221.5 -257l-20 -105l-10 -51h-478l25 127h317
q-138 103 -201.5 276t-27.5 361q37 194 155 351.5t288.5 246t357.5 88.5t322.5 -88.5t192 -246t19.5 -351.5z" />
    <glyph glyph-name="uni2153" unicode="&#x2153;" horiz-adv-x="1673" 
d="M61 0l1319 1434h125l-1319 -1434h-125zM516 1434l-168 -861h-108l131 678q-27 -30 -86 -30h-80l20 98h70q43 0 70 25t45 90h106zM1214 -10q-132 0 -204.5 78t-48.5 202h106q-17 -82 30.5 -132t135.5 -50q90 0 150 42t73 116q15 73 -28.5 112t-133.5 39h-69l18 97h68
q74 0 126 41t64 106q12 62 -27 97.5t-116 35.5q-72 0 -124 -41.5t-71 -116.5h-102q26 115 114.5 184.5t204.5 69.5q120 0 185.5 -64.5t46.5 -162.5q-12 -61 -57 -112.5t-103 -77.5q66 -26 98.5 -80t18.5 -129q-24 -119 -125.5 -186.5t-229.5 -67.5z" />
    <glyph glyph-name="uni2154" unicode="&#x2154;" horiz-adv-x="1935" 
d="M201 1153q22 133 115.5 212t226.5 79q124 0 188 -71t41 -187q-36 -175 -254 -273l-135 -61q-66 -31 -117.5 -77.5t-62.5 -102.5h473l-19 -99h-579l14 78q14 72 62.5 134t97.5 96t106 61l144 68q139 65 160 178q13 71 -26.5 115.5t-113.5 44.5q-81 0 -138 -53.5
t-71 -141.5h-112zM324 0l1318 1434h125l-1318 -1434h-125zM1477 -10q-133 0 -205.5 78t-48.5 202h106q-17 -82 30.5 -132t135.5 -50q90 0 150 42t73 116q15 73 -28.5 112t-133.5 39h-69l18 97h68q74 0 126 41t64 106q12 62 -27 97.5t-116 35.5q-72 0 -124 -41.5t-71 -116.5
h-102q26 115 114.5 184.5t204.5 69.5q120 0 185.5 -64.5t46.5 -162.5q-12 -61 -57 -112.5t-103 -77.5q66 -26 98.5 -80t18.5 -129q-24 -119 -125 -186.5t-229 -67.5z" />
    <glyph glyph-name="oneeighth" unicode="&#x215b;" horiz-adv-x="1689" 
d="M61 0l1319 1434h125l-1319 -1434h-125zM516 1434l-168 -861h-108l131 678q-27 -30 -86 -30h-80l20 98h70q43 0 70 25t45 90h106zM1212 -10q-131 0 -205.5 68t-52.5 186q14 77 70.5 136t130.5 83q-49 26 -74 73t-14 107q20 100 108 163.5t209 63.5t184.5 -63.5
t43.5 -163.5q-11 -60 -55 -107t-105 -73q65 -24 97.5 -82.5t17.5 -136.5q-22 -117 -123.5 -185.5t-231.5 -68.5zM1313 504q75 0 127.5 37t64.5 100t-26 99t-113 36q-77 0 -128.5 -36t-63.5 -99t25.5 -100t113.5 -37zM1231 86q90 0 152 43t75 117q15 75 -29.5 118.5
t-134.5 43.5t-153 -44t-78 -118q-13 -74 32.5 -117t135.5 -43z" />
    <glyph glyph-name="threeeighths" unicode="&#x215c;" horiz-adv-x="1953" 
d="M387 563q-132 0 -205 78.5t-49 202.5h107q-17 -82 30.5 -132t135.5 -50q90 0 150 41.5t73 115.5q15 73 -28.5 112.5t-133.5 39.5h-70l19 96h67q74 0 126.5 41t64.5 106q12 62 -27.5 98t-116.5 36q-72 0 -123.5 -41.5t-70.5 -116.5h-103q26 115 115 184.5t205 69.5
q120 0 185 -64.5t46 -162.5q-12 -61 -56.5 -113t-102.5 -78q66 -26 98 -80t18 -129q-24 -119 -125 -186.5t-229 -67.5zM326 0l1319 1434h124l-1318 -1434h-125zM1477 -10q-131 0 -205.5 68t-52.5 186q14 77 70.5 136t129.5 83q-49 26 -74 73t-14 107q20 100 108.5 163.5
t209.5 63.5t184 -63.5t43 -163.5q-11 -60 -55 -107t-105 -73q65 -24 97.5 -82.5t17.5 -136.5q-22 -117 -123 -185.5t-231 -68.5zM1577 504q75 0 127.5 37t64.5 100t-26 99t-113 36q-77 0 -128.5 -36t-63.5 -99t25.5 -100t113.5 -37zM1495 86q90 0 152 43t75 117
q15 75 -29 118.5t-134 43.5t-153.5 -44t-78.5 -118q-13 -74 32.5 -117t135.5 -43z" />
    <glyph glyph-name="fiveeighths" unicode="&#x215d;" horiz-adv-x="1955" 
d="M371 563q-116 0 -183.5 72.5t-58.5 181.5h102q-4 -75 38 -116.5t120 -41.5q94 0 160.5 52.5t85.5 142.5q17 92 -28.5 147.5t-139.5 55.5q-69 0 -123.5 -27t-83.5 -74h-86l160 478h461l-21 -99h-379l-86 -254q38 29 89 47.5t96 18.5q136 0 205 -81t44 -212
q-26 -130 -129 -210.5t-243 -80.5zM328 0l1319 1434h125l-1319 -1434h-125zM1479 -10q-131 0 -205.5 68t-52.5 186q14 77 70.5 136t129.5 83q-49 26 -74 73t-14 107q20 100 108.5 163.5t209.5 63.5t184 -63.5t43 -163.5q-11 -60 -55 -107t-105 -73q65 -24 97.5 -82.5
t17.5 -136.5q-22 -117 -123 -185.5t-231 -68.5zM1579 504q75 0 128 37t65 100t-26 99t-114 36q-77 0 -128.5 -36t-63.5 -99t25.5 -100t113.5 -37zM1497 86q90 0 152 43t75 117q15 75 -29 118.5t-134 43.5t-153.5 -44t-78.5 -118q-13 -74 32.5 -117t135.5 -43z" />
    <glyph glyph-name="seveneighths" unicode="&#x215e;" horiz-adv-x="1812" 
d="M184 0l1319 1434h125l-1319 -1434h-125zM231 573q22 113 68.5 214.5t151.5 230.5l258 317h-498l20 99h621l-18 -91l-310 -387q-87 -110 -125.5 -196t-58.5 -187h-109zM1335 -10q-131 0 -205.5 68t-52.5 186q14 77 70.5 136t130.5 83q-49 26 -74 73t-14 107
q20 100 108 163.5t209 63.5t184.5 -63.5t43.5 -163.5q-11 -60 -55 -107t-105 -73q65 -24 97.5 -82.5t17.5 -136.5q-22 -117 -123.5 -185.5t-231.5 -68.5zM1436 504q75 0 127.5 37t64.5 100t-26 99t-113 36q-77 0 -129 -36t-64 -99t26 -100t114 -37zM1354 86q90 0 152 43
t75 117q15 75 -29.5 118.5t-134.5 43.5t-153 -44t-78 -118q-13 -74 32.5 -117t135.5 -43z" />
    <glyph glyph-name="arrowleft" unicode="&#x2190;" horiz-adv-x="1458" 
d="M1389 584l-21 -115h-1069l332 -414l-92 -78l-453 560l657 550l74 -90l-495 -413h1067z" />
    <glyph glyph-name="arrowup" unicode="&#x2191;" horiz-adv-x="1263" 
d="M1229 758l-88 -72l-332 414l-209 -1069h-115l207 1069l-493 -416l-68 80l653 545z" />
    <glyph glyph-name="arrowright" unicode="&#x2192;" horiz-adv-x="1449" 
d="M922 1077l448 -555l-655 -549l-74 88l487 408h-1054l20 115h1069l-334 413z" />
    <glyph glyph-name="arrowdown" unicode="&#x2193;" horiz-adv-x="1261" 
d="M1118 625l68 -80l-654 -545l-444 551l88 72l332 -414l209 1069h114l-206 -1069z" />
    <glyph glyph-name="arrowboth" unicode="&#x2194;" horiz-adv-x="2088" 
d="M1565 1077l448 -555l-655 -549l-74 88l488 408h-1473l332 -414l-92 -78l-453 560l657 550l74 -90l-495 -413h1484l-333 413z" />
    <glyph glyph-name="arrowupdn" unicode="&#x2195;" horiz-adv-x="1263" 
d="M471 -334l-444 551l88 72l331 -414l291 1505l-493 -415l-68 79l653 545l445 -551l-88 -71l-332 413l-291 -1505l494 416l67 -80z" />
    <glyph glyph-name="uni2196" unicode="&#x2196;" horiz-adv-x="1177" 
d="M1026 147l-96 -79l-608 755l-113 -587h-113l152 778h776l-20 -111h-586z" />
    <glyph glyph-name="uni2197" unicode="&#x2197;" horiz-adv-x="1163" 
d="M330 999h778l-152 -776h-108l113 584l-904 -756l-65 82l903 756l-586 -2z" />
    <glyph glyph-name="uni2198" unicode="&#x2198;" horiz-adv-x="1177" 
d="M967 778h112l-151 -778h-776l20 111h586l-608 755l96 80l608 -756z" />
    <glyph glyph-name="uni2199" unicode="&#x2199;" horiz-adv-x="1181" 
d="M1163 866l-901 -755h584l-21 -111h-776l152 778h110l-114 -588l901 756z" />
    <glyph glyph-name="partialdiff" unicode="&#x2202;" horiz-adv-x="1208" 
d="M526 -16q-136 0 -238 65t-146.5 177t-18.5 245q25 131 113.5 242t216.5 176t264 65q128 0 230 -68t128 -173q21 102 13.5 188.5t-32 158.5t-70 125.5t-100.5 90t-123 51t-138 9.5t-145.5 -34t-145.5 -81l-55 106q119 81 260.5 111.5t272.5 1.5t232 -124t139 -264.5
t-7 -420.5q-58 -296 -235.5 -471.5t-414.5 -175.5zM553 111q164 0 289.5 102t156.5 260q31 157 -56 257.5t-251 100.5t-288.5 -100.5t-155.5 -257.5q-31 -158 55 -260t250 -102z" />
    <glyph glyph-name="uni2206" unicode="&#x2206;" horiz-adv-x="1316" 
d="M897 1434l299 -1434h-1276l856 1434h121zM137 127h891l-225 1124z" />
    <glyph glyph-name="product" unicode="&#x220f;" horiz-adv-x="1292" 
d="M55 0l279 1434h981l-279 -1434h-147l254 1307h-690l-254 -1307h-144z" />
    <glyph glyph-name="summation" unicode="&#x2211;" horiz-adv-x="1118" 
d="M-8 0l24 127l625 590l-395 590l24 127h924l-25 -127h-757l362 -533l-20 -115l-572 -532h758l-25 -127h-923z" />
    <glyph glyph-name="minus" unicode="&#x2212;" horiz-adv-x="1218" 
d="M170 592l23 115h907l-23 -115h-907z" />
    <glyph glyph-name="radical" unicode="&#x221a;" horiz-adv-x="1097" 
d="M379 0l-80 670h-207l25 127h297l69 -633l641 1270h142l-734 -1434h-153z" />
    <glyph glyph-name="infinity" unicode="&#x221e;" horiz-adv-x="1867" 
d="M459 344q-181 0 -269.5 108.5t-54.5 282.5t164.5 282.5t310.5 108.5q134 0 225.5 -68.5t163.5 -203.5q124 134 243.5 203t252.5 69q181 0 269.5 -108.5t54.5 -282.5t-165 -282.5t-311 -108.5q-133 0 -225 69t-164 203q-125 -135 -243 -203.5t-252 -68.5zM510 459
q207 0 412 276q-47 136 -125.5 206.5t-180.5 70.5q-135 0 -230 -74.5t-120 -202.5q-26 -128 41.5 -202t202.5 -74zM1337 459q136 0 230.5 74t120.5 202q25 128 -41.5 202.5t-202.5 74.5q-100 0 -205.5 -70.5t-206.5 -206.5q47 -135 125.5 -205.5t179.5 -70.5z" />
    <glyph glyph-name="integral" unicode="&#x222b;" horiz-adv-x="770" 
d="M737 1450h154l-25 -119h-155q-78 0 -134 -50.5t-75 -139.5l-242 -1250q-28 -142 -126 -225.5t-238 -83.5h-154l25 119h155q78 0 134 50.5t75 139.5l242 1250q28 142 126 225.5t238 83.5z" />
    <glyph glyph-name="approxequal" unicode="&#x2248;" horiz-adv-x="1171" 
d="M842 762q-57 0 -107.5 17t-82.5 38t-81.5 38t-105.5 17q-117 0 -219 -92l-70 80q69 71 147.5 115.5t151.5 44.5q58 0 108.5 -17.5t82 -38t81 -38t105.5 -17.5q58 0 116.5 24.5t104.5 67.5l68 -79q-69 -71 -147.5 -115.5t-151.5 -44.5zM762 352q-58 0 -108.5 17.5t-82 38
t-81 38t-105.5 17.5q-117 0 -219 -92l-70 80q69 70 147.5 114.5t151.5 44.5q48 0 89 -11.5t71.5 -27.5t60.5 -32t70 -27.5t86 -11.5q119 0 221 92l70 -80q-160 -160 -301 -160z" />
    <glyph glyph-name="notequal" unicode="&#x2260;" horiz-adv-x="1167" 
d="M1114 780h-289l-280 -344h502l-21 -114h-573l-109 -134h-121l109 134h-213l20 114h285l281 344h-498l22 115h568l106 131h121l-106 -131h219z" />
    <glyph glyph-name="lessequal" unicode="&#x2264;" horiz-adv-x="929" 
d="M766 197l-668 368l27 140l811 368l-25 -133l-700 -311l580 -312zM2 0l23 115h735l-23 -115h-735z" />
    <glyph glyph-name="greaterequal" unicode="&#x2265;" horiz-adv-x="921" 
d="M33 197l24 127l703 319l-578 311l21 119l667 -368l-26 -140zM2 0l23 115h735l-23 -115h-735z" />
    <glyph glyph-name="lozenge" unicode="&#x25ca;" horiz-adv-x="1142" 
d="M406 0l-263 717l541 717h131l262 -717l-540 -717h-131zM496 131l446 586l-217 586l-446 -586z" />
    <glyph glyph-name="uni25CF" unicode="&#x25cf;" horiz-adv-x="1646" 
d="M90 717q0 200 98 368.5t266.5 266.5t368.5 98t368.5 -98t266.5 -266.5t98 -368.5q0 -201 -98 -369.5t-266.5 -266t-368.5 -97.5t-368.5 97.5t-266.5 266t-98 369.5z" />
    <glyph glyph-name="uni2669" unicode="&#x2669;" horiz-adv-x="940" 
d="M881 1434h135l-279 -1434q-29 -156 -150 -262.5t-268 -106.5q-163 0 -254.5 107t-62.5 262t150.5 261t269.5 106q143 0 235 -86z" />
    <glyph glyph-name="musicalnote" unicode="&#x266a;" horiz-adv-x="1513" 
d="M1212 1434q164 0 250 -106.5t54 -272.5l-21 -109h-119l21 109q22 109 -37 179.5t-172 70.5h-197l-254 -1305q-29 -156 -150 -262.5t-268 -106.5q-163 0 -254.5 107t-62.5 262t150.5 261t269.5 106q143 0 235 -86l224 1153h331z" />
    <glyph glyph-name="musicalnotedbl" unicode="&#x266b;" horiz-adv-x="1955" 
d="M2032 1434l-279 -1434q-29 -156 -150 -262.5t-268 -106.5q-163 0 -254.5 107t-62.5 262t150.5 261t269.5 106q143 0 235 -86l199 1024h-881l-254 -1305q-29 -156 -150 -262.5t-268 -106.5q-163 0 -254.5 107t-62.5 262t150.5 261t269.5 106q143 0 235 -86l224 1153h1151z
" />
    <glyph glyph-name="A.inferior" horiz-adv-x="798" 
d="M578 0l-43 229h-381l-134 -229h-112l510 860h98l174 -860h-112zM209 326h307l-76 401z" />
    <glyph glyph-name="B.inferior" horiz-adv-x="751" 
d="M-10 0l168 860h309q123 0 182 -58.5t39 -162.5q-11 -56 -54 -101.5t-93 -66.5q140 -53 108 -221q-23 -116 -111 -183t-219 -67h-329zM197 506h198q159 0 183 129q13 65 -21 98t-111 33h-198zM117 98h202q191 0 222 156q15 75 -26 115.5t-134 40.5h-203z" />
    <glyph glyph-name="C.inferior" horiz-adv-x="872" 
d="M365 -10q-83 0 -151 27t-116.5 81.5t-65.5 137.5t3 194q21 108 72 193.5t120 138.5t148.5 80.5t161.5 27.5q143 0 229 -78t80 -202h-115q0 83 -58.5 132.5t-156.5 49.5q-137 0 -237 -90t-132 -252t33.5 -252t202.5 -90q101 0 179.5 49.5t109.5 132.5h112
q-40 -124 -156.5 -202t-262.5 -78z" />
    <glyph glyph-name="D.inferior" horiz-adv-x="827" 
d="M-10 0l168 860h256q90 0 162.5 -28.5t120 -83.5t65.5 -135t-2 -183q-39 -200 -183.5 -315t-330.5 -115h-256zM117 98h143q136 0 244 83t141 249q15 88 2.5 151t-51.5 103.5t-91 59t-116 18.5h-143z" />
    <glyph glyph-name="E.inferior" horiz-adv-x="696" 
d="M-10 0l168 860h540l-20 -98h-432l-51 -268h352l-19 -99h-352l-59 -297h444l-18 -98h-553z" />
    <glyph glyph-name="F.inferior" horiz-adv-x="688" 
d="M-10 0l168 860h549l-21 -98h-440l-53 -279h360l-18 -98h-361l-76 -385h-108z" />
    <glyph glyph-name="G.inferior" horiz-adv-x="899" 
d="M362 -10q-81 0 -149 27.5t-116 82.5t-65 137.5t3 192.5q21 106 72 191.5t120 139t148.5 81.5t161.5 28q148 0 236.5 -79t80.5 -203h-115q0 82 -62.5 133t-160.5 51q-136 0 -238 -90t-133 -252t35.5 -253t202.5 -91q108 0 197 56t106 145q6 29 -9 46t-46 17h-193l19 92
h215q54 0 94.5 -39.5t28.5 -105.5l-58 -297h-100l29 150q-45 -72 -127.5 -116t-176.5 -44z" />
    <glyph glyph-name="H.inferior" horiz-adv-x="847" 
d="M717 860h108l-168 -860h-108l78 395h-451l-78 -395h-108l168 860h108l-71 -368h450z" />
    <glyph glyph-name="I.inferior" horiz-adv-x="288" 
d="M-10 0l168 860h108l-168 -860h-108z" />
    <glyph glyph-name="J.inferior" horiz-adv-x="395" 
d="M-59 98h104q83 0 107 123l124 639h111l-125 -641q-22 -107 -79.5 -163t-145.5 -56h-115z" />
    <glyph glyph-name="K.inferior" horiz-adv-x="784" 
d="M801 860l-400 -344l269 -516h-131l-230 438l-149 -129l-60 -309h-110l168 860h110l-80 -407l476 407h137z" />
    <glyph glyph-name="L.inferior" horiz-adv-x="643" 
d="M-10 0l168 860h108l-149 -762h428l-19 -98h-536z" />
    <glyph glyph-name="M.inferior" horiz-adv-x="1024" 
d="M-10 0l168 860h131l153 -702l428 702h131l-167 -860h-105l127 655l-399 -655h-90l-144 655l-127 -655h-106z" />
    <glyph glyph-name="N.inferior" horiz-adv-x="851" 
d="M-10 0l168 860h123l303 -688l135 688h110l-167 -860h-125l-306 686l-133 -686h-108z" />
    <glyph glyph-name="O.inferior" horiz-adv-x="948" 
d="M371 -10q-182 0 -277.5 125t-58.5 315t181.5 315t326.5 125q183 0 279 -125t59 -315t-182 -315t-328 -125zM389 88q135 0 242.5 97t136.5 245q28 148 -41.5 245t-204.5 97q-134 0 -240.5 -97t-134.5 -245q-29 -148 39.5 -245t202.5 -97z" />
    <glyph glyph-name="P.inferior" horiz-adv-x="720" 
d="M-10 0l168 860h325q126 0 186.5 -70.5t37.5 -185.5q-22 -114 -110 -184t-214 -70h-217l-68 -350h-108zM184 446h217q84 0 134 45.5t61 112.5q13 70 -17.5 115t-113.5 45h-217z" />
    <glyph glyph-name="Q.inferior" horiz-adv-x="946" 
d="M543 870q183 0 279 -125t59 -315q-33 -176 -162.5 -297.5t-298.5 -140.5l-8 -45q-12 -60 10 -85.5t82 -25.5h121l-17 -86h-129q-205 0 -168 191l11 51q-159 19 -240 140.5t-47 297.5q37 190 181.5 315t326.5 125zM768 430q28 148 -41.5 245t-204.5 97q-134 0 -240.5 -97
t-134.5 -245q-29 -148 39.5 -245t202.5 -97q135 0 242.5 97t136.5 245z" />
    <glyph glyph-name="R.inferior" horiz-adv-x="794" 
d="M485 860q126 0 187 -69.5t39 -184.5q-13 -67 -58 -117.5t-112 -80.5q43 -28 61.5 -78.5t9.5 -114.5l-26 -215h-105l27 209q8 62 -22.5 100.5t-88.5 38.5h-231l-68 -348h-108l168 860h327zM600 606q13 69 -18 113.5t-115 44.5h-219l-64 -318h219q84 0 134 46t63 114z" />
    <glyph glyph-name="S.inferior" horiz-adv-x="731" 
d="M268 -10q-145 0 -217 80t-53 213h106q-8 -91 39 -143t144 -52q92 0 155 37.5t76 110.5q9 44 -12.5 74.5t-62.5 48t-91.5 31.5t-100.5 31.5t-89.5 42t-58.5 69.5t-7 108q20 103 113.5 166t224.5 63q129 0 197.5 -69.5t54.5 -186.5h-106q6 73 -38 115.5t-128 42.5
q-86 0 -141 -35.5t-66 -95.5q-9 -44 13 -74t63.5 -46t92.5 -29t101 -30t89.5 -42t58.5 -71.5t6 -112.5q-21 -114 -122.5 -180t-240.5 -66z" />
    <glyph glyph-name="T.inferior" horiz-adv-x="686" 
d="M188 0l148 762h-275l21 98h657l-20 -98h-275l-147 -762h-109z" />
    <glyph glyph-name="U.inferior" horiz-adv-x="802" 
d="M299 -10q-147 0 -220.5 83t-45.5 224l110 563h107l-111 -569q-19 -94 30 -148.5t148 -54.5q101 0 171.5 54.5t89.5 148.5l110 569h107l-111 -563q-28 -142 -132 -224.5t-253 -82.5z" />
    <glyph glyph-name="V.inferior" horiz-adv-x="776" 
d="M231 0l-155 860h110l125 -733l414 733h111l-494 -860h-111z" />
    <glyph glyph-name="W.inferior" horiz-adv-x="1224" 
d="M193 0l-99 860h113l74 -696l350 696h96l80 -696l346 696h113l-432 -860h-111l-76 692l-346 -692h-108z" />
    <glyph glyph-name="X.inferior" horiz-adv-x="743" 
d="M766 860l-352 -426l190 -434h-115l-149 344l-287 -344h-114l360 436l-184 424h112l148 -334l276 334h115z" />
    <glyph glyph-name="Y.inferior" horiz-adv-x="724" 
d="M207 0l69 360l-204 500h123l157 -397l314 397h122l-403 -500l-70 -360h-108z" />
    <glyph glyph-name="Z.inferior" horiz-adv-x="733" 
d="M-59 0l18 96l653 668h-493l18 96h619l-19 -96l-645 -668h514l-18 -96h-647z" />
    <glyph glyph-name="E.titl" horiz-adv-x="1146" 
d="M260 0q-100 0 -142.5 52.5t-23.5 152.5l201 1024q19 100 81.5 152.5t162.5 52.5h669l-24 -127h-666q-34 0 -56 -19t-30 -53l-82 -428h592v-127h-616l-95 -481q-6 -34 9 -53t49 -19h688l-25 -127h-692z" />
    <glyph glyph-name="Eacute.titl" horiz-adv-x="1146" 
d="M764 1548l233 303h154l-277 -303h-110zM260 0q-100 0 -142.5 52.5t-23.5 152.5l201 1024q19 100 81.5 152.5t162.5 52.5h669l-24 -127h-666q-34 0 -56 -19t-30 -53l-82 -428h592v-127h-616l-95 -481q-6 -34 9 -53t49 -19h688l-25 -127h-692z" />
    <glyph glyph-name="Ebreve.titl" horiz-adv-x="1146" 
d="M815 1552q-121 0 -185.5 79.5t-39.5 203.5h115q-14 -74 23.5 -122t109.5 -48q71 0 129 48.5t71 121.5h113q-25 -123 -120.5 -203t-215.5 -80zM260 0q-100 0 -142.5 52.5t-23.5 152.5l201 1024q19 100 81.5 152.5t162.5 52.5h669l-24 -127h-666q-34 0 -56 -19t-30 -53
l-82 -428h592v-127h-616l-95 -481q-6 -34 9 -53t49 -19h688l-25 -127h-692z" />
    <glyph glyph-name="Ecaron.titl" horiz-adv-x="1146" 
d="M762 1548l-168 287h119l114 -190l187 190h133l-281 -287h-104zM260 0q-100 0 -142.5 52.5t-23.5 152.5l201 1024q19 100 81.5 152.5t162.5 52.5h669l-24 -127h-666q-34 0 -56 -19t-30 -53l-82 -428h592v-127h-616l-95 -481q-6 -34 9 -53t49 -19h688l-25 -127h-692z" />
    <glyph glyph-name="Ecircumflex.titl" horiz-adv-x="1146" 
d="M924 1835l168 -287h-119l-115 191l-186 -191h-133l280 287h105zM260 0q-100 0 -142.5 52.5t-23.5 152.5l201 1024q19 100 81.5 152.5t162.5 52.5h669l-24 -127h-666q-34 0 -56 -19t-30 -53l-82 -428h592v-127h-616l-95 -481q-6 -34 9 -53t49 -19h688l-25 -127h-692z" />
    <glyph glyph-name="Edieresis.titl" horiz-adv-x="1146" 
d="M641 1804h129l-35 -186h-129zM956 1804h129l-34 -186h-129zM260 0q-100 0 -142.5 52.5t-23.5 152.5l201 1024q19 100 81.5 152.5t162.5 52.5h669l-24 -127h-666q-34 0 -56 -19t-30 -53l-82 -428h592v-127h-616l-95 -481q-6 -34 9 -53t49 -19h688l-25 -127h-692z" />
    <glyph glyph-name="Edotaccent.titl" horiz-adv-x="1146" 
d="M797 1851h155l-41 -209h-155zM260 0q-100 0 -142.5 52.5t-23.5 152.5l201 1024q19 100 81.5 152.5t162.5 52.5h669l-24 -127h-666q-34 0 -56 -19t-30 -53l-82 -428h592v-127h-616l-95 -481q-6 -34 9 -53t49 -19h688l-25 -127h-692z" />
    <glyph glyph-name="Egrave.titl" horiz-adv-x="1146" 
d="M870 1548h-98l-156 303h136zM260 0q-100 0 -142.5 52.5t-23.5 152.5l201 1024q19 100 81.5 152.5t162.5 52.5h669l-24 -127h-666q-34 0 -56 -19t-30 -53l-82 -428h592v-127h-616l-95 -481q-6 -34 9 -53t49 -19h688l-25 -127h-692z" />
    <glyph glyph-name="Emacron.titl" horiz-adv-x="1146" 
d="M559 1618l23 115h534l-22 -115h-535zM260 0q-100 0 -142.5 52.5t-23.5 152.5l201 1024q19 100 81.5 152.5t162.5 52.5h669l-24 -127h-666q-34 0 -56 -19t-30 -53l-82 -428h592v-127h-616l-95 -481q-6 -34 9 -53t49 -19h688l-25 -127h-692z" />
    <glyph glyph-name="Eogonek.titl" horiz-adv-x="1146" 
d="M518 1307q-34 0 -56 -19t-30 -53l-82 -428h592v-127h-616l-95 -481q-6 -34 9 -53t49 -19h688l-25 -127q-78 -58 -114 -93.5t-43 -70.5q-6 -32 10.5 -49.5t50.5 -17.5q52 0 107 49l41 -92q-90 -72 -191 -72q-81 0 -119 43.5t-24 114.5q19 105 164 188h-574
q-100 0 -142.5 52.5t-23.5 152.5l201 1024q19 100 81.5 152.5t162.5 52.5h669l-24 -127h-666z" />
    <glyph glyph-name="F.titl" horiz-adv-x="1138" 
d="M55 0l240 1229q19 100 81.5 152.5t162.5 52.5h669l-24 -127h-666q-34 0 -56 -19t-30 -53l-86 -444h604l-24 -127h-604l-129 -664h-138z" />
    <glyph glyph-name="L.titl" horiz-adv-x="1058" 
d="M260 0q-100 0 -142.5 52.5t-23.5 152.5l240 1229h137l-240 -1235q-6 -34 9 -53t49 -19h663l-24 -127h-668z" />
    <glyph glyph-name="Lacute.titl" horiz-adv-x="1058" 
d="M401 1548l234 303h153l-276 -303h-111zM260 0q-100 0 -142.5 52.5t-23.5 152.5l240 1229h137l-240 -1235q-6 -34 9 -53t49 -19h663l-24 -127h-668z" />
    <glyph glyph-name="Lcaron.titl" horiz-adv-x="1058" 
d="M709 1147l135 344h129l-193 -344h-71zM260 0q-100 0 -142.5 52.5t-23.5 152.5l240 1229h137l-240 -1235q-6 -34 9 -53t49 -19h663l-24 -127h-668z" />
    <glyph glyph-name="uni013B.titl" horiz-adv-x="1058" 
d="M260 0q-100 0 -142.5 52.5t-23.5 152.5l240 1229h137l-240 -1235q-6 -34 9 -53t49 -19h663l-24 -127h-668zM303 -434l154 295h194l-241 -295h-107z" />
    <glyph glyph-name="Ldot.titl" horiz-adv-x="1058" 
d="M260 0q-100 0 -142.5 52.5t-23.5 152.5l240 1229h137l-240 -1235q-6 -34 9 -53t49 -19h663l-24 -127h-668zM799 823h155l-43 -225h-155z" />
    <glyph glyph-name="Lslash.titl" horiz-adv-x="1058" 
d="M289 127h663l-24 -127h-668q-100 0 -142.5 52.5t-23.5 152.5l86 440l-162 -39l21 103l162 39l133 686h137l-127 -652l176 43l-20 -102l-174 -43l-95 -481q-6 -34 9 -53t49 -19z" />
    <glyph glyph-name="i.loclTRK" horiz-adv-x="423" 
d="M315 1450h156l-41 -209h-156zM47 0l201 1032h129l-201 -1032h-129z" />
    <glyph glyph-name="germandbls.calt" horiz-adv-x="1247" 
d="M846 1450q203 0 305 -115t68 -291l-340 -229q173 -44 231.5 -142.5t26.5 -258.5q-37 -192 -178.5 -303t-358.5 -111h-213l25 127h182q167 0 269 73.5t128 213.5q28 140 -45.5 213t-240.5 73h-31l26 127l379 265q13 115 -54 173t-202 58q-169 0 -286.5 -108t-153.5 -291
l-180 -924h-137l137 700h-142l27 127h139l19 97q46 243 206 384.5t394 141.5z" />
    <glyph glyph-name="a.inferior" horiz-adv-x="634" 
d="M332 629q115 0 178.5 -62t44.5 -161l-80 -406h-100l20 102q-35 -51 -98.5 -81.5t-134.5 -30.5q-94 0 -143.5 52t-32.5 134q19 96 90.5 147.5t193.5 51.5h144q32 0 39 26l2 9q12 61 -28 98t-112 37q-66 0 -120 -37t-66 -88h-96q26 90 111.5 149.5t187.5 59.5zM195 76
q92 0 153 53.5t80 149.5l-4 -25l25 121l-17 -76h-170q-150 0 -172 -121q-9 -44 21 -73t84 -29z" />
    <glyph glyph-name="b.inferior" horiz-adv-x="739" 
d="M289 -10q-68 0 -119.5 29t-63.5 71l-18 -90h-102l170 874h102l-68 -344q39 43 101 71t123 28q141 0 202.5 -89.5t32.5 -230.5q-27 -140 -123.5 -229.5t-236.5 -89.5zM299 82q92 0 159 62t87 165q22 104 -21.5 167t-136.5 63q-92 0 -160 -63t-90 -167
q-20 -102 24.5 -164.5t137.5 -62.5z" />
    <glyph glyph-name="c.inferior" horiz-adv-x="667" 
d="M250 -10q-95 0 -156.5 45.5t-81.5 117t-4 156.5q26 133 126 226.5t241 93.5q107 0 175 -59.5t62 -159.5h-100q2 56 -42.5 92.5t-113.5 36.5q-95 0 -158 -65t-83 -165q-18 -99 20.5 -163t132.5 -64q69 0 123 32t80 89h100q-34 -98 -119.5 -155.5t-201.5 -57.5z" />
    <glyph glyph-name="d.inferior" horiz-adv-x="739" 
d="M246 -10q-141 0 -203 89.5t-35 229.5q29 141 125.5 230.5t237.5 89.5q61 0 111 -28t71 -71l68 344h102l-170 -874h-102l18 90q-32 -43 -94 -71.5t-129 -28.5zM272 82q92 0 160 62t88 165q22 104 -22.5 167t-137.5 63q-92 0 -158.5 -62.5t-88.5 -167.5q-20 -103 23.5 -165
t135.5 -62z" />
    <glyph glyph-name="e.inferior" horiz-adv-x="688" 
d="M369 629q133 0 194.5 -82.5t36.5 -208.5q-1 -8 -5 -24t-5 -19h-484q-12 -94 34 -154.5t132 -60.5q73 0 125.5 31t77.5 88h105q-34 -95 -122.5 -152t-203.5 -57q-135 0 -203 94t-41 229q27 138 125.5 227t233.5 89zM504 375q8 78 -32 124t-120 46q-78 0 -137 -44t-88 -126
h377z" />
    <glyph glyph-name="f.inferior" horiz-adv-x="477" 
d="M49 0l103 528h-129l18 90h129l12 64q17 89 79.5 140.5t152.5 51.5h98l-18 -90h-93q-45 0 -76 -27.5t-40 -76.5l-13 -62h191l-19 -90h-190l-102 -528h-103z" />
    <glyph glyph-name="g.inferior" horiz-adv-x="739" 
d="M674 618l-94 -481l-33 -166q-19 -97 -95.5 -159t-177.5 -62h-292l16 86h287q58 0 103.5 39.5t57.5 101.5l21 107l8 43l-8 -43q-29 -41 -90.5 -67.5t-130.5 -26.5q-141 0 -203 89.5t-35 229.5q29 141 125.5 230.5t237.5 89.5q61 0 111 -28t71 -71l18 88h103zM272 82
q92 0 160 62t88 165q22 104 -22.5 167t-137.5 63q-92 0 -158.5 -62.5t-88.5 -167.5q-20 -103 23.5 -165t135.5 -62z" />
    <glyph glyph-name="h.inferior" horiz-adv-x="710" 
d="M-14 0l170 874h102l-72 -372q36 62 96 94.5t132 32.5q104 0 154 -68.5t28 -181.5l-74 -379h-102l69 360q15 80 -17 128.5t-101 48.5q-78 0 -139 -57t-78 -146l-66 -334h-102z" />
    <glyph glyph-name="i.inferior" horiz-adv-x="284" 
d="M154 877h116l-28 -148h-117zM-8 0l121 618h102l-121 -618h-102z" />
    <glyph glyph-name="j.inferior" horiz-adv-x="286" 
d="M154 877h116l-28 -148h-117zM113 618h102l-94 -481l-35 -184q-21 -103 -72 -153t-149 -50h-58l17 86h51q55 0 75.5 26.5t33.5 94.5l14 78z" />
    <glyph glyph-name="k.inferior" horiz-adv-x="649" 
d="M631 618l-312 -241l216 -377h-127l-179 309l-96 -76l-45 -233h-102l170 874h102l-100 -514l344 258h129z" />
    <glyph glyph-name="l.inferior" horiz-adv-x="274" 
d="M-14 0l170 874h102l-170 -874h-102z" />
    <glyph glyph-name="m.inferior" horiz-adv-x="1073" 
d="M-14 0l120 618h103l-23 -116q28 57 85 92t126 35q76 0 124 -34.5t52 -96.5q28 56 93 93.5t135 37.5q100 0 145 -64t23 -176l-76 -389h-102l69 362q15 79 -12 128t-90 49q-76 0 -130 -49t-69 -128l-70 -362h-102l70 362q15 79 -12 128t-91 49q-75 0 -128 -49t-68 -128
l-70 -362h-102z" />
    <glyph glyph-name="n.inferior" horiz-adv-x="702" 
d="M-14 0l120 618h103l-23 -116q36 62 96 94.5t132 32.5q104 0 154 -68.5t28 -181.5l-74 -379h-102l69 360q15 80 -17 128.5t-101 48.5q-78 0 -139 -57t-78 -146l-66 -334h-102z" />
    <glyph glyph-name="o.inferior" horiz-adv-x="731" 
d="M262 -10q-138 0 -209 89.5t-45 229.5q28 140 134.5 230t244.5 90t210 -90.5t44 -229.5q-26 -139 -133.5 -229t-245.5 -90zM281 82q95 0 165 63.5t89 163.5q20 102 -25.5 166t-140.5 64q-93 0 -164.5 -64t-91.5 -166q-19 -100 28 -163.5t140 -63.5z" />
    <glyph glyph-name="p.inferior" horiz-adv-x="739" 
d="M-63 -250l169 868h103l-19 -90q34 44 97 72.5t129 28.5q139 0 200.5 -89.5t32.5 -230.5q-27 -139 -124 -229t-236 -90q-60 0 -111 27t-74 71l-65 -338h-102zM299 82q92 0 159 62t87 165q22 104 -21.5 167t-136.5 63q-92 0 -159 -62.5t-89 -167.5q-20 -103 24 -165
t136 -62z" />
    <glyph glyph-name="q.inferior" horiz-adv-x="739" 
d="M504 -250h-103l66 338q-38 -44 -99.5 -71t-121.5 -27q-139 0 -202 90t-36 229q29 141 125.5 230.5t235.5 89.5q66 0 117.5 -28.5t66.5 -72.5l18 90h103zM272 82q92 0 159 62t87 165q22 104 -21.5 167t-136.5 63q-92 0 -158.5 -62.5t-88.5 -167.5q-20 -103 23.5 -165
t135.5 -62z" />
    <glyph glyph-name="r.inferior" horiz-adv-x="456" 
d="M436 530h-96q-86 0 -129.5 -62.5t-67.5 -184.5l-55 -283h-102l120 618h103l-27 -129q34 69 78.5 104.5t108.5 35.5h88z" />
    <glyph glyph-name="s.inferior" horiz-adv-x="581" 
d="M197 -10q-107 0 -163 56t-44 153h96q-6 -59 27 -91t100 -32q56 0 96.5 27.5t48.5 66.5q6 32 -5 53t-34.5 30t-54.5 16t-63.5 11t-62.5 15t-52 28t-31 51t0 83q15 77 85.5 124.5t168.5 47.5q101 0 154.5 -52t44.5 -137h-96q3 53 -34.5 79t-86.5 26q-54 0 -93 -24t-46 -64
q-6 -33 10 -52.5t46.5 -27.5t68.5 -12.5t74.5 -14t65 -27t41 -56t1.5 -95.5q-15 -83 -87.5 -132.5t-174.5 -49.5z" />
    <glyph glyph-name="t.inferior" horiz-adv-x="503" 
d="M209 817h102l-39 -199h189l-19 -90h-188l-64 -327q-9 -51 11.5 -80t66.5 -29h90l-18 -92h-94q-91 0 -134 52.5t-24 144.5l64 331h-129l18 90h129z" />
    <glyph glyph-name="u.inferior" horiz-adv-x="702" 
d="M637 618l-121 -618h-102l22 117q-36 -62 -95.5 -94.5t-131.5 -32.5q-104 0 -154 68.5t-28 181.5l73 378h103l-70 -360q-17 -79 16.5 -127.5t102.5 -48.5q78 0 139 57t78 146l66 333h102z" />
    <glyph glyph-name="v.inferior" horiz-adv-x="591" 
d="M143 0l-106 618h104l80 -485l268 485h107l-348 -618h-105z" />
    <glyph glyph-name="w.inferior" horiz-adv-x="935" 
d="M135 0l-82 618h105l53 -477l229 477h99l39 -477l241 477h105l-322 -618h-100l-41 473l-228 -473h-98z" />
    <glyph glyph-name="x.inferior" horiz-adv-x="589" 
d="M575 618l-262 -292l162 -326h-106l-125 248l-224 -248h-106l289 326l-148 292h113l106 -212l189 212h112z" />
    <glyph glyph-name="y.inferior" horiz-adv-x="591" 
d="M596 618l-307 -544l-172 -324h-99l127 242l-108 626h104l80 -485l268 485h107z" />
    <glyph glyph-name="z.inferior" horiz-adv-x="608" 
d="M-51 0l18 90l465 438h-362l18 90h481l-18 -90l-463 -438h395l-18 -90h-516z" />
    <glyph glyph-name="a.ss01" horiz-adv-x="1220" 
d="M479 -16q-139 0 -240.5 70t-143.5 192.5t-13 269.5q45 231 207 382t399 151q112 0 200.5 -56.5t119.5 -146.5l34 186h129l-200 -1032h-129l35 182q-52 -79 -166 -138.5t-232 -59.5zM508 102q167 0 289 113t159 301t-42 301t-246 113t-289.5 -113t-159.5 -301
q-37 -187 42.5 -300.5t246.5 -113.5z" />
    <glyph glyph-name="aacute.ss01" horiz-adv-x="1220" 
d="M680 1147l233 303h154l-276 -303h-111zM479 -16q-139 0 -240.5 70t-143.5 192.5t-13 269.5q45 231 207 382t399 151q112 0 200.5 -56.5t119.5 -146.5l34 186h129l-200 -1032h-129l35 182q-52 -79 -166 -138.5t-232 -59.5zM508 102q167 0 289 113t159 301t-42 301
t-246 113t-289.5 -113t-159.5 -301q-37 -187 42.5 -300.5t246.5 -113.5z" />
    <glyph glyph-name="abreve.ss01" horiz-adv-x="1220" 
d="M731 1151q-121 0 -185.5 79.5t-39.5 203.5h115q-14 -74 23.5 -122t109.5 -48q71 0 129 48.5t71 121.5h113q-25 -123 -120.5 -203t-215.5 -80zM479 -16q-139 0 -240.5 70t-143.5 192.5t-13 269.5q45 231 207 382t399 151q112 0 200.5 -56.5t119.5 -146.5l34 186h129
l-200 -1032h-129l35 182q-52 -79 -166 -138.5t-232 -59.5zM508 102q167 0 289 113t159 301t-42 301t-246 113t-289.5 -113t-159.5 -301q-37 -187 42.5 -300.5t246.5 -113.5z" />
    <glyph glyph-name="acircumflex.ss01" horiz-adv-x="1220" 
d="M840 1434l168 -287h-119l-115 190l-186 -190h-133l280 287h105zM479 -16q-139 0 -240.5 70t-143.5 192.5t-13 269.5q45 231 207 382t399 151q112 0 200.5 -56.5t119.5 -146.5l34 186h129l-200 -1032h-129l35 182q-52 -79 -166 -138.5t-232 -59.5zM508 102q167 0 289 113
t159 301t-42 301t-246 113t-289.5 -113t-159.5 -301q-37 -187 42.5 -300.5t246.5 -113.5z" />
    <glyph glyph-name="adieresis.ss01" horiz-adv-x="1220" 
d="M557 1403h129l-35 -186h-129zM872 1403h129l-34 -186h-129zM479 -16q-139 0 -240.5 70t-143.5 192.5t-13 269.5q45 231 207 382t399 151q112 0 200.5 -56.5t119.5 -146.5l34 186h129l-200 -1032h-129l35 182q-52 -79 -166 -138.5t-232 -59.5zM508 102q167 0 289 113
t159 301t-42 301t-246 113t-289.5 -113t-159.5 -301q-37 -187 42.5 -300.5t246.5 -113.5z" />
    <glyph glyph-name="agrave.ss01" horiz-adv-x="1220" 
d="M786 1147h-98l-156 303h136zM479 -16q-139 0 -240.5 70t-143.5 192.5t-13 269.5q45 231 207 382t399 151q112 0 200.5 -56.5t119.5 -146.5l34 186h129l-200 -1032h-129l35 182q-52 -79 -166 -138.5t-232 -59.5zM508 102q167 0 289 113t159 301t-42 301t-246 113
t-289.5 -113t-159.5 -301q-37 -187 42.5 -300.5t246.5 -113.5z" />
    <glyph glyph-name="amacron.ss01" horiz-adv-x="1220" 
d="M475 1217l23 114h534l-22 -114h-535zM479 -16q-139 0 -240.5 70t-143.5 192.5t-13 269.5q45 231 207 382t399 151q112 0 200.5 -56.5t119.5 -146.5l34 186h129l-200 -1032h-129l35 182q-52 -79 -166 -138.5t-232 -59.5zM508 102q167 0 289 113t159 301t-42 301t-246 113
t-289.5 -113t-159.5 -301q-37 -187 42.5 -300.5t246.5 -113.5z" />
    <glyph glyph-name="aogonek.ss01" horiz-adv-x="1220" 
d="M874 -231q52 0 107 49l41 -92q-90 -72 -191 -72q-81 0 -119 43.5t-24 114.5q19 105 164 188h-10l35 182q-52 -79 -166 -138.5t-232 -59.5q-139 0 -240.5 70t-143.5 192.5t-13 269.5q45 231 207 382t399 151q112 0 200.5 -56.5t119.5 -146.5l34 186h129l-200 -1032
q-79 -59 -115 -94t-43 -70q-6 -32 10.5 -49.5t50.5 -17.5zM508 102q167 0 289 113t159 301t-42 301t-246 113t-289.5 -113t-159.5 -301q-37 -187 42.5 -300.5t246.5 -113.5z" />
    <glyph glyph-name="aring.ss01" horiz-adv-x="1220" 
d="M707 1116q-101 0 -168.5 61.5t-67.5 155.5q0 92 67.5 153.5t168.5 61.5t169 -61.5t68 -153.5q0 -94 -67.5 -155.5t-169.5 -61.5zM707 1208q59 0 96 35t37 90t-37 90t-96 35q-57 0 -94.5 -35t-37.5 -90t37.5 -90t94.5 -35zM479 -16q-139 0 -240.5 70t-143.5 192.5
t-13 269.5q45 231 207 382t399 151q112 0 200.5 -56.5t119.5 -146.5l34 186h129l-200 -1032h-129l35 182q-52 -79 -166 -138.5t-232 -59.5zM508 102q167 0 289 113t159 301t-42 301t-246 113t-289.5 -113t-159.5 -301q-37 -187 42.5 -300.5t246.5 -113.5z" />
    <glyph glyph-name="aringacute.ss01" horiz-adv-x="1220" 
d="M707 1116q-101 0 -168.5 61.5t-67.5 155.5q0 87 60 147t153 68l229 297h154l-276 -303h-25q79 -17 128.5 -74.5t49.5 -134.5q0 -94 -67.5 -155.5t-169.5 -61.5zM707 1458q-57 0 -94.5 -35t-37.5 -90t37.5 -90t94.5 -35q59 0 96 35t37 90t-37 90t-96 35zM1042 1032h129
l-200 -1032h-129l35 182q-52 -79 -166 -138.5t-232 -59.5q-139 0 -240.5 70t-143.5 192.5t-13 269.5q45 231 207 382t399 151q112 0 200.5 -56.5t119.5 -146.5zM956 516q37 188 -42 301t-246 113t-289.5 -113t-159.5 -301q-37 -187 42.5 -300.5t246.5 -113.5t289 113
t159 301z" />
    <glyph glyph-name="atilde.ss01" horiz-adv-x="1220" 
d="M545 1223h-111q26 86 84.5 138t130.5 52q53 0 95.5 -21t75 -42t61.5 -21t56 20t40 52h110q-26 -87 -84 -139t-131 -52q-41 0 -77 13t-57 29t-47.5 29t-49.5 13q-31 0 -57.5 -19.5t-38.5 -51.5zM479 -16q-139 0 -240.5 70t-143.5 192.5t-13 269.5q45 231 207 382t399 151
q112 0 200.5 -56.5t119.5 -146.5l34 186h129l-200 -1032h-129l35 182q-52 -79 -166 -138.5t-232 -59.5zM508 102q167 0 289 113t159 301t-42 301t-246 113t-289.5 -113t-159.5 -301q-37 -187 42.5 -300.5t246.5 -113.5z" />
    <glyph glyph-name="ae.ss01" horiz-adv-x="2017" 
d="M1532 1049q217 0 331 -137.5t70 -340.5l-16 -67h-827q-19 -177 70.5 -289.5t260.5 -112.5q124 0 211.5 60.5t130.5 163.5h135q-48 -145 -182.5 -243.5t-310.5 -98.5q-133 0 -235.5 59.5t-157.5 163.5l-41 -207h-129l35 182q-52 -79 -166 -138.5t-232 -59.5
q-139 0 -240.5 70t-143.5 192.5t-13 269.5q45 231 207 382t399 151q112 0 200.5 -56.5t119.5 -146.5l34 186h129l-26 -135q162 152 387 152zM508 102q167 0 289 113t159 301t-42 301t-246 113t-289.5 -113t-159.5 -301q-37 -187 42.5 -300.5t246.5 -113.5zM1808 623
q17 140 -65.5 223.5t-229.5 83.5q-145 0 -249.5 -81.5t-149.5 -225.5h694z" />
    <glyph glyph-name="aeacute.ss01" horiz-adv-x="2017" 
d="M1464 1450l-276 -303h-111l234 303h153zM1532 1049q217 0 331 -137.5t70 -340.5l-16 -67h-827q-19 -177 70.5 -289.5t260.5 -112.5q124 0 211.5 60.5t130.5 163.5h135q-48 -145 -182.5 -243.5t-310.5 -98.5q-133 0 -235.5 59.5t-157.5 163.5l-41 -207h-129l35 182
q-52 -79 -166 -138.5t-232 -59.5q-139 0 -240.5 70t-143.5 192.5t-13 269.5q45 231 207 382t399 151q112 0 200.5 -56.5t119.5 -146.5l34 186h129l-26 -135q162 152 387 152zM508 102q167 0 289 113t159 301t-42 301t-246 113t-289.5 -113t-159.5 -301q-37 -187 42.5 -300.5
t246.5 -113.5zM1808 623q17 140 -65.5 223.5t-229.5 83.5q-145 0 -249.5 -81.5t-149.5 -225.5h694z" />
    <glyph glyph-name="g.ss02" horiz-adv-x="1069" 
d="M303 420q-62 -52 -89.5 -87.5t-27.5 -76.5q0 -42 34.5 -61t88.5 -19h279q130 0 215.5 -62t85.5 -169q0 -158 -94 -260.5t-250 -102.5h-320q-117 0 -194.5 67.5t-77.5 172.5q0 88 46.5 163t121.5 121q-64 39 -64 121q0 22 4 42t8 35t17 34.5t19 29t27 31.5t28 28.5t35 33
t36 33.5q-43 65 -43 147q0 173 125 289.5t305 116.5q83 0 164 -33l183 162l73 -89l-157 -141q84 -84 84 -205q0 -159 -123.5 -278t-288.5 -119q-141 0 -250 76zM604 934q-120 0 -201 -81.5t-81 -193.5q0 -94 66 -148t173 -54q109 0 189.5 82t80.5 196q0 92 -65 145.5
t-162 53.5zM334 63q-49 0 -107 7q-69 -35 -107 -96.5t-38 -133.5q0 -60 49 -100.5t117 -40.5h305q97 0 153 66.5t56 164.5q0 133 -201 133h-227z" />
    <glyph glyph-name="gbreve.ss02" horiz-adv-x="1069" 
d="M639 1151q-121 0 -185.5 79.5t-39.5 203.5h114q-14 -74 24 -122t110 -48q71 0 129 48.5t71 121.5h113q-25 -123 -120.5 -203t-215.5 -80zM303 420q-62 -52 -89.5 -87.5t-27.5 -76.5q0 -42 34.5 -61t88.5 -19h279q130 0 215.5 -62t85.5 -169q0 -158 -94 -260.5
t-250 -102.5h-320q-117 0 -194.5 67.5t-77.5 172.5q0 88 46.5 163t121.5 121q-64 39 -64 121q0 22 4 42t8 35t17 34.5t19 29t27 31.5t28 28.5t35 33t36 33.5q-43 65 -43 147q0 173 125 289.5t305 116.5q83 0 164 -33l183 162l73 -89l-157 -141q84 -84 84 -205
q0 -159 -123.5 -278t-288.5 -119q-141 0 -250 76zM604 934q-120 0 -201 -81.5t-81 -193.5q0 -94 66 -148t173 -54q109 0 189.5 82t80.5 196q0 92 -65 145.5t-162 53.5zM334 63q-49 0 -107 7q-69 -35 -107 -96.5t-38 -133.5q0 -60 49 -100.5t117 -40.5h305q97 0 153 66.5
t56 164.5q0 133 -201 133h-227z" />
    <glyph glyph-name="gcircumflex.ss02" horiz-adv-x="1069" 
d="M303 420q-62 -52 -89.5 -87.5t-27.5 -76.5q0 -42 34.5 -61t88.5 -19h279q130 0 215.5 -62t85.5 -169q0 -158 -94 -260.5t-250 -102.5h-320q-117 0 -194.5 67.5t-77.5 172.5q0 88 46.5 163t121.5 121q-64 39 -64 121q0 22 4 42t8 35t17 34.5t19 29t27 31.5t28 28.5t35 33
t36 33.5q-43 65 -43 147q0 173 125 289.5t305 116.5q83 0 164 -33l150 133h-35l-115 190l-186 -190h-133l280 287h105l168 -287h-27l49 -60l-157 -141q84 -84 84 -205q0 -159 -123.5 -278t-288.5 -119q-141 0 -250 76zM604 934q-120 0 -201 -81.5t-81 -193.5q0 -94 66 -148
t173 -54q109 0 189.5 82t80.5 196q0 92 -65 145.5t-162 53.5zM334 63q-49 0 -107 7q-69 -35 -107 -96.5t-38 -133.5q0 -60 49 -100.5t117 -40.5h305q97 0 153 66.5t56 164.5q0 133 -201 133h-227z" />
    <glyph glyph-name="uni0123.ss02" horiz-adv-x="1069" 
d="M856 1450l-121 -303h-133l174 303h80zM303 420q-62 -52 -89.5 -87.5t-27.5 -76.5q0 -42 34.5 -61t88.5 -19h279q130 0 215.5 -62t85.5 -169q0 -158 -94 -260.5t-250 -102.5h-320q-117 0 -194.5 67.5t-77.5 172.5q0 88 46.5 163t121.5 121q-64 39 -64 121q0 22 4 42t8 35
t17 34.5t19 29t27 31.5t28 28.5t35 33t36 33.5q-43 65 -43 147q0 173 125 289.5t305 116.5q83 0 164 -33l183 162l73 -89l-157 -141q84 -84 84 -205q0 -159 -123.5 -278t-288.5 -119q-141 0 -250 76zM604 934q-120 0 -201 -81.5t-81 -193.5q0 -94 66 -148t173 -54
q109 0 189.5 82t80.5 196q0 92 -65 145.5t-162 53.5zM334 63q-49 0 -107 7q-69 -35 -107 -96.5t-38 -133.5q0 -60 49 -100.5t117 -40.5h305q97 0 153 66.5t56 164.5q0 133 -201 133h-227z" />
    <glyph glyph-name="gdotaccent.ss02" horiz-adv-x="1069" 
d="M776 1450l-41 -209h-155l41 209h155zM303 420q-62 -52 -89.5 -87.5t-27.5 -76.5q0 -42 34.5 -61t88.5 -19h279q130 0 215.5 -62t85.5 -169q0 -158 -94 -260.5t-250 -102.5h-320q-117 0 -194.5 67.5t-77.5 172.5q0 88 46.5 163t121.5 121q-64 39 -64 121q0 22 4 42t8 35
t17 34.5t19 29t27 31.5t28 28.5t35 33t36 33.5q-43 65 -43 147q0 173 125 289.5t305 116.5q83 0 164 -33l183 162l73 -89l-157 -141q84 -84 84 -205q0 -159 -123.5 -278t-288.5 -119q-141 0 -250 76zM604 934q-120 0 -201 -81.5t-81 -193.5q0 -94 66 -148t173 -54
q109 0 189.5 82t80.5 196q0 92 -65 145.5t-162 53.5zM334 63q-49 0 -107 7q-69 -35 -107 -96.5t-38 -133.5q0 -60 49 -100.5t117 -40.5h305q97 0 153 66.5t56 164.5q0 133 -201 133h-227z" />
    <glyph glyph-name="y.ss03" horiz-adv-x="964" 
d="M1034 1032l-674 -1202q-140 -248 -313 -248h-96v119h121q47 0 88.5 31.5t89.5 124.5l63 123l-182 1052h135l146 -872l485 872h137z" />
    <glyph glyph-name="yacute.ss03" horiz-adv-x="964" 
d="M561 1147l234 303h153l-276 -303h-111zM1034 1032l-674 -1202q-140 -248 -313 -248h-96v119h121q47 0 88.5 31.5t89.5 124.5l63 123l-182 1052h135l146 -872l485 872h137z" />
    <glyph glyph-name="ycircumflex.ss03" horiz-adv-x="964" 
d="M721 1434l168 -287h-119l-115 190l-186 -190h-133l280 287h105zM1034 1032l-674 -1202q-140 -248 -313 -248h-96v119h121q47 0 88.5 31.5t89.5 124.5l63 123l-182 1052h135l146 -872l485 872h137z" />
    <glyph glyph-name="ydieresis.ss03" horiz-adv-x="964" 
d="M438 1403h129l-35 -186h-129zM754 1403h129l-35 -186h-129zM1034 1032l-674 -1202q-140 -248 -313 -248h-96v119h121q47 0 88.5 31.5t89.5 124.5l63 123l-182 1052h135l146 -872l485 872h137z" />
    <glyph glyph-name="ygrave.ss03" horiz-adv-x="964" 
d="M668 1147h-99l-155 303h135zM1034 1032l-674 -1202q-140 -248 -313 -248h-96v119h121q47 0 88.5 31.5t89.5 124.5l63 123l-182 1052h135l146 -872l485 872h137z" />
    <glyph glyph-name="t.ss04" horiz-adv-x="786" 
d="M438 0q-140 0 -205.5 83.5t-37.5 225.5l118 604h-209v119h181q52 0 61 51l55 287h129l-65 -338h317v-119h-340l-118 -604q-17 -89 19.5 -139.5t115.5 -50.5h155l-22 -119h-154z" />
    <glyph glyph-name="tbar.ss04" horiz-adv-x="786" 
d="M782 913h-340l-67 -342h321l-18 -110h-324l-30 -152q-17 -89 19.5 -139.5t115.5 -50.5h155l-22 -119h-154q-140 0 -205.5 83.5t-37.5 225.5l30 152h-170l19 110h172l67 342h-209v119h181q52 0 61 51l55 287h129l-65 -338h317v-119z" />
    <glyph glyph-name="tcaron.ss04" horiz-adv-x="786" 
d="M647 1147l135 344h129l-192 -344h-72zM438 0q-140 0 -205.5 83.5t-37.5 225.5l118 604h-209v119h181q52 0 61 51l55 287h129l-65 -338h317v-119h-340l-118 -604q-17 -89 19.5 -139.5t115.5 -50.5h155l-22 -119h-154z" />
    <glyph glyph-name="uni0163.ss04" horiz-adv-x="786" 
d="M438 0q-140 0 -205.5 83.5t-37.5 225.5l118 604h-209v119h181q52 0 61 51l55 287h129l-65 -338h317v-119h-340l-118 -604q-17 -89 19.5 -139.5t115.5 -50.5h155l-22 -119h-154zM162 -418h-187l271 295h116z" />
    <glyph glyph-name="uni021B.ss04" horiz-adv-x="786" 
d="M438 0q-140 0 -205.5 83.5t-37.5 225.5l118 604h-209v119h181q52 0 61 51l55 287h129l-65 -338h317v-119h-340l-118 -604q-17 -89 19.5 -139.5t115.5 -50.5h155l-22 -119h-154zM12 -434l154 295h194l-241 -295h-107z" />
    <glyph glyph-name="O_O.dlig" horiz-adv-x="2822" 
d="M651 -16q-194 0 -328 99.5t-183.5 266.5t-10.5 367q43 219 158 385.5t284 257t367 90.5q85 0 157 -21t120 -54.5t88 -74t67.5 -81.5t50.5 -74.5t46 -54.5t46 -21t53.5 21t66.5 54.5t79 74.5t99 81.5t119 74t146 54.5t173 21q196 0 329.5 -95t183.5 -261.5t9 -376.5
q-31 -158 -102.5 -292.5t-174.5 -232.5t-240.5 -153t-291.5 -55q-89 0 -163 21t-123 54.5t-88 74.5t-65.5 81.5t-48 74t-43.5 54.5t-45 21t-53.5 -21t-66.5 -54.5t-79.5 -74.5t-99.5 -81.5t-118.5 -74t-145.5 -54.5t-172 -21zM678 111q80 0 153 22t128 56.5t105.5 76.5
t93.5 84.5t82.5 77t83 56.5t85.5 22t77 -22t61.5 -56.5t53.5 -77t61 -84.5t75.5 -76.5t106.5 -56.5t145 -22q233 0 410 171t229 435q34 173 -3.5 310.5t-141.5 216.5t-259 79q-80 0 -153 -22t-128.5 -56.5t-106 -76.5t-93.5 -84.5t-83 -77t-83.5 -56.5t-85.5 -22t-77 22
t-61.5 56.5t-53 77t-60 84.5t-75.5 76.5t-106.5 56.5t-144.5 22q-155 0 -290 -79t-226 -216.5t-125 -310.5t4 -310.5t142.5 -216.5t259.5 -79z" />
    <glyph glyph-name="T_T.dlig" horiz-adv-x="1996" 
d="M2148 1434l-24 -127h-467l-254 -1307h-137l254 1307h-734l-254 -1307h-137l254 1307h-469l25 127h1943z" />
    <glyph glyph-name="T_h.dlig" horiz-adv-x="2095" 
d="M1671 1049q175 0 257 -115t44 -307l-121 -627h-129l119 610q28 145 -30.5 232.5t-182.5 87.5q-145 0 -257.5 -105.5t-143.5 -269.5l-109 -555h-129l254 1307h-457l-254 -1307h-137l254 1307h-469l25 127h1192l-119 -617q60 114 163.5 173t229.5 59z" />
    <glyph glyph-name="T_i.dlig" horiz-adv-x="1347" 
d="M395 0l254 1307h-469l25 127h1073l-25 -127h-467l-254 -1307h-137zM975 0l201 1032h129l-201 -1032h-129z" />
    <glyph glyph-name="o_o.dlig" horiz-adv-x="2138" 
d="M477 -16q-143 0 -243.5 68.5t-141 190.5t-10.5 273q47 242 212 387.5t392 145.5q88 0 157.5 -27t109.5 -65.5t69 -76.5t52 -65t44 -27t55.5 27t80 65t101.5 76.5t137.5 65.5t170.5 27q215 0 327 -151.5t66 -381.5q-47 -241 -211.5 -386.5t-390.5 -145.5q-89 0 -159 27
t-109.5 65t-69 76t-52.5 65t-44 27t-55.5 -27t-80 -65t-101.5 -76t-137 -65t-169 -27zM502 102q62 0 121 20t102.5 50t87.5 64.5t78.5 64.5t74 50t74.5 20t67 -20t55.5 -50t54.5 -64.5t63.5 -64.5t84.5 -50t114 -20q157 0 282 117t160 297q36 184 -40 299t-243 115
q-74 0 -142.5 -27.5t-120 -67t-97.5 -79t-92.5 -67t-87.5 -27.5q-35 0 -67 20t-55 49.5t-54 64.5t-63 64.5t-83.5 49.5t-113.5 20q-158 0 -284 -117t-161 -297q-36 -184 40.5 -299t244.5 -115z" />
    <glyph glyph-name="zero.inferior" horiz-adv-x="751" 
d="M252 -10q-153 0 -203.5 101.5t-11.5 303.5l12 70q39 201 130 303t245 102h43q154 0 204 -101.5t11 -303.5l-12 -70q-39 -202 -129.5 -303.5t-245.5 -101.5h-43zM274 88h37q99 0 158.5 72.5t87.5 220.5l21 98q28 148 -4 220.5t-130 72.5h-36q-99 0 -158.5 -72.5
t-87.5 -220.5l-21 -98q-28 -148 3.5 -220.5t129.5 -72.5z" />
    <glyph glyph-name="one.inferior" horiz-adv-x="425" 
d="M403 860l-167 -860h-109l131 678q-28 -31 -86 -31h-80l21 98h69q43 0 70 25t45 90h106z" />
    <glyph glyph-name="two.inferior" horiz-adv-x="688" 
d="M88 580q22 133 115.5 211.5t226.5 78.5q124 0 188 -71t41 -187q-35 -174 -253 -272l-136 -61q-66 -31 -117.5 -78t-62.5 -103h473l-18 -98h-580l15 78q14 72 62.5 134t97.5 96t106 61l143 67q139 65 160 178q13 71 -26 115.5t-113 44.5q-82 0 -138.5 -53t-70.5 -141h-113
z" />
    <glyph glyph-name="three.inferior" horiz-adv-x="735" 
d="M276 -10q-132 0 -204.5 78t-48.5 202h106q-17 -82 30.5 -132t135.5 -50q90 0 150 42t73 116q15 73 -28.5 112t-133.5 39h-69l18 97h68q74 0 126 41t64 106q12 62 -27 97.5t-116 35.5q-72 0 -124 -41.5t-71 -116.5h-102q26 115 114.5 184.5t204.5 69.5q120 0 185.5 -64.5
t46.5 -162.5q-12 -61 -57 -112.5t-103 -77.5q66 -26 98.5 -80t18.5 -129q-24 -119 -125.5 -186.5t-229.5 -67.5z" />
    <glyph glyph-name="four.inferior" horiz-adv-x="815" 
d="M399 0l41 213h-440v96l551 551h127l-109 -551h131v-96h-149l-41 -213h-111zM115 309h344l84 430z" />
    <glyph glyph-name="five.inferior" horiz-adv-x="733" 
d="M258 -10q-116 0 -183.5 72.5t-58.5 181.5h103q-4 -75 37.5 -116.5t119.5 -41.5q94 0 160.5 52.5t85.5 142.5q17 92 -28.5 147t-139.5 55q-69 0 -123.5 -26.5t-83.5 -73.5h-86l160 477h461l-20 -98h-379l-86 -254q38 28 88.5 46.5t95.5 18.5q136 0 205.5 -80.5
t44.5 -211.5q-26 -130 -129.5 -210.5t-243.5 -80.5z" />
    <glyph glyph-name="six.inferior" horiz-adv-x="772" 
d="M408 575q133 0 201.5 -82.5t43.5 -209.5t-128.5 -210t-237.5 -83q-147 0 -212 108t-30 287q44 234 162.5 359.5t267.5 125.5q119 0 187 -63.5t65 -165.5h-106q-2 62 -45 98.5t-117 36.5q-102 0 -185 -94.5t-118 -239.5q38 58 109.5 95.5t142.5 37.5zM305 84
q89 0 157 56.5t85 144.5q17 86 -29 141t-135 55t-156 -55t-84 -141q-17 -88 28 -144.5t134 -56.5z" />
    <glyph glyph-name="seven.inferior" horiz-adv-x="692" 
d="M119 0q22 113 68 214.5t151 229.5l258 318h-498l21 98h620l-18 -90l-309 -387q-88 -110 -126.5 -196.5t-58.5 -186.5h-108z" />
    <glyph glyph-name="eight.inferior" horiz-adv-x="751" 
d="M274 -10q-131 0 -205.5 68t-52.5 186q14 77 70.5 136t130.5 83q-49 26 -74 73t-14 107q20 100 108 163.5t209 63.5t184.5 -63.5t43.5 -163.5q-11 -60 -55 -107t-105 -73q65 -24 97.5 -82.5t17.5 -136.5q-22 -117 -123.5 -185.5t-231.5 -68.5zM375 504q75 0 127.5 37
t64.5 100t-26 99t-113 36q-77 0 -128.5 -36t-63.5 -99t25.5 -100t113.5 -37zM293 86q90 0 152 43t75 117q15 75 -29.5 118.5t-134.5 43.5t-153 -44t-78 -118q-13 -74 32.5 -117t135.5 -43z" />
    <glyph glyph-name="nine.inferior" horiz-adv-x="772" 
d="M332 285q-133 0 -202 83t-44 210t129 209.5t238 82.5q147 0 211.5 -107.5t29.5 -287.5q-44 -234 -162.5 -359.5t-267.5 -125.5q-119 0 -187 63.5t-65 165.5h107q2 -62 45 -98.5t117 -36.5q102 0 185 94.5t118 239.5q-38 -58 -109.5 -95.5t-142.5 -37.5zM434 776
q-89 0 -156.5 -56.5t-84.5 -144.5q-17 -86 28.5 -141t134.5 -55t156 55t84 141q17 88 -28 144.5t-134 56.5z" />
    <glyph glyph-name="eight.ss06" horiz-adv-x="1185" 
d="M246 1065q32 166 178 275.5t332 109.5q212 0 321 -108t76 -277q-13 -66 -44 -118.5t-67.5 -83.5t-71.5 -54.5t-60 -44.5t-29 -41t14.5 -42t47 -47.5t55 -58t40 -85.5t0.5 -119q-33 -171 -178 -279t-350 -108q-209 0 -330.5 110t-89.5 277q14 71 48 126.5t73.5 87
t77.5 54.5t66 43.5t32 40.5t-13.5 43.5t-42.5 46.5t-49.5 59t-36 80.5t0.5 112.5zM375 1063q-11 -57 2.5 -101.5t40 -72t54 -51t44.5 -52t10 -63.5q-6 -29 -28.5 -55t-53 -45.5t-66 -44.5t-67 -50.5t-57 -66t-35.5 -88.5q-22 -114 62 -188t235 -74t262 74t133 188
q11 57 -5 102.5t-46 74.5t-60.5 54t-50 55t-12.5 64q7 35 35.5 63.5t65.5 52t75 51t70 72t43 101.5q23 117 -54 188.5t-220 71.5q-146 0 -250 -71t-127 -189z" />
    <glyph glyph-name="eight.ss06.inferior" horiz-adv-x="724" 
d="M104 637q20 100 113.5 166.5t214.5 66.5t187.5 -66.5t46.5 -166.5q-8 -43 -26 -76t-38.5 -50.5t-40.5 -30t-34 -23.5t-17 -23q-2 -12 9 -24.5t27.5 -24.5t32 -33t21.5 -50.5t-2 -76.5q-20 -103 -114.5 -169t-223.5 -66q-128 0 -198 66t-50 169q11 52 38.5 90.5t55 55
t51 33t25.5 30.5q3 14 -12 29t-34 30.5t-30.5 53t-1.5 90.5zM205 629q-7 -33 0.5 -58.5t22.5 -41t30.5 -29.5t25 -30t5.5 -36q-5 -24 -30 -46t-53 -38t-54.5 -47.5t-34.5 -71.5q-12 -63 34.5 -104t129.5 -41q82 0 144.5 41t74.5 104q6 33 -3 59.5t-26 43t-34.5 31.5
t-28.5 32t-7 37q5 24 28.5 44.5t50 35t53 45t34.5 70.5q12 64 -31.5 104.5t-123.5 40.5t-137.5 -40.5t-69.5 -104.5z" />
    <glyph glyph-name="zero.tf" horiz-adv-x="1290" 
d="M526 -16q-254 0 -341 168.5t-23 502.5l24 123q32 169 79 290.5t116.5 209t166 130t224.5 42.5h68q255 0 341.5 -168.5t22.5 -503.5l-24 -123q-33 -170 -79 -290.5t-115.5 -208t-166.5 -130t-225 -42.5h-68zM535 111h65q182 0 286 132.5t158 411.5l25 123q57 272 3 408.5
t-236 136.5h-66q-182 0 -287 -133.5t-159 -411.5l-25 -123q-56 -271 -1 -407.5t237 -136.5z" />
    <glyph glyph-name="one.tf" horiz-adv-x="1290" 
d="M649 127h314l-25 -127h-801l25 127h350l203 1040q-41 -47 -123 -47h-146l25 127h121q67 0 107 40t67 147h137z" />
    <glyph glyph-name="two.tf" horiz-adv-x="1290" 
d="M274 981q25 216 169 342.5t362 126.5q199 0 312 -117t77 -305q-28 -138 -135 -253t-285 -197l-219 -101q-57 -27 -109.5 -61t-102 -78t-84.5 -99t-46 -112h815l-24 -127h-947l19 94q18 95 67 178.5t116.5 145t132.5 104.5t136 76l236 111q133 62 199.5 140t87.5 183
q26 128 -55 209.5t-216 81.5q-148 0 -246.5 -92t-115.5 -250h-144z" />
    <glyph glyph-name="three.tf" horiz-adv-x="1290" 
d="M571 -16q-142 0 -250 58.5t-159 165.5t-25 241h137q-29 -151 61 -244.5t263 -93.5q149 0 256.5 74t132.5 194q26 138 -55 219.5t-244 81.5h-108l24 127h109q137 0 230.5 75t117.5 195q23 114 -55.5 180t-221.5 66q-133 0 -219 -75.5t-114 -213.5h-142q31 188 169.5 302
t330.5 114q199 0 313 -105.5t82 -267.5q-21 -109 -100 -197t-180 -128q112 -36 172 -139.5t34 -233.5q-26 -132 -110 -223t-198 -131.5t-251 -40.5z" />
    <glyph glyph-name="four.tf" horiz-adv-x="1290" 
d="M752 0l73 379h-755v127l927 928h170l-180 -928h242v-127h-266l-74 -379h-137zM219 506h631l154 788z" />
    <glyph glyph-name="five.tf" horiz-adv-x="1290" 
d="M555 -16q-209 0 -323.5 115.5t-94.5 297.5h135q-10 -137 70.5 -211.5t237.5 -74.5q160 0 276 95.5t148 260.5q34 167 -50 268t-256 101q-127 0 -225.5 -49t-148.5 -136h-107l260 783h754l-25 -127h-649l-160 -476q67 54 162 90.5t174 36.5q229 0 343 -135.5t71 -355.5
q-41 -218 -206 -350.5t-386 -132.5z" />
    <glyph glyph-name="six.tf" horiz-adv-x="1290" 
d="M735 958q221 0 337 -137.5t75 -349.5q-42 -215 -202 -351t-380 -136q-239 0 -356 176.5t-59 470.5q40 203 113.5 361.5t168 258t203 150.5t225.5 51q189 0 301 -102t109 -271h-144q-3 116 -78.5 181t-211.5 65q-120 0 -230.5 -81.5t-190.5 -219.5t-120 -309
q67 108 189.5 175.5t250.5 67.5zM594 109q141 0 259.5 105.5t147.5 258.5q31 154 -59.5 258.5t-253.5 104.5q-140 0 -257.5 -101.5t-145.5 -240.5q-32 -168 56.5 -276.5t252.5 -108.5z" />
    <glyph glyph-name="seven.tf" horiz-adv-x="1290" 
d="M356 0q18 88 39 158.5t61.5 164.5t109 201t165.5 228l449 555h-867l25 127h1024l-23 -115l-530 -674q-107 -137 -175 -261.5t-93.5 -203t-46.5 -180.5h-138z" />
    <glyph glyph-name="eight.tf" horiz-adv-x="1290" 
d="M563 -16q-198 0 -322 103t-124 261q0 147 106 273t242 151q-164 77 -164 258q0 177 151.5 298.5t366.5 121.5q173 0 276 -84t103 -229q0 -127 -78 -221t-205 -144q87 -34 147 -117t60 -202q0 -99 -45.5 -187t-121.5 -149.5t-178.5 -97t-213.5 -35.5zM711 825
q150 0 247 88t97 201q0 96 -72.5 152.5t-191.5 56.5q-150 0 -248.5 -84.5t-98.5 -200.5q0 -99 74.5 -156t192.5 -57zM573 111q174 0 291 100.5t117 239.5q0 118 -88.5 182.5t-224.5 64.5q-176 0 -293 -101.5t-117 -240.5q0 -118 90 -181.5t225 -63.5z" />
    <glyph glyph-name="nine.tf" horiz-adv-x="1290" 
d="M555 492q-221 0 -337 137.5t-75 349.5q42 215 202 351t380 136q157 0 264.5 -78t148.5 -226t3 -343q-40 -203 -113.5 -361.5t-168 -258t-203.5 -150.5t-226 -51q-189 0 -301 102t-109 271h144q3 -116 79 -181t212 -65q180 0 329 173.5t211 436.5q-67 -108 -189.5 -175.5
t-250.5 -67.5zM696 1341q-141 0 -259.5 -105.5t-147.5 -258.5q-31 -154 59.5 -258.5t253.5 -104.5q140 0 258 101.5t146 240.5q32 167 -57 276t-253 109z" />
    <glyph glyph-name="eight.tf.ss06" horiz-adv-x="1290" 
d="M297 1065q32 166 178 275.5t332 109.5q212 0 321 -108t76 -277q-13 -66 -44 -118.5t-67.5 -83.5t-71.5 -54.5t-60 -44.5t-29 -41t14.5 -42t47 -47.5t55.5 -58t40.5 -85.5t0.5 -119q-33 -170 -178.5 -278.5t-350.5 -108.5q-209 0 -330.5 110t-89.5 277q14 71 48 126.5
t73.5 87t77.5 54.5t66 43.5t32 40.5t-13.5 43.5t-42.5 46.5t-49.5 59t-36 80.5t0.5 112.5zM426 1063q-11 -57 2.5 -101.5t40.5 -72t54.5 -51t44.5 -52t10 -63.5q-7 -34 -37.5 -64t-70.5 -55t-80.5 -54t-74.5 -74.5t-45 -102.5q-22 -114 62 -188t235 -74t262.5 74t133.5 188
q10 48 -0.5 88.5t-32.5 66t-48.5 50.5t-50 44.5t-36.5 45.5t-7 55q7 35 35.5 63.5t65.5 52t75 51t70 72t43 101.5q23 117 -54 188.5t-220 71.5q-146 0 -250 -71t-127 -189z" />
    <glyph glyph-name="zero.dnom" horiz-adv-x="751" 
d="M252 -10q-153 0 -203.5 101.5t-11.5 303.5l12 70q39 201 130 303t245 102h43q154 0 204 -101.5t11 -303.5l-12 -70q-39 -202 -129.5 -303.5t-245.5 -101.5h-43zM274 88h37q99 0 158.5 72.5t87.5 220.5l21 98q28 148 -4 220.5t-130 72.5h-36q-99 0 -158.5 -72.5
t-87.5 -220.5l-21 -98q-28 -148 3.5 -220.5t129.5 -72.5z" />
    <glyph glyph-name="one.dnom" horiz-adv-x="415" 
d="M403 860l-167 -860h-109l131 678q-28 -31 -86 -31h-80l21 98h69q43 0 70 25t45 90h106z" />
    <glyph glyph-name="two.dnom" horiz-adv-x="688" 
d="M88 580q22 133 115.5 211.5t226.5 78.5q124 0 188 -71t41 -187q-35 -174 -253 -272l-136 -61q-66 -31 -117.5 -78t-62.5 -103h473l-18 -98h-580l15 78q14 72 62.5 134t97.5 96t106 61l143 67q139 65 160 178q13 71 -26 115.5t-113 44.5q-82 0 -138.5 -53t-70.5 -141h-113
z" />
    <glyph glyph-name="three.dnom" horiz-adv-x="735" 
d="M276 -10q-132 0 -204.5 78t-48.5 202h106q-17 -82 30.5 -132t135.5 -50q90 0 150 42t73 116q15 73 -28.5 112t-133.5 39h-69l18 97h68q74 0 126 41t64 106q12 62 -27 97.5t-116 35.5q-72 0 -124 -41.5t-71 -116.5h-102q26 115 114.5 184.5t204.5 69.5q120 0 185.5 -64.5
t46.5 -162.5q-12 -61 -57 -112.5t-103 -77.5q66 -26 98.5 -80t18.5 -129q-24 -119 -125.5 -186.5t-229.5 -67.5z" />
    <glyph glyph-name="four.dnom" horiz-adv-x="815" 
d="M399 0l41 213h-440v96l551 551h127l-109 -551h131v-96h-149l-41 -213h-111zM115 309h344l84 430z" />
    <glyph glyph-name="five.dnom" horiz-adv-x="733" 
d="M258 -10q-116 0 -183.5 72.5t-58.5 181.5h103q-4 -75 37.5 -116.5t119.5 -41.5q94 0 160.5 52.5t85.5 142.5q17 92 -28.5 147t-139.5 55q-69 0 -123.5 -26.5t-83.5 -73.5h-86l160 477h461l-20 -98h-379l-86 -254q38 28 88.5 46.5t95.5 18.5q136 0 205.5 -80.5
t44.5 -211.5q-26 -130 -129.5 -210.5t-243.5 -80.5z" />
    <glyph glyph-name="six.dnom" horiz-adv-x="772" 
d="M408 575q133 0 201.5 -82.5t43.5 -209.5t-128.5 -210t-237.5 -83q-147 0 -212 108t-30 287q44 234 162.5 359.5t267.5 125.5q119 0 187 -63.5t65 -165.5h-106q-2 62 -45 98.5t-117 36.5q-102 0 -185 -94.5t-118 -239.5q38 58 109.5 95.5t142.5 37.5zM305 84
q89 0 157 56.5t85 144.5q17 86 -29 141t-135 55t-156 -55t-84 -141q-17 -88 28 -144.5t134 -56.5z" />
    <glyph glyph-name="seven.dnom" horiz-adv-x="692" 
d="M119 0q22 113 68 214.5t151 229.5l258 318h-498l21 98h620l-18 -90l-309 -387q-88 -110 -126.5 -196.5t-58.5 -186.5h-108z" />
    <glyph glyph-name="eight.dnom" horiz-adv-x="751" 
d="M274 -10q-131 0 -205.5 68t-52.5 186q14 77 70.5 136t130.5 83q-49 26 -74 73t-14 107q20 100 108 163.5t209 63.5t184.5 -63.5t43.5 -163.5q-11 -60 -55 -107t-105 -73q65 -24 97.5 -82.5t17.5 -136.5q-22 -117 -123.5 -185.5t-231.5 -68.5zM375 504q75 0 127.5 37
t64.5 100t-26 99t-113 36q-77 0 -128.5 -36t-63.5 -99t25.5 -100t113.5 -37zM293 86q90 0 152 43t75 117q15 75 -29.5 118.5t-134.5 43.5t-153 -44t-78 -118q-13 -74 32.5 -117t135.5 -43z" />
    <glyph glyph-name="nine.dnom" horiz-adv-x="772" 
d="M332 285q-133 0 -202 83t-44 210t129 209.5t238 82.5q147 0 211.5 -107.5t29.5 -287.5q-44 -234 -162.5 -359.5t-267.5 -125.5q-119 0 -187 63.5t-65 165.5h107q2 -62 45 -98.5t117 -36.5q102 0 185 94.5t118 239.5q-38 -58 -109.5 -95.5t-142.5 -37.5zM434 776
q-89 0 -156.5 -56.5t-84.5 -144.5q-17 -86 28.5 -141t134.5 -55t156 55t84 141q17 88 -28 144.5t-134 56.5z" />
    <glyph glyph-name="zero.numr" horiz-adv-x="753" 
d="M365 563q-153 0 -203.5 102t-11.5 304l12 69q39 201 130.5 303.5t244.5 102.5h43q154 0 204 -102t11 -304l-13 -69q-39 -202 -129.5 -304t-244.5 -102h-43zM387 662h37q99 0 158.5 72t87.5 220l20 99q28 148 -3.5 220.5t-129.5 72.5h-37q-99 0 -158.5 -72.5t-87.5 -220.5
l-20 -99q-28 -148 3.5 -220t129.5 -72z" />
    <glyph glyph-name="one.numr" horiz-adv-x="428" 
d="M516 1434l-168 -861h-108l131 678q-27 -30 -86 -30h-80l20 98h70q43 0 70 25t45 90h106z" />
    <glyph glyph-name="two.numr" horiz-adv-x="690" 
d="M201 1153q22 133 115.5 212t226.5 79q124 0 188 -71t41 -187q-36 -175 -254 -273l-135 -61q-66 -31 -117.5 -77.5t-62.5 -102.5h473l-19 -99h-579l14 78q14 72 62.5 134t97.5 96t106 61l144 68q139 65 160 178q13 71 -26.5 115.5t-113.5 44.5q-81 0 -138 -53.5
t-71 -141.5h-112z" />
    <glyph glyph-name="three.numr" horiz-adv-x="733" 
d="M387 563q-132 0 -205 78.5t-49 202.5h107q-17 -82 30.5 -132t135.5 -50q90 0 150 41.5t73 115.5q15 73 -28.5 112.5t-133.5 39.5h-70l19 96h67q74 0 126.5 41t64.5 106q12 62 -27.5 98t-116.5 36q-72 0 -123.5 -41.5t-70.5 -116.5h-103q26 115 115 184.5t205 69.5
q120 0 185 -64.5t46 -162.5q-12 -61 -56.5 -113t-102.5 -78q66 -26 98 -80t18 -129q-24 -119 -125 -186.5t-229 -67.5z" />
    <glyph glyph-name="four.numr" horiz-adv-x="815" 
d="M512 573l41 213h-440v97l551 551h127l-109 -551h131v-97h-149l-41 -213h-111zM227 883h344l84 430z" />
    <glyph glyph-name="five.numr" horiz-adv-x="735" 
d="M371 563q-116 0 -183.5 72.5t-58.5 181.5h102q-4 -75 38 -116.5t120 -41.5q94 0 160.5 52.5t85.5 142.5q17 92 -28.5 147.5t-139.5 55.5q-69 0 -123.5 -27t-83.5 -74h-86l160 478h461l-21 -99h-379l-86 -254q38 29 89 47.5t96 18.5q136 0 205 -81t44 -212
q-26 -130 -129 -210.5t-243 -80.5z" />
    <glyph glyph-name="six.numr" horiz-adv-x="772" 
d="M518 1149q133 0 202 -83t44 -210t-129 -210t-238 -83q-147 0 -211.5 107.5t-29.5 287.5q44 234 162.5 360t267.5 126q119 0 187 -63.5t65 -166.5h-107q-2 62 -45 99t-117 37q-102 0 -185 -94.5t-118 -239.5q38 58 109.5 95.5t142.5 37.5zM416 657q89 0 156.5 56.5
t84.5 144.5q17 86 -28.5 141.5t-134.5 55.5t-156 -55t-84 -142q-17 -88 28 -144.5t134 -56.5z" />
    <glyph glyph-name="seven.numr" horiz-adv-x="694" 
d="M231 573q22 113 68.5 214.5t151.5 230.5l258 317h-498l20 99h621l-18 -91l-310 -387q-87 -110 -125.5 -196t-58.5 -187h-109z" />
    <glyph glyph-name="eight.numr" horiz-adv-x="751" 
d="M387 563q-131 0 -205.5 68t-52.5 186q14 77 70.5 136t130.5 83q-49 26 -74 73.5t-14 107.5q20 100 108 163.5t209 63.5t184 -63.5t43 -163.5q-11 -60 -55 -107.5t-104 -73.5q65 -24 97 -82.5t17 -136.5q-22 -117 -123 -185.5t-231 -68.5zM487 1077q75 0 128 37t65 100
t-26 99.5t-113 36.5q-77 0 -129 -36.5t-64 -99.5t25.5 -100t113.5 -37zM406 659q90 0 152 43t75 117q15 75 -29.5 118.5t-134.5 43.5t-153 -44t-78 -118q-13 -74 32.5 -117t135.5 -43z" />
    <glyph glyph-name="nine.numr" horiz-adv-x="770" 
d="M442 858q-133 0 -201.5 83t-43.5 210t128.5 210t237.5 83q147 0 212 -108t30 -287q-44 -234 -162.5 -360t-267.5 -126q-119 0 -187 63.5t-65 166.5h106q2 -62 45 -99t117 -37q102 0 185 94.5t118 239.5q-38 -58 -109.5 -95.5t-142.5 -37.5zM545 1350q-89 0 -157 -56.5
t-85 -144.5q-17 -86 29 -141.5t135 -55.5t156 55t84 142q17 88 -28 144.5t-134 56.5z" />
    <glyph glyph-name="colon.cap" horiz-adv-x="493" 
d="M301 1167h145l-32 -163h-146zM154 410h145l-33 -164h-145z" />
    <glyph glyph-name="bullet.case" horiz-adv-x="503" 
d="M252 588q-69 0 -116.5 48t-47.5 116t47.5 115.5t116.5 47.5q68 0 116 -48t48 -115q0 -68 -48 -116t-116 -48z" />
    <glyph glyph-name="emdash.alt" horiz-adv-x="2359" 
d="M170 592l23 115h2048l-23 -115h-2048z" />
    <glyph glyph-name="quotedblbase.ss05" horiz-adv-x="755" 
d="M266 164l-37 -184q-22 -108 -90.5 -169t-169.5 -61h-26l20 98h27q51 0 85 35t46 97l4 20h-113l33 164h221zM588 164l-37 -184q-22 -108 -90.5 -169t-169.5 -61h-27l21 98h26q51 0 85 35t46 97l4 20h-112l33 164h221z" />
    <glyph glyph-name="quotedblleft.ss05" horiz-adv-x="753" 
d="M489 1450h27l-20 -98h-27q-51 0 -85 -34.5t-46 -96.5l-4 -21h112l-32 -164h-221l36 185q20 107 89.5 168t170.5 61zM811 1450h27l-21 -98h-26q-51 0 -85.5 -34.5t-46.5 -96.5l-4 -21h113l-33 -164h-221l37 185q20 107 89.5 168t170.5 61z" />
    <glyph glyph-name="quotedblright.ss05" horiz-adv-x="753" 
d="M516 1450l-37 -184q-20 -107 -89.5 -168.5t-170.5 -61.5h-26l20 99h27q51 0 85 34.5t46 96.5l4 20h-113l33 164h221zM838 1450l-37 -184q-20 -107 -89.5 -168.5t-170.5 -61.5h-27l21 99h26q51 0 85 34.5t46 96.5l4 20h-112l32 164h222z" />
    <glyph glyph-name="quoteleft.ss05" horiz-adv-x="450" 
d="M524 1450h27l-21 -98h-26q-51 0 -85 -34.5t-46 -96.5l-4 -21h112l-32 -164h-222l37 185q20 107 89.5 168t170.5 61z" />
    <glyph glyph-name="quoteright.ss05" horiz-adv-x="518" 
d="M555 1450l-37 -184q-20 -107 -89.5 -168.5t-170.5 -61.5h-27l21 99h27q51 0 85 34.5t46 96.5l4 20h-113l33 164h221z" />
    <glyph glyph-name="quotesinglbase.ss05" horiz-adv-x="452" 
d="M293 164l-37 -184q-22 -108 -90.5 -169t-169.5 -61h-27l21 98h26q51 0 85 35t46 97l5 20h-113l33 164h221z" />
    <glyph glyph-name="circle.rights" horiz-adv-x="1908" 
d="M954 -82q-164 0 -312 62.5t-254.5 169t-169 255t-62.5 312.5t62.5 312.5t169 255t254.5 169t312 62.5t312.5 -62.5t255 -169t169 -255t62.5 -312.5t-62.5 -312.5t-169 -255t-255 -169t-312.5 -62.5zM954 8q192 0 353 94t254 257t94 358q-1 146 -56 277.5t-148.5 226
t-223 149.5t-273.5 55t-274 -55t-223.5 -149.5t-148.5 -226t-56 -277.5q1 -146 56 -277.5t148.5 -226t223.5 -150t274 -55.5z" />
    <glyph glyph-name="caroncomb.alt" horiz-adv-x="0" 
d="M-172 1147l135 344h129l-192 -344h-72z" />
    </font>
</defs>
</svg>
