<?xml version="1.0" standalone="no"?>
<!DOCTYPE svg PUBLIC "-//W3C//DTD SVG 1.1//EN" "http://www.w3.org/Graphics/SVG/1.1/DTD/svg11.dtd" >
<svg xmlns="http://www.w3.org/2000/svg" xmlns:xlink="http://www.w3.org/1999/xlink" version="1.1">
<metadata>
Created by FontForge 20170731 at Sun Jul 24 19:05:42 2022
 By Aleksey,,,
Copyright (c) 2017 by Martin Va'cha. All rights reserved.
</metadata>
<defs>
<font id="Roobert-Medium" horiz-adv-x="1169" >
  <font-face 
    font-family="Roobert Medium"
    font-weight="500"
    font-stretch="normal"
    units-per-em="2048"
    panose-1="0 0 6 0 0 0 0 0 0 0"
    ascent="1630"
    descent="-418"
    x-height="1032"
    cap-height="1434"
    bbox="-737 -504 2714 2273"
    underline-thickness="102"
    underline-position="-307"
    unicode-range="U+000D-266B"
  />
<missing-glyph horiz-adv-x="2209" 
d="M1069 -418v2048q-201 -7 -384 -92t-315.5 -222.5t-211 -324t-78.5 -387.5q0 -270 132 -502t359.5 -371.5t497.5 -148.5zM1139 1624v-2036q85 24 156.5 166.5t113 368t41.5 481.5q0 389 -91.5 685t-219.5 335zM1516 604q0 -326 -63 -590.5t-169 -394.5q150 56 268.5 199.5
t185 349t66.5 436.5q0 229 -66.5 435t-185 351t-268.5 203q106 -131 169 -396.5t63 -592.5zM1485 -344q287 115 465 375t178 573t-179.5 574.5t-469.5 377.5q182 -145 287.5 -400t105.5 -552q0 -296 -104.5 -550.5t-282.5 -397.5z" />
    <glyph glyph-name="f_f.liga" unicode="ff" horiz-adv-x="1427" 
d="M1227 1292q-71 0 -114.5 -45t-43.5 -121v-94h313v-172h-313v-860h-199v860h-426v-860h-198v860h-211v172h211v101q0 152 92 241.5t248 89.5h170v-172h-156q-71 0 -113.5 -45t-42.5 -121v-94h426v101q0 152 92 241.5t248 89.5h172v-172h-155z" />
    <glyph glyph-name="f_f_i.liga" unicode="ffi" horiz-adv-x="1789" 
d="M1675 1032v-1032h-198v860h-408v-860h-199v860h-426v-860h-198v860h-211v172h211v101q0 152 92 241.5t248 89.5h170v-172h-156q-71 0 -113.5 -45t-42.5 -121v-94h426v101q0 152 92 241.5t248 89.5h172v-172h-155q-71 0 -114.5 -45t-43.5 -121v-94h606z" />
    <glyph glyph-name="f_f_l.liga" unicode="ffl" horiz-adv-x="1859" 
d="M1524 1464h198v-1464h-198v860h-455v-860h-199v860h-426v-860h-198v860h-211v172h211v101q0 152 92 241.5t248 89.5h170v-172h-156q-71 0 -113.5 -45t-42.5 -121v-94h426v101q0 152 92 241.5t248 89.5h172v-172h-155q-71 0 -114.5 -45t-43.5 -121v-94h455v432z" />
    <glyph glyph-name="f_i.liga" unicode="fi" horiz-adv-x="1163" 
d="M1049 1032v-1032h-199v860h-406v-860h-198v860h-211v172h211v101q0 152 92 241.5t248 89.5h170v-172h-156q-71 0 -113.5 -45t-42.5 -121v-94h605z" />
    <glyph glyph-name="f_l.liga" unicode="fl" horiz-adv-x="1232" 
d="M899 1464h199v-1464h-199v860h-455v-860h-198v860h-211v172h211v101q0 152 92 241.5t248 89.5h170v-172h-156q-71 0 -113.5 -45t-42.5 -121v-94h455v432z" />
    <glyph glyph-name="r_f.liga" unicode="rf" horiz-adv-x="1351" 
d="M797 0v1133q0 152 92 241.5t248 89.5h170v-172h-156q-71 0 -113.5 -45t-42.5 -121v-94h312v-172h-312v-860h-198zM705 860h-130q-249 0 -249 -393v-467h-199v1032h199v-198q35 103 100.5 150.5t173.5 47.5h105v-172z" />
    <glyph glyph-name="r_t.liga" unicode="rt" horiz-adv-x="1343" 
d="M797 1356h198v-324h305v-172h-305v-516q0 -83 42 -127.5t118 -44.5h145v-172h-161q-158 0 -250 90.5t-92 247.5v1018zM705 860h-130q-249 0 -249 -393v-467h-199v1032h199v-198q35 103 100.5 150.5t173.5 47.5h105v-172z" />
    <glyph glyph-name="t_t.liga" unicode="tt" horiz-adv-x="1445" 
d="M1401 860h-305v-516q0 -82 42.5 -127t116.5 -45h146v-172h-162q-158 0 -250 90.5t-92 247.5v522h-453v-516q0 -83 42 -127.5t118 -44.5h146v-172h-162q-158 0 -250 90.5t-92 247.5v522h-211v172h211v324h198v-324h453v324h199v-324h305v-172z" />
    <glyph glyph-name=".notdef" horiz-adv-x="2209" 
d="M1069 -418v2048q-201 -7 -384 -92t-315.5 -222.5t-211 -324t-78.5 -387.5q0 -270 132 -502t359.5 -371.5t497.5 -148.5zM1139 1624v-2036q85 24 156.5 166.5t113 368t41.5 481.5q0 389 -91.5 685t-219.5 335zM1516 604q0 -326 -63 -590.5t-169 -394.5q150 56 268.5 199.5
t185 349t66.5 436.5q0 229 -66.5 435t-185 351t-268.5 203q106 -131 169 -396.5t63 -592.5zM1485 -344q287 115 465 375t178 573t-179.5 574.5t-469.5 377.5q182 -145 287.5 -400t105.5 -552q0 -296 -104.5 -550.5t-282.5 -397.5z" />
    <glyph glyph-name=".null" horiz-adv-x="0" 
 />
    <glyph glyph-name="nonmarkingreturn" horiz-adv-x="682" 
 />
    <glyph glyph-name="CR" unicode="&#xd;" horiz-adv-x="514" 
 />
    <glyph glyph-name="space" unicode=" " horiz-adv-x="471" 
 />
    <glyph glyph-name="exclam" unicode="!" horiz-adv-x="536" 
d="M195 346l-54 1088h254l-51 -1088h-149zM160 221h219v-221h-219v221z" />
    <glyph glyph-name="quotedbl" unicode="&#x22;" horiz-adv-x="864" 
d="M186 963l-55 487h244l-56 -487h-133zM543 963l-56 487h246l-55 -487h-135z" />
    <glyph glyph-name="numbersign" unicode="#" horiz-adv-x="1495" 
d="M272 0l93 418h-256v153h288l66 291h-264v154h297l92 418h162l-91 -418h308l94 418h162l-93 -418h254v-154h-286l-66 -291h264v-153h-297l-92 -418h-162l93 418h-312l-92 -418h-162zM559 571h311l66 291h-311z" />
    <glyph glyph-name="dollar" unicode="$" horiz-adv-x="1216" 
d="M1141 399q0 -174 -121.5 -282t-323.5 -129v-181l-178 3v180q-201 26 -321 155.5t-131 329.5h206q12 -140 101 -221.5t239 -81.5q142 0 227 56.5t85 168.5q0 55 -28 96t-75 66.5t-108 45.5t-128.5 38t-134.5 38t-128 51.5t-108 73t-75 107.5t-28 150q0 154 111.5 258.5
t295.5 124.5v172h178v-174q180 -25 292 -139t124 -287h-207q-11 111 -92.5 177.5t-212.5 66.5q-128 0 -202 -54t-74 -145q0 -55 28 -96t75 -65.5t108.5 -43.5t129 -35.5t135.5 -35.5t129.5 -50t108.5 -73t75 -109.5t28 -155.5z" />
    <glyph glyph-name="percent" unicode="%" horiz-adv-x="1531" 
d="M412 795q-134 0 -223 94.5t-89 232.5t89 233t223 95q135 0 222 -95t87 -233t-87 -232.5t-222 -94.5zM154 0l1040 1434h180l-1040 -1434h-180zM412 932q74 0 117.5 53.5t43.5 136.5t-43.5 137t-117.5 54q-73 0 -117.5 -54t-44.5 -137t44.5 -136.5t117.5 -53.5zM1120 -16
q-135 0 -223 94.5t-88 232.5t88 233t223 95q134 0 222 -95t88 -233t-88 -232.5t-222 -94.5zM1120 121q73 0 117.5 53.5t44.5 136.5t-44.5 137t-117.5 54t-117.5 -54t-44.5 -137t44.5 -136.5t117.5 -53.5z" />
    <glyph glyph-name="ampersand" unicode="&#x26;" horiz-adv-x="1380" 
d="M1329 0h-223l-143 156q-161 -172 -406 -172q-209 0 -333 109.5t-124 299.5q0 74 22.5 135.5t66 108t90 79t110.5 66.5q-162 184 -162 320q0 155 103 251.5t268 96.5q163 0 266 -93.5t103 -242.5q0 -76 -23.5 -138t-69 -109t-92 -79.5t-112.5 -66.5l274 -301l74 100
q63 101 132.5 134.5t160.5 33.5v-188q-62 0 -113.5 -33.5t-83.5 -85.5l-53 -88zM412 1104q0 -88 133 -244q56 27 94 50t73.5 54t53.5 69t18 83q0 78 -51.5 127t-134.5 49t-134.5 -52.5t-51.5 -135.5zM557 160q170 0 287 125l-330 360q-52 -26 -87.5 -49.5t-68 -54.5
t-49 -68.5t-16.5 -81.5q0 -109 70 -170t194 -61z" />
    <glyph glyph-name="quotesingle" unicode="'" horiz-adv-x="505" 
d="M186 963l-55 487h244l-56 -487h-133z" />
    <glyph glyph-name="parenleft" unicode="(" horiz-adv-x="575" 
d="M403 -213q-154 188 -235.5 419t-81.5 480t81.5 480t235.5 419l136 -102q-265 -376 -265 -797t265 -797z" />
    <glyph glyph-name="parenright" unicode=")" horiz-adv-x="575" 
d="M172 -213l-135 102q264 375 264 797t-264 797l135 102q154 -188 235.5 -419t81.5 -480t-81.5 -480t-235.5 -419z" />
    <glyph glyph-name="asterisk" unicode="*" horiz-adv-x="948" 
d="M303 727l-117 86l172 227l-276 93l47 137l272 -90v284h146v-284l272 90l45 -137l-274 -93l170 -227l-115 -86l-172 231z" />
    <glyph glyph-name="plus" unicode="+" horiz-adv-x="1271" 
d="M1126 735v-172h-405v-403h-172v403h-404v172h404v406h172v-406h405z" />
    <glyph glyph-name="comma" unicode="," horiz-adv-x="585" 
d="M80 -94h74q43 0 66.5 34.5t23.5 98.5v194h198v-206q0 -136 -70.5 -210.5t-197.5 -74.5h-94v164z" />
    <glyph glyph-name="hyphen" unicode="-" horiz-adv-x="970" 
d="M104 563v172h764v-172h-764z" />
    <glyph glyph-name="period" unicode="." horiz-adv-x="530" 
d="M156 221h219v-221h-219v221z" />
    <glyph glyph-name="slash" unicode="/" horiz-adv-x="886" 
d="M33 -2l643 1436h178l-645 -1436h-176z" />
    <glyph glyph-name="zero" unicode="0" horiz-adv-x="1265" 
d="M596 -16q-259 0 -380.5 171t-121.5 507v110q0 336 121.5 507t380.5 171h74q260 0 380.5 -171.5t120.5 -506.5v-110q0 -335 -120.5 -506.5t-380.5 -171.5h-74zM604 172h60q294 0 294 449v192q0 449 -294 449h-60q-295 0 -295 -449v-192q0 -449 295 -449z" />
    <glyph glyph-name="one" unicode="1" horiz-adv-x="733" 
d="M588 1434v-1434h-213v1102q-16 -24 -58.5 -37.5t-87.5 -13.5h-127v188h111q79 0 119.5 42t50.5 153h205z" />
    <glyph glyph-name="two" unicode="2" horiz-adv-x="1155" 
d="M119 956q-7 226 125 360t360 134q212 0 345.5 -119.5t133.5 -314.5q0 -286 -335 -457l-211 -106q-91 -45 -156.5 -114t-65.5 -151h772v-188h-981v154q-1 71 21 137t56 115.5t81 93.5t91 73.5t91 53.5l224 112q102 53 149 121.5t47 157.5q0 113 -73 181.5t-189 68.5
q-128 0 -201 -86t-67 -226h-217z" />
    <glyph glyph-name="three" unicode="3" horiz-adv-x="1234" 
d="M633 -16q-146 0 -263.5 56.5t-187 164t-69.5 246.5h209q0 -127 88 -203t223 -76q139 0 220 64.5t81 177.5q0 114 -80.5 174.5t-220.5 60.5h-121v182h119q114 0 181 62.5t67 161.5q0 96 -70 151.5t-188 55.5q-116 0 -185.5 -63t-75.5 -181h-204q6 196 138.5 314t328.5 118
q202 0 335.5 -109t133.5 -272q0 -103 -55.5 -188.5t-141.5 -126.5q114 -38 184 -128.5t70 -213.5q0 -133 -72.5 -232t-188 -147.5t-255.5 -48.5z" />
    <glyph glyph-name="four" unicode="4" horiz-adv-x="1314" 
d="M821 0v336h-753v188l727 910h239v-910h209v-188h-209v-336h-213zM287 524h534v666z" />
    <glyph glyph-name="five" unicode="5" horiz-adv-x="1230" 
d="M606 -16q-201 0 -339.5 121t-153.5 307h204q13 -114 89.5 -177t197.5 -63q145 0 231.5 81t86.5 220t-86.5 224t-229.5 85q-105 0 -180 -39.5t-107 -111.5h-178l113 803h782v-189h-622l-58 -387q50 45 126.5 75t156.5 30q219 0 359.5 -138t140.5 -352q0 -217 -149.5 -353
t-383.5 -136z" />
    <glyph glyph-name="six" unicode="6" horiz-adv-x="1298" 
d="M672 958q221 0 361.5 -138t140.5 -349q0 -210 -148 -348.5t-373 -138.5q-167 0 -290 85t-186.5 235t-63.5 347q0 382 156.5 591.5t410.5 209.5q204 0 341.5 -110t164.5 -283h-205q-22 96 -101 152.5t-196 56.5q-158 0 -260 -145.5t-113 -368.5q46 90 147 147t214 57z
M657 172q132 0 215.5 84.5t83.5 216.5q0 131 -83.5 214t-215.5 83q-133 0 -218 -83t-85 -214q0 -132 85 -216.5t218 -84.5z" />
    <glyph glyph-name="seven" unicode="7" horiz-adv-x="1157" 
d="M350 0q2 195 46 361t171 370l320 514h-803v189h1040v-170l-385 -629q-104 -172 -139 -315t-37 -320h-213z" />
    <glyph glyph-name="eight" unicode="8" horiz-adv-x="1253" 
d="M627 -16q-144 0 -260.5 50t-187 148.5t-70.5 229.5q0 125 72 222t184 138q-88 45 -142.5 123t-54.5 176q0 166 128 272.5t331 106.5t331.5 -106.5t128.5 -272.5q0 -99 -54.5 -176.5t-143.5 -122.5q115 -41 186.5 -137.5t71.5 -222.5q0 -131 -70.5 -229.5t-187.5 -148.5
t-262 -50zM627 856q117 0 186.5 56.5t69.5 152.5q0 95 -69.5 150t-186.5 55t-185.5 -55t-68.5 -150q0 -97 68.5 -153t185.5 -56zM627 172q141 0 223 64.5t82 179.5t-82.5 181.5t-222.5 66.5q-139 0 -222 -66.5t-83 -181.5q0 -114 82.5 -179t222.5 -65z" />
    <glyph glyph-name="nine" unicode="9" horiz-adv-x="1298" 
d="M627 475q-221 0 -362.5 138.5t-141.5 349.5q0 210 148.5 348.5t371.5 138.5q251 0 397 -184.5t146 -483.5q0 -192 -42.5 -345t-118.5 -252t-179.5 -151t-227.5 -52q-204 0 -342 110t-165 283h206q22 -97 100.5 -153t196.5 -56q158 0 260 145.5t111 368.5
q-44 -90 -145.5 -147.5t-212.5 -57.5zM641 1262q-132 0 -216.5 -84.5t-84.5 -216.5q0 -130 84.5 -213.5t216.5 -83.5q133 0 218 83t85 214q0 132 -85 216.5t-218 84.5z" />
    <glyph glyph-name="colon" unicode=":" horiz-adv-x="530" 
d="M156 963h219v-224h-219v224zM156 221h219v-221h-219v221z" />
    <glyph glyph-name="semicolon" unicode=";" horiz-adv-x="585" 
d="M233 963h220v-224h-220v224zM80 -94h74q43 0 66.5 34.5t23.5 98.5v194h198v-206q0 -136 -70.5 -210.5t-197.5 -74.5h-94v164z" />
    <glyph glyph-name="less" unicode="&#x3c;" horiz-adv-x="950" 
d="M864 152l-784 391v184l784 391v-198l-590 -285l590 -285v-198z" />
    <glyph glyph-name="equal" unicode="=" horiz-adv-x="1271" 
d="M145 752v172h981v-172h-981zM145 293v172h981v-172h-981z" />
    <glyph glyph-name="greater" unicode="&#x3e;" horiz-adv-x="950" 
d="M86 152v198l590 285l-590 285v198l784 -391v-184z" />
    <glyph glyph-name="question" unicode="?" horiz-adv-x="1050" 
d="M494 346q-151 0 -237.5 68.5t-86.5 201.5q0 79 33 133.5t85.5 82.5t116.5 47t128 32.5t116.5 32t85.5 54t33 89.5q0 90 -62.5 140.5t-173.5 50.5q-113 0 -186.5 -64t-77.5 -176h-194q6 187 133 299.5t325 112.5q200 0 321.5 -99t121.5 -266q0 -83 -33.5 -142.5t-87 -92
t-118.5 -54.5t-130 -36t-118.5 -29t-87 -41.5t-33.5 -66.5q0 -113 139 -113h278v-164h-290zM428 221h219v-221h-219v221z" />
    <glyph glyph-name="at" unicode="@" horiz-adv-x="1865" 
d="M1135 1470q294 0 474.5 -162.5t180.5 -426.5v-269q0 -196 -88 -301.5t-246 -105.5q-92 0 -162.5 39t-91.5 104q-29 -68 -107 -109.5t-192 -41.5q-185 0 -290 118t-105 306q0 189 104.5 306t288.5 117q81 0 151.5 -33t108.5 -89v110h172v-543q0 -52 34.5 -84t90.5 -32
q79 0 116.5 58t37.5 181v269q0 191 -131 307.5t-346 116.5h-361q-215 0 -349 -121t-134 -312v-477q0 -207 134 -338t349 -131h471v-168h-471q-294 -1 -479.5 177t-185.5 460v477q0 264 185.5 431t479.5 167h361zM926 342q112 0 178.5 76t66.5 203q0 128 -66.5 204t-178.5 76
q-113 0 -180.5 -76.5t-67.5 -203.5q0 -126 68 -203t180 -76z" />
    <glyph glyph-name="A" unicode="A" horiz-adv-x="1349" 
d="M1116 0l-137 365h-608l-138 -365h-219l564 1434h196l563 -1434h-221zM442 551h467l-233 616z" />
    <glyph glyph-name="B" unicode="B" horiz-adv-x="1263" 
d="M145 0v1434h531q204 0 323 -97t119 -272q0 -94 -54.5 -171t-129.5 -110q113 -41 181.5 -132.5t68.5 -231.5q0 -195 -129.5 -307.5t-352.5 -112.5h-557zM356 854h310q120 0 182.5 51t62.5 150q0 98 -63 149t-184 51h-308v-401zM356 188h318q299 0 299 240t-299 240h-318
v-480z" />
    <glyph glyph-name="C" unicode="C" horiz-adv-x="1466" 
d="M780 -16q-112 0 -214.5 28.5t-191.5 88.5t-154 145t-102.5 206t-37.5 265t38 265t103.5 206t154.5 145t191 88.5t213 28.5q245 0 419.5 -133.5t203.5 -343.5h-223q-19 126 -132 207.5t-270 81.5q-215 0 -347 -143t-132 -402t132 -402t347 -143q160 0 274.5 81.5
t131.5 207.5h215q-15 -139 -99 -247.5t-220 -169t-300 -60.5z" />
    <glyph glyph-name="D" unicode="D" horiz-adv-x="1388" 
d="M145 0v1434h441q151 0 281.5 -47t229.5 -135.5t155.5 -226t56.5 -308.5t-56.5 -308.5t-155.5 -226t-229.5 -135.5t-281.5 -47h-441zM358 188h215q103 0 193.5 30t164 91.5t116.5 166t43 241.5q0 110 -28.5 200t-77 150t-115 101t-140.5 59t-156 18h-215v-1057z" />
    <glyph glyph-name="E" unicode="E" 
d="M145 0v1434h920v-189h-707v-411h572v-189h-572v-457h729v-188h-942z" />
    <glyph glyph-name="F" unicode="F" horiz-adv-x="1146" 
d="M145 0v1434h920v-189h-707v-428h572v-188h-572v-629h-213z" />
    <glyph glyph-name="G" unicode="G" horiz-adv-x="1505" 
d="M774 -16q-109 0 -210 29t-189 89t-153.5 145.5t-103.5 206t-38 263.5t38.5 263.5t104.5 206t155.5 145.5t191.5 89t212 29q253 0 428 -135.5t197 -347.5h-221q-22 131 -134 213t-270 82q-218 0 -353.5 -144.5t-135.5 -400.5q0 -257 135.5 -404t351.5 -147q110 0 205 40
t154 113.5t59 163.5q0 42 -26 68.5t-70 26.5h-311v172h364q93 0 170.5 -67t77.5 -175v-508h-193v242q-46 -116 -165 -187t-271 -71z" />
    <glyph glyph-name="H" unicode="H" horiz-adv-x="1427" 
d="M1069 1434h213v-1434h-213v643h-711v-643h-213v1434h213v-603h711v603z" />
    <glyph glyph-name="I" unicode="I" horiz-adv-x="503" 
d="M145 0v1434h213v-1434h-213z" />
    <glyph glyph-name="J" unicode="J" horiz-adv-x="673" 
d="M41 188h168q71 0 104 49.5t33 149.5v1047h213v-1053q0 -188 -83.5 -284.5t-239.5 -96.5h-195v188z" />
    <glyph glyph-name="K" unicode="K" horiz-adv-x="1337" 
d="M1057 0l-490 707l-207 -220v-487h-215v1434h215v-660l629 660h268l-544 -574l604 -860h-260z" />
    <glyph glyph-name="L" unicode="L" horiz-adv-x="1083" 
d="M145 0v1434h213v-1246h699v-188h-912z" />
    <glyph glyph-name="M" unicode="M" horiz-adv-x="1728" 
d="M145 0v1434h263l456 -1143l457 1143h262v-1434h-205v1067l-428 -1067h-172l-430 1067v-1067h-203z" />
    <glyph glyph-name="N" unicode="N" horiz-adv-x="1431" 
d="M145 0v1434h238l690 -1104v1104h213v-1434h-235l-693 1102v-1102h-213z" />
    <glyph glyph-name="O" unicode="O" horiz-adv-x="1585" 
d="M793 -16q-152 0 -284 55.5t-226.5 152.5t-148.5 233t-54 292t54 292t148.5 233t226.5 152.5t284 55.5q201 0 363.5 -94.5t254.5 -262.5t92 -376t-92 -376t-254.5 -262.5t-363.5 -94.5zM793 172q213 0 353 155t140 390t-140 390t-353 155q-141 0 -254.5 -70.5
t-177.5 -195.5t-64 -279t64 -279t177.5 -195.5t254.5 -70.5z" />
    <glyph glyph-name="P" unicode="P" horiz-adv-x="1212" 
d="M145 0v1434h555q214 0 338.5 -120t124.5 -313t-124.5 -312.5t-338.5 -119.5h-342v-569h-213zM358 754h336q130 0 193 70t63 177t-63 177.5t-193 70.5h-336v-495z" />
    <glyph glyph-name="Q" unicode="Q" horiz-adv-x="1585" 
d="M1503 717q0 -191 -78.5 -349t-217.5 -257t-316 -121v-76q0 -92 41 -129t135 -37h182v-166h-188q-185 0 -274 78t-89 248v82q-271 32 -444.5 234.5t-173.5 492.5q0 156 54 292t148.5 233t226.5 152.5t284 55.5q201 0 363.5 -94.5t254.5 -262.5t92 -376zM297 717
q0 -154 64 -279t177.5 -195.5t254.5 -70.5q213 0 353 155t140 390t-140 390t-353 155q-141 0 -254.5 -70.5t-177.5 -195.5t-64 -279z" />
    <glyph glyph-name="R" unicode="R" horiz-adv-x="1337" 
d="M961 680q79 -46 126.5 -128t53.5 -185l28 -367h-206l-29 348q-8 96 -67 156.5t-150 60.5h-359v-565h-213v1434h562q214 0 339 -118t125 -312q0 -112 -55.5 -193.5t-154.5 -130.5zM358 1249v-495h342q89 0 149 36.5t84.5 91t24.5 122.5q0 107 -63.5 176t-194.5 69h-342z
" />
    <glyph glyph-name="S" unicode="S" horiz-adv-x="1210" 
d="M612 -16q-241 0 -387.5 133.5t-158.5 357.5h206q12 -140 101 -221.5t239 -81.5q142 0 227 56.5t85 168.5q0 55 -28 96t-75 66.5t-108 45.5t-128.5 38t-134.5 38t-128 51.5t-108 73t-75 107.5t-28 150q0 172 136 279.5t353 107.5q220 0 359 -117.5t153 -314.5h-207
q-11 111 -92.5 177.5t-212.5 66.5q-128 0 -202 -54t-74 -145q0 -55 28 -96t75 -65.5t108.5 -43.5t129 -35.5t135.5 -35.5t129.5 -50t108.5 -73t75 -109.5t28 -155.5q0 -193 -147 -304t-382 -111z" />
    <glyph glyph-name="T" unicode="T" horiz-adv-x="1153" 
d="M471 0v1245h-448v189h1110v-189h-449v-1245h-213z" />
    <glyph glyph-name="U" unicode="U" horiz-adv-x="1339" 
d="M670 -16q-250 0 -399.5 137.5t-149.5 380.5v932h205v-938q0 -151 94 -236.5t250 -85.5q158 0 252 85t94 237v938h205v-932q0 -243 -150 -380.5t-401 -137.5z" />
    <glyph glyph-name="V" unicode="V" horiz-adv-x="1308" 
d="M549 0l-535 1434h215l424 -1178l426 1178h215l-534 -1434h-211z" />
    <glyph glyph-name="W" unicode="W" horiz-adv-x="2052" 
d="M479 0l-438 1434h219l332 -1117l342 1117h184l342 -1117l334 1117h217l-436 -1434h-213l-336 1104l-336 -1104h-211z" />
    <glyph glyph-name="X" unicode="X" horiz-adv-x="1251" 
d="M1190 0h-223l-340 545l-342 -545h-226l455 723l-444 711h221l334 -533l336 533h221l-445 -711z" />
    <glyph glyph-name="Y" unicode="Y" horiz-adv-x="1230" 
d="M508 0v598l-502 836h238l370 -633l373 633h238l-504 -836v-598h-213z" />
    <glyph glyph-name="Z" unicode="Z" horiz-adv-x="1218" 
d="M63 0v186l844 1061h-801v187h1043v-187l-832 -1061h832v-186h-1086z" />
    <glyph glyph-name="bracketleft" unicode="[" horiz-adv-x="628" 
d="M150 -113v1659h417v-160h-241v-1339h241v-160h-417z" />
    <glyph glyph-name="backslash" unicode="\" horiz-adv-x="886" 
d="M854 -2h-176l-645 1436h178z" />
    <glyph glyph-name="bracketright" unicode="]" horiz-adv-x="628" 
d="M479 -113h-418v160h242v1339h-242v160h418v-1659z" />
    <glyph glyph-name="asciicircum" unicode="^" horiz-adv-x="1138" 
d="M78 860l411 574h160l414 -574h-207l-287 400l-286 -400h-205z" />
    <glyph glyph-name="underscore" unicode="_" horiz-adv-x="1271" 
d="M145 -172v172h981v-172h-981z" />
    <glyph glyph-name="a" unicode="a" horiz-adv-x="1077" 
d="M532 1049q199 0 321 -105.5t122 -277.5v-666h-199v168q-37 -84 -128 -134t-208 -50q-158 0 -254 86t-96 225q0 149 109 235t293 86h215q34 0 51.5 16.5t17.5 45.5q0 96 -66 153.5t-184 57.5q-105 0 -177 -57.5t-77 -137.5h-184q12 153 137 254t307 101zM479 141
q140 0 218.5 84t78.5 228v24h-266q-102 0 -162.5 -48t-60.5 -130q0 -71 53 -114.5t139 -43.5z" />
    <glyph glyph-name="b" unicode="b" horiz-adv-x="1224" 
d="M659 -16q-102 0 -190.5 46.5t-132.5 123.5v-154h-199v1464h199v-583q45 76 133 122t193 46q231 0 362 -148.5t131 -384.5t-132 -384t-364 -148zM637 158q143 0 230 98.5t87 259.5t-87 259.5t-230 98.5q-144 0 -231 -98t-87 -260t87 -260t231 -98z" />
    <glyph glyph-name="c" unicode="c" horiz-adv-x="1120" 
d="M580 -16q-119 0 -217 43t-162 116.5t-98.5 169.5t-34.5 203q0 108 34.5 204t98.5 169.5t162 116.5t217 43q186 0 322 -103t157 -274h-199q-13 87 -92 144.5t-184 57.5q-149 0 -229.5 -100.5t-80.5 -257.5q0 -156 81 -257t229 -101q105 0 179 51t99 139h197
q-25 -164 -154.5 -264t-324.5 -100z" />
    <glyph glyph-name="d" unicode="d" horiz-adv-x="1222" 
d="M563 -16q-232 0 -363.5 148t-131.5 384t131 384.5t362 148.5q105 0 193.5 -46t134.5 -122v583h198v-1464h-198v154q-46 -77 -135 -123.5t-191 -46.5zM586 158q144 0 230.5 98t86.5 260t-86.5 260t-230.5 98q-142 0 -229 -98.5t-87 -259.5t87 -259.5t229 -98.5z" />
    <glyph glyph-name="e" unicode="e" horiz-adv-x="1130" 
d="M864 336h199q-28 -160 -157.5 -256t-319.5 -96q-155 0 -274.5 75t-181.5 196.5t-62 266.5q0 146 57 264.5t171.5 190.5t268.5 72q116 0 210.5 -39.5t154.5 -107.5t92.5 -156t32.5 -187q0 -42 -4 -78h-789q12 -147 100.5 -237t223.5 -90q114 0 185 47t93 135zM565 889
q-122 0 -198 -66.5t-99 -195.5h586q-9 120 -86 191t-203 71z" />
    <glyph glyph-name="f" unicode="f" horiz-adv-x="800" 
d="M246 0v860h-211v172h211v101q0 152 92 241.5t248 89.5h170v-172h-156q-71 0 -113.5 -45t-42.5 -121v-94h312v-172h-312v-860h-198z" />
    <glyph glyph-name="g" unicode="g" horiz-adv-x="1232" 
d="M899 1032h199v-1081q0 -163 -107 -266t-276 -103h-498v166h477q89 0 147 60.5t58 154.5v168q-37 -66 -127 -106.5t-199 -40.5q-232 0 -363.5 148t-131.5 384t131 384.5t362 148.5q101 0 190.5 -42.5t137.5 -111.5v137zM596 158q145 0 231 97.5t86 260.5t-86 260.5
t-231 97.5q-143 0 -229 -97.5t-86 -260.5t86 -260.5t229 -97.5z" />
    <glyph glyph-name="h" unicode="h" horiz-adv-x="1179" 
d="M137 0v1464h199v-614q41 96 128 147.5t204 51.5q174 0 279.5 -114.5t105.5 -299.5v-635h-199v596q0 123 -66.5 198.5t-175.5 75.5q-121 0 -198.5 -88t-77.5 -223v-559h-199z" />
    <glyph glyph-name="i" unicode="i" horiz-adv-x="450" 
d="M115 1464h221v-250h-221v250zM127 0v1032h199v-1032h-199z" />
    <glyph glyph-name="j" unicode="j" horiz-adv-x="450" 
d="M115 1464h221v-250h-221v250zM127 1032h197v-1110q0 -168 -75 -254t-239 -86h-102v166h82q84 0 110.5 43.5t26.5 145.5v1095z" />
    <glyph glyph-name="k" unicode="k" horiz-adv-x="1101" 
d="M838 0l-371 494l-129 -119v-375h-201v1464h201v-843l448 411h258l-434 -403l473 -629h-245z" />
    <glyph glyph-name="l" unicode="l" horiz-adv-x="471" 
d="M137 0v1464h199v-1464h-199z" />
    <glyph glyph-name="m" unicode="m" horiz-adv-x="1789" 
d="M127 0v1032h199v-184q33 91 113.5 146t191.5 55q127 0 215 -55t119 -156q32 90 125 150.5t210 60.5q167 0 265 -107t98 -287v-655h-199v600q0 124 -58.5 199t-160.5 75q-117 0 -184.5 -75t-67.5 -199v-600h-198v600q0 124 -58.5 199t-158.5 75q-117 0 -184.5 -75
t-67.5 -199v-600h-199z" />
    <glyph glyph-name="n" unicode="n" 
d="M127 0v1032h199v-182q41 96 127.5 147.5t203.5 51.5q174 0 279.5 -114.5t105.5 -299.5v-635h-198v596q0 123 -66.5 198.5t-175.5 75.5q-121 0 -198.5 -88t-77.5 -223v-559h-199z" />
    <glyph glyph-name="o" unicode="o" horiz-adv-x="1198" 
d="M600 -16q-232 0 -382 150t-150 382t150 382.5t382 150.5q231 0 380.5 -150.5t149.5 -382.5t-149 -382t-381 -150zM600 158q146 0 237 99.5t91 258.5t-91 258.5t-237 99.5q-147 0 -238.5 -99.5t-91.5 -258.5t91.5 -258.5t238.5 -99.5z" />
    <glyph glyph-name="p" unicode="p" horiz-adv-x="1222" 
d="M137 -418v1450h199v-153q46 77 135 123.5t195 46.5q228 0 358.5 -148.5t130.5 -384.5q0 -235 -135 -383.5t-365 -148.5q-102 0 -188.5 43.5t-130.5 117.5v-563h-199zM637 158q143 0 230 98.5t87 259.5t-87 259.5t-230 98.5q-144 0 -231 -98t-87 -260t87 -260t231 -98z
" />
    <glyph glyph-name="q" unicode="q" horiz-adv-x="1224" 
d="M1087 -418h-198v563q-44 -74 -131.5 -117.5t-190.5 -43.5q-230 0 -364.5 148.5t-134.5 383.5q0 236 131 384.5t358 148.5q106 0 195 -46.5t137 -123.5v153h198v-1450zM586 158q144 0 230.5 98t86.5 260t-86.5 260t-230.5 98q-142 0 -229 -98.5t-87 -259.5t87 -259.5
t229 -98.5z" />
    <glyph glyph-name="r" unicode="r" horiz-adv-x="761" 
d="M725 860h-150q-249 0 -249 -393v-467h-199v1032h199v-198q35 103 100.5 150.5t173.5 47.5h125v-172z" />
    <glyph glyph-name="s" unicode="s" horiz-adv-x="956" 
d="M489 -16q-182 0 -294.5 94.5t-122.5 257.5h186q9 -89 70 -137.5t161 -48.5q87 0 141 40t54 99q0 49 -25 80.5t-66.5 45.5t-94 25t-107.5 18t-107.5 26.5t-94 48t-66.5 84.5t-25 135q0 133 102.5 215t264.5 82q175 0 285 -89t118 -235h-186q-10 82 -75.5 124t-141.5 42
q-80 0 -129 -36.5t-49 -96.5q0 -51 32.5 -81t84.5 -41.5t115 -19t126 -24t115 -46t84.5 -93.5t32.5 -160q0 -141 -106.5 -225t-281.5 -84z" />
    <glyph glyph-name="t" unicode="t" horiz-adv-x="792" 
d="M246 1356h198v-324h306v-172h-306v-516q0 -83 42 -127.5t118 -44.5h146v-172h-162q-158 0 -250 90.5t-92 247.5v522h-211v172h211v324z" />
    <glyph glyph-name="u" unicode="u" 
d="M1042 1032v-1032h-198v182q-41 -96 -128 -147t-204 -51q-174 0 -279.5 114t-105.5 299v635h199v-596q0 -123 66 -198.5t175 -75.5q121 0 199 88t78 223v559h198z" />
    <glyph glyph-name="v" unicode="v" horiz-adv-x="997" 
d="M401 0l-378 1032h204l271 -782l272 782h205l-377 -1032h-197z" />
    <glyph glyph-name="w" unicode="w" horiz-adv-x="1542" 
d="M352 0l-319 1032h198l213 -768l234 768h188l232 -768l211 768h200l-319 -1032h-184l-236 770l-233 -770h-185z" />
    <glyph glyph-name="x" unicode="x" horiz-adv-x="1017" 
d="M991 0h-211l-270 387l-272 -387h-211l374 541l-344 491h219l234 -336l231 336h220l-345 -491z" />
    <glyph glyph-name="y" unicode="y" horiz-adv-x="997" 
d="M975 1032l-363 -995l-155 -455h-191l140 408l-383 1042h204l271 -774l272 774h205z" />
    <glyph glyph-name="z" unicode="z" horiz-adv-x="1017" 
d="M78 0v172l610 688h-579v172h809v-172l-605 -688h635v-172h-870z" />
    <glyph glyph-name="braceleft" unicode="{" horiz-adv-x="659" 
d="M475 -102q-95 0 -154 57t-59 154v362q0 89 -38.5 127.5t-129.5 38.5v160q91 0 129.5 38.5t38.5 127.5v362q0 97 59 154t154 57h139v-168h-61q-57 0 -80.5 -22.5t-23.5 -75.5v-355q0 -91 -37 -135t-109 -63q72 -19 109 -63.5t37 -135.5v-354q0 -53 23.5 -75.5t80.5 -22.5
h61v-168h-139z" />
    <glyph glyph-name="bar" unicode="|" horiz-adv-x="485" 
d="M145 -102v1638h195v-1638h-195z" />
    <glyph glyph-name="braceright" unicode="}" horiz-adv-x="659" 
d="M184 -102h-139v168h61q57 0 81 22.5t24 75.5v354q0 91 36.5 135.5t108.5 63.5q-72 19 -108.5 63t-36.5 135v355q0 53 -24 75.5t-81 22.5h-61v168h139q95 0 154 -57t59 -154v-362q0 -89 38.5 -127.5t129.5 -38.5v-160q-91 0 -129.5 -38.5t-38.5 -127.5v-362
q0 -97 -59 -154t-154 -57z" />
    <glyph glyph-name="asciitilde" unicode="~" horiz-adv-x="1259" 
d="M842 528q-59 0 -115.5 17.5t-94.5 39t-91.5 39t-106.5 17.5q-108 0 -196 -98l-117 114q51 81 129 134t168 53q59 0 115 -18t93.5 -39.5t91 -39.5t107.5 -18q111 0 197 100l117 -114q-51 -81 -129 -134t-168 -53z" />
    <glyph glyph-name="exclamdown" unicode="&#xa1;" horiz-adv-x="591" 
d="M147 795v221h218v-221h-218zM182 670h148l53 -1088h-254z" />
    <glyph glyph-name="cent" unicode="&#xa2;" horiz-adv-x="1120" 
d="M584 158q105 0 179 51t99 139h197q-22 -140 -121 -235t-252 -121v-225l-186 2v221q-134 18 -233.5 94.5t-149 188t-49.5 243.5t49.5 243.5t149 188t233.5 94.5v224h186v-228q150 -27 252.5 -123.5t120.5 -242.5h-199q-13 87 -92 144.5t-184 57.5q-149 0 -229.5 -100.5
t-80.5 -257.5q0 -156 81 -257t229 -101z" />
    <glyph glyph-name="sterling" unicode="&#xa3;" horiz-adv-x="1218" 
d="M924 379h213v-143q0 -115 -61 -175.5t-175 -60.5h-780v180q100 88 146 177t46 196q0 35 -10 80h-229v176h162q-56 123 -56 219q0 194 125 308t326 114q191 0 320 -111.5t141 -306.5h-213q-9 117 -76.5 173.5t-171.5 56.5t-171 -63.5t-67 -178.5q0 -88 58 -211h434v-176
h-367q8 -50 8 -80q0 -91 -44 -187t-115 -178h485q34 0 53 19t19 53v119z" />
    <glyph glyph-name="currency" unicode="&#xa4;" horiz-adv-x="1347" 
d="M1208 516q0 -177 -92 -311l152 -152l-133 -131l-150 152q-136 -90 -309 -90q-180 0 -314 92l-151 -154l-133 131l155 156q-88 138 -88 307q0 173 88 307l-155 158l131 131l156 -156q136 93 311 93q173 0 307 -91l154 154l131 -131l-152 -154q92 -134 92 -311zM676 158
q147 0 238.5 99.5t91.5 258.5t-91.5 258.5t-238.5 99.5q-146 0 -237 -99.5t-91 -258.5t91 -258.5t237 -99.5z" />
    <glyph glyph-name="yen" unicode="&#xa5;" horiz-adv-x="1230" 
d="M1225 1434l-412 -684h289v-154h-381v-188h381v-156h-381v-252h-213v252h-377v156h377v188h-377v154h287l-412 684h238l370 -633l373 633h238z" />
    <glyph glyph-name="brokenbar" unicode="&#xa6;" horiz-adv-x="485" 
d="M145 821v715h195v-715h-195zM145 -102v714h195v-714h-195z" />
    <glyph glyph-name="section" unicode="&#xa7;" horiz-adv-x="1165" 
d="M977 211q97 -93 94 -250q-4 -185 -139 -290t-354 -105q-225 0 -362 126.5t-148 338.5h200q11 -127 93.5 -202t216.5 -75q126 0 202 52t76 151q0 50 -26.5 88t-71.5 61t-103 41.5t-122 35t-128 35.5t-122 48.5t-103 69t-71.5 102t-26.5 142.5q0 140 135 249
q-106 92 -106 254q0 163 126.5 265t327.5 102q206 0 336.5 -111.5t140.5 -298.5h-196q-11 101 -87 161.5t-194 60.5q-115 0 -180.5 -48.5t-65.5 -130.5q0 -51 26.5 -88.5t71.5 -60t103.5 -40t123.5 -32.5t129.5 -33t123 -47t103.5 -68.5t71.5 -103.5t26.5 -147
q0 -143 -121 -252zM293 580q0 -40 16 -71.5t46 -53t66.5 -37.5t85.5 -29.5t93.5 -23.5t100.5 -24.5t98 -29.5q82 59 82 150q0 44 -21.5 78.5t-54 56t-85 41t-99.5 31.5t-112 29.5t-110 33.5q-106 -53 -106 -151z" />
    <glyph glyph-name="dieresis" unicode="&#xa8;" horiz-adv-x="761" 
d="M61 1417h183v-207h-183v207zM418 1417h182v-207h-182v207z" />
    <glyph glyph-name="copyright" unicode="&#xa9;" horiz-adv-x="1875" 
d="M944 -82q-167 0 -315.5 61.5t-254.5 167.5t-167.5 254.5t-61.5 315.5t61.5 315.5t167.5 254.5t254.5 167.5t315.5 61.5t315.5 -61.5t254.5 -167.5t167.5 -254.5t61.5 -315.5t-61.5 -315.5t-167.5 -254.5t-254.5 -167.5t-315.5 -61.5zM944 35q141 0 265.5 52.5t214 143
t141.5 217t53 269.5q-1 143 -53 269.5t-141.5 217t-214 143t-265.5 52.5t-266.5 -52.5t-215.5 -143t-142 -217t-52 -269.5t52 -269.5t142 -217t215.5 -143t266.5 -52.5zM952 240q-92 0 -174 30.5t-145.5 88.5t-101 151.5t-37.5 210.5q0 118 37.5 211.5t102 151.5t145.5 88
t173 30q160 0 274.5 -87.5t133.5 -225.5h-146q-12 83 -86 136.5t-176 53.5q-142 0 -228.5 -93.5t-86.5 -264.5q0 -169 86.5 -262.5t228.5 -93.5q105 0 180 53t85 137h141q-15 -138 -129 -226.5t-277 -88.5z" />
    <glyph glyph-name="ordfeminine" unicode="&#xaa;" horiz-adv-x="632" 
d="M305 1450q122 0 197.5 -62.5t75.5 -164.5v-402h-142v90q-21 -44 -72 -72t-114 -28q-90 0 -148.5 53t-58.5 133q0 93 61 144t172 51h121q39 0 39 39v2q0 46 -36 76t-93 30q-56 0 -91.5 -31.5t-37.5 -76.5h-135q8 94 80 156.5t182 62.5zM285 924q71 0 111 42.5t40 116.5v15
h-135q-113 0 -113 -94q0 -35 27.5 -57.5t69.5 -22.5z" />
    <glyph glyph-name="guillemotleft" unicode="&#xab;" horiz-adv-x="1273" 
d="M653 152l-614 421v123l614 422v-205l-411 -278l411 -279v-204zM1206 152l-614 421v123l614 422v-205l-411 -278l411 -279v-204z" />
    <glyph glyph-name="logicalnot" unicode="&#xac;" horiz-adv-x="1193" 
d="M879 276v355h-779v178h979v-533h-200z" />
    <glyph glyph-name="uni00AD" unicode="&#xad;" horiz-adv-x="1228" 
d="M104 563v172h764v-172h-764z" />
    <glyph glyph-name="registered" unicode="&#xae;" horiz-adv-x="1875" 
d="M944 1516q167 0 315.5 -61.5t254.5 -167.5t167.5 -254.5t61.5 -315.5t-61.5 -315.5t-167.5 -254.5t-254.5 -167.5t-315.5 -61.5t-315.5 61.5t-254.5 167.5t-167.5 254.5t-61.5 315.5t61.5 315.5t167.5 254.5t254.5 167.5t315.5 61.5zM944 35q141 0 265.5 52.5t214 143
t141.5 217t53 269.5q-1 143 -53 269.5t-141.5 217t-214 143t-265.5 52.5t-266.5 -52.5t-215.5 -143t-142 -217t-52 -269.5t52 -269.5t142 -217t215.5 -143t266.5 -52.5zM1300 909q0 -144 -137 -211q110 -64 119 -206l18 -240h-137l-18 227q-5 64 -43.5 104t-97.5 40h-236
v-371h-139v940h368q140 0 221.5 -78t81.5 -205zM768 1071v-326h225q85 0 126.5 47t41.5 117t-41.5 116t-126.5 46h-225z" />
    <glyph glyph-name="macron" unicode="&#xaf;" horiz-adv-x="737" 
d="M41 1206v160h553v-160h-553z" />
    <glyph glyph-name="degree" unicode="&#xb0;" horiz-adv-x="712" 
d="M356 952q-115 0 -187.5 70t-72.5 178t72.5 178t187.5 70t188.5 -70t73.5 -178t-73.5 -178t-188.5 -70zM356 1081q55 0 90 33t35 86t-35 86t-90 33t-90 -33t-35 -86t35 -86t90 -33z" />
    <glyph glyph-name="plusminus" unicode="&#xb1;" horiz-adv-x="1148" 
d="M489 391v363h-389v172h389v362h175v-362h391v-172h-391v-363h-175zM100 0v172h957v-172h-957z" />
    <glyph glyph-name="uni00B2" unicode="&#xb2;" horiz-adv-x="706" 
d="M61 1219q-3 141 80 224t224 83q133 0 216 -73.5t83 -192.5q0 -171 -203 -275l-107 -53q-123 -65 -125 -137h435v-140h-605v111q0 51 19 97t50.5 80.5t64 58.5t67.5 42l137 68q107 55 107 150q0 60 -38.5 95.5t-100.5 35.5q-69 0 -107.5 -47.5t-34.5 -126.5h-162z" />
    <glyph glyph-name="uni00B3" unicode="&#xb3;" horiz-adv-x="753" 
d="M383 645q-137 0 -228.5 77t-91.5 206h156q0 -67 47 -105.5t117 -38.5q73 0 115.5 34t42.5 93q0 57 -42.5 89t-115.5 32h-78v133h74q59 0 94 33t35 86q0 51 -36.5 80t-98.5 29q-60 0 -98 -34t-39 -93h-146q3 116 84.5 188t200.5 72q124 0 207.5 -67.5t83.5 -164.5
q0 -56 -31 -105.5t-80 -78.5q145 -66 145 -203q0 -121 -91.5 -191.5t-225.5 -70.5z" />
    <glyph glyph-name="acute" unicode="&#xb4;" horiz-adv-x="577" 
d="M100 1145l168 303h224l-211 -303h-181z" />
    <glyph glyph-name="uni00B5" unicode="&#xb5;" 
d="M844 1032h198v-1032h-198v182q-36 -96 -117 -147t-188 -51q-115 0 -213 82v-484h-199v1450h199v-596q0 -123 66 -198.5t173 -75.5q123 0 201 88t78 223v559z" />
    <glyph glyph-name="paragraph" unicode="&#xb6;" horiz-adv-x="1423" 
d="M510 -418v1047q-175 0 -298.5 118t-123.5 285q0 166 123.5 284t298.5 118h815v-170h-131v-1682h-188v1682h-306v-1682h-190z" />
    <glyph glyph-name="periodcentered" unicode="&#xb7;" horiz-adv-x="516" 
d="M80 842h221v-250h-221v250z" />
    <glyph glyph-name="cedilla" unicode="&#xb8;" horiz-adv-x="548" 
d="M301 -424h-240l226 305h170z" />
    <glyph glyph-name="uni00B9" unicode="&#xb9;" horiz-adv-x="473" 
d="M381 1516v-861h-158v635q-11 -16 -41.5 -25.5t-60.5 -9.5h-68v140h64q52 0 78.5 26.5t33.5 94.5h152z" />
    <glyph glyph-name="ordmasculine" unicode="&#xba;" horiz-adv-x="733" 
d="M367 811q-141 0 -232.5 90.5t-91.5 228.5t91.5 229t232.5 91t232 -91t91 -229t-91 -228.5t-232 -90.5zM367 940q78 0 125 52.5t47 137.5q0 87 -47 140t-125 53t-126 -53.5t-48 -139.5q0 -85 48 -137.5t126 -52.5z" />
    <glyph glyph-name="guillemotright" unicode="&#xbb;" horiz-adv-x="1273" 
d="M72 152v204l411 279l-411 278v205l614 -422v-123zM623 152v204l413 279l-413 278v205l616 -422v-123z" />
    <glyph glyph-name="onequarter" unicode="&#xbc;" horiz-adv-x="1705" 
d="M381 1434v-861h-158v635q-11 -16 -41 -25t-61 -9h-68v139h64q52 0 78.5 26.5t33.5 94.5h152zM178 0l1041 1434h182l-1041 -1434h-182zM1380 0v184h-440v138l428 538h174v-538h109v-138h-109v-184h-162zM1100 322h280v348z" />
    <glyph glyph-name="onehalf" unicode="&#xbd;" horiz-adv-x="1708" 
d="M381 1434v-861h-158v635q-11 -16 -41 -25t-61 -9h-68v139h64q52 0 78.5 26.5t33.5 94.5h152zM178 0l1041 1434h182l-1041 -1434h-182zM1120 563q-3 142 79.5 224.5t223.5 82.5q133 0 216 -73.5t83 -192.5q0 -171 -202 -274l-107 -54q-123 -65 -125 -137h434v-139h-604
v111q0 51 19 97t50.5 80.5t64 58.5t67.5 42l137 68q107 55 107 149q0 59 -39 95t-101 36q-69 0 -107.5 -47t-33.5 -127h-162z" />
    <glyph glyph-name="threequarters" unicode="&#xbe;" horiz-adv-x="1941" 
d="M383 563q-137 0 -228.5 77t-91.5 206h156q0 -67 47 -105.5t117 -38.5q73 0 115.5 34t42.5 93q0 57 -42.5 89t-115.5 32h-78v133h74q59 0 94 33t35 86q0 51 -36.5 80t-98.5 29q-60 0 -98 -34t-39 -93h-146q3 116 84.5 188t200.5 72q124 0 207.5 -67.5t83.5 -164.5
q0 -56 -31 -105.5t-80 -78.5q145 -66 145 -203q0 -121 -91.5 -191.5t-225.5 -70.5zM412 0l1040 1434h182l-1040 -1434h-182zM1614 0v184h-440v138l428 538h174v-538h108v-138h-108v-184h-162zM1333 322h281v348z" />
    <glyph glyph-name="questiondown" unicode="&#xbf;" horiz-adv-x="919" 
d="M547 795h-219v221h219v-221zM479 670q152 0 239 -69t87 -202q0 -79 -33 -133.5t-85.5 -82.5t-116.5 -47t-128 -32.5t-116.5 -32t-85.5 -54t-33 -89.5q0 -90 62 -140t171 -50q115 0 189 63.5t78 175.5h194q-6 -187 -134 -299t-327 -112q-200 0 -321 98.5t-121 265.5
q0 65 21 116t56 83.5t81 56.5t96.5 39t101 26.5t96.5 23.5t81 26t56 37t21 55q0 113 -141 113h-277v164h289z" />
    <glyph glyph-name="Agrave" unicode="&#xc0;" horiz-adv-x="1349" 
d="M766 1546h-180l-211 303h223zM1116 0l-137 365h-608l-138 -365h-219l564 1434h196l563 -1434h-221zM442 551h467l-233 616z" />
    <glyph glyph-name="Aacute" unicode="&#xc1;" horiz-adv-x="1349" 
d="M977 1849l-211 -303h-178l168 303h221zM1116 0l-137 365h-608l-138 -365h-219l564 1434h196l563 -1434h-221zM442 551h467l-233 616z" />
    <glyph glyph-name="Acircumflex" unicode="&#xc2;" horiz-adv-x="1349" 
d="M680 1704l-131 -158h-178l223 287h170l223 -287h-178zM1116 0l-137 365h-608l-138 -365h-219l564 1434h196l563 -1434h-221zM442 551h467l-233 616z" />
    <glyph glyph-name="Atilde" unicode="&#xc3;" horiz-adv-x="1349" 
d="M563 1671q-30 0 -51.5 -20.5t-26.5 -53.5h-141q4 101 62 166.5t143 65.5q51 0 94.5 -20.5t77.5 -41t63 -20.5q31 0 53.5 20t28.5 52h140q-4 -103 -61.5 -166.5t-143.5 -63.5q-51 0 -95 20.5t-79 41t-64 20.5zM1116 0l-137 365h-608l-138 -365h-219l564 1434h196
l563 -1434h-221zM442 551h467l-233 616z" />
    <glyph glyph-name="Adieresis" unicode="&#xc4;" horiz-adv-x="1349" 
d="M586 1819v-207h-183v207h183zM942 1819v-207h-182v207h182zM1116 0l-137 365h-608l-138 -365h-219l564 1434h196l563 -1434h-221zM442 551h467l-233 616z" />
    <glyph glyph-name="Aring" unicode="&#xc5;" horiz-adv-x="1349" 
d="M674 1518q-110 0 -183 67t-73 168q0 100 73 167t183 67q112 0 185 -67t73 -167q0 -102 -73 -168.5t-185 -66.5zM674 1870q-54 0 -89.5 -32.5t-35.5 -84.5t35.5 -85.5t89.5 -33.5q57 0 92 33t35 86t-35 85t-92 32zM1116 0l-137 365h-608l-138 -365h-219l564 1434h196
l563 -1434h-221zM442 551h467l-233 616z" />
    <glyph glyph-name="AE" unicode="&#xc6;" horiz-adv-x="1939" 
d="M1231 188h627v-188h-840v367h-549l-225 -367h-230l910 1434h911v-189h-604v-411h469v-189h-469v-457zM584 555h434v709z" />
    <glyph glyph-name="Ccedilla" unicode="&#xc7;" horiz-adv-x="1466" 
d="M780 -16q-112 0 -214.5 28.5t-191.5 88.5t-154 145t-102.5 206t-37.5 265t38 265t103.5 206t154.5 145t191 88.5t213 28.5q245 0 419.5 -133.5t203.5 -343.5h-223q-19 126 -132 207.5t-270 81.5q-215 0 -347 -143t-132 -402t132 -402t347 -143q160 0 274.5 81.5
t131.5 207.5h215q-15 -139 -99 -247.5t-220 -169t-300 -60.5zM731 -424h-239l225 305h168z" />
    <glyph glyph-name="Egrave" unicode="&#xc8;" 
d="M698 1546h-180l-211 303h223zM145 0v1434h920v-189h-707v-411h572v-189h-572v-457h729v-188h-942z" />
    <glyph glyph-name="Eacute" unicode="&#xc9;" 
d="M520 1546l168 303h221l-211 -303h-178zM145 0v1434h920v-189h-707v-411h572v-189h-572v-457h729v-188h-942z" />
    <glyph glyph-name="Ecircumflex" unicode="&#xca;" 
d="M526 1833h170l224 -287h-179l-129 158l-131 -158h-178zM145 0v1434h920v-189h-707v-411h572v-189h-572v-457h729v-188h-942z" />
    <glyph glyph-name="Edieresis" unicode="&#xcb;" 
d="M336 1819h182v-207h-182v207zM692 1819h182v-207h-182v207zM145 0v1434h920v-189h-707v-411h572v-189h-572v-457h729v-188h-942z" />
    <glyph glyph-name="Igrave" unicode="&#xcc;" horiz-adv-x="503" 
d="M340 1546h-180l-211 303h223zM145 0v1434h213v-1434h-213z" />
    <glyph glyph-name="Iacute" unicode="&#xcd;" horiz-adv-x="503" 
d="M164 1546l168 303h221l-211 -303h-178zM145 0v1434h213v-1434h-213z" />
    <glyph glyph-name="Icircumflex" unicode="&#xce;" horiz-adv-x="503" 
d="M168 1833h170l223 -287h-178l-129 158l-131 -158h-178zM145 0v1434h213v-1434h-213z" />
    <glyph glyph-name="Idieresis" unicode="&#xcf;" horiz-adv-x="503" 
d="M-20 1819h182v-207h-182v207zM336 1819h182v-207h-182v207zM145 0v1434h213v-1434h-213z" />
    <glyph glyph-name="Eth" unicode="&#xd0;" horiz-adv-x="1552" 
d="M750 1434q151 0 281.5 -47t229.5 -135.5t155.5 -226t56.5 -308.5t-56.5 -308.5t-155.5 -226t-229.5 -135.5t-281.5 -47h-441v641h-203v160h203v633h441zM737 188q103 0 193 30t164 91.5t116.5 166t42.5 241.5q0 110 -28.5 200t-76.5 150t-114.5 101t-140.5 59t-156 18
h-215v-444h363v-160h-363v-453h215z" />
    <glyph glyph-name="Ntilde" unicode="&#xd1;" horiz-adv-x="1431" 
d="M844 1589q-51 0 -95 20.5t-79 41t-64 20.5q-30 0 -51.5 -20.5t-26.5 -53.5h-141q4 101 62 166.5t143 65.5q51 0 94.5 -20.5t77.5 -41t63 -20.5q31 0 53.5 20t28.5 52h140q-4 -103 -61.5 -166.5t-143.5 -63.5zM145 0v1434h238l690 -1104v1104h213v-1434h-235l-693 1102
v-1102h-213z" />
    <glyph glyph-name="Ograve" unicode="&#xd2;" horiz-adv-x="1585" 
d="M883 1546h-181l-210 303h223zM793 -16q-152 0 -284 55.5t-226.5 152.5t-148.5 233t-54 292t54 292t148.5 233t226.5 152.5t284 55.5q201 0 363.5 -94.5t254.5 -262.5t92 -376t-92 -376t-254.5 -262.5t-363.5 -94.5zM793 172q213 0 353 155t140 390t-140 390t-353 155
q-141 0 -254.5 -70.5t-177.5 -195.5t-64 -279t64 -279t177.5 -195.5t254.5 -70.5z" />
    <glyph glyph-name="Oacute" unicode="&#xd3;" horiz-adv-x="1585" 
d="M705 1546l167 303h222l-211 -303h-178zM793 -16q-152 0 -284 55.5t-226.5 152.5t-148.5 233t-54 292t54 292t148.5 233t226.5 152.5t284 55.5q201 0 363.5 -94.5t254.5 -262.5t92 -376t-92 -376t-254.5 -262.5t-363.5 -94.5zM793 172q213 0 353 155t140 390t-140 390
t-353 155q-141 0 -254.5 -70.5t-177.5 -195.5t-64 -279t64 -279t177.5 -195.5t254.5 -70.5z" />
    <glyph glyph-name="Ocircumflex" unicode="&#xd4;" horiz-adv-x="1585" 
d="M711 1833h170l223 -287h-178l-129 158l-131 -158h-179zM793 -16q-152 0 -284 55.5t-226.5 152.5t-148.5 233t-54 292t54 292t148.5 233t226.5 152.5t284 55.5q201 0 363.5 -94.5t254.5 -262.5t92 -376t-92 -376t-254.5 -262.5t-363.5 -94.5zM793 172q213 0 353 155
t140 390t-140 390t-353 155q-141 0 -254.5 -70.5t-177.5 -195.5t-64 -279t64 -279t177.5 -195.5t254.5 -70.5z" />
    <glyph glyph-name="Otilde" unicode="&#xd5;" horiz-adv-x="1585" 
d="M918 1589q-51 0 -95 20.5t-79 41t-64 20.5q-30 0 -51.5 -20.5t-26.5 -53.5h-141q4 101 62 166.5t143 65.5q51 0 94.5 -20.5t77.5 -41t63 -20.5q31 0 53.5 20t28.5 52h139q-4 -103 -61 -166.5t-143 -63.5zM793 -16q-152 0 -284 55.5t-226.5 152.5t-148.5 233t-54 292
t54 292t148.5 233t226.5 152.5t284 55.5q201 0 363.5 -94.5t254.5 -262.5t92 -376t-92 -376t-254.5 -262.5t-363.5 -94.5zM793 172q213 0 353 155t140 390t-140 390t-353 155q-141 0 -254.5 -70.5t-177.5 -195.5t-64 -279t64 -279t177.5 -195.5t254.5 -70.5z" />
    <glyph glyph-name="Odieresis" unicode="&#xd6;" horiz-adv-x="1585" 
d="M520 1819h182v-207h-182v207zM877 1819h182v-207h-182v207zM793 -16q-152 0 -284 55.5t-226.5 152.5t-148.5 233t-54 292t54 292t148.5 233t226.5 152.5t284 55.5q201 0 363.5 -94.5t254.5 -262.5t92 -376t-92 -376t-254.5 -262.5t-363.5 -94.5zM793 172q213 0 353 155
t140 390t-140 390t-353 155q-141 0 -254.5 -70.5t-177.5 -195.5t-64 -279t64 -279t177.5 -195.5t254.5 -70.5z" />
    <glyph glyph-name="multiply" unicode="&#xd7;" horiz-adv-x="1165" 
d="M1020 997l-313 -313l311 -311l-123 -125l-311 313l-314 -313l-123 123l314 313l-316 313l125 123l314 -313l313 313z" />
    <glyph glyph-name="Oslash" unicode="&#xd8;" horiz-adv-x="1585" 
d="M793 1450q201 0 363.5 -94.5t254.5 -262.5t92 -376t-92 -376t-254.5 -262.5t-363.5 -94.5q-152 0 -284 55.5t-226.5 152.5t-148.5 233t-54 292t54 292t148.5 233t226.5 152.5t284 55.5zM793 1262q-141 0 -254.5 -70.5t-177.5 -195.5t-64 -279q0 -191 98 -336l684 786
q-129 95 -286 95zM793 172q213 0 353 155t140 390q0 194 -100 340l-682 -791q127 -94 289 -94z" />
    <glyph glyph-name="Ugrave" unicode="&#xd9;" horiz-adv-x="1339" 
d="M760 1546h-180l-211 303h223zM670 -16q-250 0 -399.5 137.5t-149.5 380.5v932h205v-938q0 -151 94 -236.5t250 -85.5q158 0 252 85t94 237v938h205v-932q0 -243 -150 -380.5t-401 -137.5z" />
    <glyph glyph-name="Uacute" unicode="&#xda;" horiz-adv-x="1339" 
d="M582 1546l168 303h221l-211 -303h-178zM670 -16q-250 0 -399.5 137.5t-149.5 380.5v932h205v-938q0 -151 94 -236.5t250 -85.5q158 0 252 85t94 237v938h205v-932q0 -243 -150 -380.5t-401 -137.5z" />
    <glyph glyph-name="Ucircumflex" unicode="&#xdb;" horiz-adv-x="1339" 
d="M588 1833h170l223 -287h-178l-129 158l-131 -158h-178zM670 -16q-250 0 -399.5 137.5t-149.5 380.5v932h205v-938q0 -151 94 -236.5t250 -85.5q158 0 252 85t94 237v938h205v-932q0 -243 -150 -380.5t-401 -137.5z" />
    <glyph glyph-name="Udieresis" unicode="&#xdc;" horiz-adv-x="1339" 
d="M397 1819h183v-207h-183v207zM754 1819h182v-207h-182v207zM670 -16q-250 0 -399.5 137.5t-149.5 380.5v932h205v-938q0 -151 94 -236.5t250 -85.5q158 0 252 85t94 237v938h205v-932q0 -243 -150 -380.5t-401 -137.5z" />
    <glyph glyph-name="Yacute" unicode="&#xdd;" horiz-adv-x="1230" 
d="M526 1546l168 303h221l-210 -303h-179zM508 0v598l-502 836h238l370 -633l373 633h238l-504 -836v-598h-213z" />
    <glyph glyph-name="Thorn" unicode="&#xde;" horiz-adv-x="1212" 
d="M145 0v1434h213v-306h342q216 0 339.5 -110t123.5 -301t-123.5 -301.5t-339.5 -110.5h-342v-305h-213zM358 489h336q132 0 194 61.5t62 166.5t-62 166t-194 61h-336v-455z" />
    <glyph glyph-name="germandbls" unicode="&#xdf;" horiz-adv-x="1189" 
d="M934 784q113 -41 181.5 -132.5t68.5 -231.5q0 -195 -129.5 -307.5t-352.5 -112.5h-186v188h158q299 0 299 240t-299 240h-158v186h150q120 0 182.5 51t62.5 150q0 100 -64 158.5t-183 58.5q-142 0 -225 -92.5t-83 -247.5v-932h-211v668h-135v186h135v82
q0 235 140.5 374.5t376.5 139.5q212 0 334 -103.5t122 -281.5q0 -94 -54.5 -171t-129.5 -110z" />
    <glyph glyph-name="agrave" unicode="&#xe0;" horiz-adv-x="1077" 
d="M635 1145h-180l-211 303h223zM532 1049q199 0 321 -105.5t122 -277.5v-666h-199v168q-37 -84 -128 -134t-208 -50q-158 0 -254 86t-96 225q0 149 109 235t293 86h215q34 0 51.5 16.5t17.5 45.5q0 96 -66 153.5t-184 57.5q-105 0 -177 -57.5t-77 -137.5h-184
q12 153 137 254t307 101zM479 141q140 0 218.5 84t78.5 228v24h-266q-102 0 -162.5 -48t-60.5 -130q0 -71 53 -114.5t139 -43.5z" />
    <glyph glyph-name="aacute" unicode="&#xe1;" horiz-adv-x="1077" 
d="M848 1448l-211 -303h-178l168 303h221zM532 1049q199 0 321 -105.5t122 -277.5v-666h-199v168q-37 -84 -128 -134t-208 -50q-158 0 -254 86t-96 225q0 149 109 235t293 86h215q34 0 51.5 16.5t17.5 45.5q0 96 -66 153.5t-184 57.5q-105 0 -177 -57.5t-77 -137.5h-184
q12 153 137 254t307 101zM479 141q140 0 218.5 84t78.5 228v24h-266q-102 0 -162.5 -48t-60.5 -130q0 -71 53 -114.5t139 -43.5z" />
    <glyph glyph-name="acircumflex" unicode="&#xe2;" horiz-adv-x="1077" 
d="M549 1303l-131 -158h-178l223 287h170l223 -287h-178zM532 1049q199 0 321 -105.5t122 -277.5v-666h-199v168q-37 -84 -128 -134t-208 -50q-158 0 -254 86t-96 225q0 149 109 235t293 86h215q34 0 51.5 16.5t17.5 45.5q0 96 -66 153.5t-184 57.5q-105 0 -177 -57.5
t-77 -137.5h-184q12 153 137 254t307 101zM479 141q140 0 218.5 84t78.5 228v24h-266q-102 0 -162.5 -48t-60.5 -130q0 -71 53 -114.5t139 -43.5z" />
    <glyph glyph-name="atilde" unicode="&#xe3;" horiz-adv-x="1077" 
d="M434 1270q-30 0 -51.5 -20.5t-26.5 -53.5h-141q4 101 62 166t143 65q51 0 94.5 -20.5t77.5 -40.5t63 -20q31 0 53.5 19.5t28.5 51.5h140q-4 -103 -61.5 -166t-143.5 -63q-51 0 -95 20.5t-79 41t-64 20.5zM532 1049q199 0 321 -105.5t122 -277.5v-666h-199v168
q-37 -84 -128 -134t-208 -50q-158 0 -254 86t-96 225q0 149 109 235t293 86h215q34 0 51.5 16.5t17.5 45.5q0 96 -66 153.5t-184 57.5q-105 0 -177 -57.5t-77 -137.5h-184q12 153 137 254t307 101zM479 141q140 0 218.5 84t78.5 228v24h-266q-102 0 -162.5 -48t-60.5 -130
q0 -71 53 -114.5t139 -43.5z" />
    <glyph glyph-name="adieresis" unicode="&#xe4;" horiz-adv-x="1077" 
d="M457 1417v-207h-183v207h183zM813 1417v-207h-182v207h182zM532 1049q199 0 321 -105.5t122 -277.5v-666h-199v168q-37 -84 -128 -134t-208 -50q-158 0 -254 86t-96 225q0 149 109 235t293 86h215q34 0 51.5 16.5t17.5 45.5q0 96 -66 153.5t-184 57.5q-105 0 -177 -57.5
t-77 -137.5h-184q12 153 137 254t307 101zM479 141q140 0 218.5 84t78.5 228v24h-266q-102 0 -162.5 -48t-60.5 -130q0 -71 53 -114.5t139 -43.5z" />
    <glyph glyph-name="aring" unicode="&#xe5;" horiz-adv-x="1077" 
d="M545 1116q-110 0 -183 67.5t-73 168.5q0 100 73 166.5t183 66.5q112 0 185 -66.5t73 -166.5q0 -102 -73 -169t-185 -67zM545 1468q-55 0 -90 -32t-35 -84t35.5 -85.5t89.5 -33.5q57 0 92 33t35 86q0 52 -35 84t-92 32zM532 1049q199 0 321 -105.5t122 -277.5v-666h-199
v168q-37 -84 -128 -134t-208 -50q-158 0 -254 86t-96 225q0 149 109 235t293 86h215q34 0 51.5 16.5t17.5 45.5q0 96 -66 153.5t-184 57.5q-105 0 -177 -57.5t-77 -137.5h-184q12 153 137 254t307 101zM479 141q140 0 218.5 84t78.5 228v24h-266q-102 0 -162.5 -48
t-60.5 -130q0 -71 53 -114.5t139 -43.5z" />
    <glyph glyph-name="ae" unicode="&#xe6;" horiz-adv-x="1837" 
d="M1571 336h198q-28 -160 -157.5 -256t-319.5 -96q-139 0 -248.5 59t-177.5 162q-117 -221 -403 -221q-173 0 -273 86t-100 223q0 159 102.5 245.5t299.5 86.5h223q61 0 61 57v4q0 91 -72.5 147t-181.5 56q-105 0 -175.5 -57.5t-76.5 -139.5h-182q14 154 135 255.5
t297 101.5q121 0 219.5 -43t157.5 -119q142 162 375 162q116 0 210.5 -39.5t154.5 -107.5t92 -156t32 -187q0 -42 -4 -78h-788q12 -147 100.5 -237t222.5 -90q114 0 185.5 47t93.5 135zM1272 889q-122 0 -198 -66.5t-99 -195.5h586q-9 120 -86 191t-203 71zM477 141
q140 0 219.5 84t79.5 228v18v12h-266q-223 0 -223 -184q0 -69 54 -113.5t136 -44.5z" />
    <glyph glyph-name="ccedilla" unicode="&#xe7;" horiz-adv-x="1120" 
d="M580 -16q-119 0 -217 43t-162 116.5t-98.5 169.5t-34.5 203q0 108 34.5 204t98.5 169.5t162 116.5t217 43q186 0 322 -103t157 -274h-199q-13 87 -92 144.5t-184 57.5q-149 0 -229.5 -100.5t-80.5 -257.5q0 -156 81 -257t229 -101q105 0 179 51t99 139h197
q-25 -164 -154.5 -264t-324.5 -100zM528 -424h-239l225 305h168z" />
    <glyph glyph-name="egrave" unicode="&#xe8;" horiz-adv-x="1130" 
d="M657 1145h-180l-211 303h223zM864 336h199q-28 -160 -157.5 -256t-319.5 -96q-155 0 -274.5 75t-181.5 196.5t-62 266.5q0 146 57 264.5t171.5 190.5t268.5 72q116 0 210.5 -39.5t154.5 -107.5t92.5 -156t32.5 -187q0 -42 -4 -78h-789q12 -147 100.5 -237t223.5 -90
q114 0 185 47t93 135zM565 889q-122 0 -198 -66.5t-99 -195.5h586q-9 120 -86 191t-203 71z" />
    <glyph glyph-name="eacute" unicode="&#xe9;" horiz-adv-x="1130" 
d="M870 1448l-211 -303h-178l168 303h221zM864 336h199q-28 -160 -157.5 -256t-319.5 -96q-155 0 -274.5 75t-181.5 196.5t-62 266.5q0 146 57 264.5t171.5 190.5t268.5 72q116 0 210.5 -39.5t154.5 -107.5t92.5 -156t32.5 -187q0 -42 -4 -78h-789q12 -147 100.5 -237
t223.5 -90q114 0 185 47t93 135zM565 889q-122 0 -198 -66.5t-99 -195.5h586q-9 120 -86 191t-203 71z" />
    <glyph glyph-name="ecircumflex" unicode="&#xea;" horiz-adv-x="1130" 
d="M571 1303l-131 -158h-178l223 287h170l224 -287h-179zM864 336h199q-28 -160 -157.5 -256t-319.5 -96q-155 0 -274.5 75t-181.5 196.5t-62 266.5q0 146 57 264.5t171.5 190.5t268.5 72q116 0 210.5 -39.5t154.5 -107.5t92.5 -156t32.5 -187q0 -42 -4 -78h-789
q12 -147 100.5 -237t223.5 -90q114 0 185 47t93 135zM565 889q-122 0 -198 -66.5t-99 -195.5h586q-9 120 -86 191t-203 71z" />
    <glyph glyph-name="edieresis" unicode="&#xeb;" horiz-adv-x="1130" 
d="M479 1417v-207h-182v207h182zM836 1417v-207h-183v207h183zM864 336h199q-28 -160 -157.5 -256t-319.5 -96q-155 0 -274.5 75t-181.5 196.5t-62 266.5q0 146 57 264.5t171.5 190.5t268.5 72q116 0 210.5 -39.5t154.5 -107.5t92.5 -156t32.5 -187q0 -42 -4 -78h-789
q12 -147 100.5 -237t223.5 -90q114 0 185 47t93 135zM565 889q-122 0 -198 -66.5t-99 -195.5h586q-9 120 -86 191t-203 71z" />
    <glyph glyph-name="igrave" unicode="&#xec;" horiz-adv-x="450" 
d="M313 1145h-180l-211 303h223zM127 0v1032h199v-1032h-199z" />
    <glyph glyph-name="iacute" unicode="&#xed;" horiz-adv-x="450" 
d="M137 1145l168 303h221l-211 -303h-178zM127 0v1032h199v-1032h-199z" />
    <glyph glyph-name="icircumflex" unicode="&#xee;" horiz-adv-x="450" 
d="M141 1432h170l224 -287h-179l-129 158l-131 -158h-178zM127 0v1032h199v-1032h-199z" />
    <glyph glyph-name="idieresis" unicode="&#xef;" horiz-adv-x="450" 
d="M-47 1417h182v-207h-182v207zM309 1417h183v-207h-183v207zM127 0v1032h199v-1032h-199z" />
    <glyph glyph-name="eth" unicode="&#xf0;" horiz-adv-x="1163" 
d="M694 1282q193 -155 294.5 -338.5t101.5 -437.5q0 -106 -34 -200t-97 -166t-160.5 -114t-216.5 -42q-118 0 -215.5 41t-160.5 110.5t-97.5 159.5t-34.5 190q0 133 62 247.5t176.5 184.5t254.5 70q72 0 142 -23t116 -61q-73 124 -258 285l-149 -115l-86 107l129 96
q-135 105 -250 176h246q7 -5 54 -36t71 -48l139 107l88 -105zM582 158q148 0 227.5 95.5t79.5 231.5q0 87 -32 160t-103.5 121.5t-171.5 48.5q-145 0 -225.5 -97t-80.5 -233q0 -64 19.5 -122t56.5 -104t96.5 -73.5t133.5 -27.5z" />
    <glyph glyph-name="ntilde" unicode="&#xf1;" 
d="M705 1188q-51 0 -95 20.5t-79 41t-64 20.5q-30 0 -51.5 -20.5t-26.5 -53.5h-141q4 101 62 166t143 65q51 0 94.5 -20.5t77.5 -40.5t63 -20q31 0 53.5 19.5t28.5 51.5h139q-4 -103 -61 -166t-143 -63zM127 0v1032h199v-182q41 96 127.5 147.5t203.5 51.5
q174 0 279.5 -114.5t105.5 -299.5v-635h-198v596q0 123 -66.5 198.5t-175.5 75.5q-121 0 -198.5 -88t-77.5 -223v-559h-199z" />
    <glyph glyph-name="ograve" unicode="&#xf2;" horiz-adv-x="1198" 
d="M688 1145h-180l-211 303h223zM600 -16q-232 0 -382 150t-150 382t150 382.5t382 150.5q231 0 380.5 -150.5t149.5 -382.5t-149 -382t-381 -150zM600 158q146 0 237 99.5t91 258.5t-91 258.5t-237 99.5q-147 0 -238.5 -99.5t-91.5 -258.5t91.5 -258.5t238.5 -99.5z" />
    <glyph glyph-name="oacute" unicode="&#xf3;" horiz-adv-x="1198" 
d="M512 1145l168 303h221l-211 -303h-178zM600 -16q-232 0 -382 150t-150 382t150 382.5t382 150.5q231 0 380.5 -150.5t149.5 -382.5t-149 -382t-381 -150zM600 158q146 0 237 99.5t91 258.5t-91 258.5t-237 99.5q-147 0 -238.5 -99.5t-91.5 -258.5t91.5 -258.5
t238.5 -99.5z" />
    <glyph glyph-name="ocircumflex" unicode="&#xf4;" horiz-adv-x="1198" 
d="M516 1432h170l223 -287h-178l-129 158l-131 -158h-178zM600 -16q-232 0 -382 150t-150 382t150 382.5t382 150.5q231 0 380.5 -150.5t149.5 -382.5t-149 -382t-381 -150zM600 158q146 0 237 99.5t91 258.5t-91 258.5t-237 99.5q-147 0 -238.5 -99.5t-91.5 -258.5
t91.5 -258.5t238.5 -99.5z" />
    <glyph glyph-name="otilde" unicode="&#xf5;" horiz-adv-x="1198" 
d="M725 1188q-51 0 -95 20.5t-79 41t-64 20.5q-30 0 -51 -20.5t-26 -53.5h-142q4 101 62 166t143 65q51 0 94.5 -20.5t78 -40.5t63.5 -20q31 0 53.5 19.5t28.5 51.5h139q-4 -103 -61.5 -166t-143.5 -63zM600 -16q-232 0 -382 150t-150 382t150 382.5t382 150.5
q231 0 380.5 -150.5t149.5 -382.5t-149 -382t-381 -150zM600 158q146 0 237 99.5t91 258.5t-91 258.5t-237 99.5q-147 0 -238.5 -99.5t-91.5 -258.5t91.5 -258.5t238.5 -99.5z" />
    <glyph glyph-name="odieresis" unicode="&#xf6;" horiz-adv-x="1198" 
d="M328 1417h182v-207h-182v207zM684 1417h182v-207h-182v207zM600 -16q-232 0 -382 150t-150 382t150 382.5t382 150.5q231 0 380.5 -150.5t149.5 -382.5t-149 -382t-381 -150zM600 158q146 0 237 99.5t91 258.5t-91 258.5t-237 99.5q-147 0 -238.5 -99.5t-91.5 -258.5
t91.5 -258.5t238.5 -99.5z" />
    <glyph glyph-name="divide" unicode="&#xf7;" horiz-adv-x="1271" 
d="M526 1169h219v-221h-219v221zM145 563v172h981v-172h-981zM526 344h219v-221h-219v221z" />
    <glyph glyph-name="oslash" unicode="&#xf8;" horiz-adv-x="1218" 
d="M600 1049q231 0 380.5 -150.5t149.5 -382.5t-149 -382t-381 -150t-382 150t-150 382t150 382.5t382 150.5zM600 874q-147 0 -238.5 -99.5t-91.5 -258.5q0 -123 56 -209l450 518q-77 49 -176 49zM600 158q146 0 237 99.5t91 258.5q0 114 -49 201l-449 -514q73 -45 170 -45
z" />
    <glyph glyph-name="ugrave" unicode="&#xf9;" 
d="M674 1145h-180l-211 303h223zM1042 1032v-1032h-198v182q-41 -96 -128 -147t-204 -51q-174 0 -279.5 114t-105.5 299v635h199v-596q0 -123 66 -198.5t175 -75.5q121 0 199 88t78 223v559h198z" />
    <glyph glyph-name="uacute" unicode="&#xfa;" 
d="M496 1145l168 303h221l-211 -303h-178zM1042 1032v-1032h-198v182q-41 -96 -128 -147t-204 -51q-174 0 -279.5 114t-105.5 299v635h199v-596q0 -123 66 -198.5t175 -75.5q121 0 199 88t78 223v559h198z" />
    <glyph glyph-name="ucircumflex" unicode="&#xfb;" 
d="M502 1432h170l223 -287h-178l-129 158l-131 -158h-178zM1042 1032v-1032h-198v182q-41 -96 -128 -147t-204 -51q-174 0 -279.5 114t-105.5 299v635h199v-596q0 -123 66 -198.5t175 -75.5q121 0 199 88t78 223v559h198z" />
    <glyph glyph-name="udieresis" unicode="&#xfc;" 
d="M311 1417h183v-207h-183v207zM668 1417h182v-207h-182v207zM1042 1032v-1032h-198v182q-41 -96 -128 -147t-204 -51q-174 0 -279.5 114t-105.5 299v635h199v-596q0 -123 66 -198.5t175 -75.5q121 0 199 88t78 223v559h198z" />
    <glyph glyph-name="yacute" unicode="&#xfd;" horiz-adv-x="997" 
d="M809 1448l-211 -303h-178l168 303h221zM975 1032l-363 -995l-155 -455h-191l140 408l-383 1042h204l271 -774l272 774h205z" />
    <glyph glyph-name="thorn" unicode="&#xfe;" horiz-adv-x="1232" 
d="M137 -418v1862h201v-539q59 66 147.5 105t180.5 39q228 0 358.5 -148.5t130.5 -384.5q0 -235 -134 -383.5t-364 -148.5q-101 0 -189 36t-130 91v-529h-201zM637 158q150 0 233.5 97.5t83.5 260.5q0 160 -84 259t-233 99q-150 0 -232.5 -98.5t-82.5 -259.5
q0 -163 82 -260.5t233 -97.5z" />
    <glyph glyph-name="ydieresis" unicode="&#xff;" horiz-adv-x="997" 
d="M418 1417v-207h-182v207h182zM774 1417v-207h-182v207h182zM975 1032l-363 -995l-155 -455h-191l140 408l-383 1042h204l271 -774l272 774h205z" />
    <glyph glyph-name="Amacron" unicode="&#x100;" horiz-adv-x="1349" 
d="M950 1767v-159h-553v159h553zM1116 0l-137 365h-608l-138 -365h-219l564 1434h196l563 -1434h-221zM442 551h467l-233 616z" />
    <glyph glyph-name="amacron" unicode="&#x101;" horiz-adv-x="1077" 
d="M821 1366v-160h-553v160h553zM532 1049q199 0 321 -105.5t122 -277.5v-666h-199v168q-37 -84 -128 -134t-208 -50q-158 0 -254 86t-96 225q0 149 109 235t293 86h215q34 0 51.5 16.5t17.5 45.5q0 96 -66 153.5t-184 57.5q-105 0 -177 -57.5t-77 -137.5h-184
q12 153 137 254t307 101zM479 141q140 0 218.5 84t78.5 228v24h-266q-102 0 -162.5 -48t-60.5 -130q0 -71 53 -114.5t139 -43.5z" />
    <glyph glyph-name="Abreve" unicode="&#x102;" horiz-adv-x="1349" 
d="M676 1546q-129 0 -212 83t-83 206h162q0 -64 37 -103.5t96 -39.5t97 39.5t38 103.5h162q0 -123 -84 -206t-213 -83zM1116 0l-137 365h-608l-138 -365h-219l564 1434h196l563 -1434h-221zM442 551h467l-233 616z" />
    <glyph glyph-name="abreve" unicode="&#x103;" horiz-adv-x="1077" 
d="M547 1145q-129 0 -212 83t-83 206h162q0 -64 37 -104t96 -40t97 40t38 104h162q0 -123 -84 -206t-213 -83zM532 1049q199 0 321 -105.5t122 -277.5v-666h-199v168q-37 -84 -128 -134t-208 -50q-158 0 -254 86t-96 225q0 149 109 235t293 86h215q34 0 51.5 16.5t17.5 45.5
q0 96 -66 153.5t-184 57.5q-105 0 -177 -57.5t-77 -137.5h-184q12 153 137 254t307 101zM479 141q140 0 218.5 84t78.5 228v24h-266q-102 0 -162.5 -48t-60.5 -130q0 -71 53 -114.5t139 -43.5z" />
    <glyph glyph-name="Aogonek" unicode="&#x104;" horiz-adv-x="1349" 
d="M1372 -170l80 -106q-81 -99 -205 -99q-88 0 -140 47t-52 123q0 58 37 113.5t102 91.5h-78l-137 365h-608l-138 -365h-219l564 1434h196l563 -1434h-2q-64 -49 -92.5 -87t-28.5 -73q0 -29 18 -45t48 -16q44 0 92 51zM442 551h467l-233 616z" />
    <glyph glyph-name="aogonek" unicode="&#x105;" horiz-adv-x="1077" 
d="M1010 -170l80 -106q-81 -99 -205 -99q-88 0 -140.5 47t-52.5 123q0 58 37 113.5t102 91.5h-55v168q-37 -84 -128 -134t-208 -50q-158 0 -254 86t-96 225q0 149 109 235t293 86h215q34 0 51.5 16.5t17.5 45.5q0 96 -66 153.5t-184 57.5q-105 0 -177 -57.5t-77 -137.5h-184
q12 153 137 254t307 101q199 0 321 -105.5t122 -277.5v-666h-2q-64 -49 -92.5 -87t-28.5 -73q0 -29 18 -45t48 -16q44 0 92 51zM479 141q140 0 218.5 84t78.5 228v24h-266q-102 0 -162.5 -48t-60.5 -130q0 -71 53 -114.5t139 -43.5z" />
    <glyph glyph-name="Cacute" unicode="&#x106;" horiz-adv-x="1466" 
d="M676 1546l168 303h221l-211 -303h-178zM780 -16q-112 0 -214.5 28.5t-191.5 88.5t-154 145t-102.5 206t-37.5 265t38 265t103.5 206t154.5 145t191 88.5t213 28.5q245 0 419.5 -133.5t203.5 -343.5h-223q-19 126 -132 207.5t-270 81.5q-215 0 -347 -143t-132 -402
t132 -402t347 -143q160 0 274.5 81.5t131.5 207.5h215q-15 -139 -99 -247.5t-220 -169t-300 -60.5z" />
    <glyph glyph-name="cacute" unicode="&#x107;" horiz-adv-x="1120" 
d="M483 1145l168 303h221l-210 -303h-179zM580 -16q-119 0 -217 43t-162 116.5t-98.5 169.5t-34.5 203q0 108 34.5 204t98.5 169.5t162 116.5t217 43q186 0 322 -103t157 -274h-199q-13 87 -92 144.5t-184 57.5q-149 0 -229.5 -100.5t-80.5 -257.5q0 -156 81 -257t229 -101
q105 0 179 51t99 139h197q-25 -164 -154.5 -264t-324.5 -100z" />
    <glyph glyph-name="Ccircumflex" unicode="&#x108;" horiz-adv-x="1466" 
d="M680 1833h170l223 -287h-178l-129 158l-131 -158h-178zM780 -16q-112 0 -214.5 28.5t-191.5 88.5t-154 145t-102.5 206t-37.5 265t38 265t103.5 206t154.5 145t191 88.5t213 28.5q245 0 419.5 -133.5t203.5 -343.5h-223q-19 126 -132 207.5t-270 81.5q-215 0 -347 -143
t-132 -402t132 -402t347 -143q160 0 274.5 81.5t131.5 207.5h215q-15 -139 -99 -247.5t-220 -169t-300 -60.5z" />
    <glyph glyph-name="ccircumflex" unicode="&#x109;" horiz-adv-x="1120" 
d="M489 1432h170l224 -287h-178l-130 158l-131 -158h-178zM580 -16q-119 0 -217 43t-162 116.5t-98.5 169.5t-34.5 203q0 108 34.5 204t98.5 169.5t162 116.5t217 43q186 0 322 -103t157 -274h-199q-13 87 -92 144.5t-184 57.5q-149 0 -229.5 -100.5t-80.5 -257.5
q0 -156 81 -257t229 -101q105 0 179 51t99 139h197q-25 -164 -154.5 -264t-324.5 -100z" />
    <glyph glyph-name="Cdotaccent" unicode="&#x10a;" horiz-adv-x="1466" 
d="M653 1866h221v-250h-221v250zM780 -16q-112 0 -214.5 28.5t-191.5 88.5t-154 145t-102.5 206t-37.5 265t38 265t103.5 206t154.5 145t191 88.5t213 28.5q245 0 419.5 -133.5t203.5 -343.5h-223q-19 126 -132 207.5t-270 81.5q-215 0 -347 -143t-132 -402t132 -402
t347 -143q160 0 274.5 81.5t131.5 207.5h215q-15 -139 -99 -247.5t-220 -169t-300 -60.5z" />
    <glyph glyph-name="cdotaccent" unicode="&#x10b;" horiz-adv-x="1120" 
d="M463 1464h221v-250h-221v250zM580 -16q-119 0 -217 43t-162 116.5t-98.5 169.5t-34.5 203q0 108 34.5 204t98.5 169.5t162 116.5t217 43q186 0 322 -103t157 -274h-199q-13 87 -92 144.5t-184 57.5q-149 0 -229.5 -100.5t-80.5 -257.5q0 -156 81 -257t229 -101
q105 0 179 51t99 139h197q-25 -164 -154.5 -264t-324.5 -100z" />
    <glyph glyph-name="Ccaron" unicode="&#x10c;" horiz-adv-x="1466" 
d="M678 1548l-223 287h176l131 -158l129 158h180l-223 -287h-170zM780 -16q-112 0 -214.5 28.5t-191.5 88.5t-154 145t-102.5 206t-37.5 265t38 265t103.5 206t154.5 145t191 88.5t213 28.5q245 0 419.5 -133.5t203.5 -343.5h-223q-19 126 -132 207.5t-270 81.5
q-215 0 -347 -143t-132 -402t132 -402t347 -143q160 0 274.5 81.5t131.5 207.5h215q-15 -139 -99 -247.5t-220 -169t-300 -60.5z" />
    <glyph glyph-name="ccaron" unicode="&#x10d;" horiz-adv-x="1120" 
d="M485 1147l-223 287h176l131 -158l129 158h181l-224 -287h-170zM580 -16q-119 0 -217 43t-162 116.5t-98.5 169.5t-34.5 203q0 108 34.5 204t98.5 169.5t162 116.5t217 43q186 0 322 -103t157 -274h-199q-13 87 -92 144.5t-184 57.5q-149 0 -229.5 -100.5t-80.5 -257.5
q0 -156 81 -257t229 -101q105 0 179 51t99 139h197q-25 -164 -154.5 -264t-324.5 -100z" />
    <glyph glyph-name="Dcaron" unicode="&#x10e;" horiz-adv-x="1388" 
d="M506 1548l-223 287h176l131 -158l129 158h180l-223 -287h-170zM145 0v1434h441q151 0 281.5 -47t229.5 -135.5t155.5 -226t56.5 -308.5t-56.5 -308.5t-155.5 -226t-229.5 -135.5t-281.5 -47h-441zM358 188h215q103 0 193.5 30t164 91.5t116.5 166t43 241.5
q0 110 -28.5 200t-77 150t-115 101t-140.5 59t-156 18h-215v-1057z" />
    <glyph glyph-name="dcaron" unicode="&#x10f;" horiz-adv-x="1409" 
d="M1169 1147l66 364h184l-139 -364h-111zM563 -16q-232 0 -363.5 148t-131.5 384t131 384.5t362 148.5q105 0 193.5 -46t134.5 -122v583h198v-1464h-198v154q-46 -77 -135 -123.5t-191 -46.5zM586 158q144 0 230.5 98t86.5 260t-86.5 260t-230.5 98q-142 0 -229 -98.5
t-87 -259.5t87 -259.5t229 -98.5z" />
    <glyph glyph-name="Dcroat" unicode="&#x110;" horiz-adv-x="1552" 
d="M750 1434q151 0 281.5 -47t229.5 -135.5t155.5 -226t56.5 -308.5t-56.5 -308.5t-155.5 -226t-229.5 -135.5t-281.5 -47h-441v641h-203v160h203v633h441zM737 188q103 0 193 30t164 91.5t116.5 166t42.5 241.5q0 110 -28.5 200t-76.5 150t-114.5 101t-140.5 59t-156 18
h-215v-444h363v-160h-363v-453h215z" />
    <glyph glyph-name="dcroat" unicode="&#x111;" horiz-adv-x="1222" 
d="M1282 1288v-147h-195v-1141h-198v154q-46 -77 -135 -123.5t-191 -46.5q-232 0 -363.5 148t-131.5 384t131 384.5t362 148.5q105 0 193.5 -46t134.5 -122v260h-385v147h385v176h198v-176h195zM586 158q144 0 230.5 98t86.5 260t-86.5 260t-230.5 98q-142 0 -229 -98.5
t-87 -259.5t87 -259.5t229 -98.5z" />
    <glyph glyph-name="Emacron" unicode="&#x112;" 
d="M332 1608v159h553v-159h-553zM145 0v1434h920v-189h-707v-411h572v-189h-572v-457h729v-188h-942z" />
    <glyph glyph-name="emacron" unicode="&#x113;" horiz-adv-x="1130" 
d="M844 1366v-160h-553v160h553zM864 336h199q-28 -160 -157.5 -256t-319.5 -96q-155 0 -274.5 75t-181.5 196.5t-62 266.5q0 146 57 264.5t171.5 190.5t268.5 72q116 0 210.5 -39.5t154.5 -107.5t92.5 -156t32.5 -187q0 -42 -4 -78h-789q12 -147 100.5 -237t223.5 -90
q114 0 185 47t93 135zM565 889q-122 0 -198 -66.5t-99 -195.5h586q-9 120 -86 191t-203 71z" />
    <glyph glyph-name="Ebreve" unicode="&#x114;" 
d="M608 1546q-129 0 -212 83t-83 206h162q0 -64 37 -103.5t96 -39.5t97 39.5t38 103.5h162q0 -123 -84 -206t-213 -83zM145 0v1434h920v-189h-707v-411h572v-189h-572v-457h729v-188h-942z" />
    <glyph glyph-name="ebreve" unicode="&#x115;" horiz-adv-x="1130" 
d="M569 1145q-129 0 -212 83t-83 206h162q0 -64 37 -104t96 -40t97.5 40t38.5 104h161q0 -123 -84 -206t-213 -83zM864 336h199q-28 -160 -157.5 -256t-319.5 -96q-155 0 -274.5 75t-181.5 196.5t-62 266.5q0 146 57 264.5t171.5 190.5t268.5 72q116 0 210.5 -39.5
t154.5 -107.5t92.5 -156t32.5 -187q0 -42 -4 -78h-789q12 -147 100.5 -237t223.5 -90q114 0 185 47t93 135zM565 889q-122 0 -198 -66.5t-99 -195.5h586q-9 120 -86 191t-203 71z" />
    <glyph glyph-name="Edotaccent" unicode="&#x116;" 
d="M500 1866h221v-250h-221v250zM145 0v1434h920v-189h-707v-411h572v-189h-572v-457h729v-188h-942z" />
    <glyph glyph-name="edotaccent" unicode="&#x117;" horiz-adv-x="1130" 
d="M680 1464v-250h-221v250h221zM864 336h199q-28 -160 -157.5 -256t-319.5 -96q-155 0 -274.5 75t-181.5 196.5t-62 266.5q0 146 57 264.5t171.5 190.5t268.5 72q116 0 210.5 -39.5t154.5 -107.5t92.5 -156t32.5 -187q0 -42 -4 -78h-789q12 -147 100.5 -237t223.5 -90
q114 0 185 47t93 135zM565 889q-122 0 -198 -66.5t-99 -195.5h586q-9 120 -86 191t-203 71z" />
    <glyph glyph-name="Eogonek" unicode="&#x118;" 
d="M1124 -170l80 -106q-81 -99 -205 -99q-88 0 -140 47t-52 123q0 58 37 113.5t102 91.5h-801v1434h920v-189h-707v-411h572v-189h-572v-457h729v-188q-120 -92 -120 -160q0 -29 17.5 -45t47.5 -16q44 0 92 51z" />
    <glyph glyph-name="eogonek" unicode="&#x119;" horiz-adv-x="1130" 
d="M715 -4q-62 -47 -89.5 -83.5t-27.5 -72.5q0 -29 18 -45t48 -16q44 0 92 51l80 -106q-81 -99 -205 -99q-88 0 -140.5 47t-52.5 123q0 52 30 102.5t85 86.5q-146 9 -258 85.5t-169.5 195t-57.5 257.5q0 146 57 264.5t171.5 190.5t268.5 72q116 0 210.5 -39.5t154.5 -107.5
t92.5 -156t32.5 -187q0 -42 -4 -78h-789q12 -147 100.5 -237t223.5 -90q114 0 185 47t93 135h199q-23 -131 -115.5 -221t-232.5 -119zM565 889q-122 0 -198 -66.5t-99 -195.5h586q-9 120 -86 191t-203 71z" />
    <glyph glyph-name="Ecaron" unicode="&#x11a;" 
d="M524 1548l-223 287h176l131 -158l129 158h181l-224 -287h-170zM145 0v1434h920v-189h-707v-411h572v-189h-572v-457h729v-188h-942z" />
    <glyph glyph-name="ecaron" unicode="&#x11b;" horiz-adv-x="1130" 
d="M653 1147h-170l-223 287h176l131 -158l129 158h181zM864 336h199q-28 -160 -157.5 -256t-319.5 -96q-155 0 -274.5 75t-181.5 196.5t-62 266.5q0 146 57 264.5t171.5 190.5t268.5 72q116 0 210.5 -39.5t154.5 -107.5t92.5 -156t32.5 -187q0 -42 -4 -78h-789
q12 -147 100.5 -237t223.5 -90q114 0 185 47t93 135zM565 889q-122 0 -198 -66.5t-99 -195.5h586q-9 120 -86 191t-203 71z" />
    <glyph glyph-name="Gcircumflex" unicode="&#x11c;" horiz-adv-x="1505" 
d="M672 1833h170l223 -287h-178l-129 158l-131 -158h-178zM774 -16q-109 0 -210 29t-189 89t-153.5 145.5t-103.5 206t-38 263.5t38.5 263.5t104.5 206t155.5 145.5t191.5 89t212 29q253 0 428 -135.5t197 -347.5h-221q-22 131 -134 213t-270 82q-218 0 -353.5 -144.5
t-135.5 -400.5q0 -257 135.5 -404t351.5 -147q110 0 205 40t154 113.5t59 163.5q0 42 -26 68.5t-70 26.5h-311v172h364q93 0 170.5 -67t77.5 -175v-508h-193v242q-46 -116 -165 -187t-271 -71z" />
    <glyph glyph-name="gcircumflex" unicode="&#x11d;" horiz-adv-x="1232" 
d="M608 1303l-131 -158h-178l223 287h170l223 -287h-178zM899 1032h199v-1081q0 -163 -107 -266t-276 -103h-498v166h477q89 0 147 60.5t58 154.5v168q-37 -66 -127 -106.5t-199 -40.5q-232 0 -363.5 148t-131.5 384t131 384.5t362 148.5q101 0 190.5 -42.5t137.5 -111.5
v137zM596 158q145 0 231 97.5t86 260.5t-86 260.5t-231 97.5q-143 0 -229 -97.5t-86 -260.5t86 -260.5t229 -97.5z" />
    <glyph glyph-name="Gbreve" unicode="&#x11e;" horiz-adv-x="1505" 
d="M756 1546q-129 0 -212 83t-83 206h162q0 -64 37 -103.5t96 -39.5t97 39.5t38 103.5h162q0 -123 -84 -206t-213 -83zM774 -16q-109 0 -210 29t-189 89t-153.5 145.5t-103.5 206t-38 263.5t38.5 263.5t104.5 206t155.5 145.5t191.5 89t212 29q253 0 428 -135.5t197 -347.5
h-221q-22 131 -134 213t-270 82q-218 0 -353.5 -144.5t-135.5 -400.5q0 -257 135.5 -404t351.5 -147q110 0 205 40t154 113.5t59 163.5q0 42 -26 68.5t-70 26.5h-311v172h364q93 0 170.5 -67t77.5 -175v-508h-193v242q-46 -116 -165 -187t-271 -71z" />
    <glyph glyph-name="gbreve" unicode="&#x11f;" horiz-adv-x="1232" 
d="M604 1145q-129 0 -212 83t-83 206h162q0 -64 37 -104t96 -40t97 40t38 104h162q0 -123 -84 -206t-213 -83zM899 1032h199v-1081q0 -163 -107 -266t-276 -103h-498v166h477q89 0 147 60.5t58 154.5v168q-37 -66 -127 -106.5t-199 -40.5q-232 0 -363.5 148t-131.5 384
t131 384.5t362 148.5q101 0 190.5 -42.5t137.5 -111.5v137zM596 158q145 0 231 97.5t86 260.5t-86 260.5t-231 97.5q-143 0 -229 -97.5t-86 -260.5t86 -260.5t229 -97.5z" />
    <glyph glyph-name="Gdotaccent" unicode="&#x120;" horiz-adv-x="1505" 
d="M645 1866h221v-250h-221v250zM774 -16q-109 0 -210 29t-189 89t-153.5 145.5t-103.5 206t-38 263.5t38.5 263.5t104.5 206t155.5 145.5t191.5 89t212 29q253 0 428 -135.5t197 -347.5h-221q-22 131 -134 213t-270 82q-218 0 -353.5 -144.5t-135.5 -400.5
q0 -257 135.5 -404t351.5 -147q110 0 205 40t154 113.5t59 163.5q0 42 -26 68.5t-70 26.5h-311v172h364q93 0 170.5 -67t77.5 -175v-508h-193v242q-46 -116 -165 -187t-271 -71z" />
    <glyph glyph-name="gdotaccent" unicode="&#x121;" horiz-adv-x="1232" 
d="M717 1464v-250h-221v250h221zM899 1032h199v-1081q0 -163 -107 -266t-276 -103h-498v166h477q89 0 147 60.5t58 154.5v168q-37 -66 -127 -106.5t-199 -40.5q-232 0 -363.5 148t-131.5 384t131 384.5t362 148.5q101 0 190.5 -42.5t137.5 -111.5v137zM596 158
q145 0 231 97.5t86 260.5t-86 260.5t-231 97.5q-143 0 -229 -97.5t-86 -260.5t86 -260.5t229 -97.5z" />
    <glyph glyph-name="uni0122" unicode="&#x122;" horiz-adv-x="1505" 
d="M774 -16q-109 0 -210 29t-189 89t-153.5 145.5t-103.5 206t-38 263.5t38.5 263.5t104.5 206t155.5 145.5t191.5 89t212 29q253 0 428 -135.5t197 -347.5h-221q-22 131 -134 213t-270 82q-218 0 -353.5 -144.5t-135.5 -400.5q0 -257 135.5 -404t351.5 -147q110 0 205 40
t154 113.5t59 163.5q0 42 -26 68.5t-70 26.5h-311v172h364q93 0 170.5 -67t77.5 -175v-508h-193v242q-46 -116 -165 -187t-271 -71zM543 -434l96 295h256l-184 -295h-168z" />
    <glyph glyph-name="uni0123" unicode="&#x123;" horiz-adv-x="1232" 
d="M801 1466l-62 -311h-219l121 311h160zM899 1032h199v-1081q0 -163 -107 -266t-276 -103h-498v166h477q89 0 147 60.5t58 154.5v168q-37 -66 -127 -106.5t-199 -40.5q-232 0 -363.5 148t-131.5 384t131 384.5t362 148.5q101 0 190.5 -42.5t137.5 -111.5v137zM596 158
q145 0 231 97.5t86 260.5t-86 260.5t-231 97.5q-143 0 -229 -97.5t-86 -260.5t86 -260.5t229 -97.5z" />
    <glyph glyph-name="Hcircumflex" unicode="&#x124;" horiz-adv-x="1427" 
d="M717 1704l-131 -158h-178l223 287h170l223 -287h-178zM1069 1434h213v-1434h-213v643h-711v-643h-213v1434h213v-603h711v603z" />
    <glyph glyph-name="hcircumflex" unicode="&#x125;" horiz-adv-x="1179" 
d="M152 1833h170l223 -287h-178l-129 158l-132 -158h-178zM137 0v1464h199v-614q41 96 128 147.5t204 51.5q174 0 279.5 -114.5t105.5 -299.5v-635h-199v596q0 123 -66.5 198.5t-175.5 75.5q-121 0 -198.5 -88t-77.5 -223v-559h-199z" />
    <glyph glyph-name="Hbar" unicode="&#x126;" horiz-adv-x="1427" 
d="M1419 1292v-166h-137v-1126h-213v643h-711v-643h-213v1126h-137v166h137v142h213v-142h711v142h213v-142h137zM1069 831v295h-711v-295h711z" />
    <glyph glyph-name="hbar" unicode="&#x127;" horiz-adv-x="1159" 
d="M653 1049q174 0 279.5 -114.5t105.5 -299.5v-635h-198v596q0 123 -66.5 198.5t-175.5 75.5q-121 0 -198.5 -88t-77.5 -223v-559h-199v1165h-152v152h152v147h199v-147h278v-152h-278v-315q41 96 127.5 147.5t203.5 51.5z" />
    <glyph glyph-name="Itilde" unicode="&#x128;" horiz-adv-x="503" 
d="M377 1589q-51 0 -95 20.5t-79 41t-64 20.5q-30 0 -51.5 -20.5t-26.5 -53.5h-141q4 101 62 166.5t143 65.5q51 0 94.5 -20.5t77.5 -41t63 -20.5q31 0 53.5 20t28.5 52h140q-4 -103 -61.5 -166.5t-143.5 -63.5zM145 0v1434h213v-1434h-213z" />
    <glyph glyph-name="itilde" unicode="&#x129;" horiz-adv-x="450" 
d="M350 1188q-51 0 -95 20.5t-78.5 41t-63.5 20.5q-30 0 -51.5 -20.5t-26.5 -53.5h-141q4 101 61.5 166t142.5 65q51 0 94.5 -20.5t78 -40.5t63.5 -20q31 0 53.5 19.5t28.5 51.5h139q-4 -103 -61.5 -166t-143.5 -63zM127 0v1032h199v-1032h-199z" />
    <glyph glyph-name="Imacron" unicode="&#x12a;" horiz-adv-x="503" 
d="M-27 1608v159h553v-159h-553zM145 0v1434h213v-1434h-213z" />
    <glyph glyph-name="imacron" unicode="&#x12b;" horiz-adv-x="450" 
d="M-53 1206v160h553v-160h-553zM127 0v1032h199v-1032h-199z" />
    <glyph glyph-name="Ibreve" unicode="&#x12c;" horiz-adv-x="503" 
d="M252 1546q-129 0 -212 83t-83 206h162q0 -64 37 -103.5t96 -39.5t97 39.5t38 103.5h162q0 -123 -84 -206t-213 -83zM145 0v1434h213v-1434h-213z" />
    <glyph glyph-name="ibreve" unicode="&#x12d;" horiz-adv-x="450" 
d="M225 1145q-129 0 -212 83t-83 206h162q0 -64 37 -104t96 -40t97 40t38 104h162q0 -123 -84 -206t-213 -83zM127 0v1032h199v-1032h-199z" />
    <glyph glyph-name="Iogonek" unicode="&#x12e;" horiz-adv-x="503" 
d="M377 -170l80 -106q-81 -99 -205 -99q-88 0 -140.5 47t-52.5 123q0 58 37.5 113.5t102.5 91.5h-54v1434h213v-1434h-18q-64 -49 -92.5 -87t-28.5 -73q0 -29 18 -45t48 -16q44 0 92 51z" />
    <glyph glyph-name="iogonek" unicode="&#x12f;" horiz-adv-x="450" 
d="M336 1464v-250h-221v250h221zM362 -170l80 -106q-81 -99 -204 -99q-88 0 -140.5 47t-52.5 123q0 58 37 113.5t102 91.5h-57v1032h199v-1032q-64 -49 -92.5 -87t-28.5 -73q0 -29 17.5 -45t47.5 -16q44 0 92 51z" />
    <glyph glyph-name="Idotaccent" unicode="&#x130;" horiz-adv-x="503" 
d="M141 1866h221v-250h-221v250zM145 0v1434h213v-1434h-213z" />
    <glyph glyph-name="dotlessi" unicode="&#x131;" horiz-adv-x="450" 
d="M127 0v1032h199v-1032h-199z" />
    <glyph glyph-name="IJ" unicode="&#x132;" horiz-adv-x="1177" 
d="M145 0v1434h213v-1434h-213zM545 188h168q71 0 104 49.5t33 149.5v1047h213v-1053q0 -187 -83.5 -284t-240.5 -97h-194v188z" />
    <glyph glyph-name="ij" unicode="&#x133;" horiz-adv-x="901" 
d="M115 1214v250h221v-250h-221zM565 1464h221v-250h-221v250zM127 0v1032h199v-1032h-199zM578 1032h196v-1110q0 -168 -74.5 -254t-238.5 -86h-103v166h82q84 0 111 43.5t27 145.5v1095z" />
    <glyph glyph-name="Jcircumflex" unicode="&#x134;" horiz-adv-x="673" 
d="M369 1833h170l223 -287h-178l-129 158l-131 -158h-179zM41 188h168q71 0 104 49.5t33 149.5v1047h213v-1053q0 -188 -83.5 -284.5t-239.5 -96.5h-195v188z" />
    <glyph glyph-name="jcircumflex" unicode="&#x135;" horiz-adv-x="450" 
d="M311 1432l224 -287h-179l-129 158l-131 -158h-178l223 287h170zM127 1032h197v-1110q0 -168 -75 -254t-239 -86h-102v166h82q84 0 110.5 43.5t26.5 145.5v1095z" />
    <glyph glyph-name="uni0136" unicode="&#x136;" horiz-adv-x="1337" 
d="M713 860l604 -860h-260l-490 707l-207 -220v-487h-215v1434h215v-660l629 660h268zM418 -434l96 295h256l-184 -295h-168z" />
    <glyph glyph-name="uni0137" unicode="&#x137;" horiz-adv-x="1101" 
d="M610 629l473 -629h-245l-371 494l-129 -119v-375h-201v1464h201v-843l448 411h258zM305 -434l96 295h256l-184 -295h-168z" />
    <glyph glyph-name="kgreenlandic" unicode="&#x138;" horiz-adv-x="1101" 
d="M838 0l-371 494l-129 -119v-375h-201v1032h201v-409l455 409h251l-434 -403l473 -629h-245z" />
    <glyph glyph-name="Lacute" unicode="&#x139;" horiz-adv-x="1083" 
d="M190 1546l168 303h222l-211 -303h-179zM145 0v1434h213v-1246h699v-188h-912z" />
    <glyph glyph-name="lacute" unicode="&#x13a;" horiz-adv-x="471" 
d="M143 1546l168 303h221l-210 -303h-179zM137 0v1464h199v-1464h-199z" />
    <glyph glyph-name="uni013B" unicode="&#x13b;" horiz-adv-x="1083" 
d="M145 0v1434h213v-1246h699v-188h-912zM414 -434l96 295h256l-184 -295h-168z" />
    <glyph glyph-name="uni013C" unicode="&#x13c;" horiz-adv-x="471" 
d="M137 0v1464h199v-1464h-199zM18 -434l97 295h256l-185 -295h-168z" />
    <glyph glyph-name="Lcaron" unicode="&#x13d;" horiz-adv-x="1083" 
d="M637 1147l65 364h185l-139 -364h-111zM145 0v1434h213v-1246h699v-188h-912z" />
    <glyph glyph-name="lcaron" unicode="&#x13e;" horiz-adv-x="638" 
d="M379 1147l65 364h183l-138 -364h-110zM117 0v1464h198v-1464h-198z" />
    <glyph glyph-name="Ldot" unicode="&#x13f;" horiz-adv-x="1083" 
d="M145 0v1434h213v-1246h699v-188h-912zM594 844h221v-250h-221v250z" />
    <glyph glyph-name="ldot" unicode="&#x140;" horiz-adv-x="720" 
d="M117 0v1464h198v-1464h-198zM428 834h221v-250h-221v250z" />
    <glyph glyph-name="Lslash" unicode="&#x141;" horiz-adv-x="1083" 
d="M358 188h699v-188h-912v631l-149 -39v158l149 38v646h213v-592l160 41v-158l-160 -41v-496z" />
    <glyph glyph-name="lslash" unicode="&#x142;" horiz-adv-x="471" 
d="M496 856v-158l-160 -41v-657h-199v606l-164 -41v158l164 41v700h199v-649z" />
    <glyph glyph-name="Nacute" unicode="&#x143;" horiz-adv-x="1431" 
d="M629 1546l168 303h221l-211 -303h-178zM145 0v1434h238l690 -1104v1104h213v-1434h-235l-693 1102v-1102h-213z" />
    <glyph glyph-name="nacute" unicode="&#x144;" 
d="M492 1145l167 303h222l-211 -303h-178zM127 0v1032h199v-182q41 96 127.5 147.5t203.5 51.5q174 0 279.5 -114.5t105.5 -299.5v-635h-198v596q0 123 -66.5 198.5t-175.5 75.5q-121 0 -198.5 -88t-77.5 -223v-559h-199z" />
    <glyph glyph-name="uni0145" unicode="&#x145;" horiz-adv-x="1431" 
d="M145 0v1434h238l690 -1104v1104h213v-1434h-235l-693 1102v-1102h-213zM504 -434l96 295h256l-184 -295h-168z" />
    <glyph glyph-name="uni0146" unicode="&#x146;" 
d="M127 0v1032h199v-182q41 96 127.5 147.5t203.5 51.5q174 0 279.5 -114.5t105.5 -299.5v-635h-198v596q0 123 -66.5 198.5t-175.5 75.5q-121 0 -198.5 -88t-77.5 -223v-559h-199zM367 -434l96 295h256l-184 -295h-168z" />
    <glyph glyph-name="Ncaron" unicode="&#x147;" horiz-adv-x="1431" 
d="M633 1548l-223 287h176l131 -158l129 158h180l-223 -287h-170zM145 0v1434h238l690 -1104v1104h213v-1434h-235l-693 1102v-1102h-213z" />
    <glyph glyph-name="ncaron" unicode="&#x148;" 
d="M494 1147l-224 287h176l132 -158l129 158h180l-223 -287h-170zM127 0v1032h199v-182q41 96 127.5 147.5t203.5 51.5q174 0 279.5 -114.5t105.5 -299.5v-635h-198v596q0 123 -66.5 198.5t-175.5 75.5q-121 0 -198.5 -88t-77.5 -223v-559h-199z" />
    <glyph glyph-name="Eng" unicode="&#x14a;" horiz-adv-x="1431" 
d="M1073 1434h213v-1471q0 -187 -83 -284t-238 -97h-197v189h168q71 0 104 49t33 149v6l-715 1121v-1096h-213v1434h238l690 -1098v1098z" />
    <glyph glyph-name="eng" unicode="&#x14b;" horiz-adv-x="1179" 
d="M657 1049q174 0 279.5 -114.5t105.5 -299.5v-723q0 -159 -105.5 -255t-274.5 -83v178q93 -6 137.5 42t44.5 153v649q0 123 -66.5 198.5t-175.5 75.5q-121 0 -198.5 -88t-77.5 -223v-559h-199v1032h199v-182q41 96 127.5 147.5t203.5 51.5z" />
    <glyph glyph-name="Omacron" unicode="&#x14c;" horiz-adv-x="1585" 
d="M514 1608v159h553v-159h-553zM793 -16q-152 0 -284 55.5t-226.5 152.5t-148.5 233t-54 292t54 292t148.5 233t226.5 152.5t284 55.5q201 0 363.5 -94.5t254.5 -262.5t92 -376t-92 -376t-254.5 -262.5t-363.5 -94.5zM793 172q213 0 353 155t140 390t-140 390t-353 155
q-141 0 -254.5 -70.5t-177.5 -195.5t-64 -279t64 -279t177.5 -195.5t254.5 -70.5z" />
    <glyph glyph-name="omacron" unicode="&#x14d;" horiz-adv-x="1198" 
d="M322 1206v160h552v-160h-552zM600 -16q-232 0 -382 150t-150 382t150 382.5t382 150.5q231 0 380.5 -150.5t149.5 -382.5t-149 -382t-381 -150zM600 158q146 0 237 99.5t91 258.5t-91 258.5t-237 99.5q-147 0 -238.5 -99.5t-91.5 -258.5t91.5 -258.5t238.5 -99.5z" />
    <glyph glyph-name="Obreve" unicode="&#x14e;" horiz-adv-x="1585" 
d="M793 1546q-129 0 -212 83t-83 206h161q0 -64 37.5 -103.5t96.5 -39.5t97 39.5t38 103.5h162q0 -123 -84 -206t-213 -83zM793 -16q-152 0 -284 55.5t-226.5 152.5t-148.5 233t-54 292t54 292t148.5 233t226.5 152.5t284 55.5q201 0 363.5 -94.5t254.5 -262.5t92 -376
t-92 -376t-254.5 -262.5t-363.5 -94.5zM793 172q213 0 353 155t140 390t-140 390t-353 155q-141 0 -254.5 -70.5t-177.5 -195.5t-64 -279t64 -279t177.5 -195.5t254.5 -70.5z" />
    <glyph glyph-name="obreve" unicode="&#x14f;" horiz-adv-x="1198" 
d="M600 1145q-129 0 -212 83t-83 206h162q0 -64 37 -104t96 -40t97 40t38 104h162q0 -123 -84 -206t-213 -83zM600 -16q-232 0 -382 150t-150 382t150 382.5t382 150.5q231 0 380.5 -150.5t149.5 -382.5t-149 -382t-381 -150zM600 158q146 0 237 99.5t91 258.5t-91 258.5
t-237 99.5q-147 0 -238.5 -99.5t-91.5 -258.5t91.5 -258.5t238.5 -99.5z" />
    <glyph glyph-name="Ohungarumlaut" unicode="&#x150;" horiz-adv-x="1585" 
d="M557 1546l168 303h223l-211 -303h-180zM860 1546l168 303h223l-211 -303h-180zM793 -16q-152 0 -284 55.5t-226.5 152.5t-148.5 233t-54 292t54 292t148.5 233t226.5 152.5t284 55.5q201 0 363.5 -94.5t254.5 -262.5t92 -376t-92 -376t-254.5 -262.5t-363.5 -94.5z
M793 172q213 0 353 155t140 390t-140 390t-353 155q-141 0 -254.5 -70.5t-177.5 -195.5t-64 -279t64 -279t177.5 -195.5t254.5 -70.5z" />
    <glyph glyph-name="ohungarumlaut" unicode="&#x151;" horiz-adv-x="1198" 
d="M362 1145l168 303h224l-211 -303h-181zM666 1145l168 303h223l-211 -303h-180zM600 -16q-232 0 -382 150t-150 382t150 382.5t382 150.5q231 0 380.5 -150.5t149.5 -382.5t-149 -382t-381 -150zM600 158q146 0 237 99.5t91 258.5t-91 258.5t-237 99.5
q-147 0 -238.5 -99.5t-91.5 -258.5t91.5 -258.5t238.5 -99.5z" />
    <glyph glyph-name="OE" unicode="&#x152;" horiz-adv-x="2056" 
d="M1245 188h729v-188h-1171q-151 0 -281.5 47t-229.5 135.5t-155.5 226t-56.5 308.5t56.5 308.5t155.5 226t229.5 135.5t281.5 47h1149v-189h-707v-411h572v-189h-572v-457zM1030 188v1057h-215q-82 0 -156 -18t-140.5 -59t-114.5 -101t-76.5 -150t-28.5 -200
q0 -137 42.5 -241.5t116.5 -166t164 -91.5t193 -30h215z" />
    <glyph glyph-name="oe" unicode="&#x153;" horiz-adv-x="2025" 
d="M1745 336h199q-28 -160 -158 -256t-322 -96q-137 0 -246.5 60t-177.5 163q-70 -105 -184.5 -164t-255.5 -59q-232 0 -382 150t-150 382t150 382.5t382 150.5q137 0 249.5 -56.5t184.5 -156.5q63 100 169 156.5t243 56.5q116 0 210.5 -39.5t154.5 -107.5t92 -156t32 -187
q0 -42 -4 -78h-788q11 -147 98.5 -237t222.5 -90q115 0 186.5 47t94.5 135zM1446 889q-122 0 -198 -66.5t-99 -195.5h584q-8 120 -84.5 191t-202.5 71zM600 158q146 0 237 99.5t91 258.5t-91 258.5t-237 99.5q-147 0 -238.5 -99.5t-91.5 -258.5t91.5 -258.5t238.5 -99.5z
" />
    <glyph glyph-name="Racute" unicode="&#x154;" horiz-adv-x="1337" 
d="M911 1849l-211 -303h-178l168 303h221zM961 680q79 -46 126.5 -128t53.5 -185l28 -367h-206l-29 348q-8 96 -67 156.5t-150 60.5h-359v-565h-213v1434h562q214 0 339 -118t125 -312q0 -112 -55.5 -193.5t-154.5 -130.5zM358 1249v-495h342q89 0 149 36.5t84.5 91
t24.5 122.5q0 107 -63.5 176t-194.5 69h-342z" />
    <glyph glyph-name="racute" unicode="&#x155;" horiz-adv-x="761" 
d="M348 1145l168 303h221l-211 -303h-178zM725 860h-150q-249 0 -249 -393v-467h-199v1032h199v-198q35 103 100.5 150.5t173.5 47.5h125v-172z" />
    <glyph glyph-name="uni0156" unicode="&#x156;" horiz-adv-x="1337" 
d="M961 680q79 -46 126.5 -128t53.5 -185l28 -367h-206l-29 348q-8 96 -67 156.5t-150 60.5h-359v-565h-213v1434h562q214 0 339 -118t125 -312q0 -112 -55.5 -193.5t-154.5 -130.5zM358 1249v-495h342q89 0 149 36.5t84.5 91t24.5 122.5q0 107 -63.5 176t-194.5 69h-342z
M430 -434l96 295h256l-184 -295h-168z" />
    <glyph glyph-name="uni0157" unicode="&#x157;" horiz-adv-x="761" 
d="M725 860h-150q-249 0 -249 -393v-467h-199v1032h199v-198q35 103 100.5 150.5t173.5 47.5h125v-172zM8 -434l96 295h256l-184 -295h-168z" />
    <glyph glyph-name="Rcaron" unicode="&#x158;" horiz-adv-x="1337" 
d="M696 1548h-170l-223 287h176l131 -158l129 158h181zM961 680q79 -46 126.5 -128t53.5 -185l28 -367h-206l-29 348q-8 96 -67 156.5t-150 60.5h-359v-565h-213v1434h562q214 0 339 -118t125 -312q0 -112 -55.5 -193.5t-154.5 -130.5zM358 1249v-495h342q89 0 149 36.5
t84.5 91t24.5 122.5q0 107 -63.5 176t-194.5 69h-342z" />
    <glyph glyph-name="rcaron" unicode="&#x159;" horiz-adv-x="761" 
d="M350 1147l-223 287h176l131 -158l129 158h180l-223 -287h-170zM725 860h-150q-249 0 -249 -393v-467h-199v1032h199v-198q35 103 100.5 150.5t173.5 47.5h125v-172z" />
    <glyph glyph-name="Sacute" unicode="&#x15a;" horiz-adv-x="1210" 
d="M510 1546l168 303h221l-211 -303h-178zM612 -16q-241 0 -387.5 133.5t-158.5 357.5h206q12 -140 101 -221.5t239 -81.5q142 0 227 56.5t85 168.5q0 55 -28 96t-75 66.5t-108 45.5t-128.5 38t-134.5 38t-128 51.5t-108 73t-75 107.5t-28 150q0 172 136 279.5t353 107.5
q220 0 359 -117.5t153 -314.5h-207q-11 111 -92.5 177.5t-212.5 66.5q-128 0 -202 -54t-74 -145q0 -55 28 -96t75 -65.5t108.5 -43.5t129 -35.5t135.5 -35.5t129.5 -50t108.5 -73t75 -109.5t28 -155.5q0 -193 -147 -304t-382 -111z" />
    <glyph glyph-name="sacute" unicode="&#x15b;" horiz-adv-x="956" 
d="M379 1145l168 303h221l-211 -303h-178zM489 -16q-182 0 -294.5 94.5t-122.5 257.5h186q9 -89 70 -137.5t161 -48.5q87 0 141 40t54 99q0 49 -25 80.5t-66.5 45.5t-94 25t-107.5 18t-107.5 26.5t-94 48t-66.5 84.5t-25 135q0 133 102.5 215t264.5 82q175 0 285 -89
t118 -235h-186q-10 82 -75.5 124t-141.5 42q-80 0 -129 -36.5t-49 -96.5q0 -51 32.5 -81t84.5 -41.5t115 -19t126 -24t115 -46t84.5 -93.5t32.5 -160q0 -141 -106.5 -225t-281.5 -84z" />
    <glyph glyph-name="Scircumflex" unicode="&#x15c;" horiz-adv-x="1210" 
d="M514 1833h170l223 -287h-178l-129 158l-131 -158h-178zM612 -16q-241 0 -387.5 133.5t-158.5 357.5h206q12 -140 101 -221.5t239 -81.5q142 0 227 56.5t85 168.5q0 55 -28 96t-75 66.5t-108 45.5t-128.5 38t-134.5 38t-128 51.5t-108 73t-75 107.5t-28 150
q0 172 136 279.5t353 107.5q220 0 359 -117.5t153 -314.5h-207q-11 111 -92.5 177.5t-212.5 66.5q-128 0 -202 -54t-74 -145q0 -55 28 -96t75 -65.5t108.5 -43.5t129 -35.5t135.5 -35.5t129.5 -50t108.5 -73t75 -109.5t28 -155.5q0 -193 -147 -304t-382 -111z" />
    <glyph glyph-name="scircumflex" unicode="&#x15d;" horiz-adv-x="956" 
d="M385 1432h170l223 -287h-178l-129 158l-131 -158h-178zM489 -16q-182 0 -294.5 94.5t-122.5 257.5h186q9 -89 70 -137.5t161 -48.5q87 0 141 40t54 99q0 49 -25 80.5t-66.5 45.5t-94 25t-107.5 18t-107.5 26.5t-94 48t-66.5 84.5t-25 135q0 133 102.5 215t264.5 82
q175 0 285 -89t118 -235h-186q-10 82 -75.5 124t-141.5 42q-80 0 -129 -36.5t-49 -96.5q0 -51 32.5 -81t84.5 -41.5t115 -19t126 -24t115 -46t84.5 -93.5t32.5 -160q0 -141 -106.5 -225t-281.5 -84z" />
    <glyph glyph-name="Scedilla" unicode="&#x15e;" horiz-adv-x="1210" 
d="M612 -16q-241 0 -387.5 133.5t-158.5 357.5h206q12 -140 101 -221.5t239 -81.5q142 0 227 56.5t85 168.5q0 55 -28 96t-75 66.5t-108 45.5t-128.5 38t-134.5 38t-128 51.5t-108 73t-75 107.5t-28 150q0 172 136 279.5t353 107.5q220 0 359 -117.5t153 -314.5h-207
q-11 111 -92.5 177.5t-212.5 66.5q-128 0 -202 -54t-74 -145q0 -55 28 -96t75 -65.5t108.5 -43.5t129 -35.5t135.5 -35.5t129.5 -50t108.5 -73t75 -109.5t28 -155.5q0 -193 -147 -304t-382 -111zM571 -424h-239l225 305h168z" />
    <glyph glyph-name="scedilla" unicode="&#x15f;" horiz-adv-x="956" 
d="M489 -16q-182 0 -294.5 94.5t-122.5 257.5h186q9 -89 70 -137.5t161 -48.5q87 0 141 40t54 99q0 49 -25 80.5t-66.5 45.5t-94 25t-107.5 18t-107.5 26.5t-94 48t-66.5 84.5t-25 135q0 133 102.5 215t264.5 82q175 0 285 -89t118 -235h-186q-10 82 -75.5 124t-141.5 42
q-80 0 -129 -36.5t-49 -96.5q0 -51 32.5 -81t84.5 -41.5t115 -19t126 -24t115 -46t84.5 -93.5t32.5 -160q0 -141 -106.5 -225t-281.5 -84zM449 -424h-240l225 305h168z" />
    <glyph glyph-name="Scaron" unicode="&#x160;" horiz-adv-x="1210" 
d="M512 1548l-223 287h176l131 -158l129 158h180l-223 -287h-170zM612 -16q-241 0 -387.5 133.5t-158.5 357.5h206q12 -140 101 -221.5t239 -81.5q142 0 227 56.5t85 168.5q0 55 -28 96t-75 66.5t-108 45.5t-128.5 38t-134.5 38t-128 51.5t-108 73t-75 107.5t-28 150
q0 172 136 279.5t353 107.5q220 0 359 -117.5t153 -314.5h-207q-11 111 -92.5 177.5t-212.5 66.5q-128 0 -202 -54t-74 -145q0 -55 28 -96t75 -65.5t108.5 -43.5t129 -35.5t135.5 -35.5t129.5 -50t108.5 -73t75 -109.5t28 -155.5q0 -193 -147 -304t-382 -111z" />
    <glyph glyph-name="scaron" unicode="&#x161;" horiz-adv-x="956" 
d="M383 1147l-223 287h176l131 -158l129 158h180l-223 -287h-170zM489 -16q-182 0 -294.5 94.5t-122.5 257.5h186q9 -89 70 -137.5t161 -48.5q87 0 141 40t54 99q0 49 -25 80.5t-66.5 45.5t-94 25t-107.5 18t-107.5 26.5t-94 48t-66.5 84.5t-25 135q0 133 102.5 215
t264.5 82q175 0 285 -89t118 -235h-186q-10 82 -75.5 124t-141.5 42q-80 0 -129 -36.5t-49 -96.5q0 -51 32.5 -81t84.5 -41.5t115 -19t126 -24t115 -46t84.5 -93.5t32.5 -160q0 -141 -106.5 -225t-281.5 -84z" />
    <glyph glyph-name="uni0162" unicode="&#x162;" horiz-adv-x="1153" 
d="M471 0v1245h-448v189h1110v-189h-449v-1245h-213zM557 -424h-240l226 305h168z" />
    <glyph glyph-name="uni0163" unicode="&#x163;" horiz-adv-x="792" 
d="M246 1356h198v-324h306v-172h-306v-516q0 -83 42 -127.5t118 -44.5h146v-172h-162q-158 0 -250 90.5t-92 247.5v522h-211v172h211v324zM412 -424h-240l225 305h168z" />
    <glyph glyph-name="Tcaron" unicode="&#x164;" horiz-adv-x="1153" 
d="M492 1548l-224 287h176l131 -158l130 158h180l-223 -287h-170zM471 0v1245h-448v189h1110v-189h-449v-1245h-213z" />
    <glyph glyph-name="tcaron" unicode="&#x165;" horiz-adv-x="792" 
d="M598 1147l66 364h184l-139 -364h-111zM246 1356h198v-324h306v-172h-306v-516q0 -83 42 -127.5t118 -44.5h146v-172h-162q-158 0 -250 90.5t-92 247.5v522h-211v172h211v324z" />
    <glyph glyph-name="Tbar" unicode="&#x166;" horiz-adv-x="1153" 
d="M1133 1245h-449v-448h283v-160h-283v-637h-213v637h-283v160h283v448h-448v189h1110v-189z" />
    <glyph glyph-name="tbar" unicode="&#x167;" horiz-adv-x="792" 
d="M750 860h-306v-264h285v-147h-285v-105q0 -83 42 -127.5t118 -44.5h146v-172h-162q-158 0 -250 90.5t-92 247.5v111h-140v147h140v264h-211v172h211v324h198v-324h306v-172z" />
    <glyph glyph-name="Utilde" unicode="&#x168;" horiz-adv-x="1339" 
d="M797 1589q-51 0 -95 20.5t-79 41t-64 20.5q-30 0 -51.5 -20.5t-26.5 -53.5h-141q4 101 62 166.5t143 65.5q51 0 94.5 -20.5t77.5 -41t63 -20.5q31 0 53.5 20t28.5 52h139q-4 -103 -61 -166.5t-143 -63.5zM670 -16q-250 0 -399.5 137.5t-149.5 380.5v932h205v-938
q0 -151 94 -236.5t250 -85.5q158 0 252 85t94 237v938h205v-932q0 -243 -150 -380.5t-401 -137.5z" />
    <glyph glyph-name="utilde" unicode="&#x169;" 
d="M711 1188q-51 0 -95 20.5t-79 41t-64 20.5q-30 0 -51.5 -20.5t-26.5 -53.5h-141q4 101 62 166t143 65q51 0 94.5 -20.5t77.5 -40.5t63 -20q31 0 53.5 19.5t28.5 51.5h139q-4 -103 -61 -166t-143 -63zM1042 1032v-1032h-198v182q-41 -96 -128 -147t-204 -51
q-174 0 -279.5 114t-105.5 299v635h199v-596q0 -123 66 -198.5t175 -75.5q121 0 199 88t78 223v559h198z" />
    <glyph glyph-name="Umacron" unicode="&#x16a;" horiz-adv-x="1339" 
d="M393 1608v159h553v-159h-553zM670 -16q-250 0 -399.5 137.5t-149.5 380.5v932h205v-938q0 -151 94 -236.5t250 -85.5q158 0 252 85t94 237v938h205v-932q0 -243 -150 -380.5t-401 -137.5z" />
    <glyph glyph-name="umacron" unicode="&#x16b;" 
d="M307 1206v160h553v-160h-553zM1042 1032v-1032h-198v182q-41 -96 -128 -147t-204 -51q-174 0 -279.5 114t-105.5 299v635h199v-596q0 -123 66 -198.5t175 -75.5q121 0 199 88t78 223v559h198z" />
    <glyph glyph-name="Ubreve" unicode="&#x16c;" horiz-adv-x="1339" 
d="M670 1546q-129 0 -212 83t-83 206h162q0 -64 37 -103.5t96 -39.5t97 39.5t38 103.5h162q0 -123 -84 -206t-213 -83zM670 -16q-250 0 -399.5 137.5t-149.5 380.5v932h205v-938q0 -151 94 -236.5t250 -85.5q158 0 252 85t94 237v938h205v-932q0 -243 -150 -380.5
t-401 -137.5z" />
    <glyph glyph-name="ubreve" unicode="&#x16d;" 
d="M584 1145q-129 0 -212 83t-83 206h162q0 -64 37 -104t96 -40t97 40t38 104h162q0 -123 -84 -206t-213 -83zM1042 1032v-1032h-198v182q-41 -96 -128 -147t-204 -51q-174 0 -279.5 114t-105.5 299v635h199v-596q0 -123 66 -198.5t175 -75.5q121 0 199 88t78 223v559h198z
" />
    <glyph glyph-name="Uring" unicode="&#x16e;" horiz-adv-x="1339" 
d="M668 1518q-110 0 -183 67t-73 168q0 100 73 167t183 67q112 0 185 -67t73 -167q0 -102 -73 -168.5t-185 -66.5zM668 1634q57 0 92 33t35 86t-35 85t-92 32q-54 0 -89.5 -32.5t-35.5 -84.5t35.5 -85.5t89.5 -33.5zM670 -16q-250 0 -399.5 137.5t-149.5 380.5v932h205v-938
q0 -151 94 -236.5t250 -85.5q158 0 252 85t94 237v938h205v-932q0 -243 -150 -380.5t-401 -137.5z" />
    <glyph glyph-name="uring" unicode="&#x16f;" 
d="M582 1116q-110 0 -183 67.5t-73 168.5q0 100 73 166.5t183 66.5q112 0 185 -66.5t73 -166.5q0 -102 -73 -169t-185 -67zM582 1233q57 0 92 33t35 86q0 52 -35 84t-92 32q-55 0 -90 -32t-35 -84t35.5 -85.5t89.5 -33.5zM1042 1032v-1032h-198v182q-41 -96 -128 -147
t-204 -51q-174 0 -279.5 114t-105.5 299v635h199v-596q0 -123 66 -198.5t175 -75.5q121 0 199 88t78 223v559h198z" />
    <glyph glyph-name="Uhungarumlaut" unicode="&#x170;" horiz-adv-x="1339" 
d="M434 1546l168 303h223l-211 -303h-180zM737 1546l168 303h223l-210 -303h-181zM670 -16q-250 0 -399.5 137.5t-149.5 380.5v932h205v-938q0 -151 94 -236.5t250 -85.5q158 0 252 85t94 237v938h205v-932q0 -243 -150 -380.5t-401 -137.5z" />
    <glyph glyph-name="uhungarumlaut" unicode="&#x171;" 
d="M348 1145l168 303h223l-211 -303h-180zM651 1145l168 303h223l-211 -303h-180zM1042 1032v-1032h-198v182q-41 -96 -128 -147t-204 -51q-174 0 -279.5 114t-105.5 299v635h199v-596q0 -123 66 -198.5t175 -75.5q121 0 199 88t78 223v559h198z" />
    <glyph glyph-name="Uogonek" unicode="&#x172;" horiz-adv-x="1339" 
d="M1016 1434h205v-932q0 -222 -127 -357t-344 -157q-105 -84 -105 -148q0 -29 18 -45t48 -16q44 0 92 51l80 -106q-81 -99 -205 -99q-88 0 -140.5 47t-52.5 123q0 53 31 103.5t86 87.5q-222 19 -351.5 154.5t-129.5 361.5v932h205v-938q0 -151 94 -236.5t250 -85.5
q158 0 252 85t94 237v938z" />
    <glyph glyph-name="uogonek" unicode="&#x173;" 
d="M1075 -170l80 -106q-81 -99 -205 -99q-88 0 -140 47t-52 123q0 58 37 113.5t102 91.5h-53v182q-41 -96 -128 -147t-204 -51q-174 0 -279.5 114t-105.5 299v635h199v-596q0 -123 66 -198.5t175 -75.5q121 0 199 88t78 223v559h198v-1032h-4q-120 -92 -120 -160
q0 -29 17.5 -45t47.5 -16q44 0 92 51z" />
    <glyph glyph-name="Wcircumflex" unicode="&#x174;" horiz-adv-x="2052" 
d="M946 1833h170l223 -287h-178l-129 158l-131 -158h-178zM479 0l-438 1434h219l332 -1117l342 1117h184l342 -1117l334 1117h217l-436 -1434h-213l-336 1104l-336 -1104h-211z" />
    <glyph glyph-name="wcircumflex" unicode="&#x175;" horiz-adv-x="1542" 
d="M688 1432h170l223 -287h-178l-129 158l-131 -158h-178zM352 0l-319 1032h198l213 -768l234 768h188l232 -768l211 768h200l-319 -1032h-184l-236 770l-233 -770h-185z" />
    <glyph glyph-name="Ycircumflex" unicode="&#x176;" horiz-adv-x="1230" 
d="M532 1833h170l224 -287h-178l-130 158l-131 -158h-178zM508 0v598l-502 836h238l370 -633l373 633h238l-504 -836v-598h-213z" />
    <glyph glyph-name="ycircumflex" unicode="&#x177;" horiz-adv-x="997" 
d="M512 1303l-131 -158h-178l223 287h170l223 -287h-178zM975 1032l-363 -995l-155 -455h-191l140 408l-383 1042h204l271 -774l272 774h205z" />
    <glyph glyph-name="Ydieresis" unicode="&#x178;" horiz-adv-x="1230" 
d="M342 1819h182v-207h-182v207zM698 1819h183v-207h-183v207zM508 0v598l-502 836h238l370 -633l373 633h238l-504 -836v-598h-213z" />
    <glyph glyph-name="Zacute" unicode="&#x179;" horiz-adv-x="1218" 
d="M512 1546l168 303h221l-211 -303h-178zM63 0v186l844 1061h-801v187h1043v-187l-832 -1061h832v-186h-1086z" />
    <glyph glyph-name="zacute" unicode="&#x17a;" horiz-adv-x="1017" 
d="M446 1145l168 303h222l-211 -303h-179zM78 0v172l610 688h-579v172h809v-172l-605 -688h635v-172h-870z" />
    <glyph glyph-name="Zdotaccent" unicode="&#x17b;" horiz-adv-x="1218" 
d="M492 1866h221v-250h-221v250zM63 0v186l844 1061h-801v187h1043v-187l-832 -1061h832v-186h-1086z" />
    <glyph glyph-name="zdotaccent" unicode="&#x17c;" horiz-adv-x="1017" 
d="M426 1464h221v-250h-221v250zM78 0v172l610 688h-579v172h809v-172l-605 -688h635v-172h-870z" />
    <glyph glyph-name="Zcaron" unicode="&#x17d;" horiz-adv-x="1218" 
d="M516 1548l-223 287h176l131 -158l129 158h180l-223 -287h-170zM63 0v186l844 1061h-801v187h1043v-187l-832 -1061h832v-186h-1086z" />
    <glyph glyph-name="zcaron" unicode="&#x17e;" horiz-adv-x="1017" 
d="M451 1147l-224 287h176l132 -158l129 158h180l-223 -287h-170zM78 0v172l610 688h-579v172h809v-172l-605 -688h635v-172h-870z" />
    <glyph glyph-name="longs" unicode="&#x17f;" horiz-adv-x="718" 
d="M246 0v860h-211v172h211v101q0 152 92 241.5t248 89.5h170v-172h-156q-71 0 -113.5 -45t-42.5 -121v-1126h-198z" />
    <glyph glyph-name="uni018F" unicode="&#x18f;" horiz-adv-x="1511" 
d="M731 1448q203 0 364 -100t249 -270.5t88 -377.5q0 -209 -82.5 -373t-237 -257t-356.5 -93q-199 0 -350.5 86t-231.5 236.5t-80 341.5q0 44 6 98h1127q-11 228 -151.5 378.5t-344.5 150.5q-178 0 -292 -78.5t-148 -218.5h-211q35 217 211 347t440 130zM756 150
q190 0 311 112.5t150 317.5h-910q3 -188 126.5 -309t322.5 -121z" />
    <glyph glyph-name="florin" unicode="&#x192;" horiz-adv-x="1103" 
d="M924 1298q-164 3 -201 -174l-18 -92h372v-172h-409l-193 -932q-40 -188 -144.5 -267t-283.5 -79h-129v166h156q80 -2 130 38.5t70 133.5l195 940h-285v172h320l18 86q40 187 144.5 266.5t283.5 79.5h129v-168z" />
    <glyph glyph-name="Aringacute" unicode="&#x1fa;" horiz-adv-x="1349" 
d="M674 1518q-110 0 -183 67t-73 168q0 83 51 144.5t135 80.5l164 295h221l-211 -303h-4q71 -25 114.5 -84t43.5 -133q0 -102 -73 -168.5t-185 -66.5zM674 1870q-54 0 -89.5 -32.5t-35.5 -84.5t35.5 -85.5t89.5 -33.5q57 0 92 33t35 86t-35 85t-92 32zM1116 0l-137 365h-608
l-138 -365h-219l564 1434h196l563 -1434h-221zM442 551h467l-233 616z" />
    <glyph glyph-name="aringacute" unicode="&#x1fb;" horiz-adv-x="1077" 
d="M545 1116q-110 0 -183 67.5t-73 168.5q0 83 51 144.5t135 80.5l164 295h221l-211 -303h-4q71 -25 114.5 -84t43.5 -133q0 -102 -73 -169t-185 -67zM545 1468q-55 0 -90 -32t-35 -84t35.5 -85.5t89.5 -33.5q57 0 92 33t35 86q0 52 -35 84t-92 32zM532 1049
q199 0 321 -105.5t122 -277.5v-666h-199v168q-37 -84 -128 -134t-208 -50q-158 0 -254 86t-96 225q0 149 109 235t293 86h215q34 0 51.5 16.5t17.5 45.5q0 96 -66 153.5t-184 57.5q-105 0 -177 -57.5t-77 -137.5h-184q12 153 137 254t307 101zM479 141q140 0 218.5 84
t78.5 228v24h-266q-102 0 -162.5 -48t-60.5 -130q0 -71 53 -114.5t139 -43.5z" />
    <glyph glyph-name="AEacute" unicode="&#x1fc;" horiz-adv-x="1939" 
d="M1669 1849l-211 -303h-178l168 303h221zM1231 188h627v-188h-840v367h-549l-225 -367h-230l910 1434h911v-189h-604v-411h469v-189h-469v-457zM584 555h434v709z" />
    <glyph glyph-name="aeacute" unicode="&#x1fd;" horiz-adv-x="1767" 
d="M1210 1448l-211 -303h-180l168 303h223zM1571 336h198q-28 -160 -157.5 -256t-319.5 -96q-139 0 -248.5 59t-177.5 162q-117 -221 -403 -221q-173 0 -273 86t-100 223q0 159 102.5 245.5t299.5 86.5h223q61 0 61 57v4q0 91 -72.5 147t-181.5 56q-105 0 -175.5 -57.5
t-76.5 -139.5h-182q14 154 135 255.5t297 101.5q121 0 219.5 -43t157.5 -119q142 162 375 162q116 0 210.5 -39.5t154.5 -107.5t92 -156t32 -187q0 -42 -4 -78h-788q12 -147 100.5 -237t222.5 -90q114 0 185.5 47t93.5 135zM1272 889q-122 0 -198 -66.5t-99 -195.5h586
q-9 120 -86 191t-203 71zM477 141q140 0 219.5 84t79.5 228v18v12h-266q-223 0 -223 -184q0 -69 54 -113.5t136 -44.5z" />
    <glyph glyph-name="uni0218" unicode="&#x218;" horiz-adv-x="1210" 
d="M612 -16q-241 0 -387.5 133.5t-158.5 357.5h206q12 -140 101 -221.5t239 -81.5q142 0 227 56.5t85 168.5q0 55 -28 96t-75 66.5t-108 45.5t-128.5 38t-134.5 38t-128 51.5t-108 73t-75 107.5t-28 150q0 172 136 279.5t353 107.5q220 0 359 -117.5t153 -314.5h-207
q-11 111 -92.5 177.5t-212.5 66.5q-128 0 -202 -54t-74 -145q0 -55 28 -96t75 -65.5t108.5 -43.5t129 -35.5t135.5 -35.5t129.5 -50t108.5 -73t75 -109.5t28 -155.5q0 -193 -147 -304t-382 -111zM377 -434l96 295h256l-184 -295h-168z" />
    <glyph glyph-name="uni0219" unicode="&#x219;" horiz-adv-x="956" 
d="M489 -16q-182 0 -294.5 94.5t-122.5 257.5h186q9 -89 70 -137.5t161 -48.5q87 0 141 40t54 99q0 49 -25 80.5t-66.5 45.5t-94 25t-107.5 18t-107.5 26.5t-94 48t-66.5 84.5t-25 135q0 133 102.5 215t264.5 82q175 0 285 -89t118 -235h-186q-10 82 -75.5 124t-141.5 42
q-80 0 -129 -36.5t-49 -96.5q0 -51 32.5 -81t84.5 -41.5t115 -19t126 -24t115 -46t84.5 -93.5t32.5 -160q0 -141 -106.5 -225t-281.5 -84zM254 -434l96 295h256l-184 -295h-168z" />
    <glyph glyph-name="uni021A" unicode="&#x21a;" horiz-adv-x="1153" 
d="M471 0v1245h-448v189h1110v-189h-449v-1245h-213zM365 -434l96 295h256l-185 -295h-167z" />
    <glyph glyph-name="uni021B" unicode="&#x21b;" horiz-adv-x="792" 
d="M246 1356h198v-324h306v-172h-306v-516q0 -83 42 -127.5t118 -44.5h146v-172h-162q-158 0 -250 90.5t-92 247.5v522h-211v172h211v324zM217 -434l96 295h256l-184 -295h-168z" />
    <glyph glyph-name="uni0237" unicode="&#x237;" horiz-adv-x="450" 
d="M127 1032h197v-1110q0 -168 -75 -254t-239 -86h-102v166h82q84 0 110.5 43.5t26.5 145.5v1095z" />
    <glyph glyph-name="uni0259" unicode="&#x259;" horiz-adv-x="1130" 
d="M547 1049q116 0 214 -44t163.5 -118t102 -171.5t36.5 -205.5q0 -146 -57.5 -264.5t-172 -190t-268.5 -71.5q-116 0 -210.5 39.5t-154.5 107t-92 155.5t-32 187q0 42 4 78h788q-11 147 -99 237.5t-222 90.5q-115 0 -186.5 -47t-94.5 -136h-198q28 160 158 256.5t321 96.5z
M565 143q122 0 198 67t99 196h-583q8 -120 84 -191.5t202 -71.5z" />
    <glyph glyph-name="circumflex" unicode="&#x2c6;" horiz-adv-x="819" 
d="M309 1432h172l221 -287h-178l-129 158l-131 -158h-176z" />
    <glyph glyph-name="caron" unicode="&#x2c7;" horiz-adv-x="821" 
d="M289 1147l-223 287h178l131 -158l129 158h178l-223 -287h-170z" />
    <glyph glyph-name="breve" unicode="&#x2d8;" horiz-adv-x="804" 
d="M356 1145q-129 0 -212 83t-83 206h162q0 -64 37 -104t96 -40t98.5 40t39.5 104h159q0 -123 -84 -206t-213 -83z" />
    <glyph glyph-name="dotaccent" unicode="&#x2d9;" horiz-adv-x="430" 
d="M61 1464h222v-250h-222v250z" />
    <glyph glyph-name="ring" unicode="&#x2da;" horiz-adv-x="663" 
d="M317 1116q-110 0 -183 67.5t-73 168.5q0 100 73 166.5t183 66.5t184 -66.5t74 -166.5q0 -101 -74 -168.5t-184 -67.5zM317 1233q56 0 91.5 33.5t35.5 85.5t-35.5 84t-91.5 32t-90 -32t-34 -84q0 -53 34.5 -86t89.5 -33z" />
    <glyph glyph-name="ogonek" unicode="&#x2db;" horiz-adv-x="555" 
d="M449 -276q-78 -99 -203 -99q-88 0 -140.5 47t-52.5 123q0 58 37.5 113.5t102.5 91.5h141q-64 -49 -92.5 -87t-28.5 -73q0 -29 17.5 -45t48.5 -16q45 0 90 51z" />
    <glyph glyph-name="tilde" unicode="&#x2dc;" horiz-adv-x="851" 
d="M532 1188q-51 0 -95 20.5t-78.5 41t-63.5 20.5q-30 0 -51.5 -20.5t-26.5 -53.5h-141q4 101 62 166t143 65q51 0 94.5 -20.5t77.5 -40.5t63 -20q31 0 53.5 19.5t28.5 51.5h139q-4 -103 -61.5 -166t-143.5 -63z" />
    <glyph glyph-name="hungarumlaut" unicode="&#x2dd;" horiz-adv-x="882" 
d="M74 1145l168 303h221l-211 -303h-178zM377 1145l168 303h221l-211 -303h-178z" />
    <glyph glyph-name="gravecomb" unicode="&#x300;" horiz-adv-x="0" 
d="M-10 1145h-180l-211 303h223z" />
    <glyph glyph-name="acutecomb" unicode="&#x301;" horiz-adv-x="0" 
d="M-414 1145l168 303h221l-211 -303h-178z" />
    <glyph glyph-name="uni0302" unicode="&#x302;" horiz-adv-x="0" 
d="M-506 1432h170l223 -287h-178l-129 158l-131 -158h-178z" />
    <glyph glyph-name="tildecomb" unicode="&#x303;" horiz-adv-x="0" 
d="M-270 1188q-51 0 -95 20.5t-79 41t-64 20.5q-30 0 -51.5 -20.5t-26.5 -53.5h-141q4 101 62 166t143 65q51 0 94.5 -20.5t77.5 -40.5t63 -20q31 0 53.5 19.5t28.5 51.5h139q-4 -103 -61 -166t-143 -63z" />
    <glyph glyph-name="uni0304" unicode="&#x304;" horiz-adv-x="0" 
d="M-655 1206v160h553v-160h-553z" />
    <glyph glyph-name="uni0306" unicode="&#x306;" horiz-adv-x="0" 
d="M-442 1145q-129 0 -212 83t-83 206h162q0 -64 37 -104t96 -40t97 40t38 104h162q0 -123 -84 -206t-213 -83z" />
    <glyph glyph-name="uni0307" unicode="&#x307;" horiz-adv-x="0" 
d="M-350 1464h221v-250h-221v250z" />
    <glyph glyph-name="uni0308" unicode="&#x308;" horiz-adv-x="0" 
d="M-719 1417h182v-207h-182v207zM-362 1417h182v-207h-182v207z" />
    <glyph glyph-name="uni030A" unicode="&#x30a;" horiz-adv-x="0" 
d="M-311 1116q-110 0 -183 67.5t-73 168.5q0 100 73 166.5t183 66.5q112 0 185 -66.5t73 -166.5q0 -102 -73 -169t-185 -67zM-311 1233q57 0 92 33t35 86q0 52 -35 84t-92 32q-55 0 -90 -32t-35 -84t35.5 -85.5t89.5 -33.5z" />
    <glyph glyph-name="uni030B" unicode="&#x30b;" horiz-adv-x="0" 
d="M-659 1145l167 303h224l-211 -303h-180zM-356 1145l168 303h223l-211 -303h-180z" />
    <glyph glyph-name="uni030C" unicode="&#x30c;" horiz-adv-x="0" 
d="M-494 1147l-223 287h176l131 -158l129 158h181l-224 -287h-170z" />
    <glyph glyph-name="uni0312" unicode="&#x312;" horiz-adv-x="0" 
d="M-104 1466l-62 -311h-219l121 311h160z" />
    <glyph glyph-name="uni0326" unicode="&#x326;" horiz-adv-x="0" 
d="M-455 -434l97 295h256l-185 -295h-168z" />
    <glyph glyph-name="uni0327" unicode="&#x327;" horiz-adv-x="0" 
d="M-170 -424h-240l226 305h168z" />
    <glyph glyph-name="uni0328" unicode="&#x328;" horiz-adv-x="0" 
d="M-63 -276q-81 -99 -205 -99q-88 0 -140.5 47t-52.5 123q0 58 37 113.5t102 91.5h142q-64 -49 -92.5 -87t-28.5 -73q0 -29 17.5 -45t47.5 -16q45 0 93 51z" />
    <glyph glyph-name="uni0394" unicode="&#x394;" horiz-adv-x="1357" 
d="M776 1434l563 -1434h-1323l564 1434h196zM307 186h744l-371 967z" />
    <glyph glyph-name="uni03A9" unicode="&#x3a9;" horiz-adv-x="1505" 
d="M1427 772q0 -180 -86.5 -334t-234.5 -250h297v-188h-500v244q141 82 223 222.5t82 299.5q0 220 -127.5 361t-328.5 141q-200 0 -328.5 -141t-128.5 -361q0 -157 83.5 -298t225.5 -224v-244h-502v188h299q-150 97 -237.5 251t-87.5 333q0 193 88.5 348t243.5 242.5
t346 87.5q190 0 344 -87.5t241.5 -242.5t87.5 -348z" />
    <glyph glyph-name="uni03BC" unicode="&#x3bc;" horiz-adv-x="1177" 
d="M844 1032h198v-1032h-198v182q-36 -96 -117 -147t-188 -51q-115 0 -213 82v-484h-199v1450h199v-596q0 -123 66 -198.5t173 -75.5q123 0 201 88t78 223v559z" />
    <glyph glyph-name="pi" unicode="&#x3c0;" horiz-adv-x="1273" 
d="M274 0v860h-192v172h1110v-172h-195v-860h-194v860h-334v-860h-195z" />
    <glyph glyph-name="Wgrave" unicode="&#x1e80;" horiz-adv-x="2052" 
d="M1118 1546h-180l-211 303h223zM479 0l-438 1434h219l332 -1117l342 1117h184l342 -1117l334 1117h217l-436 -1434h-213l-336 1104l-336 -1104h-211z" />
    <glyph glyph-name="wgrave" unicode="&#x1e81;" horiz-adv-x="1542" 
d="M860 1145h-180l-211 303h223zM352 0l-319 1032h198l213 -768l234 768h188l232 -768l211 768h200l-319 -1032h-184l-236 770l-233 -770h-185z" />
    <glyph glyph-name="Wacute" unicode="&#x1e82;" horiz-adv-x="2052" 
d="M940 1546l168 303h221l-211 -303h-178zM479 0l-438 1434h219l332 -1117l342 1117h184l342 -1117l334 1117h217l-436 -1434h-213l-336 1104l-336 -1104h-211z" />
    <glyph glyph-name="wacute" unicode="&#x1e83;" horiz-adv-x="1542" 
d="M682 1145l168 303h221l-211 -303h-178zM352 0l-319 1032h198l213 -768l234 768h188l232 -768l211 768h200l-319 -1032h-184l-236 770l-233 -770h-185z" />
    <glyph glyph-name="Wdieresis" unicode="&#x1e84;" horiz-adv-x="2052" 
d="M756 1819h182v-207h-182v207zM1112 1819h182v-207h-182v207zM479 0l-438 1434h219l332 -1117l342 1117h184l342 -1117l334 1117h217l-436 -1434h-213l-336 1104l-336 -1104h-211z" />
    <glyph glyph-name="wdieresis" unicode="&#x1e85;" horiz-adv-x="1542" 
d="M498 1417h182v-207h-182v207zM854 1417h182v-207h-182v207zM352 0l-319 1032h198l213 -768l234 768h188l232 -768l211 768h200l-319 -1032h-184l-236 770l-233 -770h-185z" />
    <glyph glyph-name="uni1E9E" unicode="&#x1e9e;" horiz-adv-x="1273" 
d="M877 817q172 -44 244.5 -142.5t72.5 -254.5q0 -195 -128 -307.5t-351 -112.5h-189v188h158q150 0 225.5 61t75.5 179t-75.5 179t-225.5 61h-55v157l309 234q-11 98 -82.5 155.5t-189.5 57.5q-136 0 -217.5 -93t-81.5 -247v-932h-211v668h-133v186h133v82q0 234 138.5 374
t369.5 140q217 0 353 -121.5t136 -308.5z" />
    <glyph glyph-name="Ygrave" unicode="&#x1ef2;" horiz-adv-x="1230" 
d="M705 1546h-181l-211 303h224zM508 0v598l-502 836h238l370 -633l373 633h238l-504 -836v-598h-213z" />
    <glyph glyph-name="ygrave" unicode="&#x1ef3;" horiz-adv-x="997" 
d="M598 1145h-180l-211 303h223zM975 1032l-363 -995l-155 -455h-191l140 408l-383 1042h204l271 -774l272 774h205z" />
    <glyph glyph-name="endash" unicode="&#x2013;" horiz-adv-x="1155" 
d="M104 563v172h940v-172h-940z" />
    <glyph glyph-name="emdash" unicode="&#x2014;" horiz-adv-x="1671" 
d="M145 563v172h1381v-172h-1381z" />
    <glyph glyph-name="quoteleft" unicode="&#x2018;" horiz-adv-x="509" 
d="M446 1284h-30q-43 0 -66.5 -34t-23.5 -99v-188h-197v202q0 136 70.5 210.5t195.5 74.5h51v-166z" />
    <glyph glyph-name="quoteright" unicode="&#x2019;" horiz-adv-x="546" 
d="M111 1128h30q42 0 65 34.5t23 99.5v188h199v-203q0 -136 -70.5 -210t-195.5 -74h-51v165z" />
    <glyph glyph-name="quotesinglbase" unicode="&#x201a;" horiz-adv-x="512" 
d="M100 -94h31q42 0 65 34.5t23 98.5v190h199v-202q0 -136 -70.5 -210.5t-195.5 -74.5h-52v164z" />
    <glyph glyph-name="quotedblleft" unicode="&#x201c;" horiz-adv-x="833" 
d="M420 1284h-31q-42 0 -65 -34t-23 -99v-188h-199v202q0 134 71 209.5t196 75.5h51v-166zM776 1284h-31q-43 0 -66.5 -34t-23.5 -99v-188h-198v202q0 135 71 210t197 75h51v-166z" />
    <glyph glyph-name="quotedblright" unicode="&#x201d;" horiz-adv-x="833" 
d="M76 1126h30q42 0 65.5 35t23.5 99v190h198v-203q0 -136 -70.5 -210t-195.5 -74h-51v163zM430 1126h31q43 0 66.5 35t23.5 99v190h197v-203q0 -136 -71 -210t-196 -74h-51v163z" />
    <glyph glyph-name="quotedblbase" unicode="&#x201e;" horiz-adv-x="856" 
d="M76 72h30q42 0 65.5 34.5t23.5 98.5v190h198v-202q0 -136 -70.5 -210.5t-195.5 -74.5h-51v164zM430 72h31q43 0 66.5 34.5t23.5 98.5v190h197v-202q0 -136 -71 -210.5t-196 -74.5h-51v164z" />
    <glyph glyph-name="dagger" unicode="&#x2020;" horiz-adv-x="983" 
d="M395 -102v964h-305v170h305v504h195v-504h301v-170h-301v-964h-195z" />
    <glyph glyph-name="daggerdbl" unicode="&#x2021;" horiz-adv-x="983" 
d="M891 862h-301v-692h301v-170h-301v-504h-195v504h-305v170h305v692h-305v170h305v504h195v-504h301v-170z" />
    <glyph glyph-name="bullet" unicode="&#x2022;" horiz-adv-x="571" 
d="M285 340q-86 0 -146.5 60.5t-60.5 146.5t60.5 146.5t146.5 60.5t147.5 -60.5t61.5 -146.5t-61.5 -146.5t-147.5 -60.5z" />
    <glyph glyph-name="ellipsis" unicode="&#x2026;" horiz-adv-x="1603" 
d="M156 221h219v-221h-219v221zM692 221h219v-221h-219v221zM1229 221h217v-221h-217v221z" />
    <glyph glyph-name="perthousand" unicode="&#x2030;" horiz-adv-x="2248" 
d="M414 795q-135 0 -223.5 94.5t-88.5 232.5t88.5 233t223.5 95t222 -95t87 -233t-87 -232.5t-222 -94.5zM154 0l1040 1434h182l-1040 -1434h-182zM414 932q73 0 117 53.5t44 136.5t-44.5 137t-116.5 54q-73 0 -117.5 -54t-44.5 -137t44.5 -136.5t117.5 -53.5zM1120 -16
q-134 0 -222.5 94.5t-88.5 232.5t88.5 233t222.5 95q135 0 222.5 -95t87.5 -233t-87.5 -232.5t-222.5 -94.5zM1837 -16q-135 0 -223 94.5t-88 232.5t88 233t223 95q134 0 221.5 -95t87.5 -233t-87.5 -232.5t-221.5 -94.5zM1120 121q74 0 118 53.5t44 136.5t-44 137t-118 54
q-73 0 -117.5 -54t-44.5 -137t44.5 -136.5t117.5 -53.5zM1837 121q73 0 117.5 53.5t44.5 136.5t-44.5 137t-117.5 54t-117.5 -54t-44.5 -137t44.5 -136.5t117.5 -53.5z" />
    <glyph glyph-name="guilsinglleft" unicode="&#x2039;" horiz-adv-x="772" 
d="M688 152l-616 421v123l616 422v-205l-414 -278l414 -279v-204z" />
    <glyph glyph-name="guilsinglright" unicode="&#x203a;" horiz-adv-x="747" 
d="M111 152v204l411 279l-411 278v205l614 -422v-123z" />
    <glyph glyph-name="fraction" unicode="&#x2044;" horiz-adv-x="538" 
d="M-342 0l1040 1434h183l-1041 -1434h-182z" />
    <glyph glyph-name="uni2070" unicode="&#x2070;" horiz-adv-x="784" 
d="M367 645q-314 0 -314 410v61q0 410 314 410h49q315 0 315 -410v-61q0 -410 -315 -410h-49zM375 784h35q78 0 119.5 58t41.5 172v143q0 114 -41.5 171.5t-119.5 57.5h-35q-77 0 -119.5 -58t-42.5 -171v-143q0 -113 42.5 -171.5t119.5 -58.5z" />
    <glyph glyph-name="uni2074" unicode="&#x2074;" horiz-adv-x="804" 
d="M479 655v185h-440v137l428 539h174v-539h109v-137h-109v-185h-162zM199 977h280v348z" />
    <glyph glyph-name="uni2075" unicode="&#x2075;" horiz-adv-x="737" 
d="M365 645q-117 0 -204 77.5t-95 184.5h141q7 -58 50.5 -92.5t109.5 -34.5q75 0 121.5 43t46.5 115q0 73 -47.5 118.5t-122.5 45.5q-111 0 -152 -78h-131l70 492h475v-140h-357l-30 -196q61 47 145 47q132 0 215.5 -80.5t83.5 -208.5q0 -130 -89 -211.5t-230 -81.5z" />
    <glyph glyph-name="uni2076" unicode="&#x2076;" horiz-adv-x="786" 
d="M414 1231q133 0 217 -83.5t84 -209.5q0 -125 -92 -209t-228 -84q-155 0 -242 113t-87 295q0 224 94.5 348.5t251.5 124.5q128 0 212.5 -68.5t98.5 -175.5h-145q-11 50 -54.5 81.5t-107.5 31.5q-89 0 -145 -76.5t-62 -196.5q28 47 86 78t119 31zM397 776q77 0 124.5 45.5
t47.5 118.5q0 71 -48 115.5t-124 44.5t-124 -44.5t-48 -115.5q0 -73 47.5 -118.5t124.5 -45.5z" />
    <glyph glyph-name="uni2077" unicode="&#x2077;" horiz-adv-x="645" 
d="M195 655q0 121 26.5 219.5t97.5 212.5l183 289h-455v140h633v-127l-225 -357q-58 -93 -79.5 -179t-21.5 -198h-159z" />
    <glyph glyph-name="uni2078" unicode="&#x2078;" horiz-adv-x="768" 
d="M385 645q-137 0 -228 71.5t-91 188.5q0 74 40 130t105 83q-48 29 -78.5 75.5t-30.5 100.5q0 102 79 167t204 65t204 -65t79 -167q0 -56 -30 -101.5t-81 -74.5q66 -27 105.5 -82.5t39.5 -130.5q0 -117 -90 -188.5t-227 -71.5zM385 1178q63 0 100 29.5t37 80.5t-37 81
t-100 30t-100 -30t-37 -81t37 -80.5t100 -29.5zM385 780q76 0 121 34.5t45 94.5q0 61 -45 96t-121 35t-122 -35t-46 -96q0 -59 46 -94t122 -35z" />
    <glyph glyph-name="uni2079" unicode="&#x2079;" horiz-adv-x="788" 
d="M375 940q-133 0 -217 83.5t-84 209.5t91.5 209.5t227.5 83.5q155 0 242.5 -113t87.5 -295q0 -224 -94.5 -348.5t-251.5 -124.5q-128 0 -212.5 68.5t-98.5 175.5h145q11 -50 54.5 -81.5t107.5 -31.5q89 0 145 76.5t62 196.5q-28 -47 -86 -78t-119 -31zM391 1395
q-77 0 -124.5 -45.5t-47.5 -118.5q0 -71 48 -115.5t124 -44.5t124 44.5t48 115.5q0 73 -47.5 118.5t-124.5 45.5z" />
    <glyph glyph-name="Euro" unicode="&#x20ac;" horiz-adv-x="1343" 
d="M1030 362h219q-33 -178 -146 -278t-300 -100h-82q-440 0 -506 497h-174v156h164v25v110v41h-164v154h176q69 483 504 483h82q185 0 296 -97.5t146 -271.5h-219q-21 82 -81.5 131.5t-147.5 49.5h-68q-251 0 -301 -295h463v-154h-473v-176h473v-156h-465q44 -309 303 -309
h68q91 0 152.5 52t80.5 138z" />
    <glyph glyph-name="trademark" unicode="&#x2122;" horiz-adv-x="1738" 
d="M287 614v691h-244v129h633v-129h-244v-691h-145zM825 614v820h152l244 -531l241 531h152v-820h-144v519l-206 -443h-88l-205 443v-519h-146z" />
    <glyph glyph-name="uni2126" unicode="&#x2126;" horiz-adv-x="1505" 
d="M1427 772q0 -180 -86.5 -334t-234.5 -250h297v-188h-500v244q141 82 223 222.5t82 299.5q0 220 -127.5 361t-328.5 141q-200 0 -328.5 -141t-128.5 -361q0 -157 83.5 -298t225.5 -224v-244h-502v188h299q-150 97 -237.5 251t-87.5 333q0 193 88.5 348t243.5 242.5
t346 87.5q190 0 344 -87.5t241.5 -242.5t87.5 -348z" />
    <glyph glyph-name="uni2153" unicode="&#x2153;" horiz-adv-x="1744" 
d="M381 1434v-861h-158v635q-11 -16 -41 -25t-61 -9h-68v139h64q52 0 78.5 26.5t33.5 94.5h152zM178 0l1041 1434h182l-1041 -1434h-182zM1374 -10q-137 0 -228 76.5t-91 205.5h155q0 -67 47 -105t117 -38q73 0 115.5 34t42.5 93q0 57 -42.5 89t-115.5 32h-78v133h74
q59 0 94 33t35 86q0 51 -36.5 79.5t-98.5 28.5q-60 0 -98 -34t-39 -93h-146q3 116 84.5 188t200.5 72q124 0 207.5 -67t83.5 -164q0 -56 -31 -105.5t-80 -78.5q146 -66 146 -203q0 -121 -92 -191.5t-226 -70.5z" />
    <glyph glyph-name="uni2154" unicode="&#x2154;" horiz-adv-x="1974" 
d="M61 1137q-3 141 80 224t224 83q133 0 216 -73.5t83 -192.5q0 -171 -203 -275l-107 -53q-123 -65 -125 -137h435v-140h-605v111q0 67 34.5 126t76 93.5t90.5 59.5l137 67q107 55 107 150q0 60 -38.5 95.5t-100.5 35.5q-69 0 -107.5 -47.5t-34.5 -126.5h-162zM406 0
l1040 1434h182l-1040 -1434h-182zM1604 -10q-137 0 -228.5 76.5t-91.5 205.5h156q0 -67 47 -105t117 -38q73 0 115 33.5t42 93.5q0 57 -42.5 89t-114.5 32h-78v133h73q59 0 94.5 33t35.5 86q0 50 -37 79t-99 29q-60 0 -98 -34t-39 -93h-145q3 116 84 188t200 72
q124 0 207.5 -67t83.5 -164q0 -56 -30.5 -105.5t-79.5 -78.5q145 -66 145 -203q0 -121 -91.5 -191.5t-225.5 -70.5z" />
    <glyph glyph-name="oneeighth" unicode="&#x215b;" horiz-adv-x="1759" 
d="M381 1434v-861h-158v635q-11 -16 -41 -25t-61 -9h-68v139h64q52 0 78.5 26.5t33.5 94.5h152zM178 0l1041 1434h182l-1041 -1434h-182zM1376 -10q-137 0 -228 71.5t-91 188.5q0 74 40 130t105 83q-48 29 -78 75t-30 101q0 102 78.5 166.5t203.5 64.5q126 0 204.5 -64.5
t78.5 -166.5q0 -56 -30 -101.5t-81 -74.5q67 -27 106.5 -83t39.5 -130q0 -117 -90.5 -188.5t-227.5 -71.5zM1376 522q63 0 100 30t37 81t-37 80.5t-100 29.5t-100 -29.5t-37 -80.5t37 -81t100 -30zM1376 125q76 0 121 34.5t45 94.5q0 61 -45 96t-121 35t-122 -35t-46 -96
q0 -59 46 -94t122 -35z" />
    <glyph glyph-name="threeeighths" unicode="&#x215c;" horiz-adv-x="1992" 
d="M383 563q-137 0 -228.5 77t-91.5 206h156q0 -67 47 -105.5t117 -38.5q73 0 115.5 34t42.5 93q0 57 -42.5 89t-115.5 32h-78v133h74q59 0 94 33t35 86q0 51 -36.5 80t-98.5 29q-60 0 -98 -34t-39 -93h-146q3 116 84.5 188t200.5 72q124 0 207.5 -67.5t83.5 -164.5
q0 -56 -31 -105.5t-80 -78.5q145 -66 145 -203q0 -121 -91.5 -191.5t-225.5 -70.5zM412 0l1040 1434h182l-1040 -1434h-182zM1610 -10q-138 0 -229 72t-91 188q0 74 40 130t106 83q-48 29 -78.5 75.5t-30.5 100.5q0 102 78.5 166.5t204.5 64.5q125 0 203.5 -64.5
t78.5 -166.5q0 -56 -29.5 -102t-80.5 -74q66 -27 105.5 -82.5t39.5 -130.5q0 -117 -90 -188.5t-227 -71.5zM1610 522q63 0 100 30t37 81t-37 80.5t-100 29.5t-100 -29.5t-37 -80.5t37 -81t100 -30zM1610 125q76 0 121 34.5t45 94.5q0 61 -45 96t-121 35t-122 -35t-46 -96
q0 -59 46 -94t122 -35z" />
    <glyph glyph-name="fiveeighths" unicode="&#x215d;" horiz-adv-x="1978" 
d="M365 563q-117 0 -204 77.5t-95 184.5h141q7 -58 50.5 -92.5t109.5 -34.5q75 0 121.5 43t46.5 115q0 73 -47.5 118.5t-122.5 45.5q-111 0 -152 -78h-131l70 492h475v-140h-357l-30 -196q61 47 145 47q132 0 215.5 -80.5t83.5 -208.5q0 -130 -89 -211.5t-230 -81.5zM395 0
l1041 1434h182l-1040 -1434h-183zM1595 -10q-137 0 -228 71.5t-91 188.5q0 74 40 130t105 83q-48 29 -78 75t-30 101q0 102 78.5 166.5t203.5 64.5q126 0 204.5 -64.5t78.5 -166.5q0 -56 -30 -101.5t-81 -74.5q67 -27 106.5 -83t39.5 -130q0 -117 -90.5 -188.5t-227.5 -71.5
zM1595 522q63 0 100.5 30t37.5 81t-37.5 80.5t-100.5 29.5t-100 -29.5t-37 -80.5t37 -81t100 -30zM1595 125q76 0 121 34.5t45 94.5q0 61 -45 96t-121 35t-122 -35t-46 -96q0 -59 46 -94t122 -35z" />
    <glyph glyph-name="seveneighths" unicode="&#x215e;" horiz-adv-x="1769" 
d="M195 573q0 121 26.5 220t97.5 213l183 288h-455v140h633v-127l-225 -357q-58 -93 -79.5 -179t-21.5 -198h-159zM186 0l1041 1434h182l-1040 -1434h-183zM1386 -10q-137 0 -228 71.5t-91 188.5q0 74 40 130t105 83q-48 29 -78 75t-30 101q0 102 78.5 166.5t203.5 64.5
q126 0 204.5 -64.5t78.5 -166.5q0 -56 -29.5 -102t-80.5 -74q66 -27 105.5 -82.5t39.5 -130.5q0 -117 -90.5 -188.5t-227.5 -71.5zM1386 522q63 0 100.5 30t37.5 81t-37.5 80.5t-100.5 29.5t-100 -29.5t-37 -80.5t37 -81t100 -30zM1386 125q76 0 121 34.5t45 94.5
q0 61 -45 96t-121 35t-121.5 -35t-45.5 -96q0 -60 45.5 -94.5t121.5 -34.5z" />
    <glyph glyph-name="arrowleft" unicode="&#x2190;" horiz-adv-x="1462" 
d="M1386 621v-172h-1005l377 -377l-111 -111l-571 574l573 575l111 -111l-379 -378h1005z" />
    <glyph glyph-name="arrowup" unicode="&#x2191;" horiz-adv-x="1298" 
d="M1223 745l-109 -108l-379 377v-1008h-172v1008l-377 -379l-110 108l573 576z" />
    <glyph glyph-name="arrowright" unicode="&#x2192;" horiz-adv-x="1462" 
d="M813 1110l573 -575l-571 -574l-110 111l376 377h-1005v172h1005l-379 378z" />
    <glyph glyph-name="arrowdown" unicode="&#x2193;" horiz-adv-x="1298" 
d="M1112 680l111 -109l-574 -575l-573 573l108 109l379 -377v1008h172v-1008z" />
    <glyph glyph-name="arrowboth" unicode="&#x2194;" horiz-adv-x="2127" 
d="M1477 1110l575 -575l-573 -574l-109 111l377 377h-1366l377 -377l-111 -111l-571 574l573 575l111 -111l-379 -378h1366l-379 378z" />
    <glyph glyph-name="arrowupdn" unicode="&#x2195;" horiz-adv-x="1298" 
d="M735 -47l377 379l111 -111l-574 -575l-573 573l108 111l379 -377v1364l-379 -377l-108 111l573 573l574 -575l-111 -111l-377 379v-1364z" />
    <glyph glyph-name="uni2196" unicode="&#x2196;" horiz-adv-x="1200" 
d="M1126 137l-122 -121l-711 711v-532h-156v809h813l-2 -156l-534 2z" />
    <glyph glyph-name="uni2197" unicode="&#x2197;" horiz-adv-x="1189" 
d="M1055 195h-156v534l-713 -713l-120 121l712 713l-536 -2v156h811z" />
    <glyph glyph-name="uni2198" unicode="&#x2198;" horiz-adv-x="1200" 
d="M907 815l156 2v-813h-809v156h532l-710 710l121 123l712 -712z" />
    <glyph glyph-name="uni2199" unicode="&#x2199;" horiz-adv-x="1200" 
d="M1124 862l-710 -710h532v-156h-811v813l158 -2l-2 -535l713 713z" />
    <glyph glyph-name="partialdiff" unicode="&#x2202;" horiz-adv-x="1230" 
d="M637 -16q-140 0 -258 65t-186 177.5t-68 246.5q0 204 142 346t354 142q111 0 215.5 -58.5t148.5 -148.5q-1 117 -38.5 217t-97.5 168t-139 110t-163 51t-170.5 -17.5t-159.5 -88.5l-104 147q65 54 146 86.5t167.5 42.5t176 -6t172.5 -54t155.5 -107.5t126.5 -161
t85.5 -220t31.5 -278.5q0 -299 -144 -479t-393 -180zM635 166q145 0 236.5 86.5t91.5 222.5q0 135 -91.5 220t-236.5 85q-143 0 -233.5 -85t-90.5 -220q0 -136 90.5 -222.5t233.5 -86.5z" />
    <glyph glyph-name="uni2206" unicode="&#x2206;" horiz-adv-x="1357" 
d="M776 1434l563 -1434h-1323l564 1434h196zM307 186h744l-371 967z" />
    <glyph glyph-name="product" unicode="&#x220f;" horiz-adv-x="1343" 
d="M145 0v1434h1053v-1434h-221v1245h-610v-1245h-222z" />
    <glyph glyph-name="summation" unicode="&#x2211;" horiz-adv-x="1124" 
d="M86 0v182l473 535l-473 534v183h944v-189h-684l406 -444v-168l-406 -445h684v-188h-944z" />
    <glyph glyph-name="minus" unicode="&#x2212;" horiz-adv-x="1271" 
d="M145 563v172h981v-172h-981z" />
    <glyph glyph-name="radical" unicode="&#x221a;" horiz-adv-x="1150" 
d="M475 0l-203 616h-217v189h348l172 -543l363 1172h205l-461 -1434h-207z" />
    <glyph glyph-name="infinity" unicode="&#x221e;" horiz-adv-x="1859" 
d="M494 340q-185 0 -296.5 110t-111.5 285t111.5 285t296.5 110q257 0 436 -245q179 245 436 245q185 0 296.5 -110t111.5 -285t-111.5 -285t-296.5 -110q-256 0 -436 246q-180 -246 -436 -246zM524 506q87 0 167.5 58.5t144.5 170.5q-64 112 -144.5 171t-167.5 59
q-115 0 -183.5 -62t-68.5 -168t68.5 -167.5t183.5 -61.5zM1335 506q116 0 184 61t68 168t-68 168.5t-184 61.5q-87 0 -167 -59t-144 -171q64 -112 144 -170.5t167 -58.5z" />
    <glyph glyph-name="integral" unicode="&#x222b;" horiz-adv-x="815" 
d="M586 1464h170v-172h-156q-71 0 -113.5 -45t-42.5 -121v-1214q0 -151 -92.5 -240.5t-247.5 -89.5h-172v172h156q71 0 114.5 45t43.5 121v1213q0 152 92 241.5t248 89.5z" />
    <glyph glyph-name="approxequal" unicode="&#x2248;" horiz-adv-x="1216" 
d="M819 733q-59 0 -115 18t-93.5 39.5t-91 39.5t-107.5 18q-112 0 -195 -100l-117 114q49 81 127.5 134t167.5 53q59 0 115.5 -17.5t94.5 -39t92 -39t108 -17.5q110 0 194 98l117 -114q-51 -81 -129 -134t-168 -53zM821 319q-59 0 -115 17.5t-93.5 39t-91 39t-107.5 17.5
q-114 0 -195 -98l-117 115q49 80 127.5 133t167.5 53q59 0 115.5 -17.5t94.5 -39t92 -39t108 -17.5q112 0 194 99l117 -115q-51 -81 -129 -134t-168 -53z" />
    <glyph glyph-name="notequal" unicode="&#x2260;" horiz-adv-x="1236" 
d="M1126 752h-327l-152 -287h479v-172h-569l-90 -170h-174l90 170h-238v172h330l152 287h-482v172h572l90 168h172l-88 -168h235v-172z" />
    <glyph glyph-name="lessequal" unicode="&#x2264;" horiz-adv-x="960" 
d="M872 236l-784 391v182l784 393v-201l-587 -282l587 -285v-198zM870 0h-784v172h784v-172z" />
    <glyph glyph-name="greaterequal" unicode="&#x2265;" horiz-adv-x="960" 
d="M86 236v198l590 285l-590 282v201l784 -393v-182zM88 0v172h784v-172h-784z" />
    <glyph glyph-name="lozenge" unicode="&#x25ca;" horiz-adv-x="1177" 
d="M496 0l-398 717l398 717h186l397 -717l-397 -717h-186zM588 182l297 535l-297 534l-295 -534z" />
    <glyph glyph-name="uni25CF" unicode="&#x25cf;" horiz-adv-x="1628" 
d="M80 717q0 200 98 368.5t266.5 266.5t368.5 98t368.5 -98t266.5 -266.5t98 -368.5q0 -201 -98 -369.5t-266.5 -266t-368.5 -97.5t-368.5 97.5t-266.5 266t-98 369.5z" />
    <glyph glyph-name="uni2669" unicode="&#x2669;" horiz-adv-x="940" 
d="M702 1434h136v-1434q0 -154 -107.5 -261.5t-259.5 -107.5q-154 0 -261.5 107.5t-107.5 261.5q0 152 107.5 259.5t261.5 107.5q130 0 231 -82v1149z" />
    <glyph glyph-name="musicalnote" unicode="&#x266a;" horiz-adv-x="1513" 
d="M1034 1434q164 0 270.5 -106.5t106.5 -272.5v-109h-119v109q0 109 -73 179.5t-185 70.5h-196v-1305q0 -154 -107.5 -261.5t-259.5 -107.5q-154 0 -261.5 107.5t-107.5 261.5q0 152 107.5 259.5t261.5 107.5q130 0 231 -82v1149h332z" />
    <glyph glyph-name="musicalnotedbl" unicode="&#x266b;" horiz-adv-x="1955" 
d="M1853 1434v-1434q0 -154 -107 -261.5t-259 -107.5q-154 0 -261.5 107.5t-107.5 261.5q0 152 107.5 259.5t261.5 107.5q130 0 231 -82v1020h-880v-1305q0 -154 -107.5 -261.5t-259.5 -107.5q-154 0 -261.5 107.5t-107.5 261.5q0 152 107.5 259.5t261.5 107.5
q130 0 231 -82v1149h1151z" />
    <glyph glyph-name="A.inferior" horiz-adv-x="827" 
d="M655 0l-71 195h-340l-72 -195h-166l334 860h147l334 -860h-166zM291 328h246l-123 336z" />
    <glyph glyph-name="B.inferior" horiz-adv-x="770" 
d="M84 0v860h330q122 0 196 -58.5t74 -162.5q0 -57 -31.5 -102.5t-74.5 -65.5q147 -58 147 -217q0 -119 -80.5 -186.5t-216.5 -67.5h-344zM242 522h164q129 0 129 105q0 104 -132 104h-161v-209zM242 139h170q161 0 161 123q0 125 -161 125h-170v-248z" />
    <glyph glyph-name="C.inferior" horiz-adv-x="892" 
d="M471 -10q-87 0 -163.5 28t-135.5 81.5t-93 138.5t-34 192q0 106 34.5 191.5t94 139t135.5 81.5t162 28q155 0 261.5 -82.5t125.5 -216.5h-168q-12 72 -72 116t-147 44q-118 0 -191 -78.5t-73 -222.5t72.5 -222.5t191.5 -78.5q89 0 150 44t73 116h162q-13 -133 -120 -216
t-265 -83z" />
    <glyph glyph-name="D.inferior" horiz-adv-x="845" 
d="M84 0v860h278q90 0 168.5 -27.5t139.5 -79.5t96 -135.5t35 -187.5t-35 -187.5t-96 -135.5t-139.5 -79.5t-168.5 -27.5h-278zM242 139h106q59 0 109.5 16t92 49t65.5 91t24 135t-24 135t-65.5 91t-92 49t-109.5 16h-106v-582z" />
    <glyph glyph-name="E.inferior" horiz-adv-x="712" 
d="M84 0v860h569v-139h-411v-211h331v-139h-331v-232h426v-139h-584z" />
    <glyph glyph-name="F.inferior" horiz-adv-x="698" 
d="M84 0v860h578v-139h-418v-221h338v-138h-338v-362h-160z" />
    <glyph glyph-name="G.inferior" horiz-adv-x="909" 
d="M465 -10q-83 0 -157.5 28t-133.5 81.5t-94 139t-35 191.5t35.5 191.5t95.5 139t136 81.5t161 28q158 0 263.5 -83.5t117.5 -217.5h-160q-14 72 -75 117t-146 45q-122 0 -198 -80t-76 -221t76.5 -224t195.5 -83q94 0 161.5 49t67.5 119q0 22 -13.5 34.5t-35.5 12.5h-176
v121h234q57 0 100 -40t43 -100v-319h-143v137q-25 -67 -91 -107t-153 -40z" />
    <glyph glyph-name="H.inferior" horiz-adv-x="870" 
d="M629 860h159v-860h-159v373h-387v-373h-158v860h158v-350h387v350z" />
    <glyph glyph-name="I.inferior" horiz-adv-x="325" 
d="M84 0v860h160v-860h-160z" />
    <glyph glyph-name="J.inferior" horiz-adv-x="428" 
d="M27 139h94q44 0 63 26.5t19 84.5v610h159v-616q0 -121 -56 -182.5t-159 -61.5h-120v139z" />
    <glyph glyph-name="K.inferior" horiz-adv-x="833" 
d="M625 0l-260 399l-121 -131v-268h-160v860h160v-377l348 377h199l-316 -342l348 -518h-198z" />
    <glyph glyph-name="L.inferior" horiz-adv-x="659" 
d="M84 0v860h160v-721h401v-139h-561z" />
    <glyph glyph-name="M.inferior" horiz-adv-x="1058" 
d="M84 0v860h180l266 -633l267 633h178v-860h-148v563l-237 -563h-121l-236 563v-563h-149z" />
    <glyph glyph-name="N.inferior" horiz-adv-x="874" 
d="M84 0v860h172l375 -608v608h162v-860h-175l-376 606v-606h-158z" />
    <glyph glyph-name="O.inferior" horiz-adv-x="956" 
d="M479 -10q-188 0 -311 125t-123 315t123 315t311 125q186 0 309 -125t123 -315t-123 -315t-309 -125zM477 129q119 0 196 85.5t77 215.5t-77 215.5t-196 85.5q-118 0 -194 -85.5t-76 -215.5t76 -215.5t194 -85.5z" />
    <glyph glyph-name="P.inferior" horiz-adv-x="737" 
d="M84 0v860h344q132 0 208.5 -73.5t76.5 -192.5t-76.5 -192.5t-208.5 -73.5h-184v-328h-160zM244 463h178q68 0 101.5 37t33.5 94t-33.5 94t-101.5 37h-178v-262z" />
    <glyph glyph-name="Q.inferior" horiz-adv-x="956" 
d="M911 430q0 -170 -101 -290.5t-261 -145.5v-31q0 -96 94 -96h121v-117h-148q-100 0 -153 49.5t-53 143.5v51q-161 25 -263 145.5t-102 290.5q0 190 123 315t311 125q186 0 309 -125t123 -315zM207 430q0 -130 76 -215.5t194 -85.5q119 0 196 85.5t77 215.5t-77 215.5
t-196 85.5q-118 0 -194 -85.5t-76 -215.5z" />
    <glyph glyph-name="R.inferior" horiz-adv-x="813" 
d="M705 229l20 -229h-158l-20 211q-3 51 -35 82t-80 31h-188v-324h-160v860h350q132 0 208.5 -73.5t76.5 -192.5q0 -126 -115 -184q92 -60 101 -181zM244 725v-262h184q68 0 101.5 37.5t33.5 93.5q0 57 -33.5 94t-101.5 37h-184z" />
    <glyph glyph-name="S.inferior" horiz-adv-x="720" 
d="M367 -10q-147 0 -236.5 81.5t-95.5 217.5h153q6 -74 53.5 -117t125.5 -43q71 0 114 30t43 87q0 37 -25.5 61.5t-66.5 38t-90.5 25.5t-99.5 29t-91 43t-66.5 73.5t-25.5 114.5q0 106 83 172.5t214 66.5q135 0 220.5 -72.5t91.5 -193.5h-152q-6 59 -48.5 93t-111.5 34
q-64 0 -101.5 -27t-37.5 -73q0 -39 26 -64t67 -38t91 -24t100.5 -27.5t91.5 -41.5t67 -73.5t26 -116.5q0 -117 -88 -186.5t-231 -69.5z" />
    <glyph glyph-name="T.inferior" horiz-adv-x="704" 
d="M272 0v721h-262v139h682v-139h-260v-721h-160z" />
    <glyph glyph-name="U.inferior" horiz-adv-x="808" 
d="M403 -10q-153 0 -244 84t-91 237v549h149v-551q0 -87 51 -133.5t135 -46.5q87 0 138 46.5t51 133.5v551h149v-549q0 -154 -91.5 -237.5t-246.5 -83.5z" />
    <glyph glyph-name="V.inferior" horiz-adv-x="798" 
d="M322 0l-316 860h162l231 -663l232 663h162l-316 -860h-155z" />
    <glyph glyph-name="W.inferior" horiz-adv-x="1243" 
d="M281 0l-258 860h161l178 -624l191 624h135l191 -624l180 624h162l-258 -860h-158l-184 612l-183 -612h-157z" />
    <glyph glyph-name="X.inferior" horiz-adv-x="759" 
d="M729 0h-168l-180 295l-182 -295h-170l268 432l-262 428h164l180 -293l182 293h166l-264 -430z" />
    <glyph glyph-name="Y.inferior" horiz-adv-x="757" 
d="M297 0v358l-295 502h172l205 -354l205 354h172l-299 -502v-358h-160z" />
    <glyph glyph-name="Z.inferior" horiz-adv-x="729" 
d="M33 0v137l481 586h-455v137h633v-137l-475 -586h475v-137h-659z" />
    <glyph glyph-name="E.titl" 
d="M381 0q-115 0 -175.5 60t-60.5 176v962q0 116 60.5 176t175.5 60h684v-189h-635q-34 0 -53 -18.5t-19 -52.5v-340h572v-189h-572v-385q0 -34 19 -53t53 -19h657v-188h-706z" />
    <glyph glyph-name="Eacute.titl" 
d="M549 1546l168 303h221l-211 -303h-178zM381 0q-115 0 -175.5 60t-60.5 176v962q0 116 60.5 176t175.5 60h684v-189h-635q-34 0 -53 -18.5t-19 -52.5v-340h572v-189h-572v-385q0 -34 19 -53t53 -19h657v-188h-706z" />
    <glyph glyph-name="Ebreve.titl" 
d="M637 1546q-129 0 -212 83t-83 206h162q0 -64 37 -103.5t96 -39.5t97 39.5t38 103.5h162q0 -123 -84 -206t-213 -83zM381 0q-115 0 -175.5 60t-60.5 176v962q0 116 60.5 176t175.5 60h684v-189h-635q-34 0 -53 -18.5t-19 -52.5v-340h572v-189h-572v-385q0 -34 19 -53
t53 -19h657v-188h-706z" />
    <glyph glyph-name="Ecaron.titl" 
d="M551 1548l-223 287h176l131 -158l129 158h180l-223 -287h-170zM381 0q-115 0 -175.5 60t-60.5 176v962q0 116 60.5 176t175.5 60h684v-189h-635q-34 0 -53 -18.5t-19 -52.5v-340h572v-189h-572v-385q0 -34 19 -53t53 -19h657v-188h-706z" />
    <glyph glyph-name="Ecircumflex.titl" 
d="M553 1833h170l223 -287h-178l-129 158l-131 -158h-178zM381 0q-115 0 -175.5 60t-60.5 176v962q0 116 60.5 176t175.5 60h684v-189h-635q-34 0 -53 -18.5t-19 -52.5v-340h572v-189h-572v-385q0 -34 19 -53t53 -19h657v-188h-706z" />
    <glyph glyph-name="Edieresis.titl" 
d="M365 1819h182v-207h-182v207zM721 1819h182v-207h-182v207zM381 0q-115 0 -175.5 60t-60.5 176v962q0 116 60.5 176t175.5 60h684v-189h-635q-34 0 -53 -18.5t-19 -52.5v-340h572v-189h-572v-385q0 -34 19 -53t53 -19h657v-188h-706z" />
    <glyph glyph-name="Edotaccent.titl" 
d="M526 1866h222v-250h-222v250zM381 0q-115 0 -175.5 60t-60.5 176v962q0 116 60.5 176t175.5 60h684v-189h-635q-34 0 -53 -18.5t-19 -52.5v-340h572v-189h-572v-385q0 -34 19 -53t53 -19h657v-188h-706z" />
    <glyph glyph-name="Egrave.titl" 
d="M725 1546h-180l-211 303h223zM381 0q-115 0 -175.5 60t-60.5 176v962q0 116 60.5 176t175.5 60h684v-189h-635q-34 0 -53 -18.5t-19 -52.5v-340h572v-189h-572v-385q0 -34 19 -53t53 -19h657v-188h-706z" />
    <glyph glyph-name="Emacron.titl" 
d="M358 1608v159h553v-159h-553zM381 0q-115 0 -175.5 60t-60.5 176v962q0 116 60.5 176t175.5 60h684v-189h-635q-34 0 -53 -18.5t-19 -52.5v-340h572v-189h-572v-385q0 -34 19 -53t53 -19h657v-188h-706z" />
    <glyph glyph-name="Eogonek.titl" 
d="M1122 -170l80 -106q-81 -99 -205 -99q-88 0 -140 47t-52 123q0 58 37 113.5t102 91.5h-563q-115 0 -175.5 60t-60.5 176v962q0 116 60.5 176t175.5 60h684v-189h-635q-34 0 -53 -18.5t-19 -52.5v-340h572v-189h-572v-385q0 -34 19 -53t53 -19h657v-188h-2
q-120 -92 -120 -160q0 -29 17.5 -45t47.5 -16q44 0 92 51z" />
    <glyph glyph-name="F.titl" horiz-adv-x="1155" 
d="M145 0v1198q0 116 60.5 176t175.5 60h684v-189h-635q-34 0 -53 -18.5t-19 -52.5v-357h572v-188h-572v-629h-213z" />
    <glyph glyph-name="L.titl" horiz-adv-x="1083" 
d="M381 0q-115 0 -175.5 60t-60.5 176v1198h213v-1174q0 -34 19 -53t53 -19h627v-188h-676z" />
    <glyph glyph-name="Lacute.titl" horiz-adv-x="1083" 
d="M219 1546l168 303h221l-211 -303h-178zM381 0q-115 0 -175.5 60t-60.5 176v1198h213v-1174q0 -34 19 -53t53 -19h627v-188h-676z" />
    <glyph glyph-name="Lcaron.titl" horiz-adv-x="1083" 
d="M637 1147l65 364h185l-139 -364h-111zM381 0q-115 0 -175.5 60t-60.5 176v1198h213v-1174q0 -34 19 -53t53 -19h627v-188h-676z" />
    <glyph glyph-name="uni013B.titl" horiz-adv-x="1083" 
d="M381 0q-115 0 -175.5 60t-60.5 176v1198h213v-1174q0 -34 19 -53t53 -19h627v-188h-676zM414 -434l96 295h256l-184 -295h-168z" />
    <glyph glyph-name="Ldot.titl" horiz-adv-x="1083" 
d="M381 0q-115 0 -175.5 60t-60.5 176v1198h213v-1174q0 -34 19 -53t53 -19h627v-188h-676zM653 842h221v-250h-221v250z" />
    <glyph glyph-name="Lslash.titl" horiz-adv-x="1083" 
d="M430 188h627v-188h-676q-115 0 -175.5 60t-60.5 176v395l-149 -39v158l149 38v646h213v-592l160 41v-158l-160 -41v-424q0 -34 19 -53t53 -19z" />
    <glyph glyph-name="i.loclTRK" horiz-adv-x="450" 
d="M115 1464h221v-250h-221v250zM127 0v1032h199v-1032h-199z" />
    <glyph glyph-name="germandbls.calt" horiz-adv-x="1273" 
d="M877 817q172 -44 244.5 -142.5t72.5 -254.5q0 -195 -128 -307.5t-351 -112.5h-189v188h158q150 0 225.5 61t75.5 179t-75.5 179t-225.5 61h-55v157l309 234q-11 98 -82.5 155.5t-189.5 57.5q-136 0 -217.5 -93t-81.5 -247v-932h-211v668h-133v186h133v82q0 234 138.5 374
t369.5 140q217 0 353 -121.5t136 -308.5z" />
    <glyph glyph-name="a.inferior" horiz-adv-x="632" 
d="M305 629q122 0 197.5 -63t75.5 -165v-401h-142v90q-21 -44 -72 -72t-114 -28q-90 0 -148.5 53t-58.5 133q0 93 61 144t172 51h121q39 0 39 39v2q0 46 -36 76t-93 30q-56 0 -91.5 -31.5t-37.5 -76.5h-135q8 94 80 156.5t182 62.5zM285 102q71 0 111 43t40 117v14h-135
q-113 0 -113 -94q0 -35 27.5 -57.5t69.5 -22.5z" />
    <glyph glyph-name="b.inferior" horiz-adv-x="743" 
d="M406 -10q-59 0 -108 23.5t-73 60.5v-74h-147v883h147v-334q28 36 77 58t106 22q136 0 214 -87.5t78 -232.5q0 -144 -78.5 -231.5t-215.5 -87.5zM385 119q75 0 121.5 52t46.5 138q0 87 -46.5 140t-121.5 53q-77 0 -123.5 -52.5t-46.5 -140.5q0 -86 46.5 -138t123.5 -52z
" />
    <glyph glyph-name="c.inferior" horiz-adv-x="679" 
d="M356 -10q-141 0 -227 91.5t-86 227.5t86 228t227 92q119 0 202.5 -65t92.5 -169h-147q-7 46 -48.5 76.5t-95.5 30.5q-77 0 -120 -54t-43 -139q0 -84 43.5 -137t119.5 -53q55 0 94.5 28t51.5 74h149q-14 -102 -97 -166.5t-202 -64.5z" />
    <glyph glyph-name="d.inferior" horiz-adv-x="743" 
d="M338 -10q-137 0 -216 88t-79 231q0 144 78.5 232t214.5 88q57 0 105 -22t77 -58v334h148v-883h-148v74q-24 -37 -72.5 -60.5t-107.5 -23.5zM358 119q77 0 123.5 52t46.5 138q0 88 -46.5 140.5t-123.5 52.5q-75 0 -121.5 -53t-46.5 -140q0 -86 46.5 -138t121.5 -52z" />
    <glyph glyph-name="e.inferior" horiz-adv-x="686" 
d="M504 207h145q-17 -99 -96.5 -158t-194.5 -59q-97 0 -170.5 47t-109 119t-35.5 155q0 85 33 156t103 116.5t167 45.5q75 0 133.5 -25.5t94 -68t53.5 -95t18 -110.5q0 -37 -2 -49h-457q8 -76 53.5 -121t118.5 -45q122 0 146 92zM346 518q-134 0 -158 -139h310
q-5 62 -45 100.5t-107 38.5z" />
    <glyph glyph-name="f.inferior" horiz-adv-x="507" 
d="M145 0v494h-122v124h122v60q0 94 60 149.5t160 55.5h110v-125h-94q-40 0 -64 -23.5t-24 -64.5v-52h182v-124h-182v-494h-148z" />
    <glyph glyph-name="g.inferior" horiz-adv-x="743" 
d="M518 618h148v-653q0 -96 -64 -155.5t-168 -59.5h-305v117h285q46 0 75 31.5t29 81.5v90q-23 -37 -71.5 -58.5t-108.5 -21.5q-137 0 -216 88t-79 231q0 144 78.5 232t214.5 88q57 0 105 -22t77 -58v69zM358 119q77 0 123.5 52t46.5 138q0 88 -46.5 140.5t-123.5 52.5
q-76 0 -122 -52.5t-46 -140.5q0 -86 46 -138t122 -52z" />
    <glyph glyph-name="h.inferior" horiz-adv-x="724" 
d="M78 0v883h147v-361q26 51 76.5 79t116.5 28q104 0 167.5 -68.5t63.5 -177.5v-383h-147v352q0 64 -36 104t-95 40q-64 0 -105 -44.5t-41 -113.5v-338h-147z" />
    <glyph glyph-name="i.inferior" horiz-adv-x="313" 
d="M76 887h164v-170h-164v170zM82 0v618h149v-618h-149z" />
    <glyph glyph-name="j.inferior" horiz-adv-x="309" 
d="M74 887h164v-170h-164v170zM80 618h149v-663q0 -99 -51.5 -152t-154.5 -53h-64v117h43q44 0 61 25t17 77v649z" />
    <glyph glyph-name="k.inferior" horiz-adv-x="684" 
d="M496 0l-197 276l-74 -71v-205h-147v883h147v-492l244 227h184l-252 -241l275 -377h-180z" />
    <glyph glyph-name="l.inferior" horiz-adv-x="303" 
d="M78 0v883h147v-883h-147z" />
    <glyph glyph-name="m.inferior" horiz-adv-x="1093" 
d="M78 0v618h147v-96q23 48 70 77.5t111 29.5q72 0 122 -31t70 -88q22 51 78.5 85t126.5 34q100 0 160.5 -64.5t60.5 -165.5v-399h-150v354q0 67 -31.5 107.5t-86.5 40.5q-61 0 -96 -40.5t-35 -107.5v-354h-150v354q0 67 -32 107.5t-87 40.5q-61 0 -96 -40.5t-35 -107.5
v-354h-147z" />
    <glyph glyph-name="n.inferior" horiz-adv-x="720" 
d="M78 0v618h147v-96q26 51 76.5 79t116.5 28q104 0 167.5 -68.5t63.5 -177.5v-383h-147v352q0 64 -36 104t-95 40q-64 0 -105 -44.5t-41 -113.5v-338h-147z" />
    <glyph glyph-name="o.inferior" horiz-adv-x="733" 
d="M367 -10q-141 0 -232.5 90.5t-91.5 228.5t91.5 229t232.5 91t232 -91t91 -229t-91 -228.5t-232 -90.5zM367 119q78 0 125 52.5t47 137.5q0 87 -47 140t-125 53t-126 -53.5t-48 -139.5q0 -85 48 -137.5t126 -52.5z" />
    <glyph glyph-name="p.inferior" horiz-adv-x="743" 
d="M78 -250v868h147v-71q27 38 76 60t111 22q133 0 210.5 -88t77.5 -232q0 -142 -81.5 -230.5t-215.5 -88.5q-55 0 -102.5 20.5t-75.5 55.5v-316h-147zM385 119q76 0 122 52t46 138q0 88 -46 140.5t-122 52.5t-122 -52.5t-46 -140.5q0 -86 46 -138t122 -52z" />
    <glyph glyph-name="q.inferior" horiz-adv-x="743" 
d="M666 -250h-148v316q-28 -35 -75.5 -55.5t-102.5 -20.5q-134 0 -215.5 88.5t-81.5 230.5q0 144 77.5 232t211.5 88q62 0 110.5 -22t75.5 -60v71h148v-868zM358 119q76 0 122 52t46 138q0 88 -46 140.5t-122 52.5t-122 -52.5t-46 -140.5q0 -86 46 -138t122 -52z" />
    <glyph glyph-name="r.inferior" horiz-adv-x="477" 
d="M457 489h-101q-70 0 -100.5 -49t-30.5 -143v-297h-147v618h147v-122q46 133 156 133h76v-140z" />
    <glyph glyph-name="s.inferior" horiz-adv-x="571" 
d="M295 -10q-112 0 -182 58.5t-76 156.5h131q5 -47 38.5 -74t88.5 -27q44 0 72 20.5t28 51.5q0 29 -19 46t-48.5 24.5t-66 13t-73 15.5t-66 28t-48.5 56t-19 94q0 75 62.5 125.5t158.5 50.5q107 0 175.5 -54t72.5 -143h-131q-4 42 -38.5 65t-75.5 23q-43 0 -69 -18t-26 -51
q0 -32 25.5 -49t64 -20.5t83.5 -12.5t83.5 -24t64 -56.5t25.5 -106.5q0 -87 -64.5 -139.5t-170.5 -52.5z" />
    <glyph glyph-name="t.inferior" horiz-adv-x="524" 
d="M145 807h148v-189h174v-124h-174v-265q0 -46 23.5 -71t66.5 -25h84v-133h-100q-102 0 -162 56.5t-60 158.5v279h-122v124h122v189z" />
    <glyph glyph-name="u.inferior" horiz-adv-x="720" 
d="M643 618v-618h-149v96q-25 -51 -75.5 -78.5t-117.5 -27.5q-104 0 -166.5 68t-62.5 178v382h147v-352q0 -64 36 -103.5t95 -39.5q63 0 103.5 44.5t40.5 113.5v337h149z" />
    <glyph glyph-name="v.inferior" horiz-adv-x="614" 
d="M238 0l-228 618h152l145 -428l144 428h153l-227 -618h-139z" />
    <glyph glyph-name="w.inferior" horiz-adv-x="964" 
d="M233 0l-204 618h149l121 -411l115 411h137l115 -411l120 411h150l-203 -618h-133l-117 412l-118 -412h-132z" />
    <glyph glyph-name="x.inferior" horiz-adv-x="628" 
d="M618 0h-157l-146 209l-147 -209h-158l223 324l-206 294h163l125 -178l123 178h164l-207 -294z" />
    <glyph glyph-name="y.inferior" horiz-adv-x="614" 
d="M604 618l-192 -522l-119 -346h-143l88 250l-228 618h152l145 -428l144 428h153z" />
    <glyph glyph-name="z.inferior" horiz-adv-x="610" 
d="M43 0v125l342 369h-322v124h492v-124l-340 -369h358v-125h-530z" />
    <glyph glyph-name="a.ss01" horiz-adv-x="1232" 
d="M573 -16q-232 0 -363.5 148t-131.5 384t131 384.5t362 148.5q100 0 190 -43t138 -111v137h199v-1032h-199v139q-37 -67 -128 -111t-198 -44zM596 158q144 0 230.5 98t86.5 260t-86.5 260t-230.5 98q-142 0 -228.5 -98.5t-86.5 -259.5t86.5 -259.5t228.5 -98.5z" />
    <glyph glyph-name="aacute.ss01" horiz-adv-x="1232" 
d="M530 1145l168 303h222l-211 -303h-179zM573 -16q-232 0 -363.5 148t-131.5 384t131 384.5t362 148.5q100 0 190 -43t138 -111v137h199v-1032h-199v139q-37 -67 -128 -111t-198 -44zM596 158q144 0 230.5 98t86.5 260t-86.5 260t-230.5 98q-142 0 -228.5 -98.5
t-86.5 -259.5t86.5 -259.5t228.5 -98.5z" />
    <glyph glyph-name="abreve.ss01" horiz-adv-x="1232" 
d="M618 1145q-129 0 -211.5 83t-82.5 206h161q0 -64 37 -104t96 -40t97.5 40t38.5 104h161q0 -123 -84 -206t-213 -83zM573 -16q-232 0 -363.5 148t-131.5 384t131 384.5t362 148.5q100 0 190 -43t138 -111v137h199v-1032h-199v139q-37 -67 -128 -111t-198 -44zM596 158
q144 0 230.5 98t86.5 260t-86.5 260t-230.5 98q-142 0 -228.5 -98.5t-86.5 -259.5t86.5 -259.5t228.5 -98.5z" />
    <glyph glyph-name="acircumflex.ss01" horiz-adv-x="1232" 
d="M535 1432h170l223 -287h-178l-129 158l-132 -158h-178zM573 -16q-232 0 -363.5 148t-131.5 384t131 384.5t362 148.5q100 0 190 -43t138 -111v137h199v-1032h-199v139q-37 -67 -128 -111t-198 -44zM596 158q144 0 230.5 98t86.5 260t-86.5 260t-230.5 98
q-142 0 -228.5 -98.5t-86.5 -259.5t86.5 -259.5t228.5 -98.5z" />
    <glyph glyph-name="adieresis.ss01" horiz-adv-x="1232" 
d="M346 1417h182v-207h-182v207zM702 1417h183v-207h-183v207zM573 -16q-232 0 -363.5 148t-131.5 384t131 384.5t362 148.5q100 0 190 -43t138 -111v137h199v-1032h-199v139q-37 -67 -128 -111t-198 -44zM596 158q144 0 230.5 98t86.5 260t-86.5 260t-230.5 98
q-142 0 -228.5 -98.5t-86.5 -259.5t86.5 -259.5t228.5 -98.5z" />
    <glyph glyph-name="agrave.ss01" horiz-adv-x="1232" 
d="M707 1145h-181l-211 303h224zM573 -16q-232 0 -363.5 148t-131.5 384t131 384.5t362 148.5q100 0 190 -43t138 -111v137h199v-1032h-199v139q-37 -67 -128 -111t-198 -44zM596 158q144 0 230.5 98t86.5 260t-86.5 260t-230.5 98q-142 0 -228.5 -98.5t-86.5 -259.5
t86.5 -259.5t228.5 -98.5z" />
    <glyph glyph-name="amacron.ss01" horiz-adv-x="1232" 
d="M340 1206v160h553v-160h-553zM573 -16q-232 0 -363.5 148t-131.5 384t131 384.5t362 148.5q100 0 190 -43t138 -111v137h199v-1032h-199v139q-37 -67 -128 -111t-198 -44zM596 158q144 0 230.5 98t86.5 260t-86.5 260t-230.5 98q-142 0 -228.5 -98.5t-86.5 -259.5
t86.5 -259.5t228.5 -98.5z" />
    <glyph glyph-name="aogonek.ss01" horiz-adv-x="1232" 
d="M1133 -170l79 -106q-81 -99 -204 -99q-88 0 -140.5 47t-52.5 123q0 58 37 113.5t102 91.5h-55v139q-37 -67 -128 -111t-198 -44q-232 0 -363.5 148t-131.5 384t131 384.5t362 148.5q100 0 190 -43t138 -111v137h199v-1032h-2q-64 -49 -92.5 -87t-28.5 -73q0 -29 17.5 -45
t47.5 -16q45 0 93 51zM596 158q144 0 230.5 98t86.5 260t-86.5 260t-230.5 98q-142 0 -228.5 -98.5t-86.5 -259.5t86.5 -259.5t228.5 -98.5z" />
    <glyph glyph-name="aring.ss01" horiz-adv-x="1232" 
d="M616 1116q-110 0 -183 67.5t-73 168.5q0 100 73 166.5t183 66.5q112 0 185 -66.5t73 -166.5q0 -102 -73 -169t-185 -67zM616 1233q57 0 92 33t35 86q0 52 -35 84t-92 32q-55 0 -89.5 -32t-34.5 -84t35 -85.5t89 -33.5zM573 -16q-232 0 -363.5 148t-131.5 384t131 384.5
t362 148.5q100 0 190 -43t138 -111v137h199v-1032h-199v139q-37 -67 -128 -111t-198 -44zM596 158q144 0 230.5 98t86.5 260t-86.5 260t-230.5 98q-142 0 -228.5 -98.5t-86.5 -259.5t86.5 -259.5t228.5 -98.5z" />
    <glyph glyph-name="aringacute.ss01" horiz-adv-x="1232" 
d="M616 1116q-110 0 -183 67.5t-73 168.5q0 83 51.5 144.5t135.5 80.5l164 295h221l-211 -303h-4q71 -25 114 -84t43 -133q0 -102 -73 -169t-185 -67zM616 1468q-55 0 -89.5 -32t-34.5 -84t35 -85.5t89 -33.5q57 0 92 33t35 86q0 52 -35 84t-92 32zM899 1032h199v-1032h-199
v139q-37 -67 -128 -111t-198 -44q-232 0 -363.5 148t-131.5 384t131 384.5t362 148.5q100 0 190 -43t138 -111v137zM596 158q144 0 230.5 98t86.5 260t-86.5 260t-230.5 98q-142 0 -228.5 -98.5t-86.5 -259.5t86.5 -259.5t228.5 -98.5z" />
    <glyph glyph-name="atilde.ss01" horiz-adv-x="1232" 
d="M743 1188q-51 0 -95 20.5t-78.5 41t-63.5 20.5q-30 0 -51.5 -20.5t-26.5 -53.5h-141q4 101 62 166t143 65q51 0 94.5 -20.5t77.5 -40.5t63 -20q31 0 53.5 19.5t28.5 51.5h139q-4 -103 -61.5 -166t-143.5 -63zM573 -16q-232 0 -363.5 148t-131.5 384t131 384.5t362 148.5
q100 0 190 -43t138 -111v137h199v-1032h-199v139q-37 -67 -128 -111t-198 -44zM596 158q144 0 230.5 98t86.5 260t-86.5 260t-230.5 98q-142 0 -228.5 -98.5t-86.5 -259.5t86.5 -259.5t228.5 -98.5z" />
    <glyph glyph-name="ae.ss01" horiz-adv-x="1974" 
d="M1708 336h199q-28 -160 -158 -256t-322 -96q-227 0 -356 163v-147h-182v139q-37 -67 -128 -111t-198 -44q-232 0 -363.5 148t-131.5 384t131 384.5t362 148.5q100 0 190 -43t138 -111v137h182v-135q123 152 338 152q116 0 210.5 -39.5t154.5 -107.5t92 -156t32 -187
q0 -42 -4 -78h-786q11 -147 98 -237t221 -90q115 0 186.5 47t94.5 135zM1409 889q-122 0 -197.5 -67t-97.5 -195h582q-8 120 -84.5 191t-202.5 71zM586 158q144 0 230.5 98t86.5 260t-86.5 260t-230.5 98q-142 0 -229 -98.5t-87 -259.5t87 -259.5t229 -98.5z" />
    <glyph glyph-name="aeacute.ss01" horiz-adv-x="1974" 
d="M1286 1448l-211 -303h-178l168 303h221zM1708 336h199q-28 -160 -158 -256t-322 -96q-227 0 -356 163v-147h-182v139q-37 -67 -128 -111t-198 -44q-232 0 -363.5 148t-131.5 384t131 384.5t362 148.5q100 0 190 -43t138 -111v137h182v-135q123 152 338 152
q116 0 210.5 -39.5t154.5 -107.5t92 -156t32 -187q0 -42 -4 -78h-786q11 -147 98 -237t221 -90q115 0 186.5 47t94.5 135zM1409 889q-122 0 -197.5 -67t-97.5 -195h582q-8 120 -84.5 191t-202.5 71zM586 158q144 0 230.5 98t86.5 260t-86.5 260t-230.5 98q-142 0 -229 -98.5
t-87 -259.5t87 -259.5t229 -98.5z" />
    <glyph glyph-name="g.ss02" horiz-adv-x="1079" 
d="M688 190q155 0 249.5 -73t94.5 -211q0 -143 -85 -233.5t-234 -90.5h-320q-156 0 -241.5 83.5t-85.5 221.5q0 62 30 117t78 94q-80 58 -80 160q0 59 29.5 105t95.5 112q-69 90 -69 217q0 160 111.5 258.5t285.5 98.5q82 0 164 -29l141 162l127 -113l-125 -143
q90 -100 90 -234q0 -161 -111.5 -258.5t-285.5 -97.5q-114 0 -201 41q-34 -37 -46.5 -58t-12.5 -47q0 -42 31.5 -62t82.5 -20h287zM547 891q-88 0 -147.5 -54t-59.5 -145q0 -89 59.5 -142.5t147.5 -53.5t147.5 53.5t59.5 142.5q0 91 -59.5 145t-147.5 54zM705 -252
q133 0 133 143q0 140 -166 140h-240q-60 0 -104 8q-70 -54 -70 -145q0 -62 40 -104t101 -42h306z" />
    <glyph glyph-name="gbreve.ss02" horiz-adv-x="1079" 
d="M543 1145q-129 0 -212 83t-83 206h162q0 -64 37 -104t96 -40t97 40t38 104h162q0 -123 -84 -206t-213 -83zM688 190q155 0 249.5 -73t94.5 -211q0 -143 -85 -233.5t-234 -90.5h-320q-156 0 -241.5 83.5t-85.5 221.5q0 62 30 117t78 94q-80 58 -80 160q0 59 29.5 105
t95.5 112q-69 90 -69 217q0 160 111.5 258.5t285.5 98.5q82 0 164 -29l141 162l127 -113l-125 -143q90 -100 90 -234q0 -161 -111.5 -258.5t-285.5 -97.5q-114 0 -201 41q-34 -37 -46.5 -58t-12.5 -47q0 -42 31.5 -62t82.5 -20h287zM547 891q-88 0 -147.5 -54t-59.5 -145
q0 -89 59.5 -142.5t147.5 -53.5t147.5 53.5t59.5 142.5q0 91 -59.5 145t-147.5 54zM705 -252q133 0 133 143q0 140 -166 140h-240q-60 0 -104 8q-70 -54 -70 -145q0 -62 40 -104t101 -42h306z" />
    <glyph glyph-name="gcircumflex.ss02" horiz-adv-x="1079" 
d="M688 190q155 0 249.5 -73t94.5 -211q0 -143 -85 -233.5t-234 -90.5h-320q-156 0 -241.5 83.5t-85.5 221.5q0 62 30 117t78 94q-80 58 -80 160q0 59 29.5 105t95.5 112q-69 90 -69 217q0 160 111.5 258.5t285.5 98.5q82 0 164 -29l108 125h-131l-129 158l-131 -158h-176
l221 287h172l199 -258l8 8l127 -113l-125 -143q90 -100 90 -234q0 -161 -111.5 -258.5t-285.5 -97.5q-114 0 -201 41q-34 -37 -46.5 -58t-12.5 -47q0 -42 31.5 -62t82.5 -20h287zM547 891q-88 0 -147.5 -54t-59.5 -145q0 -89 59.5 -142.5t147.5 -53.5t147.5 53.5t59.5 142.5
q0 91 -59.5 145t-147.5 54zM705 -252q133 0 133 143q0 140 -166 140h-240q-60 0 -104 8q-70 -54 -70 -145q0 -62 40 -104t101 -42h306z" />
    <glyph glyph-name="uni0123.ss02" horiz-adv-x="1079" 
d="M737 1466l-61 -311h-219l121 311h159zM688 190q155 0 249.5 -73t94.5 -211q0 -143 -85 -233.5t-234 -90.5h-320q-156 0 -241.5 83.5t-85.5 221.5q0 62 30 117t78 94q-80 58 -80 160q0 59 29.5 105t95.5 112q-69 90 -69 217q0 160 111.5 258.5t285.5 98.5q82 0 164 -29
l141 162l127 -113l-125 -143q90 -100 90 -234q0 -161 -111.5 -258.5t-285.5 -97.5q-114 0 -201 41q-34 -37 -46.5 -58t-12.5 -47q0 -42 31.5 -62t82.5 -20h287zM547 891q-88 0 -147.5 -54t-59.5 -145q0 -89 59.5 -142.5t147.5 -53.5t147.5 53.5t59.5 142.5q0 91 -59.5 145
t-147.5 54zM705 -252q133 0 133 143q0 140 -166 140h-240q-60 0 -104 8q-70 -54 -70 -145q0 -62 40 -104t101 -42h306z" />
    <glyph glyph-name="gdotaccent.ss02" horiz-adv-x="1079" 
d="M653 1464v-250h-221v250h221zM688 190q155 0 249.5 -73t94.5 -211q0 -143 -85 -233.5t-234 -90.5h-320q-156 0 -241.5 83.5t-85.5 221.5q0 62 30 117t78 94q-80 58 -80 160q0 59 29.5 105t95.5 112q-69 90 -69 217q0 160 111.5 258.5t285.5 98.5q82 0 164 -29l141 162
l127 -113l-125 -143q90 -100 90 -234q0 -161 -111.5 -258.5t-285.5 -97.5q-114 0 -201 41q-34 -37 -46.5 -58t-12.5 -47q0 -42 31.5 -62t82.5 -20h287zM547 891q-88 0 -147.5 -54t-59.5 -145q0 -89 59.5 -142.5t147.5 -53.5t147.5 53.5t59.5 142.5q0 91 -59.5 145t-147.5 54
zM705 -252q133 0 133 143q0 140 -166 140h-240q-60 0 -104 8q-70 -54 -70 -145q0 -62 40 -104t101 -42h306z" />
    <glyph glyph-name="y.ss03" horiz-adv-x="997" 
d="M975 1032l-377 -1032l-53 -150q-50 -137 -116.5 -202.5t-184.5 -65.5h-127v166h112q43 0 76.5 28.5t59.5 104.5l38 111l-380 1040h204l271 -782l272 782h205z" />
    <glyph glyph-name="yacute.ss03" horiz-adv-x="997" 
d="M809 1448l-211 -303h-178l168 303h221zM975 1032l-377 -1032l-53 -150q-50 -137 -116.5 -202.5t-184.5 -65.5h-127v166h112q43 0 76.5 28.5t59.5 104.5l38 111l-380 1040h204l271 -782l272 782h205z" />
    <glyph glyph-name="ycircumflex.ss03" horiz-adv-x="997" 
d="M512 1303l-131 -158h-178l223 287h170l223 -287h-178zM975 1032l-377 -1032l-53 -150q-50 -137 -116.5 -202.5t-184.5 -65.5h-127v166h112q43 0 76.5 28.5t59.5 104.5l38 111l-380 1040h204l271 -782l272 782h205z" />
    <glyph glyph-name="ydieresis.ss03" horiz-adv-x="997" 
d="M418 1417v-207h-182v207h182zM774 1417v-207h-182v207h182zM975 1032l-377 -1032l-53 -150q-50 -137 -116.5 -202.5t-184.5 -65.5h-127v166h112q43 0 76.5 28.5t59.5 104.5l38 111l-380 1040h204l271 -782l272 782h205z" />
    <glyph glyph-name="ygrave.ss03" horiz-adv-x="997" 
d="M598 1145h-180l-211 303h223zM975 1032l-377 -1032l-53 -150q-50 -137 -116.5 -202.5t-184.5 -65.5h-127v166h112q43 0 76.5 28.5t59.5 104.5l38 111l-380 1040h204l271 -782l272 782h205z" />
    <glyph glyph-name="t.ss04" horiz-adv-x="792" 
d="M246 1356h198v-324h306v-172h-306v-516q0 -83 42 -127.5t118 -44.5h146v-172h-162q-158 0 -250 90.5t-92 247.5v522h-211v172h149q62 0 62 60v264z" />
    <glyph glyph-name="tbar.ss04" horiz-adv-x="792" 
d="M750 860h-306v-264h285v-147h-285v-105q0 -83 42 -127.5t118 -44.5h146v-172h-162q-158 0 -250 90.5t-92 247.5v111h-140v147h140v264h-211v172h149q62 0 62 60v264h198v-324h306v-172z" />
    <glyph glyph-name="tcaron.ss04" horiz-adv-x="792" 
d="M598 1147l66 364h184l-139 -364h-111zM246 1356h198v-324h306v-172h-306v-516q0 -83 42 -127.5t118 -44.5h146v-172h-162q-158 0 -250 90.5t-92 247.5v522h-211v172h149q62 0 62 60v264z" />
    <glyph glyph-name="uni0163.ss04" horiz-adv-x="792" 
d="M246 1356h198v-324h306v-172h-306v-516q0 -83 42 -127.5t118 -44.5h146v-172h-162q-158 0 -250 90.5t-92 247.5v522h-211v172h149q62 0 62 60v264zM412 -424h-240l225 305h168z" />
    <glyph glyph-name="uni021B.ss04" horiz-adv-x="792" 
d="M246 1356h198v-324h306v-172h-306v-516q0 -83 42 -127.5t118 -44.5h146v-172h-162q-158 0 -250 90.5t-92 247.5v522h-211v172h149q62 0 62 60v264zM217 -434l96 295h256l-184 -295h-168z" />
    <glyph glyph-name="O_O.dlig" horiz-adv-x="2793" 
d="M766 -16q-200 0 -357 94t-243 261t-86 378t85.5 377.5t242.5 261t360 94.5q86 0 163 -18.5t131.5 -47.5t101.5 -64.5t81 -71t61.5 -64.5t51 -47.5t41.5 -18.5t41 18.5t50 47.5t60.5 64.5t80 71t101 64.5t131 47.5t162.5 18.5q203 0 360.5 -94.5t243 -261t85.5 -377.5
t-85.5 -377.5t-243 -261t-360.5 -94.5q-86 0 -162.5 18.5t-131.5 47.5t-101.5 64t-80 70.5t-60.5 64.5t-50.5 47.5t-41.5 18.5t-41.5 -18.5t-50.5 -47.5t-61.5 -64t-81.5 -70.5t-102 -64.5t-131.5 -47.5t-162.5 -18.5zM768 172q77 0 143.5 20.5t113 54t87.5 73.5t74.5 79.5
t65.5 73t68.5 54t76.5 20.5t77 -20.5t68.5 -54t65 -73.5t74 -79.5t87.5 -73t113 -54t143 -20.5q211 0 341.5 153.5t130.5 391.5t-130.5 391.5t-341.5 153.5q-77 0 -143 -20.5t-113 -53.5t-87.5 -72.5t-74 -79.5t-65 -73t-68.5 -53.5t-77 -20.5t-76.5 20.5t-68.5 53.5
t-65.5 73t-74.5 79.5t-87.5 72.5t-113 53.5t-143.5 20.5q-211 0 -341 -153.5t-130 -391.5t130 -391.5t341 -153.5z" />
    <glyph glyph-name="T_T.dlig" horiz-adv-x="2023" 
d="M2003 1434v-189h-449v-1245h-213v1245h-657v-1245h-213v1245h-448v189h1980z" />
    <glyph glyph-name="T_h.dlig" horiz-adv-x="2164" 
d="M1653 1049q174 0 279.5 -114.5t105.5 -299.5v-635h-199v596q0 123 -66.5 198.5t-175.5 75.5q-121 0 -198.5 -88t-77.5 -223v-559h-199v1245h-438v-1245h-213v1245h-448v189h1298v-584q41 96 128 147.5t204 51.5z" />
    <glyph glyph-name="T_i.dlig" horiz-adv-x="1413" 
d="M471 0v1245h-448v189h1110v-189h-449v-1245h-213zM1087 0v1032h199v-1032h-199z" />
    <glyph glyph-name="o_o.dlig" horiz-adv-x="2076" 
d="M578 -16q-227 0 -368.5 150t-141.5 382t141.5 382.5t368.5 150.5q82 0 151.5 -22.5t113 -55t78.5 -65t64 -55t53 -22.5t53 22.5t64 55t79 65t113.5 55t151.5 22.5q227 0 368.5 -150.5t141.5 -382.5t-141.5 -382t-368.5 -150q-82 0 -151.5 22.5t-113.5 55t-79 64.5
t-64 54.5t-53 22.5t-53 -22.5t-64 -54.5t-78.5 -64.5t-113 -55t-151.5 -22.5zM592 162q63 0 118 24.5t94.5 59.5t76 70.5t76.5 60t81 24.5t81.5 -24.5t76.5 -59.5t76 -70.5t96 -60t119 -24.5q141 0 230 99t89 255t-89 255t-230 99q-63 0 -119 -24.5t-96 -60t-76 -70.5
t-76.5 -59.5t-81.5 -24.5t-81 24.5t-76.5 59.5t-76 70.5t-94.5 60t-118 24.5q-142 0 -232 -99t-90 -255t90 -255t232 -99z" />
    <glyph glyph-name="zero.inferior" horiz-adv-x="784" 
d="M367 -10q-314 0 -314 409v62q0 409 314 409h49q315 0 315 -409v-62q0 -409 -315 -409h-49zM375 129h35q78 0 119.5 57.5t41.5 171.5v144q0 114 -41.5 171.5t-119.5 57.5h-35q-77 0 -119.5 -58t-42.5 -171v-144q0 -113 42.5 -171t119.5 -58z" />
    <glyph glyph-name="one.inferior" horiz-adv-x="473" 
d="M381 860v-860h-158v635q-11 -16 -41.5 -25.5t-60.5 -9.5h-68v139h64q52 0 78.5 26.5t33.5 94.5h152z" />
    <glyph glyph-name="two.inferior" horiz-adv-x="706" 
d="M61 563q-3 141 80 224t224 83q133 0 216 -73.5t83 -192.5q0 -170 -203 -274l-107 -54q-123 -65 -125 -137h435v-139h-605v111q0 51 19 97t50.5 80.5t64 58.5t67.5 42l137 68q107 55 107 149q0 60 -38.5 95.5t-100.5 35.5q-69 0 -107.5 -47.5t-34.5 -126.5h-162z" />
    <glyph glyph-name="three.inferior" horiz-adv-x="753" 
d="M383 -10q-137 0 -228.5 76.5t-91.5 205.5h156q0 -67 47 -105t117 -38q73 0 115.5 34t42.5 93q0 57 -42.5 89t-115.5 32h-78v133h74q59 0 94 33t35 86q0 51 -36.5 79.5t-98.5 28.5q-60 0 -98 -34t-39 -93h-146q3 116 84.5 188t200.5 72q124 0 207.5 -67t83.5 -164
q0 -56 -31 -105.5t-80 -78.5q145 -66 145 -203q0 -121 -91.5 -191.5t-225.5 -70.5z" />
    <glyph glyph-name="four.inferior" horiz-adv-x="804" 
d="M479 0v184h-440v138l428 538h174v-538h109v-138h-109v-184h-162zM199 322h280v348z" />
    <glyph glyph-name="five.inferior" horiz-adv-x="737" 
d="M365 -10q-117 0 -204 77.5t-95 184.5h141q7 -58 50.5 -92.5t109.5 -34.5q75 0 121.5 43t46.5 115q0 73 -47.5 118t-122.5 45q-111 0 -152 -77h-131l70 491h475v-139h-357l-30 -197q61 47 145 47q132 0 215.5 -80.5t83.5 -207.5q0 -130 -89 -211.5t-230 -81.5z" />
    <glyph glyph-name="six.inferior" horiz-adv-x="786" 
d="M414 575q133 0 217 -83t84 -209q0 -125 -92 -209t-228 -84q-155 0 -242 112.5t-87 294.5q0 224 94.5 348.5t251.5 124.5q128 0 212.5 -68.5t98.5 -174.5h-145q-11 50 -54.5 81t-107.5 31q-89 0 -145 -76t-62 -196q28 47 85.5 77.5t119.5 30.5zM397 121q77 0 124.5 45.5
t47.5 118.5q0 71 -48 115t-124 44t-124 -44t-48 -115q0 -73 47.5 -118.5t124.5 -45.5z" />
    <glyph glyph-name="seven.inferior" horiz-adv-x="645" 
d="M195 0q0 121 26.5 219.5t97.5 212.5l183 289h-455v139h633v-127l-225 -356q-58 -93 -79.5 -179t-21.5 -198h-159z" />
    <glyph glyph-name="eight.inferior" horiz-adv-x="768" 
d="M385 -10q-137 0 -228 71.5t-91 188.5q0 74 40 130t105 83q-48 29 -78.5 75.5t-30.5 100.5q0 102 78.5 166.5t204.5 64.5t204.5 -64.5t78.5 -166.5q0 -56 -30 -101.5t-81 -74.5q66 -27 105.5 -82.5t39.5 -130.5q0 -117 -90 -188.5t-227 -71.5zM385 522q63 0 100 30t37 81
t-37 80.5t-100 29.5t-100 -29.5t-37 -80.5t37 -81t100 -30zM385 125q76 0 121 34.5t45 94.5q0 61 -45 96t-121 35t-122 -35t-46 -96q0 -59 46 -94t122 -35z" />
    <glyph glyph-name="nine.inferior" horiz-adv-x="788" 
d="M375 285q-133 0 -217 83.5t-84 209.5q0 125 91.5 208.5t227.5 83.5q155 0 242.5 -113t87.5 -294q0 -224 -94.5 -348.5t-251.5 -124.5q-128 0 -212.5 68.5t-98.5 174.5h145q11 -50 54.5 -81t107.5 -31q89 0 145 76t62 196q-28 -47 -85.5 -77.5t-119.5 -30.5zM391 739
q-77 0 -124.5 -45.5t-47.5 -118.5q0 -71 48 -115t124 -44t124 44t48 115q0 73 -47.5 118.5t-124.5 45.5z" />
    <glyph glyph-name="eight.ss06" horiz-adv-x="1214" 
d="M129 1057q0 167 136.5 280t342.5 113q203 0 340 -113.5t137 -279.5q0 -72 -19 -126t-46 -82.5t-54 -49t-46 -39t-19 -37.5q0 -20 21 -39.5t51 -41.5t60.5 -52.5t51.5 -85.5t21 -127q0 -172 -140 -282.5t-358 -110.5t-358.5 110.5t-140.5 282.5q0 72 21 127t51 85.5
t60 52.5t51 41.5t21 39.5q0 19 -19 37.5t-46 39t-54 49t-46 82.5t-19 126zM322 1038q0 -53 20.5 -94t49.5 -67t58 -48t49.5 -48.5t20.5 -57.5t-22 -58.5t-53 -52t-62.5 -52t-53.5 -70t-22 -95.5q0 -98 85.5 -162.5t215.5 -64.5q129 2 214 66t85 161q0 53 -22.5 95.5
t-54.5 70t-63.5 52t-54 52t-22.5 58.5t21 57.5t51 48.5t59.5 48t50.5 67t21 94q0 98 -81 162t-204 64q-126 0 -206 -63.5t-80 -162.5z" />
    <glyph glyph-name="eight.ss06.inferior" horiz-adv-x="749" 
d="M78 631q0 100 85 169.5t212 69.5q126 0 211.5 -69.5t85.5 -169.5q0 -52 -16 -89t-35.5 -51.5t-35.5 -29t-16 -27.5q0 -14 18 -30t39.5 -31.5t39.5 -53.5t18 -90q0 -104 -87 -171.5t-222 -67.5t-222 67.5t-87 171.5q0 52 18 90t39 53.5t39 31.5t18 30q0 13 -16 27.5
t-35 29t-35 51.5t-16 89zM219 612q0 -37 17.5 -65t39 -42t39 -32.5t17.5 -38.5q0 -21 -18.5 -40.5t-40 -35t-40 -44.5t-18.5 -66q0 -54 45.5 -88.5t114.5 -34.5t114.5 35t45.5 88q0 37 -18.5 66t-41 44.5t-41 35t-18.5 40.5q0 20 18 38.5t39 32.5t39 42t18 65q0 52 -44 87.5
t-111 35.5t-111.5 -35.5t-44.5 -87.5z" />
    <glyph glyph-name="zero.tf" horiz-adv-x="1325" 
d="M625 -16q-259 0 -380.5 171t-121.5 507v110q0 336 121.5 507t380.5 171h73q260 0 381 -171.5t121 -506.5v-110q0 -335 -121 -506.5t-381 -171.5h-73zM633 172h59q295 0 295 449v192q0 449 -295 449h-59q-295 0 -295 -449v-192q0 -449 295 -449z" />
    <glyph glyph-name="one.tf" horiz-adv-x="1325" 
d="M786 188h295v-188h-848v188h340v914q-16 -24 -58 -37.5t-87 -13.5h-127v188h111q79 0 119.5 42t50.5 153h204v-1246z" />
    <glyph glyph-name="two.tf" horiz-adv-x="1325" 
d="M176 956q-7 226 125.5 360t360.5 134q212 0 345.5 -119.5t133.5 -314.5q0 -285 -336 -457l-211 -106q-91 -45 -156 -114t-65 -151h772v-188h-981v154q-1 71 21 137t56 115.5t81 93.5t91 73.5t91 53.5l223 112q103 53 150 121.5t47 157.5q0 113 -73 181.5t-189 68.5
q-128 0 -201.5 -86t-67.5 -226h-217z" />
    <glyph glyph-name="three.tf" horiz-adv-x="1325" 
d="M670 -16q-223 0 -373 129t-150 338h209q0 -126 89.5 -202.5t224.5 -76.5q138 0 218.5 64.5t80.5 177.5q0 114 -80 174.5t-219 60.5h-121v182h117q113 0 180 62.5t67 161.5q0 96 -69.5 151.5t-188.5 55.5q-115 0 -184.5 -63t-73.5 -181h-204q6 196 137 314t327 118
q203 0 336 -109t133 -272q0 -104 -54.5 -189t-141.5 -126q114 -38 184 -128.5t70 -213.5q0 -133 -72 -232t-187 -147.5t-255 -48.5z" />
    <glyph glyph-name="four.tf" horiz-adv-x="1325" 
d="M829 0v336h-753v188l727 910h239v-910h209v-188h-209v-336h-213zM295 524h534v666z" />
    <glyph glyph-name="five.tf" horiz-adv-x="1325" 
d="M655 -16q-200 0 -338 121t-155 307h205q15 -115 90.5 -177.5t195.5 -62.5q145 0 231.5 81t86.5 220t-86.5 224t-229.5 85q-105 0 -179.5 -39.5t-106.5 -111.5h-179l113 803h784v-189h-624l-57 -387q50 45 126.5 75t157.5 30q219 0 358.5 -138t139.5 -352
q0 -217 -149.5 -353t-383.5 -136z" />
    <glyph glyph-name="six.tf" horiz-adv-x="1325" 
d="M684 958q221 0 362.5 -138t141.5 -349q0 -210 -148.5 -348.5t-371.5 -138.5q-251 0 -397 184t-146 483q0 382 156.5 591.5t410.5 209.5q204 0 342.5 -110t165.5 -283h-207q-22 97 -100.5 153t-196.5 56q-158 0 -259.5 -145.5t-110.5 -368.5q44 90 145.5 147t212.5 57z
M670 172q132 0 216.5 84.5t84.5 216.5q0 130 -84.5 213.5t-216.5 83.5q-133 0 -218 -83t-85 -214q0 -132 85 -216.5t218 -84.5z" />
    <glyph glyph-name="seven.tf" horiz-adv-x="1325" 
d="M430 0q2 195 46 361t171 370l320 514h-803v189h1040v-170l-385 -629q-104 -172 -139 -315t-37 -320h-213z" />
    <glyph glyph-name="eight.tf" horiz-adv-x="1325" 
d="M657 -16q-145 0 -262 50t-187.5 148.5t-70.5 229.5q0 125 72 222t184 138q-87 46 -141.5 123.5t-54.5 175.5q0 166 128.5 272.5t331.5 106.5t332 -106.5t129 -272.5q0 -98 -55 -176t-145 -123q115 -41 186.5 -137.5t71.5 -222.5q0 -196 -149 -312t-370 -116zM657 856
q117 0 185.5 56t68.5 153q0 95 -68.5 150t-185.5 55t-186.5 -55t-69.5 -150q0 -96 69.5 -152.5t186.5 -56.5zM657 172q140 0 223 65t83 179q0 115 -83.5 181.5t-222.5 66.5q-140 0 -223.5 -66.5t-83.5 -181.5q0 -114 83 -179t224 -65z" />
    <glyph glyph-name="nine.tf" horiz-adv-x="1325" 
d="M641 487q-221 0 -362.5 137.5t-141.5 348.5q0 210 148.5 348.5t371.5 138.5q167 0 291 -84.5t188 -234.5t64 -346q0 -382 -156.5 -591.5t-410.5 -209.5q-204 0 -342.5 109.5t-165.5 283.5h207q22 -97 100.5 -154t196.5 -57q158 0 259.5 145.5t110.5 368.5
q-44 -90 -145 -146.5t-213 -56.5zM655 1272q-132 0 -216.5 -84.5t-84.5 -216.5q0 -129 84.5 -213t216.5 -84q133 0 218 84t85 213q0 132 -85 216.5t-218 84.5z" />
    <glyph glyph-name="eight.tf.ss06" horiz-adv-x="1325" 
d="M178 1057q0 166 137 279.5t342 113.5t341.5 -113.5t136.5 -279.5q0 -72 -19 -126t-46.5 -82.5t-54.5 -49t-46 -39t-19 -37.5q0 -20 21.5 -39.5t52 -41.5t60.5 -52.5t51.5 -85.5t21.5 -127q0 -172 -141 -282.5t-359 -110.5t-358.5 110.5t-140.5 282.5q0 72 21.5 127
t52 85.5t60.5 52.5t51.5 41.5t21.5 39.5q0 19 -19.5 37.5t-46.5 39t-54.5 49t-47 82.5t-19.5 126zM373 1038q0 -53 20.5 -94t49.5 -67t58 -48t49.5 -48.5t20.5 -57.5t-22 -58.5t-53 -52t-62.5 -52t-53.5 -70t-22 -95.5q0 -98 84.5 -162.5t214.5 -64.5q130 1 214.5 65.5
t84.5 161.5q0 53 -22 95.5t-54 70t-63.5 52t-53.5 52t-22 58.5t21 57.5t50.5 48.5t59.5 48t51 67t21 94q0 98 -81 162t-206 64t-204.5 -63.5t-79.5 -162.5z" />
    <glyph glyph-name="zero.dnom" horiz-adv-x="784" 
d="M367 -10q-314 0 -314 409v62q0 409 314 409h49q315 0 315 -409v-62q0 -409 -315 -409h-49zM375 129h35q78 0 119.5 57.5t41.5 171.5v144q0 114 -41.5 171.5t-119.5 57.5h-35q-77 0 -119.5 -58t-42.5 -171v-144q0 -113 42.5 -171t119.5 -58z" />
    <glyph glyph-name="one.dnom" horiz-adv-x="464" 
d="M381 860v-860h-158v635q-11 -16 -41.5 -25.5t-60.5 -9.5h-68v139h64q52 0 78.5 26.5t33.5 94.5h152z" />
    <glyph glyph-name="two.dnom" horiz-adv-x="649" 
d="M61 563q-3 141 80 224t224 83q133 0 216 -73.5t83 -192.5q0 -170 -203 -274l-107 -54q-123 -65 -125 -137h435v-139h-605v111q0 51 19 97t50.5 80.5t64 58.5t67.5 42l137 68q107 55 107 149q0 60 -38.5 95.5t-100.5 35.5q-69 0 -107.5 -47.5t-34.5 -126.5h-162z" />
    <glyph glyph-name="three.dnom" horiz-adv-x="753" 
d="M383 -10q-137 0 -228.5 76.5t-91.5 205.5h156q0 -67 47 -105t117 -38q73 0 115.5 34t42.5 93q0 57 -42.5 89t-115.5 32h-78v133h74q59 0 94 33t35 86q0 51 -36.5 79.5t-98.5 28.5q-60 0 -98 -34t-39 -93h-146q3 116 84.5 188t200.5 72q124 0 207.5 -67t83.5 -164
q0 -56 -31 -105.5t-80 -78.5q145 -66 145 -203q0 -121 -91.5 -191.5t-225.5 -70.5z" />
    <glyph glyph-name="four.dnom" horiz-adv-x="804" 
d="M479 0v184h-440v138l428 538h174v-538h109v-138h-109v-184h-162zM199 322h280v348z" />
    <glyph glyph-name="five.dnom" horiz-adv-x="669" 
d="M365 -10q-117 0 -204 77.5t-95 184.5h141q7 -58 50.5 -92.5t109.5 -34.5q75 0 121.5 43t46.5 115q0 73 -47.5 118t-122.5 45q-111 0 -152 -77h-131l70 491h475v-139h-357l-30 -197q61 47 145 47q132 0 215.5 -80.5t83.5 -207.5q0 -130 -89 -211.5t-230 -81.5z" />
    <glyph glyph-name="six.dnom" horiz-adv-x="716" 
d="M414 575q133 0 217 -83t84 -209q0 -125 -92 -209t-228 -84q-155 0 -242 112.5t-87 294.5q0 224 94.5 348.5t251.5 124.5q128 0 212.5 -68.5t98.5 -174.5h-145q-11 50 -54.5 81t-107.5 31q-89 0 -145 -76t-62 -196q28 47 85.5 77.5t119.5 30.5zM397 121q77 0 124.5 45.5
t47.5 118.5q0 71 -48 115t-124 44t-124 -44t-48 -115q0 -73 47.5 -118.5t124.5 -45.5z" />
    <glyph glyph-name="seven.dnom" horiz-adv-x="624" 
d="M195 0q0 121 26.5 219.5t97.5 212.5l183 289h-455v139h633v-127l-225 -356q-58 -93 -79.5 -179t-21.5 -198h-159z" />
    <glyph glyph-name="eight.dnom" horiz-adv-x="768" 
d="M385 -10q-137 0 -228 71.5t-91 188.5q0 74 40 130t105 83q-48 29 -78.5 75.5t-30.5 100.5q0 102 78.5 166.5t204.5 64.5t204.5 -64.5t78.5 -166.5q0 -56 -30 -101.5t-81 -74.5q66 -27 105.5 -82.5t39.5 -130.5q0 -117 -90 -188.5t-227 -71.5zM385 522q63 0 100 30t37 81
t-37 80.5t-100 29.5t-100 -29.5t-37 -80.5t37 -81t100 -30zM385 125q76 0 121 34.5t45 94.5q0 61 -45 96t-121 35t-122 -35t-46 -96q0 -59 46 -94t122 -35z" />
    <glyph glyph-name="nine.dnom" horiz-adv-x="788" 
d="M375 285q-133 0 -217 83.5t-84 209.5q0 125 91.5 208.5t227.5 83.5q155 0 242.5 -113t87.5 -294q0 -224 -94.5 -348.5t-251.5 -124.5q-128 0 -212.5 68.5t-98.5 174.5h145q11 -50 54.5 -81t107.5 -31q89 0 145 76t62 196q-28 -47 -85.5 -77.5t-119.5 -30.5zM391 739
q-77 0 -124.5 -45.5t-47.5 -118.5q0 -71 48 -115t124 -44t124 44t48 115q0 73 -47.5 118.5t-124.5 45.5z" />
    <glyph glyph-name="zero.numr" horiz-adv-x="784" 
d="M367 563q-314 0 -314 410v61q0 410 314 410h49q315 0 315 -410v-61q0 -410 -315 -410h-49zM375 702h35q78 0 119.5 58t41.5 172v143q0 114 -41.5 172t-119.5 58h-35q-77 0 -119.5 -58.5t-42.5 -171.5v-143q0 -113 42.5 -171.5t119.5 -58.5z" />
    <glyph glyph-name="one.numr" horiz-adv-x="473" 
d="M381 1434v-861h-158v635q-11 -16 -41 -25t-61 -9h-68v139h64q52 0 78.5 26.5t33.5 94.5h152z" />
    <glyph glyph-name="two.numr" horiz-adv-x="706" 
d="M61 1137q-3 141 80 224t224 83q133 0 216 -73.5t83 -192.5q0 -171 -203 -275l-107 -53q-123 -65 -125 -137h435v-140h-605v111q0 67 34.5 126t76 93.5t90.5 59.5l137 67q107 55 107 150q0 60 -38.5 95.5t-100.5 35.5q-69 0 -107.5 -47.5t-34.5 -126.5h-162z" />
    <glyph glyph-name="three.numr" horiz-adv-x="753" 
d="M383 563q-137 0 -228.5 77t-91.5 206h156q0 -67 47 -105.5t117 -38.5q73 0 115.5 34t42.5 93q0 57 -42.5 89t-115.5 32h-78v133h74q59 0 94 33t35 86q0 51 -36.5 80t-98.5 29q-60 0 -98 -34t-39 -93h-146q3 116 84.5 188t200.5 72q124 0 207.5 -67.5t83.5 -164.5
q0 -56 -31 -105.5t-80 -78.5q145 -66 145 -203q0 -121 -91.5 -191.5t-225.5 -70.5z" />
    <glyph glyph-name="four.numr" horiz-adv-x="804" 
d="M479 573v185h-440v137l428 539h174v-539h109v-137h-109v-185h-162zM199 895h280v348z" />
    <glyph glyph-name="five.numr" horiz-adv-x="737" 
d="M365 563q-117 0 -204 77.5t-95 184.5h141q7 -58 50.5 -92.5t109.5 -34.5q75 0 121.5 43t46.5 115q0 73 -47.5 118.5t-122.5 45.5q-111 0 -152 -78h-131l70 492h475v-140h-357l-30 -196q61 47 145 47q132 0 215.5 -80.5t83.5 -208.5q0 -130 -89 -211.5t-230 -81.5z" />
    <glyph glyph-name="six.numr" horiz-adv-x="786" 
d="M414 1149q133 0 217 -83.5t84 -209.5q0 -125 -92 -209t-228 -84q-155 0 -242 113t-87 295q0 224 94.5 348.5t251.5 124.5q128 0 212.5 -68.5t98.5 -175.5h-145q-11 50 -54.5 81.5t-107.5 31.5q-89 0 -145 -76.5t-62 -196.5q28 47 86 78t119 31zM397 694q77 0 124.5 45.5
t47.5 118.5q0 71 -48 115.5t-124 44.5t-124 -44.5t-48 -115.5q0 -73 47.5 -118.5t124.5 -45.5z" />
    <glyph glyph-name="seven.numr" horiz-adv-x="645" 
d="M195 573q0 121 26.5 220t97.5 213l183 288h-455v140h633v-127l-225 -357q-58 -93 -79.5 -179t-21.5 -198h-159z" />
    <glyph glyph-name="eight.numr" horiz-adv-x="768" 
d="M385 563q-137 0 -228 71.5t-91 188.5q0 74 40 130t105 83q-48 29 -78.5 75.5t-30.5 100.5q0 102 79 167t204 65t204 -65t79 -167q0 -56 -30 -101.5t-81 -74.5q66 -27 105.5 -82.5t39.5 -130.5q0 -117 -90 -188.5t-227 -71.5zM385 1096q63 0 100 29.5t37 80.5t-37 81
t-100 30t-100 -30t-37 -81t37 -80.5t100 -29.5zM385 698q76 0 121 34.5t45 94.5q0 61 -45 96t-121 35t-122 -35t-46 -96q0 -59 46 -94t122 -35z" />
    <glyph glyph-name="nine.numr" horiz-adv-x="788" 
d="M375 858q-133 0 -217 83.5t-84 209.5t91.5 209.5t227.5 83.5q155 0 242.5 -113t87.5 -295q0 -224 -94.5 -348.5t-251.5 -124.5q-128 0 -212.5 68.5t-98.5 175.5h145q11 -50 54.5 -81.5t107.5 -31.5q89 0 145 76.5t62 196.5q-28 -47 -86 -78t-119 -31zM391 1313
q-77 0 -124.5 -45.5t-47.5 -118.5q0 -71 48 -115.5t124 -44.5t124 44.5t48 115.5q0 73 -47.5 118.5t-124.5 45.5z" />
    <glyph glyph-name="colon.cap" horiz-adv-x="530" 
d="M156 1174h219v-222h-219v222zM156 434h219v-223h-219v223z" />
    <glyph glyph-name="bullet.case" horiz-adv-x="571" 
d="M285 541q-86 0 -146.5 60.5t-60.5 146.5t60.5 146t146.5 60q87 0 148 -60t61 -146t-61.5 -146.5t-147.5 -60.5z" />
    <glyph glyph-name="emdash.alt" horiz-adv-x="2338" 
d="M145 563v172h2048v-172h-2048z" />
    <glyph glyph-name="quotesinglbase.ss05" horiz-adv-x="512" 
d="M113 221h303v-272q0 -126 -71.5 -198.5t-194.5 -72.5h-50v146h29q51 0 80 35t29 96v45h-125v221z" />
    <glyph glyph-name="quotedblbase.ss05" horiz-adv-x="954" 
d="M123 0v221h303v-272q0 -126 -71.5 -198.5t-194.5 -72.5h-49v146h28q51 0 80 35t29 96v45h-125zM532 221h304v-272q0 -126 -72 -198.5t-195 -72.5h-49v146h29q51 0 79.5 34.5t28.5 96.5v45h-125v221z" />
    <glyph glyph-name="quotedblleft.ss05" horiz-adv-x="954" 
d="M119 1241q0 125 71.5 196.5t196.5 71.5h49v-143h-28q-52 0 -81.5 -35.5t-29.5 -97.5v-45h125v-221h-303v274zM817 1366q-52 0 -81 -35.5t-29 -97.5v-45h124v-221h-303v274q0 124 72 196t197 72h49v-143h-29z" />
    <glyph glyph-name="quotedblright.ss05" horiz-adv-x="954" 
d="M123 1288v221h303v-272q0 -126 -71.5 -198t-194.5 -72h-49v145h28q51 0 80 35t29 96v45h-125zM532 1509h304v-272q0 -126 -72 -198t-195 -72h-49v145h29q51 0 79.5 34.5t28.5 96.5v45h-125v221z" />
    <glyph glyph-name="quoteleft.ss05" horiz-adv-x="514" 
d="M408 1366q-51 0 -80 -35.5t-29 -97.5v-45h125v-221h-303v274q0 124 71.5 196t194.5 72h49v-143h-28z" />
    <glyph glyph-name="quoteright.ss05" horiz-adv-x="544" 
d="M123 1509h303v-272q0 -126 -71.5 -198t-194.5 -72h-49v145h28q51 0 80 35t29 96v45h-125v221z" />
    <glyph glyph-name="circle.rights" horiz-adv-x="1875" 
d="M944 -82q-167 0 -315.5 61.5t-254.5 167.5t-167.5 254.5t-61.5 315.5t61.5 315.5t167.5 254.5t254.5 167.5t315.5 61.5t315.5 -61.5t254.5 -167.5t167.5 -254.5t61.5 -315.5t-61.5 -315.5t-167.5 -254.5t-254.5 -167.5t-315.5 -61.5zM944 35q141 0 265.5 52.5t214 143
t141.5 217t53 269.5q-1 143 -53 269.5t-141.5 217t-214 143t-265.5 52.5t-266.5 -52.5t-215.5 -143t-142 -217t-52 -269.5t52 -269.5t142 -217t215.5 -143t266.5 -52.5z" />
    <glyph glyph-name="caroncomb.alt" horiz-adv-x="0" 
d="M-340 1147l66 364h184l-139 -364h-111z" />
    <glyph glyph-name="gravecomb.viet" horiz-adv-x="0" 
d="M-123 1145h-180l-211 303h223z" />
    <glyph glyph-name="acutecomb.viet" horiz-adv-x="0" 
d="M-395 1145l168 303h221l-211 -303h-178z" />
    </font>
</defs>
</svg>
